<?xml version="1.0" encoding="UTF-8" standalone="no"?>
<!-- Created with Inkscape (http://www.inkscape.org/) -->

<svg
   version="1.1"
   id="svg137592"
   width="710.9129"
   height="620.58636"
   viewBox="0 0 710.9129 620.58636"
   sodipodi:docname="11-ii-upgrade-model.svg"
   inkscape:version="1.1.2 (0a00cf5339, 2022-02-04)"
   xmlns:inkscape="http://www.inkscape.org/namespaces/inkscape"
   xmlns:sodipodi="http://sodipodi.sourceforge.net/DTD/sodipodi-0.dtd"
   xmlns="http://www.w3.org/2000/svg"
   xmlns:svg="http://www.w3.org/2000/svg">
  <defs
     id="defs137596" />
  <sodipodi:namedview
     id="namedview137594"
     pagecolor="#ffffff"
     bordercolor="#666666"
     borderopacity="1.0"
     inkscape:pageshadow="2"
     inkscape:pageopacity="0.0"
     inkscape:pagecheckerboard="0"
     showgrid="false"
     inkscape:zoom="4.023388"
     inkscape:cx="260.47699"
     inkscape:cy="519.71125"
     inkscape:window-width="3840"
     inkscape:window-height="1536"
     inkscape:window-x="0"
     inkscape:window-y="0"
     inkscape:window-maximized="1"
     inkscape:current-layer="g137598" />
  <g
     inkscape:groupmode="layer"
     inkscape:label="Image"
     id="g137598"
     transform="translate(154.44453,141.68018)">
    <path
       style="fill:#000000;stroke-width:0.842106"
       d="m -148.09169,477.79603 c -0.93892,-0.93892 -2.4047,-1.8429 -3.25728,-2.00882 -1.47294,-0.28666 -1.5442,-1.7693 -1.4306,-29.76068 0.0658,-16.20246 0.1602,-75.5011 0.20994,-131.7748 l 0.0904,-102.31578 h 11.57952 c 6.36874,0 60.274265,-0.27134 119.790065,-0.60296 140.146995,-0.78092 176.949635,-0.83336 177.530035,-0.25296 0.26078,0.2608 0.38878,2.4548 0.28442,4.87556 -0.134,3.10826 0.053,4.03744 0.63632,3.16264 0.45432,-0.68132 1.00062,-1.06028 1.21396,-0.8421 0.30954,0.3165 1.67282,74.75286 1.4262,77.87034 -0.0366,0.46316 -0.2433,35.5158 -0.45922,77.89474 -0.4667,91.59706 -0.64992,101.6182 -1.88046,102.84874 -0.66034,0.66034 -22.44276,0.87998 -76.153883,0.7679 -108.744332,-0.22692 -106.056552,-0.22716 -130.386852,0.012 -12.27368,0.1202 -28,0.1944 -34.94736,0.1648 -57.669745,-0.24556 -61.381005,-0.20264 -61.949145,0.71662 -0.40206,0.65054 -1.13056,0.41122 -2.29604,-0.75426 z m 301.9916,-3.95708 c 0.31316,-0.313 0.68786,-49.53012 0.8327,-109.37138 l 0.26332,-108.8023 -1.94754,-0.1248 c -1.07114,-0.0686 -15.02122,-0.1472 -31.00016,-0.1744 -15.97894,-0.0272 -31.042103,-0.3747 -33.473683,-0.77196 -2.43158,-0.39726 -4.42106,-0.39994 -4.42106,-0.006 0,0.39394 -13.5999,0.7163 -30.22198,0.7163 h -30.222 l 0.33998,14.52632 c 0.187,7.98946 0.47614,17.8421 0.64258,21.89474 0.1664,4.05262 0.25544,7.40128 0.1978,7.44146 -0.0576,0.0402 -39.314452,0.24984 -87.237392,0.46594 -47.922925,0.21608 -87.187705,0.46742 -87.255065,0.55852 -0.0674,0.0912 -0.33552,39.35134 -0.59594,87.24496 l -0.47348,87.07934 73.833825,-0.60204 c 40.60858,-0.33112 74.2127398,-0.5835 74.6758998,-0.56086 0.46316,0.0226 28.4699522,0.23046 62.2373122,0.4618 33.76738,0.23134 61.493663,0.51908 61.613983,0.63944 0.50146,0.5016 31.6895,-0.094 32.2109,-0.61504 z M 15.899647,430.38133 c -1.21796,-2.27576 -1.77354,-32.84466 -0.62222,-34.23486 1.1467,-1.3846 4.16042,-1.34054 6.116,0.0894 1.40186,1.02508 1.5693,2.51288 1.63464,14.52632 0.0906,16.64284 -0.38738,19.25538 -3.73576,20.42262 -2.14302,0.74706 -2.62374,0.63322 -3.39266,-0.8035 z m 4.4128,-5.46192 c 0.7429,-4.18198 0.73636,-18.1173 -0.01,-23.07768 -0.37858,-2.51322 -1.02774,-3.86658 -1.93862,-4.04168 -1.34132,-0.25782 -1.49414,5.19302 -0.8056,28.73238 0.1022,3.49296 2.05068,2.35216 2.75506,-1.61302 z m -75.539012,5.19736 c -0.152,-0.50472 -0.51994,-8.44152 -0.81774,-17.63736 -0.44092,-13.61556 -0.33602,-16.65188 0.56502,-16.35436 1.23082,0.40638 2.13102,9.7661 2.28046,23.71056 l 0.0892,8.3207 2.8091,-0.45584 c 3.44458,-0.55898 5.88164,0.62414 3.92774,1.9068 -0.69474,0.45606 -2.02106,0.8666 -2.94736,0.91228 -0.92632,0.0458 -2.57206,0.1802 -3.65718,0.29898 -1.08512,0.1188 -2.09728,-0.197 -2.24922,-0.70176 z m 12.4909,0.099 c -0.29254,-0.47332 -0.83514,-5.44308 -1.20578,-11.0439 -0.37066,-5.60082 -0.93404,-12.9213 -1.25198,-16.26776 -0.7151,-7.52686 -0.02,-8.662 4.96524,-8.09896 6.15526,0.69528 6.65958,3.30352 0.56928,2.94416 -3.78348,-0.22324 -3.86646,0.0428 -2.79536,8.96102 0.5224,4.34974 0.5973,4.45256 3.0671,4.21054 3.37498,-0.33074 3.90416,1.55104 0.6379,2.26842 l -2.57092,0.56466 v 6.62024 c 0,7.02012 0.57674,8.12832 4,7.68602 1.265,-0.1634 1.89474,0.195 1.89474,1.0786 0,0.7279 -0.66316,1.3718 -1.47368,1.4309 -0.81054,0.0592 -2.33566,0.1972 -3.38918,0.30708 -1.05352,0.1098 -2.15482,-0.1876 -2.44736,-0.66102 z m 34.8388798,0.457 c -0.198,-0.34736 -0.42642,-2.90526 -0.50736,-5.6842 -0.081,-2.77896 -0.45848,-9.97896 -0.83902,-16 -0.38054,-6.02106 -0.41698,-11.25446 -0.081,-11.62978 0.33598,-0.37532 1.89536,-0.75426 3.46532,-0.8421 2.04684,-0.1146 2.85444,0.1976 2.85444,1.10346 0,0.74006 -0.7818,1.27304 -1.88788,1.28704 -1.03834,0.014 -1.89098,0.29736 -1.89474,0.63158 -0.1386,12.28184 -0.1184,12.39716 2.16858,12.39716 2.64502,0 2.34598,1.97824 -0.35916,2.376 -1.0127,0.149 -1.66796,0.55114 -1.45614,0.89386 0.2118,0.3427 0.46222,3.53666 0.55648,7.09768 0.1638,6.1892 0.25874,6.47456 2.15368,6.47456 1.20068,0 1.98234,0.49808 1.98234,1.26316 0,0.87808 -0.88338,1.26316 -2.89768,1.26316 -1.59372,0 -3.05976,-0.2842 -3.25788,-0.63158 z m 32.9100122,-0.34736 c -0.21032,-0.61948 -0.21232,-8.32632 -0.004,-17.12632 0.40678,-17.2225 0.8849,-19.1486 4.29972,-17.32106 2.1455,1.14824 2.96842,3.97184 3.0021,10.30078 0.018,3.25802 -0.41206,5.25926 -1.35516,6.3158 -1.24158,1.3909 -1.26582,2.18234 -0.2408,7.86238 1.48414,8.22408 1.49306,10.10526 0.048,10.10526 -0.81758,0 -1.3626,-1.5692 -1.7729,-5.1043 -0.6956,-5.99334 -1.46746,-5.87588 -1.91418,0.29128 -0.32032,4.42216 -1.35326,6.7644 -2.0622,4.67618 z m 4.72978,-25.2247 c -0.052,-2.7827 -0.52576,-5.4905 -1.05262,-6.01736 -0.71586,-0.71586 -0.95794,0.82974 -0.95794,6.11574 0,5.6609 0.21022,6.8627 1.05262,6.01738 0.63308,-0.6353 1.0149,-3.07292 0.95794,-6.11576 z m 7.72248,24.36872 c -0.23888,-1.075 -0.57604,-4.98614 -0.74924,-8.6914 -0.1732,-3.70526 -0.9684,-10.65492 -1.7671,-15.44368 -0.79868,-4.78876 -1.22708,-8.93192 -0.95198,-9.20702 1.0442,-1.04418 2.22004,1.36082 2.71706,5.5573 0.28378,2.3961 0.79282,4.35656 1.13122,4.35656 0.33838,0 1.06018,-2.26164 1.60402,-5.02586 0.96458,-4.90292 2.00236,-6.72568 2.95324,-5.18712 0.25898,0.41902 -0.30998,4.49888 -1.26434,9.06636 -1.2507,5.9858 -1.67444,10.75862 -1.51764,17.0939 0.1498,6.05226 -0.0842,8.89 -0.7517,9.11246 -0.53306,0.1776 -1.16466,-0.55648 -1.40354,-1.6315 z m -140.733577,-1.0754 c -1.88954,-2.8838 -0.61766,-4.68202 1.44734,-2.04632 1.54314,1.96958 1.59902,1.97698 2.826885,0.37466 1.47376,-1.92322 1.64964,-7.94112 0.3175,-10.8648 -0.5143,-1.12882 -1.840625,-2.53698 -2.947365,-3.1293 -1.8354,-0.98228 -2.01224,-1.60948 -2.01224,-7.13684 0,-4.85556 0.34686,-6.50092 1.74532,-8.27876 0.95994,-1.22036 2.417005,-2.21882 3.237905,-2.21882 1.8264,0 4.27994,2.57244 4.27994,4.48736 0,1.9701 -1.24982,1.75222 -2.72916,-0.4758 -1.08006,-1.62666 -1.43818,-1.72732 -2.62904,-0.739 -1.011605,0.83956 -1.378645,2.5661 -1.378645,6.48512 0,4.46984 0.27328,5.4872 1.675485,6.23764 3.73258,1.99762 5.45162,10.12734 3.32446,15.7222 -1.58776,4.1761 -4.969245,4.92372 -7.158385,1.58266 z m 21.997265,-2.77386 c 1.59632,-15.93308 3.08784,-26.78124 3.8877,-28.27576 0.8279,-1.54698 1.0123,-1.58062 1.91284,-0.34904 1.49036,2.0382 6.2943,32.12972 5.2897,33.13432 -1.08782,1.0878 -2.12908,-0.67788 -2.65328,-4.49918 -1.12256,-8.18364 -1.22846,-8.42748 -3.47328,-7.99836 -1.80762,0.34556 -2.06566,0.84286 -2.06566,3.98092 0,5.27792 -0.89508,8.8492 -2.2179,8.8492 -0.9134,0 -1.06038,-1.04652 -0.68012,-4.8421 z m 7.05662,-11.8877 c -0.0286,-0.29334 -0.55986,-2.99652 -1.18066,-6.00704 -0.74904,-3.63244 -1.1565,-4.5926 -1.21124,-2.85438 -0.0454,1.44062 -0.32034,4.35464 -0.61106,6.4756 -0.49758,3.63026 -0.42354,3.82882 1.26316,3.38772 0.98544,-0.25768 1.76836,-0.70856 1.7398,-1.0019 z m 7.96282,16.12106 c -1.06734,-0.75008 -2.26042,-34.75968 -1.21942,-34.75968 0.35112,0 1.91074,0.85742 3.46584,1.9054 3.90022,2.62836 5.42406,7.78874 3.74182,12.67144 -1.07332,3.11534 -1.0522,3.63378 0.2046,5.02252 1.84656,2.04042 2.47886,11.38906 0.90916,13.44192 -1.2582,1.6455 -5.6825,2.716 -7.102,1.7184 z m 3.93394,-2.78932 c 2.88256,-1.5427 1.67416,-11.33854 -1.52906,-12.39508 -0.78392,-0.25858 -1.05262,1.39042 -1.05262,6.4598 0,3.74386 0.21438,6.80702 0.4764,6.80702 0.26204,0 1.2094,-0.39228 2.10528,-0.87174 z m -0.0554,-21.51172 c 0,-2.37486 -0.57264,-4.18774 -1.7446,-5.52326 l -1.7446,-1.98802 0.48144,4.11754 c 0.26478,2.26464 0.49348,5.4857 0.50822,7.1579 0.0252,2.85588 0.1018,2.94118 1.26316,1.40572 0.68,-0.89906 1.23638,-3.2255 1.23638,-5.16988 z m 38.44384,17.22896 c -0.30202,-4.2547 -0.54912,-12.0355 -0.54912,-17.29066 0,-7.7995 0.22506,-9.55484 1.22502,-9.55484 0.7599,0 1.42626,1.19894 1.7551,3.1579 0.29158,1.73684 0.9376,4.48352 1.43562,6.10372 l 0.90546,2.94584 1.46988,-5.21252 c 0.80842,-2.86686 1.72156,-5.61972 2.02916,-6.11746 1.2941,-2.09388 2.12714,0.48082 2.12714,6.57446 0,3.58074 0.59712,10.80548 1.32692,16.05496 0.8744,6.28958 1.04302,9.82842 0.49442,10.37702 -0.89702,0.89702 -2.93716,0.0824 -2.31494,-0.92442 0.39886,-0.64536 -1.91552,-19.64932 -2.45918,-20.19298 -0.1758,-0.1758 -0.63098,0.88188 -1.0115,2.3504 -0.92822,3.58206 -1.97206,3.59498 -3.31474,0.041 -1.00522,-2.66078 -1.09442,-1.89092 -0.91724,7.91798 0.1318,7.2981 -0.1074,10.97042 -0.72832,11.18538 -0.60312,0.20878 -1.1155,-2.36956 -1.47368,-7.41576 z m 24.52415182,-8.52972 c -0.2159,-8.91578 -0.1318,-16.51078 0.187,-16.87778 0.95617998,-1.10094 2.41711998,1.35754 3.63525998,6.1174 l 1.14808,4.48612 1.55358,-5.98988 c 0.85446,-3.29444 2.03228,-6.17358 2.61738,-6.3981 1.3180802,-0.5058 1.7430802,2.6902 2.4537602,18.45172 0.29236,6.48422 0.59318,12.73684 0.66848,13.89474 0.0892,1.37078 -0.3038,2.10526 -1.12626,2.10526 -0.69474,0 -1.29434,-0.56842 -1.33246,-1.26316 -0.0382,-0.69474 -0.38626,-6.37894 -0.7736802,-12.63158 -0.6966,-11.24246 -0.71448,-11.3171 -1.61492,-6.73684 -0.97646,4.96702 -1.97714,5.63646 -3.63496,2.43184 -0.87888,-1.6989 -1.04214,-0.4108 -1.05262,8.305 -0.01,8.20232 -0.25044,10.3158 -1.17424,10.3158 -0.93388,0 -1.23885998,-3.18064 -1.55437998,-16.21054 z M -88.090825,428.72341 c -0.30484,-0.4932 -0.2958,-2.27424 0.02,-3.95786 0.31584,-1.68362 0.30762,-8.23654 -0.018,-14.56202 -0.58748,-11.40214 -0.60968,-11.5001 -2.58614,-11.41054 -1.09648,0.0496 -1.99806,-0.1938 -2.00352,-0.54126 -0.004,-0.34736 -0.01,-1.01052 -0.01,-1.47368 0,-1.16694 10.7017,-1.07876 11.42662,0.0942 0.78778,1.27466 -1.12162,2.32672 -3.22464,1.77676 -1.6856,-0.4408 -1.70586,-0.24672 -1.11304,10.65898 0.8056,14.81936 -0.24948,23.04252 -2.49112,19.41546 z M 43.392667,279.85699 c -0.29142,-0.47152 -0.1196,-1.1109 0.38202,-1.42086 1.29472,-0.80018 2.13008,0.29586 1.04924,1.3767 -0.60478,0.60478 -1.0758,0.61932 -1.43126,0.0442 z m 5.08876,0.1262 c -0.94836,-0.94836 -0.57758,-1.94202 0.72466,-1.94202 0.69474,0 1.26316,0.35658 1.26316,0.7924 0,1.06188 -1.31502,1.8224 -1.98782,1.14962 z m -10.64376,-1.52096 c 0,-0.69474 0.56842,-1.26316 1.26316,-1.26316 0.69474,0 1.26316,0.56842 1.26316,1.26316 0,0.69472 -0.56842,1.26316 -1.26316,1.26316 -0.69474,0 -1.26316,-0.56844 -1.26316,-1.26316 z m -99.999992,18.8195 84.842092,-0.1494 -0.006,-13.96662 c -0.002,-7.68164 -0.24548,-17.05504 -0.53936,-20.82978 l -0.53434,-6.86316 -37.144832,0.34956 c -20.42966,0.1922 -59.02904,0.33994 -85.776405,0.32816 l -48.63158,-0.0214 v 21.11806 c 0,19.72894 0.097,21.08734 1.47368,20.65104 0.81054,-0.25686 39.65264,-0.53426 86.315805,-0.61644 z m -60.631585,-6.64226 c -1.82878,-0.72828 -1.89474,-1.1349 -1.89474,-11.67936 0,-6.76652 0.33876,-11.13416 0.88998,-11.47484 0.48946,-0.3025 1.81002,-0.3191 2.93454,-0.0368 2.36614,0.59386 2.86398,2.09464 3.74248,11.28226 l 0.61848,6.4684 0.1178,-8.14166 c 0.0648,-4.4779 0.3478,-8.74106 0.62894,-9.47368 0.64212,-1.67332 2.3348,-1.71308 3.6847,-0.0866 0.75088,0.90476 1.455,1.01994 2.57406,0.42104 3.5894,-1.92098 9.09074,-0.34822 6.79882,1.9437 -0.58298,0.58298 -0.93714,4.71902 -0.93714,10.94418 0,7.63008 -0.25004,9.92422 -1.05264,9.65848 -0.73084,-0.242 -1.18134,-3.41698 -1.47368,-10.38598 -0.3998,-9.53072 -0.51214,-10.04202 -2.22512,-10.12862 -1.9505,-0.0986 -1.92774,-0.5337 -0.76414,14.60616 0.1864,2.42532 -0.012,4.62706 -0.44276,4.89276 -0.96346,0.59546 -2.46272,-3.153 -2.46272,-6.15728 0,-3.41232 -1.7263,-1.07882 -2.28534,3.08918 -0.5265,3.92522 -1.80886,5.33976 -2.48766,2.74402 -0.43916,-1.67936 -0.48916,-1.67326 -2.2591,0.27592 -1.43652,1.582 -2.20098,1.8376 -3.70474,1.23874 z m 2.83534,-4.69094 c 0.75978,-3.02718 -0.20362,-14.66512 -1.30518,-15.76668 -0.6367,-0.6367 -0.89858,1.85012 -0.89858,8.533 0,9.06134 0.9568,12.20196 2.20376,7.23368 z m 7.84232,-10.22314 c -0.0326,-1.73686 -0.38486,-3.9158 -0.78292,-4.84212 -0.5207,-1.21174 -0.74034,-0.32588 -0.78292,3.1579 -0.033,2.70612 0.3123,4.8421 0.78292,4.8421 0.46316,0 0.81546,-1.42104 0.78292,-3.15788 z m 84.869745,14.25898 c -1.81346,-2.0681 -2.50496,-22.2007 -0.844,-24.57206 1.47286,-2.10278 2.94002,-2.14146 4.76436,-0.1256 1.81218,2.00244 2.25264,18.7063 0.59856,22.6996 -1.31024,3.16318 -2.88624,3.86002 -4.51892,1.99804 z m 2.93794,-13.49416 c -0.0614,-4.82738 -0.32044,-8.9859 -0.57566,-9.24112 -1.339,-1.339 -1.79112,2.11854 -1.45776,11.1483 0.4731,12.8147 2.20002,11.19498 2.03342,-1.90718 z m -76.262625,13.59824 c -0.66936,-0.66936 -0.55988,-11.7527 0.1764,-17.85492 0.580985,-4.81536 2.810285,-7.57814 4.251325,-5.2687 0.78394,1.25636 2.65024,13.71188 2.8842,19.24898 0.20624,4.8813 -1.35116,4.6142 -2.3767,-0.40762 -1.05732,-5.17742 -2.94736,-5.0136 -2.94736,0.25546 0,3.50332 -0.82998,5.18464 -1.987825,4.0268 z m 4.183165,-11.6951 c -0.28112,-0.73262 -0.54372,-2.34314 -0.58352,-3.57896 l -0.0724,-2.2469 -0.76568,2.52632 c -0.85416,2.81832 -0.47282,4.63158 0.9741,4.63158 0.52818,0 0.72912,-0.59814 0.4475,-1.33204 z m 51.2176,11.33904 c -1.1183,-1.80946 -1.51018,-23.35836 -0.44808,-24.63812 1.21556,-1.46466 4.29828,-0.80146 4.29828,0.92468 0,0.76962 -0.48856,1.06756 -1.26316,0.77032 -1.0669,-0.4094 -1.26172,0.72144 -1.25388,7.27832 0.012,10.47788 0.68024,14.41172 2.2282,13.12702 1.53304,-1.27232 2.26832,-0.46298 1.57214,1.73046 -0.60282,1.89936 -4.11702,2.452 -5.1335,0.80732 z m 7.2057,0.8 c -0.46372,-10.06978 -0.20924,-24.8012 0.43398,-25.1228 0.46316,-0.23158 0.93978,0.71578 1.05918,2.10526 0.64916,7.5545 1.19226,9.68422 2.46964,9.68422 1.12866,0 1.23604,-0.85588 0.73952,-5.89474 -0.47534,-4.8239 -0.36182,-5.89474 0.62482,-5.89474 0.80358,0 1.37988,1.33392 1.72814,4 0.78392,6.00144 0.52948,20.32606 -0.37092,20.88254 -1.06884,0.66056 -1.56662,-0.94066 -1.8237,-5.86622 -0.32804,-6.28518 -2.18318,-5.9578 -2.4903,0.4395 -0.1566,3.26152 -0.65118,5.38434 -1.3048,5.60014 -0.57896,0.1912 -1.05846,0.22124 -1.06556,0.0668 z m 22.43268,-2.42318 c -1.1425,-2.71718 -1.2161,-2.75554 -1.49492,-0.77876 -0.1614,1.14352 -0.79792,2.07914 -1.41472,2.07914 -0.87536,0 -1.15254,-2.66006 -1.26316,-12.12248 -0.1264,-10.8043 0.014,-12.14606 1.28282,-12.33932 3.8579,-0.58726 6.13248,6.35982 4.09932,12.52034 -0.80076,2.42638 -0.7388,3.83582 0.32636,7.4226 1.57282,5.2962 0.3848,7.786 -1.5357,3.21848 z m -0.5971,-15.96278 c 0.0254,-1.62106 -0.32104,-3.51578 -0.77002,-4.21052 -0.56766,-0.87838 -0.80222,0.53246 -0.77002,4.63158 0.0476,6.05542 1.44432,5.67354 1.54004,-0.42106 z m -68.57732,15.78948 c -0.25902,-1.0421 -0.36098,-6.21222 -0.22656,-11.48914 0.20178,-7.92188 0.49268,-9.75068 1.66878,-10.49092 1.09078,-0.68652 1.8304,-0.52908 3.15788,0.6723 1.53578,1.38984 1.73352,2.5562 1.73352,10.22556 0,10.29376 -0.77592,12.97694 -3.7526,12.97694 -1.48726,0 -2.24906,-0.55924 -2.58102,-1.89474 z m 3.7944,-10.89768 c 0.008,-4.54696 -0.36002,-8.3913 -0.8292,-8.68128 -0.54352,-0.3359 -0.83754,3.0057 -0.82922,9.424 0.008,6.7317 0.27662,9.53634 0.82922,8.68128 0.44896,-0.69474 0.82212,-4.93554 0.8292,-9.424 z m 3.94272,12.231 c -0.30878,-0.30876 -0.5614,-5.82902 -0.5614,-12.26722 v -11.70584 l 3.1579,0.30766 c 2.05794,0.2005 3.15788,0.73356 3.15788,1.5304 0,0.76604 -0.70766,1.1478 -1.89472,1.02214 -1.7385,-0.184 -1.89474,0.1458 -1.89474,4 0,3.63918 0.22508,4.20058 1.6842,4.20058 0.93568,0 1.68422,0.56142 1.68422,1.26316 0,0.70176 -0.74854,1.26316 -1.68422,1.26316 -1.51146,0 -1.6842,0.56142 -1.6842,5.47368 0,5.04834 -0.52254,6.35468 -1.96492,4.91228 z m 12.376,-0.69836 c -0.97474,-2.54016 0.0722,-21.16714 1.27096,-22.61114 3.24656,-3.91088 4.73112,-0.03 5.50742,14.39722 0.43636,8.10976 0.32682,9.4737 -0.76092,9.4737 -0.87072,0 -1.30378,-0.92766 -1.37592,-2.94738 -0.0578,-1.62104 -0.2,-3.32632 -0.31578,-3.78946 -0.1158,-0.46316 -0.2579,-1.20918 -0.3158,-1.6578 -0.0578,-0.4486 -0.71642,-0.58114 -1.4634,-0.2945 -1.07228,0.41148 -1.27554,1.38074 -0.96572,4.60516 0.37314,3.88324 -0.545,5.52354 -1.58084,2.8242 z m 3.9047,-14.74022 c 0,-2.3158 -0.37894,-4.21054 -0.8421,-4.21054 -0.46316,0 -0.8421,1.89474 -0.8421,4.21054 0,2.31578 0.37894,4.21052 0.8421,4.21052 0.46316,0 0.8421,-1.89474 0.8421,-4.21052 z m 4.57954,14.90488 c -0.78672,-2.05014 0.0268,-23.3293 0.89414,-23.3905 0.46316,-0.0326 1.325,1.95794 1.91518,4.42362 2.12956,8.89694 2.24698,8.97242 2.70096,1.73662 0.72252,-11.51556 2.09776,-8.18916 2.35318,5.69178 0.198,10.76482 0.0458,12.6336 -1.02912,12.6336 -0.81814,0 -1.73534,-1.70196 -2.60946,-4.84212 -0.74134,-2.66314 -1.4799,-5.22104 -1.64126,-5.6842 -0.1614,-0.46316 -0.32326,1.71578 -0.35984,4.8421 -0.061,5.21916 -1.13306,7.43144 -2.22378,4.5891 z m 51.7480998,0.46354 c -0.0514,-0.34738 -0.018,-3.19066 0.0758,-6.31842 0.1454,-4.89212 -0.018,-5.61504 -1.16976,-5.17306 -1.67394,0.64234 -1.69438,-0.55384 -0.0758,-4.42788 0.69474,-1.66276 1.26316,-3.87786 1.26316,-4.92248 0,-1.87644 1.85524,-4.18012 2.6923,-3.34306 0.23764,0.23764 0.25948,5.1148 0.0484,10.83814 -0.26906,7.30046 -0.0948,10.58452 0.58397202,11.004 0.72638,0.44894 0.72174,0.89408 -0.018,1.78614 -1.04503202,1.2592 -3.24247202,1.61898 -3.39959202,0.55662 z M -64.899165,234.34303 v -20.11924 l -2.0046,-0.50312 c -1.10254,-0.27672 -13.3236,-0.32894 -27.1579,-0.116 -13.834325,0.2129 -31.050045,0.41182 -38.257205,0.44208 -7.20714,0.0302 -14.18692,0.34464 -15.5106,0.69864 -2.40426,0.643 -2.4066,0.65044 -2.29868,7.33818 0.0594,3.682 0.1234,12.47348 0.1422,19.53664 l 0.0342,12.84212 h 42.5263 42.526325 z m -65.789485,5.87362 c -0.29032,-14.12922 -0.0832,-17.11688 1.1579,-16.69362 0.57894,0.1974 1.10116,1.83956 1.16046,3.64912 0.1964,5.99288 0.2321,6.10102 1.87096,5.67244 1.15244,-0.30136 1.755,-1.634 2.3158,-5.12172 0.41692,-2.5929 1.1684,-4.84776 1.66996,-5.01076 0.6242,-0.20288 0.8899,3.03246 0.84212,10.25362 -0.0422,6.37186 -0.40332,10.57914 -0.91194,10.62358 -0.96474,0.0844 -2.30886,-6.64264 -1.56708,-7.84286 0.27006,-0.43698 -0.4035,-0.66768 -1.49734,-0.5129 -1.74694,0.2472 -2.0393,0.83544 -2.40926,4.84754 -0.60872,6.6015 -2.49672,6.69874 -2.63158,0.1356 z m 32.703225,3.5981 -2.282165,-1.19574 v -10.07838 -10.07836 h 2.085845 c 3.17822,0 4.48488,2.90494 5.05228,11.23222 0.71746,10.52954 -0.2453,12.53602 -4.85596,10.12026 z m 2.37024,-9.27096 c -0.75198,-10.9029 -2.06962,-11.74644 -2.10048,-1.34468 -0.0216,7.27142 0.1816,8.63158 1.28874,8.63158 1.1285,0 1.24326,-1.03028 0.81174,-7.2869 z m -22.706285,8.76058 c -0.1742,-0.57896 -0.25708,-5.41052 -0.1842,-10.73684 l 0.1326,-9.68422 h 2.45616 c 1.35086,0 2.61402,0.47368 2.807,1.05264 0.20586,0.61754 -0.37426,1.05262 -1.4035,1.05262 -1.48538,0 -1.75438,0.5165 -1.75438,3.36842 0,2.80702 0.2807,3.36842 1.6842,3.36842 2.12534,0 2.21144,1.70402 0.1138,2.25256 -2.13646,0.5587 -2.0482,7.56696 0.0906,7.1988 1.81026,-0.31162 2.83804,1.49404 1.37714,2.41938 -1.72276,1.09116 -4.95684,0.91378 -5.31966,-0.29178 z m 8.38126,-9.26316 c 0.4481,-7.96418 0.88814,-10.55762 1.9303,-11.37666 2.80384,-2.2035 4.32438,2.02008 5.64832,15.68926 0.48984,5.05744 0.38848,6.13654 -0.54712,5.82512 -0.63698,-0.21202 -1.46148,-2.34058 -1.85154,-4.77998 -0.43802,-2.73934 -1.07312,-4.27354 -1.68422,-4.0684 -1.03842,0.3486 -1.15066,0.85338 -1.30494,5.86856 -0.0702,2.28238 -0.46782,3.15788 -1.43416,3.15788 -1.18014,0 -1.26894,-1.21056 -0.75664,-10.31578 z m 4.05692,-4.21052 c -0.7305,-3.83772 -1.12114,-3.95998 -1.12114,-0.35088 0,1.69824 0.36946,3.08772 0.82104,3.08772 0.47178,0 0.59944,-1.16426 0.3001,-2.73684 z m 14.576045,13.87552 c -0.22122,-0.35792 -0.50204,-4.97704 -0.62406,-10.26468 l -0.22186,-9.6139 2.33226,-0.77742 c 3.03306,-1.01102 4.86012,0.50662 2.2753,1.88998 -2.20492,1.18004 -2.63726,7.62734 -0.51146,7.62734 0.69474,0 1.26316,0.56842 1.26316,1.26316 0,0.69472 -0.56842,1.26316 -1.26316,1.26316 -0.8822,0 -1.26316,0.88888 -1.26316,2.94736 0,2.38596 0.3208,2.94736 1.68422,2.94736 2.1432,0 2.17342,1.36314 0.0554,2.4967 -1.9381,1.03722 -3.17672,1.11066 -3.7266,0.22094 z m 7.47216,-4.56618 c -0.30446,-2.92014 -0.43158,-7.7687 -0.2825,-10.77458 0.30724,-6.19498 1.73056,-7.39106 4.95644,-4.16516 1.63532,1.6353 1.79524,2.48928 1.42784,7.62418 -0.29116,4.06942 -0.081,6.22114 0.70974,7.26282 1.33322,1.7566 1.54262,5.2697 0.31408,5.2697 -0.47462,0 -1.23752,-0.98518 -1.69532,-2.18928 -0.4578,-1.2041 -1.36766,-2.95354 -2.02192,-3.88762 -1.09846,-1.56828 -1.17822,-1.42256 -1.04152,1.90254 0.2441,5.93814 -1.72968,5.06866 -2.36684,-1.0426 z m 3.77802,-9.51988 c 0,-2.02954 -0.37894,-3.92428 -0.8421,-4.21052 -0.52324,-0.32338 -0.8421,1.27098 -0.8421,4.21052 0,2.93956 0.31886,4.5339 0.8421,4.21054 0.46316,-0.28626 0.8421,-2.181 0.8421,-4.21054 z m 109.894732,23.98844 c 36.12632,-0.008 78.947363,-0.012 95.157883,-0.01 l 29.4737,0.006 0.22546,-20.19016 0.22548,-20.19014 -106.734343,0.02 c -58.703892,0.01 -107.594812,0.23546 -108.646532,0.49942 l -1.91216,0.47974 v 20.16152 20.1615 l 13.26314,-0.46166 c 7.29474,-0.25392 42.8210598,-0.46838 78.947372,-0.47656 z m -45.684212,-5.59878 c -0.7687,-0.31016 -1.05262,-3.47232 -1.05262,-11.72298 v -11.29826 h 2.47662 c 1.36212,0 2.77246,0.4737 3.13408,1.05264 0.3616,0.57894 1.0904,4.46316 1.6195598,8.63158 l 0.96214,7.57894 0.1144,-7.7206 c 0.1234,-8.3275 0.555,-10.38466 2.17918,-10.38466 2.79294,0 3.92746,3.15752 4.52658,12.59808 0.32838,5.1744 0.3467,9.81308 0.0406,10.3082 -0.81588,1.32018 -2.42156,-2.1057 -2.42156,-5.1667 0,-1.41994 -0.33476,-2.58168 -0.7439,-2.58168 -0.90078,0 -1.75524,2.94574 -1.77092,6.10526 -0.008,1.49196 -0.46086,2.31578 -1.27466,2.31578 -0.7929,0 -1.29952,-0.86212 -1.36084,-2.31578 -0.0744,-1.76444 -0.1962,-1.91482 -0.51168,-0.63158 -0.8278398,3.3679 -2.8467598,4.47062 -5.9169598,3.23176 z m 3.58242,-4.51068 c 0.6882,-3.1334 -0.34942,-14.99632 -1.3667,-15.62504 -0.41088,-0.25394 -0.74202,3.69746 -0.74202,8.85426 0,8.98726 0.95114,12.04122 2.10872,6.77078 z m 7.8968998,-9.03686 c -0.0548,-1.2737 -0.38892,-3.45264 -0.74248,-4.84212 -0.52906,-2.07918 -0.66046,-1.66932 -0.74246,2.3158 -0.0562,2.73308 0.26716,4.8421 0.74246,4.8421 0.46316,0 0.79728,-1.0421 0.74248,-2.31578 z m 6.569792,13.55788 c -0.31648,-0.31648 -0.57542,-4.87954 -0.57542,-10.14014 v -9.5647 l -2.24239998,-0.85256 c -3.13689202,-1.19264 -1.38849202,-2.66144 2.76299998,-2.3211 2.22516,0.1824 3.26886,0.67128 3.26886,1.53114 0,0.69474 -0.37894,1.19916 -0.8421,1.12094 -0.53354,-0.0902 -0.74556,3.42368 -0.57866,9.58918 0.24172,8.92802 -0.29844,12.13208 -1.79328,10.63724 z m 5.01572,-0.037 c -0.68148,-0.68148 -0.57062,-12.82478 0.1668,-18.27522 0.59888,-4.4263 2.8988602,-7.03122 4.2690802,-4.83506 0.56518,0.90588 3.45792,19.5441 3.44878,22.22088 -8.6e-4,0.34738 -0.55754,0.63158 -1.23632,0.63158 -0.8451,0 -1.41022,-1.32728 -1.7927,-4.21052 -0.76758,-5.7863 -2.8678802,-5.8227 -2.8678802,-0.0496 0,3.93254 -0.78626,5.71958 -1.9878,4.51804 z m 3.7622602,-13.94202 -0.37532,-3.57896 -0.8422402,2.8095 c -0.79978,2.66792 -0.66494,3.04008 1.5706202,4.33552 0.012,0.006 -0.1466,-1.59764 -0.35306,-3.56606 z m 51.5582,13.47368 c -0.36382,-0.57894 -0.80592,-6.1829 -0.98248,-12.45322 -0.2723,-9.6715 -0.1172,-11.56966 1.02212,-12.51526 1.42724,-1.18452 3.89086,-0.72132 3.89086,0.73152 0,0.4777 -0.56842,0.86854 -1.26316,0.86854 -1.03754,0 -1.26316,1.48538 -1.26316,8.31578 0,4.5737 0.23804,9.50602 0.52898,10.96072 0.481,2.40498 0.62834,2.51002 1.62408,1.1579 1.04554,-1.41978 1.1211,-1.4199 1.67048,-0.002 1.12884,2.91214 -3.58066,5.55768 -5.22772,2.93664 z m 7.07198,0.43478 c -0.1888,-0.35492 -0.37702,-6.25722 -0.41824,-13.1162 -0.0554,-9.21868 0.1836,-12.38584 0.9167,-12.1447 0.5454,0.1794 1.09066,2.1913 1.21168,4.4709 0.3189,6.00642 0.83154,7.65346 2.38206,7.65346 1.19416,0 1.30292,-0.75506 0.81784,-5.67782 -0.33902,-3.44056 -0.23346,-5.87934 0.2679,-6.18918 1.61602,-0.99876 2.06306,1.6269 2.23574,13.13194 0.1344,8.959 -0.0726,11.64734 -0.89696,11.64734 -0.6834,0 -1.2843,-1.83096 -1.6582,-5.05262 -0.32254,-2.77896 -0.88398,-5.05264 -1.24764,-5.05264 -0.90366,0 -1.67438,3.14884 -1.68824,6.89768 -0.01,2.89242 -1.13858,4.90566 -1.92264,3.43184 z m 10.57454,-0.39866 c -0.85246,-1.07184 -1.9423,-20.7794 -1.30372,-23.5755 0.49676,-2.17514 3.442,-2.74824 5.33224,-1.03758 1.42746,1.29182 1.62238,2.6506 1.61146,11.2338 -0.012,10.03778 -0.90858,13.7236 -3.4546,14.21392 -0.7257,0.1398 -1.70912,-0.23582 -2.18538,-0.83464 z m 3.06688,-14.00102 c 0.0452,-7.28114 -0.1904,-9.46068 -0.99344,-9.193 -0.57894,0.193 -1.03158,1.55088 -1.00584,3.01754 0.254,14.47826 0.56448,18.92054 1.21638,17.40352 0.39804,-0.92632 0.75036,-5.97894 0.7829,-11.22806 z m -59.52112,13.15892 c -0.81198,-0.98324 -1.35544,-9.97166 -1.13554,-18.78092 0.114,-4.5646 2.59342,-6.31764 5.11198,-3.6143 1.48472,1.59368 1.70752,2.94708 1.69674,10.30736 -0.012,8.72926 -1.00782,12.45128 -3.45462,12.9225 -0.72568,0.1398 -1.72404,-0.23584 -2.21856,-0.83464 z m 3.14638,-12.2466 c 0.006,-4.74738 -0.3246,-8.63158 -0.73708,-8.63158 -1.04222,0 -1.40426,4.22958 -1.07596,12.56994 0.39344,9.99578 1.79678,6.9474 1.81304,-3.93836 z m 3.91982,12.67886 c -0.29618,-0.2962 -0.53852,-5.8035 -0.53852,-12.23848 v -11.69996 l 3.0928,0.26136 c 3.58048,0.30258 4.98374,2.36664 1.60896,2.36664 -2.04912,0 -2.17544,0.24448 -2.17544,4.21052 0,3.64912 0.22456,4.21052 1.68422,4.21052 0.92632,0 1.6842,0.41444 1.6842,0.92094 0,0.50652 -0.75788,1.11914 -1.6842,1.36138 -1.44102,0.37684 -1.68422,1.14864 -1.68422,5.34514 0,4.58612 -0.73034,6.5194 -1.9878,5.26194 z m 12.72464,0.0998 c -0.7511,-0.75906 -0.66622,-18.21184 0.1062,-21.82096 0.58218,-2.72046 3.20444,-3.91238 4.38936,-1.99512 0.75708,1.22496 1.2728,5.49876 2.04324,16.9322 0.40936,6.07496 0.2841,7.36842 -0.71354,7.36842 -0.8352,0 -1.38934,-1.43482 -1.78874,-4.63156 -0.80158,-6.4157 -2.80668,-6.36682 -3.1523,0.0768 -0.1388,2.58962 -0.53676,4.4212 -0.88414,4.07016 z m 3.56606,-14.88388 c -0.006,-1.96842 -0.38024,-4.14736 -0.82922,-4.8421 -0.57942,-0.8966 -0.82006,0.142 -0.8292,3.57896 -0.006,2.67526 0.36394,4.8421 0.8292,4.8421 0.46316,0 0.83632,-1.61054 0.82922,-3.57896 z m 4.76192,14.78414 c -0.29616,-0.2962 -0.5385,-6.00168 -0.5385,-12.67886 0,-14.2874 1.12288,-15.57714 3.78948,-4.35258 l 1.6842,7.08942 0.42106,-7.3772 c 0.68226,-11.95372 2.07872,-8.80568 2.33772,5.2699 0.198,10.76484 0.0458,12.6336 -1.0291,12.6336 -0.81814,0 -1.73534,-1.70194 -2.60946,-4.8421 -0.74136,-2.66316 -1.47992,-5.22104 -1.64126,-5.6842 -0.1614,-0.46316 -0.32328,1.50394 -0.35984,4.37134 -0.0622,4.87002 -0.7876,6.83736 -2.0543,5.57068 z m 36.46008,0.37376 c -0.0298,-0.1158 -0.25354,-5.8 -0.49736,-12.63158 l -0.44326,-12.42104 h 2.07842 c 1.14314,0 2.52214,0.5346 3.06442,1.188 1.60442,1.93322 2.04002,6.9667 0.94222,10.8877 -0.85266,3.04536 -0.80054,4.41108 0.31114,8.15452 1.61336,5.43282 1.60636,5.03292 0.0882,5.03292 -0.68592,0 -1.50794,-1.03918 -1.82672,-2.30932 l -0.5796,-2.30932 -0.76978,2.30932 c -0.61336,1.8401 -2.09652,3.15482 -2.36768,2.0988 z m 3.39668,-17.47368 c 0,-1.62106 -0.36734,-3.5158 -0.81632,-4.21052 -0.57284,-0.88642 -0.8163,0.36938 -0.8163,4.21052 0,3.84114 0.24346,5.09694 0.8163,4.21052 0.44898,-0.69474 0.81632,-2.58946 0.81632,-4.21052 z m 9.939983,16.2024 c -0.5939,-2.27106 -0.74914,-20.4614 -0.1896,-22.22412 0.57,-1.7959 4.50556,-2.14822 6.10706,-0.5467 1.61026,1.61026 1.36336,20.00572 -0.30036,22.38104 -1.57888,2.25416 -5.0662,2.49614 -5.61702,0.38978 z m 3.89046,-2.37654 c 0.28112,-0.73262 0.48712,-2.91156 0.45776,-4.8421 -0.0464,-3.05048 -0.1568,-3.2518 -0.84374,-1.53756 -1.11508,2.78292 -1.63514,7.7117 -0.81368,7.7117 0.37868,0 0.91852,-0.59942 1.19966,-1.33204 z m 0.1056,-14.8785 c 0.50208,-3.36578 0.38124,-4 -0.76208,-4 -1.10808,0 -1.35406,0.97102 -1.33316,5.26316 0.0288,5.91958 1.1221,5.26046 2.09524,-1.26316 z m 139.9426,245.73266 c -0.72136,-0.72138 -1.86068,-1.3116 -2.53178,-1.3116 -2.25768,0 -2.75126,-2.06542 -2.51544,-10.52632 0.1292,-4.63156 0.45858,-57.36442 0.73218,-117.18408 0.4802,-104.98618 0.44386,-108.7778 -1.04652,-109.188 -0.8492,-0.2337 -8.55454,-0.3378 -17.12296,-0.2313 -16.65742,0.207 -18.72564,0.002 -21.74904,-2.14734 -1.92032,-1.36568 -1.9482,-1.62916 -2.31618,-21.89474 -0.6035,-33.23528 -1.08176,-103.4997 -1.17266,-172.28612 -0.0928,-70.148994 -0.2175,-68.28704 4.70146,-70.15723 1.16586,-0.443258 11.17064,-0.805928 22.23282,-0.805928 h 20.11306 l -0.1678,-54.105264 -0.1678,-54.105268 14.73684,-0.54898 c 8.10526,-0.30194 76.1263,-0.80466 151.15788,-1.11716 75.03158,-0.3125 137.93684,-0.61856 139.78948,-0.68014 l 3.36842,-0.11196 0.2553,4.40904 c 0.1448,2.501 0.60034,4.1958 1.05262,3.91627 0.43854,-0.27103 0.8451,0.003 0.9035,0.60955 0.70336,7.30353 0.88328,225.08359 0.20068,242.91797 -0.52152,13.6261 -0.65364,14.48896 -2.32464,15.18186 -0.97756,0.40536 -35.17672,0.62984 -76.298,0.50082 -40.98946,-0.1286 -81.7263,-0.24178 -90.5263,-0.25148 -15.56012,-0.018 -133.06762,0.7283 -136.40478,0.86534 -0.91736,0.0376 -2.06366,-0.47268 -2.54732,-1.13412 -0.48364,-0.66144 -1.62782,-1.34738 -2.54258,-1.5243 -1.98116,-0.3832 -1.89414,6.71492 -1.06384,-86.77846 l 0.58106,-65.429972 -19.53758,-0.25424 c -21.87022,-0.284598 -23.31562,-0.0094 -24.76574,4.715562 -0.48704,1.58693 -0.9451,9.833718 -1.0179,18.326182 -0.1312,15.294232 1.5781,219.862928 1.9285,230.816728 0.28122,8.79044 -0.37942,8.52762 21.5665,8.57994 l 18.54038,0.0442 6e-5,-11.88982 8e-5,-11.88982 3.1579,-0.56558 c 4.15256,-0.74374 89.34734,-1.39374 209.26324,-1.59658 l 96.63166,-0.1634 -1e-4,4.42106 c -6e-5,3.08776 0.31738,4.35756 1.05256,4.21052 1.33566,-0.26712 1.41836,7.5129 1.41662,133.26316 -0.002,111.92396 -0.1362,122.4141 -1.5944,124.17106 -0.60982,0.7348 -2.30932,1.20888 -4.11478,1.14784 -3.30096,-0.1116 -64.82964,-0.047 -68.33902,0.0716 -9.31108,0.31506 -70.1531,0.023 -70.73978,-0.33972 -1.2266,-0.75808 -41.98924,-0.59434 -48.83916,0.1962 -3.47368,0.40088 -9.34738,0.6769 -13.05264,0.61336 -14.26174,-0.24452 -50.3054,-0.43108 -63.57894,-0.32906 -7.6421,0.0588 -18.29634,0.0622 -23.6761,0.008 -5.37974,-0.0546 -10.35194,0.1196 -11.0493,0.38728 -0.69738,0.2676 -1.85818,-0.1036 -2.57956,-0.82502 z m 136.67338,-3.79146 c 61.33382,0.1058 74.77706,0.0938 80.8421,-0.073 2.54736,-0.07 22.72632,0.133 44.8421,0.45124 l 40.21052,0.5785 -0.006,-22.6069 c -0.004,-12.4338 0.23596,-61.70252 0.53198,-109.48604 l 0.53826,-86.87914 -3.91874,-0.58766 c -2.1553,-0.3232 -12.72102,-0.3666 -23.47936,-0.0964 -10.75834,0.27018 -19.07778,0.1916 -18.48764,-0.1744 1.57748,-0.97866 8.61274,-1.31472 28.27996,-1.3509 l 17.5635,-0.0324 -0.30034,-20.21054 -0.30032,-20.21052 -76.63158,0.1214 c -42.14736,0.0668 -91.03156,0.1614 -108.63156,0.21046 l -32,0.089 0.29996,20.0001 c 0.28528,19.02116 0.68864,22.05276 2.76352,20.77042 0.33966,-0.20992 37.21038,-0.60764 81.93492,-0.8838 68.40216,-0.42236 81.31942,-0.31948 81.33026,0.64778 0.01,0.92558 0.148,0.93678 0.70592,0.0574 0.5679,-0.89526 0.85654,-0.89526 1.59868,0 0.74026,0.89296 -6.19424,1.0616 -37.96906,0.92334 -21.3811,-0.093 -40.08698,0.016 -41.56862,0.24062 l -2.69388,0.40976 0.51138,21.86464 0.51138,21.86464 -55.08064,0.0998 c -30.29438,0.055 -69.5754,0.0464 -87.2912,-0.02 l -32.21052,-0.119 0.0326,27.17708 c 0.0262,21.93544 -0.76488,120.55908 -1.0759,134.12446 -0.0424,1.85262 -0.014,5.6421 0.0618,8.42104 l 0.139,5.05264 44.00016,-0.23128 c 24.1998,-0.1272 66.92618,-0.1916 94.94724,-0.1432 z m 3.81264,-44.11956 c -0.83376,-3.86182 -1.99176,-32.17338 -1.34284,-32.83034 0.93466,-0.94622 6.3723,-0.35494 6.3723,0.69292 0,0.46316 -1.0869,0.96634 -2.41534,1.11818 -2.28102,0.2607 -2.3869,0.44802 -1.904,3.36842 0.28124,1.70078 0.5155,4.63822 0.5206,6.52764 0.008,2.9712 0.25372,3.42626 1.81878,3.36842 2.47914,-0.0916 2.97026,1.8416 0.5548,2.184 -1.39542,0.1978 -1.9263,0.80962 -1.8831,2.17018 0.033,1.0421 0.1278,4.16842 0.21052,6.94738 0.1306,4.38836 0.36526,5.05262 1.78488,5.05262 1.49684,0 3.14902,1.40422 2.44982,2.08216 -0.1622,0.1572 -1.52746,0.47806 -3.034,0.71296 -2.30248,0.35902 -2.80184,0.1368 -3.13242,-1.39454 z m 23.28188,-0.69982 c -1.19368,-3.84462 -1.20762,-31.84404 -0.016,-33.27916 2.03424,-2.45112 6.64414,-0.37346 7.02506,3.16612 1.12674,10.47022 1.2807,18.1571 0.47916,23.9201 -1.02618,7.37786 -1.16998,7.65468 -4.3888,8.44914 -1.97506,0.48746 -2.32644,0.23164 -3.09886,-2.2562 z m 4.3272,-1.85786 c 0.969,-2.52518 1.42044,-14.83428 0.80652,-21.99118 -0.5303,-6.1821 -0.91542,-7.62024 -2.1014,-7.84706 -1.32964,-0.2543 -1.4483,0.91696 -1.40678,13.88512 0.025,7.78956 0.23024,14.82602 0.45622,15.63654 0.49148,1.76272 1.62898,1.92308 2.24544,0.31658 z m 17.9589,3.94124 c -0.29618,-0.2962 -0.53852,-3.2927 -0.53852,-6.6589 0,-3.36622 -0.5528,-8.7483 -1.22844,-11.96016 -0.67564,-3.21188 -1.49446,-8.44718 -1.8196,-11.634 -0.53898,-5.28268 -0.47064,-5.69464 0.7741,-4.6661 0.8261,0.6826 1.60682,3.17688 1.97688,6.31578 l 0.61158,5.18766 1.04118,-3.36842 c 0.57266,-1.85262 1.0703,-4.38816 1.1059,-5.6345 0.069,-2.41898 1.46162,-3.86988 2.56362,-2.67108 0.36736,0.39966 -0.05,3.94768 -0.92766,7.88454 -1.08168,4.85238 -1.5864,10.32564 -1.56702,16.99278 0.026,8.95494 -0.5086,11.69582 -1.99202,10.2124 z m -140.1692,-1.97484 c -1.7358,-1.61712 -2.51892,-4.17772 -1.27772,-4.17772 0.31088,0 1.23438,0.60554 2.0522,1.34566 2.07416,1.87708 3.08626,0.92406 3.75506,-3.53586 0.66118,-4.4091 -0.38168,-7.35572 -3.46048,-9.77748 -1.86872,-1.46996 -2.06996,-2.24022 -2.06996,-7.92312 0,-5.70766 0.20556,-6.48538 2.20348,-8.337 1.84174,-1.70686 2.49842,-1.88694 4,-1.09688 2.0418,1.0743 3.02804,2.32086 3.0468,3.851 0.018,1.5061 -1.72634,1.29928 -2.9304,-0.34736 -0.60638,-0.82928 -1.58826,-1.18332 -2.40862,-0.86852 -1.924,0.7383 -2.0359,11.94378 -0.1266,12.67646 2.04676,0.7854 4.63022,5.78676 4.62856,8.96048 -0.002,4.4465 -1.55594,9.13944 -3.34206,10.09534 -2.06154,1.1033 -1.9268,1.13194 -4.07026,-0.865 z m 21.20794,0.4788 c -0.58734,-1.53058 1.88742,-25.35292 3.12638,-30.09464 0.93664,-3.58474 2.04378,-4.63568 2.802,-2.65978 2.04714,5.33472 5.9056,32.28666 4.78292,33.40934 -0.412,0.412 -0.93642,0.39612 -1.20376,-0.0364 -0.41498,-0.67146 -2.21932,-10.53278 -2.23634,-12.22238 -0.004,-0.34736 -0.9022,-0.63156 -1.99716,-0.63156 -1.72998,0 -2.06094,0.51184 -2.52632,3.907 -0.29452,2.14886 -0.5355,4.9686 -0.5355,6.26608 0,2.71 -1.4463,4.05832 -2.21222,2.06238 z m 7.00164,-15.91728 c -0.24388,-0.63552 -0.7204,-3.00256 -1.05894,-5.2601 -0.4782,-3.18888 -0.7619,-3.72956 -1.2717,-2.42346 -0.36092,0.92464 -0.68284,3.2917 -0.71538,5.26012 -0.0512,3.09684 0.1798,3.57894 1.71512,3.57894 1.1577,0 1.62022,-0.40154 1.3309,-1.1555 z m 8.45178,16.20002 c -0.9798,-0.5483 -1.35566,-3.87258 -1.81798,-16.0784 -0.32054,-8.46294 -0.77376,-16.05034 -1.00712,-16.86086 -0.53072,-1.8432 1.39696,-1.9402 4.69232,-0.2361 3.9424,2.03868 5.72326,10.61436 3.00894,14.4896 -1.07374,1.533 -1.08118,1.85132 -0.0524,2.24608 2.67308,1.02576 3.92596,11.47032 1.7488,14.57866 -1.38502,1.9774 -4.69158,2.91366 -6.57254,1.86102 z m 5.1442,-5.87222 c 0.37224,-3.79552 -1.29272,-9.1723 -2.84026,-9.1723 -0.97488,0 -1.22936,1.38892 -1.22936,6.7097 0,6.60284 0.0302,6.69864 1.89474,6.0144 1.3588,-0.49862 1.97398,-1.50326 2.17488,-3.5518 z m -1.5433,-18.43546 c 0,-1.9286 -0.65232,-3.96486 -1.6562,-5.16986 l -1.65618,-1.98804 v 7.1579 7.1579 l 1.65618,-1.98802 c 1.00388,-1.20502 1.6562,-3.24128 1.6562,-5.16988 z m 6.3124,11.57894 c -0.96566,-19.21342 -0.95792,-21.0696 0.0894,-21.42586 1.06016,-0.36062 1.77118,5.65102 2.58266,21.83616 l 0.53778,10.72608 3.23884,-0.51792 c 2.54532,-0.40702 3.23886,-0.24798 3.23886,0.74268 0,0.8025 -1.14758,1.45028 -3.1579,1.78258 -6.21948,1.02802 -5.77216,1.92844 -6.5297,-13.14372 z m 12.6921,12.6941 c -0.1974,-0.61334 -0.57622,-5.0941 -0.84168,-9.95724 -0.26546,-4.86316 -0.7173,-12.3416 -1.00408,-16.61872 -0.59624,-8.89248 -0.22718,-9.42034 5.67852,-8.12204 4.18862,0.92084 3.96466,2.50488 -0.31094,2.19916 l -3.1579,-0.22582 v 4.5416 c 0,2.49788 0.2209,5.64604 0.49086,6.99594 0.44924,2.24616 0.74384,2.4248 3.4734,2.10614 2.23006,-0.26036 2.88718,-0.0622 2.6046,0.7856 -0.20786,0.62358 -1.29722,1.34984 -2.42076,1.61392 -1.94616,0.45744 -2.05438,0.82996 -2.287,7.87108 l -0.24416,7.39094 2.77048,-0.2689 c 1.99644,-0.1938 2.77048,0.0764 2.77048,0.96722 0,1.66532 -7.0017,2.33658 -7.52182,0.72112 z m 19.69714,0.52696 c -0.02,-0.44 -0.24216,-3.45262 -0.49508,-6.69474 -0.73604,-9.43496 -0.79156,-27.16204 -0.0872,-27.87016 1.12588,-1.132 2.41868,1.01444 2.9036,4.82084 0.25792,2.0245 0.85798,4.43414 1.33348,5.35478 0.74162,1.43592 1.08078,0.90696 2.3859,-3.72132 2.89474,-10.2654 3.66996,-8.99214 4.57916,7.52112 0.8735,15.8646 0.86452,19.74858 -0.0468,20.21054 -0.45682,0.23158 -0.90178,-0.1474 -0.9888,-0.84212 -0.087,-0.69472 -0.64802,-6 -1.24666,-11.78946 -1.03126,-9.97322 -1.13742,-10.35192 -2.0207,-7.20738 -0.9045,3.22018 -2.87446,5.12688 -2.95126,2.8565 -0.0208,-0.61754 -0.5843,-2.25966 -1.252,-3.64912 l -1.21398,-2.52632 0.41276,3.36842 c 0.90668,7.39928 0.7572,18.93398 -0.25854,19.94972 -0.56028,0.56028 -1.03454,0.6587 -1.0539,0.2187 z m 24.42358,-4.30878 c -0.018,-2.70174 -0.1878,-10.31228 -0.37724,-16.91228 -0.28494,-9.92466 -0.1392,-12 0.84216,-12 1.10108,0 3.7057,6.83484 3.82896,10.04758 0.0456,1.18724 3.24226,-9.57996 3.29558,-11.1002 0.012,-0.34738 0.54606,-0.63158 1.18638,-0.63158 1.29762,0 1.78514,4.29934 2.70956,23.8954 0.4587,9.72352 0.35654,11.62064 -0.60864,11.30226 -1.2413,-0.40944 -2.03852,-7.05302 -2.40474,-20.03976 l -0.20186,-7.1579 -0.96086,4.98608 c -1.0347,5.36942 -2.59176,6.87 -3.85588,3.71602 -0.82676,-2.06278 -0.8405,-1.9159 -1.18734,12.69558 -0.0824,3.46816 -0.50442,5.5252 -1.18078,5.75438 -0.76028,0.25764 -1.0617,-1.00758 -1.0853,-4.55558 z m 23.98692,3.69318 c -0.25022,-0.65202 -0.1528,-8.5392 0.21646,-17.52706 0.65102,-15.84562 0.72644,-16.34938 2.48482,-16.6 2.99686,-0.42708 4.50236,2.75678 4.50236,9.5216 0,3.92716 -0.42966,6.5545 -1.26754,7.75072 -1.00246,1.43122 -1.10288,2.65916 -0.4802,5.87158 1.45646,7.51392 1.75616,11.11522 0.96566,11.60378 -1.21454,0.75062 -1.78342,-0.73926 -2.96944,-7.77668 l -1.09578,-6.50202 -0.1026,6.89766 c -0.0948,6.37184 -1.16776,9.5903 -2.25368,6.76042 z m 4.66444,-24.44462 c -0.008,-2.8674 -0.38024,-5.78188 -0.82922,-6.47662 -0.56332,-0.8717 -0.8203,0.9053 -0.8292,5.73392 -0.008,4.4533 0.29326,6.80784 0.8292,6.4766 0.46316,-0.28624 0.83632,-2.8665 0.82922,-5.7339 z m -117.8436,18.57602 c 0.1162,-2.89474 0.155,-9.69062 0.0864,-15.10198 l -0.1246,-9.8388 -2.25084,-0.26646 c -1.23798,-0.1466 -2.3983,-0.71586 -2.57852,-1.26514 -0.36668,-1.11764 4.14288,-1.71222 9.28984,-1.2249 3.67152,0.34764 3.8321,2.07488 0.23228,2.49818 l -2.33526,0.27462 0.1884,10.67276 c 0.30888,17.49856 0.1674,19.51486 -1.3692,19.51486 -1.1166,0 -1.31314,-0.90856 -1.13848,-5.26314 z M 437.53397,277.45693 c -0.94836,-0.94836 -0.57758,-1.94202 0.72466,-1.94202 0.69474,0 1.26316,0.35658 1.26316,0.7924 0,1.06188 -1.31504,1.8224 -1.98782,1.14962 z m 4.87646,-0.52824 c -0.67424,-1.75706 0.1682,-2.90434 1.30086,-1.77164 0.47832,0.47832 0.49072,1.28208 0.0312,2.02552 -0.6461,1.04538 -0.84834,1.00684 -1.33212,-0.25388 z m -10.04654,-0.57168 c -0.33612,-0.54386 -0.2322,-1.36778 0.23096,-1.83094 0.5614,-0.56142 1.04582,-0.5125 1.45324,0.1468 0.33614,0.54388 0.23222,1.3678 -0.23094,1.83096 -0.56142,0.5614 -1.04584,0.51248 -1.45326,-0.1468 z m -53.6757,-31.36842 c -1.10248,-0.84954 -1.39494,-2.92098 -1.51596,-10.73684 -0.0824,-5.32632 -0.1086,-10.34736 -0.058,-11.1579 0.1252,-2.00816 3.04528,-1.88866 5.14448,0.21054 1.47714,1.47714 1.68422,2.80702 1.68422,10.81684 0,7.7781 -0.22842,9.33936 -1.54,10.52632 -1.84642,1.67098 -1.9736,1.68266 -3.71466,0.34104 z m 2.72834,-10.63372 c 0,-6.73862 -0.26642,-8.53738 -1.4031,-9.4737 -1.2805,-1.05472 -1.3549,-0.86136 -0.85138,2.21268 0.30344,1.85264 0.5559,6.1158 0.56098,9.4737 0.006,3.50258 0.36828,6.10526 0.85138,6.10526 0.50458,0 0.84212,-3.33406 0.84212,-8.31794 z m 14.89122,11.139 c -0.3165,-0.3165 -0.5806,-4.20702 -0.58694,-8.64562 -0.014,-9.54842 -0.44424,-11.56218 -2.59266,-12.12402 -2.01384,-0.52662 -2.10828,-2.22146 -0.1326,-2.3808 2.57802,-0.20794 6.4081,0.141 6.89524,0.62814 0.2588,0.25878 -0.0974,0.91322 -0.7913,1.4543 -1.0216,0.79648 -1.2071,2.80486 -0.97438,10.54896 0.26286,8.74652 -0.30468,12.03164 -1.81728,10.51904 z m 67.36842,0 c -0.3165,-0.3165 -0.57544,-6.1965 -0.57544,-13.06668 0,-10.54192 0.1972,-12.49122 1.26316,-12.49122 1.0025,0 1.26316,1.21636 1.26316,5.89474 0,4.67836 0.26064,5.89472 1.26316,5.89472 1.00392,0 1.26316,-1.22416 1.26316,-5.9649 0,-4.39624 0.27682,-5.87334 1.05262,-5.6167 1.14778,0.3797 2.43916,23.18556 1.38714,24.49708 -0.90084,1.12306 -1.76054,-0.95366 -2.3316,-5.63226 -0.69892,-5.7262 -2.14706,-5.18824 -2.4702,0.91764 -0.25274,4.77558 -0.98352,6.6992 -2.11516,5.56758 z m 10.52004,-0.53732 c -1.0761,-1.29662 -2.30072,-19.67128 -1.5187,-22.7871 0.8051,-3.20776 3.25936,-4.24714 5.4803,-2.32092 1.60474,1.39178 1.78502,2.43176 1.78502,10.29704 0,9.07636 -0.88694,14.02758 -2.72146,15.19198 -1.4753,0.9364 -1.98508,0.8722 -3.02516,-0.381 z m 3.16112,-14.28374 c 0.05,-7.64666 -0.1438,-9.05264 -1.24812,-9.05264 -1.41274,0 -1.58812,4.74378 -0.59056,15.97308 0.7114,8.00818 1.76706,4.0349 1.83868,-6.92044 z m -92.04052,3.01652 c 0.28916,-6.40646 0.81552,-11.96742 1.1697,-12.3577 0.35416,-0.39026 1.4262,-0.29092 2.38232,0.22076 1.97716,1.05816 2.3525,2.84078 3.09172,14.6834 0.41594,6.66364 0.29924,8.22774 -0.59192,7.93418 -0.6105,-0.20112 -1.29948,-1.76964 -1.53106,-3.48562 -0.5877,-4.3548 -2.02228,-4.21918 -2.52632,0.23886 -0.23158,2.04824 -0.89334,3.87936 -1.47062,4.06914 -0.8208,0.26988 -0.93496,-2.19362 -0.52382,-11.30302 z m 3.44686,-6.36986 c -0.1874,-1.51356 -0.34464,-0.47824 -0.34936,2.3007 -0.006,2.77896 0.1486,4.01732 0.34076,2.75194 0.1922,-1.2654 0.196,-3.53908 0.008,-5.05264 z m 12.22954,6.77758 c 0.38142,-9.40456 0.68272,-11.27206 1.97048,-12.2137 0.92104,-0.67348 1.82436,-0.80742 2.29192,-0.33986 1.21394,1.21392 4.05,22.20864 3.12502,23.13364 -0.98378,0.98378 -2.54306,-2.81212 -2.54306,-6.19084 0,-1.86412 -0.32552,-2.30752 -1.47368,-2.00728 -1.01478,0.26538 -1.50646,1.28974 -1.57894,3.28958 -0.1802,4.97046 -0.28852,5.43054 -1.27892,5.43054 -0.6968,0 -0.8386,-3.0697 -0.51282,-11.10208 z m 4.00226,-2.3219 c 0,-1.36214 -0.37894,-2.71084 -0.8421,-2.99708 -0.50116,-0.30972 -0.84212,0.69302 -0.84212,2.47662 0,1.64838 0.37896,2.99706 0.84212,2.99706 0.46316,0 0.8421,-1.11448 0.8421,-2.4766 z m 36.70126,12.03876 c -0.2699,-0.70336 -0.49074,-2.94122 -0.49074,-4.97302 0,-2.93774 -0.25864,-3.59492 -1.26316,-3.20946 -0.88466,0.33948 -1.26316,1.7194 -1.26316,4.60516 0,2.26624 -0.33786,4.12042 -0.7508,4.12042 -1.44492,0 -1.89008,-4.63294 -1.30806,-13.61314 0.47564,-7.33854 0.88974,-9.3288 2.18488,-10.50088 1.03538,-0.93702 1.88636,-1.1578 2.41708,-0.6271 2.08656,2.08658 3.81668,24.38294 1.94766,25.09986 -0.54062,0.20736 -1.20378,-0.1984 -1.4737,-0.90184 z m -0.53926,-13.2312 c -0.0268,-0.99254 -0.36208,-3.32042 -0.74528,-5.17306 l -0.69672,-3.36842 -0.0968,3.05262 c -0.0534,1.67896 -0.33506,4.24366 -0.62618,5.69934 -0.44308,2.21542 -0.30586,2.56094 0.8421,2.12044 0.75428,-0.28946 1.3496,-1.33836 1.32292,-2.33092 z m 10.3301,13.55452 c -0.47114,-0.57386 -1.43506,-2.9381 -2.14202,-5.2539 l -1.2854,-4.21052 -0.0588,4.8421 c -0.045,3.71662 -0.35226,4.8421 -1.32182,4.8421 -1.06506,0 -1.26316,-1.92592 -1.26316,-12.2807 0,-9.43318 0.24344,-12.19956 1.0499,-11.93074 0.57744,0.1924 1.63638,2.97144 2.35324,6.17544 1.06948,4.78022 1.40788,5.44774 1.88598,3.72022 0.32044,-1.1579 0.5878,-4.12632 0.59412,-6.5965 0.008,-3.21504 0.31062,-4.39146 1.06414,-4.14016 0.77438,0.25828 1.07012,3.62626 1.11884,12.74126 0.0364,6.8146 -0.20486,12.5577 -0.53616,12.76246 -0.33132,0.20476 -0.98786,-0.0972 -1.459,-0.67106 z m 4.8312,-1.16204 c -0.46504,-1.22316 -0.73988,-7.0021 -0.61074,-12.8421 0.23446,-10.60224 0.23786,-10.61818 2.2699,-10.61818 1.11928,0 2.19298,0.47368 2.38596,1.05264 0.193,0.57894 -0.24912,1.05262 -0.98246,1.05262 -1.14192,0 -1.33334,1.44348 -1.33334,10.05556 0,8.92472 0.7968,13.03644 1.92808,9.9497 0.30328,-0.8275 0.62296,-0.8364 1.46782,-0.041 0.87772,0.8264 0.87812,1.26032 0.002,2.3158 -1.6818,2.02644 -4.1763,1.5764 -5.12736,-0.92508 z m 30.34822,2.0134 c -0.006,-0.1158 -0.55876,-1.7263 -1.22618,-3.57894 l -1.21352,-3.36842 -0.037,3.1579 c -0.0262,2.22918 -0.40846,3.15788 -1.30012,3.15788 -1.0645,0 -1.26316,-1.9126 -1.26316,-12.16082 0,-6.68846 0.30536,-12.34956 0.67858,-12.58022 0.37324,-0.23068 1.58102,0.0312 2.68396,0.58188 2.8273,1.41166 3.79934,5.79944 2.49364,11.25614 -0.88226,3.68704 -0.83878,4.98142 0.28168,8.38484 1.31282,3.9878 1.23786,5.3603 -0.29282,5.3603 -0.43584,0 -0.79812,-0.0948 -0.8051,-0.21054 z m -1.5071,-20.5483 c -0.77084,-2.11694 -0.87128,-1.80492 -0.85408,2.65356 0.018,4.61114 0.0942,4.82078 0.87356,2.39908 0.58186,-1.80784 0.57566,-3.41818 -0.02,-5.05264 z m 10.96978,19.76672 c -1.42008,-1.42008 -1.43632,-22.68472 -0.018,-24.10262 1.45896,-1.45898 3.57076,-1.2429 5.17474,0.52946 2.55726,2.82572 1.54762,23.72316 -1.14616,23.72316 -0.37996,0 -1.20618,0.1978 -1.83606,0.43946 -0.62986,0.24172 -1.6082,-0.0236 -2.17412,-0.58946 z m 3.9703,-8.22146 c -0.0624,-4.49 -1.06604,-2.81016 -1.98282,3.31884 -0.52624,3.51794 -0.4736,3.67234 0.73468,2.15484 0.76928,-0.96616 1.2797,-3.2046 1.24814,-5.47368 z m -0.61938,-10.65972 c 0.156,-1.9246 -0.149,-3.24774 -0.80092,-3.47658 -0.77358,-0.2715 -1.03848,1.04436 -0.99924,4.96392 0.0398,3.97662 0.24354,4.861 0.80092,3.47656 0.41114,-1.0212 0.8608,-3.25496 0.99924,-4.9639 z m -82.2029,18.30508 c -0.24682,-0.39936 -0.70396,-4.92802 -1.01588,-10.0637 -0.48278,-7.94882 -0.35792,-9.6569 0.83952,-11.48442 1.73642,-2.65012 3.47106,-2.73602 5.09102,-0.25208 1.65718,2.54098 1.46368,19.0745 -0.24736,21.1347 -1.23268,1.48424 -3.92412,1.86802 -4.6673,0.6655 z m 3.5498,-12.9432 c -0.1392,-4.0688 -0.63202,-7.4893 -1.09518,-7.6011 -1.2231,-0.29524 -1.50564,3.85062 -0.8183,12.00726 0.48498,5.75534 0.75634,6.7497 1.38486,5.07478 0.42992,-1.14572 0.6678,-5.41212 0.52862,-9.48094 z m 3.5364,1.36868 c 0,-10.87058 0.1548,-12.2412 1.33204,-11.78946 0.7326,0.28112 2.2365,0.51114 3.34198,0.51114 1.44066,0 1.87268,0.35778 1.52524,1.26316 -0.2666,0.69474 -1.20206,1.26316 -2.07884,1.26316 -1.32162,0 -1.5941,0.63094 -1.5941,3.69126 0,2.98304 0.32312,3.77576 1.6842,4.13168 0.92632,0.24224 1.68422,0.81066 1.68422,1.26316 0,0.4525 -0.7579,1.02092 -1.68422,1.26316 -1.45176,0.37964 -1.6842,1.14864 -1.6842,5.5719 0,3.9999 -0.27854,5.13146 -1.26316,5.13146 -1.06516,0 -1.26316,-1.92814 -1.26316,-12.30062 z m -10.73684,61.96442 2.31578,0.0204 v -20.68824 -20.68822 l -85.60128,0.42394 c -59.23432,0.29336 -85.77208,0.70032 -86.15582,1.3212 -0.52548,0.85026 -0.54856,4.52802 -0.1858,29.5929 l 0.1534,10.59316 83.57894,-0.29778 c 45.96842,-0.1638 84.62106,-0.28862 85.89474,-0.27738 z m -143.1579,-6.43202 c -0.76804,-0.30992 -1.05262,-3.4527 -1.05262,-11.62478 0,-10.6254 0.0896,-11.22348 1.7467,-11.65682 3.20122,-0.83712 4.99014,2.09946 4.99014,8.19148 0,9.11694 1.22894,9.17362 1.6842,0.0778 0.3673,-7.3382 0.62064,-8.45032 1.9842,-8.71054 0.85972,-0.164 1.98024,0.1188 2.49004,0.6286 1.09524,1.09522 2.99854,21.09198 2.0626,21.6704 -1.3687,0.84592 -2.3263,-0.78532 -2.3263,-3.96276 0,-5.7375 -1.96886,-3.915 -2.71162,2.51004 -0.37492,3.24316 -2.32256,3.18416 -2.4557,-0.0744 -0.0946,-2.31446 -0.1826,-2.4376 -0.50174,-0.70174 -0.68454,3.72324 -2.6795,4.9563 -5.9099,3.65282 z m 3.29424,-3.86334 c 0.075,-1.04212 0.0372,-4.92632 -0.084,-8.63158 -0.34498,-10.54752 -1.73658,-9.67024 -1.73658,1.09472 0,5.72632 0.33082,9.43158 0.8421,9.43158 0.46316,0 0.90346,-0.85262 0.97844,-1.89472 z m 7.2108,-14.30072 c -0.1874,-1.51356 -0.34462,-0.47824 -0.34936,2.3007 -0.006,2.77896 0.1486,4.01732 0.34078,2.75194 0.1922,-1.2654 0.196,-3.53908 0.008,-5.05264 z m 7.54408,18.1744 c -0.31648,-0.3165 -0.58124,-4.58596 -0.58832,-9.48772 -0.014,-9.31206 -0.2708,-10.35746 -2.77732,-11.28356 -2.5758,-0.95168 -0.68782,-2.2603 3.26096,-2.2603 3.5002,0 5.05152,1.23528 2.68714,2.13972 -0.78182,0.29908 -0.97922,2.91618 -0.76732,10.1725 0.26084,8.93246 -0.29854,12.23594 -1.81514,10.71936 z m 67.33106,-0.1054 c -0.23124,-0.37414 -0.43786,-6.28256 -0.45918,-13.12986 -0.0294,-9.4686 0.20848,-12.36786 0.9938,-12.10822 0.65384,0.21616 1.12302,2.54122 1.27918,6.339 0.1992,4.8438 0.48268,5.90704 1.47368,5.52676 0.896,-0.34382 1.22708,-1.91008 1.22708,-5.80476 0,-2.93364 0.38162,-5.56976 0.84806,-5.85802 1.3068,-0.80764 1.53636,0.79876 1.89584,13.26684 0.25978,9.01004 0.0952,11.57894 -0.74216,11.57894 -0.6902,0 -1.28096,-1.81166 -1.64764,-5.05264 -0.38922,-3.44022 -0.94002,-5.05262 -1.72604,-5.05262 -0.84822,0 -1.15438,1.3268 -1.15438,5.00292 0,4.5555 -0.92376,7.01406 -1.98824,5.29166 z m 10.62732,-0.39984 c -1.20268,-1.52474 -2.07328,-22.31742 -1.01708,-24.291 1.08616,-2.02946 3.49494,-2.05844 5.30012,-0.0638 1.86924,2.06548 1.99318,18.1319 0.1734,22.48706 -1.2528,2.99836 -2.99028,3.72654 -4.45652,1.86768 z m 3.1375,-13.96492 c 0.01,-7.26524 -0.23842,-9.4601 -1.03974,-9.19298 -1.07558,0.35852 -1.13448,1.42446 -0.79092,14.31578 0.28296,10.618 1.81518,6.33032 1.83066,-5.1228 z m -76.5449,6.87718 c 0.118,-11.89418 0.85042,-15.81136 3.01416,-16.11956 1.58688,-0.22604 1.94142,0.32288 2.71954,4.21052 1.62404,8.11416 2.54144,17.914 1.7518,18.71284 -0.89912,0.9096 -2.50664,-2.8588 -2.50664,-5.87616 0,-1.22666 -0.48894,-2.05044 -1.21702,-2.05044 -0.851,0 -1.29422,1.18324 -1.47368,3.93418 -0.1434,2.1988 -0.721,4.08702 -1.3093,4.2807 -0.7924,0.26086 -1.0344,-1.49254 -0.97886,-7.09208 z m 4.13674,-6.17542 c 0,-1.38948 -0.37894,-2.52632 -0.8421,-2.52632 -0.46316,0 -0.8421,1.13684 -0.8421,2.52632 0,1.38946 0.37894,2.5263 0.8421,2.5263 0.46316,0 0.8421,-1.13684 0.8421,-2.5263 z m 13.07072,12.32788 c -1.16634,-0.85284 -1.43404,-2.77582 -1.55554,-11.1736 -0.109,-7.53222 0.1508,-10.50392 1.00898,-11.54362 1.5195,-1.8408 2.22558,-1.76784 4.28514,0.44286 1.46892,1.5767 1.71702,2.95786 1.71702,9.55854 0,10.95762 -1.87702,15.33254 -5.4556,12.71582 z m 2.9164,-12.48872 c 0.012,-8.19726 -1.03286,-11.39998 -2.11446,-6.47544 -0.79396,3.61488 0.38552,17.34632 1.35806,15.81044 0.40892,-0.6458 0.7493,-4.84654 0.7564,-9.335 z m 16.44356,12.79242 c -1.37796,-2.0908 -0.70692,-20.92666 0.82904,-23.27082 3.05588,-4.66388 4.54992,-1.33152 5.44794,12.1513 0.41232,6.19062 0.39708,11.02962 -0.0362,11.48442 -1.15232,1.20968 -1.62648,0.24084 -2.18336,-4.46124 -0.72778,-6.14482 -2.64234,-5.81158 -2.97244,0.51738 -0.1848,3.54158 -0.47614,4.50284 -1.08504,3.57896 z m 3.68022,-14.10528 c -0.0548,-1.73684 -0.38892,-4.29472 -0.74248,-5.6842 -0.55316,-2.1739 -0.65672,-1.9192 -0.74246,1.82586 -0.0548,2.3937 -0.32964,4.9516 -0.61078,5.68422 -0.33542,0.87408 -0.0458,1.33202 0.8421,1.33202 1.02006,0 1.32872,-0.7775 1.25362,-3.1579 z m 10.38122,13.88548 c -0.47116,-0.57384 -1.43506,-2.9381 -2.14204,-5.2539 l -1.2854,-4.21052 -0.0586,4.8421 c -0.045,3.71664 -0.35226,4.84212 -1.3218,4.84212 -1.06506,0 -1.26316,-1.92594 -1.26316,-12.2807 0,-14.55322 1.0825,-15.69488 3.86564,-4.07684 l 1.80034,7.51542 0.3249,-8 c 0.50862,-12.52362 1.98222,-9.42272 2.18686,4.6018 0.1712,11.73116 -0.27132,14.25598 -2.10668,12.02052 z m 4.46412,-3.35916 c -0.29338,-2.43158 -0.41538,-8.21052 -0.27114,-12.8421 0.2576,-8.27126 0.29846,-8.42106 2.29736,-8.42106 1.1193,0 2.19298,0.4737 2.38596,1.05264 0.193,0.57894 -0.24912,1.05262 -0.98246,1.05262 -1.13494,0 -1.33332,1.36792 -1.33332,9.1943 0,10.21074 0.42572,12.41012 2.12864,10.99684 1.33714,-1.10972 2.30292,0.1478 1.57348,2.04866 -0.30172,0.78624 -1.49478,1.33916 -2.88952,1.33916 -2.2367,0 -2.40682,-0.25854 -2.909,-4.42106 z m 26.23676,3.85966 c -0.80636,-0.80634 -0.6953,-24.51962 0.1172,-25.02176 0.37322,-0.23068 1.57488,0.0312 2.67034,0.58188 2.9833,1.49974 3.81592,5.03406 2.61236,11.08914 -0.85722,4.31258 -0.81658,5.73432 0.2526,8.83762 0.70078,2.03402 1.08276,4.0079 0.84884,4.38638 -0.91062,1.47342 -1.9216,0.54168 -3.1366,-2.8908 l -1.26686,-3.57896 -0.0664,3.57896 c -0.0624,3.35434 -0.71904,4.32988 -2.0314,3.01754 z m 3.0148,-19.85966 c -0.79986,-2.49338 -0.87796,-2.24994 -0.87796,2.73684 0,4.9868 0.078,5.23024 0.87796,2.73684 0.6092,-1.89906 0.6092,-3.57462 0,-5.47368 z m -60.83938,7.92984 c 0,-6.40704 0.20218,-11.8513 0.44928,-12.0984 0.73616,-0.73616 5.8816,0.58992 5.68934,1.46624 -0.0974,0.44418 -0.95006,0.92868 -1.89472,1.07668 -1.42166,0.22274 -1.71758,0.89494 -1.71758,3.90178 0,2.92448 0.32834,3.71856 1.68422,4.07312 0.92632,0.24224 1.6842,0.81066 1.6842,1.26316 0,0.4525 -0.75788,1.02092 -1.6842,1.26316 -1.45176,0.37966 -1.68422,1.14864 -1.68422,5.5719 0,3.9999 -0.27854,5.13148 -1.26316,5.13148 -1.06192,0 -1.26316,-1.85576 -1.26316,-11.64912 z m 73.08038,5.31686 c 0.3731,-5.81366 0.28358,-6.28514 -1.0931,-5.75686 -1.25064,0.4799 -1.41586,0.23808 -0.99562,-1.45722 3.56012,-14.36122 4.7765,-13.9868 5.02608,1.54704 0.1878,11.69086 0.1472,12.0007 -1.57546,12 -1.6755,-6.8e-4 -1.74696,-0.33292 -1.3619,-6.33296 z m -67.81722,-29.04266 7.36842,0.006 v -20.21054 -20.21052 l -27.15788,0.002 c -14.93684,0.002 -34.22932,0.24952 -42.8722,0.55158 l -15.71428,0.5492 0.3243,17.76422 c 0.1784,9.7703 0.334,18.79238 0.34586,20.04906 l 0.0216,2.28486 35.1579,-0.3966 c 19.33684,-0.21814 38.47368,-0.3937 42.5263,-0.39014 z m -58.51476,-9.88824 c -0.164,-0.34738 -0.41186,-5.03966 -0.55054,-10.42732 -0.1744,-6.77386 0.0496,-9.98216 0.72576,-10.4001 1.56714,-0.96856 1.93772,0.0496 1.82338,5.00902 -0.1022,4.43614 -0.006,4.6605 1.99384,4.6605 1.92324,0 2.10128,-0.31526 2.10128,-3.7206 0,-4.33838 0.63624,-6.38486 1.98482,-6.38418 1.31738,6.6e-4 1.18122,20.41784 -0.1392,20.85796 -0.55326,0.1844 -1.1597,-1.41974 -1.49646,-3.9584 -0.50476,-3.80504 -0.78866,-4.26846 -2.61496,-4.26846 -1.88554,0 -2.00978,0.245 -1.55984,3.07612 0.26888,1.69188 0.26672,3.77608 -0.006,4.63158 -0.50094,1.5783 -1.71926,2.07562 -2.26338,0.92388 z m 20.83938,-0.1962 c -0.59678,-0.9656 -0.43168,-15.6252 0.21402,-19.00294 0.23154,-1.21128 0.96868,-2.41248 1.63806,-2.66934 2.8562,-1.09604 4.45736,3.5212 5.68538,16.39484 0.4178,4.37984 0.286,5.26316 -0.78528,5.26316 -0.70802,0 -1.33468,-0.75788 -1.39258,-1.6842 -0.058,-0.92632 -0.2,-2.06316 -0.3158,-2.52632 -0.1158,-0.46316 -0.25788,-1.6 -0.31578,-2.52632 -0.058,-0.92632 -0.67368,-1.6842 -1.36842,-1.6842 -0.95238,0 -1.26316,1.0237 -1.26316,4.16082 0,4.01164 -0.99946,6.04946 -2.09644,4.2745 z m 3.8438,-12.03532 c -0.0346,-0.3358 -0.0632,-1.58026 -0.0632,-2.7655 0,-1.2222 -0.3645,-1.92968 -0.84212,-1.6345 -1.14378,0.7069 -1.08448,5.69482 0.0632,5.31228 0.4979,-0.166 0.87684,-0.5765 0.8421,-0.91228 z m 7.30928,11.81052 c -1.09858,-0.84376 -1.42294,-3.01624 -1.63464,-10.94848 l -0.2641,-9.89584 2.10526,0.014 c 1.1579,0.008 2.6042,0.33038 3.214,0.71706 1.21282,0.76906 2.5992,12.0839 2.07446,16.93058 -0.437,4.03618 -2.68698,5.33938 -5.49498,3.18268 z m 2.82406,-2.52632 c 0.3167,-3.6537 -0.34986,-13.86484 -0.97466,-14.9312 -0.47346,-0.8081 -0.759,1.90002 -0.77516,7.35226 -0.016,5.21006 0.3082,8.63158 0.81648,8.63158 0.46316,0 0.88316,-0.47368 0.93334,-1.05264 z m 12.25966,3.01754 c -0.30878,-0.30876 -0.56142,-5.23508 -0.56142,-10.94736 0,-10.37432 0.002,-10.38596 2.00216,-10.38596 1.10118,0 2.47408,0.56862 3.05086,1.26362 1.49678,1.8035 2.05198,8.26446 0.89582,10.42476 -0.8087,1.51106 -0.67868,2.25184 0.74648,4.2533 0.94916,1.33296 1.72574,3.02822 1.72574,3.76726 0,2.54584 -2.10902,1.3165 -3.78948,-2.20888 l -1.6842,-3.53326 -0.25666,3.96398 c -0.24216,3.73972 -0.83878,4.69308 -2.1293,3.40254 z m 3.63622,-13.54386 c -0.006,-1.73684 -0.38024,-3.7263 -0.82922,-4.42104 -0.58438,-0.9043 -0.81996,-0.006 -0.8292,3.1579 -0.006,2.43156 0.36606,4.42104 0.8292,4.42104 0.46316,0 0.83632,-1.42104 0.82922,-3.1579 z m -38.72394,2.78768 v -10.57714 h 2.4766 c 2.99342,0 4.29168,1.61344 1.81866,2.26016 -2.61932,0.68496 -2.52122,5.75244 0.1258,6.49844 l 1.89474,0.534 -1.89474,1.59394 c -1.317,1.10794 -1.89474,2.51568 -1.89474,4.61686 0,2.68904 0.24028,3.02292 2.17544,3.02292 3.37478,0 1.97152,2.06404 -1.60894,2.36662 l -3.0928,0.26136 z m 27.5563,9.91214 c -0.2293,-0.3849 -0.55486,-5.0577 -0.72344,-10.38402 l -0.30656,-9.68422 2.73684,-0.26388 c 3.03148,-0.29228 3.84976,1.39368 1.03382,2.13006 -1.45002,0.3792 -1.62374,0.89914 -1.16934,3.50012 0.29352,1.68012 1.05988,3.47548 1.70302,3.9897 1.52276,1.21752 1.48572,2.01242 -0.0938,2.01242 -0.88222,0 -1.26316,0.8889 -1.26316,2.94738 0,2.00484 0.38804,2.94736 1.21346,2.94736 1.17776,0 2.62532,1.49456 2.02704,2.09284 -0.7762,0.7762 -4.78962,1.3304 -5.15788,0.71224 z M 472.78493,121.95925 c 6.48422,0.0706 26.79046,0.26384 45.12498,0.42928 l 33.3355,0.30082 0.5562,-106.113502 c 0.30592,-58.362418 0.30706,-117.197708 0.002,-130.745068 -0.6282,-27.94634 0.40388,-24.87022 -8.28236,-24.68575 -5.8654,0.12456 -277.76924,0.94797 -282.94734,0.85684 -2.3158,-0.0407 -6.3902,0.17822 -9.05422,0.48659 l -4.84368,0.56068 0.2121,52.478746 c 0.1166,28.863312 0.41546,52.681998 0.66398,52.930412 0.24854,0.248412 6.8801,0.66458 14.73684,0.924816 9.69316,0.321062 13.67592,0.20709 12.39024,-0.35456 -1.04212,-0.455242 -1.89474,-1.448892 -1.89474,-2.2081 0,-0.99697 0.40934,-1.202696 1.47368,-0.740658 2.38498,1.035352 11.7098,2.358324 13.0358,1.84949 0.8767,-0.33642 1.26606,-2.08976 1.38366,-6.230702 0.1924,-6.777492 1.46202,-8.991764 6.9183,-12.066468 l 3.71488,-2.09339 44.21052,-0.19934 c 24.31578,-0.10964 49.92986,-0.250282 56.92016,-0.312532 10.27072,-0.09146 13.21982,0.15066 15.36842,1.261736 1.46232,0.756202 2.65878,1.731064 2.65878,2.166358 0,0.435292 1.0786,1.894846 2.3969,3.243444 2.32264,2.376016 2.40206,2.746586 2.5636,11.95925 0.0916,5.228994 0.31406,9.745686 0.49416,10.037088 0.1802,0.29141 -0.125,3.712942 -0.6779,7.60341 l -1.00538,7.073566 -3.78042,1.942358 c -4.68786,2.40859 -15.19346,3.515158 -34.56348,3.640624 -7.61668,0.04934 -17.82748,0.397506 -22.69064,0.773718 -18.68188,1.445212 -62.6073,0.50432 -63.88646,-1.368464 -0.29402,-0.430476 -1.73876,-1.269474 -3.21056,-1.864446 -5.36122,-2.167302 -5.94348,-3.616168 -6.2417,-15.531748 l -0.1654,-6.603866 -3.73924,0.560734 c -2.0566,0.308404 -5.2673,1.099856 -7.1349,1.758786 -3.26238,1.151032 -3.3784,1.132076 -2.956,-0.483182 0.42568,-1.627848 0.018,-1.68123 -12.8651,-1.68123 -9.87864,0 -13.40312,0.271066 -13.68678,1.052632 -0.2101,0.578948 -0.44328,27.95789602 -0.51816,60.842108 -0.0748,32.8842 -0.30984,65.85262 -0.52214,73.26316 -0.21228,7.41052 -0.0582,14.00196 0.34224,14.64764 0.6182,0.9966 11.77952,1.08582 73.8667,0.59052 40.22614,-0.3209 73.70688,-0.60676 74.40162,-0.63522 4.38458,-0.1796 60.2886,1.27216 60.62572,1.57446 0.22838,0.20476 1.55468,0.0592 2.94738,-0.3236 1.39268,-0.38276 7.83742,-0.6381 14.32162,-0.56744 z M 325.46565,-96.852792 c -0.1982,-0.608304 -1.36592,-4.421798 -2.59518,-8.474428 -1.22924,-4.05263 -2.44072,-7.36842 -2.69216,-7.36842 -0.25142,0 -0.2287,3.39492 0.0506,7.54427 0.32614,4.84667 0.1952,7.73737 -0.36618,8.08432 -1.59216,0.984014 -1.53198,1.419072 -2.88996,-20.89175 -0.41474,-6.81372 -0.2936,-8.21052 0.71204,-8.21052 1.32812,0 2.18362,1.85309 4.6652,10.10526 l 1.64602,5.47368 0.1568,-4.21052 c 0.0862,-2.31579 0.0954,-5.78247 0.0204,-7.70373 -0.1268,-3.24567 0.99434,-5.43024 1.9736,-3.84576 0.89704,1.45145 1.40076,29.539466 0.5393,30.071886 -0.4732,0.292444 -1.02242,0.03402 -1.2205,-0.574288 z m 53.09412,0 c -0.1752,-0.608304 -0.99596,-3.492528 -1.82378,-6.409398 -1.9524,-6.87945 -3.0007,-7.42729 -2.4254,-1.26752 0.25102,2.68768 0.1002,5.408934 -0.33514,6.04722 -1.1166,1.63708 -2.90236,0.262726 -2.3589,-1.81546 0.24854,-0.95041 0.0418,-7.17322 -0.45928,-13.82847 -0.50114,-6.65524 -0.73292,-12.27868 -0.51508,-12.49653 0.21784,-0.21784 1.575,0.0148 3.01588,0.51719 3.15562,1.10006 4.8334,5.22824 4.02002,9.89121 -0.89194,5.11329 -0.77776,6.26587 1.09834,11.08597 0.98896,2.54083 1.7981,5.455308 1.7981,6.476616 0,2.110752 -1.53106,3.477984 -2.01476,1.799172 z m -3.03786,-20.784228 c 0,-1.73677 -0.59512,-3.89336 -1.32246,-4.79241 -1.24236,-1.53564 -1.29392,-1.43064 -0.85138,1.73379 0.2591,1.85263 0.47526,4.24342 0.48036,5.31286 0.006,1.08013 0.38358,1.71309 0.85138,1.42398 0.46314,-0.28625 0.8421,-1.94145 0.8421,-3.67822 z m 14.117,7.25717 c -0.37774,-13.24825 -0.012,-17.33359 1.35118,-15.12659 0.2752,0.4453 0.75134,3.5099 1.05808,6.81022 0.46744,5.02957 0.80492,6.00058 2.08556,6.00058 1.32156,0 1.56106,-0.87209 1.7738,-6.45873 0.1612,-4.2335 0.60862,-6.57873 1.29858,-6.80702 0.79492,-0.26301 1.09682,2.03996 1.2331,9.4061 0.33488,18.102338 0.28608,19.283084 -0.81204,19.649124 -0.74776,0.24925 -1.05264,-0.85848 -1.05264,-3.824564 0,-6.52995 -0.81094,-9.43859 -2.63158,-9.43859 -1.42,0 -1.57894,0.72046 -1.57894,7.15789 0,5.504624 -0.26688,7.157896 -1.15546,7.157896 -0.91852,0 -1.24038,-2.978496 -1.56964,-14.526316 z m 12.57396,13.894736 c -0.1956,-0.347368 -0.45494,-5.936846 -0.57608,-12.421056 -0.1212,-6.48421 -0.26762,-12.92631 -0.32548,-14.31579 -0.0998,-2.39491 0.0664,-2.52631 3.19306,-2.52631 1.89004,0 3.44804,0.44942 3.64912,1.05263 0.23182,0.69546 -0.56072,1.05263 -2.33572,1.05263 -2.10384,0 -2.57572,0.28893 -2.17544,1.33203 0.28114,0.73262 0.51116,3.19578 0.51116,5.47369 0,3.53827 0.23812,4.14165 1.6345,4.14165 2.58054,0 2.89636,1.6041 0.49554,2.51689 -2.04058,0.77583 -2.172,1.15733 -2.02988,5.89316 0.1492,4.970228 0.1962,5.063634 2.5522,5.063634 2.98666,0 3.12348,1.450932 0.24018,2.547158 -2.58368,0.982318 -4.34762,1.051546 -4.83316,0.18968 z m 8.67746,-13.169866 c 0,-12.193 0.1822,-14.02653 1.56396,-15.73285 l 1.56396,-1.9314 1.31632,2.04863 c 1.35836,2.11404 4.81892,20.64387 4.81892,25.803306 0,1.953048 -0.34666,2.797868 -1.05264,2.565414 -0.62798,-0.206768 -1.34794,-2.952902 -1.78464,-6.80702 -0.62352,-5.50301 -0.9667,-6.46042 -2.31578,-6.46042 -1.3977,0 -1.58378,0.68453 -1.58378,5.82586 0,3.20422 -0.23002,6.425276 -0.51116,7.157894 -1.42266,3.707396 -2.01516,0.0411 -2.01516,-12.469414 z m 4.53852,-6.19856 c -1.28804,-6.88924 -1.86542,-7.51585 -1.93984,-2.10526 -0.058,4.21678 0.1864,5.26316 1.22894,5.26316 1.04732,0 1.18608,-0.61641 0.7109,-3.1579 z m 32.5454,17.97705 c -0.48038,-1.263468 -0.87346,-3.12517 -0.87354,-4.13713 -8e-5,-1.01195 -0.53962,-4.68202 -1.19898,-8.1557 -2.07634,-10.93893 -1.87598,-18.71639 0.3899,-15.13351 0.43088,0.68132 0.78924,2.60693 0.79632,4.27913 0.0222,5.24793 1.05198,11.05612 1.75768,9.91428 0.3613,-0.5846 0.91924,-4.21223 1.23986,-8.0614 0.54358,-6.52559 1.4893,-8.64431 2.5845,-5.79023 0.63206,1.64709 -2.17762,27.651894 -3.09148,28.613064 -0.42758,0.449724 -1.09328,-0.18454 -1.60426,-1.528504 z m 8.6483,0.917906 c -0.33166,-0.536626 -0.55022,-3.735266 -0.4857,-7.108076 0.0884,-4.61588 0.65152,-7.29926 2.2775,-10.85087 2.19266,-4.78942 2.85092,-9.56758 1.31808,-9.56758 -0.46316,0 -0.8421,0.37894 -0.8421,0.8421 0,0.46316 -0.59478,0.84211 -1.32174,0.84211 -2.28372,0 -1.11452,-3.74276 1.27456,-4.07998 4.44394,-0.62727 5.44244,4.53172 2.277,11.76467 -2.0278,4.63343 -3.37312,12.44532 -2.52424,14.65747 0.26104,0.680234 1.16096,1.236784 1.99984,1.236784 2.28686,0 4.18932,0.901354 4.1893,1.984834 -4e-5,1.289946 -7.38174,1.541844 -8.1625,0.278538 z m -153.03136,-0.46706 c -0.29802,-0.482214 -0.35086,-1.746812 -0.1174,-2.810216 0.23344,-1.06341 0.62568,-7.04925 0.87164,-13.30189 0.36948,-9.39264 0.69674,-11.55333 1.88304,-12.4324 0.78972,-0.58519 1.83012,-0.93421 2.31202,-0.7756 1.28778,0.42385 2.95408,4.05036 2.97336,6.47116 0.01,1.1579 0.93774,6.44414 2.06338,11.74721 1.12564,5.30307 1.84684,9.965184 1.60268,10.360246 -0.54584,0.883184 -2.37586,0.356436 -2.44564,-0.703944 -0.028,-0.424562 -0.3477,-2.761402 -0.7106,-5.192982 -0.6145,-4.11751 -0.82088,-4.42105 -3.00588,-4.42105 -2.26608,0 -2.35858,0.17276 -2.71248,5.06516 -0.363,5.018672 -1.6121,7.77739 -2.71412,5.994306 z m 5.7632,-19.524826 c -1.21066,-7.12738 -1.99742,-8.30707 -2.17014,-3.25394 -0.32864,9.61514 -0.39496,9.19247 1.4425,9.19273 1.68508,2.4e-4 1.7066,-0.17544 0.72764,-5.93879 z m 30.4382,18.931522 c -1.5467,-1.546682 -1.67676,-2.569382 -0.42518,-3.342902 0.49398,-0.30529 1.41428,0.14602 2.04512,1.00294 1.09312,1.484838 1.17436,1.48737 1.72994,0.0539 1.09924,-2.83615 -0.0744,-10.36819 -1.9962,-12.81142 -2.2406,-2.84848 -2.49882,-9.20398 -0.49042,-12.07137 1.72138,-2.4576 4.8634,-2.16254 5.24042,0.49212 0.28394,1.99926 -1.09118,2.63586 -1.81902,0.84211 -0.76562,-1.88687 -2.2128,1.22489 -2.22666,4.78783 -0.008,2.23573 0.57082,3.93547 1.78092,5.22358 2.16448,2.30398 3.24422,12.34259 1.64828,15.324614 -1.14578,2.140906 -3.62006,2.365716 -5.4872,0.498562 z m 22.43172,0.564546 c -0.9565,-0.622612 -1.93778,-27.226998 -1.05682,-28.652418 0.74662,-1.20807 6.35442,-0.89166 6.35442,0.35855 0,0.46316 -1.09134,0.96676 -2.42522,1.11912 -2.40268,0.27445 -2.42036,0.31748 -1.90206,4.63158 0.28774,2.39501 0.52646,5.04326 0.53048,5.88499 0.006,1.14613 0.43024,1.39621 1.69154,0.99589 1.1559,-0.36687 1.6842,-0.15132 1.6842,0.68714 0,0.67193 -0.7579,1.41988 -1.6842,1.66212 -1.45614,0.38079 -1.68422,1.14864 -1.68422,5.67012 0,4.81509 0.1336,5.194764 1.68422,4.78925 1.22092,-0.31928 1.6842,-0.0258 1.6842,1.066772 0,1.535788 -3.36694,2.769522 -4.87654,1.786886 z m 60.43316,0.61841 c -0.012,-0.15438 -0.20732,-6.827298 -0.43342,-14.828698 -0.44618,-15.78908 -0.3453,-16.15308 4.16296,-15.02158 5.2618,1.32062 5.3163,17.35905 0.059,17.35905 -0.86198,0 -1.23064,1.57472 -1.41352,6.0379 -0.1596,3.895026 -0.62102,6.161434 -1.30006,6.385968 -0.57894,0.19144 -1.06268,0.221748 -1.07496,0.06736 z m 5.07496,-20.125538 c 0,-4.33386 -1.08362,-7.52358 -2.55594,-7.52358 -0.44686,0 -0.81248,2.65263 -0.81248,5.89473 0,5.33334 0.1604,5.89474 1.6842,5.89474 1.46256,0 1.68422,-0.5614 1.68422,-4.26589 z m -133.36642,17.529048 c -1.53564,-2.435398 -2.34994,-15.662538 -1.3067,-21.225088 0.87506,-4.66576 2.7054,-6.65214 5.36578,-5.82326 3.50834,1.09307 3.5971,3.72311 0.1032,3.05519 -1.71418,-0.32769 -2.18836,0.007 -2.65708,1.87437 -1.03022,4.10471 -0.65668,18.88389 0.5218,20.6451 0.7314,1.093068 1.01358,1.042466 2.09552,-0.37579 1.72318,-2.25881 3.5134,-0.6069 2.1345,1.969596 -1.27568,2.383632 -4.71988,2.31751 -6.25692,-0.12012 z m 36.91694,1.006638 c -0.33462,-0.541428 -0.1372,-1.275592 0.43858,-1.631476 1.26462,-0.78158 0.4846,-23.26341 -0.8635,-24.88776 -0.56486,-0.68061 -0.4322,-1.33141 0.41466,-2.03423 2.6576,-2.20562 3.09038,-0.5521 3.49182,13.34084 0.21864,7.56686 0.4785,14.181324 0.57746,14.698808 0.24636,1.28816 -3.30278,1.737434 -4.05902,0.513818 z m 21.4042,-1.006638 c -0.24006,-4.645488 -0.3925,-9.197678 -0.56202,-16.783538 -0.171,-7.65626 -0.29338,-8.16832 -2.01094,-8.42105 -1.00584,-0.148 -1.99146,-0.76283 -2.1903,-1.36629 -0.27518,-0.83516 0.79932,-1.03627 4.49908,-0.84211 2.94464,0.15454 4.99748,0.67002 5.20784,1.30772 0.20762,0.62939 -0.4013,1.05264 -1.51442,1.05264 h -1.86166 l 0.52034,13.47368 c 0.44836,11.609866 0.34672,13.473684 -0.73484,13.473684 -0.71124,0 -1.2976,-0.821078 -1.35308,-1.894736 z m 49.92994,91.57665 c 8.15558,-0.395654 12.98918,-1.83034 15.06728,-4.472226 1.45088,-1.844498 1.627,-3.49835 1.627,-15.278502 0,-22.66779 -0.99548,-23.836346 -20.1476,-23.650284 -6.28722,0.06106 -31.1366,0.18866 -55.22082,0.283496 l -43.78946,0.17244 -3.64264,1.944346 c -5.38658,2.875208 -5.95718,4.938222 -6.08144,21.986956 -0.0782,10.726636 0.176,14.797112 0.98526,15.772102 1.61902,1.950812 4.78242,2.955116 10.29428,3.268192 2.70814,0.15382 5.1713,0.531234 5.47368,0.838696 0.52302,0.531772 81.83336,-0.205398 95.43446,-0.865222 z m -81.34864,-8.154854 c -0.1908,-0.608304 -0.58312,-5.569626 -0.87194,-11.025154 -0.28884,-5.455538 -0.73906,-10.47659 -1.0005,-11.157896 -0.32568,-0.848716 0.0832,-1.238744 1.29896,-1.238744 1.00284,0 1.7743,0.54037 1.7743,1.242804 0,0.683544 0.75648,2.483544 1.68106,4 1.56152,2.561102 1.6813,2.614542 1.68422,0.751326 0.004,-2.673852 3.34446,-8.042282 4.36744,-7.019302 0.4303,0.430282 0.90276,2.447496 1.04996,4.482696 0.1472,2.035208 0.56214,7.395108 0.9221,11.910896 0.58468,7.334552 0.50618,8.210528 -0.73566,8.210528 -1.12374,0 -1.40214,-0.92801 -1.45258,-4.842106 -0.0344,-2.663158 -0.35006,-6.547368 -0.70158,-8.63158 l -0.63918,-3.789472 -1.08258,4 c -1.1859,4.381658 -2.21124,5.019788 -3.38274,2.105262 -0.55704,-1.38586 -0.77592,-0.15528 -0.81496,4.581878 -0.048,5.81616 -1.18936,9.311166 -2.09632,6.418864 z m 14.39382,0.437852 c -0.30878,-0.308766 -0.58908,-4.003502 -0.62288,-8.210526 -0.0338,-4.207016 -0.34716,-9.656776 -0.69632,-12.110578 -0.34918,-2.453802 -0.31226,-4.660824 0.082,-4.904504 1.09692,-0.67793 5.7284,0.544302 5.7284,1.511704 0,0.469726 -0.80178,1.063706 -1.78172,1.319966 -1.59226,0.416388 -1.726,0.878114 -1.2578,4.342216 0.28816,2.131958 1.08994,4.29701 1.78172,4.811226 1.60748,1.194862 1.6053,2.012428 -0.006,2.012428 -0.96704,0 -1.26316,1.067268 -1.26316,4.552742 0,4.138148 0.1534,4.512632 1.68422,4.112312 1.13494,-0.2968 1.6842,-0.02586 1.6842,0.830846 0,1.83322 -3.94954,3.115958 -5.33332,1.732168 z m 26.50144,-0.912278 c -0.43224,-0.810526 -0.82932,-5.452632 -0.88242,-10.31579 -0.0532,-4.863158 -0.3269,-10.09237 -0.60842,-11.620472 -0.49876,-2.707166 -0.44994,-2.76352 1.90542,-2.199292 5.52904,1.32448 6.20678,3.11696 6.20678,16.415866 0,5.836236 -0.20942,6.71824 -1.8716,7.882468 -2.4318,1.7033 -3.77926,1.65712 -4.74976,-0.16278 z m 4.08576,-8.421052 c -0.01,-7.683242 -0.7446,-12.842106 -1.82642,-12.842106 -0.77356,0 -0.83784,16.319848 -0.0722,18.31579 1.07642,2.805886 1.90694,0.411486 1.89856,-5.473684 z m 4.85634,9.33653 c -0.51668,-0.920606 0.74728,-21.589794 1.45704,-23.825996 0.77488,-2.441474 2.8325,-2.131638 3.94964,0.594728 1.44844,3.534914 3.88326,22.116372 2.97182,22.679664 -1.06696,0.65942 -2.24716,-1.38437 -2.2768,-3.942822 -0.0816,-7.042972 -2.9824,-8.051536 -3.5478,-1.233524 -0.36316,4.379168 -1.66816,7.30608 -2.5539,5.72795 z m 4.55074,-16.385356 c -0.2262,-2.372068 -0.5622,-3.104742 -1.06198,-2.31579 -1.12334,1.773314 -0.9028,5.785668 0.31802,5.785668 0.7514,0 0.9753,-1.044236 0.74396,-3.469878 z m 8.0057,16.382156 c -0.30876,-0.308766 -0.5614,-3.095284 -0.5614,-6.19226 0,-3.09697 -0.24142,-7.940574 -0.53646,-10.763572 -0.45746,-4.376556 -0.79862,-5.17013 -2.3158,-5.386686 -2.65786,-0.379368 -1.81626,-1.874308 1.34544,-2.389878 3.4833,-0.568016 5.89202,-0.0405 5.436,1.190492 -0.1926,0.519984 -0.76936,0.853078 -1.28162,0.74022 -0.6656,-0.14664 -0.7784,3.157482 -0.39532,11.578948 0.50208,11.037322 0.1906,13.104252 -1.69084,11.222736 z m -37.74228,-3.36842 c -0.0706,-1.775436 -0.21632,-3.607016 -0.32392,-4.070174 -0.1076,-0.463158 -0.23938,-3.924228 -0.2928,-7.691258 -0.0898,-6.339572 -0.23702,-6.885736 -1.97734,-7.340844 -2.4414,-0.638432 -1.12562,-1.954508 2.50786,-2.508394 3.05738,-0.466064 4.23978,0.576404 2.72458,2.402112 -0.69424,0.836498 -0.91112,4.368296 -0.70408,11.46502 0.22382,7.671798 0.034,10.346266 -0.75342,10.613862 -0.70834,0.24074 -1.09458,-0.698088 -1.18088,-2.870324 z m 5.18188,-3.043968 c 8.4e-4,-5.86933 1.68912,-17.097196 2.85406,-18.982096 1.43626,-2.323908 2.9056,0.227654 3.46408,6.015486 0.32086,3.32512 1.04292,8.534114 1.60462,11.575546 0.56168,3.041432 0.8665,5.994088 0.67738,6.561464 -0.53606,1.608194 -2.70404,-0.56207 -2.7179,-2.720766 -0.02,-3.119916 -0.98666,-5.581102 -2.19198,-5.581102 -0.83312,0 -1.16494,1.173624 -1.16494,4.120428 0,2.88577 -0.3785,4.265676 -1.26316,4.605154 -1.05096,0.403294 -1.26298,-0.536428 -1.26216,-5.594114 z m 4.20952,-9.16656 c 0,-4.136976 -0.39952,-4.019132 -1.1896,0.35088 -0.36144,1.999234 -0.24794,3.157896 0.30934,3.157896 0.48416,0 0.88026,-1.578948 0.88026,-3.508776 z m 34.06428,3.837828 c 0.63132,-11.913036 1.26922,-14.644842 3.41962,-14.644842 2.27996,0 3.5899,3.765954 4.24724,12.210526 0.92742,11.914206 0.913,13.27286 -0.1446,13.636632 -0.57036,0.19618 -1.17124,-1.421288 -1.52852,-4.114568 -0.53,-3.995378 -1.4661,-5.682342 -3.17384,-5.719698 -0.32426,-0.0068 -0.7032,2.136118 -0.84212,4.762688 -0.167,3.156218 -0.64998,4.90682 -1.42464,5.162626 -0.98326,0.3247 -1.07236,-1.494678 -0.5531,-11.293364 z m 4.67258,-5.802736 c 0,-2.4927 -0.37896,-4.766384 -0.84212,-5.052632 -0.529,-0.32694 -0.8421,1.55168 -0.8421,5.052632 0,3.50095 0.3131,5.37957 0.8421,5.05263 0.46316,-0.286248 0.84212,-2.559932 0.84212,-5.05263 z m -172.7206,200.3138 c -0.80348,-0.96814 -1.20374,-4.71928 -1.36352,-12.77882 -0.1912,-9.63824 -0.01,-11.6469 1.16474,-12.94538 1.88808,-2.0863 4.22262,-1.93368 5.4728,0.35776 1.26744,2.32312 1.7139,18.38278 0.62966,22.65026 -1.02562,4.03684 -3.76258,5.29604 -5.90368,2.71618 z m 3.84376,-13.61958 c -0.0286,-8.79432 -0.25296,-10.69422 -1.26316,-10.69422 -1.01236,0 -1.23234,1.9255 -1.25068,10.94738 -0.024,11.79388 0.1256,12.86538 1.59098,11.39918 0.61878,-0.61912 0.9453,-4.74194 0.92286,-11.65234 z m 5.04438,12.06968 c -1.51382,-3.62312 -1.51246,-3.81652 0.027,-3.81652 0.68592,0 1.48744,0.95754 1.78118,2.12788 0.84348,3.3607 2.86644,0.94032 2.86644,-3.42954 0,-2.59772 -0.57336,-4.30314 -2.0278,-6.03166 -1.8895,-2.24554 -2.51584,-5.26684 -2.26432,-10.92232 0.1796,-4.03802 5.27738,-5.79468 5.83468,-2.0106 0.23328,1.58402 -0.01,1.8053 -1.4737,1.34072 -1.63144,-0.5178 -1.75306,-0.23402 -1.75306,4.09008 0,3.01458 0.40046,4.883 1.14022,5.3199 3.42996,2.02576 4.29632,11.2504 1.35328,14.40938 -2.43458,2.61322 -4.07662,2.29064 -5.48386,-1.07732 z m 44.126,2.05722 c -1.19398,-0.69706 -1.39766,-2.64808 -1.44006,-13.79394 -0.054,-14.20178 0.35832,-15.57052 4.12678,-13.69864 2.4085,1.19638 3.1965,4.32674 1.27478,5.06416 -0.90926,0.34892 -1.30768,-0.004 -1.30768,-1.15596 0,-0.91178 -0.34966,-1.6578 -0.77704,-1.6578 -0.4376,0 -0.76512,4.96586 -0.74978,11.36844 0.0208,8.7248 0.28062,11.36842 1.11682,11.36842 0.70718,0 1.19196,-1.47786 1.38136,-4.21106 0.20534,-2.96324 -0.0202,-4.2109 -0.76084,-4.21052 -1.50408,7.4e-4 -1.30254,-1.64066 0.27584,-2.24632 0.73064,-0.28038 1.82022,0.016 2.42126,0.658 1.62866,1.74036 0.41674,10.7121 -1.65128,12.22426 -1.84478,1.34894 -2.06932,1.36566 -3.91016,0.29096 z m -63.4809,-1.01526 c -0.24122,-0.62866 -0.3333,-6.81058 -0.20456,-13.73758 l 0.23402,-12.5946 2.10526,0.2612 c 3.46254,0.4296 5.05264,3.10644 5.05264,8.50578 0,4.97622 -0.95314,6.81198 -3.53684,6.81198 -1.30276,0 -1.5158,0.76228 -1.5158,5.42398 0,5.07146 -1.14078,7.91938 -2.13472,5.32924 z m 4.66104,-17.00014 c 0,-4.11806 -0.6299,-6.38466 -1.7743,-6.38466 -0.4136,0 -0.75202,2.27368 -0.75202,5.05262 0,3.92984 0.2807,5.05264 1.26316,5.05264 0.93222,0 1.26316,-0.9748 1.26316,-3.7206 z m 26.82586,13.6855 c -0.0668,-2.47016 -0.0252,-8.18596 0.0928,-12.70174 l 0.21428,-8.21054 h -2.19804 c -2.57596,0 -2.92812,-1.33898 -0.55062,-2.09358 2.46526,-0.78244 7.61576,0.41208 7.61576,1.76626 0,0.64318 -0.56842,1.16944 -1.26316,1.16944 -1.28922,0 -1.35358,0.73878 -1.60702,18.44536 -0.05,3.50056 -0.44652,5.5196 -1.12982,5.75438 -0.74666,0.25654 -1.08796,-0.94386 -1.17414,-4.12958 z m 14.4373,3.52664 c -1.02668,-0.64898 -1.27538,-3.17662 -1.32844,-13.50086 -0.059,-11.4835 0.41764,-14.65586 1.96898,-13.10452 0.29068,0.29066 0.55794,5.80006 0.59394,12.24306 0.036,6.44304 0.362,12.01112 0.72444,12.37356 1.50102,1.50102 2.14372,-2.367 2.16824,-13.04936 0.014,-6.21956 0.20312,-11.48546 0.41968,-11.70202 1.55228,-1.55228 2.15468,1.86796 2.13382,12.1152 -0.018,8.92228 -0.31194,11.85974 -1.34354,13.43416 -1.38736,2.11736 -3.22326,2.52698 -5.33712,1.19078 z m 31.04392,-1.49154 c -2.684,-6.75624 -2.79384,-6.84632 -3.08092,-2.52632 -0.1906,2.86842 -0.62172,4 -1.52392,4 -1.0478,0 -1.19766,-1.23184 -0.89646,-7.36842 0.199,-4.05264 0.1076,-9.74862 -0.20294,-12.65776 -0.31054,-2.90914 -0.306,-5.7078 0.01,-6.21924 0.84858,-1.37304 4.76556,-0.1236 5.82634,1.85842 1.7438,3.25832 2.01254,9.83794 0.49634,12.15194 -1.23952,1.89174 -1.26064,2.39914 -0.1864,4.47658 1.74624,3.37686 2.6158,8.60058 1.43166,8.60058 -0.52462,0 -1.36786,-1.0421 -1.87384,-2.31578 z m -1.20106,-16.08594 c -0.0286,-2.39506 -0.5144,-4.81718 -1.0797,-5.38248 -0.80902,-0.80902 -0.97724,0.179 -0.79022,4.6411 0.27824,6.63926 1.94806,7.30128 1.86992,0.74138 z m 17.60096,17.74784 c -0.63448,-0.39962 -1.14982,-5.12816 -1.46936,-13.48256 -0.42788,-11.1864 -0.3203,-12.93304 0.8235,-13.37194 1.82638,-0.70086 5.15966,1.24842 5.81782,3.4022 0.30092,0.98472 0.76024,6.15642 1.0207,11.49266 0.37418,7.66556 0.23002,9.89782 -0.6867,10.63378 -1.72066,1.38138 -4.3952,2.0254 -5.50596,1.32586 z m 3.6855,-12.65126 c -0.3579,-7.26696 -0.81078,-10.00036 -1.82492,-11.01452 -1.23712,-1.2371 -1.31832,-0.93086 -0.97986,3.69592 0.20296,2.77464 0.40244,7.96976 0.4433,11.5447 0.0646,5.66238 0.25228,6.43156 1.45588,5.9697 1.20932,-0.46406 1.32226,-1.73554 0.9056,-10.1958 z m 5.8343,11.45556 c -0.28576,-1.06694 -0.52476,-7.3471 -0.53108,-13.95592 l -0.012,-12.01606 2.3158,0.55354 c 2.9373,0.70208 3.57894,1.07042 3.57894,2.05456 0,0.43584 -0.7579,0.79242 -1.6842,0.79242 -1.49708,0 -1.68422,0.5614 -1.68422,5.05262 0,4.49124 0.1872,5.05264 1.68422,5.05264 0.93566,0 1.6842,0.5614 1.6842,1.26316 0,0.70174 -0.74854,1.26316 -1.6842,1.26316 -1.48008,0 -1.68422,0.5614 -1.68422,4.63158 0,4.41878 0.1,4.63158 2.17544,4.63158 3.06608,0 2.13476,2.04034 -1.07764,2.36092 -2.07264,0.20686 -2.6612,-0.1148 -3.08154,-1.6842 z m -48.65466,-9.72936 c -0.0616,-5.90526 -0.1304,-11.87368 -0.1528,-13.26316 -0.0336,-2.08408 0.33038,-2.57062 2.0789,-2.77942 2.96398,-0.35394 4.2085,1.56274 4.66966,7.19164 0.44142,5.38826 -0.71288,9.48252 -2.67342,9.48252 -1.00792,0 -1.284,1.08636 -1.284,5.05264 0,3.92982 -0.2807,5.05262 -1.26316,5.05262 -1.05088,0 -1.28198,-1.8042 -1.37524,-10.73684 z m 4.25054,-6.94736 c -0.0958,-6.0946 -1.4925,-6.47648 -1.54006,-0.42106 -0.0322,4.09912 0.20238,5.50996 0.77004,4.63158 0.44896,-0.69474 0.79548,-2.58948 0.77002,-4.21052 z m 22.67318,12.82352 c -0.157,-2.67338 0.0946,-8.64182 0.55876,-13.26316 0.677,-6.73916 1.09376,-8.34974 2.10528,-8.1361 2.54004,0.5365 3.3771,2.47706 4.61698,10.70342 1.66446,11.0434 1.66812,15.55652 0.012,15.55652 -0.9544,0 -1.26316,-1.02924 -1.26316,-4.21052 0,-3.98486 -0.1186,-4.21054 -2.21376,-4.21054 -2.16958,0 -2.2026,0.084 -1.6552,4.21054 0.44684,3.36846 0.31508,4.21052 -0.65882,4.21052 -0.8882,0 -1.29452,-1.31432 -1.5027,-4.86068 z m 4.71346,-6.84164 c 0.25662,-0.41522 0.21672,-2.57788 -0.0886,-4.8059 -0.42184,-3.07764 -0.71012,-3.655 -1.1998,-2.40294 -1.5407,3.93918 -0.45274,10.02616 1.28846,7.20884 z m -446.72722,-28.76298 c -0.99804,-0.99804 -2.43848,-1.90844 -3.20098,-2.0231 -1.24862,-0.1878 -1.36534,-2.16604 -1.17484,-19.91268 0.1164,-10.8373 0.3514,-69.34628 0.52238,-130.019974 0.171,-60.673686 0.36002,-110.934126 0.42008,-111.689876 0.0968,-1.21906 2.65042,-1.43518 22.6355,-1.91568 12.38948,-0.29789 81.411105,-0.73217 153.381377,-0.96508 71.97028,-0.23291 131.180803,-0.62479 131.578943,-0.87085 0.39814,-0.24606 0.74314,-0.33029 0.76668,-0.18716 0.0236,0.14312 0.25706,1.96549 0.51898,4.0497 0.2619,2.08421 0.86682,4.03577 1.34426,4.33679 0.55796,0.3518 0.93596,9.67787 1.0581,26.10527 0.1046,14.056864 0.26138,31.81057 0.34854,39.452674 0.35742,31.332128 -0.0404,168.074466 -0.52334,179.923466 -0.48554,11.9108 -0.63864,12.81552 -2.28644,13.51158 -1.47336,0.62238 -107.345783,0.73916 -166.818675,0.184 -27.28796,-0.2547 -133.449385,0.78604 -135.147245,1.32492 -1.03476,0.32844 -2.25612,-0.1368 -3.42332,-1.30402 z m 213.096877,-3.41026 c 0,-0.69488 4.04632,-0.79682 14.94736,-0.37654 8.22106,0.31696 28.494743,0.65724 45.052643,0.75616 l 30.10526,0.1798 0.1596,-74.5525 c 0.20844,-97.355504 -0.0504,-186.30294 -0.5436,-186.79615 -0.21556,-0.21554 -2.9647,-0.3409 -6.10924,-0.27857 -8.33896,0.16528 -278.63256,1.05125 -283.61204,0.92962 -2.3158,-0.0566 -6.56608,0.14162 -9.4451,0.44041 l -5.23456,0.54326 -0.002,109.620252 c -10e-4,60.291138 -0.22264,117.882498 -0.49218,127.980798 -0.26954,10.0983 -0.23962,19.14968 0.0666,20.11414 l 0.55656,1.75358 73.380725,-0.54082 c 40.35938,-0.29744 73.7596598,-0.57682 74.2228198,-0.62082 1.08014,-0.1026 54.6890722,1.12382 54.8806322,1.25554 0.079,0.0544 2.82646,0.1992 6.10526,0.32172 4.00606,0.1498 5.96146,-0.0896 5.96146,-0.72998 z M -88.529265,-3.553844 c -0.21224,-0.212244 -2.79774,-0.505432 -5.74554,-0.65152 -3.16134,-0.15668 -5.51834,-0.679158 -5.746545,-1.273862 -0.2128,-0.554526 -1.48184,-1.248724 -2.8201,-1.542652 -1.33826,-0.293928 -3.41166,-1.697238 -4.60754,-3.118458 l -2.17432,-2.584042 0.39062,-15.997804 c 0.44254,-18.125364 0.63322,-18.708058 7.35552,-22.477676 l 3.714885,-2.083166 49.6842,-0.18516 c 27.32632,-0.10184 52.9709718,-0.231278 56.9881118,-0.287624 7.2422402,-0.10158 12.4855802,1.337154 12.4855802,3.425962 0,0.46688 1.07818,1.90283 2.39598,3.191016 2.3125,2.26053 2.40316,2.662998 2.60214,11.55056 0.1134,5.064632 0.26396,9.966316 0.33458,10.892632 0.0706,0.926316 -0.1906,4.423966 -0.58066,7.772564 -0.65154,5.594476 -0.92426,6.220094 -3.36212,7.712438 -4.7871,2.930426 -9.78072,3.587318 -33.731132,4.437214 -28.1559,0.999124 -76.63804,1.765194 -77.18366,1.219578 z M 8.7850668,-8.77818 c 6.2480002,-0.675252 9.4591002,-1.891934 11.3552602,-4.30251 1.5367,-1.9536 1.69778,-3.40262 1.70154,-15.307462 0.006,-15.630804 -1.23622,-20.713896 -5.47784,-22.43408 -1.90484,-0.772498 -16.19916018,-0.999478 -58.105252,-0.922662 l -55.57896,0.10188 -3.912025,2.299732 c -2.55488,1.50191 -4.22242,3.190146 -4.80676,4.866382 -0.69564,1.995546 -1.27726,20.212674 -1.00272,31.407556 0.0528,2.148352 6.19578,4.604438 11.744325,4.695528 2.50202,0.0411 4.77572,0.310038 5.05262,0.5977 0.58536,0.608052 92.7620118,-0.324682 99.0298118,-1.00207 z m -84.9949318,-8.074612 c -0.1934,-0.608302 -0.59994,-5.606694 -0.90358,-11.107536 -0.30364,-5.500842 -0.75176,-10.521896 -0.99582,-11.157896 -0.2897,-0.75493 0.1722,-1.156362 1.33056,-1.156362 1.00286,0 1.77432,0.54037 1.77432,1.242804 0,0.683546 0.75648,2.483546 1.68106,4 1.47466,2.418678 1.68144,2.527066 1.6842,0.882814 0.004,-2.083664 2.99888,-7.49382 3.9882,-7.203344 0.77566,0.22773 2.64118,14.182922 2.70512,20.235622 0.0358,3.38917 -0.24814,4.421052 -1.21648,4.421052 -0.95304,0 -1.28128,-1.085424 -1.33694,-4.421052 -0.0406,-2.43158 -0.35302,-6.31579 -0.69434,-8.63158 l -0.62056,-4.210526 -1.08984,4 c -1.14782,4.212816 -3.04782,5.304506 -3.66402,2.105264 -0.20072,-1.042106 -0.41654,1.019738 -0.47962,4.581878 -0.1034,5.843114 -1.257,9.267478 -2.16226,6.418862 z m 14.29866,-0.05338 c -0.1802,-0.578946 -0.51448,-5.6 -0.7428,-11.157894 -0.22832,-5.557894 -0.65918,-10.71952 -0.95746,-11.470282 -0.6647,-1.67296 0.95822,-2.405492 4.02886,-1.818502 2.66046,0.508582 2.97784,1.890956 0.57822,2.518468 -1.79996,0.470694 -1.96444,1.383866 -1.14372,6.349264 0.324,1.960134 0.9859,3.157894 1.74512,3.157894 0.67274,0 1.04948,0.473684 0.83718,1.052632 -0.21228,0.578946 -0.81228,0.957894 -1.33332,0.842104 -0.6109,-0.13576 -0.94738,1.40646 -0.94738,4.342216 0,4.138148 0.1534,4.512632 1.68422,4.112312 1.13494,-0.2968 1.6842,-0.02586 1.6842,0.830846 0,2.141188 -4.81088,3.240008 -5.43312,1.240942 z m 26.66442,0 c -0.47832,-0.578946 -0.90958,-5.368092 -0.95834,-10.64255 -0.0488,-5.27446 -0.30296,-10.44364 -0.56484,-11.487074 -0.62976,-2.509188 0.3092,-2.940742 3.87084,-1.779066 2.64194,0.8617 3.00634,1.354012 3.51652,4.750796 0.31304,2.08421 0.59726,6.894298 0.63158,10.689094 0.0562,6.212894 -0.1238,7.03009 -1.80916,8.210528 -2.26382,1.585632 -3.5322,1.655528 -4.6866,0.258272 z m 4.03186,-8.092976 c 0,-7.335832 -0.84684,-13.591218 -1.83996,-13.591218 -0.76946,0 -0.82998,16.329238 -0.0678,18.31579 1.03284,2.692312 1.90784,0.5255 1.90784,-4.724572 z m 4.84708,8.58742 c -0.5167,-0.920608 0.74728,-21.589796 1.45702,-23.825998 0.81596,-2.57088 2.92666,-1.947848 4.15442,1.226308 1.2936,3.344346 3.5927,21.537802 2.78482,22.037104 -1.08258,0.66907 -2.26474,-1.35659 -2.29456,-3.93184 -0.0388,-3.34699 -0.97624,-5.990738 -2.00336,-5.649744 -0.51998,0.17262 -1.193,2.311504 -1.49562,4.753054 -0.52968,4.273742 -1.7783,6.860024 -2.60272,5.391116 z m 4.55074,-16.385358 c -0.22622,-2.372066 -0.5622,-3.10474 -1.062,-2.315788 -1.12334,1.773314 -0.9028,5.785666 0.31802,5.785666 0.7514,0 0.9753,-1.044236 0.74398,-3.469878 z m 8.0057,16.382158 c -0.30878,-0.308768 -0.5641,-2.866662 -0.5674,-5.684212 -0.004,-2.81754 -0.24756,-7.680698 -0.54282,-10.807014 -0.45166,-4.78224 -0.78476,-5.684212 -2.09928,-5.684212 -0.85934,0 -1.56244,-0.589186 -1.56244,-1.309296 0,-1.034122 0.82686,-1.255352 3.93418,-1.052632 2.1988,0.14346 4.08702,0.720986 4.2807,1.309298 0.1906,0.578946 -0.2506,1.05263 -0.98042,1.05263 -1.16926,0 -1.26216,1.350998 -0.78174,11.368422 0.51046,10.643402 0.1936,12.681314 -1.68078,10.807016 z m -37.75808,-2.94738 c -0.0792,-1.543856 -0.22842,-3.375436 -0.33154,-4.070172 -0.1032,-0.694738 -0.22778,-4.34528 -0.277,-8.112312 -0.0828,-6.34267 -0.22856,-6.885508 -1.96974,-7.340842 -3.37592,-0.882822 0.0822,-2.626442 4.61706,-2.328026 1.58606,0.10436 2.09782,2.623284 0.53296,2.623284 -0.65964,0 -0.84834,3.185652 -0.63158,10.661542 0.23208,8.003756 0.0468,10.75029 -0.74348,11.017542 -0.68642,0.23215 -1.10276,-0.620574 -1.19668,-2.451016 z m 5.19766,-3.36842 c 8.4e-4,-5.84502 1.80136,-17.942704 2.82224,-18.96358 0.2599,-0.259898 1.00996,-0.266332 1.66678,-0.0144 0.77834,0.298678 1.40334,2.46102 1.79472,6.209298 0.33028,3.163064 1.06394,8.239478 1.63038,11.280908 0.56644,3.041432 0.87514,5.99409 0.68602,6.561466 -0.53606,1.608194 -2.70404,-0.562072 -2.71788,-2.720766 -0.0424,-6.608834 -3.14572,-7.68886 -3.52346,-1.22624 -0.1484,2.538778 -0.6935,4.49952 -1.30716,4.701752 -0.778,0.256388 -1.05236,-1.264254 -1.05164,-5.828548 z m 4.20954,-9.263158 c 0,-4.136978 -0.39954,-4.019134 -1.1896,0.35088 -0.36146,1.999232 -0.24796,3.157894 0.30934,3.157894 0.48414,0 0.88026,-1.578948 0.88026,-3.508774 z m 34.0642598,3.837826 c 0.76512,-14.437448 1.71908,-16.756228 5.3854,-13.08992 1.43982,1.439824 2.64199202,10.064026 3.00019202,21.522822 0.1442,4.614812 -1.86693202,3.353028 -2.48029202,-1.556076 -0.32158,-2.57376 -0.91996,-4.679562 -1.32974,-4.679562 -0.4098,0 -1.0293,-0.09474 -1.37666,-0.210526 -0.34738,-0.1158 -0.82106,1.84426 -1.05264,4.355672 -0.26326,2.85509 -0.86028,4.710804 -1.59314,4.9521 -0.98326,0.323732 -1.07238,-1.496076 -0.55312,-11.29451 z m 4.51024,-5.35759 c 0.1422,-2.461306 -0.1078,-4.84156 -0.55564,-5.289442 -0.52438,-0.524378 -0.91634,1.168296 -1.1008,4.753786 -0.178,3.45995 0.0324,5.462602 0.55562,5.28944 0.46316,-0.15328 0.95852,-2.29248 1.10082,-4.753784 z M -79.446565,-95.553102 c -0.62234,-1.015486 -1.3218,-8.323098 -1.90282,-19.879378 -0.4258,-8.46904 -0.31486,-9.89474 0.76992,-9.89474 0.84296,0 1.88288,2.04469 3.10516,6.10526 2.9944,9.94788 3.19376,10.05408 3.25502,1.73391 0.0502,-6.82057 0.8492,-10.04081 2.0006,-8.06343 0.73742,1.26643 0.98966,29.284958 0.26736,29.697946 -0.40504,0.231578 -2.00392,-3.368422 -3.5531,-7.999996 l -2.8167,-8.42106 0.25752,7.75203 c 0.23806,7.166318 -0.3099,10.720354 -1.38296,8.969458 z m 59.68226,-0.457584 c -0.1798,-0.608304 -0.94422,-3.190218 -1.69864,-5.737584 -2.18068,-7.36323 -2.86154,-7.66575 -2.91044,-1.29318 -0.0242,3.148008 -0.22188,5.901582 -0.43934,6.119054 -1.26548,1.265476 -2.10886,-1.416106 -2.0923,-6.652634 0.01,-3.29319 -0.24896,-9.76609 -0.57636,-14.38423 l -0.5953,-8.39662 2.00984,0.61394 c 1.1054,0.33766 2.6563,1.18117 3.44646,1.87446 1.89104,1.65927 2.847,8.15428 1.60224,10.88622 -0.79424,1.7432 -0.59296,3.13151 1.15776,7.98488 1.16552,3.23114 2.11916,6.587744 2.11916,7.459124 0,1.90763 -1.56198,3.086274 -2.02308,1.52657 z m -3.02956,-20.048254 c 0,-2.76888 -1.4992,-7.20768 -2.19828,-6.5086 -0.76796,0.76796 0.64266,9.89182 1.45202,9.39161 0.41044,-0.25366 0.74626,-1.55102 0.74626,-2.88301 z m 14.1473598,9.32821 c -0.0926,-6.52281 -0.1874,-13.18596 -0.21052,-14.80702 -0.0778,-5.44885 1.63464,-3.07092 2.40372,3.33778 0.63996,5.33294 1.0098,6.34643 2.31578,6.34643 1.3716,0 1.55418,-0.73614 1.55418,-6.26609 0,-5.55841 0.85448,-8.45148 1.94627202,-6.58975 0.20816,0.35493 0.51854,6.8648 0.68978,14.4664 0.21812,9.68406 0.0296,13.91601 -0.6297,14.138232 -0.61149202,0.206094 -1.14781202,-2.053514 -1.53155202,-6.452662 -0.51204,-5.86991 -0.8022,-6.76981 -2.18282,-6.76981 -1.41174,0 -1.62002,0.78004 -1.83686,6.87959 -0.1626,4.571812 -0.5977,6.996486 -1.29722,7.22807 -0.80362,0.266044 -1.09248,-2.457044 -1.22106,-11.51117 z m 12.529052,11.087722 c -0.2037,-0.347368 -0.51028,-7.073682 -0.68128,-14.947372 l -0.31094,-14.31579 h 3.29826 c 1.89006,0 3.44804,0.44942 3.64912,1.05263 0.2322602,0.69679 -0.56558,1.05264 -2.36008,1.05264 h -2.71096 l 0.53552,3.907 c 0.29454,2.14886 0.53552,4.58566 0.53552,5.41512 0,0.92283 0.73532,1.61254 1.89474,1.7772 1.0421,0.148 1.89474,0.64804 1.89474,1.1112 0,0.46316 -0.85264,0.9632 -1.89474,1.1112 -1.75144,0.24875 -1.89474,0.69948 -1.89474,5.95942 v 5.690322 l 2.52632,-0.370784 c 3.1372002,-0.460444 3.3964402,1.215444 0.36622,2.36753 -2.58388,0.982392 -4.34252,1.051204 -4.8477,0.18968 z m 8.6334602,-9.894742 c -0.178,-17.38494 0.2901,-20.1908 3.27326,-19.61995 1.66136,0.31792 2.96402,4.90377 4.79428,16.87757 1.55294,10.159704 1.57502,12.426596 0.121,12.426596 -0.7863,0 -1.36624,-1.995796 -1.89472,-6.520596 -0.60446,-5.17513 -1.0657,-6.57796 -2.2353,-6.79859 -1.28768,-0.24291 -1.47368,0.45349 -1.47368,5.51754 0,3.792142 -0.4274,6.36059 -1.23638,7.430168 -1.10908,1.466328 -1.24792,0.507468 -1.34848,-9.312738 z m 5.0755,-6.94736 c -0.02,-0.34737 -0.55582,-2.71579 -1.19154,-5.26316 l -1.15588,-4.63158 -0.0716,5.26316 c -0.0564,4.14879 0.1958,5.26315 1.19154,5.26315 0.69474,0 1.2471,-0.28421 1.22748,-0.63157 z m 32.16938,15.70705 c -0.93766,-2.403948 -3.3426,-17.97214 -3.68322,-23.84313 -0.1456,-2.50902 0.132,-4.26173 0.70546,-4.45549 1.1658,-0.39388 1.94358,2.33323 2.09008,7.32841 0.0612,2.08421 0.37134,4.92631 0.68938,6.31579 0.49768,2.17427 0.65248,2.29162 1.11094,0.8421 0.29296,-0.92631 0.79032,-4.62105 1.10526,-8.21052 0.53484,-6.09617 1.23382,-7.70053 2.47792,-5.68755 0.6999,1.1325 -2.06684,28.014192 -2.98206,28.973548 -0.4193,0.43951 -1.05728,-0.09286 -1.51376,-1.263158 z m 8.28734,0.974224 c 0,-0.435824 0.37894,-1.02661 0.8421,-1.312856 0.47542,-0.293822 0.84212,-4.393998 0.84212,-9.415968 0,-7.87433 -0.1474,-8.77323 -1.28352,-7.8303 -1.94718,1.61601 -2.3677,0.44634 -0.87636,-2.43758 0.73298,-1.41747 1.61356,-3.92894 1.95682,-5.58105 1.3747,-6.61647 2.31326,-2.65787 2.54062,10.71548 0.1884,11.07978 0.47046,13.798018 1.49138,14.369354 0.6925,0.387546 1.0393,1.060286 0.77064,1.494978 -0.63766,1.031746 -6.2838,1.029898 -6.2838,-0.002 z M -94.611685,-96.41174 c -0.23594,-0.387724 -0.11,-6.19969 0.28006,-12.91548 0.38998,-6.71579 0.72972,-12.86035 0.755,-13.65458 0.0252,-0.79423 0.82804,-1.86263 1.78396,-2.37423 2.50538,-1.34084 3.96152,0.21259 4.6304,4.93977 0.30594,2.16213 1.43798,8.07883 2.51566,13.14823 1.07766,5.06939 1.75856,9.542028 1.5131,9.939186 -1.08382,1.753654 -2.43688,-0.304076 -3.22616,-4.906276 -0.76922,-4.48514 -1.07606,-5.01247 -3.05008,-5.24162 -2.11298,-0.24529 -2.21236,-0.0611 -2.66582,4.9395 -0.44566,4.914878 -1.59038,7.679706 -2.53612,6.1255 z m 5.57292,-19.80241 c -1.22854,-6.49717 -1.90626,-8.08312 -2.06502,-4.83237 -0.0546,1.1193 -0.23278,4.02456 -0.39584,6.45614 -0.278,4.14596 -0.175,4.42106 1.65372,4.42106 h 1.95014 z m 30.51558,19.037306 c -1.54668,-1.54668 -1.67676,-2.569378 -0.42518,-3.342896 0.49398,-0.30529 1.41428,0.14602 2.04512,1.002932 1.09312,1.48484 1.17436,1.487374 1.72994,0.05394 1.136,-2.930962 -0.0812,-10.612832 -2.00616,-12.661942 -2.26248,-2.40829 -2.53304,-9.29036 -0.48046,-12.22084 1.72138,-2.4576 4.8634,-2.16254 5.24042,0.49212 0.28394,1.99925 -1.09118,2.63586 -1.81902,0.8421 -0.76562,-1.88687 -2.21278,1.22489 -2.22666,4.78784 -0.008,2.23573 0.57082,3.93546 1.78092,5.22357 2.16448,2.30399 3.24422,12.34259 1.64828,15.324618 -1.14578,2.140908 -3.62006,2.365718 -5.4872,0.498564 z m 22.02312,0.74914 c -0.22158,-0.378944 -0.54412,-7.131096 -0.71676,-15.004776 l -0.31388,-14.31579 3.1579,-0.26136 c 2.41158,-0.1996 3.15788,0.0492 3.15788,1.05263 0,0.84019 -0.75912,1.31399 -2.10526,1.31399 -2.34094,0 -2.52378,0.92196 -1.56706,7.90203 0.45716,3.33536 0.77414,3.85169 2.10526,3.42921 1.03646,-0.32896 1.56706,-0.0837 1.56706,0.72432 0,0.67193 -0.75788,1.41989 -1.6842,1.66212 -1.45176,0.37965 -1.68422,1.14865 -1.68422,5.5719 0,4.57007 0.1842,5.131474 1.68422,5.131474 0.93566,0 1.6842,0.561404 1.6842,1.263158 0,0.694736 -0.53742,1.263158 -1.19428,1.263158 -0.65686,0 -1.75536,0.215308 -2.44114,0.478462 -0.68576,0.263154 -1.42814,0.16842 -1.64972,-0.210526 z m 60.848612,0.433818 c -0.008,-0.15438 -0.22118,-6.820534 -0.47262,-14.813664 -0.49728,-15.80911 -0.3916,-16.18786 4.1953,-15.03662 2.5018,0.62791 3.87174,4.23568 3.87174,10.19631 0,4.32771 -1.59486,7.16275 -4.02942,7.16275 -0.59322,0 -1.04226,2.26531 -1.19684,6.0379 -0.1596,3.89502 -0.621,6.16143 -1.30006,6.385964 -0.57894,0.19144 -1.0596,0.221746 -1.0681,0.06736 z m 4.90072,-19.911014 c 0.25104,-4.27497 -0.81792,-7.73811 -2.38856,-7.73811 -0.44882,0 -0.81248,2.79356 -0.81248,6.24128 0,5.46366 0.1836,6.21478 1.47368,6.02866 1.14442,-0.1651 1.53036,-1.1777 1.72736,-4.53183 z m -133.189657,17.314524 c -1.64826,-2.634694 -2.48254,-16.175494 -1.3282,-21.557914 1.14144,-5.32237 3.19372,-6.84717 6.393725,-4.75044 2.42418,1.58837 1.97622,2.51888 -1.212605,2.51888 -1.84794,0 -2.2989,0.48742 -2.84132,3.07102 -0.35462,1.68907 -0.52096,4.53117 -0.36964,6.31579 0.1514,1.78462 0.33256,5.13951 0.40274,7.45529 0.0702,2.31579 0.50796,4.77895 0.97282,5.47369 0.7314,1.093064 1.01358,1.04246 2.095525,-0.37579 1.7232,-2.25881 3.5134,-0.60691 2.1345,1.969592 -1.27622,2.38463 -4.722025,2.318378 -6.247545,-0.12012 z m 36.907565,1.006636 c -0.33462,-0.541426 -0.1608,-1.26109 0.38644,-1.599252 1.17518,-0.726294 0.37322,-23.423768 -0.8826,-24.979868 -0.86138,-1.06735 1.1859,-3.18954 2.61682,-2.71256 0.54976,0.18324 1.02508,5.44019 1.25316,13.85938 0.2021,7.46028 0.47942,14.080566 0.61628,14.711752 0.3111,1.434656 -3.16122,2.061702 -3.9901,0.720548 z m 21.39686,0.467048 c -0.27462,-1.098444 -0.53602,-8.045048 -0.63158,-16.783538 -0.1006,-9.1971 -0.1866,-9.63762 -1.93404,-9.89474 -1.00584,-0.148 -1.99146,-0.76283 -2.1903,-1.36628 -0.27518,-0.83516 0.79932,-1.03628 4.49908,-0.84211 2.94464,0.15454 4.9975,0.67002 5.20784,1.30772 0.20726,0.62829 -0.39942,1.05263 -1.50494,1.05263 -1.8462,0 -1.851,0.0435 -1.4872,13.47369 0.29172,10.769312 0.1424,13.47368 -0.7443,13.47368 -0.61012,0 -1.15668,-0.18948 -1.21456,-0.421052 z M 156.31293,-24.06406 c -0.21182,-0.810526 -0.38512,-0.14736 -0.38512,1.473686 0,1.621052 0.1732,2.28421 0.38512,1.473684 0.2118,-0.810528 0.2118,-2.136842 0,-2.94737 z"
       id="path137882" />
  </g>
</svg>
