<?xml version="1.0" encoding="UTF-8" standalone="no"?>
<svg
   width="351.53619"
   height="198.13869"
   viewBox="-186 491 351.53619 198.13869"
   version="1.2"
   id="svg12096"
   sodipodi:docname="14-cell.svg"
   inkscape:version="1.1.2 (0a00cf5339, 2022-02-04)"
   xmlns:inkscape="http://www.inkscape.org/namespaces/inkscape"
   xmlns:sodipodi="http://sodipodi.sourceforge.net/DTD/sodipodi-0.dtd"
   xmlns="http://www.w3.org/2000/svg"
   xmlns:svg="http://www.w3.org/2000/svg"
   xmlns:rdf="http://www.w3.org/1999/02/22-rdf-syntax-ns#"
   xmlns:cc="http://creativecommons.org/ns#"
   xmlns:dc="http://purl.org/dc/elements/1.1/"><defs
   id="defs12100" />
<sodipodi:namedview
   id="namedview12098"
   pagecolor="#ffffff"
   bordercolor="#666666"
   borderopacity="1.0"
   inkscape:pageshadow="2"
   inkscape:pageopacity="0.0"
   inkscape:pagecheckerboard="0"
   showgrid="false"
   inkscape:zoom="1"
   inkscape:cx="210"
   inkscape:cy="93"
   inkscape:window-width="3840"
   inkscape:window-height="1536"
   inkscape:window-x="0"
   inkscape:window-y="0"
   inkscape:window-maximized="1"
   inkscape:current-layer="svg12096" />
<title
   id="title11860">Quick sheets</title>
\n<g
   id="g11866"
   transform="matrix(0.83599372,0,0,0.83599372,-32.726406,78.260532)">
  <path
     fill="none"
     stroke="#000000"
     stroke-width="4"
     stroke-linecap="round"
     stroke-linejoin="round"
     d="m -23.6294,572.24 -0.2102,1.447 0.2446,1.097 -0.0244,5.196 -0.3517,4.391 0.5544,14.488 -0.2732,5.492 0.2798,5.504 -0.1125,10.423 0.261,1.365 -0.2662,3.183 0.2589,3.005 -0.2279,0.602 0.2041,2.132 -0.3476,8.167 0.2053,19.415 -0.4404,7.736 0.059,15.236 -0.2892,0.884 0.4708,9.718 -0.6982,15.707 0.2461,1.683 -0.2607,1.904 0.3845,1.905 -0.2897,1.452 0.3736,2.695 -0.1042,9.196"
     id="path11864" />
</g>
<g
   id="g11870"
   transform="matrix(0.83599372,0,0,0.83599372,-32.726406,78.260532)">
  <path
     fill="none"
     stroke="#000000"
     stroke-width="4"
     stroke-linecap="round"
     stroke-linejoin="round"
     d="m -180.625,572.066 -0.211,1.447 0.245,1.097 -0.024,5.196 -0.352,4.392 0.554,14.487 -0.273,5.492 0.28,5.505 -0.112,10.422 0.261,1.365 -0.267,3.183 0.259,3.005 -0.228,0.603 0.204,2.132 -0.347,8.166 0.205,19.415 -0.44,7.736 0.059,15.236 -0.289,0.884 0.47,9.718 -0.698,15.707 0.246,1.683 -0.26,1.904 0.384,1.905 -0.29,1.453 0.374,2.694 -0.104,9.196"
     id="path11868" />
</g>
<g
   id="g11874"
   transform="matrix(0.83599372,0,0,0.83599372,-32.726406,78.260532)">
  <path
     fill="none"
     stroke="#000000"
     stroke-width="4"
     stroke-linecap="round"
     stroke-linejoin="round"
     d="m -180.321,728.052 0.935,-0.473 3.194,-0.245 1.793,0.311 4.919,-0.271 1.425,0.365 3.111,-0.44 3.415,0.454 5.529,-0.469 4.737,0.773 3.385,0.003 0.408,0.261 11.057,-0.765 1.53,0.31 1.076,-0.224 4.431,0.313 20.944,-0.498 2.345,0.512 3.022,0.166 10.2276,-0.283 2.3207,0.358 2.9173,-0.219 2.8206,0.264 0.9875,-0.22 12.218,0.117 1.1723,-0.231 0.1976,0.206 4.4617,-0.362 2.3332,0.338 9.2927,-0.442 6.089,-0.054 0.5713,0.235 2.9206,-0.317 5.3047,0.467 1.4881,-0.212 2.355,0.63 2.462,-0.478 3.4299,0.213 1.9677,0.576 1.1814,-0.228"
     id="path11872" />
</g>
<g
   id="g11878"
   transform="matrix(0.83599372,0,0,0.83599372,-32.726406,78.260532)">
  <path
     fill="none"
     stroke="#000000"
     stroke-width="4"
     stroke-linecap="round"
     stroke-linejoin="round"
     d="m -180.006,572.693 0.935,-0.473 3.194,-0.244 1.793,0.311 4.919,-0.271 1.425,0.364 3.111,-0.44 3.415,0.455 5.529,-0.47 4.737,0.774 3.385,0.003 0.408,0.26 11.056,-0.765 1.531,0.311 1.076,-0.224 4.431,0.313 20.944,-0.499 2.345,0.512 3.022,0.167 10.2275,-0.283 2.3208,0.358 2.9172,-0.22 2.8207,0.264 0.9875,-0.22 12.218,0.118 1.1723,-0.231 0.1976,0.205 4.4616,-0.362 2.3333,0.338 9.2926,-0.442 6.089,-0.053 0.5713,0.235 2.9207,-0.318 5.3047,0.467 1.4881,-0.212 2.3549,0.63 2.4621,-0.478 3.4299,0.214 1.9676,0.575 1.1814,-0.228"
     id="path11876" />
</g>
<g
   id="g11882"
   transform="matrix(0.83599372,0,0,0.83599372,-32.726406,78.260532)">
  <path
     fill="none"
     stroke="#000000"
     stroke-width="4"
     stroke-linecap="round"
     stroke-linejoin="round"
     d="m -24.5162,727.183 -0.0083,-0.553 -0.3124,0.489 0.1724,0.212 -0.0378,-0.374 0.1715,0.608"
     id="path11880" />
</g>
<g
   id="g11886"
   transform="matrix(0.83599372,0,0,0.83599372,-32.726406,78.260532)">
  <path
     fill="none"
     stroke="#000000"
     stroke-width="4"
     stroke-linecap="round"
     stroke-linejoin="round"
     d="m 234.79,571.894 -0.21,1.447 0.245,1.097 -0.025,5.196 -0.351,4.392 0.554,14.487 -0.273,5.492 0.28,5.505 -0.113,10.422 0.261,1.365 -0.266,3.183 0.259,3.005 -0.228,0.603 0.204,2.132 -0.348,8.166 0.206,19.415 -0.441,7.737 0.059,15.235 -0.289,0.884 0.471,9.718 -0.698,15.707 0.246,1.683 -0.261,1.904 0.385,1.905 -0.29,1.453 0.374,2.694 -0.105,9.196"
     id="path11884" />
</g>
<g
   id="g11890"
   transform="matrix(0.83599372,0,0,0.83599372,-32.726406,78.260532)">
  <path
     fill="none"
     stroke="#000000"
     stroke-width="4"
     stroke-linecap="round"
     stroke-linejoin="round"
     d="m 77.7944,571.72 -0.2102,1.448 0.2446,1.096 -0.0244,5.196 -0.3517,4.392 0.5544,14.487 -0.2732,5.492 0.2798,5.505 -0.1125,10.422 0.261,1.365 -0.2662,3.184 0.2589,3.004 -0.2279,0.603 0.2041,2.132 -0.3476,8.167 0.2053,19.414 -0.4404,7.737 0.059,15.235 -0.2892,0.885 0.4708,9.717 -0.6982,15.708 0.2461,1.682 -0.2607,1.905 0.3845,1.904 -0.2897,1.453 0.3736,2.694 -0.1042,9.196"
     id="path11888" />
</g>
<g
   id="g11894"
   transform="matrix(0.83599372,0,0,0.83599372,-32.726406,78.260532)">
  <path
     fill="none"
     stroke="#000000"
     stroke-width="4"
     stroke-linecap="round"
     stroke-linejoin="round"
     d="m 78.099,727.706 0.9351,-0.473 3.1932,-0.244 1.7936,0.311 4.919,-0.271 1.4247,0.364 3.1107,-0.44 3.4154,0.455 5.5293,-0.47 4.737,0.774 3.384,0.003 0.409,0.26 11.056,-0.765 1.531,0.311 1.076,-0.224 4.431,0.312 20.944,-0.498 2.345,0.512 3.022,0.167 10.227,-0.283 2.321,0.358 2.917,-0.22 2.821,0.264 0.987,-0.22 12.218,0.118 1.173,-0.231 0.197,0.205 4.462,-0.362 2.333,0.338 9.293,-0.442 6.089,-0.053 0.571,0.235 2.921,-0.318 5.305,0.467 1.488,-0.212 2.355,0.63 2.462,-0.478 3.43,0.214 1.967,0.575 1.182,-0.228"
     id="path11892" />
</g>
<g
   id="g11898"
   transform="matrix(0.83599372,0,0,0.83599372,-32.726406,78.260532)">
  <path
     fill="none"
     stroke="#000000"
     stroke-width="4"
     stroke-linecap="round"
     stroke-linejoin="round"
     d="m 78.4139,572.347 0.9351,-0.472 3.1933,-0.245 1.7935,0.311 4.9191,-0.271 1.4247,0.364 3.1106,-0.439 3.4155,0.454 5.5293,-0.469 4.737,0.773 3.384,0.003 0.408,0.261 11.057,-0.766 1.531,0.311 1.076,-0.224 4.431,0.313 20.944,-0.499 2.344,0.512 3.022,0.167 10.228,-0.283 2.321,0.358 2.917,-0.22 2.821,0.264 0.987,-0.219 12.218,0.117 1.173,-0.231 0.197,0.206 4.462,-0.363 2.333,0.339 9.293,-0.442 6.089,-0.054 0.571,0.235 2.921,-0.318 5.304,0.468 1.489,-0.213 2.355,0.631 2.462,-0.478 3.43,0.213 1.967,0.576 1.182,-0.229"
     id="path11896" />
</g>
<g
   id="g11902"
   transform="matrix(0.83599372,0,0,0.83599372,-32.726406,78.260532)">
  <path
     fill="none"
     stroke="#000000"
     stroke-width="4"
     stroke-linecap="round"
     stroke-linejoin="round"
     d="m 233.904,726.837 -0.009,-0.553 -0.312,0.489 0.172,0.212 -0.038,-0.374 0.172,0.608"
     id="path11900" />
</g>
<g
   id="g11906"
   transform="matrix(0.83599372,0,0,0.83599372,-32.726406,78.260532)">
  <path
     fill="none"
     stroke="#000000"
     stroke-width="4"
     stroke-linecap="round"
     stroke-linejoin="round"
     d="m 112.471,496.648 h 0.253 l 0.072,1.38 0.686,21.831 0.531,26.372 -0.336,-0.799"
     id="path11904" />
</g>
<g
   id="g11910"
   transform="matrix(0.83599372,0,0,0.83599372,-32.726406,78.260532)">
  <path
     fill="none"
     stroke="#000000"
     stroke-width="4"
     stroke-linecap="round"
     stroke-linejoin="round"
     d="m 113.023,496.423 -0.257,0.341 0.213,-0.187 0.729,4.135 1.241,3.747 0.287,2.3 2.532,7.843 1.629,7.015 1.437,-10.432 2.088,-8.952 2.149,-6.465 -0.294,2.346 0.222,11.192 0.46,3.112 0.153,13.593 1.46,19.847 -0.382,-1.005"
     id="path11908" />
</g>
<g
   id="g11914"
   transform="matrix(0.83599372,0,0,0.83599372,-32.726406,78.260532)">
  <path
     fill="none"
     stroke="#000000"
     stroke-width="4"
     stroke-linecap="round"
     stroke-linejoin="round"
     d="m 130.584,496.144 -0.15,0.459 0.318,-0.128 0.192,1.962 1.095,19.255 1.216,12.664 0.581,15.432 0.091,-0.434 0.059,0.451 -0.014,-0.407 0.073,0.284 0.781,-0.04 0.461,-0.524 0.7,0.008 0.085,-0.278 0.089,0.255 0.052,-0.291 0.084,0.298 0.022,-0.384 0.101,0.313 0.112,-0.252 1,0.381 1.332,-0.255 0.77,0.131 0.027,0.357 0.083,-0.477 -0.072,0.422 -0.011,-0.268 -0.316,0.002"
     id="path11912" />
</g>
<g
   id="g11918"
   transform="matrix(0.83599372,0,0,0.83599372,-32.726406,78.260532)">
  <path
     fill="none"
     stroke="#000000"
     stroke-width="4"
     stroke-linecap="round"
     stroke-linejoin="round"
     d="m 131.947,496.529 -0.212,-0.349 0.512,0.456 1.125,-0.272 0.848,0.237 0.773,-0.329 0.767,0.311 1.127,-0.112 1.11,-0.615 0.157,0.248 -0.092,-0.393 -0.281,0.296"
     id="path11916" />
</g>
<g
   id="g11922"
   transform="matrix(0.83599372,0,0,0.83599372,-32.726406,78.260532)">
  <path
     fill="none"
     stroke="#000000"
     stroke-width="4"
     stroke-linecap="round"
     stroke-linejoin="round"
     d="m 133.729,520.468 2.91,-0.474 0.324,-0.422 0.894,0.441 0.055,-0.245 0.396,0.237 0.369,-0.169 -0.084,-0.247 -0.199,0.272"
     id="path11920" />
</g>
<g
   id="g11926"
   transform="matrix(0.83599372,0,0,0.83599372,-32.726406,78.260532)">
  <path
     fill="none"
     stroke="#000000"
     stroke-width="4"
     stroke-linecap="round"
     stroke-linejoin="round"
     d="m 145.03,496.469 0.449,1.071 0.064,2.048 -0.061,17.353 0.886,17.616 0.124,9.873 -0.228,-0.352"
     id="path11924" />
</g>
<g
   id="g11930"
   transform="matrix(0.83599372,0,0,0.83599372,-32.726406,78.260532)">
  <path
     fill="none"
     stroke="#000000"
     stroke-width="4"
     stroke-linecap="round"
     stroke-linejoin="round"
     d="m 146.32,495.991 -0.603,0.019 10e-4,0.313 0.066,-0.288 0.2,0.213 -0.209,0.402 1.69,5.691 0.927,4.409 1.62,4.04 1.896,8.549 -0.03,-2.566 0.536,-4.476 0.645,-2.904 0.844,-2.035 0.767,-4.672 1.689,-6.812 1.379,28.944 0.67,5.461 0.417,6.365 -0.092,3.296 0.539,4.32 -0.102,-0.484 -0.079,0.955 -0.353,-0.848"
     id="path11928" />
</g>
<g
   id="g11934"
   transform="matrix(0.83599372,0,0,0.83599372,-32.726406,78.260532)">
  <path
     fill="none"
     stroke="#000000"
     stroke-width="4"
     stroke-linecap="round"
     stroke-linejoin="round"
     d="m 170.317,498.769 -0.661,-1.791 -1.389,-0.802 -1.294,-0.239 -0.956,0.666 -1.069,1.858 -0.58,6.36 -0.105,19.019 0.372,3.87 -0.078,11.974 0.989,4.592 0.028,-0.257 0.028,0.315 0.614,0.14 -0.051,0.386 0.006,-0.254 0.432,0.361 0.143,-0.371 0.787,0.772 1.331,-0.711 0.061,-0.294 0.003,0.26 -0.017,-0.343 0.048,0.252 0.483,-0.478 0.229,0.165 0.794,-1.126 1.071,-2.839 0.418,-2.079 0.415,-13.799 -0.298,-9.666 0.151,-6.35 0.382,-2.893 -0.234,-4.804 -0.563,-1.392 -0.525,-0.441"
     id="path11932" />
</g>
<g
   id="g11938"
   transform="matrix(0.83599372,0,0,0.83599372,-32.726406,78.260532)">
  <path
     fill="none"
     stroke="#000000"
     stroke-width="4"
     stroke-linecap="round"
     stroke-linejoin="round"
     d="m 178.367,496.409 0.538,2.548 -0.262,1.65 -0.104,11.041 0.567,8.604 -0.175,5.57 0.254,8.114 0.66,10.059 -0.05,0.865 0.002,-0.502 -0.159,0.27 0.08,-0.307 -0.04,0.21 -0.33,-0.429"
     id="path11936" />
</g>
<g
   id="g11942"
   transform="matrix(0.83599372,0,0,0.83599372,-32.726406,78.260532)">
  <path
     fill="none"
     stroke="#000000"
     stroke-width="4"
     stroke-linecap="round"
     stroke-linejoin="round"
     d="m 179.344,496.601 -0.111,0.283 0.095,-0.267 0.207,0.284 1.271,-0.341 1.554,0.505 0.971,-0.286 0.81,0.718 0.914,1.845 0.634,3.039 0.517,4.026 0.02,4.689 -0.917,5.88 -1.482,2.941 -2.14,2.135 -0.597,0.207 -0.261,0.648 -0.048,-0.303 -0.133,1.798 2.01,3.469 1.294,4.522 1.206,2.739 0.231,1.268 0.346,0.23 2.156,7.803 -0.163,0.234 0.113,0.304 0.163,-0.499 -0.628,-1.46"
     id="path11940" />
</g>
<g
   id="g11946"
   transform="matrix(0.83599372,0,0,0.83599372,-32.726406,78.260532)">
  <path
     fill="none"
     stroke="#000000"
     stroke-width="4"
     stroke-linecap="round"
     stroke-linejoin="round"
     d="m 190.967,496.499 -0.296,-0.097 0.21,-0.062 -0.202,0.156 0.226,1.599 1.37,6.129 1.006,6.439 1.353,5.38 0.713,4.35 0.554,1.387 0.129,-0.377 0.152,1.166 0.527,-8.945 2.249,-13.004 0.868,-1.887 0.328,-1.85 0.172,-0.179 0.02,0.356 -0.044,-0.611 -0.13,0.416"
     id="path11944" />
</g>
<g
   id="g11950"
   transform="matrix(0.83599372,0,0,0.83599372,-32.726406,78.260532)">
  <path
     fill="none"
     stroke="#000000"
     stroke-width="4"
     stroke-linecap="round"
     stroke-linejoin="round"
     d="m 196.179,522.74 0.098,8.712 0.449,4.472 0.047,9.043 -0.043,0.352 -0.206,-0.584"
     id="path11948" />
</g>
<g
   id="g11954"
   transform="matrix(0.83599372,0,0,0.83599372,-32.726406,78.260532)">
  <path
     fill="none"
     stroke="#000000"
     stroke-width="4"
     stroke-linecap="round"
     stroke-linejoin="round"
     d="m -116.944,499.503 -0.742,-1.757 -1.979,-0.945 -1.404,0.221 -1.213,1.832 -0.054,1.394 -0.911,3.181 -0.155,3.564 -0.307,0.682 -0.011,8.98 -0.296,1.594 0.219,3.112 -0.451,4.358 0.431,3.437 -0.254,3.139 0.265,1.219 0.067,6.981 1.273,4.455 0.22,-0.118 0.037,0.319 0.168,-0.181 0.479,0.492 1.264,-0.328 2.324,-2.606 0.708,-1.994"
     id="path11952" />
</g>
<g
   id="g11958"
   transform="matrix(0.83599372,0,0,0.83599372,-32.726406,78.260532)">
  <path
     fill="none"
     stroke="#000000"
     stroke-width="4"
     stroke-linecap="round"
     stroke-linejoin="round"
     d="m -110.939,496.389 0.269,4.144 -0.283,2.12 -0.016,6.711 0.3,3.404 -0.218,1.102 -0.013,7.026 0.262,0.562 -0.187,5.54 0.261,3.588 -0.231,1.613 0.268,3.329 -0.257,1.295 0.109,3.967 -0.36,1.979 0.199,2.624 -0.222,0.287 0.121,0.215 0.133,-0.216 -0.125,0.31 0.182,-0.394 0.317,0.33 0.676,-0.484 1.195,-0.016 1.138,-0.665 0.544,0.392 0.049,-0.51 0.104,0.405 0.242,-0.248 0.012,0.383 1.55,0.049 -0.001,-0.263 0.075,0.258 0.101,-0.28 0.03,0.485 0.036,-0.331 -0.314,-0.034"
     id="path11956" />
</g>
<g
   id="g11962"
   transform="matrix(0.83599372,0,0,0.83599372,-32.726406,78.260532)">
  <path
     fill="none"
     stroke="#000000"
     stroke-width="4"
     stroke-linecap="round"
     stroke-linejoin="round"
     d="m -109.669,496.191 0.397,-0.341 0.248,1.036 1.056,0.485 1.419,-0.34 1.054,0.309 0.647,-0.139 -0.02,-0.22 0.18,0.249 0.049,-0.282 0.377,0.368 0.704,-0.272 -0.119,-0.163 -0.131,0.588"
     id="path11960" />
</g>
<g
   id="g11966"
   transform="matrix(0.83599372,0,0,0.83599372,-32.726406,78.260532)">
  <path
     fill="none"
     stroke="#000000"
     stroke-width="4"
     stroke-linecap="round"
     stroke-linejoin="round"
     d="m -109.326,519.977 0.04,0.465 0.059,-0.387 0.813,0.267 1.257,-0.37 0.213,0.436 0.619,-0.567 1.388,0.143 0.21,-0.508"
     id="path11964" />
</g>
<g
   id="g11970"
   transform="matrix(0.83599372,0,0,0.83599372,-32.726406,78.260532)">
  <path
     fill="none"
     stroke="#000000"
     stroke-width="4"
     stroke-linecap="round"
     stroke-linejoin="round"
     d="m -97.6433,496.747 -0.2604,0.1 -0.011,2.322 0.8036,9.309 -0.2319,0.237 0.1815,2.245 -0.4478,5.566 -0.2206,15.437 0.2713,8.405 -0.3489,4.682 0.108,-0.443 0.0433,0.396 0.5308,-0.317 0.7265,0.449 0.2686,-0.424 0.0727,0.322 0.1036,-0.186 0.4306,0.348 0.5497,-0.491 0.6069,0.411 0.9434,-0.408 0.565,0.292 0.0755,0.407 0.185,-0.573 0.4195,0.215 -0.2047,-0.301"
     id="path11968" />
</g>
<g
   id="g11974"
   transform="matrix(0.83599372,0,0,0.83599372,-32.726406,78.260532)">
  <path
     fill="none"
     stroke="#000000"
     stroke-width="4"
     stroke-linecap="round"
     stroke-linejoin="round"
     d="m -87.5971,496.757 0.3498,0.819 -0.2417,7.689 0.9362,15.742 -0.2242,6.946 0.5327,16.661 0.0908,-0.259 0.1443,0.317 -0.0258,-0.31 1.1133,0.355 0.3284,-0.356 0.8084,-0.038 0.333,0.301 0.7131,-0.504 0.7955,0.227 1.0154,-0.372 0.447,0.517 0.236,-0.469 0.4546,-0.111 -0.1028,-0.374 -0.2388,0.624"
     id="path11972" />
</g>
<g
   id="g11978"
   transform="matrix(0.83599372,0,0,0.83599372,-32.726406,78.260532)">
  <path
     fill="none"
     stroke="#000000"
     stroke-width="4"
     stroke-linecap="round"
     stroke-linejoin="round"
     d="m -96.4663,614.579 -2.6286,-2.609 -1.8481,-0.639 -0.092,0.228 -0.122,-0.33 -0.111,0.3 -0.359,-0.63 -0.287,0.153 -0.361,-0.325 -1.226,0.108 -1.181,1.144 -0.402,0.015 -1.526,1.746 -0.749,1.803 -0.485,3.385 0.572,1.512 0.205,-0.162 0.803,1.581 1.994,1.522 0.431,-0.128 0.049,0.307 0.667,0.213 0.375,-0.226 0.551,0.584 1.967,-1.08 0.2832,0.186 0.7912,-0.743 0.0149,0.264 1.5247,-1.986 0.4069,-0.033 0.8833,-1.922 0.3067,-1.537 -0.3957,-0.333"
     id="path11976" />
</g>
<g
   id="g11982"
   transform="matrix(0.83599372,0,0,0.83599372,-32.726406,78.260532)">
  <path
     fill="none"
     stroke="#000000"
     stroke-width="4"
     stroke-linecap="round"
     stroke-linejoin="round"
     d="m -128.868,667.262 -2.629,-2.609 -1.848,-0.639 -0.092,0.228 -0.122,-0.331 -0.111,0.3 -0.359,-0.63 -0.287,0.153 -0.361,-0.324 -1.226,0.108 -1.181,1.144 -0.402,0.015 -1.526,1.746 -0.749,1.803 -0.485,3.385 0.571,1.512 0.206,-0.163 0.803,1.582 1.994,1.521 0.43,-0.128 0.049,0.308 0.668,0.212 0.375,-0.226 0.551,0.585 1.967,-1.081 0.283,0.187 0.791,-0.743 0.015,0.264 1.525,-1.986 0.407,-0.033 0.883,-1.922 0.307,-1.538 -0.396,-0.332"
     id="path11980" />
</g>
<g
   id="g11986"
   transform="matrix(0.83599372,0,0,0.83599372,-32.726406,78.260532)">
  <path
     fill="none"
     stroke="#000000"
     stroke-width="4"
     stroke-linecap="round"
     stroke-linejoin="round"
     d="m -107.404,623.487 -3.537,5.066 -1.407,3.27 -2.85,4.33 -3.494,6.906 -2.83,5.13 -1.682,2.394 -3.209,6.09 -0.849,0.748 -2.226,4.112 -1.346,1.577"
     id="path11984" />
</g>
<g
   id="g11990"
   transform="matrix(0.83599372,0,0,0.83599372,-32.726406,78.260532)">
  <path
     fill="none"
     stroke="#000000"
     stroke-width="4"
     stroke-linecap="round"
     stroke-linejoin="round"
     d="m -63.0615,667.453 -2.6287,-2.609 -1.8481,-0.639 -0.0919,0.228 -0.1216,-0.33 -0.111,0.3 -0.3594,-0.63 -0.287,0.153 -0.3606,-0.325 -1.226,0.108 -1.1811,1.144 -0.4022,0.015 -1.5264,1.746 -0.7489,1.803 -0.4848,3.385 0.5715,1.512 0.2052,-0.162 0.8036,1.581 1.9934,1.522 0.4308,-0.129 0.049,0.308 0.6678,0.213 0.375,-0.227 0.5506,0.585 1.9669,-1.081 0.2834,0.187 0.7912,-0.743 0.0149,0.264 1.5247,-1.986 0.4069,-0.033 0.8833,-1.922 0.3067,-1.538 -0.3958,-0.332"
     id="path11988" />
</g>
<g
   id="g11994"
   transform="matrix(0.83599372,0,0,0.83599372,-32.726406,78.260532)">
  <path
     fill="none"
     stroke="#000000"
     stroke-width="4"
     stroke-linecap="round"
     stroke-linejoin="round"
     d="m -97.1096,622.376 1.1606,0.982 1.3295,2.672 3.657,5.281 0.591,1.62 3.3438,5.098 0.4922,1.432 0.8792,0.849 2.7209,5.299 1.1831,1.583 1.1774,2.511 0.5324,0.395 1.2794,2.875 2.3095,3.332 2.5807,5.038 0.8447,1.336 0.1538,-0.144 0.5827,1.331 0.0927,-0.35 -0.0674,0.24 -0.18,-0.257"
     id="path11992" />
</g>
<g
   id="g11998"
   transform="matrix(0.83599372,0,0,0.83599372,-32.726406,78.260532)">
  <path
     fill="none"
     stroke="#000000"
     stroke-width="2.3988"
     stroke-linecap="round"
     stroke-linejoin="round"
     d="m 122.398,593.835 0.123,-0.024 0.032,0.476 -0.144,0.896 -0.255,16.201 0.067,9.921 0.158,1.487"
     id="path11996" />
</g>
<g
   id="g12002"
   transform="matrix(0.83599372,0,0,0.83599372,-32.726406,78.260532)">
  <path
     fill="none"
     stroke="#000000"
     stroke-width="2.3988"
     stroke-linecap="round"
     stroke-linejoin="round"
     d="m 122.164,593.983 -0.296,0.017 0.056,0.588 -0.367,2.02 -2.167,8.766 -0.773,4.298 -0.339,0.857 0.076,0.443 0.247,-0.452 0.042,0.172 0.641,-0.122 0.151,0.187 0.087,-0.175 0.974,-0.027 0.031,-0.14 0.174,0.19 1.785,-0.217"
     id="path12000" />
</g>
<g
   id="g12006"
   transform="matrix(0.83599372,0,0,0.83599372,-32.726406,78.260532)">
  <path
     fill="none"
     stroke="#000000"
     stroke-width="2.3988"
     stroke-linecap="round"
     stroke-linejoin="round"
     d="m 130.697,595 -0.501,-1.169 -0.667,-0.051 -0.054,0.133 -0.141,-0.169 -0.813,0.138 -0.824,1.144 -0.492,1.685 -0.827,7.856 -0.057,1.561 0.322,1.761 0.425,0.708 0.3,0.234 0.041,-0.157 0.094,0.144 0.188,-0.106 0.311,0.356 0.043,-0.255 0.102,0.351 0.287,-0.023 0.425,-0.703 1.348,-3.148"
     id="path12004" />
</g>
<g
   id="g12010"
   transform="matrix(0.83599372,0,0,0.83599372,-32.726406,78.260532)">
  <path
     fill="none"
     stroke="#000000"
     stroke-width="2.3988"
     stroke-linecap="round"
     stroke-linejoin="round"
     d="m 130.852,595.762 0.113,0.17 -0.745,7.056 -0.294,5.001 -0.094,8.605 -0.26,4.894 -0.734,1.499 -0.886,0.212 -0.955,-0.207 -0.931,-1.396"
     id="path12008" />
</g>
<g
   id="g12014"
   transform="matrix(0.83599372,0,0,0.83599372,-32.726406,78.260532)">
  <path
     fill="none"
     stroke="#000000"
     stroke-width="2.3988"
     stroke-linecap="round"
     stroke-linejoin="round"
     d="m 95.0078,593.642 -0.3647,-0.008 -0.0035,0.148 0.131,-0.173 0.0709,0.165 -0.2468,2.77 0.0713,3.275 -0.167,0.792 0.1749,1.653 -0.1253,5.464 0.1697,2.367 -0.1996,2.583 0.1754,1.747 -0.1433,4.347 0.2351,3.875 -0.0191,0.724 -0.192,-0.26"
     id="path12012" />
</g>
<g
   id="g12018"
   transform="matrix(0.83599372,0,0,0.83599372,-32.726406,78.260532)">
  <path
     fill="none"
     stroke="#000000"
     stroke-width="2.3988"
     stroke-linecap="round"
     stroke-linejoin="round"
     d="m 94.3119,593.746 -0.5435,4.016 -0.5161,1.831 -0.8024,4.492 -0.8121,2.24 -0.0931,0.81 -1.2549,4.201 0.1843,-0.083 -0.126,0.033 0.0498,-0.186 0.0638,0.279 0.2155,-0.097 0.0415,0.149 0.1068,-0.204 0.7978,-0.111 0.6162,-0.356 2.6204,0.156 0.2151,-0.205 0.2333,0.177 0.2326,-0.163 0.1119,0.162 0.2966,-0.305 0.139,0.086 -0.0185,-0.163 0.059,0.285 -0.1396,-0.211"
     id="path12016" />
</g>
<g
   id="g12022"
   transform="matrix(0.83599372,0,0,0.83599372,-32.726406,78.260532)">
  <path
     fill="none"
     stroke="#000000"
     stroke-width="2.3988"
     stroke-linecap="round"
     stroke-linejoin="round"
     d="m 104.592,593.533 -0.197,8.24 -0.21,2.015 0.177,2.823 -0.217,2.616 0.118,3.866 -0.187,2.623 0.109,7.479 -0.124,-0.034 0.027,0.229 -0.036,-0.579"
     id="path12020" />
</g>
<g
   id="g12026"
   transform="matrix(0.83599372,0,0,0.83599372,-32.726406,78.260532)">
  <path
     fill="none"
     stroke="#000000"
     stroke-width="2.3988"
     stroke-linecap="round"
     stroke-linejoin="round"
     d="m 104.139,593.822 0.277,-0.226 -1.553,6.219 -0.66,3.838 -1.042,3.604 -0.029,1.001 -0.403,0.708 -0.161,1.191 -0.187,0.324 -0.025,-0.21 0.017,0.76 0.104,-0.211 -0.012,0.165 0.801,-0.092 0.836,0.244 1.079,-0.319 0.182,-0.221 0.157,0.078 -0.011,-0.167 0.202,0.104 -0.026,-0.151 0.851,0.302 0.192,-0.313 0.105,0.203 0.017,-0.185 0.679,-0.089 0.325,-0.369 0.326,0.279"
     id="path12024" />
</g>
<g
   id="g12030"
   transform="matrix(0.83599372,0,0,0.83599372,-32.726406,78.260532)">
  <path
     fill="none"
     stroke="#000000"
     stroke-width="2.3988"
     stroke-linecap="round"
     stroke-linejoin="round"
     d="m 145.593,593.969 -0.364,-0.009 -0.004,0.148 0.131,-0.173 0.071,0.165 -0.247,2.77 0.071,3.275 -0.167,0.792 0.175,1.653 -0.125,5.464 0.17,2.368 -0.2,2.582 0.176,1.747 -0.144,4.347 0.235,3.876 -0.019,0.723 -0.192,-0.26"
     id="path12028" />
</g>
<g
   id="g12034"
   transform="matrix(0.83599372,0,0,0.83599372,-32.726406,78.260532)">
  <path
     fill="none"
     stroke="#000000"
     stroke-width="2.3988"
     stroke-linecap="round"
     stroke-linejoin="round"
     d="m 144.897,594.072 -0.543,4.016 -0.516,1.831 -0.803,4.492 -0.812,2.24 -0.093,0.81 -1.255,4.201 0.184,-0.083 -0.125,0.033 0.049,-0.185 0.064,0.278 0.216,-0.097 0.041,0.149 0.107,-0.204 0.798,-0.111 0.616,-0.355 2.62,0.155 0.215,-0.205 0.234,0.177 0.232,-0.163 0.112,0.162 0.297,-0.305 0.139,0.086 -0.019,-0.163 0.059,0.285 -0.139,-0.211"
     id="path12032" />
</g>
<g
   id="g12038"
   transform="matrix(0.83599372,0,0,0.83599372,-32.726406,78.260532)">
  <path
     fill="none"
     stroke="#000000"
     stroke-width="2.3988"
     stroke-linecap="round"
     stroke-linejoin="round"
     d="m 155.177,593.859 -0.197,8.24 -0.209,2.015 0.177,2.823 -0.217,2.616 0.118,3.866 -0.187,2.623 0.109,7.479 -0.125,-0.034 0.027,0.229 -0.035,-0.579"
     id="path12036" />
</g>
<g
   id="g12042"
   transform="matrix(0.83599372,0,0,0.83599372,-32.726406,78.260532)">
  <path
     fill="none"
     stroke="#000000"
     stroke-width="2.3988"
     stroke-linecap="round"
     stroke-linejoin="round"
     d="m 154.724,594.148 0.278,-0.226 -1.554,6.219 -0.66,3.838 -1.041,3.604 -0.03,1.001 -0.403,0.708 -0.161,1.191 -0.187,0.324 -0.024,-0.209 0.016,0.759 0.105,-0.211 -0.012,0.165 0.801,-0.092 0.835,0.245 1.08,-0.32 0.182,-0.221 0.156,0.078 -0.011,-0.167 0.203,0.104 -0.027,-0.151 0.852,0.302 0.191,-0.313 0.105,0.203 0.018,-0.185 0.678,-0.089 0.326,-0.369 0.326,0.279"
     id="path12040" />
</g>
<g
   id="g12046"
   transform="matrix(0.83599372,0,0,0.83599372,-32.726406,78.260532)">
  <path
     fill="none"
     stroke="#000000"
     stroke-width="2.3988"
     stroke-linecap="round"
     stroke-linejoin="round"
     d="m 171.148,593.965 0.052,3.972 -0.285,7.369 0.04,15.806 0.194,2.098 -0.132,-0.398"
     id="path12044" />
</g>
<g
   id="g12050"
   transform="matrix(0.83599372,0,0,0.83599372,-32.726406,78.260532)">
  <path
     fill="none"
     stroke="#000000"
     stroke-width="2.3988"
     stroke-linecap="round"
     stroke-linejoin="round"
     d="m 170.65,593.702 -0.166,0.028 0.1,0.148 -0.965,5.457 -2.562,10.824 0.082,-0.234 -0.008,0.289 0.127,-0.199 -0.037,0.278 0.18,-0.121 0.017,0.139 0.892,-0.555 0.985,0.188 0.446,-0.263 0.653,0.174 0.188,-0.135 0.102,0.152 1.254,-0.168 0.355,0.22 0.146,-0.238"
     id="path12048" />
</g>
<g
   id="g12054"
   transform="matrix(0.83599372,0,0,0.83599372,-32.726406,78.260532)">
  <path
     fill="none"
     stroke="#000000"
     stroke-width="2.3988"
     stroke-linecap="round"
     stroke-linejoin="round"
     d="m 180.864,595.431 -0.256,-0.887 -1.191,-0.914 -0.232,0.106 -0.002,-0.132 -0.544,0.579 -0.177,-0.084 -0.666,0.964 -0.472,1.637 -0.399,7.007 0.227,9.008 -0.086,6.989 0.358,2.852 0.872,0.97 0.23,-0.143 0.255,0.155 0.268,-0.198 0.074,0.129 0.522,-0.299 0.024,-0.192 0.061,0.156 0.051,-0.21 0.154,0.143 1.155,-2.703 0.004,-0.362 -0.168,-0.038"
     id="path12052" />
</g>
<g
   id="g12058"
   transform="matrix(0.83599372,0,0,0.83599372,-32.726406,78.260532)">
  <path
     fill="none"
     stroke="#000000"
     stroke-width="2.3988"
     stroke-linecap="round"
     stroke-linejoin="round"
     d="m 188.119,624.313 0.3,-0.247"
     id="path12056" />
</g>
<g
   id="g12062"
   transform="matrix(0.83599372,0,0,0.83599372,-32.726406,78.260532)">
  <path
     fill="none"
     stroke="#000000"
     stroke-width="2.3988"
     stroke-linecap="round"
     stroke-linejoin="round"
     d="m 193.161,624.609 0.273,-0.088"
     id="path12060" />
</g>
<g
   id="g12066"
   transform="matrix(0.83599372,0,0,0.83599372,-32.726406,78.260532)">
  <path
     fill="none"
     stroke="#000000"
     stroke-width="2.3988"
     stroke-linecap="round"
     stroke-linejoin="round"
     d="m 197.635,624.494 0.142,-0.265 -0.039,0.198"
     id="path12064" />
</g>
<g
   id="g12070"
   transform="matrix(0.83599372,0,0,0.83599372,-32.726406,78.260532)">
  <path
     fill="none"
     stroke="#000000"
     stroke-width="4"
     stroke-linecap="round"
     stroke-linejoin="round"
     d="m 51.5882,619.679 1.7567,0.234 0.6642,0.487 3.5915,0.196 3.8001,1.004 5.4665,0.303 1.5122,0.504 3.4822,0.172 5.4612,0.902 -3.1112,0.919 -5.2735,0.856 -3.9438,1.308 -11.2723,2.227 -2.6152,1.07"
     id="path12068" />
</g>
<g
   id="g12074"
   transform="matrix(0.83599372,0,0,0.83599372,-32.726406,78.260532)">
  <path
     fill="none"
     stroke="#000000"
     stroke-width="4"
     stroke-linecap="round"
     stroke-linejoin="round"
     d="m 49.5033,619.177 -0.1425,0.588 -0.0149,-0.367 -0.2704,0.048 1.3436,5.334 -0.0701,2.887 -0.5273,2.252"
     id="path12072" />
</g>
<g
   id="g12078"
   transform="matrix(0.83599372,0,0,0.83599372,-32.726406,78.260532)">
  <path
     fill="none"
     stroke="#000000"
     stroke-width="4"
     stroke-linecap="round"
     stroke-linejoin="round"
     d="m -21.6865,674.863 3.8452,-0.882 3.4982,-0.187 9.78871,-1.468 3.821791,-0.901 1.451441,0.053 0.782738,-0.459 -0.20805,0.319"
     id="path12076" />
</g>
<g
   id="g12082"
   transform="matrix(0.83599372,0,0,0.83599372,-32.726406,78.260532)">
  <path
     fill="none"
     stroke="#000000"
     stroke-width="4"
     stroke-linecap="round"
     stroke-linejoin="round"
     d="m -22.4927,675.895 0.1063,0.469 -0.0072,-0.321 0.7954,0.353 2.4231,0.085 1.896,0.473 1.906,-0.015 1.0198,0.225 0.0935,0.262 0.7224,-0.212 2.3729,0.247 1.45888,0.645 2.65684,0.452 3.55465,-0.036 0.57792,0.272 0.14981,-0.216 0.63464,0.357 3.53556,0.399 0.39424,0.178 -0.25594,0.109"
     id="path12080" />
</g>
<g
   id="g12086"
   transform="matrix(0.83599372,0,0,0.83599372,-32.726406,78.260532)">
  <path
     fill="none"
     stroke="#000000"
     stroke-width="4"
     stroke-linecap="round"
     stroke-linejoin="round"
     d="m 2.96862,670.874 1.02686,-0.266 -1.04405,6.004 0.60972,2.766 0.15337,0.377 0.12396,-0.17"
     id="path12084" />
</g>
<g
   id="g12090"
   transform="matrix(0.83599372,0,0,0.83599372,-32.726406,78.260532)">
  <path
     fill="none"
     stroke="#000000"
     stroke-width="4"
     stroke-linecap="round"
     stroke-linejoin="round"
     d="m -22.4813,623.71 5.8172,-0.188 2.5315,0.364 5.64843,-0.142 4.53151,0.392 2.88026,-0.335 4.81319,0.327 7.60101,-0.26 4.1034,0.296 3.8773,-0.271 9.9433,0.529 3.5134,-0.406 2.7546,0.258 3.1527,-0.338 3.2358,0.073 2.7902,0.286 1.8579,-0.429 0.9547,0.409 0.5616,-0.226 0.3407,0.283 -0.0774,-0.195"
     id="path12088" />
</g>
<g
   id="g12094"
   transform="matrix(0.83599372,0,0,0.83599372,-32.726406,78.260532)">
  <path
     fill="none"
     stroke="#000000"
     stroke-width="4"
     stroke-linecap="round"
     stroke-linejoin="round"
     d="m 4.35461,676.204 -0.00611,0.508 0.90398,-0.122 0.70199,0.329 1.03343,-0.321 1.39007,0.182 1.23795,-0.237 3.81698,0.493 4.7298,-0.363 4.584,0.333 7.0531,-0.26 4.7418,0.434 4.6299,-0.238 5.7053,0.186 3.1217,-0.437 4.5147,0.378 1.4593,-0.315 0.6648,0.231 4.296,-0.399 13.1365,-0.203 3.1347,0.217 0.5988,-0.045 0.0271,-0.37 0.0405,0.259 0.3804,-0.042 0.0148,-0.23 -0.0827,0.355"
     id="path12092" />
</g>
<metadata
   id="metadata12414">
  <rdf:RDF>
    <cc:Work
       rdf:about="">
      <dc:title>Quick sheets</dc:title>
    </cc:Work>
  </rdf:RDF>
</metadata>
</svg>
