<?xml version="1.0" encoding="UTF-8" standalone="no"?>
<svg
   width="385.72348"
   height="341.02713"
   viewBox="-446 593 385.72348 341.02713"
   version="1.2"
   id="svg13932"
   sodipodi:docname="14-log.svg"
   inkscape:version="1.1.2 (0a00cf5339, 2022-02-04)"
   xmlns:inkscape="http://www.inkscape.org/namespaces/inkscape"
   xmlns:sodipodi="http://sodipodi.sourceforge.net/DTD/sodipodi-0.dtd"
   xmlns="http://www.w3.org/2000/svg"
   xmlns:svg="http://www.w3.org/2000/svg"
   xmlns:rdf="http://www.w3.org/1999/02/22-rdf-syntax-ns#"
   xmlns:cc="http://creativecommons.org/ns#"
   xmlns:dc="http://purl.org/dc/elements/1.1/"><defs
   id="defs13936" />
<sodipodi:namedview
   id="namedview13934"
   pagecolor="#ffffff"
   bordercolor="#666666"
   borderopacity="1.0"
   inkscape:pageshadow="2"
   inkscape:pageopacity="0.0"
   inkscape:pagecheckerboard="0"
   showgrid="false"
   inkscape:zoom="1"
   inkscape:cx="224"
   inkscape:cy="168"
   inkscape:window-width="3840"
   inkscape:window-height="1536"
   inkscape:window-x="0"
   inkscape:window-y="0"
   inkscape:window-maximized="1"
   inkscape:current-layer="svg13932" />
<title
   id="title13412">Quick sheets</title>
\n<g
   id="g13418"
   transform="matrix(0.86261295,0,0,0.86261295,-63.100778,79.729768)">
  <path
     fill="none"
     stroke="#000000"
     stroke-width="4"
     stroke-linecap="round"
     stroke-linejoin="round"
     d="m -440.785,676.223 -0.284,-0.011 0.297,2.625 -0.485,1.269 0.282,3.447 -0.267,0.873 0.239,13.389 -0.461,10.636 0.235,4.469 -0.235,1.822 0.285,0.452 -0.265,3.617 0.458,6.134 -0.249,0.945 0.183,10.367 -0.261,2.308 0.242,3.348 -0.387,4.316 0.347,1.604 -0.002,2.273 -0.215,12.663 -0.555,4.018 0.49,2.416 -0.342,3.561 0.429,3.289 -0.217,2.687 0.175,4.78 0.368,1.886 -0.257,3.659 0.538,3.263 -0.281,0.783 0.173,3.846 -0.296,1.794 0.359,2.476 -0.172,1.076 0.177,0.215 0.086,-0.51"
     id="path13416" />
</g>
<g
   id="g13422"
   transform="matrix(0.86261295,0,0,0.86261295,-63.100778,79.729768)">
  <path
     fill="none"
     stroke="#000000"
     stroke-width="4"
     stroke-linecap="round"
     stroke-linejoin="round"
     d="m -337.126,675.968 0.404,15.611 -0.731,15.406 0.328,1.807 0.449,9.535 0.267,13.389 -0.567,11.289 0.264,10.17 -0.843,12.743 0.244,3.051 -0.235,1.033 0.205,19.833 -0.225,1.928 0.179,4.051 0.161,0.471 0.099,-0.238 -0.089,-0.3 -0.078,0.589 0.032,-0.721 0.004,0.782 -0.095,-0.719 0.087,0.74 -0.111,-0.588"
     id="path13420" />
</g>
<g
   id="g13426"
   transform="matrix(0.86261295,0,0,0.86261295,-63.100778,79.729768)">
  <path
     fill="none"
     stroke="#000000"
     stroke-width="4"
     stroke-linecap="round"
     stroke-linejoin="round"
     d="m -441.507,676.605 0.735,0.353 0.369,-0.268 1.186,0.039 0.699,-0.459 1.155,0.091 0.109,-0.238 1.462,0.336 4.871,-0.384 1.106,0.442 3.138,0.319 1.338,-0.204 0.44,0.302 6.465,-0.554 5.506,0.27 5.828,-0.447 3.596,0.334 6.544,0.029 0.171,-0.259 2.115,0.478 19.868,-0.956 9.159,0.055 1.978,0.302 5.904,-0.483 5.03,0.256 7.297,-0.424 2.864,0.264 4.435,-0.462"
     id="path13424" />
</g>
<g
   id="g13430"
   transform="matrix(0.86261295,0,0,0.86261295,-63.100778,79.729768)">
  <path
     fill="none"
     stroke="#000000"
     stroke-width="4"
     stroke-linecap="round"
     stroke-linejoin="round"
     d="m -441.014,728.135 0.711,-0.427 3.263,0.289 0.988,-0.189 0.751,0.356 3.721,-0.692 1.919,0.051 0.569,0.311 3.44,-0.249 1.8,0.386 1.724,-0.363 4.135,0.268 6.289,-0.124 0.491,0.23 1.284,-0.195 0.16,0.211 2.344,-0.182 0.193,-0.252 0.373,0.21 0.221,-0.241 0.51,0.23 1.093,-0.155 1.109,0.439 1.589,-0.352 1.554,0.131 0.085,-0.22 4.765,0.097 0.071,0.231 4.51,-0.471 3.045,0.493 9.537,-0.47 1.47,-0.304 0.372,0.239 4.004,-0.162 0.202,0.252 0.956,-0.375 5.096,-0.277 0.328,-0.274 0.684,0.206 5.658,-0.293 0.155,0.289 0.766,-0.306 4.571,-0.387 2.012,0.29 4.687,-0.362 7.205,0.181 0.553,-0.226 2.114,0.326 0.331,-0.373 -0.286,0.531"
     id="path13428" />
</g>
<g
   id="g13434"
   transform="matrix(0.86261295,0,0,0.86261295,-63.100778,79.729768)">
  <path
     fill="none"
     stroke="#000000"
     stroke-width="4"
     stroke-linecap="round"
     stroke-linejoin="round"
     d="m -441.202,780.024 1.159,0.195 2.783,-0.511 1.061,0.345 1.541,0.007 3.621,-0.534 3.372,0.174 5.55,-0.397 4.661,0.557 1.795,-0.233 2.043,0.534 4.906,-0.25 4.262,0.335 4.467,-0.479 2.503,0.325 5.82,-0.445 0.815,0.395 6.416,-0.413 2.516,0.307 4.866,-0.314 1.68,0.436 14.723,-0.843 3.994,0.462 5.543,-0.356 3.715,0.397 4.426,-0.454 1.308,0.024 0.46,0.342 2.037,-0.574"
     id="path13432" />
</g>
<g
   id="g13438"
   transform="matrix(0.86261295,0,0,0.86261295,-63.100778,79.729768)">
  <path
     fill="none"
     stroke="#000000"
     stroke-width="4"
     stroke-linecap="round"
     stroke-linejoin="round"
     d="m -440.826,801.794 -0.175,0.456 0.205,-0.105 h -0.242 l 0.166,0.489 0.083,-0.254 -0.147,0.667 0.286,0.439 -0.131,0.759 0.385,1.894 0.151,7.991 -0.391,2.241 0.095,2.941 -0.333,2.866 0.215,11.031 -1.13,21.489 0.279,18.82"
     id="path13436" />
</g>
<g
   id="g13442"
   transform="matrix(0.86261295,0,0,0.86261295,-63.100778,79.729768)">
  <path
     fill="none"
     stroke="#000000"
     stroke-width="4"
     stroke-linecap="round"
     stroke-linejoin="round"
     d="m -337.74,797.358 0.142,5.074 0.529,3.954 0.384,13.287 -0.23,1.095 0.117,6.462 -0.56,5.421 -0.093,12.062 0.363,11.11 -0.168,0.606 -0.136,-0.381"
     id="path13440" />
</g>
<g
   id="g13446"
   transform="matrix(0.86261295,0,0,0.86261295,-63.100778,79.729768)">
  <path
     fill="none"
     stroke="#000000"
     stroke-width="4"
     stroke-linecap="round"
     stroke-linejoin="round"
     d="m -440.071,831.683 0.194,0.622 -0.055,-0.284 4.052,-0.347 1.788,0.246 0.785,0.488 1.323,0.025 2.435,-0.475 1.108,0.42 3.586,-0.452 1.764,0.204 4.941,-0.326 3.896,0.158 0.455,0.266 3.618,-0.491 1.02,0.187 1.484,-0.244 1.768,0.367 8.659,-0.372 0.176,-0.228 2.805,0.386 6.493,-0.168 6.665,0.659 4.128,-0.386 2.322,0.247 0.219,-0.218 6.053,0.116 3.694,-0.266 8.045,0.406 4.739,-0.429 1.107,0.272 5.355,-0.26 0.776,0.222 2.521,-0.369 3.085,0.022"
     id="path13444" />
</g>
<g
   id="g13450"
   transform="matrix(0.86261295,0,0,0.86261295,-63.100778,79.729768)">
  <path
     fill="none"
     stroke="#000000"
     stroke-width="4"
     stroke-linecap="round"
     stroke-linejoin="round"
     d="m -440.986,874.252 -0.024,-0.526 0.179,0.505 0.544,-0.206 0.34,0.458 0.459,-0.257 0.848,0.564 1.332,0.241 1.749,-0.075 4.17,0.793 1.678,-0.078 1.324,0.385 1.612,-0.166 8.785,0.992 3.415,-0.131 2.665,0.462 3.386,0.115 3.726,-0.504 4.82,-0.014 7.069,-1.593 2.041,-1.011 3.706,-1.066 5.424,-2.433 2.429,-2.146 2.888,-0.798 4.024,-2.663 0.359,0.075 1.339,-0.912 0.461,-0.007 0.678,-0.824 0.872,-0.222 0.867,-0.805 1.835,-0.422 0.127,-0.307 1.744,-0.167 0.413,-0.418 1.597,-0.364 2.073,-1.02 0.595,-0.009 0.134,-0.302 0.411,0.089 0.141,-0.293 2.894,-0.016 1.813,-0.481 0.158,-0.287 2.356,-0.01 2.511,-0.695 1.875,0.192 3.233,-0.434 4.004,0.246"
     id="path13448" />
</g>
<g
   id="g13454"
   transform="matrix(0.86261295,0,0,0.86261295,-63.100778,79.729768)">
  <path
     fill="none"
     stroke="#000000"
     stroke-width="4"
     stroke-linecap="round"
     stroke-linejoin="round"
     d="m -232.999,935.76 -0.994,-11.214 0.246,-7.998 -0.325,-4.888 0.416,-4.125 -0.427,-4.774 -0.033,-7.583 0.48,-4.606 0.041,-7.774 0.384,-4.005 -0.218,-1.849 0.344,-9.606 -0.173,-3.523 0.574,-17.766 -0.369,-7.946 0.304,-7.517 -0.269,-8.345 0.357,-3.828 -0.138,-4.374 0.521,-4.357 -0.258,-6.783 0.54,-13.947 -0.661,-14.404 0.228,-34.649 -0.404,-18.959 0.025,-15.535 0.589,-12.512 -0.273,-10.442 0.285,-5.267"
     id="path13452" />
</g>
<g
   id="g13458"
   transform="matrix(0.86261295,0,0,0.86261295,-63.100778,79.729768)">
  <path
     fill="none"
     stroke="#000000"
     stroke-width="4"
     stroke-linecap="round"
     stroke-linejoin="round"
     d="m -233.436,988.284 0.468,0.046 0.151,-1.561 -0.271,-5.168 0.101,-10.683 0.485,-3.859 -0.785,-25.513 0.189,-10.673"
     id="path13456" />
</g>
<g
   id="g13462"
   transform="matrix(0.86261295,0,0,0.86261295,-63.100778,79.729768)">
  <path
     fill="none"
     stroke="#000000"
     stroke-width="4"
     stroke-linecap="round"
     stroke-linejoin="round"
     d="m -129.072,967.025 -0.188,-1.674 0.336,-1.819 -0.422,-9.323 0.303,-1.471 0.011,-3.343 -0.306,-1.929 0.19,-5.338 -0.325,-2.785 0.512,-3.389 -0.131,-2.756 0.484,-0.625 0.075,-1.036 -0.971,-22.557 0.354,-6.746 -0.154,-7.154 0.459,-5.306 -0.09,-8.928 0.48,-3.883 -0.427,-11.49 -0.108,-13.504 0.262,-3.124 -0.286,-17.538 0.29,-6.19 -0.346,-9.549 0.813,-63.749 -0.499,-6.613 0.254,-22.143 -0.398,-11.22 -0.064,-15.341 0.238,-2.957 -0.397,-4.915 0.271,-10.003 -0.19,-1.863 -0.177,0.545 0.078,-1.132"
     id="path13460" />
</g>
<g
   id="g13466"
   transform="matrix(0.86261295,0,0,0.86261295,-63.100778,79.729768)">
  <path
     fill="none"
     stroke="#000000"
     stroke-width="4"
     stroke-linecap="round"
     stroke-linejoin="round"
     d="m -232.547,676.427 17.916,-0.839 8.583,0.363 4.966,-0.408 5.704,0.115 8.503,0.757 24.124,-0.353 4.33,-0.357 1.852,0.239 27.712,-0.374"
     id="path13464" />
</g>
<g
   id="g13470"
   transform="matrix(0.86261295,0,0,0.86261295,-63.100778,79.729768)">
  <path
     fill="none"
     stroke="#000000"
     stroke-width="4"
     stroke-linecap="round"
     stroke-linejoin="round"
     d="m -230.05,780.125 3.737,0.14 3.575,-0.48 2.522,0.182 8.073,-0.385 0.506,0.313 4.8,0.247 11.172,0.01 1.627,-0.23 8.234,0.32 1.672,-0.245 4.864,0.365 2.954,-0.283 5.951,0.093 0.835,0.316 5.007,-0.443 4.849,0.489 5.91,-0.336 5.917,0.266 5.937,-0.305 3.639,0.45 3.476,-0.371 4.37,0.177 0.5,-0.388 0.368,0.154"
     id="path13468" />
</g>
<g
   id="g13474"
   transform="matrix(0.86261295,0,0,0.86261295,-63.100778,79.729768)">
  <path
     fill="none"
     stroke="#000000"
     stroke-width="4"
     stroke-linecap="round"
     stroke-linejoin="round"
     d="m -232.651,936.015 -0.224,0.102 0.223,0.106 1.969,-0.417 2.607,0.677 5.006,-0.359 0.277,-0.278 4.642,0.371 5.446,-0.642 4.562,0.482 5.718,-0.339 5.912,0.391 4.217,-0.34 10.835,0.455 5.189,-0.525 6.004,0.362 4.518,-0.262 1.14,0.193 0.228,-0.212 3.802,0.469 6.941,-0.318 4.491,0.549 8.175,-0.305 2.501,0.396 4.027,-0.327 0.221,-0.234 4.451,0.297 -0.06,-0.274"
     id="path13472" />
</g>
<g
   id="g13478"
   transform="matrix(0.86261295,0,0,0.86261295,-63.100778,79.729768)">
  <path
     fill="none"
     stroke="#000000"
     stroke-width="4"
     stroke-linecap="round"
     stroke-linejoin="round"
     d="m -232.686,987.851 5.174,0.509 7.488,-0.45 2.353,0.348 7.572,-0.975 2.547,-10e-4 0.989,-0.415 1.091,-0.137 0.109,0.212 4.254,-0.783 1.313,-0.284 0.211,-0.31 1.49,0.042 5.2,-1.313 1.54,-0.857 0.658,-0.036 0.122,-0.312 0.276,0.164 3.608,-0.906 3.565,-1.828 2.564,-0.819 0.134,-0.313 0.636,0.072 1.715,-0.919 4.505,-1.384 1.343,-0.964 1.375,-0.167 3.863,-1.64 7.583,-2.572 2.762,-0.248 13.468,-3.071 3.92,-0.035 4.977,-0.557 3.064,0.282 1.088,-0.479 -0.366,0.27"
     id="path13476" />
</g>
<g
   id="g13482"
   transform="matrix(0.86261295,0,0,0.86261295,-63.100778,79.729768)">
  <path
     fill="none"
     stroke="#000000"
     stroke-width="4"
     stroke-linecap="round"
     stroke-linejoin="round"
     d="m -193.816,956.116 -0.252,0.194 0.271,0.048 -0.223,-0.213 0.401,-0.124"
     id="path13480" />
</g>
<g
   id="g13486"
   transform="matrix(0.86261295,0,0,0.86261295,-63.100778,79.729768)">
  <path
     fill="none"
     stroke="#000000"
     stroke-width="4"
     stroke-linecap="round"
     stroke-linejoin="round"
     d="m -180.424,956.059 0.121,0.016"
     id="path13484" />
</g>
<g
   id="g13490"
   transform="matrix(0.86261295,0,0,0.86261295,-63.100778,79.729768)">
  <path
     fill="none"
     stroke="#000000"
     stroke-width="4"
     stroke-linecap="round"
     stroke-linejoin="round"
     d="m -167.354,956.387 0.019,-0.32"
     id="path13488" />
</g>
<g
   id="g13494"
   transform="matrix(0.86261295,0,0,0.86261295,-63.100778,79.729768)">
  <path
     fill="none"
     stroke="#000000"
     stroke-width="4"
     stroke-linecap="round"
     stroke-linejoin="round"
     d="m -401.321,851.887 -0.252,0.194 0.271,0.048 -0.223,-0.213 0.401,-0.125"
     id="path13492" />
</g>
<g
   id="g13498"
   transform="matrix(0.86261295,0,0,0.86261295,-63.100778,79.729768)">
  <path
     fill="none"
     stroke="#000000"
     stroke-width="4"
     stroke-linecap="round"
     stroke-linejoin="round"
     d="m -387.929,851.83 0.121,0.016"
     id="path13496" />
</g>
<g
   id="g13502"
   transform="matrix(0.86261295,0,0,0.86261295,-63.100778,79.729768)">
  <path
     fill="none"
     stroke="#000000"
     stroke-width="4"
     stroke-linecap="round"
     stroke-linejoin="round"
     d="m -374.859,852.158 0.019,-0.32"
     id="path13500" />
</g>
<g
   id="g13506"
   transform="matrix(0.86261295,0,0,0.86261295,-63.100778,79.729768)">
  <path
     fill="none"
     stroke="#000000"
     stroke-width="4"
     stroke-linecap="round"
     stroke-linejoin="round"
     d="m -414.932,600.422 0.406,0.089 -0.215,0.292 -0.183,8.291 0.35,3.121 -0.381,2.634 0.346,3.186 -0.428,3.342 0.457,14.872 -0.183,3.096 0.266,0.93 -0.305,3.285 0.42,3.543 -0.228,2.008 0.234,-0.175 0.075,0.719 -0.279,0.885 0.022,-1.024"
     id="path13504" />
</g>
<g
   id="g13510"
   transform="matrix(0.86261295,0,0,0.86261295,-63.100778,79.729768)">
  <path
     fill="none"
     stroke="#000000"
     stroke-width="4"
     stroke-linecap="round"
     stroke-linejoin="round"
     d="m -409.434,600.881 0.274,0.068 -0.286,0.061 0.513,1.911 -0.302,1.003 0.303,4.815 -0.266,2.285 0.224,3.491 -0.379,3.854 0.13,2.94 0.233,0.165 -0.339,0.594 -0.118,3.029 0.45,4.507 0.05,4.58 -0.224,0.004 0.345,0.308 0.198,2.291 -0.127,7.089 0.381,2.568 -0.271,1.61 0.382,1.085 -0.082,0.683 -0.092,-0.276 -0.288,0.256 0.337,-0.122 -0.104,0.538 0.221,0.073 -0.306,0.052 0.188,-1.231"
     id="path13508" />
</g>
<g
   id="g13514"
   transform="matrix(0.86261295,0,0,0.86261295,-63.100778,79.729768)">
  <path
     fill="none"
     stroke="#000000"
     stroke-width="4"
     stroke-linecap="round"
     stroke-linejoin="round"
     d="m -408.91,601.059 0.291,-0.267 0.628,1.197 0.579,3.826 1.031,3.324 0.436,3.698 1.173,3.876 0.045,1.953 0.884,5.127 0.509,1.095 0.784,4.891 0.504,0.985 1.856,11.087 0.954,3.386 0.121,2.435 0.55,0.883 0.023,1.043 0.255,-0.356 -0.178,0.474 -0.216,-0.075 0.22,-0.116 0.089,0.485 -0.58,-4.698 -0.474,-9.237 0.333,-16.253 0.488,-4.015 -0.018,-5.92 0.363,-1.838 -0.354,-1.126 0.388,-3.61 -0.287,-0.725 0.078,-1.198 0.088,0.239 0.172,-0.203 -0.083,0.307 -0.201,-0.308 0.253,0.205"
     id="path13512" />
</g>
<g
   id="g13518"
   transform="matrix(0.86261295,0,0,0.86261295,-63.100778,79.729768)">
  <path
     fill="none"
     stroke="#000000"
     stroke-width="4"
     stroke-linecap="round"
     stroke-linejoin="round"
     d="m -392.509,600.474 0.044,2.223 -0.539,2.389 0.356,4.158 -0.149,7.369 -0.311,1.797 0.295,2.983 0.059,9.742 -0.309,3.834 0.386,3.073 -0.38,3.895 0.377,2.021 -0.106,1.941 -0.214,-0.015 0.391,1.449 -0.317,1.977 0.158,-0.214 0.043,0.748 0.129,-0.251 -0.083,-0.363 -0.171,0.264 0.103,-1.011"
     id="path13516" />
</g>
<g
   id="g13522"
   transform="matrix(0.86261295,0,0,0.86261295,-63.100778,79.729768)">
  <path
     fill="none"
     stroke="#000000"
     stroke-width="4"
     stroke-linecap="round"
     stroke-linejoin="round"
     d="m -391.783,600.499 -0.325,0.135 0.225,0.222 0.329,-0.514 0.61,0.586 0.919,-0.32 0.043,-0.261 1.008,0.548 1.032,-0.035 1.5,1.585 0.78,2.096 0.043,1.335 -0.268,0.394 0.259,1.608 -0.053,4.329 0.386,2.311 -0.166,2.43 -0.228,0.037 0.337,2.436 -0.329,1.769 0.324,3.025 -0.371,1.598 0.208,3.155 -0.281,0.442 0.135,1.986 -0.344,2.929 0.425,2.69 -0.078,2.106 -0.252,0.062 0.33,1.751 0.183,-0.171 0.025,4.632 -0.863,2.709 -1.261,1.696 -0.165,-0.217 -0.642,0.613 -0.466,-0.243 -0.757,0.378 -1.619,0.162"
     id="path13520" />
</g>
<g
   id="g13526"
   transform="matrix(0.86261295,0,0,0.86261295,-63.100778,79.729768)">
  <path
     fill="none"
     stroke="#000000"
     stroke-width="4"
     stroke-linecap="round"
     stroke-linejoin="round"
     d="m -378.451,600.856 -0.692,-0.461 0.35,0.39 0.136,4.015 -0.413,1.197 0.219,0.586 -0.708,17.999 0.387,4.182 -0.253,2.414 0.342,4.021 -0.292,2.454 0.603,9.557 -0.377,3.251 0.467,0.084 0.213,-0.314 1.05,0.38 0.14,-0.328 0.747,0.083 0.09,-0.326 0.092,0.3 -0.063,-0.301 0.283,0.378 0.39,-0.023 0.01,0.287 0.421,-0.26 0.042,0.279 0.27,-0.412 0.531,0.042 0.058,-0.286 0.182,0.21 -0.098,-0.272 0.502,0.263 0.035,-0.275 0.334,0.433 0.462,-0.306 -0.101,-0.246 -0.015,0.312 -0.006,-0.214 -0.285,0.118"
     id="path13524" />
</g>
<g
   id="g13530"
   transform="matrix(0.86261295,0,0,0.86261295,-63.100778,79.729768)">
  <path
     fill="none"
     stroke="#000000"
     stroke-width="4"
     stroke-linecap="round"
     stroke-linejoin="round"
     d="m -377.998,600.521 -0.545,0.184 0.043,0.229 0.471,-0.254 0.297,0.194 0.053,-0.267 0.097,0.284 0.372,-0.162 0.525,0.43 1.492,-0.46 0.887,0.126 0.922,-0.468 0.016,0.391 0.316,-0.045 -0.178,0.338"
     id="path13528" />
</g>
<g
   id="g13534"
   transform="matrix(0.86261295,0,0,0.86261295,-63.100778,79.729768)">
  <path
     fill="none"
     stroke="#000000"
     stroke-width="4"
     stroke-linecap="round"
     stroke-linejoin="round"
     d="m -378.22,624.781 -0.383,0.445 1.729,-0.217 1.475,0.368 0.795,-0.357 0.678,0.249 0.061,-0.298 0.32,0.559 0.044,-0.254 -0.581,-0.118"
     id="path13532" />
</g>
<g
   id="g13538"
   transform="matrix(0.86261295,0,0,0.86261295,-63.100778,79.729768)">
  <path
     fill="none"
     stroke="#000000"
     stroke-width="4"
     stroke-linecap="round"
     stroke-linejoin="round"
     d="m -365.873,600.397 -0.194,0.162 0.462,0.86 0.26,2.084 0.789,1.784 0.633,3.852 -0.2,0.384 0.899,2.828 0.805,5.282 0.957,3.403 0.382,3.675 3.098,16.035 0.123,3.037 0.479,1.027 0.842,5.225 -0.586,-1.477"
     id="path13536" />
</g>
<g
   id="g13542"
   transform="matrix(0.86261295,0,0,0.86261295,-63.100778,79.729768)">
  <path
     fill="none"
     stroke="#000000"
     stroke-width="4"
     stroke-linecap="round"
     stroke-linejoin="round"
     d="m -355.364,599.969 0.194,0.761 -2.929,13.314 -0.722,5.398 -1.121,3.676 -0.472,3.689 -3.455,14.791 -0.159,3.099 -0.842,2.034 -0.012,1.618 -0.59,1.568 0.236,1.249 -0.118,-1.103"
     id="path13540" />
</g>
<g
   id="g13546"
   transform="matrix(0.86261295,0,0,0.86261295,-63.100778,79.729768)">
  <path
     fill="none"
     stroke="#000000"
     stroke-width="4"
     stroke-linecap="round"
     stroke-linejoin="round"
     d="m -206.998,598.089 -0.299,15.145 0.576,33.662"
     id="path13544" />
</g>
<g
   id="g13550"
   transform="matrix(0.86261295,0,0,0.86261295,-63.100778,79.729768)">
  <path
     fill="none"
     stroke="#000000"
     stroke-width="4"
     stroke-linecap="round"
     stroke-linejoin="round"
     d="m -206.598,598.24 -0.27,0.128 0.337,0.418 0.318,-0.24 0.845,0.297 0.859,-0.195 0.621,0.556 0.409,-0.012 0.132,0.393 0.52,-0.135 0.493,0.687 1.165,4.315 0.772,9.526 -0.126,5.08 0.576,8.224 0.195,9.234 -0.218,5.799 -0.982,3.666 -1.013,2.122 -0.218,-0.508 -0.668,0.498 -0.106,-0.238 -0.346,0.592 -0.075,-0.329 -0.561,0.643 -1.193,0.247 0.286,-0.391"
     id="path13548" />
</g>
<g
   id="g13554"
   transform="matrix(0.86261295,0,0,0.86261295,-63.100778,79.729768)">
  <path
     fill="none"
     stroke="#000000"
     stroke-width="4"
     stroke-linecap="round"
     stroke-linejoin="round"
     d="m -189.92,598.393 -0.402,-0.046 0.265,0.137 -2.351,23.933 -0.618,10.501 -1.356,14.074"
     id="path13552" />
</g>
<g
   id="g13558"
   transform="matrix(0.86261295,0,0,0.86261295,-63.100778,79.729768)">
  <path
     fill="none"
     stroke="#000000"
     stroke-width="4"
     stroke-linecap="round"
     stroke-linejoin="round"
     d="m -188.86,597.018 3.525,22.188 1.817,16.635 0.667,10.153"
     id="path13556" />
</g>
<g
   id="g13562"
   transform="matrix(0.86261295,0,0,0.86261295,-63.100778,79.729768)">
  <path
     fill="none"
     stroke="#000000"
     stroke-width="4"
     stroke-linecap="round"
     stroke-linejoin="round"
     d="m -191.447,625.94 0.618,0.46 0.176,-0.336 0.76,0.052 0.103,-0.359 0.052,0.277 0.133,-0.398 0.122,0.352 0.083,-0.252 0.15,0.358 0.112,-0.209 0.686,0.276 0.079,0.33 0.083,-0.315 0.234,0.294 0.122,-0.257 1.185,0.01 0.388,-0.3 0.166,0.329 0.062,-0.333 0.4,0.57 0.476,-0.025 -0.078,-0.272 0.275,0.312"
     id="path13560" />
</g>
<g
   id="g13566"
   transform="matrix(0.86261295,0,0,0.86261295,-63.100778,79.729768)">
  <path
     fill="none"
     stroke="#000000"
     stroke-width="4"
     stroke-linecap="round"
     stroke-linejoin="round"
     d="m -173.888,598.917 0.177,3.658 -0.394,10.666 0.344,16.88 -0.381,16.166 -0.099,1.324 -0.142,-1.228"
     id="path13564" />
</g>
<g
   id="g13570"
   transform="matrix(0.86261295,0,0,0.86261295,-63.100778,79.729768)">
  <path
     fill="none"
     stroke="#000000"
     stroke-width="4"
     stroke-linecap="round"
     stroke-linejoin="round"
     d="m -179.348,598.397 -0.056,-0.762 0.088,0.478 1,-0.584 1.558,0.05 0.098,-0.329 0.751,0.561 0.369,-0.297 0.301,0.242 1.143,-0.38 0.691,0.209 0.277,-0.327 0.19,0.375 1.402,0.067 0.306,0.281 1.172,-0.514 0.56,0.446 0.338,-0.226"
     id="path13568" />
</g>
<g
   id="g13574"
   transform="matrix(0.86261295,0,0,0.86261295,-63.100778,79.729768)">
  <path
     fill="none"
     stroke="#000000"
     stroke-width="4"
     stroke-linecap="round"
     stroke-linejoin="round"
     d="m -160.45,597.68 -0.278,-0.297 0.214,1.797 -0.446,4.535 -0.602,3.142 -1.647,14.833 -1.356,8.161 -0.455,5.074 -0.829,4.081 -0.631,8.681 -0.103,-1.19"
     id="path13572" />
</g>
<g
   id="g13578"
   transform="matrix(0.86261295,0,0,0.86261295,-63.100778,79.729768)">
  <path
     fill="none"
     stroke="#000000"
     stroke-width="4"
     stroke-linecap="round"
     stroke-linejoin="round"
     d="m -159.845,597.756 0.063,0.286 0.106,-0.405 0.201,0.731 1.524,8.677 1.679,15.539 0.773,3.873 2.66,20.61 -0.015,0.8 -0.651,-2.156"
     id="path13576" />
</g>
<g
   id="g13582"
   transform="matrix(0.86261295,0,0,0.86261295,-63.100778,79.729768)">
  <path
     fill="none"
     stroke="#000000"
     stroke-width="4"
     stroke-linecap="round"
     stroke-linejoin="round"
     d="m -163.318,626.959 0.033,0.395 0.094,-0.62 0.113,0.37 1.005,-0.111 1.165,-0.5 1.011,-0.035 0.233,-0.3 0.761,0.184 0.501,-0.312 1.018,0.279 0.615,-0.733"
     id="path13580" />
</g>
<g
   id="g13586"
   transform="matrix(0.86261295,0,0,0.86261295,-63.100778,79.729768)">
  <path
     fill="none"
     stroke="#000000"
     stroke-width="4"
     stroke-linecap="round"
     stroke-linejoin="round"
     d="m -235.661,780.441 0.091,0.212"
     id="path13584" />
</g>
<g
   id="g13590"
   transform="matrix(0.86261295,0,0,0.86261295,-63.100778,79.729768)">
  <path
     fill="none"
     stroke="#000000"
     stroke-width="4"
     stroke-linecap="round"
     stroke-linejoin="round"
     d="m -237.172,779.988 -5.408,-0.504 -7.634,-1.496 -5.725,-0.443 -3.236,-0.74 -0.433,-0.341 -0.484,0.063 0.208,0.32 0.118,-0.231"
     id="path13588" />
</g>
<g
   id="g13594"
   transform="matrix(0.86261295,0,0,0.86261295,-63.100778,79.729768)">
  <path
     fill="none"
     stroke="#000000"
     stroke-width="4"
     stroke-linecap="round"
     stroke-linejoin="round"
     d="m -236.449,781.102 -0.809,-0.23 -1.777,0.72 -2.088,0.188 -3.387,0.856 -1.05,-0.056 -3.041,0.985 -2.693,0.179 -0.609,0.339 -0.067,-0.24 -1.063,0.595 -3.018,0.251 -2.073,0.712 -0.105,0.28 -1.065,0.03 0.109,-0.24 0.739,0.025"
     id="path13592" />
</g>
<g
   id="g13598"
   transform="matrix(0.86261295,0,0,0.86261295,-63.100778,79.729768)">
  <path
     fill="none"
     stroke="#000000"
     stroke-width="4"
     stroke-linecap="round"
     stroke-linejoin="round"
     d="m -262.579,777.272 0.423,-0.05 -0.591,-0.166 0.572,1.713 -0.161,2.731 0.334,1.479 -0.715,3.29 1.912,-0.725"
     id="path13596" />
</g>
<g
   id="g13602"
   transform="matrix(0.86261295,0,0,0.86261295,-63.100778,79.729768)">
  <path
     fill="none"
     stroke="#000000"
     stroke-width="4"
     stroke-linecap="round"
     stroke-linejoin="round"
     d="m -260.006,786.048 -0.031,-0.398 -0.149,0.287 -1.418,0.16 -0.11,-0.257 -0.782,0.464"
     id="path13600" />
</g>
<g
   id="g13606"
   transform="matrix(0.86261295,0,0,0.86261295,-63.100778,79.729768)">
  <path
     fill="none"
     stroke="#000000"
     stroke-width="4"
     stroke-linecap="round"
     stroke-linejoin="round"
     d="m -261.834,776.9 -0.444,-0.595 -0.055,0.393 -0.569,-0.502 1.416,0.463 0.703,-0.129 -0.23,0.321 0.163,-0.417 -1.514,-0.355 0.922,0.255"
     id="path13604" />
</g>
<g
   id="g13610"
   transform="matrix(0.86261295,0,0,0.86261295,-63.100778,79.729768)">
  <path
     fill="none"
     stroke="#000000"
     stroke-width="4"
     stroke-linecap="round"
     stroke-linejoin="round"
     d="m -234.994,935.644 0.092,0.213"
     id="path13608" />
</g>
<g
   id="g13614"
   transform="matrix(0.86261295,0,0,0.86261295,-63.100778,79.729768)">
  <path
     fill="none"
     stroke="#000000"
     stroke-width="4"
     stroke-linecap="round"
     stroke-linejoin="round"
     d="m -236.505,935.191 -5.407,-0.504 -7.634,-1.496 -5.726,-0.443 -3.236,-0.74 -0.432,-0.34 -0.485,0.062 0.209,0.32 0.118,-0.231"
     id="path13612" />
</g>
<g
   id="g13618"
   transform="matrix(0.86261295,0,0,0.86261295,-63.100778,79.729768)">
  <path
     fill="none"
     stroke="#000000"
     stroke-width="4"
     stroke-linecap="round"
     stroke-linejoin="round"
     d="m -235.782,936.305 -0.809,-0.23 -1.777,0.72 -2.088,0.188 -3.386,0.856 -1.05,-0.056 -3.041,0.986 -2.693,0.178 -0.61,0.339 -0.067,-0.24 -1.063,0.595 -3.018,0.251 -2.072,0.712 -0.106,0.28 -1.064,0.03 0.108,-0.24 0.74,0.025"
     id="path13616" />
</g>
<g
   id="g13622"
   transform="matrix(0.86261295,0,0,0.86261295,-63.100778,79.729768)">
  <path
     fill="none"
     stroke="#000000"
     stroke-width="4"
     stroke-linecap="round"
     stroke-linejoin="round"
     d="m -261.911,932.475 0.423,-0.049 -0.592,-0.167 0.573,1.713 -0.162,2.732 0.335,1.478 -0.715,3.29 1.911,-0.725"
     id="path13620" />
</g>
<g
   id="g13626"
   transform="matrix(0.86261295,0,0,0.86261295,-63.100778,79.729768)">
  <path
     fill="none"
     stroke="#000000"
     stroke-width="4"
     stroke-linecap="round"
     stroke-linejoin="round"
     d="m -259.339,941.251 -0.03,-0.398 -0.15,0.287 -1.418,0.16 -0.109,-0.257 -0.782,0.464"
     id="path13624" />
</g>
<g
   id="g13630"
   transform="matrix(0.86261295,0,0,0.86261295,-63.100778,79.729768)">
  <path
     fill="none"
     stroke="#000000"
     stroke-width="4"
     stroke-linecap="round"
     stroke-linejoin="round"
     d="m -261.167,932.104 -0.443,-0.596 -0.055,0.393 -0.569,-0.502 1.416,0.464 0.703,-0.13 -0.23,0.321 0.162,-0.417 -1.514,-0.355 0.923,0.255"
     id="path13628" />
</g>
<g
   id="g13634"
   transform="matrix(0.86261295,0,0,0.86261295,-63.100778,79.729768)">
  <path
     fill="none"
     stroke="#000000"
     stroke-width="4"
     stroke-linecap="round"
     stroke-linejoin="round"
     d="m -263.516,780.777 0.228,0.002 -0.179,0.256 -1.07,0.512 -2.235,0.373 -0.099,-0.205 -0.585,0.409 -0.715,-0.124 -0.934,0.306 -2.706,-0.324 -1.594,0.315 -2.523,-0.702 -0.555,0.163 -1.594,-0.314 -0.091,0.203 -3.202,-1.155 -0.599,0.158 -6.303,-3.238 -2.3,-2.097 -0.76,-0.268 -4.775,-3.56 -0.69,-1.042 -0.166,0.143 -2.143,-1.601 -3.141,-2.871 -1.31,-0.995 -0.398,0.104 -0.751,-0.402 -3.195,-2.87 -2.403,-1.337 -1.217,-1.213 -3.289,-1.301 -3.616,-2.202 -3.148,-1.154 -0.45,0.177 -0.566,-0.449 -0.15,0.23 -2.741,-1.194 -2.497,0.235 -1.972,-0.568 -1.866,0.375 -2.385,-0.384 -0.848,0.416"
     id="path13632" />
</g>
<g
   id="g13638"
   transform="matrix(0.86261295,0,0,0.86261295,-63.100778,79.729768)">
  <path
     fill="none"
     stroke="#000000"
     stroke-width="4"
     stroke-linecap="round"
     stroke-linejoin="round"
     d="m -263.146,936.751 0.107,0.288 -0.062,-0.506 -0.049,0.382 -5.103,-0.547 -3.846,-1.087 -1.199,-0.986 -1.169,-0.338 -4.84,-3.162 -3.208,-3.144 -2.871,-2.257 -2.374,-2.647 -4.16,-5.894 -2.249,-3.817 -2.119,-4.17 -2.719,-7.123 -1.357,-4.302 -1.496,-7.16 -1.383,-10.793 -1.207,-23.124 -1.746,-16.927 -1.498,-8.766 -1.93,-5.581 -3.073,-5.898 -1.702,-2.371 -1.489,-1.407 -2.704,-3.496 -1.338,-1.145 -2.593,-1.251 -1.568,-0.375 -0.553,-0.543 -2.291,-0.445 -0.71,-0.452 -3.161,-0.391 -0.757,-0.506 -2.108,-0.005 -0.539,-0.31 -1.998,0.444"
     id="path13636" />
</g>
<g
   id="g13642"
   transform="matrix(0.86261295,0,0,0.86261295,-63.100778,79.729768)">
  <path
     fill="none"
     stroke="#000000"
     stroke-width="4"
     stroke-linecap="round"
     stroke-linejoin="round"
     d="m -124.075,676.132 0.45,-0.208 1.129,0.503 2.281,2.441 2.171,3.985 0.914,3.561 0.276,1.589 -0.145,7.449 0.337,11.18 -0.23,5.781 0.84,6.966 2.783,5.341 1.563,1.805 2.828,1.379"
     id="path13640" />
</g>
<g
   id="g13646"
   transform="matrix(0.86261295,0,0,0.86261295,-63.100778,79.729768)">
  <path
     fill="none"
     stroke="#000000"
     stroke-width="4"
     stroke-linecap="round"
     stroke-linejoin="round"
     d="m -108.491,727.874 -0.46,0.431 -0.81,-0.126 -0.006,0.249 -2.715,0.89 -0.845,1.158 -0.533,1.844 -0.066,4.964 -0.404,2.584 0.508,4.86 -0.495,7.456 0.24,11.395 -0.372,6.512 -0.875,4.054 -1.98,3.048 -1.52,1.396 -1.698,0.455 -0.996,0.674 -0.309,-0.199 0.146,0.998"
     id="path13644" />
</g>
<g
   id="g13650"
   transform="matrix(0.86261295,0,0,0.86261295,-63.100778,79.729768)">
  <path
     fill="none"
     stroke="#000000"
     stroke-width="4"
     stroke-linecap="round"
     stroke-linejoin="round"
     d="m -122.293,781.032 -0.013,-0.245 0.01,0.396 0.373,-0.389 0.742,-0.107 0.863,0.81 0.911,0.283 0.774,1.39 1.117,1.011 1.06,2.288 0.488,2.767 0.21,8.481 -0.219,1.638 0.71,8.902 -0.221,1.184 0.166,4.805 -0.651,12.342 -0.323,1.305 -0.762,10.65 0.396,8.254 0.605,5.909 1.275,4.094 1.428,2.155 1.526,1.235 0.259,-0.09 0.78,0.667 0.139,-0.272 -0.032,0.329 -0.322,-0.138"
     id="path13648" />
</g>
<g
   id="g13654"
   transform="matrix(0.86261295,0,0,0.86261295,-63.100778,79.729768)">
  <path
     fill="none"
     stroke="#000000"
     stroke-width="4"
     stroke-linecap="round"
     stroke-linejoin="round"
     d="m -110.286,861.339 0.098,-0.367 0.074,0.349 -1.363,-0.091 -0.52,0.713 -1.535,1.019 -0.739,1.94 -2.197,10.924 -1.394,16.776 -0.054,15.273 0.332,9.424 -0.543,10.534 -0.733,3.178 -0.782,1.154 -1.368,0.785 -0.469,0.988 -0.527,-0.155 -0.108,0.279 -0.632,-0.172 -0.03,0.314 -0.246,-0.06"
     id="path13652" />
</g>
<g
   id="g13658"
   transform="matrix(0.86261295,0,0,0.86261295,-63.100778,79.729768)">
  <path
     fill="none"
     stroke="#000000"
     stroke-width="4"
     stroke-linecap="round"
     stroke-linejoin="round"
     d="m -56.7576,702.493 0.3081,8.657 -0.3878,11.692 0.0554,26.02 0.2005,2.721 0.1228,-0.578"
     id="path13656" />
</g>
<g
   id="g13662"
   transform="matrix(0.86261295,0,0,0.86261295,-63.100778,79.729768)">
  <path
     fill="none"
     stroke="#000000"
     stroke-width="4"
     stroke-linecap="round"
     stroke-linejoin="round"
     d="m -55.4442,727.387 0.1713,-1.259 1.2752,-1.223 0.7998,0.363 0.1843,-0.386 0.7793,0.56 1.0054,1.303 1.1886,2.405 0.8837,4.234 0.0673,7.48 -1.1883,8.38 -0.6729,1.886 -0.9751,0.058 -0.0076,-0.209 -0.371,0.273 -0.0858,-0.387 -0.2701,0.528 -0.5658,0.22 -0.5905,-0.607 -0.0778,0.303 0.3067,-0.312"
     id="path13660" />
</g>
<g
   id="g13666"
   transform="matrix(0.86261295,0,0,0.86261295,-63.100778,79.729768)">
  <path
     fill="none"
     stroke="#000000"
     stroke-width="4"
     stroke-linecap="round"
     stroke-linejoin="round"
     d="m -44.3371,725.182 0.4905,5.125 0.3625,17.578 0.4692,2.389 0.8149,1.577 0.841,0.007 0.2152,-0.291 0.7287,0.284 0.9852,-1.236 0.3523,0.162 0.559,-1.71"
     id="path13664" />
</g>
<g
   id="g13670"
   transform="matrix(0.86261295,0,0,0.86261295,-63.100778,79.729768)">
  <path
     fill="none"
     stroke="#000000"
     stroke-width="4"
     stroke-linecap="round"
     stroke-linejoin="round"
     d="m -36.8409,725.055 -0.1874,13.933 -0.5623,8.147 -0.092,17.359 -0.5037,4.308 -0.5941,1.033 -2.2851,1.581 -0.8439,-0.471 -1.5528,-1.788 -0.0279,0.268 -0.1602,-0.778"
     id="path13668" />
</g>
<g
   id="g13674"
   transform="matrix(0.86261295,0,0,0.86261295,-63.100778,79.729768)">
  <path
     fill="none"
     stroke="#000000"
     stroke-width="4"
     stroke-linecap="round"
     stroke-linejoin="round"
     d="m -27.9992,714.782 0.763,23.26 -0.1187,13.322"
     id="path13672" />
</g>
<g
   id="g13678"
   transform="matrix(0.86261295,0,0,0.86261295,-63.100778,79.729768)">
  <path
     fill="none"
     stroke="#000000"
     stroke-width="4"
     stroke-linecap="round"
     stroke-linejoin="round"
     d="m -31.1074,724.87 -0.2704,0.096 -0.0043,-0.426 0.0615,0.505 0.1411,-0.251 0.8271,0.302 1.8241,-0.014 1.1905,-0.377 1.6855,0.57 1.0504,0.002 0.2643,-0.389 0.0572,0.291 0.0342,-0.212 0.8436,0.511 -0.0638,-0.453 0.0171,0.283"
     id="path13676" />
</g>
<g
   id="g13682"
   transform="matrix(0.86261295,0,0,0.86261295,-63.100778,79.729768)">
  <path
     fill="none"
     stroke="#000000"
     stroke-width="4"
     stroke-linecap="round"
     stroke-linejoin="round"
     d="m -17.8395,736.115 0.2051,0.345 1.1857,-1.062 2.0576,-1.012 1.3806,-1.447 0.9787,-2.345 0.0666,-1.243 -0.4722,-1.79 -1.0792,-1.595 -0.6304,-0.062 -1.2795,-0.798 -1.1176,0.256 -1.2089,1.073 -0.5654,7.647 0.1413,11.779 0.3547,4.505 1.3881,1.795 0.2554,-0.285 0.7393,0.052 0.2072,-0.363 0.106,0.225 0.2018,-0.272 1.0873,-0.057 1.9984,-2.526"
     id="path13680" />
</g>
<g
   id="g13686"
   transform="matrix(0.86261295,0,0,0.86261295,-63.100778,79.729768)">
  <path
     fill="none"
     stroke="#000000"
     stroke-width="4"
     stroke-linecap="round"
     stroke-linejoin="round"
     d="m -0.488233,725.992 -0.304497,0.24 0.18116,-0.256 -0.82264,-1.014 -0.81789,0.099 -0.22784,-0.277 -0.10883,0.269 -0.97679,-0.717 -0.40158,0.182 -0.04189,-0.21 -1.18258,0.907 -0.79379,1.257 -0.60495,5.66 0.19271,1.88 0.70112,1.918 1.08708,1.436 0.74827,0.131 0.30555,0.583 1.6236,1.231 1.109581,1.92 0.564079,2.858 -0.21315,5.215 -0.73267,1.965 -1.01652,1.001 -0.82395,-0.352 -0.5708,0.444 -0.08103,-0.212 -0.6769,0.202 -0.90453,-0.731 -0.43312,0.013 -0.83416,-1.779"
     id="path13684" />
</g>
<g
   id="g13690"
   transform="matrix(0.86261295,0,0,0.86261295,-63.100778,79.729768)">
  <path
     fill="none"
     stroke="#000000"
     stroke-width="4"
     stroke-linecap="round"
     stroke-linejoin="round"
     d="m -67.5228,834.814 -0.0641,0.279 -0.5821,-0.815 -0.3958,0.12 -0.7089,-0.467 -0.489,0.275 -1.2982,-0.146 -0.9094,1.922 -0.5585,4.406 -0.3552,5.557 0.2692,14.488 -0.5791,13.604 0.0575,3.954 0.4727,3.703 1.0126,1.316 1.2303,-0.192 0.0673,0.29 1.3086,-0.691 0.6585,0.284 0.712,-1.264 0.0344,0.28 0.579,-0.576 0.8343,-3 0.7019,-14.618 0.8127,-8.069 0.4515,-12.698 -0.4789,-4.816 -0.2909,0.048 -0.687,-1.612 -0.4131,-0.149 -0.21,0.299"
     id="path13688" />
</g>
<g
   id="g13694"
   transform="matrix(0.86261295,0,0,0.86261295,-63.100778,79.729768)">
  <path
     fill="none"
     stroke="#000000"
     stroke-width="4"
     stroke-linecap="round"
     stroke-linejoin="round"
     d="m -55.2252,833.971 0.3082,8.657 -0.3878,11.692 0.0554,26.019 0.2004,2.721 0.1229,-0.577"
     id="path13692" />
</g>
<g
   id="g13698"
   transform="matrix(0.86261295,0,0,0.86261295,-63.100778,79.729768)">
  <path
     fill="none"
     stroke="#000000"
     stroke-width="4"
     stroke-linecap="round"
     stroke-linejoin="round"
     d="m -53.9118,858.864 0.1714,-1.258 1.2752,-1.224 0.7997,0.363 0.1844,-0.386 0.7792,0.561 1.0054,1.303 1.1886,2.404 0.8837,4.235 0.0673,7.48 -1.1882,8.38 -0.673,1.886 -0.9751,0.057 -0.0075,-0.209 -0.371,0.274 -0.0858,-0.388 -0.2701,0.529 -0.5659,0.22 -0.5904,-0.607 -0.0778,0.303 0.3066,-0.313"
     id="path13696" />
</g>
<g
   id="g13702"
   transform="matrix(0.86261295,0,0,0.86261295,-63.100778,79.729768)">
  <path
     fill="none"
     stroke="#000000"
     stroke-width="4"
     stroke-linecap="round"
     stroke-linejoin="round"
     d="m -42.8046,856.659 0.4904,5.126 0.3626,17.578 0.4691,2.389 0.8149,1.577 0.841,0.007 0.2152,-0.291 0.7288,0.283 0.9851,-1.235 0.3524,0.161 0.5589,-1.709"
     id="path13700" />
</g>
<g
   id="g13706"
   transform="matrix(0.86261295,0,0,0.86261295,-63.100778,79.729768)">
  <path
     fill="none"
     stroke="#000000"
     stroke-width="4"
     stroke-linecap="round"
     stroke-linejoin="round"
     d="m -35.3085,856.532 -0.1873,13.934 -0.5624,8.146 -0.0919,17.36 -0.5037,4.308 -0.5942,1.033 -2.2851,1.58 -0.8438,-0.47 -1.5529,-1.788 -0.0278,0.268 -0.1602,-0.778"
     id="path13704" />
</g>
<g
   id="g13710"
   transform="matrix(0.86261295,0,0,0.86261295,-63.100778,79.729768)">
  <path
     fill="none"
     stroke="#000000"
     stroke-width="4"
     stroke-linecap="round"
     stroke-linejoin="round"
     d="m -26.4667,846.26 0.7629,23.26 -0.1187,13.321"
     id="path13708" />
</g>
<g
   id="g13714"
   transform="matrix(0.86261295,0,0,0.86261295,-63.100778,79.729768)">
  <path
     fill="none"
     stroke="#000000"
     stroke-width="4"
     stroke-linecap="round"
     stroke-linejoin="round"
     d="m -29.5749,856.348 -0.2704,0.096 -0.0043,-0.426 0.0614,0.504 0.1411,-0.25 0.8271,0.302 1.8242,-0.014 1.1905,-0.377 1.6854,0.57 1.0505,10e-4 0.2643,-0.388 0.0572,0.291 0.0342,-0.212 0.8436,0.51 -0.0638,-0.452 0.017,0.282"
     id="path13712" />
</g>
<g
   id="g13718"
   transform="matrix(0.86261295,0,0,0.86261295,-63.100778,79.729768)">
  <path
     fill="none"
     stroke="#000000"
     stroke-width="4"
     stroke-linecap="round"
     stroke-linejoin="round"
     d="m -16.3071,867.593 0.2051,0.344 1.1858,-1.061 2.0575,-1.012 1.3807,-1.447 0.9787,-2.345 0.0665,-1.243 -0.4721,-1.791 -1.0792,-1.594 -0.6304,-0.062 -1.2795,-0.799 -1.1176,0.256 -1.2089,1.073 -0.5655,7.647 0.1413,11.78 0.3548,4.504 1.388,1.796 0.2555,-0.286 0.7393,0.052 0.2071,-0.362 0.106,0.224 0.2018,-0.271 1.0873,-0.057 1.9985,-2.526"
     id="path13716" />
</g>
<g
   id="g13722"
   transform="matrix(0.86261295,0,0,0.86261295,-63.100778,79.729768)">
  <path
     fill="none"
     stroke="#000000"
     stroke-width="4"
     stroke-linecap="round"
     stroke-linejoin="round"
     d="m 1.04422,857.469 -0.304503,0.241 0.18116,-0.256 -0.8226396,-1.014 -0.8178864,0.099 -0.227844,-0.277 -0.108827,0.269 -0.97679,-0.717 -0.40158,0.181 -0.04189,-0.209 -1.18258,0.907 -0.7938,1.256 -0.60495,5.66 0.19272,1.881 0.70111,1.918 1.08709,1.436 0.74827,0.131 0.30554,0.583 1.623607,1.231 1.109581,1.919 0.564082,2.858 -0.21315,5.216 -0.732669,1.964 -1.016525,1.002 -0.823946,-0.352 -0.57081,0.444 -0.08102,-0.213 -0.6769,0.202 -0.90453,-0.73 -0.43312,0.012 -0.83416,-1.778"
     id="path13720" />
</g>
<g
   id="g13726"
   transform="matrix(0.86261295,0,0,0.86261295,-63.100778,79.729768)">
  <path
     fill="none"
     stroke="#000000"
     stroke-width="4"
     stroke-linecap="round"
     stroke-linejoin="round"
     d="m -98.5921,713.059 0.0801,0.408 1.6912,-4.372 1.4357,-6.038 -0.0964,0.288 -0.121,-0.513 -0.1495,1.689 -0.1927,23.344 0.5264,22.854"
     id="path13724" />
</g>
<g
   id="g13730"
   transform="matrix(0.86261295,0,0,0.86261295,-63.100778,79.729768)">
  <path
     fill="none"
     stroke="#000000"
     stroke-width="4"
     stroke-linecap="round"
     stroke-linejoin="round"
     d="m -83.2647,703.826 -0.3061,-0.882 -2.7189,-0.34 -1.3299,0.789 -0.562,1.748 -0.3227,12.355 0.373,13.181 -0.3616,14.199 0.2721,4.676 0.7434,1.626 2.1178,0.109 1.2091,-0.424 0.0783,0.253 1.1974,-0.942 0.6027,-0.674 0.6264,-3.008 0.7131,-9.149 0.6004,-18.306 -0.3003,-5.591 0.1766,-3.62 -0.91,-4.57 -0.4125,-0.308"
     id="path13728" />
</g>
<g
   id="g13734"
   transform="matrix(0.86261295,0,0,0.86261295,-63.100778,79.729768)">
  <path
     fill="none"
     stroke="#000000"
     stroke-width="4"
     stroke-linecap="round"
     stroke-linejoin="round"
     d="m -69.0552,703.336 -0.0642,0.279 -0.5821,-0.815 -0.3958,0.12 -0.7089,-0.466 -0.4889,0.274 -1.2982,-0.145 -0.9095,1.922 -0.5584,4.405 -0.3552,5.557 0.2691,14.488 -0.579,13.604 0.0575,3.954 0.4727,3.703 1.0126,1.316 1.2302,-0.192 0.0674,0.29 1.3085,-0.69 0.6585,0.284 0.712,-1.265 0.0345,0.28 0.579,-0.576 0.8343,-3 0.7019,-14.618 0.8126,-8.068 0.4515,-12.698 -0.4788,-4.817 -0.2909,0.049 -0.687,-1.613 -0.4131,-0.149 -0.21,0.299"
     id="path13732" />
</g>
<g
   id="g13738"
   transform="matrix(0.86261295,0,0,0.86261295,-63.100778,79.729768)">
  <path
     fill="none"
     stroke="#000000"
     stroke-width="4"
     stroke-linecap="round"
     stroke-linejoin="round"
     d="m -81.7322,835.303 -0.3061,-0.881 -2.7189,-0.34 -1.33,0.789 -0.562,1.748 -0.3226,12.354 0.3729,13.182 -0.3615,14.199 0.2721,4.676 0.7433,1.626 2.1178,0.108 1.2092,-0.423 0.0782,0.252 1.1974,-0.942 0.6027,-0.673 0.6264,-3.008 0.7132,-9.149 0.6004,-18.307 -0.3003,-5.59 0.1766,-3.62 -0.91,-4.57 -0.4125,-0.308"
     id="path13736" />
</g>
<g
   id="g13742"
   transform="matrix(0.86261295,0,0,0.86261295,-63.100778,79.729768)">
  <path
     fill="none"
     stroke="#000000"
     stroke-width="4"
     stroke-linecap="round"
     stroke-linejoin="round"
     d="m -98.3887,838.091 -0.2701,0.141 0.0485,-1.219 0.522,-1.529 1.4379,-1.599 0.2307,0.233 0.3404,-0.247 0.2561,0.404 0.5968,-0.016 0.0735,0.354 0.2574,-0.266 0.8212,0.559 0.0581,-0.228 0.1574,0.349 0.0976,-0.188 0.0961,0.301 0.0211,-0.214 1.3685,2.699 0.0857,1.422 -0.7847,7.313 -0.9984,3.755 -0.9963,2.379 -2.2943,11.478 -0.8975,13.525 0.0917,5.381 0.0934,-0.319 0.8015,0.437 0.9424,-0.27 0.6222,-0.685 0.2038,0.29 0.2548,-0.282 1.6275,0.275 1.3122,-0.348 -0.0104,0.435 -5e-4,-0.29 0.2938,0.038"
     id="path13740" />
</g>
<g
   id="g13746"
   transform="matrix(0.86261295,0,0,0.86261295,-63.100778,79.729768)">
  <path
     fill="none"
     stroke="#000000"
     stroke-width="2.63088"
     stroke-linecap="round"
     stroke-linejoin="round"
     d="m -388.186,790.91 -0.202,-0.579 -1.788,-0.224 -0.875,0.519 -0.369,1.15 -0.213,8.125 0.246,8.67 -0.238,9.339 0.179,3.075 0.489,1.07 1.393,0.071 0.795,-0.278 0.051,0.166 0.788,-0.619 0.396,-0.443 0.412,-1.979 0.469,-6.017 0.395,-12.041 -0.197,-3.677 0.116,-2.381 -0.599,-3.006 -0.271,-0.202"
     id="path13744" />
</g>
<g
   id="g13750"
   transform="matrix(0.86261295,0,0,0.86261295,-63.100778,79.729768)">
  <path
     fill="none"
     stroke="#000000"
     stroke-width="2.63088"
     stroke-linecap="round"
     stroke-linejoin="round"
     d="m -378.841,790.589 -0.042,0.183 -0.383,-0.536 -0.26,0.079 -0.466,-0.307 -0.322,0.181 -0.854,-0.096 -0.598,1.264 -0.367,2.897 -0.234,3.656 0.177,9.528 -0.381,8.948 0.038,2.601 0.311,2.435 0.666,0.866 0.809,-0.126 0.045,0.19 0.86,-0.454 0.433,0.187 0.469,-0.832 0.022,0.185 0.381,-0.379 0.549,-1.974 0.462,-9.614 0.534,-5.307 0.297,-8.352 -0.315,-3.168 -0.191,0.032 -0.452,-1.06 -0.272,-0.098 -0.138,0.196"
     id="path13748" />
</g>
<g
   id="g13754"
   transform="matrix(0.86261295,0,0,0.86261295,-63.100778,79.729768)">
  <path
     fill="none"
     stroke="#000000"
     stroke-width="2.63088"
     stroke-linecap="round"
     stroke-linejoin="round"
     d="m -398.196,792.617 -0.219,-0.059 0.069,-0.293 0.362,-0.544 1.389,-0.813 0.376,0.178 0.751,1.048 0.155,0.663 0.115,2.104 -0.168,1.909 -0.816,4.472 -1.268,3.597 -0.892,1.74 0.112,0.084 0.404,-0.979 0.041,0.162 0.032,-0.198 0.029,0.152 0.444,-0.145 0.622,0.372 0.073,-0.136 0.038,0.197 0.041,-0.17 0.733,1.519 0.293,1.232 0.271,3.497 -0.149,4.068 -0.404,2.533 -0.552,1.831 -1.152,1.824 -0.813,-0.034 -0.462,-0.341 -0.537,-0.08 -0.718,-0.719 -0.335,-0.9 -0.07,0.149"
     id="path13752" />
</g>
<g
   id="g13758"
   transform="matrix(0.86261295,0,0,0.86261295,-63.100778,79.729768)">
  <path
     fill="none"
     stroke="#000000"
     stroke-width="2.63088"
     stroke-linecap="round"
     stroke-linejoin="round"
     d="m -398.382,745.81 0.053,0.268 1.112,-2.875 0.944,-3.972 -0.063,0.19 -0.08,-0.338 -0.098,1.111 -0.127,15.354 0.347,15.031"
     id="path13756" />
</g>
<g
   id="g13762"
   transform="matrix(0.86261295,0,0,0.86261295,-63.100778,79.729768)">
  <path
     fill="none"
     stroke="#000000"
     stroke-width="2.63088"
     stroke-linecap="round"
     stroke-linejoin="round"
     d="m -388.301,739.737 -0.201,-0.58 -1.788,-0.224 -0.875,0.519 -0.37,1.15 -0.212,8.126 0.245,8.669 -0.237,9.34 0.179,3.075 0.488,1.069 1.393,0.072 0.796,-0.279 0.051,0.166 0.788,-0.619 0.396,-0.443 0.412,-1.979 0.469,-6.017 0.395,-12.041 -0.197,-3.677 0.116,-2.381 -0.599,-3.005 -0.271,-0.203"
     id="path13760" />
</g>
<g
   id="g13766"
   transform="matrix(0.86261295,0,0,0.86261295,-63.100778,79.729768)">
  <path
     fill="none"
     stroke="#000000"
     stroke-width="2.63088"
     stroke-linecap="round"
     stroke-linejoin="round"
     d="m -378.955,739.415 -0.042,0.184 -0.383,-0.537 -0.26,0.079 -0.467,-0.307 -0.321,0.181 -0.854,-0.096 -0.598,1.264 -0.367,2.898 -0.234,3.655 0.177,9.529 -0.381,8.948 0.038,2.6 0.311,2.436 0.666,0.865 0.809,-0.126 0.044,0.191 0.861,-0.455 0.433,0.187 0.468,-0.831 0.023,0.184 0.381,-0.379 0.549,-1.973 0.461,-9.615 0.535,-5.306 0.297,-8.352 -0.315,-3.168 -0.192,0.032 -0.451,-1.061 -0.272,-0.098 -0.138,0.197"
     id="path13764" />
</g>
<g
   id="g13770"
   transform="matrix(0.86261295,0,0,0.86261295,-63.100778,79.729768)">
  <path
     fill="none"
     stroke="#000000"
     stroke-width="2.61779"
     stroke-linecap="round"
     stroke-linejoin="round"
     d="m -403.426,687.764 0.169,0.08 0.009,-0.231 0.177,0.928 0.186,2.108 -0.182,0.681 0.165,7.9 -0.34,5.035 0.196,1.122 -0.042,4.682 -0.184,1.14 0.236,4.015 -0.111,3.989"
     id="path13768" />
</g>
<g
   id="g13774"
   transform="matrix(0.86261295,0,0,0.86261295,-63.100778,79.729768)">
  <path
     fill="none"
     stroke="#000000"
     stroke-width="2.61779"
     stroke-linecap="round"
     stroke-linejoin="round"
     d="m -403.768,688.243 0.333,-0.004 0.753,0.984 1.574,8.727 1.618,11.684 0.337,1.017 0.15,1.547 0.24,0.313 -0.121,0.806 1.584,6.703 0.117,-1.555 -0.33,-3.4 0.039,-3.92 0.404,-4.604 -0.135,-2.122 0.19,-1.022 0.032,-2.848 -0.166,-0.789 0.438,-3.568 -0.065,-5.414 0.26,-1.713 -0.217,-0.389 0.101,-0.299 0.048,0.206 -0.009,-0.203 0.097,0.093 -0.008,0.782"
     id="path13772" />
</g>
<g
   id="g13778"
   transform="matrix(0.86261295,0,0,0.86261295,-63.100778,79.729768)">
  <path
     fill="none"
     stroke="#000000"
     stroke-width="2.61779"
     stroke-linecap="round"
     stroke-linejoin="round"
     d="m -390.127,700.862 0.22,-0.232 -0.034,0.267 0.328,-0.004 0.041,0.161 0.657,-0.255 0.161,0.184 0.452,-0.181 0.071,0.159 0.031,-0.365 0.146,0.395 0.903,-0.155 0.015,0.157 0.846,-0.316 0.158,0.136 0.025,-0.29 0.042,0.236 0.037,-0.209 0.149,0.196 -0.116,0.211 0.071,-0.276"
     id="path13776" />
</g>
<g
   id="g13782"
   transform="matrix(0.86261295,0,0,0.86261295,-63.100778,79.729768)">
  <path
     fill="none"
     stroke="#000000"
     stroke-width="2.61779"
     stroke-linecap="round"
     stroke-linejoin="round"
     d="m -389.983,705.168 0.132,0.382 0.1,-0.418 -0.035,0.208 -0.011,-0.191 0.111,0.264 -0.001,-0.215 0.292,0.289 0.004,-0.145 0.037,0.215 0.535,-0.46 0.055,0.219 0.309,0.03 0.03,-0.258 0.093,0.252 0.331,-0.061 0.03,0.143 0.256,-0.293 0.398,-0.007 0.029,-0.225 0.137,0.245 0.062,-0.277 0.025,0.319 0.007,-0.183 0.096,0.299 0.265,-0.166 0.035,0.229 0.042,-0.202 0.335,0.019 0.027,-0.218 0.077,0.23 0.002,-0.296 -0.096,0.421"
     id="path13780" />
</g>
<g
   id="g13786"
   transform="matrix(0.86261295,0,0,0.86261295,-63.100778,79.729768)">
  <path
     fill="none"
     stroke="#000000"
     stroke-width="2.61779"
     stroke-linecap="round"
     stroke-linejoin="round"
     d="m -379.767,693.75 -0.305,-0.972 0.592,-2.233 0.062,0.122 0.35,-0.232 0.084,-0.352 1.139,-1.222 0.206,0.206 0.561,-0.347 0.164,0.109 0.591,-0.278 0.42,0.171 0.056,-0.161 0.525,0.191 0.213,0.301 0.312,-0.048 0.324,0.544 0.066,-0.13 0.384,1.676 0.251,0.363 0.046,1.698 -0.418,2.784 -0.543,1.974 -0.395,0.526 -1.065,3.124 -1.124,2.302 -0.268,1.283 -0.21,0.134 -1.303,4.894 -0.284,2.514 -0.046,-0.245 -0.119,0.136 -0.498,2.448 -0.339,2.935 0.079,1.67 0.472,0.877 -0.078,0.299 0.07,-0.305 0.007,0.179 0.1,-0.175 0.189,0.132 0.251,-0.392 -0.018,0.174 0.127,-0.178 0.323,0.213 0.297,-0.233 0.069,0.212 0.25,-0.102 0.067,0.237 0.085,-0.221 0.042,0.328 -0.007,-0.406 0.273,0.078 0.07,0.268 0.472,-0.382 0.051,0.198 0.163,-0.177 0.33,0.277 0.069,-0.296 0.147,0.618 0.126,-0.303 0.009,0.202 0.285,-0.182 0.029,0.24 0.37,-0.462 0.139,0.212 0.027,-0.31 0.192,0.603 0.231,-0.227 0.089,0.228 0.066,-0.345 -0.086,0.136 -0.068,-0.331 -0.213,0.384"
     id="path13784" />
</g>
<g
   id="g13790"
   transform="matrix(0.86261295,0,0,0.86261295,-63.100778,79.729768)">
  <path
     fill="none"
     stroke="#000000"
     stroke-width="2.04817"
     stroke-linecap="round"
     stroke-linejoin="round"
     d="m -199.953,684.219 0.105,-0.021 0.028,0.407 -0.123,0.764 -0.219,13.834 0.058,8.47 0.135,1.27"
     id="path13788" />
</g>
<g
   id="g13794"
   transform="matrix(0.86261295,0,0,0.86261295,-63.100778,79.729768)">
  <path
     fill="none"
     stroke="#000000"
     stroke-width="2.04817"
     stroke-linecap="round"
     stroke-linejoin="round"
     d="m -200.152,684.345 -0.253,0.014 0.047,0.503 -0.313,1.724 -1.85,7.484 -0.66,3.671 -0.29,0.731 0.065,0.379 0.211,-0.387 0.036,0.147 0.547,-0.104 0.129,0.16 0.075,-0.149 0.831,-0.023 0.027,-0.12 0.148,0.162 1.524,-0.185"
     id="path13792" />
</g>
<g
   id="g13798"
   transform="matrix(0.86261295,0,0,0.86261295,-63.100778,79.729768)">
  <path
     fill="none"
     stroke="#000000"
     stroke-width="2.04817"
     stroke-linecap="round"
     stroke-linejoin="round"
     d="m -192.867,685.214 -0.427,-0.999 -0.57,-0.043 -0.046,0.113 -0.121,-0.144 -0.694,0.117 -0.703,0.977 -0.421,1.439 -0.706,6.708 -0.048,1.333 0.274,1.503 0.364,0.605 0.255,0.2 0.036,-0.134 0.08,0.122 0.16,-0.09 0.266,0.304 0.037,-0.218 0.087,0.3 0.245,-0.019 0.363,-0.601 1.151,-2.688"
     id="path13796" />
</g>
<g
   id="g13802"
   transform="matrix(0.86261295,0,0,0.86261295,-63.100778,79.729768)">
  <path
     fill="none"
     stroke="#000000"
     stroke-width="2.04817"
     stroke-linecap="round"
     stroke-linejoin="round"
     d="m -192.734,685.864 0.096,0.145 -0.636,6.025 -0.251,4.269 -0.081,7.348 -0.222,4.178 -0.626,1.28 -0.757,0.182 -0.815,-0.177 -0.795,-1.192"
     id="path13800" />
</g>
<g
   id="g13806"
   transform="matrix(0.86261295,0,0,0.86261295,-63.100778,79.729768)">
  <path
     fill="none"
     stroke="#000000"
     stroke-width="2.04817"
     stroke-linecap="round"
     stroke-linejoin="round"
     d="m -223.339,684.054 -0.312,-0.007 -0.003,0.126 0.112,-0.148 0.061,0.141 -0.211,2.365 0.061,2.797 -0.143,0.676 0.149,1.412 -0.106,4.665 0.144,2.021 -0.17,2.205 0.15,1.492 -0.123,3.711 0.201,3.31 -0.016,0.617 -0.164,-0.222"
     id="path13804" />
</g>
<g
   id="g13810"
   transform="matrix(0.86261295,0,0,0.86261295,-63.100778,79.729768)">
  <path
     fill="none"
     stroke="#000000"
     stroke-width="2.04817"
     stroke-linecap="round"
     stroke-linejoin="round"
     d="m -223.934,684.143 -0.464,3.429 -0.44,1.563 -0.685,3.835 -0.694,1.913 -0.079,0.692 -1.072,3.586 0.158,-0.07 -0.108,0.028 0.043,-0.159 0.054,0.238 0.184,-0.083 0.035,0.128 0.092,-0.175 0.681,-0.095 0.526,-0.303 2.237,0.133 0.184,-0.175 0.199,0.151 0.199,-0.14 0.095,0.139 0.254,-0.261 0.118,0.074 -0.016,-0.139 0.051,0.243 -0.119,-0.18"
     id="path13808" />
</g>
<g
   id="g13814"
   transform="matrix(0.86261295,0,0,0.86261295,-63.100778,79.729768)">
  <path
     fill="none"
     stroke="#000000"
     stroke-width="2.04817"
     stroke-linecap="round"
     stroke-linejoin="round"
     d="m -215.156,683.961 -0.168,7.035 -0.179,1.72 0.151,2.411 -0.186,2.233 0.101,3.302 -0.159,2.239 0.093,6.386 -0.107,-0.029 0.023,0.196 -0.03,-0.495"
     id="path13812" />
</g>
<g
   id="g13818"
   transform="matrix(0.86261295,0,0,0.86261295,-63.100778,79.729768)">
  <path
     fill="none"
     stroke="#000000"
     stroke-width="2.04817"
     stroke-linecap="round"
     stroke-linejoin="round"
     d="m -215.543,684.207 0.237,-0.193 -1.326,5.31 -0.564,3.278 -0.889,3.076 -0.026,0.855 -0.344,0.605 -0.137,1.016 -0.16,0.277 -0.021,-0.178 0.015,0.648 0.089,-0.18 -0.011,0.141 0.684,-0.079 0.714,0.209 0.921,-0.273 0.156,-0.188 0.133,0.066 -0.009,-0.142 0.173,0.088 -0.023,-0.129 0.727,0.258 0.164,-0.268 0.09,0.174 0.015,-0.158 0.579,-0.075 0.278,-0.316 0.278,0.238"
     id="path13816" />
</g>
<g
   id="g13822"
   transform="matrix(0.86261295,0,0,0.86261295,-63.100778,79.729768)">
  <path
     fill="none"
     stroke="#000000"
     stroke-width="2.04817"
     stroke-linecap="round"
     stroke-linejoin="round"
     d="m -180.148,684.333 -0.311,-0.008 -0.003,0.126 0.112,-0.147 0.06,0.141 -0.211,2.365 0.061,2.796 -0.142,0.676 0.149,1.412 -0.107,4.665 0.145,2.022 -0.171,2.205 0.15,1.491 -0.122,3.712 0.201,3.309 -0.017,0.618 -0.164,-0.222"
     id="path13820" />
</g>
<g
   id="g13826"
   transform="matrix(0.86261295,0,0,0.86261295,-63.100778,79.729768)">
  <path
     fill="none"
     stroke="#000000"
     stroke-width="2.04817"
     stroke-linecap="round"
     stroke-linejoin="round"
     d="m -180.742,684.421 -0.464,3.429 -0.441,1.563 -0.685,3.836 -0.693,1.913 -0.08,0.691 -1.071,3.587 0.157,-0.071 -0.108,0.028 0.043,-0.158 0.054,0.238 0.184,-0.083 0.036,0.127 0.091,-0.175 0.681,-0.094 0.526,-0.304 2.238,0.133 0.183,-0.175 0.2,0.151 0.198,-0.139 0.096,0.139 0.253,-0.261 0.119,0.074 -0.016,-0.14 0.05,0.244 -0.119,-0.181"
     id="path13824" />
</g>
<g
   id="g13830"
   transform="matrix(0.86261295,0,0,0.86261295,-63.100778,79.729768)">
  <path
     fill="none"
     stroke="#000000"
     stroke-width="2.04817"
     stroke-linecap="round"
     stroke-linejoin="round"
     d="m -171.965,684.239 -0.168,7.035 -0.179,1.721 0.151,2.41 -0.185,2.234 0.101,3.301 -0.16,2.24 0.093,6.385 -0.106,-0.029 0.023,0.196 -0.03,-0.494"
     id="path13828" />
</g>
<g
   id="g13834"
   transform="matrix(0.86261295,0,0,0.86261295,-63.100778,79.729768)">
  <path
     fill="none"
     stroke="#000000"
     stroke-width="2.04817"
     stroke-linecap="round"
     stroke-linejoin="round"
     d="m -172.352,684.486 0.237,-0.193 -1.326,5.31 -0.563,3.277 -0.89,3.077 -0.025,0.855 -0.344,0.604 -0.138,1.017 -0.159,0.277 -0.021,-0.179 0.014,0.648 0.089,-0.18 -0.01,0.141 0.684,-0.078 0.713,0.208 0.922,-0.273 0.155,-0.188 0.134,0.066 -0.01,-0.142 0.173,0.088 -0.022,-0.128 0.727,0.257 0.163,-0.267 0.09,0.174 0.015,-0.158 0.579,-0.076 0.278,-0.316 0.279,0.238"
     id="path13832" />
</g>
<g
   id="g13838"
   transform="matrix(0.86261295,0,0,0.86261295,-63.100778,79.729768)">
  <path
     fill="none"
     stroke="#000000"
     stroke-width="2.04817"
     stroke-linecap="round"
     stroke-linejoin="round"
     d="m -158.328,684.329 0.044,3.392 -0.244,6.292 0.035,13.495 0.165,1.792 -0.112,-0.34"
     id="path13836" />
</g>
<g
   id="g13842"
   transform="matrix(0.86261295,0,0,0.86261295,-63.100778,79.729768)">
  <path
     fill="none"
     stroke="#000000"
     stroke-width="2.04817"
     stroke-linecap="round"
     stroke-linejoin="round"
     d="m -158.754,684.105 -0.141,0.024 0.085,0.126 -0.824,4.659 -2.187,9.242 0.07,-0.2 -0.007,0.248 0.108,-0.17 -0.031,0.237 0.154,-0.103 0.014,0.118 0.762,-0.474 0.841,0.161 0.381,-0.225 0.557,0.149 0.16,-0.116 0.087,0.131 1.071,-0.144 0.303,0.188 0.125,-0.203"
     id="path13840" />
</g>
<g
   id="g13846"
   transform="matrix(0.86261295,0,0,0.86261295,-63.100778,79.729768)">
  <path
     fill="none"
     stroke="#000000"
     stroke-width="2.04817"
     stroke-linecap="round"
     stroke-linejoin="round"
     d="m -150.033,685.582 -0.218,-0.758 -1.017,-0.781 -0.198,0.091 -0.002,-0.113 -0.464,0.494 -0.151,-0.071 -0.569,0.823 -0.403,1.397 -0.341,5.983 0.194,7.692 -0.073,5.967 0.305,2.435 0.744,0.829 0.197,-0.122 0.218,0.132 0.229,-0.169 0.063,0.11 0.445,-0.255 0.021,-0.164 0.052,0.133 0.043,-0.18 0.132,0.123 0.986,-2.308 0.004,-0.309 -0.144,-0.033"
     id="path13844" />
</g>
<g
   id="g13850"
   transform="matrix(0.86261295,0,0,0.86261295,-63.100778,79.729768)">
  <path
     fill="none"
     stroke="#000000"
     stroke-width="2.04817"
     stroke-linecap="round"
     stroke-linejoin="round"
     d="m -143.838,710.241 0.256,-0.21"
     id="path13848" />
</g>
<g
   id="g13854"
   transform="matrix(0.86261295,0,0,0.86261295,-63.100778,79.729768)">
  <path
     fill="none"
     stroke="#000000"
     stroke-width="2.04817"
     stroke-linecap="round"
     stroke-linejoin="round"
     d="m -139.533,710.494 0.233,-0.075"
     id="path13852" />
</g>
<g
   id="g13858"
   transform="matrix(0.86261295,0,0,0.86261295,-63.100778,79.729768)">
  <path
     fill="none"
     stroke="#000000"
     stroke-width="2.04817"
     stroke-linecap="round"
     stroke-linejoin="round"
     d="m -135.713,710.396 0.122,-0.226 -0.034,0.169"
     id="path13856" />
</g>
<g
   id="g13862"
   transform="matrix(0.86261295,0,0,0.86261295,-63.100778,79.729768)">
  <path
     fill="none"
     stroke="#000000"
     stroke-width="2.04817"
     stroke-linecap="round"
     stroke-linejoin="round"
     d="m -200.473,786.991 0.105,-0.02 0.027,0.406 -0.123,0.765 -0.218,13.833 0.058,8.471 0.135,1.269"
     id="path13860" />
</g>
<g
   id="g13866"
   transform="matrix(0.86261295,0,0,0.86261295,-63.100778,79.729768)">
  <path
     fill="none"
     stroke="#000000"
     stroke-width="2.04817"
     stroke-linecap="round"
     stroke-linejoin="round"
     d="m -200.673,787.118 -0.253,0.014 0.048,0.502 -0.313,1.724 -1.851,7.485 -0.66,3.67 -0.289,0.731 0.065,0.379 0.211,-0.386 0.035,0.147 0.548,-0.105 0.129,0.16 0.074,-0.149 0.832,-0.023 0.026,-0.119 0.149,0.162 1.524,-0.186"
     id="path13864" />
</g>
<g
   id="g13870"
   transform="matrix(0.86261295,0,0,0.86261295,-63.100778,79.729768)">
  <path
     fill="none"
     stroke="#000000"
     stroke-width="2.04817"
     stroke-linecap="round"
     stroke-linejoin="round"
     d="m -193.388,787.986 -0.427,-0.998 -0.57,-0.044 -0.046,0.114 -0.12,-0.145 -0.694,0.118 -0.704,0.977 -0.42,1.439 -0.706,6.707 -0.049,1.333 0.275,1.503 0.363,0.605 0.256,0.2 0.035,-0.134 0.081,0.123 0.16,-0.091 0.266,0.304 0.037,-0.217 0.086,0.299 0.245,-0.019 0.364,-0.601 1.15,-2.688"
     id="path13868" />
</g>
<g
   id="g13874"
   transform="matrix(0.86261295,0,0,0.86261295,-63.100778,79.729768)">
  <path
     fill="none"
     stroke="#000000"
     stroke-width="2.04817"
     stroke-linecap="round"
     stroke-linejoin="round"
     d="m -193.255,788.636 0.096,0.145 -0.635,6.025 -0.252,4.27 -0.08,7.347 -0.222,4.179 -0.626,1.279 -0.757,0.182 -0.816,-0.177 -0.795,-1.192"
     id="path13872" />
</g>
<g
   id="g13878"
   transform="matrix(0.86261295,0,0,0.86261295,-63.100778,79.729768)">
  <path
     fill="none"
     stroke="#000000"
     stroke-width="2.04817"
     stroke-linecap="round"
     stroke-linejoin="round"
     d="m -223.86,786.826 -0.311,-0.007 -0.003,0.126 0.112,-0.147 0.06,0.141 -0.211,2.365 0.061,2.796 -0.142,0.676 0.149,1.412 -0.107,4.665 0.145,2.022 -0.17,2.205 0.149,1.491 -0.122,3.712 0.201,3.309 -0.017,0.618 -0.164,-0.222"
     id="path13876" />
</g>
<g
   id="g13882"
   transform="matrix(0.86261295,0,0,0.86261295,-63.100778,79.729768)">
  <path
     fill="none"
     stroke="#000000"
     stroke-width="2.04817"
     stroke-linecap="round"
     stroke-linejoin="round"
     d="m -224.454,786.915 -0.464,3.429 -0.441,1.563 -0.685,3.836 -0.693,1.913 -0.08,0.691 -1.071,3.587 0.157,-0.071 -0.107,0.028 0.042,-0.158 0.055,0.238 0.184,-0.083 0.035,0.127 0.091,-0.175 0.681,-0.094 0.526,-0.304 2.238,0.133 0.183,-0.175 0.2,0.151 0.198,-0.139 0.096,0.138 0.253,-0.26 0.119,0.074 -0.016,-0.14 0.05,0.244 -0.119,-0.181"
     id="path13880" />
</g>
<g
   id="g13886"
   transform="matrix(0.86261295,0,0,0.86261295,-63.100778,79.729768)">
  <path
     fill="none"
     stroke="#000000"
     stroke-width="2.04817"
     stroke-linecap="round"
     stroke-linejoin="round"
     d="m -215.677,786.733 -0.168,7.035 -0.179,1.721 0.151,2.41 -0.185,2.234 0.101,3.301 -0.16,2.24 0.093,6.385 -0.106,-0.029 0.023,0.196 -0.03,-0.494"
     id="path13884" />
</g>
<g
   id="g13890"
   transform="matrix(0.86261295,0,0,0.86261295,-63.100778,79.729768)">
  <path
     fill="none"
     stroke="#000000"
     stroke-width="2.04817"
     stroke-linecap="round"
     stroke-linejoin="round"
     d="m -216.063,786.98 0.237,-0.193 -1.327,5.31 -0.563,3.277 -0.89,3.077 -0.025,0.855 -0.344,0.604 -0.138,1.017 -0.159,0.276 -0.021,-0.178 0.014,0.648 0.089,-0.18 -0.01,0.141 0.684,-0.079 0.713,0.209 0.922,-0.273 0.155,-0.188 0.134,0.066 -0.01,-0.142 0.174,0.088 -0.023,-0.128 0.727,0.257 0.163,-0.267 0.09,0.174 0.015,-0.158 0.579,-0.076 0.278,-0.316 0.279,0.238"
     id="path13888" />
</g>
<g
   id="g13894"
   transform="matrix(0.86261295,0,0,0.86261295,-63.100778,79.729768)">
  <path
     fill="none"
     stroke="#000000"
     stroke-width="2.04817"
     stroke-linecap="round"
     stroke-linejoin="round"
     d="m -180.668,787.105 -0.312,-0.008 -0.003,0.127 0.112,-0.148 0.061,0.141 -0.211,2.365 0.061,2.796 -0.143,0.677 0.15,1.411 -0.107,4.666 0.144,2.021 -0.17,2.205 0.15,1.491 -0.123,3.712 0.201,3.309 -0.016,0.618 -0.164,-0.222"
     id="path13892" />
</g>
<g
   id="g13898"
   transform="matrix(0.86261295,0,0,0.86261295,-63.100778,79.729768)">
  <path
     fill="none"
     stroke="#000000"
     stroke-width="2.04817"
     stroke-linecap="round"
     stroke-linejoin="round"
     d="m -181.263,787.193 -0.464,3.429 -0.44,1.564 -0.685,3.835 -0.694,1.913 -0.079,0.691 -1.072,3.587 0.158,-0.071 -0.108,0.029 0.043,-0.159 0.054,0.238 0.184,-0.083 0.035,0.127 0.092,-0.174 0.681,-0.095 0.526,-0.303 2.237,0.132 0.184,-0.175 0.199,0.152 0.199,-0.14 0.095,0.139 0.254,-0.261 0.118,0.074 -0.015,-0.139 0.05,0.243 -0.119,-0.18"
     id="path13896" />
</g>
<g
   id="g13902"
   transform="matrix(0.86261295,0,0,0.86261295,-63.100778,79.729768)">
  <path
     fill="none"
     stroke="#000000"
     stroke-width="2.04817"
     stroke-linecap="round"
     stroke-linejoin="round"
     d="m -172.485,787.012 -0.168,7.035 -0.179,1.72 0.151,2.411 -0.186,2.233 0.101,3.301 -0.159,2.24 0.093,6.385 -0.107,-0.028 0.023,0.195 -0.03,-0.494"
     id="path13900" />
</g>
<g
   id="g13906"
   transform="matrix(0.86261295,0,0,0.86261295,-63.100778,79.729768)">
  <path
     fill="none"
     stroke="#000000"
     stroke-width="2.04817"
     stroke-linecap="round"
     stroke-linejoin="round"
     d="m -172.872,787.258 0.237,-0.193 -1.326,5.31 -0.564,3.277 -0.889,3.077 -0.026,0.855 -0.344,0.605 -0.137,1.016 -0.16,0.277 -0.021,-0.179 0.015,0.648 0.089,-0.18 -0.011,0.142 0.684,-0.079 0.714,0.209 0.921,-0.273 0.156,-0.189 0.134,0.067 -0.01,-0.143 0.173,0.089 -0.023,-0.129 0.728,0.258 0.163,-0.268 0.09,0.174 0.015,-0.158 0.579,-0.076 0.278,-0.315 0.278,0.238"
     id="path13904" />
</g>
<g
   id="g13910"
   transform="matrix(0.86261295,0,0,0.86261295,-63.100778,79.729768)">
  <path
     fill="none"
     stroke="#000000"
     stroke-width="2.04817"
     stroke-linecap="round"
     stroke-linejoin="round"
     d="m -158.849,787.102 0.044,3.391 -0.243,6.292 0.034,13.495 0.166,1.792 -0.113,-0.34"
     id="path13908" />
</g>
<g
   id="g13914"
   transform="matrix(0.86261295,0,0,0.86261295,-63.100778,79.729768)">
  <path
     fill="none"
     stroke="#000000"
     stroke-width="2.04817"
     stroke-linecap="round"
     stroke-linejoin="round"
     d="m -159.274,786.877 -0.142,0.024 0.085,0.127 -0.823,4.659 -2.188,9.241 0.07,-0.199 -0.007,0.247 0.109,-0.17 -0.032,0.238 0.154,-0.104 0.015,0.118 0.761,-0.473 0.841,0.16 0.381,-0.224 0.558,0.148 0.16,-0.115 0.087,0.13 1.071,-0.144 0.303,0.188 0.125,-0.203"
     id="path13912" />
</g>
<g
   id="g13918"
   transform="matrix(0.86261295,0,0,0.86261295,-63.100778,79.729768)">
  <path
     fill="none"
     stroke="#000000"
     stroke-width="2.04817"
     stroke-linecap="round"
     stroke-linejoin="round"
     d="m -150.553,788.354 -0.219,-0.758 -1.017,-0.781 -0.198,0.091 -0.002,-0.112 -0.464,0.494 -0.151,-0.072 -0.568,0.823 -0.404,1.398 -0.34,5.983 0.193,7.691 -0.073,5.967 0.306,2.435 0.744,0.829 0.196,-0.122 0.218,0.132 0.229,-0.168 0.064,0.11 0.445,-0.256 0.02,-0.164 0.052,0.134 0.044,-0.18 0.132,0.122 0.986,-2.308 0.003,-0.309 -0.143,-0.033"
     id="path13916" />
</g>
<g
   id="g13922"
   transform="matrix(0.86261295,0,0,0.86261295,-63.100778,79.729768)">
  <path
     fill="none"
     stroke="#000000"
     stroke-width="2.04817"
     stroke-linecap="round"
     stroke-linejoin="round"
     d="m -144.358,813.014 0.255,-0.211"
     id="path13920" />
</g>
<g
   id="g13926"
   transform="matrix(0.86261295,0,0,0.86261295,-63.100778,79.729768)">
  <path
     fill="none"
     stroke="#000000"
     stroke-width="2.04817"
     stroke-linecap="round"
     stroke-linejoin="round"
     d="m -140.053,813.267 0.232,-0.075"
     id="path13924" />
</g>
<g
   id="g13930"
   transform="matrix(0.86261295,0,0,0.86261295,-63.100778,79.729768)">
  <path
     fill="none"
     stroke="#000000"
     stroke-width="2.04817"
     stroke-linecap="round"
     stroke-linejoin="round"
     d="m -136.234,813.168 0.122,-0.226 -0.034,0.169"
     id="path13928" />
</g>
<metadata
   id="metadata14388">
  <rdf:RDF>
    <cc:Work
       rdf:about="">
      <dc:title>Quick sheets</dc:title>
    </cc:Work>
  </rdf:RDF>
</metadata>
</svg>
