<?xml version="1.0" encoding="UTF-8" standalone="no"?>
<svg
   width="431.89001"
   height="467.8512"
   viewBox="-484 1010 431.89001 467.8512"
   version="1.2"
   id="svg7201"
   sodipodi:docname="14-memory-manager.svg"
   inkscape:version="1.1.2 (0a00cf5339, 2022-02-04)"
   xmlns:inkscape="http://www.inkscape.org/namespaces/inkscape"
   xmlns:sodipodi="http://sodipodi.sourceforge.net/DTD/sodipodi-0.dtd"
   xmlns="http://www.w3.org/2000/svg"
   xmlns:svg="http://www.w3.org/2000/svg"
   xmlns:rdf="http://www.w3.org/1999/02/22-rdf-syntax-ns#"
   xmlns:cc="http://creativecommons.org/ns#"
   xmlns:dc="http://purl.org/dc/elements/1.1/"><defs
   id="defs7205" />
<sodipodi:namedview
   id="namedview7203"
   pagecolor="#ffffff"
   bordercolor="#666666"
   borderopacity="1.0"
   inkscape:pageshadow="2"
   inkscape:pageopacity="0.0"
   inkscape:pagecheckerboard="0"
   showgrid="false"
   inkscape:zoom="1"
   inkscape:cx="283"
   inkscape:cy="163"
   inkscape:window-width="3840"
   inkscape:window-height="1536"
   inkscape:window-x="0"
   inkscape:window-y="0"
   inkscape:window-maximized="1"
   inkscape:current-layer="svg7201" />
<title
   id="title6437">Quick sheets</title>

\n<g
   id="g6443"
   transform="matrix(0.68839159,0,0,0.68839159,-216.00571,312.91391)">
  <path
     fill="none"
     stroke="#000000"
     stroke-width="4"
     stroke-linecap="round"
     stroke-linejoin="round"
     d="m -77.7325,1091.45 -0.2417,-0.01 0.1064,0.25 -0.1085,-0.18 0.3447,4.52 -0.2821,7.68 0.2186,0.76 -0.1476,13.95 0.626,16.86 -0.4877,18.75 0.1298,5.2 -0.285,3.55 0.1883,12.06 -0.252,1 0.3234,1.33 -0.3683,12.03 0.3109,1.68 -0.2146,0.84 0.2123,2.4 -0.0432,0.24 -0.0854,-0.5 -0.1791,0.21"
     id="path6441" />
</g>
<g
   id="g6447"
   transform="matrix(0.68839159,0,0,0.68839159,-216.00571,312.91391)">
  <path
     fill="none"
     stroke="#000000"
     stroke-width="4"
     stroke-linecap="round"
     stroke-linejoin="round"
     d="m 13.517,1092 h 0.0633"
     id="path6445" />
</g>
<g
   id="g6451"
   transform="matrix(0.68839159,0,0,0.68839159,-216.00571,312.91391)">
  <path
     fill="none"
     stroke="#000000"
     stroke-width="4"
     stroke-linecap="round"
     stroke-linejoin="round"
     d="m 13.4418,1092 0.0793,-0.24 0.821,1.31 0.6951,0.32 2.804,3.01 0.5459,0.22 1.8875,2.29 0.0648,-0.27 0.2348,0.66 1.0846,0.86 0.5718,1 2.3066,2.42"
     id="path6449" />
</g>
<g
   id="g6455"
   transform="matrix(0.68839159,0,0,0.68839159,-216.00571,312.91391)">
  <path
     fill="none"
     stroke="#000000"
     stroke-width="4"
     stroke-linecap="round"
     stroke-linejoin="round"
     d="m 12.5938,1093.09 -0.2114,0.81 0.2088,5.39 0.5836,6.96 0.1765,-0.21 0.1949,0.88 -0.0019,-0.55 -3e-4,0.34 0.3251,-0.3 0.7738,0.39 0.2148,-0.22 0.0749,0.31 0.0763,-0.29 1.0849,-0.47 0.6734,0.19 0.0823,0.31 0.6138,-0.37 0.4491,0.32 0.9837,0.15 0.5438,-0.29 0.0665,0.31 0.6158,0.05 0.7336,-0.37 0.1052,0.29 0.3219,-0.5 0.9045,0.47 0.8199,-0.11 0.0634,0.26 0.832,-0.4 0.525,0.29 0.0089,-0.27 0.066,0.5 0.3872,-0.08"
     id="path6453" />
</g>
<g
   id="g6459"
   transform="matrix(0.68839159,0,0,0.68839159,-216.00571,312.91391)">
  <path
     fill="none"
     stroke="#000000"
     stroke-width="4"
     stroke-linecap="round"
     stroke-linejoin="round"
     d="m 25.6309,1105.19 0.5105,13 -0.0046,14.75 -0.3963,13.92 0.2318,24.97 -0.2347,5.9 0.2879,2.88 -0.1694,5.04 0.3675,3.37 -0.0089,4.93"
     id="path6457" />
</g>
<g
   id="g6463"
   transform="matrix(0.68839159,0,0,0.68839159,-216.00571,312.91391)">
  <path
     fill="none"
     stroke="#000000"
     stroke-width="4"
     stroke-linecap="round"
     stroke-linejoin="round"
     d="m -78.063,1195.51 0.1022,0.55 0.772,-0.63 1.0546,0.28 1.6131,-0.51 3.4821,0.18 1.9673,-0.5 0.8115,0.46 1.4888,-0.39 1.2232,0.26 1.8226,-0.15 0.0952,0.3 1.4184,-0.46 1.3498,0.12 3.7309,-0.44 2.0313,0.43 2.0814,-0.32 1.7222,0.47 6.9399,-0.06 5.7391,-0.53 1.974,-0.53 0.7919,0.3 4.3936,-0.2 2.4525,0.38 16.1653,-0.55 2.7479,0.29 3.59336,-0.22 3.7005,0.25 3.12207,-0.5 3.66235,0.23 1.55976,-0.29 0.95251,0.21 0.12494,-0.24 0.69421,0.36 3.4421,-0.14 3.8796,0.4 2.1476,-0.22 1.3362,0.29 3.1712,-0.17 0.0876,-0.23 0.5333,0.27 2.7296,-0.3 0.3757,0.22 0.0682,-0.32 0.0879,0.45 0.4238,0.11 -0.1485,-0.21 -0.5304,0.22"
     id="path6461" />
</g>
<g
   id="g6467"
   transform="matrix(0.68839159,0,0,0.68839159,-216.00571,312.91391)">
  <path
     fill="none"
     stroke="#000000"
     stroke-width="4"
     stroke-linecap="round"
     stroke-linejoin="round"
     d="m -77.7178,1091.14 1.3366,0.32 0.6262,-0.29 1.6002,0.13 0.5049,0.28 1.107,-0.27 3.5243,0.38 1.503,-0.28 1.8773,0.47 2.5779,-0.27 1.6361,0.51 10.9427,-0.36 1.2905,0.46 12.2967,-0.79 4.0119,0.12 0.6631,0.32 2.8646,0.27 12.4189,-0.31 3.5688,0.46 5.12101,0.05 1.50604,-0.29 11.1814,0.23 1.28649,-0.24 1.55628,0.24 3.68118,-0.65 1.0586,0.12"
     id="path6465" />
</g>
<g
   id="g6471"
   transform="matrix(0.68839159,0,0,0.68839159,-216.00571,312.91391)">
  <path
     fill="none"
     stroke="#000000"
     stroke-width="4"
     stroke-linecap="round"
     stroke-linejoin="round"
     d="m 26.3375,1090.91 -0.2416,-0.01 0.1064,0.26 -0.1085,-0.19 0.3447,4.53 -0.2821,7.67 0.2186,0.77 -0.1476,13.95 0.6259,16.86 -0.4876,18.74 0.1298,5.2 -0.2851,3.56 0.1883,12.05 -0.2519,1 0.3234,1.33 -0.3683,12.04 0.3108,1.68 -0.2146,0.84 0.2123,2.4 -0.0432,0.23 -0.0853,-0.49 -0.1792,0.21"
     id="path6469" />
</g>
<g
   id="g6475"
   transform="matrix(0.68839159,0,0,0.68839159,-216.00571,312.91391)">
  <path
     fill="none"
     stroke="#000000"
     stroke-width="4"
     stroke-linecap="round"
     stroke-linejoin="round"
     d="m 117.587,1091.46 h 0.063"
     id="path6473" />
</g>
<g
   id="g6479"
   transform="matrix(0.68839159,0,0,0.68839159,-216.00571,312.91391)">
  <path
     fill="none"
     stroke="#000000"
     stroke-width="4"
     stroke-linecap="round"
     stroke-linejoin="round"
     d="m 117.512,1091.46 0.079,-0.24 0.821,1.32 0.695,0.32 2.804,3 0.546,0.23 1.888,2.29 0.064,-0.28 0.235,0.67 1.085,0.86 0.572,1 2.306,2.42"
     id="path6477" />
</g>
<g
   id="g6483"
   transform="matrix(0.68839159,0,0,0.68839159,-216.00571,312.91391)">
  <path
     fill="none"
     stroke="#000000"
     stroke-width="4"
     stroke-linecap="round"
     stroke-linejoin="round"
     d="m 116.664,1092.56 -0.212,0.81 0.209,5.39 0.584,6.96 0.176,-0.22 0.195,0.89 -0.002,-0.55 v 0.33 l 0.325,-0.3 0.774,0.4 0.215,-0.23 0.075,0.31 0.076,-0.29 1.085,-0.46 0.673,0.19 0.083,0.31 0.613,-0.37 0.449,0.32 0.984,0.15 0.544,-0.29 0.066,0.3 0.616,0.06 0.734,-0.37 0.105,0.29 0.322,-0.5 0.904,0.47 0.82,-0.11 0.064,0.26 0.832,-0.41 0.525,0.3 0.009,-0.27 0.066,0.5 0.387,-0.08"
     id="path6481" />
</g>
<g
   id="g6487"
   transform="matrix(0.68839159,0,0,0.68839159,-216.00571,312.91391)">
  <path
     fill="none"
     stroke="#000000"
     stroke-width="4"
     stroke-linecap="round"
     stroke-linejoin="round"
     d="m 129.701,1104.66 0.51,13 -0.004,14.74 -0.397,13.92 0.232,24.98 -0.234,5.9 0.288,2.88 -0.17,5.03 0.368,3.38 -0.009,4.93"
     id="path6485" />
</g>
<g
   id="g6491"
   transform="matrix(0.68839159,0,0,0.68839159,-216.00571,312.91391)">
  <path
     fill="none"
     stroke="#000000"
     stroke-width="4"
     stroke-linecap="round"
     stroke-linejoin="round"
     d="m 26.007,1194.98 0.1022,0.54 0.7721,-0.62 1.0545,0.28 1.6132,-0.52 3.4821,0.18 1.9673,-0.49 0.8114,0.46 1.4888,-0.39 1.2233,0.25 1.8226,-0.15 0.0951,0.3 1.4184,-0.45 1.3498,0.12 3.7309,-0.44 2.0314,0.43 2.0814,-0.32 1.7221,0.47 6.9399,-0.07 5.7392,-0.52 1.9739,-0.53 0.7919,0.3 4.3936,-0.21 2.4525,0.39 16.1653,-0.56 2.7479,0.3 3.5934,-0.23 3.7008,0.26 3.122,-0.5 3.662,0.23 1.56,-0.3 0.952,0.21 0.125,-0.23 0.695,0.35 3.442,-0.14 3.879,0.41 2.148,-0.23 1.336,0.3 3.171,-0.17 0.088,-0.23 0.533,0.27 2.73,-0.31 0.375,0.22 0.069,-0.31 0.088,0.45 0.423,0.1 -0.148,-0.21 -0.531,0.23"
     id="path6489" />
</g>
<g
   id="g6495"
   transform="matrix(0.68839159,0,0,0.68839159,-216.00571,312.91391)">
  <path
     fill="none"
     stroke="#000000"
     stroke-width="4"
     stroke-linecap="round"
     stroke-linejoin="round"
     d="m 26.3522,1090.6 1.3366,0.32 0.6263,-0.28 1.6001,0.13 0.5049,0.28 1.107,-0.27 3.5244,0.38 1.5029,-0.28 1.8774,0.46 2.5778,-0.26 1.6361,0.5 10.9427,-0.36 1.2906,0.46 12.2966,-0.78 4.0119,0.12 0.6631,0.32 2.8646,0.26 12.419,-0.3 3.5688,0.46 5.1209,0.05 1.5061,-0.3 11.181,0.24 1.287,-0.24 1.556,0.23 3.681,-0.64 1.059,0.12"
     id="path6493" />
</g>
<g
   id="g6499"
   transform="matrix(0.68839159,0,0,0.68839159,-216.00571,312.91391)">
  <path
     fill="none"
     stroke="#000000"
     stroke-width="4"
     stroke-linecap="round"
     stroke-linejoin="round"
     d="m -23.6787,1122.19 -0.7854,-1.05 -0.6927,-0.38 -1.6097,-0.11 -0.9795,0.69 -1.0738,1.9 -0.8355,7.14 -0.1693,4.86 0.268,1.86 -0.3653,2.48 0.0321,6.02 -0.3888,3.05 0.2331,3.4 -0.2718,1.96 -0.0573,12.41 0.9948,3.83 0.4088,0.05 0.1808,0.58 1.1263,1.01 1.1592,-0.49 0.2542,0.2 0.7467,-0.66 0.182,0.16 1.4996,-2.11 0.7721,-4.91 0.2751,-6.34 0.4266,-2.73 -0.4766,-6.11 0.7391,-6.32 0.5949,-11.96 -0.8013,-7.76"
     id="path6497" />
</g>
<g
   id="g6503"
   transform="matrix(0.68839159,0,0,0.68839159,-216.00571,312.91391)">
  <path
     fill="none"
     stroke="#000000"
     stroke-width="4"
     stroke-linecap="round"
     stroke-linejoin="round"
     d="m 77.4964,1122.2 -0.3931,0.12 0.4226,-0.16 0.6366,-1.21 1.3511,-4.35 -0.5493,18.62 0.484,27.37 0.3127,2.39 -0.2014,0.68 -0.2204,-1.59"
     id="path6501" />
</g>
<g
   id="g6507"
   transform="matrix(0.68839159,0,0,0.68839159,-216.00571,312.91391)">
  <path
     fill="none"
     stroke="#000000"
     stroke-width="4"
     stroke-linecap="round"
     stroke-linejoin="round"
     d="m -282.781,1509.16 -0.242,-0.01 0.107,0.25 -0.109,-0.18 0.345,4.52 -0.282,7.67 0.218,0.77 -0.147,13.95 0.626,16.86 -0.488,18.74 0.13,5.2 -0.285,3.56 0.188,12.06 -0.252,1 0.324,1.33 -0.369,12.03 0.311,1.68 -0.215,0.84 0.213,2.4 -0.043,0.24 -0.086,-0.5 -0.179,0.21"
     id="path6505" />
</g>
<g
   id="g6511"
   transform="matrix(0.68839159,0,0,0.68839159,-216.00571,312.91391)">
  <path
     fill="none"
     stroke="#000000"
     stroke-width="4"
     stroke-linecap="round"
     stroke-linejoin="round"
     d="m -191.532,1509.71 h 0.064"
     id="path6509" />
</g>
<g
   id="g6515"
   transform="matrix(0.68839159,0,0,0.68839159,-216.00571,312.91391)">
  <path
     fill="none"
     stroke="#000000"
     stroke-width="4"
     stroke-linecap="round"
     stroke-linejoin="round"
     d="m -191.607,1509.71 0.08,-0.24 0.821,1.31 0.695,0.32 2.804,3 0.546,0.23 1.887,2.29 0.065,-0.28 0.235,0.67 1.084,0.86 0.572,1 2.307,2.42"
     id="path6513" />
</g>
<g
   id="g6519"
   transform="matrix(0.68839159,0,0,0.68839159,-216.00571,312.91391)">
  <path
     fill="none"
     stroke="#000000"
     stroke-width="4"
     stroke-linecap="round"
     stroke-linejoin="round"
     d="m -192.455,1510.8 -0.211,0.81 0.209,5.39 0.583,6.96 0.177,-0.22 0.195,0.89 -0.002,-0.55 -0.001,0.34 0.326,-0.3 0.773,0.39 0.215,-0.22 0.075,0.3 0.076,-0.28 1.085,-0.47 0.674,0.19 0.082,0.31 0.614,-0.37 0.449,0.32 0.984,0.15 0.543,-0.29 0.067,0.31 0.616,0.05 0.733,-0.37 0.105,0.29 0.322,-0.5 0.905,0.47 0.82,-0.11 0.063,0.26 0.832,-0.41 0.525,0.3 0.009,-0.27 0.066,0.5 0.387,-0.08"
     id="path6517" />
</g>
<g
   id="g6523"
   transform="matrix(0.68839159,0,0,0.68839159,-216.00571,312.91391)">
  <path
     fill="none"
     stroke="#000000"
     stroke-width="4"
     stroke-linecap="round"
     stroke-linejoin="round"
     d="m -179.418,1522.9 0.511,13 -0.005,14.75 -0.396,13.92 0.232,24.97 -0.235,5.9 0.288,2.88 -0.169,5.04 0.367,3.37 -0.009,4.93"
     id="path6521" />
</g>
<g
   id="g6527"
   transform="matrix(0.68839159,0,0,0.68839159,-216.00571,312.91391)">
  <path
     fill="none"
     stroke="#000000"
     stroke-width="4"
     stroke-linecap="round"
     stroke-linejoin="round"
     d="m -283.112,1613.22 0.103,0.55 0.772,-0.63 1.054,0.28 1.613,-0.52 3.483,0.19 1.967,-0.5 0.811,0.46 1.489,-0.39 1.223,0.25 1.823,-0.14 0.095,0.29 1.418,-0.45 1.35,0.12 3.731,-0.44 2.032,0.43 2.081,-0.32 1.722,0.47 6.94,-0.06 5.739,-0.53 1.974,-0.53 0.792,0.3 4.394,-0.21 2.452,0.39 16.165,-0.56 2.748,0.3 3.594,-0.22 3.7,0.25 3.122,-0.5 3.663,0.23 1.559,-0.29 0.953,0.2 0.125,-0.23 0.694,0.36 3.442,-0.14 3.88,0.4 2.147,-0.22 1.336,0.29 3.172,-0.17 0.087,-0.23 0.534,0.27 2.729,-0.31 0.376,0.23 0.068,-0.32 0.088,0.45 0.424,0.1 -0.149,-0.2 -0.53,0.22"
     id="path6525" />
</g>
<g
   id="g6531"
   transform="matrix(0.68839159,0,0,0.68839159,-216.00571,312.91391)">
  <path
     fill="none"
     stroke="#000000"
     stroke-width="4"
     stroke-linecap="round"
     stroke-linejoin="round"
     d="m -282.766,1508.84 1.336,0.32 0.627,-0.28 1.6,0.13 0.505,0.28 1.107,-0.27 3.524,0.38 1.503,-0.28 1.877,0.46 2.578,-0.26 1.636,0.5 10.943,-0.36 1.29,0.46 12.297,-0.78 4.012,0.12 0.663,0.32 2.865,0.26 12.419,-0.3 3.568,0.46 5.121,0.05 1.506,-0.29 11.182,0.23 1.286,-0.24 1.557,0.23 3.681,-0.64 1.058,0.12"
     id="path6529" />
</g>
<g
   id="g6535"
   transform="matrix(0.68839159,0,0,0.68839159,-216.00571,312.91391)">
  <path
     fill="none"
     stroke="#000000"
     stroke-width="4"
     stroke-linecap="round"
     stroke-linejoin="round"
     d="m -282.983,1522.68 0.511,13 -0.005,14.75 -0.396,13.92 0.232,24.97 -0.235,5.9 0.288,2.88 -0.17,5.04 0.368,3.37 -0.009,4.93"
     id="path6533" />
</g>
<g
   id="g6539"
   transform="matrix(0.68839159,0,0,0.68839159,-216.00571,312.91391)">
  <path
     fill="none"
     stroke="#000000"
     stroke-width="4"
     stroke-linecap="round"
     stroke-linejoin="round"
     d="m -179.051,1508.57 -0.242,-0.01 0.106,0.26 -0.108,-0.19 0.345,4.53 -0.282,7.67 0.218,0.77 -0.147,13.95 0.626,16.86 -0.488,18.74 0.13,5.2 -0.285,3.56 0.188,12.05 -0.252,1 0.323,1.33 -0.368,12.04 0.311,1.68 -0.215,0.84 0.213,2.4 -0.044,0.23 -0.085,-0.49 -0.179,0.21"
     id="path6537" />
</g>
<g
   id="g6543"
   transform="matrix(0.68839159,0,0,0.68839159,-216.00571,312.91391)">
  <path
     fill="none"
     stroke="#000000"
     stroke-width="4"
     stroke-linecap="round"
     stroke-linejoin="round"
     d="m -87.8017,1509.12 h 0.0632"
     id="path6541" />
</g>
<g
   id="g6547"
   transform="matrix(0.68839159,0,0,0.68839159,-216.00571,312.91391)">
  <path
     fill="none"
     stroke="#000000"
     stroke-width="4"
     stroke-linecap="round"
     stroke-linejoin="round"
     d="m -87.877,1509.12 0.0794,-0.24 0.821,1.32 0.695,0.32 2.804,3 0.546,0.23 1.8875,2.29 0.0648,-0.28 0.2347,0.67 1.0847,0.86 0.5717,1 2.3066,2.42"
     id="path6545" />
</g>
<g
   id="g6551"
   transform="matrix(0.68839159,0,0,0.68839159,-216.00571,312.91391)">
  <path
     fill="none"
     stroke="#000000"
     stroke-width="4"
     stroke-linecap="round"
     stroke-linejoin="round"
     d="m -88.725,1510.22 -0.2114,0.81 0.2088,5.39 0.5836,6.96 0.1766,-0.22 0.1949,0.89 -0.0019,-0.55 -3e-4,0.33 0.3251,-0.3 0.7737,0.4 0.2149,-0.23 0.0749,0.31 0.0762,-0.29 1.0849,-0.46 0.6734,0.19 0.0824,0.31 0.6137,-0.37 0.4492,0.32 0.9836,0.15 0.5439,-0.29 0.0665,0.3 0.6158,0.06 0.7335,-0.37 0.1053,0.29 0.3218,-0.5 0.9046,0.47 0.8199,-0.11 0.0634,0.25 0.832,-0.4 0.5249,0.3 0.009,-0.27 0.066,0.5 0.3871,-0.08"
     id="path6549" />
</g>
<g
   id="g6555"
   transform="matrix(0.68839159,0,0,0.68839159,-216.00571,312.91391)">
  <path
     fill="none"
     stroke="#000000"
     stroke-width="4"
     stroke-linecap="round"
     stroke-linejoin="round"
     d="m -75.6878,1522.32 0.5104,13 -0.0046,14.74 -0.3963,13.92 0.2318,24.98 -0.2346,5.9 0.2879,2.88 -0.1695,5.03 0.3676,3.38 -0.0089,4.92"
     id="path6553" />
</g>
<g
   id="g6559"
   transform="matrix(0.68839159,0,0,0.68839159,-216.00571,312.91391)">
  <path
     fill="none"
     stroke="#000000"
     stroke-width="4"
     stroke-linecap="round"
     stroke-linejoin="round"
     d="m -179.382,1612.64 0.102,0.54 0.772,-0.62 1.055,0.27 1.613,-0.51 3.482,0.18 1.968,-0.49 0.811,0.46 1.489,-0.39 1.223,0.25 1.823,-0.15 0.095,0.3 1.418,-0.45 1.35,0.12 3.731,-0.44 2.031,0.43 2.082,-0.32 1.722,0.47 6.94,-0.07 5.739,-0.52 1.974,-0.53 0.792,0.3 4.393,-0.21 2.453,0.39 16.165,-0.56 2.748,0.3 3.593,-0.23 3.701,0.26 3.122,-0.5 3.6623,0.23 1.5598,-0.3 0.9525,0.21 0.1249,-0.23 0.6943,0.35 3.442,-0.14 3.8797,0.41 2.1475,-0.23 1.3362,0.3 3.1713,-0.17 0.0876,-0.24 0.5332,0.28 2.7296,-0.31 0.3757,0.22 0.0683,-0.31 0.0879,0.45 0.4238,0.1 -0.1485,-0.21 -0.5305,0.23"
     id="path6557" />
</g>
<g
   id="g6563"
   transform="matrix(0.68839159,0,0,0.68839159,-216.00571,312.91391)">
  <path
     fill="none"
     stroke="#000000"
     stroke-width="4"
     stroke-linecap="round"
     stroke-linejoin="round"
     d="m -179.037,1508.26 1.337,0.32 0.626,-0.28 1.6,0.13 0.505,0.28 1.107,-0.27 3.525,0.38 1.503,-0.28 1.877,0.46 2.578,-0.26 1.636,0.5 10.943,-0.36 1.29,0.46 12.297,-0.78 4.012,0.12 0.663,0.31 2.864,0.27 12.419,-0.3 3.569,0.46 5.121,0.04 1.506,-0.29 11.1816,0.24 1.2865,-0.24 1.5563,0.23 3.6812,-0.64 1.0586,0.12"
     id="path6561" />
</g>
<g
   id="g6567"
   transform="matrix(0.68839159,0,0,0.68839159,-216.00571,312.91391)">
  <path
     fill="none"
     stroke="#000000"
     stroke-width="4"
     stroke-linecap="round"
     stroke-linejoin="round"
     d="m -74.9813,1508.04 -0.2415,-0.01 0.1063,0.25 -0.1085,-0.18 0.3448,4.52 -0.2822,7.68 0.2187,0.76 -0.1477,13.95 0.6259,16.87 -0.4876,18.74 0.1299,5.2 -0.2851,3.55 0.1883,12.06 -0.2519,1 0.3233,1.33 -0.3683,12.03 0.3109,1.68 -0.2147,0.85 0.2124,2.39 -0.0432,0.24 -0.0854,-0.5 -0.1791,0.21"
     id="path6565" />
</g>
<g
   id="g6571"
   transform="matrix(0.68839159,0,0,0.68839159,-216.00571,312.91391)">
  <path
     fill="none"
     stroke="#000000"
     stroke-width="4"
     stroke-linecap="round"
     stroke-linejoin="round"
     d="m 16.2683,1508.59 h 0.0633"
     id="path6569" />
</g>
<g
   id="g6575"
   transform="matrix(0.68839159,0,0,0.68839159,-216.00571,312.91391)">
  <path
     fill="none"
     stroke="#000000"
     stroke-width="4"
     stroke-linecap="round"
     stroke-linejoin="round"
     d="m 16.1931,1508.59 0.0793,-0.24 0.821,1.31 0.6951,0.32 2.804,3.01 0.546,0.22 1.8874,2.3 0.0648,-0.28 0.2347,0.66 1.0847,0.86 0.5718,1.01 2.3066,2.41"
     id="path6573" />
</g>
<g
   id="g6579"
   transform="matrix(0.68839159,0,0,0.68839159,-216.00571,312.91391)">
  <path
     fill="none"
     stroke="#000000"
     stroke-width="4"
     stroke-linecap="round"
     stroke-linejoin="round"
     d="m 15.345,1509.68 -0.2113,0.82 0.2088,5.38 0.5836,6.96 0.1765,-0.21 0.1949,0.88 -0.0019,-0.54 -3e-4,0.33 0.3251,-0.3 0.7738,0.39 0.2148,-0.22 0.0749,0.31 0.0763,-0.29 1.0848,-0.46 0.6734,0.19 0.0824,0.3 0.6138,-0.37 0.4491,0.32 0.9836,0.15 0.5439,-0.29 0.0665,0.31 0.6158,0.05 0.7336,-0.37 0.1052,0.29 0.3219,-0.5 0.9045,0.47 0.82,-0.1 0.0633,0.25 0.832,-0.4 0.525,0.3 0.0089,-0.28 0.066,0.5 0.3872,-0.08"
     id="path6577" />
</g>
<g
   id="g6583"
   transform="matrix(0.68839159,0,0,0.68839159,-216.00571,312.91391)">
  <path
     fill="none"
     stroke="#000000"
     stroke-width="4"
     stroke-linecap="round"
     stroke-linejoin="round"
     d="m 28.3822,1521.78 0.5105,13 -0.0046,14.75 -0.3963,13.92 0.2318,24.97 -0.2347,5.9 0.2879,2.88 -0.1694,5.04 0.3675,3.38 -0.0088,4.92"
     id="path6581" />
</g>
<g
   id="g6587"
   transform="matrix(0.68839159,0,0,0.68839159,-216.00571,312.91391)">
  <path
     fill="none"
     stroke="#000000"
     stroke-width="4"
     stroke-linecap="round"
     stroke-linejoin="round"
     d="m -75.3117,1612.1 0.1022,0.55 0.7721,-0.63 1.0545,0.28 1.6132,-0.51 3.482,0.18 1.9673,-0.49 0.8115,0.46 1.4888,-0.39 1.2232,0.25 1.8227,-0.15 0.095,0.3 1.4184,-0.46 1.3499,0.12 3.7308,-0.43 2.0315,0.43 2.0814,-0.33 1.722,0.48 6.94,-0.07 5.7391,-0.53 1.9739,-0.53 0.792,0.3 4.3936,-0.2 2.4525,0.38 16.1653,-0.55 2.74786,0.29 3.59341,-0.22 3.7005038,0.26 3.1220362,-0.51 3.66236,0.23 1.55975,-0.29 0.95251,0.21 0.12494,-0.24 0.69423,0.36 3.4421,-0.14 3.8796,0.4 2.1476,-0.22 1.3362,0.29 3.1712,-0.17 0.0876,-0.23 0.5333,0.27 2.7296,-0.3 0.3757,0.22 0.0682,-0.32 0.0879,0.45 0.4238,0.11 -0.1484,-0.21 -0.5305,0.23"
     id="path6585" />
</g>
<g
   id="g6591"
   transform="matrix(0.68839159,0,0,0.68839159,-216.00571,312.91391)">
  <path
     fill="none"
     stroke="#000000"
     stroke-width="4"
     stroke-linecap="round"
     stroke-linejoin="round"
     d="m -74.9666,1507.73 1.3367,0.32 0.6262,-0.28 1.6002,0.13 0.5049,0.28 1.107,-0.28 3.5243,0.38 1.503,-0.28 1.8773,0.47 2.5779,-0.27 1.6361,0.51 10.9427,-0.36 1.2905,0.46 12.2967,-0.79 4.0119,0.12 0.6631,0.32 2.8646,0.27 12.4189,-0.31 3.5688,0.46 5.12099,0.05 1.50607,-0.29 11.1814,0.23 1.2865,-0.24 1.55624,0.24 3.6812,-0.64 1.0586,0.11"
     id="path6589" />
</g>
<g
   id="g6595"
   transform="matrix(0.68839159,0,0,0.68839159,-216.00571,312.91391)">
  <path
     fill="none"
     stroke="#000000"
     stroke-width="4"
     stroke-linecap="round"
     stroke-linejoin="round"
     d="m -229.938,1537.17 -0.785,-1.05 -0.693,-0.37 -1.61,-0.12 -0.979,0.69 -1.074,1.91 -0.836,7.13 -0.169,4.86 0.268,1.86 -0.365,2.49 0.032,6.01 -0.389,3.05 0.233,3.41 -0.272,1.96 -0.057,12.4 0.995,3.83 0.409,0.05 0.18,0.59 1.127,1 1.159,-0.49 0.254,0.2 0.747,-0.66 0.182,0.16 1.499,-2.11 0.773,-4.91 0.275,-6.34 0.426,-2.73 -0.476,-6.11 0.739,-6.31 0.595,-11.97 -0.802,-7.75"
     id="path6593" />
</g>
<g
   id="g6599"
   transform="matrix(0.68839159,0,0,0.68839159,-216.00571,312.91391)">
  <path
     fill="none"
     stroke="#000000"
     stroke-width="4"
     stroke-linecap="round"
     stroke-linejoin="round"
     d="m -129.135,1542.22 -0.393,0.12 0.422,-0.16 0.637,-1.21 1.351,-4.35 -0.549,18.62 0.484,27.37 0.312,2.39 -0.201,0.68 -0.221,-1.59"
     id="path6597" />
</g>
<g
   id="g6603"
   transform="matrix(0.68839159,0,0,0.68839159,-216.00571,312.91391)">
  <path
     fill="none"
     stroke="#000000"
     stroke-width="4"
     stroke-linecap="round"
     stroke-linejoin="round"
     d="m -28.7369,1538.68 -0.2453,-0.36 0.1306,-0.88 0.8298,-1.58 1.1321,-0.91 2.183,0.1 0.5343,0.2 1.3019,1.85 0.68,2.87 -0.4464,4.45 -3.8743,10.06 -0.8352,3.55 -1.236,9.51 0.1089,16.58 0.1947,0.19 0.6096,-0.3 0.7555,0.31 1.3118,-0.57 0.4321,0.38 0.7774,-0.22 0.3204,0.3 0.6743,-0.67 -0.1044,0.59"
     id="path6601" />
</g>
<g
   id="g6607"
   transform="matrix(0.68839159,0,0,0.68839159,-216.00571,312.91391)">
  <path
     fill="none"
     stroke="#000000"
     stroke-width="4"
     stroke-linecap="round"
     stroke-linejoin="round"
     d="m -386.974,1299.7 -0.242,-0.01 0.106,0.26 -0.108,-0.19 0.345,4.53 -0.282,7.67 0.218,0.77 -0.147,13.95 0.625,16.86 -0.487,18.74 0.13,5.2 -0.285,3.56 0.188,12.05 -0.252,1 0.323,1.33 -0.368,12.04 0.311,1.68 -0.215,0.84 0.213,2.4 -0.044,0.23 -0.085,-0.49 -0.179,0.21"
     id="path6605" />
</g>
<g
   id="g6611"
   transform="matrix(0.68839159,0,0,0.68839159,-216.00571,312.91391)">
  <path
     fill="none"
     stroke="#000000"
     stroke-width="4"
     stroke-linecap="round"
     stroke-linejoin="round"
     d="m -295.725,1300.25 h 0.063"
     id="path6609" />
</g>
<g
   id="g6615"
   transform="matrix(0.68839159,0,0,0.68839159,-216.00571,312.91391)">
  <path
     fill="none"
     stroke="#000000"
     stroke-width="4"
     stroke-linecap="round"
     stroke-linejoin="round"
     d="m -295.8,1300.25 0.079,-0.24 0.821,1.32 0.695,0.32 2.804,3 0.546,0.23 1.888,2.29 0.065,-0.28 0.234,0.67 1.085,0.86 0.572,1 2.306,2.42"
     id="path6613" />
</g>
<g
   id="g6619"
   transform="matrix(0.68839159,0,0,0.68839159,-216.00571,312.91391)">
  <path
     fill="none"
     stroke="#000000"
     stroke-width="4"
     stroke-linecap="round"
     stroke-linejoin="round"
     d="m -296.648,1301.35 -0.211,0.81 0.208,5.39 0.584,6.96 0.177,-0.22 0.194,0.89 -10e-4,-0.55 -10e-4,0.33 0.325,-0.3 0.774,0.4 0.215,-0.23 0.075,0.31 0.076,-0.29 1.085,-0.46 0.673,0.19 0.083,0.31 0.613,-0.37 0.45,0.32 0.983,0.15 0.544,-0.29 0.067,0.3 0.615,0.06 0.734,-0.37 0.105,0.29 0.322,-0.5 0.905,0.47 0.82,-0.11 0.063,0.25 0.832,-0.4 0.525,0.3 0.009,-0.27 0.066,0.5 0.387,-0.08"
     id="path6617" />
</g>
<g
   id="g6623"
   transform="matrix(0.68839159,0,0,0.68839159,-216.00571,312.91391)">
  <path
     fill="none"
     stroke="#000000"
     stroke-width="4"
     stroke-linecap="round"
     stroke-linejoin="round"
     d="m -283.611,1313.45 0.511,13 -0.005,14.74 -0.396,13.92 0.231,24.98 -0.234,5.9 0.288,2.88 -0.17,5.03 0.368,3.38 -0.009,4.92"
     id="path6621" />
</g>
<g
   id="g6627"
   transform="matrix(0.68839159,0,0,0.68839159,-216.00571,312.91391)">
  <path
     fill="none"
     stroke="#000000"
     stroke-width="4"
     stroke-linecap="round"
     stroke-linejoin="round"
     d="m -387.305,1403.77 0.102,0.54 0.772,-0.62 1.055,0.27 1.613,-0.51 3.482,0.18 1.967,-0.49 0.812,0.46 1.489,-0.39 1.223,0.25 1.823,-0.15 0.095,0.3 1.418,-0.45 1.35,0.12 3.731,-0.44 2.031,0.43 2.082,-0.32 1.722,0.47 6.94,-0.07 5.739,-0.52 1.974,-0.53 0.792,0.3 4.393,-0.21 2.453,0.39 16.165,-0.56 2.748,0.3 3.593,-0.23 3.701,0.26 3.122,-0.5 3.662,0.23 1.56,-0.3 0.953,0.21 0.125,-0.23 0.694,0.35 3.442,-0.14 3.879,0.41 2.148,-0.23 1.336,0.3 3.171,-0.17 0.088,-0.24 0.533,0.28 2.73,-0.31 0.376,0.22 0.068,-0.31 0.088,0.45 0.424,0.1 -0.149,-0.21 -0.53,0.23"
     id="path6625" />
</g>
<g
   id="g6631"
   transform="matrix(0.68839159,0,0,0.68839159,-216.00571,312.91391)">
  <path
     fill="none"
     stroke="#000000"
     stroke-width="4"
     stroke-linecap="round"
     stroke-linejoin="round"
     d="m -386.96,1299.39 1.337,0.32 0.626,-0.28 1.6,0.13 0.505,0.28 1.107,-0.27 3.525,0.38 1.503,-0.28 1.877,0.46 2.578,-0.26 1.636,0.5 10.943,-0.36 1.29,0.46 12.297,-0.78 4.012,0.12 0.663,0.32 2.864,0.26 12.419,-0.3 3.569,0.46 5.121,0.04 1.506,-0.29 11.182,0.24 1.286,-0.24 1.556,0.23 3.682,-0.64 1.058,0.12"
     id="path6629" />
</g>
<g
   id="g6635"
   transform="matrix(0.68839159,0,0,0.68839159,-216.00571,312.91391)">
  <path
     fill="none"
     stroke="#000000"
     stroke-width="4"
     stroke-linecap="round"
     stroke-linejoin="round"
     d="m -282.904,1299.17 -0.242,-0.01 0.106,0.25 -0.108,-0.18 0.345,4.52 -0.282,7.68 0.218,0.76 -0.147,13.95 0.625,16.87 -0.487,18.74 0.13,5.2 -0.285,3.55 0.188,12.06 -0.252,1 0.323,1.33 -0.368,12.03 0.311,1.68 -0.215,0.85 0.213,2.39 -0.044,0.24 -0.085,-0.5 -0.179,0.21"
     id="path6633" />
</g>
<g
   id="g6639"
   transform="matrix(0.68839159,0,0,0.68839159,-216.00571,312.91391)">
  <path
     fill="none"
     stroke="#000000"
     stroke-width="4"
     stroke-linecap="round"
     stroke-linejoin="round"
     d="m -191.655,1299.72 h 0.064"
     id="path6637" />
</g>
<g
   id="g6643"
   transform="matrix(0.68839159,0,0,0.68839159,-216.00571,312.91391)">
  <path
     fill="none"
     stroke="#000000"
     stroke-width="4"
     stroke-linecap="round"
     stroke-linejoin="round"
     d="m -191.73,1299.72 0.079,-0.24 0.821,1.31 0.695,0.32 2.804,3.01 0.546,0.22 1.888,2.3 0.065,-0.28 0.234,0.66 1.085,0.86 0.572,1.01 2.306,2.41"
     id="path6641" />
</g>
<g
   id="g6647"
   transform="matrix(0.68839159,0,0,0.68839159,-216.00571,312.91391)">
  <path
     fill="none"
     stroke="#000000"
     stroke-width="4"
     stroke-linecap="round"
     stroke-linejoin="round"
     d="m -192.578,1300.81 -0.211,0.82 0.208,5.38 0.584,6.96 0.177,-0.21 0.194,0.88 -0.001,-0.54 -10e-4,0.33 0.325,-0.3 0.774,0.39 0.215,-0.22 0.075,0.31 0.076,-0.29 1.085,-0.46 0.673,0.19 0.083,0.3 0.614,-0.37 0.449,0.32 0.983,0.15 0.544,-0.29 0.067,0.31 0.615,0.05 0.734,-0.37 0.105,0.29 0.322,-0.5 0.905,0.47 0.82,-0.1 0.063,0.25 0.832,-0.4 0.525,0.3 0.009,-0.28 0.066,0.5 0.387,-0.08"
     id="path6645" />
</g>
<g
   id="g6651"
   transform="matrix(0.68839159,0,0,0.68839159,-216.00571,312.91391)">
  <path
     fill="none"
     stroke="#000000"
     stroke-width="4"
     stroke-linecap="round"
     stroke-linejoin="round"
     d="m -283.235,1403.23 0.102,0.55 0.772,-0.63 1.055,0.28 1.613,-0.51 3.482,0.18 1.968,-0.49 0.811,0.46 1.489,-0.39 1.223,0.25 1.823,-0.15 0.095,0.3 1.418,-0.46 1.35,0.12 3.731,-0.43 2.031,0.43 2.082,-0.33 1.722,0.48 6.94,-0.07 5.739,-0.52 1.974,-0.54 0.792,0.31 4.393,-0.21 2.453,0.38 16.165,-0.55 2.748,0.29 3.593,-0.22 3.701,0.26 3.122,-0.51 3.662,0.23 1.56,-0.29 0.953,0.21 0.125,-0.24 0.694,0.36 3.442,-0.14 3.879,0.4 2.148,-0.22 1.336,0.29 3.171,-0.17 0.088,-0.23 0.533,0.27 2.73,-0.3 0.376,0.22 0.068,-0.32 0.088,0.45 0.424,0.11 -0.149,-0.21 -0.53,0.23"
     id="path6649" />
</g>
<g
   id="g6655"
   transform="matrix(0.68839159,0,0,0.68839159,-216.00571,312.91391)">
  <path
     fill="none"
     stroke="#000000"
     stroke-width="4"
     stroke-linecap="round"
     stroke-linejoin="round"
     d="m -282.89,1298.86 1.337,0.32 0.626,-0.28 1.6,0.13 0.505,0.28 1.107,-0.28 3.525,0.38 1.503,-0.28 1.877,0.47 2.578,-0.27 1.636,0.51 10.943,-0.36 1.29,0.46 12.297,-0.79 4.012,0.12 0.663,0.32 2.864,0.27 12.419,-0.31 3.569,0.46 5.121,0.05 1.506,-0.29 11.182,0.23 1.286,-0.24 1.556,0.24 3.682,-0.64 1.058,0.11"
     id="path6653" />
</g>
<g
   id="g6659"
   transform="matrix(0.68839159,0,0,0.68839159,-216.00571,312.91391)">
  <path
     fill="none"
     stroke="#000000"
     stroke-width="4"
     stroke-linecap="round"
     stroke-linejoin="round"
     d="m -179.339,1299.39 -0.242,-0.01 0.107,0.25 -0.109,-0.18 0.345,4.52 -0.282,7.68 0.218,0.76 -0.147,13.95 0.626,16.86 -0.488,18.75 0.13,5.2 -0.285,3.55 0.188,12.06 -0.252,1 0.324,1.33 -0.369,12.03 0.311,1.68 -0.215,0.85 0.213,2.39 -0.043,0.24 -0.086,-0.5 -0.179,0.21"
     id="path6657" />
</g>
<g
   id="g6663"
   transform="matrix(0.68839159,0,0,0.68839159,-216.00571,312.91391)">
  <path
     fill="none"
     stroke="#000000"
     stroke-width="4"
     stroke-linecap="round"
     stroke-linejoin="round"
     d="m -88.0895,1299.94 h 0.0632"
     id="path6661" />
</g>
<g
   id="g6667"
   transform="matrix(0.68839159,0,0,0.68839159,-216.00571,312.91391)">
  <path
     fill="none"
     stroke="#000000"
     stroke-width="4"
     stroke-linecap="round"
     stroke-linejoin="round"
     d="m -88.1647,1299.94 0.0793,-0.24 0.821,1.31 0.695,0.32 2.804,3.01 0.546,0.22 1.8875,2.3 0.0648,-0.28 0.2347,0.66 1.0847,0.86 0.5717,1.01 2.3067,2.41"
     id="path6665" />
</g>
<g
   id="g6671"
   transform="matrix(0.68839159,0,0,0.68839159,-216.00571,312.91391)">
  <path
     fill="none"
     stroke="#000000"
     stroke-width="4"
     stroke-linecap="round"
     stroke-linejoin="round"
     d="m -89.0128,1301.03 -0.2114,0.82 0.2088,5.38 0.5837,6.96 0.1765,-0.21 0.1949,0.88 -0.0019,-0.54 -3e-4,0.33 0.3251,-0.3 0.7737,0.39 0.2149,-0.22 0.0749,0.31 0.0762,-0.29 1.0849,-0.46 0.6734,0.19 0.0824,0.3 0.6137,-0.37 0.4492,0.32 0.9836,0.15 0.5439,-0.29 0.0665,0.31 0.6158,0.05 0.7335,-0.37 0.1053,0.29 0.3219,-0.5 0.9045,0.47 0.8199,-0.1 0.0634,0.25 0.832,-0.4 0.525,0.3 0.0089,-0.28 0.066,0.5 0.3871,-0.08"
     id="path6669" />
</g>
<g
   id="g6675"
   transform="matrix(0.68839159,0,0,0.68839159,-216.00571,312.91391)">
  <path
     fill="none"
     stroke="#000000"
     stroke-width="4"
     stroke-linecap="round"
     stroke-linejoin="round"
     d="m -75.9756,1313.13 0.5104,13 -0.0046,14.75 -0.3963,13.92 0.2318,24.97 -0.2346,5.9 0.2879,2.88 -0.1695,5.04 0.3676,3.37 -0.0089,4.93"
     id="path6673" />
</g>
<g
   id="g6679"
   transform="matrix(0.68839159,0,0,0.68839159,-216.00571,312.91391)">
  <path
     fill="none"
     stroke="#000000"
     stroke-width="4"
     stroke-linecap="round"
     stroke-linejoin="round"
     d="m -179.67,1403.45 0.103,0.55 0.772,-0.63 1.054,0.28 1.613,-0.51 3.483,0.18 1.967,-0.49 0.811,0.46 1.489,-0.39 1.223,0.25 1.823,-0.15 0.095,0.3 1.418,-0.46 1.35,0.12 3.731,-0.43 2.032,0.43 2.081,-0.33 1.722,0.47 6.94,-0.06 5.739,-0.53 1.974,-0.53 0.792,0.3 4.394,-0.2 2.452,0.38 16.165,-0.55 2.748,0.29 3.594,-0.22 3.7,0.25 3.122,-0.5 3.6625,0.23 1.5598,-0.29 0.9525,0.21 0.1249,-0.24 0.6943,0.36 3.442,-0.14 3.8797,0.4 2.1476,-0.22 1.3361,0.29 3.1713,-0.17 0.0876,-0.23 0.5333,0.27 2.7295,-0.3 0.3757,0.22 0.0683,-0.32 0.0879,0.45 0.4238,0.11 -0.1485,-0.21 -0.5305,0.23"
     id="path6677" />
</g>
<g
   id="g6683"
   transform="matrix(0.68839159,0,0,0.68839159,-216.00571,312.91391)">
  <path
     fill="none"
     stroke="#000000"
     stroke-width="4"
     stroke-linecap="round"
     stroke-linejoin="round"
     d="m -179.324,1299.08 1.336,0.32 0.627,-0.28 1.6,0.13 0.505,0.28 1.107,-0.28 3.524,0.38 1.503,-0.28 1.877,0.47 2.578,-0.27 1.636,0.51 10.943,-0.36 1.29,0.46 12.297,-0.79 4.012,0.12 0.663,0.32 2.865,0.27 12.419,-0.31 3.568,0.46 5.121,0.05 1.506,-0.29 11.1818,0.23 1.2865,-0.24 1.5563,0.24 3.6812,-0.65 1.0586,0.12"
     id="path6681" />
</g>
<g
   id="g6687"
   transform="matrix(0.68839159,0,0,0.68839159,-216.00571,312.91391)">
  <path
     fill="none"
     stroke="#000000"
     stroke-width="4"
     stroke-linecap="round"
     stroke-linejoin="round"
     d="m -179.541,1312.91 0.511,13 -0.005,14.75 -0.396,13.92 0.232,24.98 -0.235,5.89 0.288,2.88 -0.17,5.04 0.368,3.38 -0.009,4.92"
     id="path6685" />
</g>
<g
   id="g6691"
   transform="matrix(0.68839159,0,0,0.68839159,-216.00571,312.91391)">
  <path
     fill="none"
     stroke="#000000"
     stroke-width="4"
     stroke-linecap="round"
     stroke-linejoin="round"
     d="m -75.6093,1298.81 -0.2416,-0.01 0.1064,0.25 -0.1085,-0.18 0.3447,4.52 -0.2821,7.67 0.2186,0.77 -0.1476,13.95 0.6259,16.86 -0.4876,18.75 0.1298,5.19 -0.2851,3.56 0.1884,12.06 -0.252,1 0.3234,1.33 -0.3683,12.03 0.3108,1.68 -0.2146,0.84 0.2123,2.4 -0.0431,0.24 -0.0854,-0.5 -0.1792,0.21"
     id="path6689" />
</g>
<g
   id="g6695"
   transform="matrix(0.68839159,0,0,0.68839159,-216.00571,312.91391)">
  <path
     fill="none"
     stroke="#000000"
     stroke-width="4"
     stroke-linecap="round"
     stroke-linejoin="round"
     d="m 15.6403,1299.36 h 0.0632"
     id="path6693" />
</g>
<g
   id="g6699"
   transform="matrix(0.68839159,0,0,0.68839159,-216.00571,312.91391)">
  <path
     fill="none"
     stroke="#000000"
     stroke-width="4"
     stroke-linecap="round"
     stroke-linejoin="round"
     d="m 15.5651,1299.36 0.0793,-0.24 0.821,1.31 0.695,0.32 2.804,3 0.546,0.23 1.8875,2.29 0.0648,-0.28 0.2347,0.67 1.0847,0.86 0.5717,1 2.3066,2.42"
     id="path6697" />
</g>
<g
   id="g6703"
   transform="matrix(0.68839159,0,0,0.68839159,-216.00571,312.91391)">
  <path
     fill="none"
     stroke="#000000"
     stroke-width="4"
     stroke-linecap="round"
     stroke-linejoin="round"
     d="m 14.717,1300.45 -0.2114,0.81 0.2088,5.39 0.5837,6.96 0.1765,-0.22 0.1949,0.89 -0.0019,-0.55 -3e-4,0.34 0.3251,-0.3 0.7737,0.39 0.2149,-0.22 0.0749,0.3 0.0762,-0.28 1.0849,-0.47 0.6734,0.19 0.0824,0.31 0.6137,-0.37 0.4492,0.32 0.9836,0.15 0.5439,-0.29 0.0665,0.31 0.6158,0.05 0.7335,-0.37 0.1053,0.29 0.3218,-0.5 0.9046,0.47 0.8199,-0.11 0.0634,0.26 0.832,-0.41 0.525,0.3 0.0089,-0.27 0.066,0.5 0.3871,-0.08"
     id="path6701" />
</g>
<g
   id="g6707"
   transform="matrix(0.68839159,0,0,0.68839159,-216.00571,312.91391)">
  <path
     fill="none"
     stroke="#000000"
     stroke-width="4"
     stroke-linecap="round"
     stroke-linejoin="round"
     d="m -75.9398,1402.87 0.1022,0.55 0.7721,-0.63 1.0545,0.28 1.6132,-0.52 3.4821,0.19 1.9673,-0.5 0.8114,0.46 1.4889,-0.39 1.2232,0.25 1.8226,-0.14 0.0951,0.29 1.4184,-0.45 1.3499,0.12 3.7308,-0.44 2.0314,0.43 2.0814,-0.32 1.7221,0.47 6.94,-0.06 5.7391,-0.53 1.9739,-0.53 0.7919,0.3 4.3936,-0.21 2.4525,0.39 16.1654,-0.56 2.74782,0.3 3.59341,-0.22 3.700504,0.25 3.122036,-0.5 3.66236,0.23 1.55975,-0.29 0.95252,0.2 0.12493,-0.23 0.69425,0.36 3.44202,-0.14 3.8797,0.4 2.1476,-0.22 1.3361,0.29 3.1713,-0.17 0.0876,-0.23 0.5332,0.27 2.7296,-0.31 0.3757,0.23 0.0683,-0.32 0.0879,0.45 0.4238,0.11 -0.1485,-0.21 -0.5305,0.22"
     id="path6705" />
</g>
<g
   id="g6711"
   transform="matrix(0.68839159,0,0,0.68839159,-216.00571,312.91391)">
  <path
     fill="none"
     stroke="#000000"
     stroke-width="4"
     stroke-linecap="round"
     stroke-linejoin="round"
     d="m -75.5946,1298.49 1.3367,0.32 0.6262,-0.28 1.6002,0.13 0.5048,0.28 1.107,-0.27 3.5244,0.38 1.503,-0.28 1.8773,0.46 2.5779,-0.26 1.636,0.5 10.9428,-0.36 1.2905,0.46 12.2966,-0.78 4.012,0.12 0.6631,0.32 2.8646,0.26 12.4189,-0.3 3.5688,0.46 5.12095,0.05 1.50607,-0.29 11.1814,0.23 1.2865,-0.24 1.55627,0.23 3.68121,-0.64 1.0586,0.12"
     id="path6709" />
</g>
<g
   id="g6715"
   transform="matrix(0.68839159,0,0,0.68839159,-216.00571,312.91391)">
  <path
     fill="none"
     stroke="#000000"
     stroke-width="4"
     stroke-linecap="round"
     stroke-linejoin="round"
     d="m -29.8952,1329.69 -0.315,-0.41 0.2595,-1.79 1.5323,-1.23 0.9357,0.06 1.0792,0.71 0.527,0.8 0.7574,3.29 -0.0102,4.03 -0.7612,5.92 -1.4183,5.91 -1.3139,3.44 0.8152,-0.6 1.3051,0.66 0.8808,2.57 0.4292,5.14 -0.2048,8.7 -1.1948,6.28 -1.2507,2.51 -0.8038,0.75 -0.1648,-0.14 -0.3301,0.5 -0.0356,-0.21 -0.524,0.07 -1.7429,-1.06 -1.5813,-2.55"
     id="path6713" />
</g>
<g
   id="g6719"
   transform="matrix(0.68839159,0,0,0.68839159,-216.00571,312.91391)">
  <path
     fill="none"
     stroke="#000000"
     stroke-width="4"
     stroke-linecap="round"
     stroke-linejoin="round"
     d="m -235.763,1332.08 -0.393,0.12 0.423,-0.16 0.636,-1.21 1.351,-4.35 -0.549,18.62 0.484,27.37 0.313,2.39 -0.202,0.68 -0.22,-1.59"
     id="path6717" />
</g>
<g
   id="g6723"
   transform="matrix(0.68839159,0,0,0.68839159,-216.00571,312.91391)">
  <path
     fill="none"
     stroke="#000000"
     stroke-width="4"
     stroke-linecap="round"
     stroke-linejoin="round"
     d="m -134.276,1327.89 -0.246,-0.37 0.131,-0.87 0.83,-1.59 1.132,-0.91 2.183,0.1 0.534,0.2 1.302,1.86 0.68,2.86 -0.446,4.45 -3.875,10.06 -0.835,3.55 -1.236,9.51 0.109,16.58 0.195,0.2 0.609,-0.3 0.756,0.31 1.312,-0.58 0.432,0.38 0.777,-0.22 0.321,0.3 0.674,-0.67 -0.105,0.59"
     id="path6721" />
</g>
<g
   id="g6727"
   transform="matrix(0.68839159,0,0,0.68839159,-216.00571,312.91391)">
  <path
     fill="none"
     stroke="#000000"
     stroke-width="4"
     stroke-linecap="round"
     stroke-linejoin="round"
     d="m 27.7542,1312.55 0.5104,13 -0.0046,14.75 -0.3963,13.92 0.2318,24.97 -0.2346,5.9 0.2879,2.88 -0.1695,5.04 0.3676,3.37 -0.0089,4.93"
     id="path6725" />
</g>
<g
   id="g6731"
   transform="matrix(0.68839159,0,0,0.68839159,-216.00571,312.91391)">
  <path
     fill="none"
     stroke="#000000"
     stroke-width="4"
     stroke-linecap="round"
     stroke-linejoin="round"
     d="m 28.4607,1298.27 -0.2415,-0.01 0.1063,0.26 -0.1085,-0.19 0.3448,4.52 -0.2822,7.68 0.2187,0.77 -0.1477,13.95 0.6259,16.86 -0.4876,18.74 0.1299,5.2 -0.2851,3.55 0.1883,12.06 -0.2519,1 0.3233,1.33 -0.3683,12.04 0.3109,1.68 -0.2147,0.84 0.2124,2.4 -0.0432,0.23 -0.0854,-0.49 -0.1791,0.21"
     id="path6729" />
</g>
<g
   id="g6735"
   transform="matrix(0.68839159,0,0,0.68839159,-216.00571,312.91391)">
  <path
     fill="none"
     stroke="#000000"
     stroke-width="4"
     stroke-linecap="round"
     stroke-linejoin="round"
     d="m 28.1303,1402.33 0.1022,0.55 0.7721,-0.63 1.0545,0.28 1.6132,-0.51 3.482,0.18 1.9673,-0.49 0.8115,0.46 1.4888,-0.39 1.2232,0.25 1.8227,-0.15 0.0951,0.3 1.4184,-0.45 1.3498,0.12 3.7308,-0.44 2.0315,0.43 2.0814,-0.32 1.722,0.47 6.94,-0.07 5.7391,-0.52 1.974,-0.53 0.7919,0.3 4.3936,-0.21 2.4525,0.39 16.1653,-0.56 2.7479,0.3 3.5934,-0.23 3.7005,0.26 3.122,-0.51 3.662,0.24 1.56,-0.3 0.953,0.21 0.125,-0.23 0.694,0.35 3.442,-0.14 3.88,0.41 2.147,-0.23 1.336,0.3 3.172,-0.18 0.087,-0.23 0.533,0.28 2.73,-0.31 0.376,0.22 0.068,-0.32 0.088,0.45 0.424,0.11 -0.149,-0.21 -0.53,0.23"
     id="path6733" />
</g>
<g
   id="g6739"
   transform="matrix(0.68839159,0,0,0.68839159,-216.00571,312.91391)">
  <path
     fill="none"
     stroke="#000000"
     stroke-width="4"
     stroke-linecap="round"
     stroke-linejoin="round"
     d="m 119.71,1298.82 h 0.064"
     id="path6737" />
</g>
<g
   id="g6743"
   transform="matrix(0.68839159,0,0,0.68839159,-216.00571,312.91391)">
  <path
     fill="none"
     stroke="#000000"
     stroke-width="4"
     stroke-linecap="round"
     stroke-linejoin="round"
     d="m 119.635,1298.82 0.079,-0.24 0.821,1.32 0.695,0.32 2.804,3 0.546,0.23 1.888,2.29 0.065,-0.28 0.234,0.67 1.085,0.86 0.572,1 2.306,2.42"
     id="path6741" />
</g>
<g
   id="g6747"
   transform="matrix(0.68839159,0,0,0.68839159,-216.00571,312.91391)">
  <path
     fill="none"
     stroke="#000000"
     stroke-width="4"
     stroke-linecap="round"
     stroke-linejoin="round"
     d="m 118.787,1299.92 -0.211,0.81 0.208,5.38 0.584,6.97 0.177,-0.22 0.195,0.89 -0.002,-0.55 -0.001,0.33 0.325,-0.3 0.774,0.4 0.215,-0.23 0.075,0.31 0.076,-0.29 1.085,-0.46 0.673,0.19 0.083,0.31 0.614,-0.37 0.449,0.32 0.983,0.15 0.544,-0.29 0.067,0.3 0.615,0.06 0.734,-0.37 0.105,0.28 0.322,-0.5 0.905,0.48 0.82,-0.11 0.063,0.25 0.832,-0.4 0.525,0.3 0.009,-0.27 0.066,0.5 0.387,-0.09"
     id="path6745" />
</g>
<g
   id="g6751"
   transform="matrix(0.68839159,0,0,0.68839159,-216.00571,312.91391)">
  <path
     fill="none"
     stroke="#000000"
     stroke-width="4"
     stroke-linecap="round"
     stroke-linejoin="round"
     d="m 131.824,1312.01 0.511,13 -0.005,14.75 -0.396,13.92 0.232,24.98 -0.235,5.9 0.288,2.88 -0.17,5.03 0.368,3.38 -0.009,4.92"
     id="path6749" />
</g>
<g
   id="g6755"
   transform="matrix(0.68839159,0,0,0.68839159,-216.00571,312.91391)">
  <path
     fill="none"
     stroke="#000000"
     stroke-width="4"
     stroke-linecap="round"
     stroke-linejoin="round"
     d="m 28.4755,1297.96 1.3366,0.32 0.6262,-0.28 1.6002,0.13 0.5049,0.28 1.107,-0.28 3.5243,0.38 1.503,-0.27 1.8773,0.46 2.5779,-0.27 1.6361,0.51 10.9427,-0.36 1.2905,0.46 12.2967,-0.78 4.0119,0.11 0.6631,0.32 2.8646,0.27 12.4189,-0.3 3.5688,0.46 5.121,0.04 1.5061,-0.29 11.1817,0.24 1.286,-0.24 1.556,0.23 3.682,-0.64 1.058,0.11"
     id="path6753" />
</g>
<g
   id="g6759"
   transform="matrix(0.68839159,0,0,0.68839159,-216.00571,312.91391)">
  <path
     fill="none"
     stroke="#000000"
     stroke-width="4"
     stroke-linecap="round"
     stroke-linejoin="round"
     d="m 77.3963,1322.6 -0.2253,3.59 0.4527,10.86 -0.382,8.86 7e-4,6.85 0.2686,2.17 -0.2704,2.3 0.2976,4.2 -0.1041,10.39"
     id="path6757" />
</g>
<g
   id="g6763"
   transform="matrix(0.68839159,0,0,0.68839159,-216.00571,312.91391)">
  <path
     fill="none"
     stroke="#000000"
     stroke-width="4"
     stroke-linecap="round"
     stroke-linejoin="round"
     d="m 76.6557,1322.86 0.3414,0.04 -1.8244,6.88 -1.4698,8.63 -4.1432,14.02 0.0991,-0.33 1.2458,-0.38 1.0339,0.28 1.0474,-0.34 0.3244,0.23 2.792,-0.81 4.5116,0.4"
     id="path6761" />
</g>
<g
   id="g6767"
   transform="matrix(0.68839159,0,0,0.68839159,-216.00571,312.91391)">
  <path
     fill="none"
     stroke="#000000"
     stroke-width="4"
     stroke-linecap="round"
     stroke-linejoin="round"
     d="m 131.423,1313.34 0.51,13 -0.004,14.75 -0.397,13.92 0.232,24.97 -0.235,5.9 0.288,2.88 -0.169,5.04 0.367,3.37 -0.008,4.93"
     id="path6765" />
</g>
<g
   id="g6771"
   transform="matrix(0.68839159,0,0,0.68839159,-216.00571,312.91391)">
  <path
     fill="none"
     stroke="#000000"
     stroke-width="4"
     stroke-linecap="round"
     stroke-linejoin="round"
     d="m 132.129,1299.06 -0.241,-0.01 0.106,0.26 -0.108,-0.18 0.344,4.52 -0.282,7.67 0.219,0.77 -0.148,13.95 0.626,16.86 -0.487,18.74 0.129,5.2 -0.285,3.56 0.189,12.05 -0.252,1.01 0.323,1.32 -0.368,12.04 0.311,1.68 -0.215,0.84 0.212,2.4 -0.043,0.23 -0.085,-0.49 -0.179,0.21"
     id="path6769" />
</g>
<g
   id="g6775"
   transform="matrix(0.68839159,0,0,0.68839159,-216.00571,312.91391)">
  <path
     fill="none"
     stroke="#000000"
     stroke-width="4"
     stroke-linecap="round"
     stroke-linejoin="round"
     d="m 131.799,1403.13 0.102,0.54 0.772,-0.62 1.055,0.28 1.613,-0.52 3.482,0.18 1.967,-0.49 0.812,0.46 1.488,-0.39 1.224,0.25 1.822,-0.15 0.095,0.3 1.419,-0.45 1.35,0.12 3.73,-0.44 2.032,0.43 2.081,-0.32 1.722,0.47 6.94,-0.07 5.74,-0.52 1.973,-0.53 0.792,0.3 4.394,-0.21 2.452,0.39 16.166,-0.56 2.748,0.3 3.593,-0.23 3.701,0.26 3.122,-0.5 3.662,0.23 1.56,-0.3 0.952,0.21 0.125,-0.23 0.694,0.35 3.442,-0.14 3.88,0.41 2.148,-0.23 1.336,0.3 3.171,-0.17 0.088,-0.23 0.533,0.27 2.73,-0.31 0.375,0.22 0.068,-0.31 0.088,0.45 0.424,0.1 -0.148,-0.21 -0.531,0.23"
     id="path6773" />
</g>
<g
   id="g6779"
   transform="matrix(0.68839159,0,0,0.68839159,-216.00571,312.91391)">
  <path
     fill="none"
     stroke="#000000"
     stroke-width="4"
     stroke-linecap="round"
     stroke-linejoin="round"
     d="m 223.379,1299.61 h 0.063"
     id="path6777" />
</g>
<g
   id="g6783"
   transform="matrix(0.68839159,0,0,0.68839159,-216.00571,312.91391)">
  <path
     fill="none"
     stroke="#000000"
     stroke-width="4"
     stroke-linecap="round"
     stroke-linejoin="round"
     d="m 223.304,1299.61 0.079,-0.23 0.821,1.31 0.695,0.32 2.804,3 0.546,0.23 1.887,2.29 0.065,-0.28 0.235,0.67 1.085,0.86 0.571,1 2.307,2.42"
     id="path6781" />
</g>
<g
   id="g6787"
   transform="matrix(0.68839159,0,0,0.68839159,-216.00571,312.91391)">
  <path
     fill="none"
     stroke="#000000"
     stroke-width="4"
     stroke-linecap="round"
     stroke-linejoin="round"
     d="m 222.456,1300.71 -0.212,0.81 0.209,5.39 0.584,6.96 0.176,-0.22 0.195,0.89 -0.002,-0.55 v 0.33 l 0.325,-0.3 0.774,0.4 0.215,-0.23 0.074,0.31 0.077,-0.29 1.085,-0.46 0.673,0.19 0.082,0.31 0.614,-0.37 0.449,0.32 0.984,0.15 0.544,-0.29 0.066,0.3 0.616,0.06 0.734,-0.37 0.105,0.29 0.322,-0.5 0.904,0.47 0.82,-0.11 0.064,0.26 0.832,-0.41 0.525,0.3 0.008,-0.27 0.066,0.5 0.388,-0.08"
     id="path6785" />
</g>
<g
   id="g6791"
   transform="matrix(0.68839159,0,0,0.68839159,-216.00571,312.91391)">
  <path
     fill="none"
     stroke="#000000"
     stroke-width="4"
     stroke-linecap="round"
     stroke-linejoin="round"
     d="m 235.493,1312.81 0.51,13 -0.004,14.74 -0.397,13.92 0.232,24.98 -0.235,5.9 0.288,2.88 -0.169,5.03 0.367,3.38 -0.008,4.93"
     id="path6789" />
</g>
<g
   id="g6795"
   transform="matrix(0.68839159,0,0,0.68839159,-216.00571,312.91391)">
  <path
     fill="none"
     stroke="#000000"
     stroke-width="4"
     stroke-linecap="round"
     stroke-linejoin="round"
     d="m 132.144,1298.75 1.337,0.32 0.626,-0.28 1.6,0.13 0.505,0.28 1.107,-0.27 3.524,0.38 1.503,-0.28 1.878,0.46 2.577,-0.26 1.637,0.5 10.942,-0.36 1.291,0.46 12.296,-0.78 4.012,0.12 0.663,0.32 2.865,0.26 12.419,-0.3 3.569,0.46 5.121,0.05 1.506,-0.3 11.181,0.24 1.287,-0.24 1.556,0.23 3.681,-0.64 1.059,0.12"
     id="path6793" />
</g>
<g
   id="g6799"
   transform="matrix(0.68839159,0,0,0.68839159,-216.00571,312.91391)">
  <path
     fill="none"
     stroke="#000000"
     stroke-width="4"
     stroke-linecap="round"
     stroke-linejoin="round"
     d="m 183.133,1327.76 -0.723,-0.09 0.261,-0.35 0.085,0.38 0.119,-0.55 -0.017,0.29 0.751,0.25 0.141,-0.21 0.053,0.25 0.538,-0.47 0.716,0.32 0.572,-0.37 0.996,0.6 0.429,-0.61 0.669,0.53 0.81,-0.36 -0.011,0.48"
     id="path6797" />
</g>
<g
   id="g6803"
   transform="matrix(0.68839159,0,0,0.68839159,-216.00571,312.91391)">
  <path
     fill="none"
     stroke="#000000"
     stroke-width="4"
     stroke-linecap="round"
     stroke-linejoin="round"
     d="m 181.845,1329.4 0.605,11.1 -0.822,12.18 1.013,-1.66 0.096,0.46 0.114,-0.43 0.084,0.45 0.032,-0.26 0.049,0.28 1.433,-0.11 1.742,0.98 1.101,3.34 0.454,8.62 -0.672,7.66 -1.298,4.21 -1.429,1.7 -0.619,-0.1 -0.509,0.44 -0.045,-0.26 -0.353,0.52 -0.785,-0.15 -0.398,-0.43 -0.051,0.38 -0.136,-0.48 -0.097,0.25 -0.075,-0.49 -0.097,0.23 -0.131,-0.5 -0.867,-0.78 -0.725,-1.39 -0.128,0.72"
     id="path6801" />
</g>
<g
   id="g6807"
   transform="matrix(0.68839159,0,0,0.68839159,-216.00571,312.91391)">
  <path
     fill="none"
     stroke="#000000"
     stroke-width="4"
     stroke-linecap="round"
     stroke-linejoin="round"
     d="m -77.3024,1203.53 0.3922,5.7"
     id="path6805" />
</g>
<g
   id="g6811"
   transform="matrix(0.68839159,0,0,0.68839159,-216.00571,312.91391)">
  <path
     fill="none"
     stroke="#000000"
     stroke-width="4"
     stroke-linecap="round"
     stroke-linejoin="round"
     d="m -77.0523,1220.02 -0.1304,6.46"
     id="path6809" />
</g>
<g
   id="g6815"
   transform="matrix(0.68839159,0,0,0.68839159,-216.00571,312.91391)">
  <path
     fill="none"
     stroke="#000000"
     stroke-width="4"
     stroke-linecap="round"
     stroke-linejoin="round"
     d="m -77.0754,1236.14 0.0591,6.71 0.2624,-0.62"
     id="path6813" />
</g>
<g
   id="g6819"
   transform="matrix(0.68839159,0,0,0.68839159,-216.00571,312.91391)">
  <path
     fill="none"
     stroke="#000000"
     stroke-width="4"
     stroke-linecap="round"
     stroke-linejoin="round"
     d="m -76.4259,1254.36 0.3258,3.03 -0.1168,3.91"
     id="path6817" />
</g>
<g
   id="g6823"
   transform="matrix(0.68839159,0,0,0.68839159,-216.00571,312.91391)">
  <path
     fill="none"
     stroke="#000000"
     stroke-width="4"
     stroke-linecap="round"
     stroke-linejoin="round"
     d="m -76.9535,1275.6 -0.1398,5.79 -0.242,-0.69"
     id="path6821" />
</g>
<g
   id="g6827"
   transform="matrix(0.68839159,0,0,0.68839159,-216.00571,312.91391)">
  <path
     fill="none"
     stroke="#000000"
     stroke-width="4"
     stroke-linecap="round"
     stroke-linejoin="round"
     d="m 131.361,1205.05 0.393,5.7"
     id="path6825" />
</g>
<g
   id="g6831"
   transform="matrix(0.68839159,0,0,0.68839159,-216.00571,312.91391)">
  <path
     fill="none"
     stroke="#000000"
     stroke-width="4"
     stroke-linecap="round"
     stroke-linejoin="round"
     d="m 131.612,1221.53 -0.131,6.47"
     id="path6829" />
</g>
<g
   id="g6835"
   transform="matrix(0.68839159,0,0,0.68839159,-216.00571,312.91391)">
  <path
     fill="none"
     stroke="#000000"
     stroke-width="4"
     stroke-linecap="round"
     stroke-linejoin="round"
     d="m 131.588,1237.66 0.06,6.71 0.262,-0.62"
     id="path6833" />
</g>
<g
   id="g6839"
   transform="matrix(0.68839159,0,0,0.68839159,-216.00571,312.91391)">
  <path
     fill="none"
     stroke="#000000"
     stroke-width="4"
     stroke-linecap="round"
     stroke-linejoin="round"
     d="m 132.238,1255.88 0.326,3.03 -0.117,3.91"
     id="path6837" />
</g>
<g
   id="g6843"
   transform="matrix(0.68839159,0,0,0.68839159,-216.00571,312.91391)">
  <path
     fill="none"
     stroke="#000000"
     stroke-width="4"
     stroke-linecap="round"
     stroke-linejoin="round"
     d="m 131.71,1277.12 -0.139,5.79 -0.242,-0.69"
     id="path6841" />
</g>
<g
   id="g6847"
   transform="matrix(0.68839159,0,0,0.68839159,-216.00571,312.91391)">
  <path
     fill="none"
     stroke="#000000"
     stroke-width="4"
     stroke-linecap="round"
     stroke-linejoin="round"
     d="m -76.0324,1416.99 0.3922,5.7"
     id="path6845" />
</g>
<g
   id="g6851"
   transform="matrix(0.68839159,0,0,0.68839159,-216.00571,312.91391)">
  <path
     fill="none"
     stroke="#000000"
     stroke-width="4"
     stroke-linecap="round"
     stroke-linejoin="round"
     d="m -75.7823,1433.47 -0.1303,6.47"
     id="path6849" />
</g>
<g
   id="g6855"
   transform="matrix(0.68839159,0,0,0.68839159,-216.00571,312.91391)">
  <path
     fill="none"
     stroke="#000000"
     stroke-width="4"
     stroke-linecap="round"
     stroke-linejoin="round"
     d="m -75.8054,1449.59 0.0592,6.71 0.2624,-0.61"
     id="path6853" />
</g>
<g
   id="g6859"
   transform="matrix(0.68839159,0,0,0.68839159,-216.00571,312.91391)">
  <path
     fill="none"
     stroke="#000000"
     stroke-width="4"
     stroke-linecap="round"
     stroke-linejoin="round"
     d="m -75.1559,1467.81 0.3258,3.03 -0.1168,3.91"
     id="path6857" />
</g>
<g
   id="g6863"
   transform="matrix(0.68839159,0,0,0.68839159,-216.00571,312.91391)">
  <path
     fill="none"
     stroke="#000000"
     stroke-width="4"
     stroke-linecap="round"
     stroke-linejoin="round"
     d="m -75.6835,1489.05 -0.1398,5.79 -0.2419,-0.68"
     id="path6861" />
</g>
<g
   id="g6867"
   transform="matrix(0.68839159,0,0,0.68839159,-216.00571,312.91391)">
  <path
     fill="none"
     stroke="#000000"
     stroke-width="4"
     stroke-linecap="round"
     stroke-linejoin="round"
     d="m -282.278,1416.6 0.393,5.71"
     id="path6865" />
</g>
<g
   id="g6871"
   transform="matrix(0.68839159,0,0,0.68839159,-216.00571,312.91391)">
  <path
     fill="none"
     stroke="#000000"
     stroke-width="4"
     stroke-linecap="round"
     stroke-linejoin="round"
     d="m -282.028,1433.09 -0.13,6.46"
     id="path6869" />
</g>
<g
   id="g6875"
   transform="matrix(0.68839159,0,0,0.68839159,-216.00571,312.91391)">
  <path
     fill="none"
     stroke="#000000"
     stroke-width="4"
     stroke-linecap="round"
     stroke-linejoin="round"
     d="m -282.051,1449.21 0.059,6.71 0.263,-0.61"
     id="path6873" />
</g>
<g
   id="g6879"
   transform="matrix(0.68839159,0,0,0.68839159,-216.00571,312.91391)">
  <path
     fill="none"
     stroke="#000000"
     stroke-width="4"
     stroke-linecap="round"
     stroke-linejoin="round"
     d="m -281.401,1467.43 0.326,3.03 -0.117,3.91"
     id="path6877" />
</g>
<g
   id="g6883"
   transform="matrix(0.68839159,0,0,0.68839159,-216.00571,312.91391)">
  <path
     fill="none"
     stroke="#000000"
     stroke-width="4"
     stroke-linecap="round"
     stroke-linejoin="round"
     d="m -281.929,1488.67 -0.14,5.79 -0.241,-0.69"
     id="path6881" />
</g>
<g
   id="g6887"
   transform="matrix(0.68839159,0,0,0.68839159,-216.00571,312.91391)">
  <path
     fill="none"
     stroke="#000000"
     stroke-width="4"
     stroke-linecap="round"
     stroke-linejoin="round"
     d="m 123.003,1409.34 -3.915,1.93 -1.528,0.63 0.258,-0.33"
     id="path6885" />
</g>
<g
   id="g6891"
   transform="matrix(0.68839159,0,0,0.68839159,-216.00571,312.91391)">
  <path
     fill="none"
     stroke="#000000"
     stroke-width="4"
     stroke-linecap="round"
     stroke-linejoin="round"
     d="m 107.766,1416.25 0.386,0.22 -1.939,0.73 -2.49,1.62 -1.726,0.72 -0.485,0.54 0.198,-0.38"
     id="path6889" />
</g>
<g
   id="g6895"
   transform="matrix(0.68839159,0,0,0.68839159,-216.00571,312.91391)">
  <path
     fill="none"
     stroke="#000000"
     stroke-width="4"
     stroke-linecap="round"
     stroke-linejoin="round"
     d="m 93.324,1424.59 -0.0422,-0.36 -0.444,0.06 -3.0373,1.63 -0.7708,0.05 -1.2316,0.81 0.3657,-0.4"
     id="path6893" />
</g>
<g
   id="g6899"
   transform="matrix(0.68839159,0,0,0.68839159,-216.00571,312.91391)">
  <path
     fill="none"
     stroke="#000000"
     stroke-width="4"
     stroke-linecap="round"
     stroke-linejoin="round"
     d="m 77.0962,1432.01 -3.8042,2.09 -1.3534,0.25 -0.368,0.34 0.578,-0.39"
     id="path6897" />
</g>
<g
   id="g6903"
   transform="matrix(0.68839159,0,0,0.68839159,-216.00571,312.91391)">
  <path
     fill="none"
     stroke="#000000"
     stroke-width="4"
     stroke-linecap="round"
     stroke-linejoin="round"
     d="m 61.1671,1439.76 -2.7669,1.12 -1.9289,1.32"
     id="path6901" />
</g>
<g
   id="g6907"
   transform="matrix(0.68839159,0,0,0.68839159,-216.00571,312.91391)">
  <path
     fill="none"
     stroke="#000000"
     stroke-width="4"
     stroke-linecap="round"
     stroke-linejoin="round"
     d="m 44.3956,1447.28 -4.8977,2.71"
     id="path6905" />
</g>
<g
   id="g6911"
   transform="matrix(0.68839159,0,0,0.68839159,-216.00571,312.91391)">
  <path
     fill="none"
     stroke="#000000"
     stroke-width="4"
     stroke-linecap="round"
     stroke-linejoin="round"
     d="m 29.3857,1454.83 -4.6556,2.33"
     id="path6909" />
</g>
<g
   id="g6915"
   transform="matrix(0.68839159,0,0,0.68839159,-216.00571,312.91391)">
  <path
     fill="none"
     stroke="#000000"
     stroke-width="4"
     stroke-linecap="round"
     stroke-linejoin="round"
     d="m 13.0833,1462.72 -1.0217,0.15 -4.16307,2.34"
     id="path6913" />
</g>
<g
   id="g6919"
   transform="matrix(0.68839159,0,0,0.68839159,-216.00571,312.91391)">
  <path
     fill="none"
     stroke="#000000"
     stroke-width="4"
     stroke-linecap="round"
     stroke-linejoin="round"
     d="m -1.55413,1469.74 -3.99465,1.95"
     id="path6917" />
</g>
<g
   id="g6923"
   transform="matrix(0.68839159,0,0,0.68839159,-216.00571,312.91391)">
  <path
     fill="none"
     stroke="#000000"
     stroke-width="4"
     stroke-linecap="round"
     stroke-linejoin="round"
     d="m -15.5142,1476.64 -0.2816,0.36 0.2191,-0.03 -3.7352,1.89"
     id="path6921" />
</g>
<g
   id="g6927"
   transform="matrix(0.68839159,0,0,0.68839159,-216.00571,312.91391)">
  <path
     fill="none"
     stroke="#000000"
     stroke-width="4"
     stroke-linecap="round"
     stroke-linejoin="round"
     d="m -27.3247,1483.28 -3.6036,2.18 -0.5297,-0.03"
     id="path6925" />
</g>
<g
   id="g6931"
   transform="matrix(0.68839159,0,0,0.68839159,-216.00571,312.91391)">
  <path
     fill="none"
     stroke="#000000"
     stroke-width="4"
     stroke-linecap="round"
     stroke-linejoin="round"
     d="m -38.2929,1488.81 -3.9249,1.84 -1.9139,1.46 1.1617,-1.05"
     id="path6929" />
</g>
<g
   id="g6935"
   transform="matrix(0.68839159,0,0,0.68839159,-216.00571,312.91391)">
  <path
     fill="none"
     stroke="#000000"
     stroke-width="4"
     stroke-linecap="round"
     stroke-linejoin="round"
     d="m -50.8064,1495.04 -3.8268,2.12"
     id="path6933" />
</g>
<g
   id="g6939"
   transform="matrix(0.68839159,0,0,0.68839159,-216.00571,312.91391)">
  <path
     fill="none"
     stroke="#000000"
     stroke-width="4"
     stroke-linecap="round"
     stroke-linejoin="round"
     d="m -63.8904,1500.54 -3.5293,1.77"
     id="path6937" />
</g>
<g
   id="g6943"
   transform="matrix(0.68839159,0,0,0.68839159,-216.00571,312.91391)">
  <path
     fill="none"
     stroke="#000000"
     stroke-width="4"
     stroke-linecap="round"
     stroke-linejoin="round"
     d="m 231.699,1410.32 -3.915,1.93 -1.528,0.63 0.258,-0.33"
     id="path6941" />
</g>
<g
   id="g6947"
   transform="matrix(0.68839159,0,0,0.68839159,-216.00571,312.91391)">
  <path
     fill="none"
     stroke="#000000"
     stroke-width="4"
     stroke-linecap="round"
     stroke-linejoin="round"
     d="m 216.462,1417.23 0.386,0.22 -1.939,0.73 -2.49,1.62 -1.726,0.72 -0.485,0.54 0.198,-0.38"
     id="path6945" />
</g>
<g
   id="g6951"
   transform="matrix(0.68839159,0,0,0.68839159,-216.00571,312.91391)">
  <path
     fill="none"
     stroke="#000000"
     stroke-width="4"
     stroke-linecap="round"
     stroke-linejoin="round"
     d="m 202.02,1425.57 -0.042,-0.36 -0.444,0.06 -3.038,1.63 -0.77,0.05 -1.232,0.81 0.366,-0.4"
     id="path6949" />
</g>
<g
   id="g6955"
   transform="matrix(0.68839159,0,0,0.68839159,-216.00571,312.91391)">
  <path
     fill="none"
     stroke="#000000"
     stroke-width="4"
     stroke-linecap="round"
     stroke-linejoin="round"
     d="m 185.792,1432.99 -3.804,2.09 -1.354,0.25 -0.368,0.34 0.578,-0.39"
     id="path6953" />
</g>
<g
   id="g6959"
   transform="matrix(0.68839159,0,0,0.68839159,-216.00571,312.91391)">
  <path
     fill="none"
     stroke="#000000"
     stroke-width="4"
     stroke-linecap="round"
     stroke-linejoin="round"
     d="m 169.863,1440.74 -2.767,1.12 -1.929,1.32"
     id="path6957" />
</g>
<g
   id="g6963"
   transform="matrix(0.68839159,0,0,0.68839159,-216.00571,312.91391)">
  <path
     fill="none"
     stroke="#000000"
     stroke-width="4"
     stroke-linecap="round"
     stroke-linejoin="round"
     d="m 153.091,1448.26 -4.897,2.71"
     id="path6961" />
</g>
<g
   id="g6967"
   transform="matrix(0.68839159,0,0,0.68839159,-216.00571,312.91391)">
  <path
     fill="none"
     stroke="#000000"
     stroke-width="4"
     stroke-linecap="round"
     stroke-linejoin="round"
     d="m 138.082,1455.81 -4.656,2.33"
     id="path6965" />
</g>
<g
   id="g6971"
   transform="matrix(0.68839159,0,0,0.68839159,-216.00571,312.91391)">
  <path
     fill="none"
     stroke="#000000"
     stroke-width="4"
     stroke-linecap="round"
     stroke-linejoin="round"
     d="m 121.779,1463.7 -1.022,0.15 -4.163,2.34"
     id="path6969" />
</g>
<g
   id="g6975"
   transform="matrix(0.68839159,0,0,0.68839159,-216.00571,312.91391)">
  <path
     fill="none"
     stroke="#000000"
     stroke-width="4"
     stroke-linecap="round"
     stroke-linejoin="round"
     d="m 107.142,1470.72 -3.995,1.95"
     id="path6973" />
</g>
<g
   id="g6979"
   transform="matrix(0.68839159,0,0,0.68839159,-216.00571,312.91391)">
  <path
     fill="none"
     stroke="#000000"
     stroke-width="4"
     stroke-linecap="round"
     stroke-linejoin="round"
     d="m 93.1816,1477.62 -0.2816,0.36 0.2192,-0.03 -3.7353,1.89"
     id="path6977" />
</g>
<g
   id="g6983"
   transform="matrix(0.68839159,0,0,0.68839159,-216.00571,312.91391)">
  <path
     fill="none"
     stroke="#000000"
     stroke-width="4"
     stroke-linecap="round"
     stroke-linejoin="round"
     d="m 81.3711,1484.26 -3.6035,2.18 -0.5298,-0.03"
     id="path6981" />
</g>
<g
   id="g6987"
   transform="matrix(0.68839159,0,0,0.68839159,-216.00571,312.91391)">
  <path
     fill="none"
     stroke="#000000"
     stroke-width="4"
     stroke-linecap="round"
     stroke-linejoin="round"
     d="m 70.403,1489.79 -3.925,1.84 -1.9139,1.46 1.1618,-1.05"
     id="path6985" />
</g>
<g
   id="g6991"
   transform="matrix(0.68839159,0,0,0.68839159,-216.00571,312.91391)">
  <path
     fill="none"
     stroke="#000000"
     stroke-width="4"
     stroke-linecap="round"
     stroke-linejoin="round"
     d="m 57.8894,1496.02 -3.8268,2.12"
     id="path6989" />
</g>
<g
   id="g6995"
   transform="matrix(0.68839159,0,0,0.68839159,-216.00571,312.91391)">
  <path
     fill="none"
     stroke="#000000"
     stroke-width="4"
     stroke-linecap="round"
     stroke-linejoin="round"
     d="m 44.8054,1501.53 -3.5292,1.76"
     id="path6993" />
</g>
<g
   id="g6999"
   transform="matrix(0.68839159,0,0,0.68839159,-216.00571,312.91391)">
  <path
     fill="none"
     stroke="#000000"
     stroke-width="4"
     stroke-linecap="round"
     stroke-linejoin="round"
     d="m 30.832,1509.17 h -0.8721 l 0.3366,-0.02 -0.1343,-0.22 0.04,0.61 -0.0363,-0.42 0.9203,-0.34 0.4043,-0.73 0.3691,0.4 1.0716,-1.05 0.4843,-0.05 -0.1815,0.6 0.0912,-0.3"
     id="path6997" />
</g>
<g
   id="g7003"
   transform="matrix(0.68839159,0,0,0.68839159,-216.00571,312.91391)">
  <path
     fill="none"
     stroke="#000000"
     stroke-width="4"
     stroke-linecap="round"
     stroke-linejoin="round"
     d="m -232.36,1640.22 0.145,0.37 -0.028,-0.29 -0.185,0.29 0.245,-0.15 0.121,0.24 -0.18,1.64 0.725,4.51 0.26,5.27 0.573,1.81 -0.013,5.38 0.923,5.49 0.446,8.66 0.603,2.83 -0.079,2.06 0.52,5.03 0.531,1.28 0.064,3.16 0.243,1.34 0.147,-0.35 0.22,0.25 -0.163,0.82 0.112,-2.17 0.553,-1.22 0.034,-1.5 0.438,-1.48 0.055,-2.22 -0.225,-0.09 1.044,-5.9 0.216,-5.25 0.314,-1.09 -0.113,-1.7 0.837,-2.2 -0.017,-1.18 1.677,-9.18 -0.124,-0.76 0.593,-2.08 0.157,-3.58 0.802,-3.01 -0.036,-1.68 0.298,-0.49 0.029,0.29 0.323,-1.59 0.005,-0.45 -0.211,0.33 0.19,0.15 0.124,-0.56 -0.229,0.05 0.136,0.45"
     id="path7001" />
</g>
<g
   id="g7007"
   transform="matrix(0.68839159,0,0,0.68839159,-216.00571,312.91391)">
  <path
     fill="none"
     stroke="#000000"
     stroke-width="4"
     stroke-linecap="round"
     stroke-linejoin="round"
     d="m -214.541,1640.36 0.142,0.23 0.07,-0.42 1.067,0.06 1.186,-0.71 -0.046,0.79 0.197,-0.1 -1.294,-0.22 0.375,0.64 -0.069,1.14 0.434,2.01 -0.235,1.96 0.231,0.14 -0.197,1.05 0.256,1.1 -0.181,3.25 0.309,1.58 -0.564,8.64 0.032,5.46 -0.498,4.25 -0.194,11.01 -0.195,3.39 -0.25,-0.01 0.318,0.32 -0.245,1.73 0.365,0.39 -0.136,-0.41 -0.141,0.52 0.182,0.81 0.025,-0.32 -0.41,-0.19 0.369,0.07 -0.259,0.28 -0.69,-0.13 0.183,0.16 -0.226,0.15 0.294,0.04 -0.719,0.08 0.155,0.2 -0.019,-0.35 1.064,-0.21 0.634,0.46 0.939,-0.33 -0.077,0.34 0.102,-0.76"
     id="path7005" />
</g>
<g
   id="g7011"
   transform="matrix(0.68839159,0,0,0.68839159,-216.00571,312.91391)">
  <path
     fill="none"
     stroke="#000000"
     stroke-width="4"
     stroke-linecap="round"
     stroke-linejoin="round"
     d="m -204.155,1640.74 -0.169,0.25 -0.041,-0.71 0.086,0.98 0.244,-0.16 -0.35,3.51 0.285,3.36 -0.423,2.61 0.221,7.76 -0.281,5.2 -0.21,0.08 0.268,3.67 -0.211,3.54 0.207,1.82 -0.261,1.27 0.175,8.41 -0.232,1.27 0.158,1.91 -0.412,1.64 0.16,1.19 0.202,-0.09 -0.371,0.09 0.143,-0.56"
     id="path7009" />
</g>
<g
   id="g7015"
   transform="matrix(0.68839159,0,0,0.68839159,-216.00571,312.91391)">
  <path
     fill="none"
     stroke="#000000"
     stroke-width="4"
     stroke-linecap="round"
     stroke-linejoin="round"
     d="m -203.574,1640.44 0.676,0.08 0.153,-0.27 0.059,0.28 0.111,-0.33 0.181,0.32 0.259,-0.3 0.016,0.26 0.714,-0.59 0.121,0.42 0.222,-0.26 0.164,0.36 0.033,-0.3 0.125,0.34 0.053,-0.28 0.477,1.03 1.104,0.95 0.158,1.24 0.995,2.06 -0.169,1.58 0.253,1.05 -0.304,1.69 0.671,2.91 -0.351,2.91 -0.249,0.14 0.195,1.51 -0.299,0.39 -0.381,3.2 -0.602,1.35 -0.186,-0.11 -0.056,0.41 -0.081,-0.42 0.093,0.38 -0.199,0.29 -0.039,-0.32 -0.823,2.18 -0.178,-0.23 -0.258,0.82 -0.134,-0.36 -0.393,0.63 -0.187,-0.32 -0.182,0.64 -0.058,-0.49 -0.319,0.57 0.047,0.82 -0.184,-0.27 0.35,0.92 0.138,-0.16 0.107,0.29 0.061,-0.23 0.895,4.43 1.123,2.56 -0.108,0.99 1.459,5.34 -0.103,1.19 1.162,2.98 0.105,2.26 0.586,1.64 -0.172,0.41 0.175,-0.83 -0.144,0.23 -0.246,-0.44"
     id="path7013" />
</g>
<g
   id="g7019"
   transform="matrix(0.68839159,0,0,0.68839159,-216.00571,312.91391)">
  <path
     fill="none"
     stroke="#000000"
     stroke-width="4"
     stroke-linecap="round"
     stroke-linejoin="round"
     d="m -187.667,1641.16 0.076,-0.49 0.205,0.39 -0.277,-0.11 0.006,3.07 0.445,0.96 -0.281,1.21 0.115,4.73 -0.297,4.7 0.481,18.12 -0.205,5.57 0.412,1.28 -0.284,5.52 0.291,0.3 -0.049,2 0.031,-1.48"
     id="path7017" />
</g>
<g
   id="g7023"
   transform="matrix(0.68839159,0,0,0.68839159,-216.00571,312.91391)">
  <path
     fill="none"
     stroke="#000000"
     stroke-width="4"
     stroke-linecap="round"
     stroke-linejoin="round"
     d="m -193.528,1641.14 0.411,-0.93 0.075,0.7 0.787,-0.05 0.318,0.37 1.024,-0.51 0.897,0.1 0.032,-0.31 0.327,0.29 0.074,-0.28 0.152,0.38 0.243,-0.2 0.182,0.27 0.033,-0.23 0.751,0.67 0.164,-0.35 0.118,0.26 0.88,-0.51 0.478,0.27 0.714,-0.58 1.232,0.15 0.084,-0.42 0.254,0.4 0.101,-0.39 0.64,1.09 0.062,-0.28 0.413,0.17 0.329,-0.51 0.387,-0.17 0.013,0.24 0.058,-0.4 -0.012,0.92"
     id="path7021" />
</g>
<g
   id="g7027"
   transform="matrix(0.68839159,0,0,0.68839159,-216.00571,312.91391)">
  <path
     fill="none"
     stroke="#000000"
     stroke-width="4"
     stroke-linecap="round"
     stroke-linejoin="round"
     d="m -175.677,1641.44 0.286,-0.82 -0.428,4.7 0.138,2.56 -0.262,0.44 0.284,4.39 -0.314,2.13 -0.011,8.02 -0.272,1.69 0.41,12.77 -0.326,7.59 0.762,2.72 0.14,-0.17 0.242,0.69 0.854,0.4 -0.048,0.22 0.529,-0.01 0.515,0.67 0.09,-0.33 1.192,0.14 1.409,-0.89 0.008,-0.3 0.206,0.16 -0.061,-0.38 0.106,0.18 -0.012,-0.31 0.517,-0.25 0.872,-2.26 1.252,-12.76 0.288,-6.43 -0.174,-2.55 0.993,-6.92 -0.17,-3.84 0.308,-0.54 0.126,-2.74 -0.357,-2.66 0.148,-0.29 0.056,0.3 0.037,-1.03 -0.276,-2.45 0.207,-1.39 -0.182,0.22 0.026,-1.07 -0.1,0.51"
     id="path7025" />
</g>
<g
   id="g7031"
   transform="matrix(0.68839159,0,0,0.68839159,-216.00571,312.91391)">
  <path
     fill="none"
     stroke="#000000"
     stroke-width="4"
     stroke-linecap="round"
     stroke-linejoin="round"
     d="m -162.764,1690.03 -0.25,0.1 v -0.26 l 0.272,0.33 0.178,-0.97 0.141,-3.53 2.192,-19.99 1.47,-6.14 0.531,-11.51 0.823,-4.75 -0.052,-1.38 0.352,-0.75 0.087,0.58 -0.152,-0.51 0.272,-0.38 0.325,2.44 0.347,0.78 0.09,-0.27 0.232,1.26 0.236,6.42 0.4,3.99 0.338,0.85 0.725,8.96 -0.129,1.56 0.81,4.33 0.245,4.21 0.89,4.43 0.035,1.98 0.895,3.3 0.187,2.75 0.646,1.27 -0.497,-0.88"
     id="path7029" />
</g>
<g
   id="g7035"
   transform="matrix(0.68839159,0,0,0.68839159,-216.00571,312.91391)">
  <path
     fill="none"
     stroke="#000000"
     stroke-width="4"
     stroke-linecap="round"
     stroke-linejoin="round"
     d="m -160.771,1669.29 0.646,0.09 -0.124,-0.33 0.146,0.71 0.085,-0.34 0.144,0.28 0.583,-0.28 0.454,0.53 0.199,-0.33 0.347,0.12 1.489,-0.64 0.203,0.19 0.058,-0.3 0.237,0.41 0.099,-0.47 0.033,0.35 0.198,-0.2 0.377,0.57 0.412,-0.22"
     id="path7033" />
</g>
<g
   id="g7039"
   transform="matrix(0.68839159,0,0,0.68839159,-216.00571,312.91391)">
  <path
     fill="none"
     stroke="#000000"
     stroke-width="4"
     stroke-linecap="round"
     stroke-linejoin="round"
     d="m -146.469,1640.91 0.796,0.01 -0.15,-0.43 0.09,0.48 0.009,-0.36 0.367,1.74 -0.181,9.11 0.338,2.51 -0.04,8.15 0.585,6.4 -0.2,4.73 0.66,15.3 0.056,-0.36 0.029,0.37 0.165,-0.35 -0.027,0.38 0.349,-0.3 0.054,0.34 0.48,-0.51 0.783,0.15 0.963,-0.61 0.709,0.48 0.195,-0.28 0.056,0.34 0.116,-0.36 0.063,0.25 0.867,-0.48 0.404,-0.02 0.281,0.38 0.176,-0.5 0.202,0.48 0.099,-0.45 0.406,0.83 0.094,-0.38 0.019,0.48 0.238,-0.91 -0.03,0.58 0.311,-0.42 0.116,0.26 0.162,-0.48 0.055,0.28 0.314,-0.18 -0.388,-0.11"
     id="path7037" />
</g>
<g
   id="g7043"
   transform="matrix(0.68839159,0,0,0.68839159,-216.00571,312.91391)">
  <path
     fill="none"
     stroke="#000000"
     stroke-width="4"
     stroke-linecap="round"
     stroke-linejoin="round"
     d="m -123.168,1640.26 0.196,-0.46 0.059,1.95 -0.389,3.86 -0.154,8.75 0.105,31.45 -0.295,2.05 0.251,0.14 -0.246,-1.86"
     id="path7041" />
</g>
<g
   id="g7047"
   transform="matrix(0.68839159,0,0,0.68839159,-216.00571,312.91391)">
  <path
     fill="none"
     stroke="#000000"
     stroke-width="4"
     stroke-linecap="round"
     stroke-linejoin="round"
     d="m -123.323,1640.07 1.349,4.09 0.91,1.64 1.001,4.47 1.225,3.76 0.68,5.86 0.619,1.41 0.145,2.54 0.073,-3.19 1.23,-6.52 1.036,-2.93 0.497,-2.88 2.548,-5.86 0.53,-2.45 -0.267,1.53 -0.199,14.12 0.454,7.22 -0.207,1.63 0.612,4.93 -0.254,3.63 0.338,8.99 -0.211,5.76"
     id="path7045" />
</g>
<g
   id="g7051"
   transform="matrix(0.68839159,0,0,0.68839159,-216.00571,312.91391)">
  <path
     fill="none"
     stroke="#000000"
     stroke-width="4"
     stroke-linecap="round"
     stroke-linejoin="round"
     d="m -105.737,1639.97 -0.122,13.88 0.369,4.35 -0.101,6.34 0.359,2.06 -0.266,8.78 0.245,2.82 -0.318,3.13 0.332,8.01 0.101,-0.89 0.077,0.89 0.13,-0.51 0.124,0.47 0.365,-0.89 1.398,-0.19 0.09,-0.41 0.088,0.44 0.034,-0.42 0.047,0.35 0.069,-0.26 0.077,0.3 0.057,-0.21 0.597,0.36 0.169,-0.26 -0.009,0.5 0.14,-0.56 0.53,-0.25 0.243,0.28 0.555,-0.14 0.238,0.37 -0.051,-1.21"
     id="path7049" />
</g>
<g
   id="g7055"
   transform="matrix(0.68839159,0,0,0.68839159,-216.00571,312.91391)">
  <path
     fill="none"
     stroke="#000000"
     stroke-width="4"
     stroke-linecap="round"
     stroke-linejoin="round"
     d="m -104.648,1641.32 -0.43,-0.07 0.236,-0.09 0.059,0.3 0.554,-0.65 0.744,0.21 0.291,-0.26 0.668,0.62 0.213,-0.34 0.195,0.24 0.231,-0.36 0.03,0.27 0.825,-0.34 0.181,-0.42 0.034,0.38 0.22,-0.25 0.132,0.24 0.301,-0.44 -0.127,0.63"
     id="path7053" />
</g>
<g
   id="g7059"
   transform="matrix(0.68839159,0,0,0.68839159,-216.00571,312.91391)">
  <path
     fill="none"
     stroke="#000000"
     stroke-width="4"
     stroke-linecap="round"
     stroke-linejoin="round"
     d="m -104.209,1662.8 -0.296,0.02 0.254,-0.16 -0.03,0.55 0.108,-0.41 -0.004,0.26 0.229,-0.25 0.817,0.14 0.459,-0.65 0.063,0.43 0.032,-0.43 0.057,0.45 0.154,-0.3 -0.001,0.46 0.499,0.01 0.04,0.36 0.134,-0.33 0.081,0.47 0.109,-0.67 0.342,-0.15 0.299,0.24 0.508,-0.7 0.03,0.52 0.227,-0.03 -0.149,0.49 0.09,-0.4"
     id="path7057" />
</g>
<g
   id="g7063"
   transform="matrix(0.68839159,0,0,0.68839159,-216.00571,312.91391)">
  <path
     fill="none"
     stroke="#000000"
     stroke-width="4"
     stroke-linecap="round"
     stroke-linejoin="round"
     d="m -92.4382,1640.82 -0.7405,23.95 0.256,4.39 -0.0285,17.38"
     id="path7061" />
</g>
<g
   id="g7067"
   transform="matrix(0.68839159,0,0,0.68839159,-216.00571,312.91391)">
  <path
     fill="none"
     stroke="#000000"
     stroke-width="4"
     stroke-linecap="round"
     stroke-linejoin="round"
     d="m -92.8985,1641.35 0.4866,4.22 1.3711,3.76 2.2544,11.78 0.2461,0.08 0.2377,1.43 0.2052,0.17 0.1327,-0.4 0.0583,1.65 2.4479,-10.48 0.7582,-1.12 0.3044,-1.67 1.8947,-4.87 2.142,-3.84 0.1382,-1.09 -0.3726,13.67 0.1946,4.59 0.3087,1.08 -0.2293,2.28 0.2269,16.19 -0.215,8.53"
     id="path7065" />
</g>
<g
   id="g7071"
   transform="matrix(0.68839159,0,0,0.68839159,-216.00571,312.91391)">
  <path
     fill="none"
     stroke="#000000"
     stroke-width="4"
     stroke-linecap="round"
     stroke-linejoin="round"
     d="m -67.0137,1641.96 -0.2664,0.15 0.1745,-0.21 -1.1042,-1.62 -1.2589,-0.01 -0.3276,0.55 -0.1911,-0.36 -0.7379,0.01 -0.0204,-0.29 -0.0833,0.31 -0.07,-0.31 -1.2682,1.9 0.034,0.47 -0.0172,-0.22 -0.382,0.43 -0.6704,2.42 -0.0457,6.4 -0.6388,10.75 0.1462,13.12 -0.3243,8.23 0.114,3.52 0.521,1.45 0.1148,-0.21 0.277,0.51 0.0927,-0.32 0.791,0.48 0.1814,-0.23 0.4065,0.21 0.0475,-0.3 0.0882,0.28 0.1325,-0.31 0.4186,0.88 0.6592,-0.79 0.2018,0.33 1.0739,-0.87 0.1959,-0.69 0.0631,0.53 0.3128,-0.08 0.7588,-1.52 0.5246,-2.08 0.5064,-4.01 0.3586,-9.1 0.1309,-0.63 0.0796,0.54 -0.062,-7.37 1.2163,-13.84 0.021,-4.07 -0.4886,-2.88"
     id="path7069" />
</g>
<g
   id="g7075"
   transform="matrix(0.68839159,0,0,0.68839159,-216.00571,312.91391)">
  <path
     fill="none"
     stroke="#000000"
     stroke-width="4"
     stroke-linecap="round"
     stroke-linejoin="round"
     d="m -58.9748,1641.59 0.0584,-0.53 0.1675,0.9 -0.3474,6.97 0.2951,2.31 -0.1036,2.68 -0.6862,6.43 -0.9379,17.91 0.1375,10.09 0.0115,-0.75 -0.164,0.54 -0.2236,-0.94"
     id="path7073" />
</g>
<g
   id="g7079"
   transform="matrix(0.68839159,0,0,0.68839159,-216.00571,312.91391)">
  <path
     fill="none"
     stroke="#000000"
     stroke-width="4"
     stroke-linecap="round"
     stroke-linejoin="round"
     d="m -58.4004,1641.18 0.7202,-0.68 0.3569,0.3 0.6458,-0.49 0.6145,0.67 0.2448,-0.32 0.634,0.49 -0.0579,-0.37 0.2005,0.53 0.009,-0.42 1.8379,4.54 0.5337,8.33 -0.5794,5.6 -0.5075,1.62 -1.1358,1.96 -0.3444,1.41 -0.8926,1.1 -0.1105,-0.26 -0.2851,0.77 -0.206,-0.1 -0.1072,0.37 -0.0289,-0.32 -0.5105,0.83 -0.1114,-0.19 -0.4098,0.29 0.3659,3.33 0.705,1.86 0.0712,-0.32 0.6943,2.96 0.7328,1.72 0.1045,-0.32 0.5767,3.63 0.1443,-0.33 0.244,0.51 1.1109,5.16 0.1149,-0.24 0.538,1.6 0.0463,-0.51 0.2066,1.63 0.7707,1.84 0.0344,-0.61 -0.0397,0.7 -0.4438,-3.56"
     id="path7077" />
</g>
<g
   id="g7083"
   transform="matrix(0.68839159,0,0,0.68839159,-216.00571,312.91391)">
  <path
     fill="none"
     stroke="#000000"
     stroke-width="4"
     stroke-linecap="round"
     stroke-linejoin="round"
     d="m -47.4274,1641.09 0.6847,5.89 0.4511,1.6 0.6464,6.87 2.2031,11.56 -0.0885,-1.88 0.9865,-8.15 0.6717,-3.37 0.8611,-2.25 0.3505,-3.07 1.2203,-3.28 0.8636,-4.13 0.121,0.28 0.0546,-0.65 0.1016,0.38 -0.0954,-0.61"
     id="path7081" />
</g>
<g
   id="g7087"
   transform="matrix(0.68839159,0,0,0.68839159,-216.00571,312.91391)">
  <path
     fill="none"
     stroke="#000000"
     stroke-width="4"
     stroke-linecap="round"
     stroke-linejoin="round"
     d="m -43.7274,1667.14 0.2396,0.89 -0.3946,9.36 0.5021,10.03"
     id="path7085" />
</g>
<g
   id="g7091"
   transform="matrix(0.68839159,0,0,0.68839159,-216.00571,312.91391)">
  <path
     fill="none"
     stroke="#000000"
     stroke-width="4"
     stroke-linecap="round"
     stroke-linejoin="round"
     d="m -19.335,1643.04 0.4118,-0.14 -0.1325,0.48 -0.4812,-1.78 -0.1527,0.3 -0.0191,-0.3 -0.7388,-0.19 -0.8379,-1.19 -0.3601,-0.04 -0.6973,0.21 -0.6581,-0.36 -0.4489,0.3 -0.0988,-0.32 -0.1106,0.37 -0.1181,-0.33 -0.3908,0.99 -0.0355,-0.33 -0.2904,0.54 -0.0861,-0.26 -0.0576,0.36 -0.1132,-0.23 -0.2507,0.2 -0.3412,0.36 -0.0694,0.9 -0.0673,-0.33 -0.4883,4.6 -0.1484,11 0.5274,18.65 -0.2981,4.85 0.2046,5.38 0.5394,1.49 0.1924,-0.24 0.0533,0.29 0.0223,-0.3 0.8622,1.6 0.0428,-0.32 0.2643,0.41 0.3285,-0.28 0.5312,0.28 0.1048,-0.45 0.0651,0.4 0.1154,-0.5 -0.0066,0.59 0.1163,-0.21 0.6067,0.62 0.0698,-0.27 0.0286,0.35 0.0693,-0.38 0.0044,0.45 1.3127,-1.7 0.1337,0.46 0.3221,-0.25 0.0689,0.24 0.1156,-0.3 0.0034,0.3 0.6217,-1.29 0.6257,-0.5 -0.0247,0.29 0.4404,-1.53 0.1897,0.12 0.343,-0.53 0.2844,-2.91 0.1962,0.1 0.7528,-23.18 -0.0513,-6.63 -0.2221,-3.25 -0.5105,-1.38 -0.2704,-2.94 -0.5101,-0.82 -0.3832,-0.01"
     id="path7089" />
</g>
<g
   id="g7095"
   transform="matrix(0.68839159,0,0,0.68839159,-216.00571,312.91391)">
  <path
     fill="none"
     stroke="#000000"
     stroke-width="4"
     stroke-linecap="round"
     stroke-linejoin="round"
     d="m -82.003,1015.33 0.145,0.37 -0.0279,-0.29 -0.1849,0.29 0.2454,-0.15 0.1212,0.24 -0.1806,1.64 0.7249,4.51 0.2606,5.27 0.5728,1.81 -0.0132,5.38 0.9226,5.49 0.4461,8.66 0.6029,2.83 -0.0789,2.06 0.5205,5.03 0.5305,1.28 0.064,3.16 0.2437,1.34 0.1462,-0.34 0.2204,0.24 -0.1628,0.82 0.112,-2.17 0.5526,-1.22 0.0339,-1.49 0.4387,-1.49 0.0541,-2.22 -0.2246,-0.09 1.0442,-5.9 0.2161,-5.25 0.3134,-1.09 -0.1131,-1.7 0.8378,-2.2 -0.0175,-1.18 1.6776,-9.18 -0.1248,-0.76 0.5936,-2.08 0.1571,-3.58 0.8019,-3.01 -0.0364,-1.68 0.298,-0.49 0.0288,0.29 0.3236,-1.59 0.0049,-0.45 -0.2107,0.33 0.1895,0.15 0.1244,-0.56 -0.2293,0.05 0.1364,0.45"
     id="path7093" />
</g>
<g
   id="g7099"
   transform="matrix(0.68839159,0,0,0.68839159,-216.00571,312.91391)">
  <path
     fill="none"
     stroke="#000000"
     stroke-width="4"
     stroke-linecap="round"
     stroke-linejoin="round"
     d="m -64.1841,1015.47 0.1424,0.23 0.0699,-0.42 1.0669,0.06 1.186,-0.71 -0.0455,0.79 0.1965,-0.1 -1.2937,-0.22 0.3752,0.64 -0.0691,1.14 0.4338,2.01 -0.2351,1.96 0.2311,0.14 -0.1967,1.05 0.2559,1.1 -0.1813,3.25 0.3096,1.58 -0.5644,8.64 0.0318,5.46 -0.4976,4.25 -0.1945,11.01 -0.1952,3.39 -0.2501,-0.01 0.3182,0.32 -0.2445,1.73 0.3646,0.39 -0.1355,-0.41 -0.141,0.52 0.1813,0.82 0.0255,-0.33 -0.4099,-0.19 0.3692,0.07 -0.2597,0.28 -0.6901,-0.13 0.1836,0.16 -0.2265,0.15 0.2944,0.04 -0.7188,0.08 0.1546,0.2 -0.0194,-0.35 1.0644,-0.21 0.6343,0.46 0.9388,-0.32 -0.0773,0.33 0.1022,-0.76"
     id="path7097" />
</g>
<g
   id="g7103"
   transform="matrix(0.68839159,0,0,0.68839159,-216.00571,312.91391)">
  <path
     fill="none"
     stroke="#000000"
     stroke-width="4"
     stroke-linecap="round"
     stroke-linejoin="round"
     d="m -53.7975,1015.85 -0.1695,0.25 -0.0405,-0.71 0.0859,0.98 0.2435,-0.16 -0.3494,3.51 0.2849,3.36 -0.4234,2.61 0.2211,7.76 -0.2808,5.2 -0.2097,0.08 0.2679,3.67 -0.2109,3.54 0.2065,1.82 -0.2613,1.27 0.1755,8.41 -0.2318,1.27 0.1582,1.91 -0.4124,1.64 0.1596,1.19 0.2024,-0.09 -0.3715,0.09 0.1435,-0.56"
     id="path7101" />
</g>
<g
   id="g7107"
   transform="matrix(0.68839159,0,0,0.68839159,-216.00571,312.91391)">
  <path
     fill="none"
     stroke="#000000"
     stroke-width="4"
     stroke-linecap="round"
     stroke-linejoin="round"
     d="m -53.2172,1015.55 0.6766,0.08 0.1529,-0.27 0.0591,0.28 0.1107,-0.33 0.1811,0.32 0.259,-0.3 0.0165,0.26 0.7136,-0.59 0.1214,0.42 0.2212,-0.26 0.1645,0.36 0.0328,-0.3 0.1254,0.35 0.0526,-0.29 0.4772,1.03 1.1039,0.95 0.1581,1.24 0.9944,2.06 -0.1682,1.58 0.2525,1.05 -0.3034,1.69 0.6702,2.91 -0.3509,2.91 -0.2489,0.14 0.1952,1.52 -0.2995,0.38 -0.3801,3.2 -0.6023,1.35 -0.1857,-0.11 -0.0562,0.41 -0.0814,-0.42 0.0933,0.38 -0.1989,0.29 -0.0395,-0.31 -0.8227,2.17 -0.1778,-0.23 -0.2581,0.82 -0.1337,-0.36 -0.393,0.63 -0.1871,-0.32 -0.1825,0.64 -0.0582,-0.49 -0.3184,0.57 0.0466,0.82 -0.1836,-0.27 0.35,0.92 0.1373,-0.16 0.1079,0.29 0.0606,-0.23 0.8946,4.43 1.1238,2.56 -0.1084,0.99 1.4595,5.34 -0.104,1.19 1.1629,2.98 0.1045,2.26 0.5862,1.64 -0.1719,0.41 0.1746,-0.83 -0.1434,0.23 -0.2468,-0.44"
     id="path7105" />
</g>
<g
   id="g7111"
   transform="matrix(0.68839159,0,0,0.68839159,-216.00571,312.91391)">
  <path
     fill="none"
     stroke="#000000"
     stroke-width="4"
     stroke-linecap="round"
     stroke-linejoin="round"
     d="m -37.3093,1016.27 0.0758,-0.49 0.2048,0.39 -0.2774,-0.11 0.0065,3.07 0.4452,0.96 -0.2809,1.21 0.1142,4.73 -0.2971,4.7 0.4813,18.12 -0.205,5.57 0.4122,1.28 -0.2841,5.52 0.2907,0.3 -0.0486,2 0.031,-1.48"
     id="path7109" />
</g>
<g
   id="g7115"
   transform="matrix(0.68839159,0,0,0.68839159,-216.00571,312.91391)">
  <path
     fill="none"
     stroke="#000000"
     stroke-width="4"
     stroke-linecap="round"
     stroke-linejoin="round"
     d="m -43.1708,1016.25 0.4107,-0.93 0.0751,0.7 0.7874,-0.05 0.3181,0.37 1.024,-0.51 0.897,0.1 0.0321,-0.31 0.3266,0.3 0.074,-0.28 0.152,0.37 0.2434,-0.2 0.182,0.27 0.033,-0.23 0.7507,0.67 0.1644,-0.35 0.1178,0.26 0.8797,-0.51 0.4784,0.27 0.7141,-0.58 1.2315,0.16 0.0837,-0.43 0.254,0.4 0.1017,-0.38 0.6398,1.08 0.0619,-0.28 0.4132,0.18 0.3284,-0.52 0.3871,-0.17 0.0129,0.24 0.0588,-0.4 -0.0119,0.92"
     id="path7113" />
</g>
<g
   id="g7119"
   transform="matrix(0.68839159,0,0,0.68839159,-216.00571,312.91391)">
  <path
     fill="none"
     stroke="#000000"
     stroke-width="4"
     stroke-linecap="round"
     stroke-linejoin="round"
     d="m -25.3199,1016.55 0.2861,-0.82 -0.4283,4.7 0.1385,2.57 -0.2622,0.43 0.284,4.39 -0.3142,2.13 -0.011,8.02 -0.2719,1.69 0.41,12.77 -0.3257,7.59 0.7617,2.72 0.1401,-0.17 0.2423,0.69 0.8538,0.4 -0.0478,0.23 0.5285,-0.02 0.515,0.67 0.0899,-0.33 1.1924,0.14 1.4088,-0.89 0.0083,-0.3 0.2058,0.16 -0.0605,-0.38 0.1053,0.18 -0.0112,-0.31 0.5168,-0.25 0.8714,-2.26 1.2518,-12.76 0.2885,-6.43 -0.1745,-2.55 0.9938,-6.92 -0.1701,-3.84 0.3077,-0.54 0.1257,-2.74 -0.357,-2.66 0.1482,-0.29 0.0564,0.3 0.0365,-1.02 -0.2756,-2.46 0.2072,-1.39 -0.1823,0.22 0.0256,-1.07 -0.0996,0.51"
     id="path7117" />
</g>
<g
   id="g7123"
   transform="matrix(0.68839159,0,0,0.68839159,-216.00571,312.91391)">
  <path
     fill="none"
     stroke="#000000"
     stroke-width="4"
     stroke-linecap="round"
     stroke-linejoin="round"
     d="m -12.4072,1065.14 -0.2493,0.1 -4e-4,-0.26 0.2724,0.33 0.1777,-0.97 0.1407,-3.53 2.19255,-19.99 1.47003,-6.14 0.53084,-11.51 0.82324,-4.75 -0.05258,-1.38 0.35179,-0.75 0.08756,0.58 -0.15169,-0.5 0.27165,-0.39 0.32483,2.44 0.34676,0.78 0.09001,-0.27 0.23268,1.26 0.2353,6.42 0.40065,3.99 0.33751,0.85 0.72539,8.96 -0.12869,1.56 0.80943,4.33 0.24463,4.21 0.89005,4.43 0.03552,1.98 0.89523,3.3 0.18625,2.75 0.646042,1.27 -0.496735,-0.88"
     id="path7121" />
</g>
<g
   id="g7127"
   transform="matrix(0.68839159,0,0,0.68839159,-216.00571,312.91391)">
  <path
     fill="none"
     stroke="#000000"
     stroke-width="4"
     stroke-linecap="round"
     stroke-linejoin="round"
     d="m -10.4142,1044.4 0.64603,0.09 -0.12323,-0.33 0.14581,0.71 0.08534,-0.34 0.14371,0.28 0.58284,-0.28 0.45384,0.53 0.19895,-0.33 0.34764,0.12 1.48852,-0.64 0.2032,0.19 0.05735,-0.3 0.23768,0.41 0.09851,-0.47 0.03293,0.35 0.19809,-0.2 0.377,0.57 0.41194,-0.22"
     id="path7125" />
</g>
<g
   id="g7131"
   transform="matrix(0.68839159,0,0,0.68839159,-216.00571,312.91391)">
  <path
     fill="none"
     stroke="#000000"
     stroke-width="4"
     stroke-linecap="round"
     stroke-linejoin="round"
     d="m 3.88829,1016.02 0.7959,0.01 -0.14987,-0.43 0.09028,0.48 0.00824,-0.36 0.36766,1.75 -0.18095,9.1 0.33763,2.51 -0.03958,8.15 0.5843,6.4 -0.19963,4.73 0.65973,15.31 0.05637,-0.37 0.02914,0.37 0.1649,-0.35 -0.02708,0.38 0.34851,-0.3 0.0544,0.34 0.48051,-0.51 0.78296,0.15 0.96282,-0.61 0.70849,0.48 0.19507,-0.28 0.05635,0.34 0.11596,-0.36 0.0627,0.25 0.8675,-0.48 0.4036,-0.02 0.2806,0.38 0.1767,-0.5 0.2017,0.49 0.0987,-0.46 0.4064,0.84 0.0936,-0.39 0.0196,0.48 0.2379,-0.91 -0.0298,0.58 0.3105,-0.42 0.1161,0.26 0.1619,-0.48 0.0553,0.28 0.3139,-0.18 -0.3883,-0.11"
     id="path7129" />
</g>
<g
   id="g7135"
   transform="matrix(0.68839159,0,0,0.68839159,-216.00571,312.91391)">
  <path
     fill="none"
     stroke="#000000"
     stroke-width="4"
     stroke-linecap="round"
     stroke-linejoin="round"
     d="m 27.1888,1015.37 0.1965,-0.46 0.0587,1.95 -0.3887,3.86 -0.154,8.75 0.105,31.45 -0.2946,2.05 0.2506,0.14 -0.2461,-1.86"
     id="path7133" />
</g>
<g
   id="g7139"
   transform="matrix(0.68839159,0,0,0.68839159,-216.00571,312.91391)">
  <path
     fill="none"
     stroke="#000000"
     stroke-width="4"
     stroke-linecap="round"
     stroke-linejoin="round"
     d="m 27.0343,1015.18 1.3489,4.09 0.9098,1.64 1.001,4.48 1.2255,3.75 0.6797,5.86 0.6194,1.41 0.1442,2.54 0.0738,-3.19 1.2293,-6.52 1.0361,-2.93 0.4969,-2.88 2.5479,-5.86 0.53,-2.45 -0.2665,1.53 -0.1989,14.12 0.4541,7.22 -0.2072,1.63 0.6122,4.93 -0.2542,3.63 0.3378,8.99 -0.2109,5.76"
     id="path7137" />
</g>
<g
   id="g7143"
   transform="matrix(0.68839159,0,0,0.68839159,-216.00571,312.91391)">
  <path
     fill="none"
     stroke="#000000"
     stroke-width="4"
     stroke-linecap="round"
     stroke-linejoin="round"
     d="m 44.6207,1015.08 -0.1227,13.88 0.3696,4.35 -0.1017,6.34 0.3598,2.06 -0.2662,8.79 0.2451,2.81 -0.3187,3.13 0.3321,8.01 0.1011,-0.89 0.0775,0.89 0.1293,-0.51 0.1242,0.47 0.3654,-0.89 1.3978,-0.19 0.0899,-0.41 0.0878,0.44 0.0346,-0.42 0.0469,0.35 0.0685,-0.26 0.0775,0.3 0.0565,-0.21 0.5975,0.36 0.1683,-0.26 -0.0086,0.5 0.1402,-0.56 0.5301,-0.25 0.2429,0.28 0.5544,-0.14 0.2381,0.37 -0.0508,-1.21"
     id="path7141" />
</g>
<g
   id="g7147"
   transform="matrix(0.68839159,0,0,0.68839159,-216.00571,312.91391)">
  <path
     fill="none"
     stroke="#000000"
     stroke-width="4"
     stroke-linecap="round"
     stroke-linejoin="round"
     d="m 45.7092,1016.43 -0.4302,-0.07 0.2366,-0.08 0.0588,0.29 0.5536,-0.65 0.7442,0.22 0.2913,-0.27 0.668,0.62 0.2132,-0.34 0.1949,0.24 0.2309,-0.36 0.0299,0.27 0.8251,-0.34 0.1812,-0.42 0.0332,0.38 0.2206,-0.24 0.1313,0.23 0.3011,-0.44 -0.1268,0.63"
     id="path7145" />
</g>
<g
   id="g7151"
   transform="matrix(0.68839159,0,0,0.68839159,-216.00571,312.91391)">
  <path
     fill="none"
     stroke="#000000"
     stroke-width="4"
     stroke-linecap="round"
     stroke-linejoin="round"
     d="m 46.1482,1037.91 -0.2956,0.02 0.2536,-0.16 -0.0298,0.55 0.1075,-0.41 -0.0036,0.26 0.2286,-0.25 0.8171,0.15 0.459,-0.66 0.0633,0.43 0.0325,-0.42 0.0562,0.44 0.1539,-0.29 -8e-4,0.45 0.4989,0.01 0.0399,0.36 0.1339,-0.33 0.0816,0.47 0.1084,-0.66 0.3421,-0.16 0.2992,0.24 0.5078,-0.7 0.0305,0.52 0.2266,-0.03 -0.1488,0.49 0.0905,-0.4"
     id="path7149" />
</g>
<g
   id="g7155"
   transform="matrix(0.68839159,0,0,0.68839159,-216.00571,312.91391)">
  <path
     fill="none"
     stroke="#000000"
     stroke-width="4"
     stroke-linecap="round"
     stroke-linejoin="round"
     d="m 57.919,1015.93 -0.7405,23.95 0.2561,4.39 -0.0285,17.38"
     id="path7153" />
</g>
<g
   id="g7159"
   transform="matrix(0.68839159,0,0,0.68839159,-216.00571,312.91391)">
  <path
     fill="none"
     stroke="#000000"
     stroke-width="4"
     stroke-linecap="round"
     stroke-linejoin="round"
     d="m 57.4587,1016.46 0.4867,4.22 1.371,3.76 2.2545,11.78 0.246,0.08 0.2378,1.44 0.2052,0.16 0.1327,-0.4 0.0583,1.65 2.4479,-10.48 0.7582,-1.11 0.3044,-1.68 1.8946,-4.87 2.142,-3.84 0.1383,-1.08 -0.3726,13.66 0.1946,4.6 0.3086,1.07 -0.2293,2.28 0.227,16.19 -0.215,8.53"
     id="path7157" />
</g>
<g
   id="g7163"
   transform="matrix(0.68839159,0,0,0.68839159,-216.00571,312.91391)">
  <path
     fill="none"
     stroke="#000000"
     stroke-width="4"
     stroke-linecap="round"
     stroke-linejoin="round"
     d="m 83.3436,1017.07 -0.2664,0.15 0.1745,-0.21 -1.1042,-1.62 -1.259,-0.01 -0.3275,0.55 -0.1911,-0.36 -0.738,0.01 -0.0203,-0.29 -0.0833,0.31 -0.0701,-0.31 -1.2681,1.9 0.034,0.47 -0.0172,-0.22 -0.382,0.43 -0.6704,2.42 -0.0458,6.4 -0.6387,10.75 0.1462,13.12 -0.3244,8.23 0.1141,3.52 0.521,1.45 0.1148,-0.21 0.277,0.51 0.0927,-0.32 0.791,0.48 0.1814,-0.23 0.4064,0.21 0.0475,-0.3 0.0883,0.28 0.1325,-0.31 0.4185,0.88 0.6593,-0.78 0.2017,0.32 1.074,-0.86 0.1959,-0.7 0.0631,0.53 0.3127,-0.08 0.7588,-1.52 0.5247,-2.08 0.5063,-4.01 0.3587,-9.1 0.1308,-0.63 0.0797,0.54 -0.062,-7.37 1.2162,-13.84 0.0211,-4.07 -0.4886,-2.88"
     id="path7161" />
</g>
<g
   id="g7167"
   transform="matrix(0.68839159,0,0,0.68839159,-216.00571,312.91391)">
  <path
     fill="none"
     stroke="#000000"
     stroke-width="4"
     stroke-linecap="round"
     stroke-linejoin="round"
     d="m 91.3824,1016.7 0.0585,-0.53 0.1675,0.9 -0.3474,6.97 0.2951,2.31 -0.1036,2.68 -0.6862,6.43 -0.9379,17.91 0.1375,10.09 0.0115,-0.75 -0.1641,0.54 -0.2235,-0.94"
     id="path7165" />
</g>
<g
   id="g7171"
   transform="matrix(0.68839159,0,0,0.68839159,-216.00571,312.91391)">
  <path
     fill="none"
     stroke="#000000"
     stroke-width="4"
     stroke-linecap="round"
     stroke-linejoin="round"
     d="m 91.9569,1016.29 0.7201,-0.68 0.3569,0.31 0.6459,-0.5 0.6145,0.67 0.2448,-0.32 0.6339,0.49 -0.0578,-0.37 0.2005,0.53 0.0089,-0.42 1.838,4.54 0.5337,8.33 -0.5794,5.6 -0.5075,1.62 -1.1358,1.96 -0.3445,1.41 -0.8926,1.1 -0.1104,-0.26 -0.2851,0.77 -0.2061,-0.1 -0.1072,0.37 -0.0289,-0.32 -0.5104,0.83 -0.1114,-0.19 -0.4098,0.29 0.3659,3.33 0.7049,1.86 0.0713,-0.32 0.6942,2.96 0.7329,1.72 0.1044,-0.32 0.5767,3.63 0.1444,-0.33 0.244,0.51 1.1109,5.16 0.1149,-0.24 0.538,1.6 0.0463,-0.5 0.2066,1.62 0.7706,1.84 0.0345,-0.61 -0.0397,0.7 -0.4438,-3.56"
     id="path7169" />
</g>
<g
   id="g7175"
   transform="matrix(0.68839159,0,0,0.68839159,-216.00571,312.91391)">
  <path
     fill="none"
     stroke="#000000"
     stroke-width="4"
     stroke-linecap="round"
     stroke-linejoin="round"
     d="m 102.93,1016.2 0.685,5.89 0.451,1.6 0.646,6.87 2.203,11.56 -0.088,-1.88 0.986,-8.15 0.672,-3.37 0.861,-2.25 0.351,-3.07 1.22,-3.28 0.863,-4.13 0.121,0.28 0.055,-0.65 0.102,0.38 -0.096,-0.61"
     id="path7173" />
</g>
<g
   id="g7179"
   transform="matrix(0.68839159,0,0,0.68839159,-216.00571,312.91391)">
  <path
     fill="none"
     stroke="#000000"
     stroke-width="4"
     stroke-linecap="round"
     stroke-linejoin="round"
     d="m 106.63,1042.25 0.24,0.9 -0.395,9.35 0.502,10.04"
     id="path7177" />
</g>
<g
   id="g7183"
   transform="matrix(0.68839159,0,0,0.68839159,-216.00571,312.91391)">
  <path
     fill="none"
     stroke="#000000"
     stroke-width="4"
     stroke-linecap="round"
     stroke-linejoin="round"
     d="m 128.097,1028.82 -0.102,-0.37 2.28,-4.1 1.235,-5.89 -0.457,-1.11 0.256,-1.39 -0.377,1.03 h 0.301 l -0.336,1.52 0.095,2.47 -1.074,13.62 0.219,1.27 -0.349,2.64 0.16,3.03 -0.897,15.83 0.276,5.2 0.116,-0.26 0.039,0.41 0.032,-0.31 0.111,0.7 -0.217,-0.95 0.006,0.51 0.068,-0.33 -0.539,0.41 0.142,0.4 -0.133,-0.62 -0.144,0.18 0.229,-0.72 0.1,0.35 0.512,-0.55 0.597,0.39 0.805,-0.66 0.029,0.29 -0.149,-0.38 -0.243,0.08"
     id="path7181" />
</g>
<g
   id="g7187"
   transform="matrix(0.68839159,0,0,0.68839159,-216.00571,312.91391)">
  <path
     fill="none"
     stroke="#000000"
     stroke-width="4"
     stroke-linecap="round"
     stroke-linejoin="round"
     d="m 126.237,1062.38 -0.287,0.64 0.166,-0.6 0.032,0.44 0.046,-0.32 0.11,0.32 0.307,-0.29 0.102,0.32 0.058,-0.31 0.262,0.51 0.8,-0.45 0.13,0.21 0.24,-0.46"
     id="path7185" />
</g>
<g
   id="g7191"
   transform="matrix(0.68839159,0,0,0.68839159,-216.00571,312.91391)">
  <path
     fill="none"
     stroke="#000000"
     stroke-width="4"
     stroke-linecap="round"
     stroke-linejoin="round"
     d="m -358.463,1352.56 -0.124,-0.28 0.228,0.35 0.774,-0.31 1.021,0.15 0.169,-0.31 0.257,0.25 0.138,-0.29 0.767,0.33 2.177,-0.06 0.144,0.26 0.762,-0.35 1.881,0.04 0.101,-0.23 0.23,0.2 0.145,-0.4 0.22,0.34 0.134,-0.34 0.382,0.38 0.217,-0.23 2.416,0.05 0.662,0.31 1.542,-0.42 2.158,0.13 0.761,-0.37 0.263,0.21 2.255,-0.19 2.255,0.44 5.546,-0.5 0.763,-0.41 1.812,0.16 3.266,-0.34 0.452,0.21 0.399,-0.31 0.155,0.3 0.093,-0.29 0.254,0.33 0.17,-0.27 0.18,0.3 1.415,0.15 1.194,-0.4 0.105,0.28 0.16,-0.29 0.069,0.21 0.199,-0.22 1.673,0.04 0.532,-0.31 0.015,0.26 0.016,-0.29 0.123,0.4 0.615,0.13 0.876,-0.15 -0.115,0.22 0.108,-0.28 -0.235,0.18 0.223,0.01 -0.081,0.38 0.009,-0.5 -0.683,0.36"
     id="path7189" />
</g>
<g
   id="g7195"
   transform="matrix(0.68839159,0,0,0.68839159,-216.00571,312.91391)">
  <path
     fill="none"
     stroke="#000000"
     stroke-width="4"
     stroke-linecap="round"
     stroke-linejoin="round"
     d="m -358.946,1369.82 -0.125,-0.28 0.228,0.34 0.774,-0.3 1.021,0.15 0.169,-0.31 0.258,0.25 0.138,-0.29 0.767,0.32 2.176,-0.05 0.145,0.26 0.761,-0.35 1.881,0.04 0.102,-0.23 0.23,0.2 0.144,-0.4 0.22,0.34 0.134,-0.34 0.382,0.38 0.218,-0.24 2.416,0.06 0.662,0.31 1.541,-0.42 2.158,0.13 0.761,-0.37 0.263,0.2 2.256,-0.18 2.254,0.44 5.546,-0.5 0.763,-0.42 1.813,0.17 3.265,-0.34 0.453,0.21 0.398,-0.31 0.155,0.3 0.094,-0.29 0.253,0.33 0.171,-0.27 0.179,0.3 1.415,0.15 1.194,-0.4 0.106,0.28 0.159,-0.3 0.069,0.22 0.2,-0.22 1.673,0.04 0.531,-0.31 0.016,0.26 0.015,-0.29 0.123,0.4 0.616,0.13 0.876,-0.15 -0.116,0.21 0.108,-0.28 -0.234,0.19 0.223,0.01 -0.082,0.37 0.009,-0.49 -0.682,0.35"
     id="path7193" />
</g>
<g
   id="g7199"
   transform="matrix(0.68839159,0,0,0.68839159,-216.00571,312.91391)">
  <path
     fill="none"
     stroke="#000000"
     stroke-width="4"
     stroke-linecap="round"
     stroke-linejoin="round"
     d="m -358.722,1334.45 -0.125,-0.28 0.228,0.35 0.774,-0.31 1.021,0.15 0.169,-0.31 0.258,0.25 0.138,-0.29 0.767,0.33 2.177,-0.06 0.144,0.26 0.762,-0.35 1.88,0.04 0.102,-0.23 0.23,0.2 0.144,-0.4 0.221,0.34 0.133,-0.34 0.383,0.38 0.217,-0.24 2.416,0.06 0.662,0.31 1.541,-0.42 2.158,0.13 0.761,-0.37 0.263,0.21 2.256,-0.19 2.254,0.44 5.546,-0.5 0.763,-0.42 1.813,0.17 3.265,-0.34 0.453,0.21 0.398,-0.31 0.156,0.3 0.093,-0.29 0.254,0.33 0.17,-0.27 0.179,0.3 1.415,0.15 1.194,-0.4 0.106,0.28 0.16,-0.3 0.068,0.22 0.2,-0.22 1.673,0.04 0.532,-0.31 0.015,0.26 0.015,-0.29 0.124,0.4 0.615,0.13 0.876,-0.15 -0.115,0.21 0.107,-0.28 -0.234,0.19 0.223,0.01 -0.082,0.38 0.009,-0.5 -0.682,0.35"
     id="path7197" />
</g>
<metadata
   id="metadata7522">
  <rdf:RDF>
    <cc:Work
       rdf:about="">
      <dc:title>Quick sheets</dc:title>
    </cc:Work>
  </rdf:RDF>
</metadata>
</svg>
