<?xml version="1.0" encoding="UTF-8" standalone="no"?>
<svg
   width="433"
   height="233"
   viewBox="-394 477 433 233"
   version="1.2"
   id="svg1326"
   sodipodi:docname="14-memory.svg"
   inkscape:version="1.1.2 (0a00cf5339, 2022-02-04)"
   xmlns:inkscape="http://www.inkscape.org/namespaces/inkscape"
   xmlns:sodipodi="http://sodipodi.sourceforge.net/DTD/sodipodi-0.dtd"
   xmlns="http://www.w3.org/2000/svg"
   xmlns:svg="http://www.w3.org/2000/svg"
   xmlns:rdf="http://www.w3.org/1999/02/22-rdf-syntax-ns#"
   xmlns:cc="http://creativecommons.org/ns#"
   xmlns:dc="http://purl.org/dc/elements/1.1/"><defs
   id="defs1330" />
<sodipodi:namedview
   id="namedview1328"
   pagecolor="#ffffff"
   bordercolor="#666666"
   borderopacity="1.0"
   inkscape:pageshadow="2"
   inkscape:pageopacity="0.0"
   inkscape:pagecheckerboard="0"
   showgrid="false"
   inkscape:zoom="1"
   inkscape:cx="216"
   inkscape:cy="47"
   inkscape:window-width="3840"
   inkscape:window-height="1536"
   inkscape:window-x="0"
   inkscape:window-y="0"
   inkscape:window-maximized="1"
   inkscape:current-layer="svg1326" />
<title
   id="title1086">Quick sheets</title>
\n<g
   id="g1092">
  <path
     fill="none"
     stroke="#000000"
     stroke-width="4"
     stroke-linecap="round"
     stroke-linejoin="round"
     d="M-360.904 547.992 L-360.852 547.474 L-361.11 547.68 L-362.48 545.346 L-363.877 544.496 L-364.195 544.377 L-364.274 544.612 L-364.449 544.291 L-364.522 544.518 L-364.661 544.195 L-366.584 544.92 L-367.295 544.894 L-367.436 545.233 L-367.682 545.104 L-369.283 546.117 L-370.336 547.705 L-372.296 561.703 L-372.059 563.883 L-372.023 574.429 L-372.301 577.249 L-371.932 582.72 L-372.015 587.639 L-371.012 590.934 L-368.929 593.129 L-368.433 592.875 L-367.906 593.366 L-367 593.385 L-366.635 593.064 L-366.198 593.337 L-365.674 592.664 L-365.572 592.838 L-364.96 592.135 L-364.574 592.1 L-364.175 591.245 L-363.62 591.036 L-362.073 588.515 L-361.245 585.177 L-360.721 579.649 L-360.786 571.729 L-361.077 570.262 L-361.685 569.153 L-361.772 569.452 L-361.938 568.419 L-363.053 567.463 L-363.96 567.101 L-364.136 567.383 L-364.383 567.003 L-364.454 567.295 L-364.598 566.878 L-364.636 567.103 L-364.809 566.806 L-365.623 566.723 L-366.295 567.106 L-366.52 566.817 L-368.102 567.252 L-369.036 567.858 L-370.195 569.533 L-371.145 573.537 L-371.001 574.337 "
     id="path1090" />
</g>
<g
   id="g1096">
  <path
     fill="none"
     stroke="#000000"
     stroke-width="4"
     stroke-linecap="round"
     stroke-linejoin="round"
     d="M-345.429 544.504 L-345.824 544.511 L-346.159 548.263 L-346.725 561.923 L-345.999 590.56 L-346.109 593.609 L-346.41 593.253 "
     id="path1094" />
</g>
<g
   id="g1100">
  <path
     fill="none"
     stroke="#000000"
     stroke-width="4"
     stroke-linecap="round"
     stroke-linejoin="round"
     d="M-346.887 544.943 L-349.676 552.396 L-351.904 560.208 L-354.738 573.471 L-354.603 572.915 L-354.57 573.404 L-354.036 573.033 L-353.416 573.221 L-353.087 572.848 L-352.337 572.749 L-352.088 573.126 L-352.111 572.833 L-351.443 572.661 L-350.566 572.648 L-350.43 572.981 L-350.183 572.568 L-348.913 572.601 L-348.306 572.193 L-348.181 572.47 L-347.458 572.364 L-347.356 572.034 L-347.159 572.312 L-347.125 571.973 L-346.806 572.359 L-344.72 571.77 L-344.274 572.205 L-343.809 571.841 L-343.104 571.833 L-343.132 572.156 L-343.19 571.653 "
     id="path1098" />
</g>
<g
   id="g1104">
  <path
     fill="none"
     stroke="#000000"
     stroke-width="4"
     stroke-linecap="round"
     stroke-linejoin="round"
     d="M-331.922 544.64 L-331.967 548.4 L-332.276 549.931 L-332.244 556.595 L-332.62 559.21 L-332.346 569.741 L-332.967 583.421 L-332.858 593.026 "
     id="path1102" />
</g>
<g
   id="g1108">
  <path
     fill="none"
     stroke="#000000"
     stroke-width="4"
     stroke-linecap="round"
     stroke-linejoin="round"
     d="M-322.598 545.033 L-324.636 552.659 L-327.749 562.497 L-330.567 569.498 L-330.892 571.07 L-329.081 575.356 L-328.689 577.457 L-326.55 583.513 L-326.289 585.59 L-324.15 592.206 L-323.835 593.893 L-324.178 593.134 "
     id="path1106" />
</g>
<g
   id="g1112">
  <path
     fill="none"
     stroke="#000000"
     stroke-width="4"
     stroke-linecap="round"
     stroke-linejoin="round"
     d="M-317.409 568.322 L-317.003 576.903 L-317.814 589.029 L-317.824 594.008 "
     id="path1110" />
</g>
<g
   id="g1116">
  <path
     fill="none"
     stroke="#000000"
     stroke-width="4"
     stroke-linecap="round"
     stroke-linejoin="round"
     d="M-317.308 560.024 L-317.315 560.179 "
     id="path1114" />
</g>
<g
   id="g1120">
  <path
     fill="none"
     stroke="#000000"
     stroke-width="4"
     stroke-linecap="round"
     stroke-linejoin="round"
     d="M-309.605 544.959 L-309.978 569.188 L-309.806 578.411 L-310.232 588.019 L-310.043 592.63 L-310.204 593.682 L-310.481 592.918 "
     id="path1118" />
</g>
<g
   id="g1124">
  <path
     fill="none"
     stroke="#000000"
     stroke-width="4"
     stroke-linecap="round"
     stroke-linejoin="round"
     d="M-309.045 545.074 L-309.297 545.189 L-309.126 545.46 L-308.288 544.927 L-307.984 545.398 L-307.079 545.253 L-306.507 545.93 L-306.419 545.658 L-304.829 548.044 L-304.094 550.865 L-303.857 555.181 L-304.751 563.336 L-305.721 566.017 L-306.587 567.191 L-307.298 567.483 L-307.939 568.743 L-307.916 568.514 L-307.888 568.93 L-307.796 568.523 L-306.785 568.44 L-306.414 568.896 L-305.893 568.85 L-305.25 569.337 L-304.825 570.223 L-304.563 570.106 L-303.321 573.25 L-302.982 574.736 L-302.533 586.975 L-302.594 589.259 L-303.408 592.055 L-305.194 594.781 L-305.402 594.353 L-305.931 594.536 L-306.929 595.522 L-307.363 595.215 L-308.392 595.378 L-308.496 594.9 L-308.78 595.326 L-308.416 593.478 "
     id="path1122" />
</g>
<g
   id="g1128">
  <path
     fill="none"
     stroke="#000000"
     stroke-width="4"
     stroke-linecap="round"
     stroke-linejoin="round"
     d="M-387.946 520.71 L-388.188 520.7 L-388.081 520.956 L-388.19 520.772 L-387.845 525.293 L-388.127 532.969 L-387.908 533.735 L-388.056 547.686 L-387.43 564.547 L-387.918 583.29 L-387.788 588.489 L-388.073 592.043 L-387.885 604.101 L-388.137 605.102 L-387.813 606.431 L-388.182 618.464 L-387.871 620.146 L-388.085 620.988 L-387.873 623.384 L-387.916 623.621 L-388.002 623.124 L-388.181 623.335 "
     id="path1126" />
</g>
<g
   id="g1132">
  <path
     fill="none"
     stroke="#000000"
     stroke-width="4"
     stroke-linecap="round"
     stroke-linejoin="round"
     d="M-296.696 521.26 L-296.633 521.26 "
     id="path1130" />
</g>
<g
   id="g1136">
  <path
     fill="none"
     stroke="#000000"
     stroke-width="4"
     stroke-linecap="round"
     stroke-linejoin="round"
     d="M-296.772 521.26 L-296.692 521.022 L-295.871 522.336 L-295.176 522.655 L-292.372 525.658 L-291.826 525.886 L-289.939 528.178 L-289.874 527.899 L-289.639 528.566 L-288.555 529.426 L-287.983 530.427 L-285.676 532.845 "
     id="path1134" />
</g>
<g
   id="g1140">
  <path
     fill="none"
     stroke="#000000"
     stroke-width="4"
     stroke-linecap="round"
     stroke-linejoin="round"
     d="M-297.62 522.356 L-297.831 523.167 L-297.622 528.553 L-297.039 535.514 L-296.862 535.299 L-296.667 536.186 L-296.669 535.638 L-296.669 535.97 L-296.344 535.671 L-295.571 536.065 L-295.356 535.842 L-295.281 536.149 L-295.205 535.861 L-294.12 535.398 L-293.446 535.587 L-293.364 535.895 L-292.75 535.525 L-292.301 535.844 L-291.317 535.994 L-290.773 535.705 L-290.707 536.011 L-290.091 536.065 L-289.358 535.696 L-289.252 535.983 L-288.931 535.483 L-288.026 535.956 L-287.206 535.848 L-287.143 536.102 L-286.311 535.699 L-285.786 535.998 L-285.777 535.726 L-285.711 536.224 L-285.324 536.143 "
     id="path1138" />
</g>
<g
   id="g1144">
  <path
     fill="none"
     stroke="#000000"
     stroke-width="4"
     stroke-linecap="round"
     stroke-linejoin="round"
     d="M-284.582 534.453 L-284.072 547.453 L-284.077 562.2 L-284.473 576.12 L-284.241 601.096 L-284.476 606.996 L-284.188 609.876 L-284.357 614.911 L-283.99 618.287 L-283.999 623.212 "
     id="path1142" />
</g>
<g
   id="g1148">
  <path
     fill="none"
     stroke="#000000"
     stroke-width="4"
     stroke-linecap="round"
     stroke-linejoin="round"
     d="M-388.276 624.773 L-388.174 625.321 L-387.402 624.693 L-386.348 624.972 L-384.734 624.459 L-381.252 624.641 L-379.285 624.148 L-378.474 624.608 L-376.985 624.217 L-375.762 624.468 L-373.939 624.321 L-373.844 624.619 L-372.425 624.165 L-371.076 624.285 L-367.345 623.847 L-365.313 624.278 L-363.232 623.954 L-361.51 624.427 L-354.57 624.361 L-348.831 623.836 L-346.857 623.305 L-346.065 623.606 L-341.671 623.399 L-339.219 623.784 L-323.054 623.229 L-320.306 623.526 L-316.712 623.301 L-313.012 623.557 L-309.89 623.053 L-306.227 623.285 L-304.668 622.991 L-303.715 623.199 L-303.59 622.966 L-302.896 623.321 L-299.454 623.18 L-295.574 623.584 L-293.427 623.362 L-292.09 623.655 L-288.919 623.483 L-288.832 623.252 L-288.298 623.526 L-285.569 623.219 L-285.193 623.441 L-285.125 623.123 L-285.037 623.573 L-284.613 623.68 L-284.762 623.472 L-285.292 623.698 "
     id="path1146" />
</g>
<g
   id="g1152">
  <path
     fill="none"
     stroke="#000000"
     stroke-width="4"
     stroke-linecap="round"
     stroke-linejoin="round"
     d="M-387.931 520.399 L-386.595 520.719 L-385.968 520.438 L-384.368 520.567 L-383.863 520.847 L-382.756 520.573 L-379.232 520.953 L-377.729 520.676 L-375.852 521.138 L-373.274 520.873 L-371.638 521.379 L-360.695 521.019 L-359.405 521.479 L-347.108 520.695 L-343.096 520.813 L-342.433 521.133 L-339.568 521.399 L-327.149 521.094 L-323.58 521.554 L-318.46 521.602 L-316.953 521.311 L-305.772 521.546 L-304.486 521.304 L-302.929 521.538 L-299.248 520.897 L-298.19 521.013 "
     id="path1150" />
</g>
<g
   id="g1156">
  <path
     fill="none"
     stroke="#000000"
     stroke-width="4"
     stroke-linecap="round"
     stroke-linejoin="round"
     d="M-283.876 520.176 L-284.118 520.166 L-284.011 520.422 L-284.12 520.238 L-283.775 524.759 L-284.057 532.435 L-283.838 533.201 L-283.986 547.152 L-283.36 564.013 L-283.848 582.756 L-283.718 587.955 L-284.003 591.509 L-283.815 603.567 L-284.067 604.568 L-283.743 605.897 L-284.112 617.93 L-283.801 619.612 L-284.015 620.454 L-283.803 622.85 L-283.846 623.087 L-283.932 622.59 L-284.111 622.802 "
     id="path1154" />
</g>
<g
   id="g1160">
  <path
     fill="none"
     stroke="#000000"
     stroke-width="4"
     stroke-linecap="round"
     stroke-linejoin="round"
     d="M-192.626 520.726 L-192.563 520.726 "
     id="path1158" />
</g>
<g
   id="g1164">
  <path
     fill="none"
     stroke="#000000"
     stroke-width="4"
     stroke-linecap="round"
     stroke-linejoin="round"
     d="M-192.702 520.726 L-192.622 520.488 L-191.801 521.802 L-191.106 522.121 L-188.302 525.124 L-187.756 525.352 L-185.869 527.644 L-185.804 527.366 L-185.569 528.032 L-184.485 528.892 L-183.913 529.893 L-181.606 532.311 "
     id="path1162" />
</g>
<g
   id="g1168">
  <path
     fill="none"
     stroke="#000000"
     stroke-width="4"
     stroke-linecap="round"
     stroke-linejoin="round"
     d="M-193.55 521.822 L-193.761 522.633 L-193.552 528.02 L-192.969 534.98 L-192.792 534.765 L-192.597 535.652 L-192.599 535.104 L-192.599 535.436 L-192.274 535.137 L-191.501 535.531 L-191.286 535.308 L-191.211 535.615 L-191.135 535.327 L-190.05 534.864 L-189.376 535.053 L-189.294 535.361 L-188.68 534.991 L-188.231 535.31 L-187.247 535.46 L-186.703 535.172 L-186.637 535.477 L-186.021 535.531 L-185.288 535.162 L-185.182 535.449 L-184.861 534.949 L-183.956 535.422 L-183.136 535.314 L-183.073 535.568 L-182.241 535.165 L-181.716 535.464 L-181.707 535.192 L-181.641 535.691 L-181.254 535.609 "
     id="path1166" />
</g>
<g
   id="g1172">
  <path
     fill="none"
     stroke="#000000"
     stroke-width="4"
     stroke-linecap="round"
     stroke-linejoin="round"
     d="M-180.512 533.919 L-180.002 546.92 L-180.007 561.666 L-180.403 575.587 L-180.171 600.563 L-180.406 606.462 L-180.118 609.342 L-180.287 614.377 L-179.92 617.753 L-179.929 622.678 "
     id="path1170" />
</g>
<g
   id="g1176">
  <path
     fill="none"
     stroke="#000000"
     stroke-width="4"
     stroke-linecap="round"
     stroke-linejoin="round"
     d="M-284.206 624.239 L-284.104 624.787 L-283.332 624.159 L-282.278 624.438 L-280.664 623.926 L-277.182 624.107 L-275.215 623.614 L-274.404 624.074 L-272.915 623.684 L-271.692 623.934 L-269.869 623.788 L-269.774 624.085 L-268.355 623.631 L-267.006 623.751 L-263.275 623.313 L-261.243 623.744 L-259.162 623.42 L-257.44 623.893 L-250.5 623.827 L-244.761 623.303 L-242.787 622.771 L-241.995 623.073 L-237.601 622.865 L-235.149 623.25 L-218.983 622.695 L-216.236 622.992 L-212.642 622.767 L-208.942 623.023 L-205.82 622.519 L-202.157 622.751 L-200.598 622.457 L-199.645 622.665 L-199.52 622.432 L-198.826 622.787 L-195.384 622.647 L-191.504 623.051 L-189.357 622.828 L-188.02 623.122 L-184.849 622.95 L-184.762 622.718 L-184.228 622.992 L-181.499 622.685 L-181.123 622.907 L-181.055 622.589 L-180.967 623.039 L-180.543 623.146 L-180.692 622.938 L-181.222 623.164 "
     id="path1174" />
</g>
<g
   id="g1180">
  <path
     fill="none"
     stroke="#000000"
     stroke-width="4"
     stroke-linecap="round"
     stroke-linejoin="round"
     d="M-283.861 519.865 L-282.525 520.185 L-281.898 519.904 L-280.298 520.033 L-279.793 520.313 L-278.686 520.039 L-275.162 520.419 L-273.659 520.142 L-271.782 520.604 L-269.204 520.339 L-267.568 520.845 L-256.625 520.485 L-255.334 520.945 L-243.038 520.162 L-239.026 520.279 L-238.363 520.599 L-235.498 520.865 L-223.079 520.561 L-219.51 521.02 L-214.389 521.068 L-212.883 520.777 L-201.702 521.012 L-200.416 520.77 L-198.859 521.004 L-195.178 520.363 L-194.119 520.479 "
     id="path1178" />
</g>
<g
   id="g1184">
  <path
     fill="none"
     stroke="#000000"
     stroke-width="4"
     stroke-linecap="round"
     stroke-linejoin="round"
     d="M-180.311 520.396 L-180.552 520.386 L-180.446 520.641 L-180.554 520.458 L-180.21 524.979 L-180.492 532.655 L-180.273 533.421 L-180.421 547.372 L-179.795 564.232 L-180.283 582.976 L-180.153 588.175 L-180.438 591.729 L-180.249 603.787 L-180.501 604.788 L-180.178 606.117 L-180.546 618.15 L-180.235 619.832 L-180.45 620.674 L-180.238 623.07 L-180.281 623.307 L-180.366 622.81 L-180.545 623.021 "
     id="path1182" />
</g>
<g
   id="g1188">
  <path
     fill="none"
     stroke="#000000"
     stroke-width="4"
     stroke-linecap="round"
     stroke-linejoin="round"
     d="M-89.0611 520.946 L-88.9979 520.946 "
     id="path1186" />
</g>
<g
   id="g1192">
  <path
     fill="none"
     stroke="#000000"
     stroke-width="4"
     stroke-linecap="round"
     stroke-linejoin="round"
     d="M-89.1364 520.946 L-89.0571 520.708 L-88.236 522.022 L-87.541 522.341 L-84.737 525.344 L-84.191 525.572 L-82.3036 527.863 L-82.2388 527.585 L-82.004 528.252 L-80.9193 529.112 L-80.3476 530.113 L-78.041 532.53 "
     id="path1190" />
</g>
<g
   id="g1196">
  <path
     fill="none"
     stroke="#000000"
     stroke-width="4"
     stroke-linecap="round"
     stroke-linejoin="round"
     d="M-89.9844 522.042 L-90.1958 522.853 L-89.987 528.239 L-89.4034 535.2 L-89.2268 534.985 L-89.0319 535.872 L-89.0339 535.324 L-89.0342 535.656 L-88.709 535.357 L-87.9353 535.751 L-87.7205 535.527 L-87.6456 535.835 L-87.5693 535.546 L-86.4844 535.084 L-85.811 535.273 L-85.7287 535.581 L-85.1149 535.211 L-84.6658 535.529 L-83.6821 535.679 L-83.1382 535.391 L-83.0717 535.696 L-82.456 535.751 L-81.7224 535.382 L-81.6171 535.668 L-81.2953 535.169 L-80.3908 535.642 L-79.5708 535.533 L-79.5075 535.788 L-78.6755 535.385 L-78.1505 535.684 L-78.1416 535.412 L-78.0756 535.91 L-77.6884 535.829 "
     id="path1194" />
</g>
<g
   id="g1200">
  <path
     fill="none"
     stroke="#000000"
     stroke-width="4"
     stroke-linecap="round"
     stroke-linejoin="round"
     d="M-76.9472 534.139 L-76.4368 547.139 L-76.4414 561.886 L-76.8377 575.806 L-76.6059 600.782 L-76.8405 606.682 L-76.5527 609.562 L-76.7221 614.596 L-76.3545 617.972 L-76.3634 622.898 "
     id="path1198" />
</g>
<g
   id="g1204">
  <path
     fill="none"
     stroke="#000000"
     stroke-width="4"
     stroke-linecap="round"
     stroke-linejoin="round"
     d="M-180.641 624.459 L-180.539 625.006 L-179.767 624.379 L-178.712 624.658 L-177.099 624.145 L-173.617 624.327 L-171.65 623.834 L-170.838 624.294 L-169.35 623.903 L-168.126 624.154 L-166.304 624.007 L-166.209 624.305 L-164.79 623.851 L-163.44 623.971 L-159.71 623.533 L-157.678 623.963 L-155.597 623.639 L-153.875 624.112 L-146.935 624.046 L-141.196 623.522 L-139.222 622.99 L-138.43 623.292 L-134.036 623.085 L-131.584 623.47 L-115.418 622.914 L-112.67 623.212 L-109.077 622.987 L-105.376 623.242 L-102.254 622.739 L-98.5921 622.971 L-97.0323 622.676 L-96.0798 622.885 L-95.9549 622.652 L-95.2606 623.006 L-91.8186 622.866 L-87.9389 623.27 L-85.7914 623.047 L-84.4552 623.341 L-81.284 623.169 L-81.1963 622.938 L-80.6631 623.212 L-77.9335 622.905 L-77.5578 623.126 L-77.4896 622.809 L-77.4016 623.259 L-76.9778 623.365 L-77.1263 623.157 L-77.6568 623.383 "
     id="path1202" />
</g>
<g
   id="g1208">
  <path
     fill="none"
     stroke="#000000"
     stroke-width="4"
     stroke-linecap="round"
     stroke-linejoin="round"
     d="M-180.296 520.085 L-178.959 520.405 L-178.333 520.123 L-176.733 520.253 L-176.228 520.533 L-175.121 520.258 L-171.597 520.639 L-170.094 520.361 L-168.216 520.824 L-165.639 520.559 L-164.003 521.065 L-153.06 520.705 L-151.769 521.164 L-139.473 520.381 L-135.461 520.498 L-134.798 520.818 L-131.933 521.085 L-119.514 520.78 L-115.945 521.24 L-110.824 521.288 L-109.318 520.996 L-98.1368 521.231 L-96.8503 520.99 L-95.294 521.224 L-91.6128 520.582 L-90.5543 520.699 "
     id="path1206" />
</g>
<g
   id="g1212">
  <path
     fill="none"
     stroke="#000000"
     stroke-width="4"
     stroke-linecap="round"
     stroke-linejoin="round"
     d="M12.0089 568.734 L17.5905 569.92 L20.0884 569.856 L28.9867 571.328 L32.6822 572.362 L34.0282 572.167 L34.6146 572.46 L34.1734 572.514 L34.2611 572.3 L33.6343 572.698 L31.2073 572.9 L28.7039 573.828 L26.0676 574.115 L24.7979 574.631 L22.0656 574.823 L20.8709 575.334 L17.1825 575.896 L14.5647 576.662 L12.1987 576.869 L11.2804 577.164 L10.9904 577.586 L11.5418 577.171 "
     id="path1210" />
</g>
<g
   id="g1216">
  <path
     fill="none"
     stroke="#000000"
     stroke-width="4"
     stroke-linecap="round"
     stroke-linejoin="round"
     d="M10.3583 568.404 L9.8459 570.772 L10.518 573.584 L10.1154 576.321 L10.2591 576.119 L10.4869 576.382 "
     id="path1214" />
</g>
<g
   id="g1220">
  <path
     fill="none"
     stroke="#000000"
     stroke-width="4"
     stroke-linecap="round"
     stroke-linejoin="round"
     d="M9.8901 576.787 L10.0774 576.526 L10.1666 576.93 L9.76679 577.596 L10.2033 577.161 "
     id="path1218" />
</g>
<g
   id="g1224">
  <path
     fill="none"
     stroke="#000000"
     stroke-width="4"
     stroke-linecap="round"
     stroke-linejoin="round"
     d="M-68.3447 572.834 L-68.9085 572.845 L-68.6025 572.989 L-68.5957 572.736 L-67.766 572.529 L-65.4904 572.375 L-65.2897 572.645 L-58.1408 572.494 L-55.9789 572.124 L-54.568 572.506 L-53.4865 572.415 L-51.6224 573.009 L-49.0995 572.713 L-46.3706 572.981 L-45.161 572.734 L-38.1312 572.945 L-34.9644 572.71 L-33.8416 573.01 L-31.3196 572.653 L-29.7302 572.964 L-25.3304 572.698 L-21.8525 573.095 L-13.5204 572.715 L-12.184 572.756 L-11.4513 573.102 L-7.8475 572.931 L-6.89349 573.184 L-6.86583 572.897 L-4.84745 572.873 L-3.39181 573.31 L-2.28366 573.069 L-0.137891 573.409 L1.91561 573.135 L2.83495 573.494 L5.94239 573.707 L7.61765 573.35 L7.83721 573.652 L8.0922 573.527 L7.48576 573.662 "
     id="path1222" />
</g>
<g
   id="g1228">
  <path
     fill="none"
     stroke="#000000"
     stroke-width="4"
     stroke-linecap="round"
     stroke-linejoin="round"
     d="M-42.9513 514.811 L-42.7005 514.693 L-42.6937 514.94 L-42.6602 514.684 L-43.0071 513.261 L-44.7843 512.404 L-46.4767 512.298 L-46.8522 512.536 L-46.8986 512.33 L-48.3186 513.603 L-49.279 516.003 L-50.0319 523.181 L-50.0094 539.292 L-49.4145 557.362 L-49.5869 558.716 L-49.2737 560.747 L-48.737 561.685 L-47.7657 562.491 L-47.2659 562.622 L-47.2013 562.283 L-46.3374 562.955 L-46.0434 562.63 L-45.2344 562.69 L-43.7894 561.41 L-42.6901 558.821 L-42.1221 556.407 L-41.3876 541.013 L-40.9252 537.064 L-41.8574 536.829 L-42.3987 537.221 L-43.4573 537.14 L-43.3802 537.548 L-43.4122 537.289 L-43.4765 537.519 L-44.178 537.418 L-44.1902 537.093 L-44.1164 537.404 L-44.1444 537.143 L-44.8225 537.689 L-44.7502 537.267 L-44.7471 537.721 L-44.3383 537.44 "
     id="path1226" />
</g>
<g
   id="g1232">
  <path
     fill="none"
     stroke="#000000"
     stroke-width="4"
     stroke-linecap="round"
     stroke-linejoin="round"
     d="M-35.04 513.113 L-35.2553 513.568 L-35.0234 515.038 L-35.2806 518.828 L-35.2309 533.308 L-34.4654 547.157 L-34.0438 560.371 L-34.1468 562.355 L-34.2557 561.502 "
     id="path1230" />
</g>
<g
   id="g1236">
  <path
     fill="none"
     stroke="#000000"
     stroke-width="4"
     stroke-linecap="round"
     stroke-linejoin="round"
     d="M-34.2587 512.996 L-32.6522 513.212 L-31.9207 513.816 L-31.1158 513.52 L-29.6071 514.567 L-28.5282 517.055 L-27.9933 519.351 L-27.5149 527.664 L-28.0279 532.787 L-28.8557 535.079 L-29.3787 535.469 L-29.835 536.633 L-31.2992 537.968 L-31.6345 537.719 L-32.3244 538.029 L-32.3676 537.813 L-31.3043 542.238 L-27.9395 552.074 L-26.5389 559.217 L-25.7975 562.209 L-25.8274 561.206 "
     id="path1234" />
</g>
<g
   id="g1240">
  <path
     fill="none"
     stroke="#000000"
     stroke-width="4"
     stroke-linecap="round"
     stroke-linejoin="round"
     d="M-14.3648 514.228 L-14.513 514.553 L-14.6172 513.996 L-15.6171 513.237 L-16.5751 513.003 L-16.95 513.203 L-17.682 512.544 L-18.4588 512.805 L-20.463 514.802 L-21.2002 516.731 L-21.3603 518.489 L-21.1159 531.821 L-20.0976 541.62 L-19.8619 553.522 L-19.4025 560.4 L-18.7103 562.491 L-18.2348 562.754 L-18.1938 562.484 L-17.7104 563.263 L-17.5016 563.108 L-17.1962 563.396 L-16.9781 563.159 L-16.6665 563.446 L-15.9716 562.994 L-15.0989 563.107 L-14.7673 562.775 L-14.5604 563.081 L-13.2214 562.093 L-12.3027 557.479 L-12.293 527.657 L-12.6248 518.829 L-12.8322 516.969 L-13.3268 516.064 L-12.9927 515.141 "
     id="path1238" />
</g>
<g
   id="g1244">
  <path
     fill="none"
     stroke="#000000"
     stroke-width="4"
     stroke-linecap="round"
     stroke-linejoin="round"
     d="M-7.21603 512.54 L-7.06159 528.646 L-6.48644 536.038 L-6.25436 548.156 L-5.41025 563.396 L-4.73416 559.014 L-3.93706 556.42 L-2.26977 547.796 L-0.676902 542.89 L0.0335475 538.552 L0.32911 542.095 L4.67492 557.354 L5.02228 560.216 L5.77947 563.066 L6.60497 548.078 L6.72958 536.48 L7.59028 528.77 L7.91226 519.836 L8.30077 514.288 L8.41388 513.949 L8.52939 514.189 "
     id="path1242" />
</g>
<g
   id="g1248">
  <path
     fill="none"
     stroke="#000000"
     stroke-width="4"
     stroke-linecap="round"
     stroke-linejoin="round"
     d="M-233.002 645.675 L-233.301 644.952 L-232.679 641.866 L-230.952 639.494 L-229.715 638.876 L-229.293 639.028 L-228.066 638.089 L-227.96 638.312 L-226.208 637.665 L-224.466 637.528 L-221.791 636.635 L-221.269 636.858 L-221.129 636.531 L-220.185 636.845 L-217.076 636.394 L-216.856 636.652 L-216.03 636.285 L-215.825 636.562 L-212.134 635.613 L-209.816 635.503 L-209.184 635.756 L-207.119 635.212 L-206.919 635.587 L-204.602 635.51 L-204.208 635.248 L-201.625 635.743 L-196.426 635.287 L-189.884 635.014 L-189.272 635.207 L-189.107 634.953 L-188.725 635.487 L-187.748 634.947 L-185.21 635.308 L-182.52 635.011 L-181.655 635.268 L-176.398 634.64 L-174.535 634.896 L-172.906 634.676 L-172.802 634.933 L-171.624 634.522 L-169.944 634.755 L-169.404 634.39 L-164.664 635.126 L-160.758 634.834 L-157.054 635.223 L-151.534 635.21 L-148.15 634.999 L-148.152 634.752 L-148.372 634.992 L-147.945 634.779 L-140.842 635.269 L-139.72 635.011 L-139.965 635.24 L-134.54 635.405 L-134.187 635.631 L-133.651 635.347 L-133.473 635.595 L-133.26 635.303 L-133.225 635.55 L-133.036 635.168 L-132.851 635.33 L-132.175 634.948 L-128.359 634.843 L-127.05 635.101 L-126.437 634.88 L-125.212 635.145 L-124.827 634.877 L-124.296 635.141 L-121.966 634.899 L-120.712 635.194 L-118.858 634.877 L-116.312 635.128 L-116.005 634.932 L-115.684 635.019 L-115.831 635.258 L-114.838 635.024 L-113.209 635.325 L-110.046 634.956 L-109.463 635.146 L-108.816 634.766 L-108.517 635.015 L-103.777 634.96 L-103.633 635.224 L-102.567 634.852 L-101.228 635.348 L-100.938 635.17 L-100.789 635.456 L-99.9774 635.059 L-98.9257 635.381 L-98.4078 635.21 L-98.3275 635.504 L-98.234 635.208 L-94.5839 635.123 L-93.8795 634.715 L-93.0868 634.916 L-92.3264 634.648 L-91.1809 634.986 L-90.9971 634.78 L-90.8515 635.123 L-90.3903 634.967 L-90.2565 635.277 L-89.9235 634.98 L-88.776 634.991 L-88.1244 635.432 L-85.7994 635.376 L-85.6465 635.142 L-84.8877 635.622 L-84.7424 635.421 L-84.6603 635.709 L-84.4971 635.376 L-83.9256 635.678 L-83.3558 635.304 L-81.7673 635.191 L-81.6622 634.888 L-80.7546 635.09 L-80.0735 634.391 L-79.7938 634.598 L-79.2204 633.976 L-79.155 634.23 L-78.9916 633.699 L-78.8962 633.919 L-78.0596 632.909 L-77.5828 631.201 L-77.5141 629.411 L-77.226 629.023 L-77.3449 628.797 L-77.6921 628.981 "
     id="path1246" />
</g>
<g
   id="g1252">
  <path
     fill="none"
     stroke="#000000"
     stroke-width="4"
     stroke-linecap="round"
     stroke-linejoin="round"
     d="M-389.262 630.006 L-389.198 629.761 L-388.55 630.322 L-388.964 634.709 L-388.59 635.356 L-387.646 635.814 L-387.23 635.535 L-387.116 636.308 L-386.698 635.787 L-386.182 636.522 L-386.132 636.31 L-384.151 636.279 L-383.926 636.63 L-383.819 636.325 L-383.377 636.604 L-383.15 636.271 L-382.73 636.495 L-382.695 636.176 L-382.298 636.666 L-380.716 636.867 L-379.898 636.725 L-379.698 636.405 L-378.238 636.311 L-377.244 636.536 L-376.688 636.31 L-376.166 636.601 L-375.606 636.301 L-374.986 636.559 L-374.885 636.328 L-374.004 636.714 L-373.024 636.397 L-372.387 636.655 L-368.311 636.153 L-368.028 636.374 L-366.833 635.978 L-366.215 636.209 L-365.815 635.955 L-364.014 635.998 L-363.783 635.696 L-363.339 635.91 L-363.19 635.637 L-361.326 635.705 L-361.103 635.445 L-358.324 635.841 L-355.485 635.106 L-351.133 635.154 L-346.724 634.755 L-345.907 634.276 L-345.597 634.495 L-345.447 634.228 L-345.072 634.44 L-344.341 634.169 L-339.607 634.9 L-336.481 634.344 L-332.257 634.287 L-331.905 634.672 L-331.506 634.163 L-329.948 634.102 L-329.7 633.816 L-329.535 634.114 L-328.713 634.214 L-328.339 633.963 L-326.944 634.247 L-325.661 634.183 L-325.132 633.853 L-319.039 633.877 L-318.818 634.098 L-317.82 633.872 L-317.763 634.118 L-317.518 633.832 L-312.525 633.58 L-308.294 633.911 L-300.19 633.515 L-299.14 633.824 L-298.293 633.558 L-292.12 633.36 L-291.893 632.957 L-291.188 633.433 L-291.022 633.178 L-288.09 633.597 L-285.386 633.566 L-284.572 633.246 L-280.754 633.411 L-280.378 633.674 L-278.031 633.42 L-277.359 633.671 L-275.57 633.504 L-275.425 633.254 L-274.152 633.561 L-272.778 633.583 L-272.392 633.312 L-269.08 633.757 L-265.26 633.773 L-262.658 633.483 L-262.269 633.733 L-260.964 633.548 L-260.829 633.29 L-259.865 633.653 L-259.579 633.368 L-259.128 633.679 L-256.104 633.731 L-254.352 634.002 L-254.14 634.308 L-253.498 634.013 L-251.687 634.156 L-251.169 634.48 L-250.729 634.268 L-248.014 634.501 L-247.663 634.216 L-247.28 634.567 L-244.403 635.091 L-244.158 634.862 L-244.07 635.152 L-243.834 634.941 L-241.976 635.356 L-240.106 636.046 L-239.676 635.854 L-238.793 636.391 L-238.474 636.118 L-237.348 637.369 L-237.05 637.263 L-236.387 637.925 L-233.692 639.074 L-232.972 640.081 L-232.847 639.881 L-232.421 644.674 "
     id="path1250" />
</g>
<g
   id="g1256">
  <path
     fill="none"
     stroke="#000000"
     stroke-width="4"
     stroke-linecap="round"
     stroke-linejoin="round"
     d="M-247.912 658.986 L-247.939 657.169 L-248.26 657.088 L-249.044 655.38 L-249.767 655.319 L-250.15 654.822 L-250.983 655.04 L-251.802 654.026 L-252.149 654.464 L-252.942 654.433 L-252.963 654.207 L-253.674 654.915 L-253.777 654.694 L-253.903 654.959 L-253.884 654.662 L-253.978 655.05 L-254.287 654.695 L-255.087 655.081 L-256.316 658.39 L-256.824 661.387 L-257.242 667.868 L-256.946 672.028 L-256.431 673.966 L-255.295 675.648 L-255.142 676.523 L-254.423 677.655 L-253.966 677.803 L-253.387 679.158 L-252.886 679.697 L-252.777 679.328 L-252.171 681.542 L-250.88 683.523 L-250.337 685.772 L-250.1 686.116 L-250.083 685.895 L-249.064 693.866 L-249.382 699.722 L-249.41 699.491 L-249.687 699.604 L-249.936 700.391 L-250.18 700.15 L-250.487 701.616 L-251.355 702.655 L-251.228 703.184 L-251.472 703.342 L-251.598 702.953 L-251.721 703.366 L-252.091 703.512 L-252.216 703.256 L-252.336 703.598 L-252.472 703.274 L-253.126 703.925 L-255.093 702.759 L-255.023 703.142 L-256.221 701.915 L-256.412 701.173 L-256.591 701.007 L-256.621 701.28 L-256.483 701.052 L-257.72 698.839 L-258.09 698.473 L-258.008 698.997 L-257.068 699.383 "
     id="path1254" />
</g>
<g
   id="g1260">
  <path
     fill="none"
     stroke="#000000"
     stroke-width="4"
     stroke-linecap="round"
     stroke-linejoin="round"
     d="M-241.358 654.775 L-241.081 654.551 L-239.687 655.486 L-238.92 655.082 L-239.047 655.557 L-238.902 655.1 L-238.07 655.047 L-237.586 655.348 L-237.637 655.676 L-238.275 654.995 L-239.451 655.526 L-239.492 655.293 L-239.545 655.616 L-239.497 655.241 L-239.625 656.011 L-238.869 660.856 L-238.551 665.619 L-238.7 674.532 L-238.162 683.042 L-238.177 693.245 L-237.422 702.746 L-237.538 703.867 L-237.667 702.854 L-237.719 703.264 L-237.666 702.874 L-238.232 703.283 L-239.856 704.91 L-240.373 704.439 L-240.364 704.772 L-239.16 704.389 L-238.106 704.637 L-237.953 704.359 L-237.668 704.618 L-237.584 704.365 L-237.382 704.765 L-237.043 704.537 L-236.886 704.829 L-236.787 704.354 L-236.092 705.101 L-235.878 704.654 L-235.59 704.768 L-235.251 703.975 "
     id="path1258" />
</g>
<g
   id="g1264">
  <path
     fill="none"
     stroke="#000000"
     stroke-width="4"
     stroke-linecap="round"
     stroke-linejoin="round"
     d="M-230.413 654.307 L-230.478 653.583 L-230.419 654.269 L-230.159 653.771 L-230.167 654.245 L-229.475 654.388 L-229.355 654.702 L-228.969 654.488 L-228.874 654.802 L-228.711 654.565 L-226.914 654.956 L-225.584 654.511 L-224.273 654.499 L-223.738 654.059 L-223.434 654.174 L-223.386 653.827 L-223.257 654.386 L-222.383 654.344 L-222.267 654.698 L-222.067 654.343 L-221.985 654.692 L-221.772 654.329 L-221.218 654.335 L-221.158 654.589 L-220.814 654.254 L-220.364 654.66 L-220.059 654.23 L-220.037 654.612 L-220.01 654.271 L-219.87 654.775 L-219.431 654.944 L-219.454 655.318 L-219.331 654.88 L-221.565 664.189 L-222.582 671.865 L-224.26 677.688 L-225.439 687.309 L-226.637 693.365 L-227.411 700.785 L-228.09 704.293 L-228.082 703.964 L-228.519 704.764 L-228.369 704.258 L-228.282 704.963 L-228.317 704.738 L-227.604 704.788 L-227.516 705.091 L-227.233 704.81 L-226.885 704.996 L-226.458 704.498 L-225.926 704.928 L-225.735 704.609 L-225.092 705.23 L-225.018 704.965 L-223.98 704.762 L-223.809 705.016 L-222.951 705.032 L-222.797 705.406 L-222.586 704.873 L-222.417 705.115 L-222.219 704.773 L-221.283 704.8 L-221.01 704.463 L-220.956 704.778 L-220.825 704.393 L-220.578 704.91 L-220.53 704.588 L-220.258 704.811 L-220.225 704.414 L-219.926 705.254 L-219.809 704.604 L-220.054 704.769 L-220.433 704.429 "
     id="path1262" />
</g>
<g
   id="g1268">
  <path
     fill="none"
     stroke="#000000"
     stroke-width="4"
     stroke-linecap="round"
     stroke-linejoin="round"
     d="M-229.352 681.265 L-229.682 681.308 L-229.704 681.635 L-229.798 681.24 L-229.658 681.556 L-229.436 681.286 L-228.764 681.627 L-227.993 681.368 L-227.324 681.526 L-227.187 681.137 L-226.701 681.497 L-226.553 681.167 L-226.403 681.467 L-224.928 681.205 L-224.779 681.483 L-224.11 681.055 L-223.994 681.397 L-223.65 680.959 L-221.528 681.204 L-220.977 681.034 L-220.962 680.754 L-220.869 680.997 L-220.887 680.741 L-221.018 681.051 L-221.655 681.108 "
     id="path1266" />
</g>
<g
   id="g1272">
  <path
     fill="none"
     stroke="#000000"
     stroke-width="4"
     stroke-linecap="round"
     stroke-linejoin="round"
     d="M-211.716 654.903 L-212.045 656.877 L-211.716 660.842 L-211.703 670.465 L-211.48 670.802 L-211.852 683.278 L-211.576 704.633 L-211.452 704.115 L-211.475 704.738 L-211.308 704.594 L-211.101 705.149 L-211.019 704.706 L-211.013 705.016 L-210.998 704.768 L-210.127 704.859 L-209.985 704.606 L-208.903 704.814 L-208.822 704.437 L-208.319 704.793 L-208.247 705.282 L-208.123 704.883 L-208.123 705.149 L-207.649 704.699 L-207.278 704.899 L-206.571 704.256 L-206.518 704.569 L-206.238 704.243 L-206.156 704.645 L-205.765 704.612 L-205.682 704.293 L-204.678 704.804 L-204.029 704.252 L-203.843 704.624 L-202.578 704.317 L-202.553 704.82 L-202.424 704.106 L-202.659 704.397 L-202.793 703.929 L-202.992 704.231 "
     id="path1270" />
</g>
<g
   id="g1276">
  <path
     fill="none"
     stroke="#000000"
     stroke-width="4"
     stroke-linecap="round"
     stroke-linejoin="round"
     d="M-211.185 655.882 L-211.001 654.97 L-210.91 655.698 L-210.469 656.076 L-210.214 655.894 L-210.079 656.253 L-209.831 656.036 L-209.769 656.255 L-209.555 656.035 L-209.058 656.288 L-208.003 656.169 L-206.951 656.605 L-205.408 656.464 L-205.323 656.041 L-205.225 656.387 L-205.125 656.19 L-204.945 656.455 L-204.903 656.056 L-204.628 656.41 L-203.843 655.946 L-203.465 656.411 L-202.849 655.995 L-203.007 656.394 "
     id="path1274" />
</g>
<g
   id="g1280">
  <path
     fill="none"
     stroke="#000000"
     stroke-width="4"
     stroke-linecap="round"
     stroke-linejoin="round"
     d="M-211.606 681.016 L-211.7 681.334 L-211.017 681.234 L-210.643 680.748 L-209.796 680.762 L-209.67 680.308 L-209.549 680.571 L-209.039 680.282 L-208.892 680.644 L-208.845 680.342 L-207.823 680.743 L-207.419 680.409 L-207.325 680.7 L-207.215 680.332 L-206.57 680.568 L-204.973 680.178 L-204.81 680.566 L-204.685 679.933 L-204.764 680.583 "
     id="path1278" />
</g>
<g
   id="g1284">
  <path
     fill="none"
     stroke="#000000"
     stroke-width="2.41145"
     stroke-linecap="round"
     stroke-linejoin="round"
     d="M-385.996 483.872 L-386.113 483.914 L-386.3 482.587 L-386.723 482.187 L-388.034 481.585 L-389.467 481.674 L-390.327 482.762 L-390.535 483.641 L-390.812 488.291 L-390.848 496.478 L-391.169 500.171 L-390.766 508.691 L-390.03 510.853 L-389.482 511.048 L-389.275 511.356 L-388.887 511.379 L-388.836 511.549 L-388.121 511.311 L-387.236 510.112 L-386.765 507.632 L-386.408 504.024 L-386.59 499.014 L-386.431 496.288 L-386.541 494.688 L-386.236 490.397 L-386.352 489.104 L-386.147 485.581 L-386.28 484.75 "
     id="path1282" />
</g>
<g
   id="g1288">
  <path
     fill="none"
     stroke="#000000"
     stroke-width="2.49099"
     stroke-linecap="round"
     stroke-linejoin="round"
     d="M-285.065 486.527 L-283.402 483.536 L-282.962 481.677 L-282.979 480.561 L-283.539 487.371 L-283.297 498.085 L-282.747 508.249 L-282.792 510.96 "
     id="path1286" />
</g>
<g
   id="g1292">
  <path
     fill="none"
     stroke="#000000"
     stroke-width="2.49099"
     stroke-linecap="round"
     stroke-linejoin="round"
     d="M-276.53 480.607 L-276.926 480.412 L-277.61 480.452 L-278.424 481.535 L-278.671 484.51 L-278.921 490.374 L-278.879 499.008 L-278.337 511.352 L-277.694 511.699 L-277.241 511.56 L-277.084 511.705 L-275.969 511.435 L-275.421 511.007 L-275.014 509.894 L-274.472 506.253 L-274.172 484.025 L-274.305 483.042 L-274.803 481.717 L-275.45 481.127 L-275.642 481.223 "
     id="path1290" />
</g>
<g
   id="g1296">
  <path
     fill="none"
     stroke="#000000"
     stroke-width="2.49099"
     stroke-linecap="round"
     stroke-linejoin="round"
     d="M-268.475 480.957 L-268.465 480.758 L-268.561 480.873 L-268.762 480.615 L-269.776 480.573 L-270.109 480.902 L-270.459 481.763 L-270.781 484.659 L-270.676 487.595 L-270.937 491.087 L-270.945 499.946 L-270.668 509.596 L-270.183 511.255 L-269.076 511.635 L-267.853 511.337 L-267.457 510.597 L-267.118 509.327 L-266.826 505.573 L-266.748 499.027 L-266.357 493.383 L-266.437 490.476 L-266.146 485.278 L-266.587 482.356 L-266.983 481.402 L-267.826 480.872 "
     id="path1294" />
</g>
<g
   id="g1300">
  <path
     fill="none"
     stroke="#000000"
     stroke-width="2.49099"
     stroke-linecap="round"
     stroke-linejoin="round"
     d="M-260.114 480.511 L-260.25 480.588 L-260.509 480.281 L-261.759 480.549 L-262.451 481.444 L-262.899 486.51 L-263.105 495.205 L-262.787 499.373 L-262.953 501.403 L-262.783 503.471 L-262.881 505.568 L-262.41 510.363 L-262 511.597 L-261.653 512.012 L-261.303 511.912 L-260.684 512.162 L-259.908 511.727 L-259.486 511.162 L-259.34 511.242 L-258.679 509.083 L-258.557 507.984 L-258.749 499.217 L-258.347 494.723 L-258.225 489.586 L-258.439 486.334 L-258.349 484.223 L-258.945 481.481 "
     id="path1298" />
</g>
<g
   id="g1304">
  <path
     fill="none"
     stroke="#000000"
     stroke-width="2.49099"
     stroke-linecap="round"
     stroke-linejoin="round"
     d="M-251.675 480.896 L-252.45 480.442 L-252.969 480.405 L-253.949 481.311 L-254.22 481.938 L-254.885 485.738 L-255.072 491.38 L-254.897 494.451 L-255.196 501.042 L-254.754 510.503 L-253.906 511.918 L-253.661 511.795 L-252.594 511.967 L-251.644 510.504 L-250.975 508.101 L-250.748 504.906 L-250.851 498.369 L-250.475 491.53 L-250.463 485.494 L-250.709 482.658 L-251.364 480.924 L-251.577 481.314 "
     id="path1302" />
</g>
<g
   id="g1308">
  <path
     fill="none"
     stroke="#000000"
     stroke-width="2.49099"
     stroke-linecap="round"
     stroke-linejoin="round"
     d="M-169.24 480.337 L-169.636 480.142 L-170.32 480.182 L-171.134 481.265 L-171.381 484.24 L-171.631 490.104 L-171.589 498.738 L-171.047 511.082 L-170.404 511.429 L-169.951 511.29 L-169.794 511.435 L-168.679 511.165 L-168.131 510.737 L-167.724 509.624 L-167.182 505.983 L-166.882 483.755 L-167.014 482.772 L-167.513 481.447 L-168.159 480.857 L-168.351 480.953 "
     id="path1306" />
</g>
<g
   id="g1312">
  <path
     fill="none"
     stroke="#000000"
     stroke-width="2.49099"
     stroke-linecap="round"
     stroke-linejoin="round"
     d="M-161.185 480.687 L-161.175 480.488 L-161.271 480.603 L-161.472 480.345 L-162.485 480.303 L-162.819 480.632 L-163.169 481.493 L-163.49 484.39 L-163.386 487.325 L-163.647 490.817 L-163.655 499.676 L-163.377 509.326 L-162.893 510.985 L-161.785 511.365 L-160.563 511.067 L-160.167 510.327 L-159.828 509.057 L-159.536 505.303 L-159.458 498.757 L-159.067 493.113 L-159.146 490.206 L-158.855 485.008 L-159.297 482.086 L-159.693 481.132 L-160.536 480.602 "
     id="path1310" />
</g>
<g
   id="g1316">
  <path
     fill="none"
     stroke="#000000"
     stroke-width="2.49099"
     stroke-linecap="round"
     stroke-linejoin="round"
     d="M-152.824 480.241 L-152.96 480.318 L-153.218 480.011 L-154.469 480.279 L-155.16 481.174 L-155.608 486.24 L-155.815 494.935 L-155.496 499.103 L-155.663 501.133 L-155.493 503.201 L-155.591 505.298 L-155.12 510.094 L-154.709 511.327 L-154.363 511.742 L-154.013 511.642 L-153.394 511.892 L-152.618 511.457 L-152.196 510.892 L-152.049 510.972 L-151.388 508.813 L-151.267 507.714 L-151.458 498.947 L-151.057 494.453 L-150.935 489.316 L-151.149 486.064 L-151.059 483.953 L-151.655 481.211 "
     id="path1314" />
</g>
<g
   id="g1320">
  <path
     fill="none"
     stroke="#000000"
     stroke-width="2.49099"
     stroke-linecap="round"
     stroke-linejoin="round"
     d="M-144.385 480.626 L-145.16 480.172 L-145.678 480.135 L-146.659 481.041 L-146.929 481.668 L-147.595 485.468 L-147.782 491.11 L-147.606 494.181 L-147.906 500.772 L-147.464 510.234 L-146.615 511.648 L-146.37 511.525 L-145.304 511.697 L-144.353 510.234 L-143.685 507.831 L-143.458 504.636 L-143.56 498.099 L-143.184 491.26 L-143.173 485.224 L-143.419 482.388 L-144.074 480.654 L-144.287 481.044 "
     id="path1318" />
</g>
<g
   id="g1324">
  <path
     fill="none"
     stroke="#000000"
     stroke-width="2.40409"
     stroke-linecap="round"
     stroke-linejoin="round"
     d="M-180.249 484.664 L-179.994 482.864 L-179.641 481.857 L-178.475 480.689 L-178.015 480.473 L-177.8 480.647 L-177.338 480.466 L-176.611 480.614 L-176.132 481.182 L-175.885 482.221 L-175.639 484.091 L-175.765 487.059 L-176.997 491.387 L-177.269 493.04 L-177.99 494.401 L-178.526 496.127 L-179.426 500.307 L-179.689 510.305 L-179.15 510.56 L-179.072 510.433 L-179.049 510.603 L-178.972 510.342 L-178.545 510.43 L-178.294 510.275 L-177.646 510.471 L-176.862 510.371 L-176.591 510.554 L-176.407 510.342 L-176.032 510.342 L-175.979 510.132 L-175.873 510.415 L-175.529 510.287 L-175.459 510.437 L-175.242 510.213 L-175.402 509.919 "
     id="path1322" />
</g>
<metadata
   id="metadata1508">
  <rdf:RDF>
    <cc:Work
       rdf:about="">
      <dc:title>Quick sheets</dc:title>
    </cc:Work>
  </rdf:RDF>
</metadata>
</svg>
