<?xml version="1.0" encoding="UTF-8" standalone="no"?>
<svg
   width="419.25174"
   height="317.995"
   viewBox="-393 516 419.25174 317.995"
   version="1.2"
   id="svg3444"
   sodipodi:docname="14-restricted-memory.svg"
   inkscape:version="1.1.2 (0a00cf5339, 2022-02-04)"
   xmlns:inkscape="http://www.inkscape.org/namespaces/inkscape"
   xmlns:sodipodi="http://sodipodi.sourceforge.net/DTD/sodipodi-0.dtd"
   xmlns="http://www.w3.org/2000/svg"
   xmlns:svg="http://www.w3.org/2000/svg"
   xmlns:rdf="http://www.w3.org/1999/02/22-rdf-syntax-ns#"
   xmlns:cc="http://creativecommons.org/ns#"
   xmlns:dc="http://purl.org/dc/elements/1.1/"><defs
   id="defs3448" />
<sodipodi:namedview
   id="namedview3446"
   pagecolor="#ffffff"
   bordercolor="#666666"
   borderopacity="1.0"
   inkscape:pageshadow="2"
   inkscape:pageopacity="0.0"
   inkscape:pagecheckerboard="0"
   showgrid="false"
   inkscape:zoom="1"
   inkscape:cx="314"
   inkscape:cy="-242"
   inkscape:window-width="3840"
   inkscape:window-height="1536"
   inkscape:window-x="0"
   inkscape:window-y="0"
   inkscape:window-maximized="1"
   inkscape:current-layer="svg3444" />
<title
   id="title2716">Quick sheets</title>

\n<g
   id="g2722"
   transform="matrix(0.66647759,0,0,0.66647759,-132.74383,153.30889)">
  <path
     fill="none"
     stroke="#000000"
     stroke-width="4"
     stroke-linecap="round"
     stroke-linejoin="round"
     d="m -333.4,625.868 -0.242,-0.01 0.107,0.256 -0.109,-0.184 0.345,4.521 -0.282,7.677 0.218,0.765 -0.147,13.952 0.626,16.86 -0.488,18.743 0.13,5.199 -0.285,3.555 0.188,12.058 -0.252,1 0.324,1.329 -0.369,12.034 0.311,1.681 -0.214,0.843 0.212,2.395 -0.043,0.238 -0.086,-0.497 -0.179,0.211"
     id="path2720" />
</g>
<g
   id="g2726"
   transform="matrix(0.66647759,0,0,0.66647759,-132.74383,153.30889)">
  <path
     fill="none"
     stroke="#000000"
     stroke-width="4"
     stroke-linecap="round"
     stroke-linejoin="round"
     d="m -242.151,626.418 h 0.064"
     id="path2724" />
</g>
<g
   id="g2730"
   transform="matrix(0.66647759,0,0,0.66647759,-132.74383,153.30889)">
  <path
     fill="none"
     stroke="#000000"
     stroke-width="4"
     stroke-linecap="round"
     stroke-linejoin="round"
     d="m -242.226,626.418 0.08,-0.238 0.821,1.315 0.695,0.319 2.804,3.003 0.546,0.228 1.887,2.291 0.065,-0.278 0.235,0.667 1.084,0.859 0.572,1.002 2.307,2.417"
     id="path2728" />
</g>
<g
   id="g2734"
   transform="matrix(0.66647759,0,0,0.66647759,-132.74383,153.30889)">
  <path
     fill="none"
     stroke="#000000"
     stroke-width="4"
     stroke-linecap="round"
     stroke-linejoin="round"
     d="m -243.074,627.514 -0.211,0.812 0.209,5.386 0.583,6.96 0.177,-0.214 0.195,0.886 -0.002,-0.548 -0.001,0.333 0.326,-0.3 0.773,0.395 0.215,-0.224 0.075,0.307 0.076,-0.288 1.085,-0.463 0.674,0.189 0.082,0.308 0.614,-0.37 0.449,0.319 0.984,0.15 0.543,-0.288 0.067,0.305 0.616,0.054 0.733,-0.369 0.105,0.287 0.322,-0.499 0.905,0.472 0.82,-0.108 0.063,0.255 0.832,-0.404 0.525,0.299 0.009,-0.272 0.066,0.499 0.387,-0.081"
     id="path2732" />
</g>
<g
   id="g2738"
   transform="matrix(0.66647759,0,0,0.66647759,-132.74383,153.30889)">
  <path
     fill="none"
     stroke="#000000"
     stroke-width="4"
     stroke-linecap="round"
     stroke-linejoin="round"
     d="m -230.037,639.611 0.511,13.001 -0.005,14.747 -0.396,13.92 0.232,24.976 -0.235,5.899 0.288,2.88 -0.169,5.035 0.367,3.376 -0.009,4.926"
     id="path2736" />
</g>
<g
   id="g2742"
   transform="matrix(0.66647759,0,0,0.66647759,-132.74383,153.30889)">
  <path
     fill="none"
     stroke="#000000"
     stroke-width="4"
     stroke-linecap="round"
     stroke-linejoin="round"
     d="m -333.731,729.931 0.103,0.548 0.772,-0.628 1.054,0.28 1.613,-0.513 3.482,0.181 1.968,-0.493 0.811,0.461 1.489,-0.391 1.223,0.251 1.823,-0.147 0.095,0.297 1.418,-0.454 1.35,0.12 3.731,-0.438 2.032,0.431 2.081,-0.324 1.722,0.473 6.94,-0.066 5.739,-0.524 1.974,-0.532 0.792,0.302 4.394,-0.207 2.452,0.384 16.165,-0.555 2.748,0.297 3.594,-0.225 3.7,0.256 3.122,-0.504 3.663,0.232 1.559,-0.294 0.953,0.208 0.125,-0.233 0.694,0.355 3.442,-0.14 3.88,0.404 2.147,-0.223 1.336,0.294 3.172,-0.172 0.087,-0.231 0.534,0.273 2.729,-0.306 0.376,0.221 0.068,-0.318 0.088,0.45 0.424,0.107 -0.149,-0.208 -0.53,0.226"
     id="path2740" />
</g>
<g
   id="g2746"
   transform="matrix(0.66647759,0,0,0.66647759,-132.74383,153.30889)">
  <path
     fill="none"
     stroke="#000000"
     stroke-width="4"
     stroke-linecap="round"
     stroke-linejoin="round"
     d="m -333.385,625.557 1.336,0.32 0.626,-0.281 1.601,0.129 0.505,0.281 1.107,-0.275 3.524,0.38 1.503,-0.277 1.877,0.463 2.578,-0.266 1.636,0.506 10.943,-0.36 1.29,0.46 12.297,-0.783 4.012,0.117 0.663,0.32 2.865,0.266 12.419,-0.304 3.568,0.46 5.121,0.048 1.506,-0.292 11.182,0.235 1.286,-0.242 1.557,0.235 3.681,-0.642 1.058,0.116"
     id="path2744" />
</g>
<g
   id="g2750"
   transform="matrix(0.66647759,0,0,0.66647759,-132.74383,153.30889)">
  <path
     fill="none"
     stroke="#000000"
     stroke-width="4"
     stroke-linecap="round"
     stroke-linejoin="round"
     d="m -229.33,625.335 -0.242,-0.01 0.107,0.255 -0.109,-0.184 0.345,4.521 -0.282,7.677 0.218,0.766 -0.147,13.951 0.626,16.86 -0.488,18.743 0.13,5.2 -0.285,3.554 0.188,12.058 -0.252,1 0.324,1.329 -0.369,12.034 0.311,1.681 -0.214,0.843 0.212,2.395 -0.043,0.238 -0.086,-0.497 -0.179,0.211"
     id="path2748" />
</g>
<g
   id="g2754"
   transform="matrix(0.66647759,0,0,0.66647759,-132.74383,153.30889)">
  <path
     fill="none"
     stroke="#000000"
     stroke-width="4"
     stroke-linecap="round"
     stroke-linejoin="round"
     d="m -138.08,625.885 h 0.063"
     id="path2752" />
</g>
<g
   id="g2758"
   transform="matrix(0.66647759,0,0,0.66647759,-132.74383,153.30889)">
  <path
     fill="none"
     stroke="#000000"
     stroke-width="4"
     stroke-linecap="round"
     stroke-linejoin="round"
     d="m -138.156,625.885 0.08,-0.238 0.821,1.314 0.695,0.319 2.804,3.003 0.546,0.228 1.887,2.291 0.065,-0.278 0.235,0.667 1.084,0.859 0.572,1.002 2.307,2.417"
     id="path2756" />
</g>
<g
   id="g2762"
   transform="matrix(0.66647759,0,0,0.66647759,-132.74383,153.30889)">
  <path
     fill="none"
     stroke="#000000"
     stroke-width="4"
     stroke-linecap="round"
     stroke-linejoin="round"
     d="m -139.004,626.981 -0.211,0.811 0.209,5.386 0.583,6.96 0.177,-0.214 0.195,0.886 -0.002,-0.548 v 0.333 l 0.325,-0.299 0.773,0.394 0.215,-0.224 0.075,0.308 0.076,-0.289 1.085,-0.463 0.674,0.189 0.082,0.308 0.614,-0.37 0.449,0.319 0.984,0.15 0.543,-0.288 0.067,0.305 0.616,0.054 0.733,-0.369 0.106,0.287 0.321,-0.499 0.905,0.472 0.82,-0.108 0.063,0.255 0.832,-0.404 0.525,0.299 0.009,-0.272 0.066,0.499 0.387,-0.081"
     id="path2760" />
</g>
<g
   id="g2766"
   transform="matrix(0.66647759,0,0,0.66647759,-132.74383,153.30889)">
  <path
     fill="none"
     stroke="#000000"
     stroke-width="4"
     stroke-linecap="round"
     stroke-linejoin="round"
     d="m -229.66,729.397 0.102,0.548 0.772,-0.628 1.054,0.28 1.614,-0.513 3.482,0.182 1.967,-0.493 0.811,0.46 1.489,-0.391 1.223,0.251 1.823,-0.147 0.095,0.297 1.418,-0.454 1.35,0.12 3.731,-0.438 2.032,0.431 2.081,-0.324 1.722,0.473 6.94,-0.066 5.739,-0.524 1.974,-0.532 0.792,0.302 4.394,-0.207 2.452,0.384 16.165,-0.555 2.748,0.297 3.594,-0.225 3.7,0.256 3.122,-0.503 3.663,0.231 1.559,-0.294 0.953,0.209 0.125,-0.234 0.694,0.355 3.442,-0.14 3.88,0.404 2.147,-0.223 1.336,0.294 3.172,-0.172 0.087,-0.231 0.534,0.273 2.729,-0.306 0.376,0.221 0.068,-0.318 0.088,0.45 0.424,0.107 -0.149,-0.208 -0.53,0.226"
     id="path2764" />
</g>
<g
   id="g2770"
   transform="matrix(0.66647759,0,0,0.66647759,-132.74383,153.30889)">
  <path
     fill="none"
     stroke="#000000"
     stroke-width="4"
     stroke-linecap="round"
     stroke-linejoin="round"
     d="m -229.315,625.024 1.336,0.319 0.627,-0.281 1.6,0.129 0.505,0.281 1.107,-0.275 3.524,0.381 1.503,-0.278 1.877,0.463 2.578,-0.266 1.636,0.506 10.943,-0.36 1.29,0.46 12.297,-0.783 4.012,0.117 0.663,0.32 2.865,0.266 12.419,-0.304 3.568,0.46 5.121,0.048 1.506,-0.292 11.182,0.235 1.286,-0.241 1.557,0.234 3.681,-0.642 1.058,0.116"
     id="path2768" />
</g>
<g
   id="g2774"
   transform="matrix(0.66647759,0,0,0.66647759,-132.74383,153.30889)">
  <path
     fill="none"
     stroke="#000000"
     stroke-width="4"
     stroke-linecap="round"
     stroke-linejoin="round"
     d="m -388.165,834.178 -0.241,-0.01 0.106,0.256 -0.108,-0.184 0.344,4.521 -0.282,7.677 0.219,0.765 -0.148,13.952 0.626,16.86 -0.488,18.743 0.13,5.2 -0.285,3.554 0.189,12.058 -0.252,1 0.323,1.329 -0.368,12.034 0.31,1.681 -0.214,0.843 0.212,2.395 -0.043,0.238 -0.085,-0.497 -0.18,0.211"
     id="path2772" />
</g>
<g
   id="g2778"
   transform="matrix(0.66647759,0,0,0.66647759,-132.74383,153.30889)">
  <path
     fill="none"
     stroke="#000000"
     stroke-width="4"
     stroke-linecap="round"
     stroke-linejoin="round"
     d="m -296.915,834.729 h 0.063"
     id="path2776" />
</g>
<g
   id="g2782"
   transform="matrix(0.66647759,0,0,0.66647759,-132.74383,153.30889)">
  <path
     fill="none"
     stroke="#000000"
     stroke-width="4"
     stroke-linecap="round"
     stroke-linejoin="round"
     d="m -296.99,834.729 0.079,-0.239 0.821,1.315 0.695,0.319 2.804,3.003 0.546,0.228 1.887,2.291 0.065,-0.278 0.235,0.667 1.085,0.859 0.571,1.002 2.307,2.417"
     id="path2780" />
</g>
<g
   id="g2786"
   transform="matrix(0.66647759,0,0,0.66647759,-132.74383,153.30889)">
  <path
     fill="none"
     stroke="#000000"
     stroke-width="4"
     stroke-linecap="round"
     stroke-linejoin="round"
     d="m -297.838,835.825 -0.212,0.811 0.209,5.386 0.584,6.96 0.176,-0.214 0.195,0.886 -0.002,-0.548 v 0.333 l 0.325,-0.299 0.774,0.394 0.215,-0.224 0.074,0.308 0.077,-0.289 1.085,-0.463 0.673,0.189 0.082,0.308 0.614,-0.37 0.449,0.319 0.984,0.15 0.544,-0.288 0.066,0.305 0.616,0.054 0.734,-0.369 0.105,0.287 0.322,-0.499 0.904,0.472 0.82,-0.108 0.064,0.255 0.832,-0.404 0.525,0.299 0.008,-0.272 0.066,0.499 0.388,-0.081"
     id="path2784" />
</g>
<g
   id="g2790"
   transform="matrix(0.66647759,0,0,0.66647759,-132.74383,153.30889)">
  <path
     fill="none"
     stroke="#000000"
     stroke-width="4"
     stroke-linecap="round"
     stroke-linejoin="round"
     d="m -284.801,847.921 0.51,13.001 -0.004,14.747 -0.397,13.92 0.232,24.976 -0.235,5.899 0.288,2.88 -0.169,5.035 0.367,3.376 -0.008,4.926"
     id="path2788" />
</g>
<g
   id="g2794"
   transform="matrix(0.66647759,0,0,0.66647759,-132.74383,153.30889)">
  <path
     fill="none"
     stroke="#000000"
     stroke-width="4"
     stroke-linecap="round"
     stroke-linejoin="round"
     d="m -388.495,938.241 0.102,0.548 0.772,-0.628 1.055,0.28 1.613,-0.513 3.482,0.181 1.967,-0.492 0.812,0.46 1.488,-0.391 1.224,0.251 1.822,-0.147 0.095,0.297 1.419,-0.454 1.35,0.12 3.73,-0.438 2.032,0.431 2.081,-0.324 1.722,0.473 6.94,-0.066 5.739,-0.524 1.974,-0.532 0.792,0.302 4.394,-0.207 2.452,0.384 16.166,-0.555 2.748,0.297 3.593,-0.225 3.701,0.256 3.122,-0.504 3.662,0.232 1.56,-0.294 0.952,0.208 0.125,-0.233 0.694,0.355 3.442,-0.14 3.88,0.404 2.148,-0.223 1.336,0.294 3.171,-0.172 0.088,-0.231 0.533,0.273 2.729,-0.306 0.376,0.221 0.068,-0.318 0.088,0.45 0.424,0.107 -0.148,-0.208 -0.531,0.226"
     id="path2792" />
</g>
<g
   id="g2798"
   transform="matrix(0.66647759,0,0,0.66647759,-132.74383,153.30889)">
  <path
     fill="none"
     stroke="#000000"
     stroke-width="4"
     stroke-linecap="round"
     stroke-linejoin="round"
     d="m -388.15,833.868 1.337,0.319 0.626,-0.281 1.6,0.129 0.505,0.281 1.107,-0.275 3.524,0.381 1.503,-0.278 1.878,0.463 2.577,-0.266 1.636,0.506 10.943,-0.36 1.291,0.46 12.296,-0.783 4.012,0.117 0.663,0.32 2.865,0.266 12.419,-0.304 3.569,0.46 5.121,0.048 1.506,-0.292 11.181,0.235 1.287,-0.242 1.556,0.235 3.681,-0.642 1.059,0.116"
     id="path2796" />
</g>
<g
   id="g2802"
   transform="matrix(0.66647759,0,0,0.66647759,-132.74383,153.30889)">
  <path
     fill="none"
     stroke="#000000"
     stroke-width="4"
     stroke-linecap="round"
     stroke-linejoin="round"
     d="m -284.095,833.645 -0.241,-0.01 0.106,0.255 -0.108,-0.183 0.344,4.52 -0.282,7.677 0.219,0.766 -0.148,13.951 0.626,16.86 -0.487,18.743 0.129,5.2 -0.285,3.554 0.189,12.058 -0.252,1 0.323,1.329 -0.368,12.034 0.311,1.681 -0.215,0.843 0.212,2.395 -0.043,0.238 -0.085,-0.497 -0.179,0.211"
     id="path2800" />
</g>
<g
   id="g2806"
   transform="matrix(0.66647759,0,0,0.66647759,-132.74383,153.30889)">
  <path
     fill="none"
     stroke="#000000"
     stroke-width="4"
     stroke-linecap="round"
     stroke-linejoin="round"
     d="m -192.845,834.195 h 0.063"
     id="path2804" />
</g>
<g
   id="g2810"
   transform="matrix(0.66647759,0,0,0.66647759,-132.74383,153.30889)">
  <path
     fill="none"
     stroke="#000000"
     stroke-width="4"
     stroke-linecap="round"
     stroke-linejoin="round"
     d="m -192.92,834.195 0.079,-0.238 0.821,1.314 0.695,0.319 2.804,3.003 0.546,0.228 1.887,2.291 0.065,-0.278 0.235,0.667 1.085,0.86 0.571,1.001 2.307,2.417"
     id="path2808" />
</g>
<g
   id="g2814"
   transform="matrix(0.66647759,0,0,0.66647759,-132.74383,153.30889)">
  <path
     fill="none"
     stroke="#000000"
     stroke-width="4"
     stroke-linecap="round"
     stroke-linejoin="round"
     d="m -193.768,835.291 -0.212,0.811 0.209,5.386 0.584,6.96 0.176,-0.214 0.195,0.886 -0.002,-0.547 v 0.332 l 0.325,-0.299 0.774,0.394 0.215,-0.224 0.074,0.308 0.077,-0.289 1.085,-0.462 0.673,0.188 0.082,0.309 0.614,-0.371 0.449,0.319 0.984,0.15 0.544,-0.288 0.066,0.305 0.616,0.054 0.734,-0.369 0.105,0.287 0.322,-0.499 0.904,0.472 0.82,-0.108 0.064,0.255 0.832,-0.404 0.525,0.299 0.008,-0.271 0.066,0.498 0.388,-0.081"
     id="path2812" />
</g>
<g
   id="g2818"
   transform="matrix(0.66647759,0,0,0.66647759,-132.74383,153.30889)">
  <path
     fill="none"
     stroke="#000000"
     stroke-width="4"
     stroke-linecap="round"
     stroke-linejoin="round"
     d="m -180.731,847.388 0.51,13 -0.004,14.747 -0.397,13.92 0.232,24.976 -0.234,5.899 0.287,2.881 -0.169,5.034 0.367,3.376 -0.008,4.926"
     id="path2816" />
</g>
<g
   id="g2822"
   transform="matrix(0.66647759,0,0,0.66647759,-132.74383,153.30889)">
  <path
     fill="none"
     stroke="#000000"
     stroke-width="4"
     stroke-linecap="round"
     stroke-linejoin="round"
     d="m -284.425,937.707 0.102,0.548 0.772,-0.628 1.055,0.28 1.613,-0.513 3.482,0.182 1.967,-0.493 0.812,0.46 1.488,-0.391 1.224,0.251 1.822,-0.147 0.095,0.297 1.419,-0.454 1.35,0.12 3.731,-0.438 2.031,0.431 2.081,-0.324 1.722,0.473 6.94,-0.066 5.739,-0.524 1.974,-0.532 0.792,0.302 4.394,-0.207 2.452,0.384 16.166,-0.555 2.748,0.297 3.593,-0.225 3.701,0.256 3.122,-0.503 3.662,0.231 1.56,-0.294 0.952,0.209 0.125,-0.233 0.694,0.354 3.442,-0.14 3.88,0.404 2.148,-0.223 1.336,0.294 3.171,-0.172 0.088,-0.231 0.533,0.273 2.73,-0.306 0.375,0.221 0.068,-0.318 0.088,0.45 0.424,0.107 -0.148,-0.208 -0.531,0.226"
     id="path2820" />
</g>
<g
   id="g2826"
   transform="matrix(0.66647759,0,0,0.66647759,-132.74383,153.30889)">
  <path
     fill="none"
     stroke="#000000"
     stroke-width="4"
     stroke-linecap="round"
     stroke-linejoin="round"
     d="m -284.08,833.334 1.337,0.319 0.626,-0.281 1.6,0.129 0.505,0.281 1.107,-0.275 3.524,0.381 1.503,-0.278 1.878,0.463 2.577,-0.266 1.637,0.506 10.942,-0.36 1.291,0.46 12.296,-0.783 4.012,0.117 0.663,0.32 2.865,0.267 12.419,-0.305 3.569,0.46 5.121,0.048 1.506,-0.292 11.181,0.235 1.287,-0.241 1.556,0.234 3.681,-0.642 1.059,0.117"
     id="path2824" />
</g>
<g
   id="g2830"
   transform="matrix(0.66647759,0,0,0.66647759,-132.74383,153.30889)">
  <path
     fill="none"
     stroke="#000000"
     stroke-width="4"
     stroke-linecap="round"
     stroke-linejoin="round"
     d="m -125.765,625.554 -0.241,-0.01 0.106,0.256 -0.109,-0.184 0.345,4.521 -0.282,7.676 0.219,0.766 -0.148,13.951 0.626,16.861 -0.488,18.743 0.13,5.199 -0.285,3.554 0.188,12.058 -0.251,1.001 0.323,1.329 -0.368,12.033 0.31,1.682 -0.214,0.842 0.212,2.396 -0.043,0.237 -0.085,-0.497 -0.18,0.211"
     id="path2828" />
</g>
<g
   id="g2834"
   transform="matrix(0.66647759,0,0,0.66647759,-132.74383,153.30889)">
  <path
     fill="none"
     stroke="#000000"
     stroke-width="4"
     stroke-linecap="round"
     stroke-linejoin="round"
     d="m -34.5152,626.104 h 0.0632"
     id="path2832" />
</g>
<g
   id="g2838"
   transform="matrix(0.66647759,0,0,0.66647759,-132.74383,153.30889)">
  <path
     fill="none"
     stroke="#000000"
     stroke-width="4"
     stroke-linecap="round"
     stroke-linejoin="round"
     d="m -34.5905,626.104 0.0793,-0.238 0.8211,1.314 0.695,0.319 2.804,3.003 0.546,0.228 1.8875,2.292 0.0647,-0.279 0.2348,0.667 1.0847,0.86 0.5717,1.001 2.3066,2.418"
     id="path2836" />
</g>
<g
   id="g2842"
   transform="matrix(0.66647759,0,0,0.66647759,-132.74383,153.30889)">
  <path
     fill="none"
     stroke="#000000"
     stroke-width="4"
     stroke-linecap="round"
     stroke-linejoin="round"
     d="m -35.4385,627.2 -0.2114,0.811 0.2088,5.387 0.5836,6.96 0.1766,-0.215 0.1949,0.887 -0.002,-0.548 -3e-4,0.332 0.3252,-0.299 0.7737,0.394 0.2149,-0.223 0.0748,0.307 0.0763,-0.288 1.0849,-0.463 0.6734,0.189 0.0823,0.308 0.6138,-0.37 0.4491,0.319 0.9837,0.15 0.5439,-0.289 0.0665,0.306 0.6157,0.054 0.7336,-0.369 0.1053,0.287 0.3218,-0.5 0.9045,0.473 0.82,-0.108 0.0633,0.254 0.832,-0.403 0.525,0.299 0.0089,-0.272 0.066,0.498 0.3872,-0.081"
     id="path2840" />
</g>
<g
   id="g2846"
   transform="matrix(0.66647759,0,0,0.66647759,-132.74383,153.30889)">
  <path
     fill="none"
     stroke="#000000"
     stroke-width="4"
     stroke-linecap="round"
     stroke-linejoin="round"
     d="m -22.4013,639.297 0.5104,13 -0.0046,14.747 -0.3963,13.92 0.2318,24.976 -0.2346,5.9 0.2878,2.88 -0.1694,5.035 0.3676,3.376 -0.0089,4.925"
     id="path2844" />
</g>
<g
   id="g2850"
   transform="matrix(0.66647759,0,0,0.66647759,-132.74383,153.30889)">
  <path
     fill="none"
     stroke="#000000"
     stroke-width="4"
     stroke-linecap="round"
     stroke-linejoin="round"
     d="m -126.095,729.617 0.102,0.548 0.772,-0.628 1.055,0.279 1.613,-0.512 3.482,0.181 1.967,-0.493 0.812,0.46 1.488,-0.39 1.224,0.25 1.822,-0.147 0.095,0.298 1.419,-0.454 1.35,0.12 3.73,-0.438 2.032,0.431 2.081,-0.324 1.7223,0.473 6.94,-0.066 5.7391,-0.525 1.9739,-0.531 0.7919,0.302 4.3936,-0.208 2.4525,0.385 16.1653,-0.555 2.7479,0.297 3.5934,-0.225 3.7005,0.256 3.1221,-0.504 3.6623,0.232 1.5598,-0.294 0.9525,0.208 0.1249,-0.233 0.6943,0.355 3.442,-0.14 3.8797,0.404 2.1475,-0.223 1.3362,0.294 3.1712,-0.173 0.0877,-0.231 0.5332,0.274 2.7296,-0.307 0.3757,0.222 0.0682,-0.318 0.088,0.45 0.4238,0.107 -0.1485,-0.208 -0.5305,0.226"
     id="path2848" />
</g>
<g
   id="g2854"
   transform="matrix(0.66647759,0,0,0.66647759,-132.74383,153.30889)">
  <path
     fill="none"
     stroke="#000000"
     stroke-width="4"
     stroke-linecap="round"
     stroke-linejoin="round"
     d="m -125.75,625.243 1.337,0.32 0.626,-0.281 1.6,0.129 0.505,0.28 1.107,-0.274 3.524,0.38 1.503,-0.277 1.877,0.462 2.578,-0.265 1.636,0.506 10.9432,-0.36 1.2905,0.46 12.2966,-0.783 4.012,0.117 0.6631,0.32 2.8646,0.266 12.4189,-0.305 3.5688,0.46 5.1209,0.048 1.5061,-0.291 11.1814,0.235 1.2865,-0.242 1.5563,0.234 3.6812,-0.641 1.0586,0.116"
     id="path2852" />
</g>
<g
   id="g2858"
   transform="matrix(0.66647759,0,0,0.66647759,-132.74383,153.30889)">
  <path
     fill="none"
     stroke="#000000"
     stroke-width="4"
     stroke-linecap="round"
     stroke-linejoin="round"
     d="m -125.967,639.077 0.511,13.001 -0.005,14.747 -0.396,13.92 0.232,24.976 -0.235,5.899 0.288,2.88 -0.169,5.035 0.367,3.376 -0.009,4.926"
     id="path2856" />
</g>
<g
   id="g2862"
   transform="matrix(0.66647759,0,0,0.66647759,-132.74383,153.30889)">
  <path
     fill="none"
     stroke="#000000"
     stroke-width="4"
     stroke-linecap="round"
     stroke-linejoin="round"
     d="m -22.035,624.971 -0.2416,-0.01 0.1063,0.256 -0.1084,-0.184 0.3447,4.521 -0.2822,7.676 0.2187,0.766 -0.1476,13.951 0.6259,16.861 -0.4877,18.743 0.1299,5.199 -0.2851,3.555 0.1883,12.057 -0.2519,1.001 0.3233,1.329 -0.3683,12.033 0.3109,1.682 -0.2146,0.842 0.2123,2.396 -0.0431,0.238 -0.0855,-0.498 -0.1791,0.212"
     id="path2860" />
</g>
<g
   id="g2866"
   transform="matrix(0.66647759,0,0,0.66647759,-132.74383,153.30889)">
  <path
     fill="none"
     stroke="#000000"
     stroke-width="4"
     stroke-linecap="round"
     stroke-linejoin="round"
     d="m 69.2145,625.521 h 0.0633"
     id="path2864" />
</g>
<g
   id="g2870"
   transform="matrix(0.66647759,0,0,0.66647759,-132.74383,153.30889)">
  <path
     fill="none"
     stroke="#000000"
     stroke-width="4"
     stroke-linecap="round"
     stroke-linejoin="round"
     d="m 69.1393,625.521 0.0793,-0.238 0.821,1.314 0.6951,0.32 2.804,3.002 0.546,0.228 1.8874,2.292 0.0648,-0.278 0.2348,0.666 1.0847,0.86 0.5717,1.002 2.3066,2.417"
     id="path2868" />
</g>
<g
   id="g2874"
   transform="matrix(0.66647759,0,0,0.66647759,-132.74383,153.30889)">
  <path
     fill="none"
     stroke="#000000"
     stroke-width="4"
     stroke-linecap="round"
     stroke-linejoin="round"
     d="m 68.2913,626.617 -0.2114,0.811 0.2088,5.387 0.5836,6.96 0.1766,-0.215 0.1949,0.887 -0.002,-0.548 -3e-4,0.333 0.3252,-0.3 0.7737,0.394 0.2148,-0.223 0.0749,0.307 0.0763,-0.288 1.0849,-0.463 0.6734,0.189 0.0823,0.308 0.6138,-0.37 0.4491,0.319 0.9837,0.15 0.5439,-0.288 0.0665,0.305 0.6157,0.054 0.7336,-0.369 0.1052,0.287 0.3219,-0.5 0.9045,0.473 0.82,-0.108 0.0633,0.254 0.832,-0.403 0.525,0.299 0.0089,-0.272 0.066,0.499 0.3872,-0.082"
     id="path2872" />
</g>
<g
   id="g2878"
   transform="matrix(0.66647759,0,0,0.66647759,-132.74383,153.30889)">
  <path
     fill="none"
     stroke="#000000"
     stroke-width="4"
     stroke-linecap="round"
     stroke-linejoin="round"
     d="m 81.3285,638.714 0.5104,13.001 -0.0046,14.746 -0.3963,13.921 0.2318,24.976 -0.2346,5.899 0.2878,2.88 -0.1694,5.035 0.3676,3.376 -0.0089,4.926"
     id="path2876" />
</g>
<g
   id="g2882"
   transform="matrix(0.66647759,0,0,0.66647759,-132.74383,153.30889)">
  <path
     fill="none"
     stroke="#000000"
     stroke-width="4"
     stroke-linecap="round"
     stroke-linejoin="round"
     d="m -22.3655,729.034 0.1022,0.548 0.7721,-0.628 1.0545,0.28 1.6132,-0.513 3.482,0.181 1.9673,-0.493 0.8115,0.46 1.4889,-0.39 1.22313,0.251 1.82263,-0.147 0.09512,0.297 1.4184,-0.454 1.34985,0.12 3.73084,-0.438 2.031399,0.431 2.081421,-0.324 1.72208,0.473 6.93993,-0.066 5.7392,-0.524 1.9739,-0.532 0.7919,0.302 4.3936,-0.207 2.4525,0.384 16.1653,-0.555 2.7479,0.297 3.5934,-0.225 3.7005,0.256 3.122,-0.504 3.6624,0.232 1.5598,-0.294 0.9525,0.208 0.1249,-0.233 0.6942,0.355 3.4421,-0.14 3.8797,0.404 2.1475,-0.223 1.3362,0.294 3.1712,-0.172 0.0877,-0.232 0.5332,0.274 2.7296,-0.307 0.3757,0.222 0.0682,-0.318 0.088,0.45 0.4238,0.107 -0.1485,-0.208 -0.5305,0.226"
     id="path2880" />
</g>
<g
   id="g2886"
   transform="matrix(0.66647759,0,0,0.66647759,-132.74383,153.30889)">
  <path
     fill="none"
     stroke="#000000"
     stroke-width="4"
     stroke-linecap="round"
     stroke-linejoin="round"
     d="m -22.0203,624.66 1.3366,0.32 0.6262,-0.281 1.6002,0.129 0.5049,0.28 1.107,-0.274 3.5244,0.38 1.5029,-0.277 1.87734,0.463 2.57788,-0.266 1.63608,0.506 10.94275,-0.36 1.29049,0.46 12.29666,-0.783 4.0119,0.117 0.6632,0.32 2.8645,0.266 12.419,-0.304 3.5688,0.459 5.1209,0.048 1.5061,-0.291 11.1814,0.235 1.2865,-0.242 1.5563,0.234 3.6812,-0.641 1.0585,0.116"
     id="path2884" />
</g>
<g
   id="g2890"
   transform="matrix(0.66647759,0,0,0.66647759,-132.74383,153.30889)">
  <path
     fill="none"
     stroke="#000000"
     stroke-width="4"
     stroke-linecap="round"
     stroke-linejoin="round"
     d="m 82.035,624.437 -0.2416,-0.01 0.1064,0.256 -0.1085,-0.184 0.3447,4.521 -0.2821,7.677 0.2186,0.765 -0.1476,13.952 0.6259,16.86 -0.4876,18.743 0.1298,5.199 -0.285,3.555 0.1883,12.058 -0.252,1 0.3234,1.329 -0.3683,12.034 0.3109,1.681 -0.2147,0.843 0.2123,2.395 -0.0431,0.238 -0.0854,-0.497 -0.1791,0.211"
     id="path2888" />
</g>
<g
   id="g2894"
   transform="matrix(0.66647759,0,0,0.66647759,-132.74383,153.30889)">
  <path
     fill="none"
     stroke="#000000"
     stroke-width="4"
     stroke-linecap="round"
     stroke-linejoin="round"
     d="m 173.285,624.987 h 0.063"
     id="path2892" />
</g>
<g
   id="g2898"
   transform="matrix(0.66647759,0,0,0.66647759,-132.74383,153.30889)">
  <path
     fill="none"
     stroke="#000000"
     stroke-width="4"
     stroke-linecap="round"
     stroke-linejoin="round"
     d="m 173.209,624.987 0.08,-0.238 0.821,1.315 0.695,0.319 2.804,3.003 0.546,0.228 1.887,2.291 0.065,-0.278 0.235,0.667 1.084,0.859 0.572,1.002 2.307,2.417"
     id="path2896" />
</g>
<g
   id="g2902"
   transform="matrix(0.66647759,0,0,0.66647759,-132.74383,153.30889)">
  <path
     fill="none"
     stroke="#000000"
     stroke-width="4"
     stroke-linecap="round"
     stroke-linejoin="round"
     d="m 172.361,626.083 -0.211,0.812 0.209,5.386 0.583,6.96 0.177,-0.214 0.195,0.886 -0.002,-0.548 v 0.333 l 0.325,-0.3 0.773,0.395 0.215,-0.224 0.075,0.307 0.076,-0.288 1.085,-0.463 0.674,0.189 0.082,0.308 0.614,-0.37 0.449,0.319 0.984,0.15 0.543,-0.288 0.067,0.305 0.616,0.054 0.733,-0.369 0.106,0.287 0.321,-0.499 0.905,0.472 0.82,-0.108 0.063,0.255 0.832,-0.404 0.525,0.299 0.009,-0.272 0.066,0.499 0.387,-0.081"
     id="path2900" />
</g>
<g
   id="g2906"
   transform="matrix(0.66647759,0,0,0.66647759,-132.74383,153.30889)">
  <path
     fill="none"
     stroke="#000000"
     stroke-width="4"
     stroke-linecap="round"
     stroke-linejoin="round"
     d="m 185.399,638.18 0.51,13.001 -0.005,14.747 -0.396,13.92 0.232,24.976 -0.235,5.899 0.288,2.88 -0.169,5.035 0.367,3.376 -0.009,4.926"
     id="path2904" />
</g>
<g
   id="g2910"
   transform="matrix(0.66647759,0,0,0.66647759,-132.74383,153.30889)">
  <path
     fill="none"
     stroke="#000000"
     stroke-width="4"
     stroke-linecap="round"
     stroke-linejoin="round"
     d="m 81.7046,728.5 0.1021,0.548 0.7721,-0.628 1.0545,0.28 1.6133,-0.513 3.482,0.181 1.9673,-0.493 0.8115,0.461 1.4888,-0.391 1.2232,0.251 1.8226,-0.147 0.0951,0.297 1.4184,-0.454 1.3499,0.12 3.7306,-0.438 2.032,0.431 2.081,-0.324 1.722,0.473 6.94,-0.066 5.739,-0.524 1.974,-0.532 0.792,0.302 4.394,-0.207 2.452,0.384 16.165,-0.555 2.748,0.297 3.594,-0.225 3.7,0.256 3.122,-0.504 3.663,0.232 1.559,-0.294 0.953,0.208 0.125,-0.233 0.694,0.355 3.442,-0.14 3.88,0.404 2.147,-0.223 1.337,0.294 3.171,-0.172 0.087,-0.231 0.534,0.273 2.729,-0.307 0.376,0.222 0.068,-0.318 0.088,0.45 0.424,0.107 -0.149,-0.208 -0.53,0.226"
     id="path2908" />
</g>
<g
   id="g2914"
   transform="matrix(0.66647759,0,0,0.66647759,-132.74383,153.30889)">
  <path
     fill="none"
     stroke="#000000"
     stroke-width="4"
     stroke-linecap="round"
     stroke-linejoin="round"
     d="m 82.0497,624.127 1.3367,0.319 0.6262,-0.281 1.6002,0.129 0.5049,0.281 1.1069,-0.275 3.5244,0.38 1.503,-0.277 1.8773,0.463 2.5779,-0.266 1.636,0.506 10.9428,-0.36 1.291,0.46 12.296,-0.783 4.012,0.117 0.663,0.32 2.865,0.266 12.419,-0.304 3.569,0.46 5.12,0.048 1.507,-0.292 11.181,0.235 1.286,-0.242 1.557,0.235 3.681,-0.642 1.058,0.116"
     id="path2912" />
</g>
<g
   id="g2918"
   transform="matrix(0.66647759,0,0,0.66647759,-132.74383,153.30889)">
  <path
     fill="none"
     stroke="#000000"
     stroke-width="4"
     stroke-linecap="round"
     stroke-linejoin="round"
     d="m -75.1947,833.518 -0.2416,-0.01 0.1064,0.255 -0.1086,-0.183 0.3448,4.521 -0.2821,7.676 0.2186,0.766 -0.1476,13.951 0.6259,16.86 -0.4876,18.743 0.1298,5.2 -0.2851,3.554 0.1883,12.058 -0.2519,1.001 0.3234,1.329 -0.3683,12.033 0.3108,1.682 -0.2146,0.842 0.2123,2.396 -0.0432,0.237 -0.0853,-0.497 -0.1792,0.211"
     id="path2916" />
</g>
<g
   id="g2922"
   transform="matrix(0.66647759,0,0,0.66647759,-132.74383,153.30889)">
  <path
     fill="none"
     stroke="#000000"
     stroke-width="4"
     stroke-linecap="round"
     stroke-linejoin="round"
     d="m 16.0548,834.068 h 0.0633"
     id="path2920" />
</g>
<g
   id="g2926"
   transform="matrix(0.66647759,0,0,0.66647759,-132.74383,153.30889)">
  <path
     fill="none"
     stroke="#000000"
     stroke-width="4"
     stroke-linecap="round"
     stroke-linejoin="round"
     d="m 15.9796,834.068 0.0793,-0.238 0.821,1.314 0.6951,0.319 2.804,3.003 0.546,0.228 1.8874,2.291 0.0648,-0.278 0.2348,0.667 1.0846,0.86 0.5718,1.001 2.3066,2.417"
     id="path2924" />
</g>
<g
   id="g2930"
   transform="matrix(0.66647759,0,0,0.66647759,-132.74383,153.30889)">
  <path
     fill="none"
     stroke="#000000"
     stroke-width="4"
     stroke-linecap="round"
     stroke-linejoin="round"
     d="m 15.1316,835.164 -0.2114,0.811 0.2088,5.386 0.5836,6.961 0.1766,-0.215 0.1948,0.887 -0.0019,-0.548 -3e-4,0.332 0.3251,-0.299 0.7738,0.394 0.2148,-0.224 0.0749,0.308 0.0763,-0.289 1.0849,-0.462 0.6734,0.189 0.0823,0.308 0.6138,-0.371 0.4491,0.319 0.9837,0.15 0.5438,-0.288 0.0665,0.305 0.6158,0.055 0.7336,-0.369 0.1052,0.286 0.3219,-0.499 0.9045,0.472 0.82,-0.108 0.0633,0.255 0.832,-0.403 0.525,0.298 0.0089,-0.271 0.066,0.498 0.3872,-0.081"
     id="path2928" />
</g>
<g
   id="g2934"
   transform="matrix(0.66647759,0,0,0.66647759,-132.74383,153.30889)">
  <path
     fill="none"
     stroke="#000000"
     stroke-width="4"
     stroke-linecap="round"
     stroke-linejoin="round"
     d="m 28.1688,847.261 0.5104,13 -0.0046,14.747 -0.3963,13.92 0.2318,24.976 -0.2347,5.899 0.2879,2.881 -0.1694,5.034 0.3675,3.376 -0.0088,4.926"
     id="path2932" />
</g>
<g
   id="g2938"
   transform="matrix(0.66647759,0,0,0.66647759,-132.74383,153.30889)">
  <path
     fill="none"
     stroke="#000000"
     stroke-width="4"
     stroke-linecap="round"
     stroke-linejoin="round"
     d="m -75.5252,937.581 0.1022,0.547 0.7721,-0.628 1.0545,0.28 1.6132,-0.513 3.4821,0.182 1.9672,-0.493 0.8115,0.46 1.4888,-0.391 1.2232,0.251 1.8227,-0.147 0.0951,0.297 1.4184,-0.453 1.3498,0.12 3.7309,-0.439 2.0314,0.431 2.0814,-0.324 1.7221,0.473 6.9399,-0.066 5.7392,-0.524 1.9739,-0.532 0.7919,0.302 4.3936,-0.207 2.4525,0.384 16.1653,-0.555 2.74788,0.298 3.59342,-0.225 3.700496,0.255 3.122044,-0.503 3.66235,0.232 1.55975,-0.295 0.95252,0.209 0.12494,-0.233 0.69424,0.354 3.44206,-0.14 3.8797,0.404 2.1475,-0.223 1.3362,0.294 3.1712,-0.172 0.0876,-0.231 0.5333,0.274 2.7296,-0.307 0.3757,0.221 0.0682,-0.318 0.0879,0.451 0.4238,0.106 -0.1484,-0.208 -0.5305,0.226"
     id="path2936" />
</g>
<g
   id="g2942"
   transform="matrix(0.66647759,0,0,0.66647759,-132.74383,153.30889)">
  <path
     fill="none"
     stroke="#000000"
     stroke-width="4"
     stroke-linecap="round"
     stroke-linejoin="round"
     d="m -75.18,833.207 1.3366,0.32 0.6263,-0.282 1.6001,0.13 0.5049,0.28 1.107,-0.275 3.5243,0.381 1.503,-0.278 1.8774,0.463 2.5778,-0.265 1.6361,0.505 10.9427,-0.359 1.2906,0.459 12.2966,-0.783 4.0119,0.117 0.6631,0.32 2.8646,0.267 12.419,-0.305 3.5688,0.46 5.12091,0.048 1.50607,-0.292 11.1814,0.235 1.2865,-0.241 1.55627,0.234 3.68125,-0.642 1.0585,0.117"
     id="path2940" />
</g>
<g
   id="g2946"
   transform="matrix(0.66647759,0,0,0.66647759,-132.74383,153.30889)">
  <path
     fill="none"
     stroke="#000000"
     stroke-width="4"
     stroke-linecap="round"
     stroke-linejoin="round"
     d="m -75.3965,847.041 0.5105,13.001 -0.0046,14.746 -0.3963,13.92 0.2318,24.977 -0.2347,5.899 0.2879,2.88 -0.1694,5.035 0.3675,3.376 -0.0089,4.925"
     id="path2944" />
</g>
<g
   id="g2950"
   transform="matrix(0.66647759,0,0,0.66647759,-132.74383,153.30889)">
  <path
     fill="none"
     stroke="#000000"
     stroke-width="4"
     stroke-linecap="round"
     stroke-linejoin="round"
     d="m 28.535,832.935 -0.2416,-0.01 0.1064,0.255 -0.1085,-0.183 0.3447,4.521 -0.2821,7.676 0.2187,0.766 -0.1477,13.951 0.626,16.861 -0.4877,18.743 0.1298,5.199 -0.285,3.554 0.1883,12.058 -0.252,1.001 0.3234,1.329 -0.3683,12.033 0.3109,1.682 -0.2147,0.842 0.2124,2.396 -0.0432,0.237 -0.0854,-0.497 -0.1791,0.211"
     id="path2948" />
</g>
<g
   id="g2954"
   transform="matrix(0.66647759,0,0,0.66647759,-132.74383,153.30889)">
  <path
     fill="none"
     stroke="#000000"
     stroke-width="4"
     stroke-linecap="round"
     stroke-linejoin="round"
     d="m 119.785,833.485 h 0.063"
     id="path2952" />
</g>
<g
   id="g2958"
   transform="matrix(0.66647759,0,0,0.66647759,-132.74383,153.30889)">
  <path
     fill="none"
     stroke="#000000"
     stroke-width="4"
     stroke-linecap="round"
     stroke-linejoin="round"
     d="m 119.709,833.485 0.08,-0.238 0.821,1.314 0.695,0.319 2.804,3.003 0.546,0.228 1.887,2.291 0.065,-0.278 0.235,0.667 1.084,0.86 0.572,1.001 2.307,2.418"
     id="path2956" />
</g>
<g
   id="g2962"
   transform="matrix(0.66647759,0,0,0.66647759,-132.74383,153.30889)">
  <path
     fill="none"
     stroke="#000000"
     stroke-width="4"
     stroke-linecap="round"
     stroke-linejoin="round"
     d="m 118.861,834.581 -0.211,0.811 0.209,5.386 0.583,6.961 0.177,-0.215 0.195,0.887 -0.002,-0.548 v 0.332 l 0.325,-0.299 0.773,0.394 0.215,-0.224 0.075,0.308 0.076,-0.288 1.085,-0.463 0.674,0.189 0.082,0.308 0.614,-0.37 0.449,0.318 0.984,0.151 0.544,-0.289 0.066,0.305 0.616,0.055 0.733,-0.369 0.106,0.287 0.321,-0.5 0.905,0.473 0.82,-0.109 0.063,0.255 0.832,-0.403 0.525,0.299 0.009,-0.272 0.066,0.498 0.387,-0.081"
     id="path2960" />
</g>
<g
   id="g2966"
   transform="matrix(0.66647759,0,0,0.66647759,-132.74383,153.30889)">
  <path
     fill="none"
     stroke="#000000"
     stroke-width="4"
     stroke-linecap="round"
     stroke-linejoin="round"
     d="m 131.899,846.678 0.51,13 -0.005,14.747 -0.396,13.92 0.232,24.976 -0.235,5.9 0.288,2.88 -0.169,5.034 0.367,3.376 -0.009,4.926"
     id="path2964" />
</g>
<g
   id="g2970"
   transform="matrix(0.66647759,0,0,0.66647759,-132.74383,153.30889)">
  <path
     fill="none"
     stroke="#000000"
     stroke-width="4"
     stroke-linecap="round"
     stroke-linejoin="round"
     d="m 28.2046,936.998 0.1022,0.547 0.772,-0.627 1.0546,0.279 1.6132,-0.513 3.482,0.182 1.9673,-0.493 0.8115,0.46 1.4888,-0.391 1.2232,0.251 1.8226,-0.147 0.0952,0.298 1.4184,-0.454 1.3498,0.12 3.7308,-0.438 2.0314,0.43 2.0815,-0.324 1.722,0.473 6.94,-0.065 5.7392,-0.525 1.9739,-0.532 0.7919,0.302 4.3936,-0.207 2.4525,0.385 16.1653,-0.555 2.7479,0.297 3.5934,-0.225 3.7002,0.256 3.122,-0.504 3.663,0.232 1.559,-0.295 0.953,0.209 0.125,-0.233 0.694,0.354 3.442,-0.14 3.88,0.404 2.147,-0.223 1.337,0.294 3.171,-0.172 0.087,-0.231 0.534,0.274 2.729,-0.307 0.376,0.221 0.068,-0.317 0.088,0.45 0.424,0.106 -0.149,-0.207 -0.53,0.225"
     id="path2968" />
</g>
<g
   id="g2974"
   transform="matrix(0.66647759,0,0,0.66647759,-132.74383,153.30889)">
  <path
     fill="none"
     stroke="#000000"
     stroke-width="4"
     stroke-linecap="round"
     stroke-linejoin="round"
     d="m 28.5498,832.624 1.3366,0.32 0.6262,-0.282 1.6002,0.13 0.5049,0.28 1.107,-0.274 3.5243,0.38 1.503,-0.278 1.8773,0.463 2.5779,-0.265 1.6361,0.506 10.9427,-0.36 1.2905,0.459 12.2967,-0.783 4.0119,0.118 0.6631,0.319 2.8646,0.267 12.4189,-0.305 3.5689,0.46 5.1209,0.048 1.5061,-0.292 11.1814,0.235 1.286,-0.241 1.557,0.234 3.681,-0.642 1.059,0.117"
     id="path2972" />
</g>
<g
   id="g2978"
   transform="matrix(0.66647759,0,0,0.66647759,-132.74383,153.30889)">
  <path
     fill="none"
     stroke="#000000"
     stroke-width="4"
     stroke-linecap="round"
     stroke-linejoin="round"
     d="m 132.605,832.401 -0.241,-0.01 0.106,0.256 -0.109,-0.184 0.345,4.521 -0.282,7.676 0.219,0.766 -0.148,13.951 0.626,16.861 -0.488,18.743 0.13,5.199 -0.285,3.554 0.188,12.058 -0.252,1.001 0.324,1.329 -0.369,12.033 0.311,1.682 -0.214,0.842 0.212,2.396 -0.043,0.237 -0.086,-0.497 -0.179,0.211"
     id="path2976" />
</g>
<g
   id="g2982"
   transform="matrix(0.66647759,0,0,0.66647759,-132.74383,153.30889)">
  <path
     fill="none"
     stroke="#000000"
     stroke-width="4"
     stroke-linecap="round"
     stroke-linejoin="round"
     d="m 223.855,832.951 h 0.063"
     id="path2980" />
</g>
<g
   id="g2986"
   transform="matrix(0.66647759,0,0,0.66647759,-132.74383,153.30889)">
  <path
     fill="none"
     stroke="#000000"
     stroke-width="4"
     stroke-linecap="round"
     stroke-linejoin="round"
     d="m 223.779,832.951 0.08,-0.238 0.821,1.314 0.695,0.319 2.804,3.003 0.546,0.228 1.887,2.292 0.065,-0.279 0.235,0.667 1.084,0.86 0.572,1.001 2.307,2.418"
     id="path2984" />
</g>
<g
   id="g2990"
   transform="matrix(0.66647759,0,0,0.66647759,-132.74383,153.30889)">
  <path
     fill="none"
     stroke="#000000"
     stroke-width="4"
     stroke-linecap="round"
     stroke-linejoin="round"
     d="m 222.931,834.047 -0.211,0.811 0.209,5.386 0.583,6.961 0.177,-0.215 0.195,0.887 -0.002,-0.548 v 0.332 l 0.325,-0.299 0.774,0.394 0.214,-0.223 0.075,0.307 0.077,-0.288 1.084,-0.463 0.674,0.189 0.082,0.308 0.614,-0.37 0.449,0.319 0.984,0.15 0.544,-0.289 0.066,0.306 0.616,0.054 0.733,-0.369 0.106,0.287 0.322,-0.5 0.904,0.473 0.82,-0.108 0.063,0.254 0.832,-0.403 0.525,0.299 0.009,-0.272 0.066,0.498 0.387,-0.081"
     id="path2988" />
</g>
<g
   id="g2994"
   transform="matrix(0.66647759,0,0,0.66647759,-132.74383,153.30889)">
  <path
     fill="none"
     stroke="#000000"
     stroke-width="4"
     stroke-linecap="round"
     stroke-linejoin="round"
     d="m 235.969,846.144 0.51,13 -0.005,14.747 -0.396,13.92 0.232,24.976 -0.235,5.9 0.288,2.88 -0.169,5.035 0.367,3.375 -0.009,4.926"
     id="path2992" />
</g>
<g
   id="g2998"
   transform="matrix(0.66647759,0,0,0.66647759,-132.74383,153.30889)">
  <path
     fill="none"
     stroke="#000000"
     stroke-width="4"
     stroke-linecap="round"
     stroke-linejoin="round"
     d="m 132.275,936.464 0.102,0.548 0.772,-0.628 1.054,0.279 1.614,-0.513 3.482,0.182 1.967,-0.493 0.811,0.46 1.489,-0.391 1.223,0.251 1.823,-0.147 0.095,0.298 1.419,-0.454 1.349,0.12 3.731,-0.438 2.032,0.43 2.081,-0.324 1.722,0.473 6.94,-0.065 5.739,-0.525 1.974,-0.531 0.792,0.301 4.394,-0.207 2.452,0.385 16.166,-0.555 2.747,0.297 3.594,-0.225 3.7,0.256 3.122,-0.504 3.663,0.232 1.559,-0.294 0.953,0.208 0.125,-0.233 0.694,0.355 3.442,-0.141 3.88,0.404 2.147,-0.222 1.337,0.293 3.171,-0.172 0.087,-0.231 0.534,0.274 2.729,-0.307 0.376,0.222 0.068,-0.318 0.088,0.45 0.424,0.107 -0.148,-0.208 -0.531,0.225"
     id="path2996" />
</g>
<g
   id="g3002"
   transform="matrix(0.66647759,0,0,0.66647759,-132.74383,153.30889)">
  <path
     fill="none"
     stroke="#000000"
     stroke-width="4"
     stroke-linecap="round"
     stroke-linejoin="round"
     d="m 132.62,832.09 1.336,0.32 0.627,-0.282 1.6,0.13 0.505,0.28 1.107,-0.274 3.524,0.38 1.503,-0.277 1.877,0.462 2.578,-0.265 1.636,0.506 10.943,-0.36 1.291,0.459 12.296,-0.783 4.012,0.118 0.663,0.32 2.865,0.266 12.419,-0.305 3.569,0.46 5.121,0.048 1.506,-0.291 11.181,0.235 1.287,-0.242 1.556,0.234 3.681,-0.641 1.059,0.116"
     id="path3000" />
</g>
<g
   id="g3006"
   transform="matrix(0.66647759,0,0,0.66647759,-132.74383,153.30889)">
  <path
     fill="none"
     stroke="#000000"
     stroke-width="4"
     stroke-linecap="round"
     stroke-linejoin="round"
     d="m 23.679,655.857 -0.315,-0.409 0.2596,-1.79 1.5323,-1.236 0.9357,0.061 1.0792,0.711 0.527,0.802 0.7573,3.286 -0.0101,4.032 -0.7613,5.927 -1.4183,5.902 -1.3138,3.442 0.8152,-0.598 1.305,0.658 0.8809,2.571 0.4292,5.143 -0.2048,8.696 -1.1948,6.284 -1.2507,2.51 -0.8038,0.745 -0.1648,-0.14 -0.3301,0.506 -0.0357,-0.217 -0.524,0.077 -1.7429,-1.065 -1.5813,-2.545"
     id="path3004" />
</g>
<g
   id="g3010"
   transform="matrix(0.66647759,0,0,0.66647759,-132.74383,153.30889)">
  <path
     fill="none"
     stroke="#000000"
     stroke-width="4"
     stroke-linecap="round"
     stroke-linejoin="round"
     d="m 130.971,648.769 -0.226,3.584 0.453,10.863 -0.382,8.863 0.001,6.843 0.268,2.174 -0.27,2.3 0.297,4.204 -0.104,10.39"
     id="path3008" />
</g>
<g
   id="g3014"
   transform="matrix(0.66647759,0,0,0.66647759,-132.74383,153.30889)">
  <path
     fill="none"
     stroke="#000000"
     stroke-width="4"
     stroke-linecap="round"
     stroke-linejoin="round"
     d="m 130.23,649.025 0.341,0.044 -1.824,6.877 -1.47,8.625 -4.143,14.023 0.099,-0.332 1.246,-0.375 1.034,0.281 1.047,-0.338 0.325,0.224 2.792,-0.808 4.511,0.4"
     id="path3012" />
</g>
<g
   id="g3018"
   transform="matrix(0.66647759,0,0,0.66647759,-132.74383,153.30889)">
  <path
     fill="none"
     stroke="#000000"
     stroke-width="4"
     stroke-linecap="round"
     stroke-linejoin="round"
     d="m -281.758,653.751 -0.785,-1.055 -0.693,-0.374 -1.61,-0.114 -0.979,0.691 -1.074,1.904 -0.836,7.136 -0.169,4.856 0.268,1.867 -0.365,2.481 0.032,6.018 -0.389,3.048 0.233,3.403 -0.272,1.96 -0.057,12.404 0.995,3.832 0.409,0.053 0.18,0.583 1.127,1.004 1.159,-0.489 0.254,0.196 0.747,-0.655 0.182,0.156 1.499,-2.112 0.773,-4.904 0.275,-6.341 0.426,-2.73 -0.476,-6.11 0.739,-6.316 0.595,-11.962 -0.802,-7.758"
     id="path3016" />
</g>
<g
   id="g3022"
   transform="matrix(0.66647759,0,0,0.66647759,-132.74383,153.30889)">
  <path
     fill="none"
     stroke="#000000"
     stroke-width="4"
     stroke-linecap="round"
     stroke-linejoin="round"
     d="m -22.3517,861.536 -0.7853,-1.054 -0.6928,-0.374 -1.6097,-0.115 -0.9796,0.691 -1.0737,1.904 -0.8355,7.136 -0.1693,4.856 0.2679,1.867 -0.3653,2.481 0.0322,6.018 -0.3888,3.049 0.2331,3.403 -0.2718,1.96 -0.0573,12.403 0.9948,3.832 0.4088,0.054 0.1808,0.582 1.1262,1.004 1.1593,-0.489 0.2541,0.196 0.7468,-0.655 0.1819,0.157 1.4997,-2.112 0.7721,-4.904 0.2751,-6.341 0.4266,-2.731 -0.4766,-6.11 0.7391,-6.316 0.5949,-11.961 -0.8013,-7.758"
     id="path3020" />
</g>
<g
   id="g3026"
   transform="matrix(0.66647759,0,0,0.66647759,-132.74383,153.30889)">
  <path
     fill="none"
     stroke="#000000"
     stroke-width="4"
     stroke-linecap="round"
     stroke-linejoin="round"
     d="m -334.111,864.923 -0.785,-1.054 -0.693,-0.374 -1.61,-0.115 -0.979,0.692 -1.074,1.903 -0.835,7.137 -0.17,4.855 0.268,1.868 -0.365,2.48 0.032,6.018 -0.389,3.049 0.233,3.403 -0.271,1.96 -0.058,12.403 0.995,3.832 0.409,0.054 0.181,0.582 1.126,1.005 1.159,-0.489 0.254,0.196 0.747,-0.656 0.182,0.157 1.5,-2.112 0.772,-4.904 0.275,-6.341 0.426,-2.73 -0.476,-6.11 0.739,-6.317 0.595,-11.961 -0.801,-7.758"
     id="path3024" />
</g>
<g
   id="g3030"
   transform="matrix(0.66647759,0,0,0.66647759,-132.74383,153.30889)">
  <path
     fill="none"
     stroke="#000000"
     stroke-width="4"
     stroke-linecap="round"
     stroke-linejoin="round"
     d="m -182.189,658.246 -0.393,0.121 0.423,-0.158 0.636,-1.209 1.351,-4.356 -0.549,18.627 0.484,27.367 0.313,2.387 -0.202,0.685 -0.22,-1.596"
     id="path3028" />
</g>
<g
   id="g3034"
   transform="matrix(0.66647759,0,0,0.66647759,-132.74383,153.30889)">
  <path
     fill="none"
     stroke="#000000"
     stroke-width="4"
     stroke-linecap="round"
     stroke-linejoin="round"
     d="m -232.936,864.93 -0.393,0.121 0.423,-0.158 0.636,-1.209 1.351,-4.356 -0.549,18.627 0.484,27.368 0.313,2.386 -0.202,0.685 -0.22,-1.596"
     id="path3032" />
</g>
<g
   id="g3038"
   transform="matrix(0.66647759,0,0,0.66647759,-132.74383,153.30889)">
  <path
     fill="none"
     stroke="#000000"
     stroke-width="4"
     stroke-linecap="round"
     stroke-linejoin="round"
     d="m 78.4511,866.58 -0.3931,0.121 0.4226,-0.158 0.6366,-1.209 1.3511,-4.356 -0.5493,18.627 0.4839,27.368 0.3128,2.386 -0.2014,0.685 -0.2205,-1.596"
     id="path3036" />
</g>
<g
   id="g3042"
   transform="matrix(0.66647759,0,0,0.66647759,-132.74383,153.30889)">
  <path
     fill="none"
     stroke="#000000"
     stroke-width="4"
     stroke-linecap="round"
     stroke-linejoin="round"
     d="m -80.7021,654.052 -0.2453,-0.362 0.1306,-0.879 0.8298,-1.585 1.1321,-0.906 2.183,0.098 0.5343,0.199 1.3019,1.854 0.68,2.869 -0.4464,4.451 -3.8743,10.056 -0.8352,3.552 -1.236,9.511 0.1089,16.58 0.1947,0.191 0.6096,-0.297 0.7555,0.31 1.3119,-0.575 0.432,0.382 0.7774,-0.223 0.3204,0.296 0.6743,-0.667 -0.1043,0.588"
     id="path3040" />
</g>
<g
   id="g3046"
   transform="matrix(0.66647759,0,0,0.66647759,-132.74383,153.30889)">
  <path
     fill="none"
     stroke="#000000"
     stroke-width="4"
     stroke-linecap="round"
     stroke-linejoin="round"
     d="m 178.849,863.045 -0.245,-0.362 0.131,-0.879 0.83,-1.585 1.132,-0.906 2.183,0.099 0.534,0.198 1.302,1.854 0.68,2.869 -0.447,4.451 -3.874,10.056 -0.835,3.552 -1.236,9.511 0.109,16.58 0.195,0.191 0.609,-0.297 0.756,0.31 1.311,-0.575 0.433,0.382 0.777,-0.223 0.32,0.297 0.675,-0.668 -0.105,0.588"
     id="path3044" />
</g>
<g
   id="g3050"
   transform="matrix(0.66647759,0,0,0.66647759,-132.74383,153.30889)">
  <path
     fill="none"
     stroke="#000000"
     stroke-width="4"
     stroke-linecap="round"
     stroke-linejoin="round"
     d="m -338.776,737.134 -0.408,0.181 -2.796,6.297 -1.109,1.596 0.594,-0.287"
     id="path3048" />
</g>
<g
   id="g3054"
   transform="matrix(0.66647759,0,0,0.66647759,-132.74383,153.30889)">
  <path
     fill="none"
     stroke="#000000"
     stroke-width="4"
     stroke-linecap="round"
     stroke-linejoin="round"
     d="m -348.035,755.995 -0.799,0.555 -0.443,1.243 -1.575,2.433 -2.17,4.977 0.449,-0.521"
     id="path3052" />
</g>
<g
   id="g3058"
   transform="matrix(0.66647759,0,0,0.66647759,-132.74383,153.30889)">
  <path
     fill="none"
     stroke="#000000"
     stroke-width="4"
     stroke-linecap="round"
     stroke-linejoin="round"
     d="m -357.976,773.198 -0.309,0.234 -0.042,-0.236 -0.141,0.879 -1.174,1.436 -0.688,1.676 -1.208,1.684 -1.215,2.525 0.363,-0.981"
     id="path3056" />
</g>
<g
   id="g3062"
   transform="matrix(0.66647759,0,0,0.66647759,-132.74383,153.30889)">
  <path
     fill="none"
     stroke="#000000"
     stroke-width="4"
     stroke-linecap="round"
     stroke-linejoin="round"
     d="m -366.172,791.941 -0.246,-0.04 -0.943,1.33 -1.153,2.644 -1.985,3.329 0.504,-0.289"
     id="path3060" />
</g>
<g
   id="g3066"
   transform="matrix(0.66647759,0,0,0.66647759,-132.74383,153.30889)">
  <path
     fill="none"
     stroke="#000000"
     stroke-width="4"
     stroke-linecap="round"
     stroke-linejoin="round"
     d="m -376.214,812.965 -0.289,-0.496 -0.757,1.249 -3.228,7.05"
     id="path3064" />
</g>
<g
   id="g3070"
   transform="matrix(0.66647759,0,0,0.66647759,-132.74383,153.30889)">
  <path
     fill="none"
     stroke="#000000"
     stroke-width="4"
     stroke-linecap="round"
     stroke-linejoin="round"
     d="m -129.487,736.452 -0.408,0.181 -2.796,6.297 -1.109,1.596 0.594,-0.287"
     id="path3068" />
</g>
<g
   id="g3074"
   transform="matrix(0.66647759,0,0,0.66647759,-132.74383,153.30889)">
  <path
     fill="none"
     stroke="#000000"
     stroke-width="4"
     stroke-linecap="round"
     stroke-linejoin="round"
     d="m -138.746,755.313 -0.799,0.555 -0.443,1.243 -1.575,2.433 -2.17,4.977 0.449,-0.521"
     id="path3072" />
</g>
<g
   id="g3078"
   transform="matrix(0.66647759,0,0,0.66647759,-132.74383,153.30889)">
  <path
     fill="none"
     stroke="#000000"
     stroke-width="4"
     stroke-linecap="round"
     stroke-linejoin="round"
     d="m -148.687,772.516 -0.309,0.234 -0.042,-0.236 -0.141,0.879 -1.174,1.436 -0.688,1.676 -1.208,1.684 -1.215,2.525 0.363,-0.981"
     id="path3076" />
</g>
<g
   id="g3082"
   transform="matrix(0.66647759,0,0,0.66647759,-132.74383,153.30889)">
  <path
     fill="none"
     stroke="#000000"
     stroke-width="4"
     stroke-linecap="round"
     stroke-linejoin="round"
     d="m -156.883,791.259 -0.246,-0.04 -0.943,1.33 -1.153,2.644 -1.985,3.329 0.504,-0.289"
     id="path3080" />
</g>
<g
   id="g3086"
   transform="matrix(0.66647759,0,0,0.66647759,-132.74383,153.30889)">
  <path
     fill="none"
     stroke="#000000"
     stroke-width="4"
     stroke-linecap="round"
     stroke-linejoin="round"
     d="m -166.925,812.283 -0.289,-0.495 -0.757,1.248 -3.228,7.051"
     id="path3084" />
</g>
<g
   id="g3090"
   transform="matrix(0.66647759,0,0,0.66647759,-132.74383,153.30889)">
  <path
     fill="none"
     stroke="#000000"
     stroke-width="4"
     stroke-linecap="round"
     stroke-linejoin="round"
     d="m -176.083,828.902 -1.527,2.583 -0.274,1.053 0.417,-0.726"
     id="path3088" />
</g>
<g
   id="g3094"
   transform="matrix(0.66647759,0,0,0.66647759,-132.74383,153.30889)">
  <path
     fill="none"
     stroke="#000000"
     stroke-width="4"
     stroke-linecap="round"
     stroke-linejoin="round"
     d="m -122.876,735.8 0.236,1.126 0.415,0.174 1.01,2.05 0.901,2.92"
     id="path3092" />
</g>
<g
   id="g3098"
   transform="matrix(0.66647759,0,0,0.66647759,-132.74383,153.30889)">
  <path
     fill="none"
     stroke="#000000"
     stroke-width="4"
     stroke-linecap="round"
     stroke-linejoin="round"
     d="m -115.279,750.793 0.019,0.386 0.136,-0.204 1.022,1.309 0.706,2.497 0.784,1.374"
     id="path3096" />
</g>
<g
   id="g3102"
   transform="matrix(0.66647759,0,0,0.66647759,-132.74383,153.30889)">
  <path
     fill="none"
     stroke="#000000"
     stroke-width="4"
     stroke-linecap="round"
     stroke-linejoin="round"
     d="m -107.522,766.474 -0.153,0.292 0.142,-0.166 1.004,2.161 1.018,2.764"
     id="path3100" />
</g>
<g
   id="g3106"
   transform="matrix(0.66647759,0,0,0.66647759,-132.74383,153.30889)">
  <path
     fill="none"
     stroke="#000000"
     stroke-width="4"
     stroke-linecap="round"
     stroke-linejoin="round"
     d="m -100.234,781.017 -0.13,0.263 2.6465,5.597 0.3747,0.582 -0.1346,-0.617"
     id="path3104" />
</g>
<g
   id="g3110"
   transform="matrix(0.66647759,0,0,0.66647759,-132.74383,153.30889)">
  <path
     fill="none"
     stroke="#000000"
     stroke-width="4"
     stroke-linecap="round"
     stroke-linejoin="round"
     d="m -92.4803,797.461 0.1331,-0.243 1.4045,2.624 1.3476,3.556 -0.1199,-0.769"
     id="path3108" />
</g>
<g
   id="g3114"
   transform="matrix(0.66647759,0,0,0.66647759,-132.74383,153.30889)">
  <path
     fill="none"
     stroke="#000000"
     stroke-width="4"
     stroke-linecap="round"
     stroke-linejoin="round"
     d="m -83.8682,814.836 0.8089,0.984 2.0053,5.218 0.6899,1.501 0.1004,-0.178 0.1166,0.442 0.2099,-0.11 -0.3802,-0.375"
     id="path3112" />
</g>
<g
   id="g3118"
   transform="matrix(0.66647759,0,0,0.66647759,-132.74383,153.30889)">
  <path
     fill="none"
     stroke="#000000"
     stroke-width="4"
     stroke-linecap="round"
     stroke-linejoin="round"
     d="m 189.843,735.408 0.236,1.126 0.415,0.174 1.01,2.05 0.901,2.92"
     id="path3116" />
</g>
<g
   id="g3122"
   transform="matrix(0.66647759,0,0,0.66647759,-132.74383,153.30889)">
  <path
     fill="none"
     stroke="#000000"
     stroke-width="4"
     stroke-linecap="round"
     stroke-linejoin="round"
     d="m 197.44,750.401 0.019,0.386 0.136,-0.204 1.022,1.309 0.706,2.497 0.784,1.374"
     id="path3120" />
</g>
<g
   id="g3126"
   transform="matrix(0.66647759,0,0,0.66647759,-132.74383,153.30889)">
  <path
     fill="none"
     stroke="#000000"
     stroke-width="4"
     stroke-linecap="round"
     stroke-linejoin="round"
     d="m 205.197,766.082 -0.153,0.292 0.142,-0.166 1.004,2.161 1.018,2.764"
     id="path3124" />
</g>
<g
   id="g3130"
   transform="matrix(0.66647759,0,0,0.66647759,-132.74383,153.30889)">
  <path
     fill="none"
     stroke="#000000"
     stroke-width="4"
     stroke-linecap="round"
     stroke-linejoin="round"
     d="m 212.485,780.625 -0.13,0.263 2.646,5.597 0.375,0.582 -0.135,-0.617"
     id="path3128" />
</g>
<g
   id="g3134"
   transform="matrix(0.66647759,0,0,0.66647759,-132.74383,153.30889)">
  <path
     fill="none"
     stroke="#000000"
     stroke-width="4"
     stroke-linecap="round"
     stroke-linejoin="round"
     d="m 220.239,797.069 0.133,-0.243 1.404,2.624 1.348,3.556 -0.12,-0.769"
     id="path3132" />
</g>
<g
   id="g3138"
   transform="matrix(0.66647759,0,0,0.66647759,-132.74383,153.30889)">
  <path
     fill="none"
     stroke="#000000"
     stroke-width="4"
     stroke-linecap="round"
     stroke-linejoin="round"
     d="m 228.851,814.444 0.809,0.984 2.005,5.218 0.69,1.501 0.1,-0.178 0.117,0.442 0.21,-0.11 -0.381,-0.375"
     id="path3136" />
</g>
<g
   id="g3142"
   transform="matrix(0.66647759,0,0,0.66647759,-132.74383,153.30889)">
  <path
     fill="none"
     stroke="#000000"
     stroke-width="4"
     stroke-linecap="round"
     stroke-linejoin="round"
     d="m -21.8358,964.064 0.2918,-0.026 h -0.2202 l 0.1098,-0.302 0.1094,0.188 -0.3285,4.482 0.3548,5.635 -0.2453,5.79 0.6449,8.412 -0.1707,5.775 0.3108,3.104 -0.3389,7.678 0.2872,1.94 -0.4338,5.34"
     id="path3140" />
</g>
<g
   id="g3146"
   transform="matrix(0.66647759,0,0,0.66647759,-132.74383,153.30889)">
  <path
     fill="none"
     stroke="#000000"
     stroke-width="4"
     stroke-linecap="round"
     stroke-linejoin="round"
     d="m -20.702,963.953 0.2178,0.014 -0.0988,-0.457 0.002,0.219 0.4042,-0.06 0.6415,-0.481 0.198,0.271 1.1895,0.077 1.373,1.833 -0.0663,0.449 0.1684,-0.199 1.23,1.741 0.4522,5.62 -0.6606,8.126 -1.7192,6.921 -0.2709,0.629 -0.601,0.09 -0.1815,0.478 -0.0886,-0.252 -0.2245,0.261 0.2986,-0.025 -0.1788,0.437 0.3002,0.206 0.8573,4.505 0.5746,0.923 0.0699,2.503 1.7182,6.718 0.5743,3.03 -0.228,0.29 0.7287,2.16 0.0682,2.09 0.0635,-0.77"
     id="path3144" />
</g>
<g
   id="g3150"
   transform="matrix(0.66647759,0,0,0.66647759,-132.74383,153.30889)">
  <path
     fill="none"
     stroke="#000000"
     stroke-width="4"
     stroke-linecap="round"
     stroke-linejoin="round"
     d="m -7.93953,963.512 0.23554,1.627 -0.35629,3.665 0.20755,10.94 -0.39054,7.041 0.28989,3.448 -0.34464,4.731 0.13468,6.176 -0.60614,4.07 -0.22281,6.77 0.16034,-0.29 0.10922,0.18 -0.09015,0.5 0.00754,-0.63 0.1839,0.3 1.16266,-0.51 0.13208,0.27 1.12732,-0.84 0.71548,0.2 0.08612,-0.24 0.13706,0.26 0.0592,-0.24 0.11261,0.32 0.3205,-0.51 0.47644,0.78 0.27539,-0.66 -0.27469,0.32"
     id="path3148" />
</g>
<g
   id="g3154"
   transform="matrix(0.66647759,0,0,0.66647759,-132.74383,153.30889)">
  <path
     fill="none"
     stroke="#000000"
     stroke-width="4"
     stroke-linecap="round"
     stroke-linejoin="round"
     d="m -6.57603,964.588 -0.17508,0.231 -0.02579,-0.326 1.81989,0.703 1.93197,-0.667 0.23233,0.578 0.65281,-0.399 -0.10157,0.316"
     id="path3152" />
</g>
<g
   id="g3158"
   transform="matrix(0.66647759,0,0,0.66647759,-132.74383,153.30889)">
  <path
     fill="none"
     stroke="#000000"
     stroke-width="4"
     stroke-linecap="round"
     stroke-linejoin="round"
     d="m -7.61564,988.545 0.17654,0.567 0.09085,-0.357 1.6546,-0.022 0.52076,-0.425 0.61169,0.041 0.16147,0.4 -0.02539,-0.282"
     id="path3156" />
</g>
<g
   id="g3162"
   transform="matrix(0.66647759,0,0,0.66647759,-132.74383,153.30889)">
  <path
     fill="none"
     stroke="#000000"
     stroke-width="4"
     stroke-linecap="round"
     stroke-linejoin="round"
     d="m 10.4066,966.16 -0.2411,0.031 -0.20329,-1.209 -1.20377,-1.251 -0.15143,0.303 -0.09018,-0.256 -0.68448,0.353 -1.2647,-0.259 -0.78791,0.659 -0.48001,1.011 -0.7616,4.631 -0.24743,-0.035 -0.86655,7.034 0.10459,4.045 0.56695,1.023 0.37668,0.063 0.57117,2.436 0.14776,-0.153 0.6095,0.958 0.23059,-0.109 0.02383,0.331 0.16773,-0.341 0.20572,1.71 0.23157,0.719 0.1734,-0.138 0.39547,0.641 1.28989,4.971 -0.01498,3.411 0.3092,0.621 0.31335,4.82 -0.7904,6.37 -0.38434,1.52 -0.63943,1.05 -1.05689,0.78 0.00159,-0.31 -0.20453,0.37 -0.02029,-0.32 -0.46204,0.63 -1.10162,-0.03 -0.04606,0.3 -0.13253,-0.38 -0.12714,0.35 0.02744,-0.29 -0.3277,-0.16 -0.19864,0.26 -0.21182,-0.33 -0.18921,0.27 -0.89444,-2.57 0.00973,0.56"
     id="path3160" />
</g>
<g
   id="g3166"
   transform="matrix(0.66647759,0,0,0.66647759,-132.74383,153.30889)">
  <path
     fill="none"
     stroke="#000000"
     stroke-width="4"
     stroke-linecap="round"
     stroke-linejoin="round"
     d="m 20.5837,964.367 -0.3216,0.189 0.1484,-0.159 0.0053,0.33 0.0964,-0.299 -0.3185,2.743 -0.0521,10.869 0.0142,2.08 0.1058,0.309 0.067,-0.425 0.1492,0.664 -0.2693,3.198 0.4873,11.681 -0.3341,10.373 0.2667,1.04 -0.1829,2.03 0.2256,2.64"
     id="path3164" />
</g>
<g
   id="g3170"
   transform="matrix(0.66647759,0,0,0.66647759,-132.74383,153.30889)">
  <path
     fill="none"
     stroke="#000000"
     stroke-width="4"
     stroke-linecap="round"
     stroke-linejoin="round"
     d="m 16.4984,964.505 0.2601,-0.007 -0.1023,0.353 0.1095,-0.484 -0.1169,0.563 1.3987,-0.541 0.4963,0.237 0.2481,-0.362 0.6994,0.534 1.4913,-0.313 0.0397,0.314 0.3051,-0.365 0.9762,0.026 0.426,-0.474 0.9023,0.85 0.3024,-0.23 0.2536,0.338 0.567,-0.371 0.2095,0.177 -0.061,0.286 -0.1464,-0.163"
     id="path3168" />
</g>
<g
   id="g3174"
   transform="matrix(0.66647759,0,0,0.66647759,-132.74383,153.30889)">
  <path
     fill="none"
     stroke="#000000"
     stroke-width="4"
     stroke-linecap="round"
     stroke-linejoin="round"
     d="m 31.5951,964.395 0.069,6.336 -0.5738,12.278 0.242,0.982 -0.1452,8.349 0.253,7.164 0.4768,5.756 -0.2448,2.41 0.3188,1.77 -0.1066,2.49 -0.1617,0.33 0.0051,-1.34"
     id="path3172" />
</g>
<g
   id="g3178"
   transform="matrix(0.66647759,0,0,0.66647759,-132.74383,153.30889)">
  <path
     fill="none"
     stroke="#000000"
     stroke-width="4"
     stroke-linecap="round"
     stroke-linejoin="round"
     d="m 32.4693,964.588 -0.3963,0.274 0.2268,-0.351 0.5166,0.32 0.8782,-0.549 0.3935,0.245 -0.0191,-0.294 1.3562,0.975 0.0711,0.363 0.1828,-0.288 0.3459,0.239 0.8546,2.014 0.6464,4.057 0.1503,5.308 -0.4243,5.609 -1.5269,6.731 -0.5433,1.214 -0.4836,0.207 -0.1186,0.419 -0.0649,-0.321 -0.3172,0.888 -0.0976,-0.276 -0.1524,0.654 0.224,-0.438 0.2914,1.802 0.1982,-0.359 0.1998,0.189 0.7236,1.618 0.5008,3.083 1.6068,4.199 0.4674,4.19 0.3569,0.5 0.2202,1.53 0.1184,-0.36 0.2688,3 0.2891,1.33 0.2076,-0.17 -0.6164,-1.21"
     id="path3176" />
</g>
<g
   id="g3182"
   transform="matrix(0.66647759,0,0,0.66647759,-132.74383,153.30889)">
  <path
     fill="none"
     stroke="#000000"
     stroke-width="4"
     stroke-linecap="round"
     stroke-linejoin="round"
     d="m 44.6875,963.429 -0.2729,0.22 -0.0183,-0.306 0.6787,0.454 0.3742,-0.279 0.3973,0.235 -0.1292,-0.313 -0.4325,0.199 -0.1185,-0.398 -0.1719,1.061 0.3313,27.829 0.4807,3.146 0.207,5.823 0.9813,6.49 -0.002,2.35 0.1772,1.23 0.1467,-0.43 -0.4548,1.21 -0.1704,-0.54 -0.4937,0.54 0.135,-0.31 0.059,0.35 1.0076,-0.15 0.2874,-0.34 0.4874,0.34"
     id="path3180" />
</g>
<g
   id="g3186"
   transform="matrix(0.66647759,0,0,0.66647759,-132.74383,153.30889)">
  <path
     fill="none"
     stroke="#000000"
     stroke-width="4"
     stroke-linecap="round"
     stroke-linejoin="round"
     d="m 58.62,965.364 0.2155,-0.258 -0.1505,0.158 -0.6672,-0.897 -0.7593,-0.486 -0.8782,0.002 -1.7972,0.88 -0.2897,-0.225 -0.0496,0.293 -0.2989,-0.055 -0.8401,1.422 -0.5704,13.474 -0.0652,11.459 0.5579,15.889 0.9057,3.83 0.5429,0.8 0.635,0.29 -0.028,0.39 0.2307,-0.35 0.9928,0.51 0.6634,-0.23 0.5833,0.11 -0.0293,0.39 0.3622,-0.64 -0.0071,0.2 0.443,-0.24 1.0727,-2.39"
     id="path3184" />
</g>
<g
   id="g3190"
   transform="matrix(0.66647759,0,0,0.66647759,-132.74383,153.30889)">
  <path
     fill="none"
     stroke="#000000"
     stroke-width="4"
     stroke-linecap="round"
     stroke-linejoin="round"
     d="m 69.4115,964.546 -0.8238,18.15 0.4212,28.984"
     id="path3188" />
</g>
<g
   id="g3194"
   transform="matrix(0.66647759,0,0,0.66647759,-132.74383,153.30889)">
  <path
     fill="none"
     stroke="#000000"
     stroke-width="4"
     stroke-linecap="round"
     stroke-linejoin="round"
     d="m 64.7282,964.52 0.2647,0.279 -0.0069,-0.375 0.813,-0.293 0.102,-0.37 1.0497,0.507 1.0245,-0.431 0.4249,0.505 0.4072,-0.185 0.2792,0.273 1.4251,-0.4 0.643,0.557 0.2706,-0.267 0.4885,0.152 0.6399,-0.536 0.4051,0.236 0.1935,-0.301 -0.22,0.495"
     id="path3192" />
</g>
<g
   id="g3198"
   transform="matrix(0.66647759,0,0,0.66647759,-132.74383,153.30889)">
  <path
     fill="none"
     stroke="#000000"
     stroke-width="4"
     stroke-linecap="round"
     stroke-linejoin="round"
     d="m 80.0415,963.622 -0.0603,11.047 0.4244,7.608 0.1756,15.996 -0.3849,13.227 0.1604,0.94 0.0342,-0.74 0.0863,0.37 0.0541,-0.21 0.2591,0.27 0.4514,-0.13 0.0506,0.3 0.141,-0.41 1.1873,-0.34 0.4523,0.38 0.7497,-0.23 0.2972,0.52 0.0731,-0.88"
     id="path3196" />
</g>
<g
   id="g3202"
   transform="matrix(0.66647759,0,0,0.66647759,-132.74383,153.30889)">
  <path
     fill="none"
     stroke="#000000"
     stroke-width="4"
     stroke-linecap="round"
     stroke-linejoin="round"
     d="m 81.1618,964.048 -0.1245,-0.606 0.0715,0.46 0.1275,-0.259 2.0672,0.516 0.3718,-0.265 0.2453,0.242 0.1102,-0.276 0.2143,0.432 1.0869,-0.168 0.0586,0.443 0.6217,-0.502 0.0352,0.33"
     id="path3200" />
</g>
<g
   id="g3206"
   transform="matrix(0.66647759,0,0,0.66647759,-132.74383,153.30889)">
  <path
     fill="none"
     stroke="#000000"
     stroke-width="4"
     stroke-linecap="round"
     stroke-linejoin="round"
     d="m 81.4288,988.669 0.3204,0.217 -0.2853,0.113 0.8041,0.098 0.2473,-0.334 0.3008,0.151 0.7421,-0.405 0.6983,0.016 0.2549,0.333 0.0848,-0.226 0.0872,0.323 0.1395,-0.281"
     id="path3204" />
</g>
<g
   id="g3210"
   transform="matrix(0.66647759,0,0,0.66647759,-132.74383,153.30889)">
  <path
     fill="none"
     stroke="#000000"
     stroke-width="4"
     stroke-linecap="round"
     stroke-linejoin="round"
     d="m 92.1969,964.009 0.3614,1.696 -0.0819,9.156 0.6316,15.777 -0.4416,9.29 0.397,12.372 0.1727,-1.32"
     id="path3208" />
</g>
<g
   id="g3214"
   transform="matrix(0.66647759,0,0,0.66647759,-132.74383,153.30889)">
  <path
     fill="none"
     stroke="#000000"
     stroke-width="4"
     stroke-linecap="round"
     stroke-linejoin="round"
     d="m 93.2526,964.307 0.0474,0.354 0.0586,-0.709 0.6877,0.332 0.2541,-0.4 0.5425,-0.109 1.37,-0.037 0.4005,0.465 0.4237,-0.107 1.403,3.153 1.9189,12.989 0.336,11.895 0.688,8.627 -0.443,7.38 -0.867,2.57 -1.3165,1.54 -0.8181,0.2 -0.077,-0.35 -1.2107,1.11 -2.2208,-0.44 -0.2516,0.3 0.3323,-0.45"
     id="path3212" />
</g>
<g
   id="g3218"
   transform="matrix(0.66647759,0,0,0.66647759,-132.74383,153.30889)">
  <path
     fill="none"
     stroke="#000000"
     stroke-width="4"
     stroke-linecap="round"
     stroke-linejoin="round"
     d="m 118.763,959.429 -0.116,-0.293 0.127,-0.228 0.06,0.625 -1.994,3.273 -0.512,1.407 -2.96,11.079 -0.42,11.642 0.402,9.858 1.519,9.328 2.747,7.19 1.243,1.99 0.171,1.1 1.35,1.82 0.428,1.09 -0.08,-0.82 -0.145,0.25 -0.401,-0.44"
     id="path3216" />
</g>
<g
   id="g3222"
   transform="matrix(0.66647759,0,0,0.66647759,-132.74383,153.30889)">
  <path
     fill="none"
     stroke="#000000"
     stroke-width="4"
     stroke-linecap="round"
     stroke-linejoin="round"
     d="m 141.475,1013.72 0.122,0.18 0.305,-0.27 0.09,0.57 -0.03,-0.34 -0.006,0.35 0.467,-0.69"
     id="path3220" />
</g>
<g
   id="g3226"
   transform="matrix(0.66647759,0,0,0.66647759,-132.74383,153.30889)">
  <path
     fill="none"
     stroke="#000000"
     stroke-width="4"
     stroke-linecap="round"
     stroke-linejoin="round"
     d="m 148.073,1013.57 0.223,-0.52"
     id="path3224" />
</g>
<g
   id="g3230"
   transform="matrix(0.66647759,0,0,0.66647759,-132.74383,153.30889)">
  <path
     fill="none"
     stroke="#000000"
     stroke-width="4"
     stroke-linecap="round"
     stroke-linejoin="round"
     d="m 172.876,957.609 0.141,-0.168 -0.399,-0.126 0.107,0.412 0.087,-0.227 0.951,1.211 0.101,-0.292 0.57,1.073 0.475,2.027 2.128,3.966 1.047,3.398 1.256,7.596 0.915,10.829 -0.189,11.635 -1.264,9.447 -0.852,3.04 -0.851,5.37 -0.522,0.71 -0.056,1 0.016,-1.13"
     id="path3228" />
</g>
<g
   id="g3234"
   transform="matrix(0.66647759,0,0,0.66647759,-132.74383,153.30889)">
  <path
     fill="none"
     stroke="#000000"
     stroke-width="4"
     stroke-linecap="round"
     stroke-linejoin="round"
     d="m 127.667,967.49 0.039,-2.107 1.408,-2.17 1.239,-0.428 1.596,0.358 1.306,1.308 0.601,1.085 1.238,5.153 0.114,1.377 -0.645,3.5 -4.096,11.565 -1.176,5.085 -2.43,16.394 -0.016,2.04 0.522,2.17 -0.052,-0.3 0.449,-0.08 0.051,-0.36 0.055,0.33 0.857,-0.25 0.01,0.28 0.128,-0.25 0.07,0.33 0.086,-0.3 0.028,0.24 0.164,-0.31 0.05,0.22 0.619,-0.35 0.126,-0.42 0.234,0.47 0.203,-0.19 0.632,0.48 0.151,-0.25 0.008,0.36 0.52,-0.49 1.613,0.12 -0.016,-0.54 0.088,0.26 -0.376,0.21"
     id="path3232" />
</g>
<g
   id="g3238"
   transform="matrix(0.66647759,0,0,0.66647759,-132.74383,153.30889)">
  <path
     fill="none"
     stroke="#000000"
     stroke-width="4"
     stroke-linecap="round"
     stroke-linejoin="round"
     d="m 158.094,963.529 -0.247,0.09 0.114,-0.402 -0.041,0.355 0.699,-0.011 0.728,-0.555 0.883,0.257 0.754,-0.365 1.463,0.43 0.489,-0.507 0.301,0.311 0.032,-0.241 0.024,0.531 0.013,-0.283"
     id="path3236" />
</g>
<g
   id="g3242"
   transform="matrix(0.66647759,0,0,0.66647759,-132.74383,153.30889)">
  <path
     fill="none"
     stroke="#000000"
     stroke-width="4"
     stroke-linecap="round"
     stroke-linejoin="round"
     d="m 156.685,964.831 0.211,6.806 -1.02,15.511 0.082,0.363 0.093,-0.73 -0.005,0.403 0.213,-0.036 1.122,-1.268 -0.018,0.263 0.55,-0.042 1.549,-0.645 1.887,1.206 0.791,1.35 0.609,2.077 0.066,2.029 0.426,1.536 -0.266,8.536 -0.34,4.1 -0.701,3.33 -1.2,2.11 -0.143,-0.26 -0.507,1.07 -0.367,0.39 -0.127,-0.38 -0.037,0.5 -0.842,0.8 -0.322,0.05 -1.693,-1.22 -0.057,0.2 -0.883,-0.42 -0.714,-0.64 -1.139,-3.36"
     id="path3240" />
</g>
<g
   id="g3246"
   transform="matrix(0.66647759,0,0,0.66647759,-132.74383,153.30889)">
  <path
     fill="none"
     stroke="#000000"
     stroke-width="4"
     stroke-linecap="round"
     stroke-linejoin="round"
     d="m -384.289,964.072 0.292,-0.026 h -0.22 l 0.11,-0.302 0.109,0.188 -0.328,4.483 0.355,5.634 -0.246,5.791 0.645,8.411 -0.171,5.775 0.311,3.104 -0.339,7.68 0.287,1.93 -0.433,5.34"
     id="path3244" />
</g>
<g
   id="g3250"
   transform="matrix(0.66647759,0,0,0.66647759,-132.74383,153.30889)">
  <path
     fill="none"
     stroke="#000000"
     stroke-width="4"
     stroke-linecap="round"
     stroke-linejoin="round"
     d="m -383.155,963.962 0.218,0.014 -0.099,-0.458 0.002,0.219 0.404,-0.06 0.642,-0.481 0.198,0.272 1.189,0.077 1.373,1.832 -0.066,0.45 0.168,-0.2 1.23,1.741 0.453,5.62 -0.661,8.127 -1.719,6.92 -0.271,0.63 -0.601,0.089 -0.182,0.478 -0.088,-0.252 -0.225,0.261 0.299,-0.024 -0.179,0.436 0.3,0.206 0.858,4.505 0.574,0.924 0.07,2.502 1.718,6.72 0.575,3.03 -0.228,0.29 0.728,2.16 0.069,2.08 0.063,-0.76"
     id="path3248" />
</g>
<g
   id="g3254"
   transform="matrix(0.66647759,0,0,0.66647759,-132.74383,153.30889)">
  <path
     fill="none"
     stroke="#000000"
     stroke-width="4"
     stroke-linecap="round"
     stroke-linejoin="round"
     d="m -370.392,963.52 0.235,1.627 -0.356,3.665 0.207,10.94 -0.39,7.041 0.29,3.448 -0.345,4.731 0.135,6.178 -0.606,4.07 -0.223,6.77 0.16,-0.3 0.109,0.19 -0.09,0.49 0.008,-0.62 0.184,0.3 1.162,-0.51 0.132,0.27 1.128,-0.84 0.715,0.2 0.086,-0.24 0.137,0.26 0.06,-0.24 0.112,0.32 0.321,-0.51 0.476,0.77 0.276,-0.66 -0.275,0.33"
     id="path3252" />
</g>
<g
   id="g3258"
   transform="matrix(0.66647759,0,0,0.66647759,-132.74383,153.30889)">
  <path
     fill="none"
     stroke="#000000"
     stroke-width="4"
     stroke-linecap="round"
     stroke-linejoin="round"
     d="m -369.029,964.596 -0.175,0.232 -0.026,-0.327 1.82,0.703 1.932,-0.667 0.232,0.578 0.653,-0.399 -0.101,0.316"
     id="path3256" />
</g>
<g
   id="g3262"
   transform="matrix(0.66647759,0,0,0.66647759,-132.74383,153.30889)">
  <path
     fill="none"
     stroke="#000000"
     stroke-width="4"
     stroke-linecap="round"
     stroke-linejoin="round"
     d="m -370.068,988.554 0.176,0.566 0.091,-0.357 1.655,-0.022 0.52,-0.425 0.612,0.041 0.161,0.401 -0.025,-0.283"
     id="path3260" />
</g>
<g
   id="g3266"
   transform="matrix(0.66647759,0,0,0.66647759,-132.74383,153.30889)">
  <path
     fill="none"
     stroke="#000000"
     stroke-width="4"
     stroke-linecap="round"
     stroke-linejoin="round"
     d="m -352.046,966.168 -0.241,0.032 -0.204,-1.209 -1.203,-1.251 -0.152,0.302 -0.09,-0.256 -0.684,0.354 -1.265,-0.259 -0.788,0.658 -0.48,1.011 -0.762,4.631 -0.247,-0.035 -0.867,7.035 0.105,4.045 0.567,1.022 0.377,0.063 0.571,2.436 0.147,-0.152 0.61,0.957 0.231,-0.109 0.023,0.331 0.168,-0.34 0.206,1.709 0.231,0.719 0.174,-0.137 0.395,0.64 1.29,4.971 -0.015,3.412 0.309,0.621 0.314,4.821 -0.791,6.37 -0.384,1.52 -0.639,1.04 -1.057,0.79 10e-4,-0.32 -0.204,0.38 -0.021,-0.33 -0.462,0.64 -1.101,-0.04 -0.046,0.31 -0.133,-0.38 -0.127,0.34 0.028,-0.29 -0.328,-0.15 -0.199,0.25 -0.212,-0.33 -0.189,0.28 -0.894,-2.57 0.009,0.55"
     id="path3264" />
</g>
<g
   id="g3270"
   transform="matrix(0.66647759,0,0,0.66647759,-132.74383,153.30889)">
  <path
     fill="none"
     stroke="#000000"
     stroke-width="4"
     stroke-linecap="round"
     stroke-linejoin="round"
     d="m -341.869,964.375 -0.322,0.19 0.149,-0.159 0.005,0.33 0.096,-0.3 -0.318,2.744 -0.052,10.869 0.014,2.08 0.106,0.308 0.067,-0.425 0.149,0.664 -0.269,3.199 0.487,11.681 -0.334,10.374 0.267,1.03 -0.183,2.04 0.225,2.64"
     id="path3268" />
</g>
<g
   id="g3274"
   transform="matrix(0.66647759,0,0,0.66647759,-132.74383,153.30889)">
  <path
     fill="none"
     stroke="#000000"
     stroke-width="4"
     stroke-linecap="round"
     stroke-linejoin="round"
     d="m -345.954,964.513 0.26,-0.007 -0.103,0.353 0.11,-0.484 -0.117,0.564 1.399,-0.541 0.496,0.236 0.248,-0.361 0.699,0.533 1.492,-0.313 0.039,0.314 0.306,-0.365 0.976,0.026 0.426,-0.474 0.902,0.85 0.303,-0.23 0.253,0.338 0.567,-0.37 0.21,0.176 -0.061,0.287 -0.147,-0.164"
     id="path3272" />
</g>
<g
   id="g3278"
   transform="matrix(0.66647759,0,0,0.66647759,-132.74383,153.30889)">
  <path
     fill="none"
     stroke="#000000"
     stroke-width="4"
     stroke-linecap="round"
     stroke-linejoin="round"
     d="m -330.858,964.404 0.069,6.335 -0.574,12.279 0.242,0.982 -0.145,8.348 0.253,7.165 0.477,5.757 -0.245,2.41 0.319,1.77 -0.107,2.49 -0.161,0.33 0.005,-1.34"
     id="path3276" />
</g>
<g
   id="g3282"
   transform="matrix(0.66647759,0,0,0.66647759,-132.74383,153.30889)">
  <path
     fill="none"
     stroke="#000000"
     stroke-width="4"
     stroke-linecap="round"
     stroke-linejoin="round"
     d="m -329.983,964.596 -0.397,0.274 0.227,-0.351 0.517,0.32 0.878,-0.549 0.393,0.246 -0.019,-0.294 1.356,0.974 0.071,0.363 0.183,-0.288 0.346,0.24 0.855,2.013 0.646,4.057 0.15,5.308 -0.424,5.61 -1.527,6.731 -0.543,1.213 -0.484,0.207 -0.118,0.419 -0.065,-0.321 -0.317,0.888 -0.098,-0.276 -0.152,0.654 0.224,-0.438 0.291,1.802 0.198,-0.358 0.2,0.188 0.724,1.618 0.501,3.084 1.606,4.2 0.468,4.19 0.357,0.5 0.22,1.53 0.118,-0.36 0.269,3 0.289,1.33 0.208,-0.17 -0.617,-1.21"
     id="path3280" />
</g>
<g
   id="g3286"
   transform="matrix(0.66647759,0,0,0.66647759,-132.74383,153.30889)">
  <path
     fill="none"
     stroke="#000000"
     stroke-width="4"
     stroke-linecap="round"
     stroke-linejoin="round"
     d="m -317.765,963.437 -0.273,0.22 -0.019,-0.305 0.679,0.453 0.374,-0.279 0.398,0.235 -0.13,-0.313 -0.432,0.199 -0.118,-0.397 -0.172,1.06 0.331,27.829 0.481,3.147 0.207,5.824 0.981,6.49 -0.002,2.35 0.177,1.22 0.147,-0.42 -0.455,1.21 -0.17,-0.54 -0.494,0.54 0.135,-0.31 0.059,0.34 1.008,-0.14 0.287,-0.34 0.487,0.34"
     id="path3284" />
</g>
<g
   id="g3290"
   transform="matrix(0.66647759,0,0,0.66647759,-132.74383,153.30889)">
  <path
     fill="none"
     stroke="#000000"
     stroke-width="4"
     stroke-linecap="round"
     stroke-linejoin="round"
     d="m -303.833,965.372 0.216,-0.257 -0.151,0.157 -0.667,-0.897 -0.759,-0.486 -0.879,0.002 -1.797,0.88 -0.289,-0.225 -0.05,0.293 -0.299,-0.055 -0.84,1.423 -0.57,13.474 -0.066,11.458 0.558,15.891 0.906,3.83 0.543,0.8 0.635,0.28 -0.028,0.4 0.231,-0.35 0.992,0.51 0.664,-0.24 0.583,0.12 -0.029,0.38 0.362,-0.63 -0.007,0.2 0.443,-0.24 1.073,-2.4"
     id="path3288" />
</g>
<g
   id="g3294"
   transform="matrix(0.66647759,0,0,0.66647759,-132.74383,153.30889)">
  <path
     fill="none"
     stroke="#000000"
     stroke-width="4"
     stroke-linecap="round"
     stroke-linejoin="round"
     d="m -293.041,964.555 -0.824,18.149 0.421,28.986"
     id="path3292" />
</g>
<g
   id="g3298"
   transform="matrix(0.66647759,0,0,0.66647759,-132.74383,153.30889)">
  <path
     fill="none"
     stroke="#000000"
     stroke-width="4"
     stroke-linecap="round"
     stroke-linejoin="round"
     d="m -297.725,964.529 0.265,0.278 -0.007,-0.375 0.813,-0.293 0.102,-0.37 1.05,0.508 1.024,-0.431 0.425,0.504 0.408,-0.185 0.279,0.274 1.425,-0.401 0.643,0.557 0.27,-0.267 0.489,0.153 0.64,-0.536 0.405,0.236 0.193,-0.301 -0.22,0.494"
     id="path3296" />
</g>
<g
   id="g3302"
   transform="matrix(0.66647759,0,0,0.66647759,-132.74383,153.30889)">
  <path
     fill="none"
     stroke="#000000"
     stroke-width="4"
     stroke-linecap="round"
     stroke-linejoin="round"
     d="m -282.411,963.631 -0.061,11.046 0.425,7.608 0.175,15.996 -0.384,13.229 0.16,0.94 0.034,-0.75 0.086,0.38 0.054,-0.21 0.26,0.26 0.451,-0.12 0.051,0.3 0.141,-0.41 1.187,-0.34 0.452,0.37 0.75,-0.22 0.297,0.52 0.073,-0.88"
     id="path3300" />
</g>
<g
   id="g3306"
   transform="matrix(0.66647759,0,0,0.66647759,-132.74383,153.30889)">
  <path
     fill="none"
     stroke="#000000"
     stroke-width="4"
     stroke-linecap="round"
     stroke-linejoin="round"
     d="m -281.291,964.056 -0.124,-0.606 0.071,0.461 0.128,-0.259 2.067,0.515 0.371,-0.265 0.246,0.242 0.11,-0.276 0.214,0.432 1.087,-0.167 0.059,0.443 0.622,-0.503 0.035,0.331"
     id="path3304" />
</g>
<g
   id="g3310"
   transform="matrix(0.66647759,0,0,0.66647759,-132.74383,153.30889)">
  <path
     fill="none"
     stroke="#000000"
     stroke-width="4"
     stroke-linecap="round"
     stroke-linejoin="round"
     d="m -281.024,988.678 0.32,0.216 -0.285,0.113 0.804,0.098 0.248,-0.333 0.3,0.15 0.742,-0.404 0.699,0.015 0.255,0.334 0.084,-0.227 0.088,0.324 0.139,-0.282"
     id="path3308" />
</g>
<g
   id="g3314"
   transform="matrix(0.66647759,0,0,0.66647759,-132.74383,153.30889)">
  <path
     fill="none"
     stroke="#000000"
     stroke-width="4"
     stroke-linecap="round"
     stroke-linejoin="round"
     d="m -270.256,964.017 0.361,1.696 -0.081,9.157 0.631,15.776 -0.441,9.29 0.397,12.374 0.172,-1.33"
     id="path3312" />
</g>
<g
   id="g3318"
   transform="matrix(0.66647759,0,0,0.66647759,-132.74383,153.30889)">
  <path
     fill="none"
     stroke="#000000"
     stroke-width="4"
     stroke-linecap="round"
     stroke-linejoin="round"
     d="m -269.2,964.315 0.047,0.354 0.059,-0.709 0.688,0.332 0.254,-0.4 0.542,-0.109 1.37,-0.036 0.401,0.465 0.423,-0.108 1.403,3.153 1.919,12.989 0.337,11.895 0.687,8.629 -0.442,7.37 -0.867,2.57 -1.317,1.55 -0.818,0.19 -0.077,-0.34 -1.211,1.1 -2.221,-0.43 -0.252,0.29 0.333,-0.44"
     id="path3316" />
</g>
<g
   id="g3322"
   transform="matrix(0.66647759,0,0,0.66647759,-132.74383,153.30889)">
  <path
     fill="none"
     stroke="#000000"
     stroke-width="4"
     stroke-linecap="round"
     stroke-linejoin="round"
     d="m -243.69,959.438 -0.116,-0.294 0.128,-0.227 0.059,0.624 -1.993,3.273 -0.513,1.408 -2.959,11.078 -0.421,11.642 0.402,9.858 1.519,9.33 2.747,7.19 1.243,1.99 0.171,1.1 1.35,1.82 0.429,1.09 -0.081,-0.83 -0.145,0.26 -0.401,-0.44"
     id="path3320" />
</g>
<g
   id="g3326"
   transform="matrix(0.66647759,0,0,0.66647759,-132.74383,153.30889)">
  <path
     fill="none"
     stroke="#000000"
     stroke-width="4"
     stroke-linecap="round"
     stroke-linejoin="round"
     d="m -228.179,967.548 -0.005,-1.138 -0.655,-1.477 -1.623,-0.765 -0.034,-0.391 -1.997,1.109 -0.755,1.516 -0.602,2.684 -0.554,4.658 -0.173,6.118 0.564,24.888 0.801,5.95 1.3,2.63 0.689,-0.19 0.106,0.26 0.041,-0.38 0.227,0.59 0.036,-0.4 0.298,0.5 0.305,-0.33 0.443,0.2 0.672,-1.02 0.146,0.16 0.952,-1.67 0.874,-3.67 1.217,-19.657 0.073,-6.375 -0.305,-8.914 -0.82,-4.55"
     id="path3324" />
</g>
<g
   id="g3330"
   transform="matrix(0.66647759,0,0,0.66647759,-132.74383,153.30889)">
  <path
     fill="none"
     stroke="#000000"
     stroke-width="4"
     stroke-linecap="round"
     stroke-linejoin="round"
     d="m -220.978,1013.72 0.123,0.19 0.304,-0.27 0.09,0.57 -0.03,-0.34 -0.006,0.34 0.468,-0.68"
     id="path3328" />
</g>
<g
   id="g3334"
   transform="matrix(0.66647759,0,0,0.66647759,-132.74383,153.30889)">
  <path
     fill="none"
     stroke="#000000"
     stroke-width="4"
     stroke-linecap="round"
     stroke-linejoin="round"
     d="m -214.38,1013.57 0.223,-0.51"
     id="path3332" />
</g>
<g
   id="g3338"
   transform="matrix(0.66647759,0,0,0.66647759,-132.74383,153.30889)">
  <path
     fill="none"
     stroke="#000000"
     stroke-width="4"
     stroke-linecap="round"
     stroke-linejoin="round"
     d="m -204.084,967.953 0.039,-2.106 1.407,-2.17 1.239,-0.429 1.596,0.358 1.307,1.308 0.601,1.086 1.237,5.152 0.115,1.377 -0.645,3.5 -4.097,11.565 -1.175,5.085 -2.43,16.401 -0.017,2.03 0.522,2.17 -0.051,-0.3 0.448,-0.07 0.051,-0.36 0.055,0.32 0.858,-0.25 0.009,0.28 0.128,-0.25 0.07,0.34 0.087,-0.3 0.027,0.24 0.164,-0.32 0.051,0.23 0.618,-0.36 0.127,-0.42 0.233,0.47 0.204,-0.19 0.632,0.48 0.151,-0.25 0.008,0.36 0.52,-0.49 1.612,0.12 -0.016,-0.54 0.088,0.26 -0.375,0.21"
     id="path3336" />
</g>
<g
   id="g3342"
   transform="matrix(0.66647759,0,0,0.66647759,-132.74383,153.30889)">
  <path
     fill="none"
     stroke="#000000"
     stroke-width="4"
     stroke-linecap="round"
     stroke-linejoin="round"
     d="m -189.577,957.617 0.141,-0.168 -0.399,-0.126 0.107,0.412 0.087,-0.227 0.951,1.211 0.102,-0.292 0.569,1.073 0.475,2.027 2.128,3.967 1.047,3.397 1.256,7.596 0.915,10.829 -0.189,11.635 -1.264,9.439 -0.852,3.05 -0.85,5.37 -0.523,0.71 -0.056,1 0.016,-1.14"
     id="path3340" />
</g>
<g
   id="g3346"
   transform="matrix(0.66647759,0,0,0.66647759,-132.74383,153.30889)">
  <path
     fill="none"
     stroke="#000000"
     stroke-width="4"
     stroke-linecap="round"
     stroke-linejoin="round"
     d="m -150.841,547.077 -0.467,0.394 0.138,-0.227 0.118,0.396 0.113,2.174 -0.199,7.032 0.501,9.361 -0.3,8.686 0.33,9.203 -0.385,7.978 0.22,1.689 -0.257,1.97 0.218,-0.131 -0.2,-0.507"
     id="path3344" />
</g>
<g
   id="g3350"
   transform="matrix(0.66647759,0,0,0.66647759,-132.74383,153.30889)">
  <path
     fill="none"
     stroke="#000000"
     stroke-width="4"
     stroke-linecap="round"
     stroke-linejoin="round"
     d="m -150.912,547.231 1.898,0.595 0.749,-0.168 0.623,0.556 0.476,-0.26 0.8,0.741 0.971,1.933 0.444,2.798 0.499,10.539 -0.406,7.38 -0.712,2.239 -0.843,0.484 -0.503,0.964 -1.818,0.609 -0.214,-0.172"
     id="path3348" />
</g>
<g
   id="g3354"
   transform="matrix(0.66647759,0,0,0.66647759,-132.74383,153.30889)">
  <path
     fill="none"
     stroke="#000000"
     stroke-width="4"
     stroke-linecap="round"
     stroke-linejoin="round"
     d="m -140.241,547.476 0.62,-0.094 -0.227,0.38 0.521,3.159 -0.46,17.965 0.311,8.69 -0.695,14.443 0.446,3.044"
     id="path3352" />
</g>
<g
   id="g3358"
   transform="matrix(0.66647759,0,0,0.66647759,-132.74383,153.30889)">
  <path
     fill="none"
     stroke="#000000"
     stroke-width="4"
     stroke-linecap="round"
     stroke-linejoin="round"
     d="m -139.896,548.12 0.583,-0.709 2.672,0.463 1.179,1.258 0.917,2.847 -0.135,0.929 0.905,5.174 -0.018,5.837 -0.985,4.456 -1.461,4.132 -1.535,1.068 0.178,-0.133 0.239,0.602 0.35,2.145 0.577,0.868 3.915,13.066 1.298,6.574 -0.533,-0.815"
     id="path3356" />
</g>
<g
   id="g3362"
   transform="matrix(0.66647759,0,0,0.66647759,-132.74383,153.30889)">
  <path
     fill="none"
     stroke="#000000"
     stroke-width="4"
     stroke-linecap="round"
     stroke-linejoin="round"
     d="m -127.74,547.367 0.089,-0.267 0.912,0.7 0.397,-0.016 0.172,-0.376 0.047,0.281 0.957,-0.077 -0.903,-0.229 -0.126,1.427 0.601,10.059 -0.173,9.665 0.5,14.539 0.948,12.072 -0.096,-0.246 -0.031,0.343 -0.178,-0.173 -0.764,0.995 0.021,-0.314 -0.27,0.085 -0.027,0.326 0.165,-0.497 2.397,0.615 0.391,-0.348 0.316,0.147 0.131,-0.585"
     id="path3360" />
</g>
<g
   id="g3366"
   transform="matrix(0.66647759,0,0,0.66647759,-132.74383,153.30889)">
  <path
     fill="none"
     stroke="#000000"
     stroke-width="4"
     stroke-linecap="round"
     stroke-linejoin="round"
     d="m -117.836,547.393 0.491,9.987 -0.182,16.97 0.727,13.745 -0.089,6.879 -0.333,-1.19"
     id="path3364" />
</g>
<g
   id="g3370"
   transform="matrix(0.66647759,0,0,0.66647759,-132.74383,153.30889)">
  <path
     fill="none"
     stroke="#000000"
     stroke-width="4"
     stroke-linecap="round"
     stroke-linejoin="round"
     d="m -117.915,547.475 1.086,3.529 2.429,12.038 0.553,1.322 0.236,2.931 1.259,5.109 -0.063,0.818 0.809,-6.916 1.482,-6.594 3.827,-13.17 -0.366,1.896 0.197,4.613 -0.377,6.938 0.1,3.02 0.839,6.311 -0.146,16.572 0.399,8.061"
     id="path3368" />
</g>
<g
   id="g3374"
   transform="matrix(0.66647759,0,0,0.66647759,-132.74383,153.30889)">
  <path
     fill="none"
     stroke="#000000"
     stroke-width="4"
     stroke-linecap="round"
     stroke-linejoin="round"
     d="m -100.607,595.124 1.6149,-13.668 0.7137,-10.603 -0.072,-3.582 1.1648,-10.245 0.042,-5.153 1.1078,-5.664 0.5839,1.709 2.2445,11.474 0.075,3.243 0.4267,1.946 0.8186,9.607 2.3403,17.753 0.9817,2.931 -0.1414,-0.942"
     id="path3372" />
</g>
<g
   id="g3378"
   transform="matrix(0.66647759,0,0,0.66647759,-132.74383,153.30889)">
  <path
     fill="none"
     stroke="#000000"
     stroke-width="4"
     stroke-linecap="round"
     stroke-linejoin="round"
     d="m -97.6035,574.987 -0.1885,-0.269 0.0746,0.264 0.4521,-0.469 1.0673,-0.237 0.341,0.178 0.8069,-0.277 1.2234,0.431 0.423,-0.25"
     id="path3376" />
</g>
<g
   id="g3382"
   transform="matrix(0.66647759,0,0,0.66647759,-132.74383,153.30889)">
  <path
     fill="none"
     stroke="#000000"
     stroke-width="4"
     stroke-linecap="round"
     stroke-linejoin="round"
     d="m -85.1702,547.449 -0.3467,-0.07 0.255,-0.068 0.4036,3.346 0.488,8.914 -0.0361,16.928 0.7207,18.755 -0.2882,-1.797"
     id="path3380" />
</g>
<g
   id="g3386"
   transform="matrix(0.66647759,0,0,0.66647759,-132.74383,153.30889)">
  <path
     fill="none"
     stroke="#000000"
     stroke-width="4"
     stroke-linecap="round"
     stroke-linejoin="round"
     d="m -85.0687,547.34 0.3142,0.215 0.0101,-0.254 1.4917,-0.717 0.379,0.312 1.2546,0.112 1.2204,1.247 1.6313,4.154 0.5054,5.769 -0.4898,5.103 -1.4876,6.598 -1.0794,3.112 -1.4719,1.828 0.159,-0.183 0.8066,1.83 0.3505,2.376 3.4719,11.302 1.2727,5.554 -0.1958,-1.936"
     id="path3384" />
</g>
<g
   id="g3390"
   transform="matrix(0.66647759,0,0,0.66647759,-132.74383,153.30889)">
  <path
     fill="none"
     stroke="#000000"
     stroke-width="4"
     stroke-linecap="round"
     stroke-linejoin="round"
     d="m -73.3786,547.052 0.7484,2.041 1.8809,15.068 1.7656,8.369 0.6319,-7.907 1.4734,-10.593 1.2609,-6.332 0.1153,-1.02 -0.2492,-10e-4"
     id="path3388" />
</g>
<g
   id="g3394"
   transform="matrix(0.66647759,0,0,0.66647759,-132.74383,153.30889)">
  <path
     fill="none"
     stroke="#000000"
     stroke-width="4"
     stroke-linecap="round"
     stroke-linejoin="round"
     d="m -69.3553,573.328 0.2991,-0.214 0.1547,0.921 -0.0719,6.539 0.5675,15.094"
     id="path3392" />
</g>
<g
   id="g3398"
   transform="matrix(0.66647759,0,0,0.66647759,-132.74383,153.30889)">
  <path
     fill="none"
     stroke="#000000"
     stroke-width="4"
     stroke-linecap="round"
     stroke-linejoin="round"
     d="m -47.2789,546.605 0.2494,0.076 -0.1824,1.99 0.3496,3.918 -0.2553,20.398 0.282,4.491 -0.0465,17.678"
     id="path3396" />
</g>
<g
   id="g3402"
   transform="matrix(0.66647759,0,0,0.66647759,-132.74383,153.30889)">
  <path
     fill="none"
     stroke="#000000"
     stroke-width="4"
     stroke-linecap="round"
     stroke-linejoin="round"
     d="m -46.8623,546.687 -0.2922,-0.097 0.4858,1.826 1.2722,2.964 0.6643,3.421 0.7696,1.904 1.0674,5.084 0.0396,2.219 2.092,9.121 0.3057,-3.675 1.2133,-7.087 1.4344,-6.139 0.8034,-1.871 1.9607,-7.109 -0.1951,1.084 0.427,5.598 -0.032,13.306 0.5514,9.245 -0.0845,12.394 0.3303,7.191 -0.2392,-0.856"
     id="path3400" />
</g>
<g
   id="g3406"
   transform="matrix(0.66647759,0,0,0.66647759,-132.74383,153.30889)">
  <path
     fill="none"
     stroke="#000000"
     stroke-width="4"
     stroke-linecap="round"
     stroke-linejoin="round"
     d="m -28.9643,547.204 0.2683,25.925 0.9214,23.138 0.1122,-0.205 0.2661,0.428 0.2774,-0.382 2.8684,-0.353 0.8652,0.228 0.0279,0.33 0.405,-0.704 0.1952,0.464 0.0775,-0.556"
     id="path3404" />
</g>
<g
   id="g3410"
   transform="matrix(0.66647759,0,0,0.66647759,-132.74383,153.30889)">
  <path
     fill="none"
     stroke="#000000"
     stroke-width="4"
     stroke-linecap="round"
     stroke-linejoin="round"
     d="m -27.765,547.756 -0.1922,-0.247 0.6186,0.291 1.0728,-0.374 0.2548,0.405 1.2818,0.107 1.2013,-0.59 -0.128,0.282 0.3718,-0.142 -0.1624,0.64"
     id="path3408" />
</g>
<g
   id="g3414"
   transform="matrix(0.66647759,0,0,0.66647759,-132.74383,153.30889)">
  <path
     fill="none"
     stroke="#000000"
     stroke-width="4"
     stroke-linecap="round"
     stroke-linejoin="round"
     d="m -27.8105,571.968 -0.0244,0.355 1.0971,-0.718 0.3417,0.272 1.6775,-0.609 0.6683,0.292 0.5164,-0.23"
     id="path3412" />
</g>
<g
   id="g3418"
   transform="matrix(0.66647759,0,0,0.66647759,-132.74383,153.30889)">
  <path
     fill="none"
     stroke="#000000"
     stroke-width="4"
     stroke-linecap="round"
     stroke-linejoin="round"
     d="m -16.7921,547.258 0.3329,0.017 -0.2185,-0.083 0.4475,3.519 -0.2736,7.535 0.3672,3.639 -0.0848,10.53 -0.5554,10.487 0.4761,12.786 -0.2819,-1.701"
     id="path3416" />
</g>
<g
   id="g3422"
   transform="matrix(0.66647759,0,0,0.66647759,-132.74383,153.30889)">
  <path
     fill="none"
     stroke="#000000"
     stroke-width="4"
     stroke-linecap="round"
     stroke-linejoin="round"
     d="m -16.0948,546.986 -0.2884,0.153 1.0322,5.51 1.8463,6.763 0.9666,4.923 0.1742,2.441 1.2415,5.038 1.20616,-7.127 2.35879,-7.627 0.25344,-2.342 1.64099,-4.461 0.77995,-3.452 0.34582,5.255 -0.17774,7.113 0.22581,5.127 -0.33955,4.341 0.23244,18.349 0.55555,5.974 0.02384,2.599 -0.15771,-1.342"
     id="path3420" />
</g>
<g
   id="g3426"
   transform="matrix(0.66647759,0,0,0.66647759,-132.74383,153.30889)">
  <path
     fill="none"
     stroke="#000000"
     stroke-width="4"
     stroke-linecap="round"
     stroke-linejoin="round"
     d="m 8.81517,548.074 -0.15548,0.15 -0.40444,-0.709 -0.81732,0.117 -0.58055,-0.831 -2.49779,-0.216 -1.68439,1.281 -1.00517,2.265 -0.785571,21.117 0.336041,5.916 -0.21987,4.515 0.18608,7.884 0.56392,5.362 0.26379,0.664 0.11172,-0.239 0.6809,0.614 0.35024,-0.151 0.11315,0.249 0.08674,-0.339 0.51899,0.367 0.10254,-0.265 0.22024,0.394 0.96633,0.382 0.8963,-0.26 1.25895,-1.247 0.57893,-1.085 0.5642,-2.712 0.74478,-6.9 0.87457,-19.756 -0.12024,-11.069 -0.56781,-3.565"
     id="path3424" />
</g>
<g
   id="g3430"
   transform="matrix(0.66647759,0,0,0.66647759,-132.74383,153.30889)">
  <path
     fill="none"
     stroke="#000000"
     stroke-width="4"
     stroke-linecap="round"
     stroke-linejoin="round"
     d="m 13.8359,546.877 0.2306,0.187 0.0478,-0.293 0.2048,1.2 0.3771,8.73 0.0708,6.629 -0.4609,5.831 0.3146,4.45 0.0401,16.865 0.5545,4.136 -0.2658,-0.991"
     id="path3428" />
</g>
<g
   id="g3434"
   transform="matrix(0.66647759,0,0,0.66647759,-132.74383,153.30889)">
  <path
     fill="none"
     stroke="#000000"
     stroke-width="4"
     stroke-linecap="round"
     stroke-linejoin="round"
     d="m 14.9205,546.986 0.3938,-0.552 1.3254,-0.243 2.5106,1.003 1.3096,2.22 0.7818,2.371 0.3741,7.349 -0.6621,3.528 -1.9816,6.771 -1.1842,1.799 -0.8081,1.97 -0.082,-0.258 -0.4874,0.556 -0.0373,0.799 1.7395,3.598 1.6111,5.666 1.6086,4.305 0.3776,2.469 0.983,3.174 0.6431,1.321 0.0865,-0.26 -0.0496,0.433 -0.1636,-1.663"
     id="path3432" />
</g>
<g
   id="g3438"
   transform="matrix(0.66647759,0,0,0.66647759,-132.74383,153.30889)">
  <path
     fill="none"
     stroke="#000000"
     stroke-width="4"
     stroke-linecap="round"
     stroke-linejoin="round"
     d="m 26.1988,546.632 0.5437,0.637 0.5527,2.352 0.6014,9.034 1.19,7.513 0.135,3.482 0.8903,3.921 1.445,-10.953 3.0381,-15.167"
     id="path3436" />
</g>
<g
   id="g3442"
   transform="matrix(0.66647759,0,0,0.66647759,-132.74383,153.30889)">
  <path
     fill="none"
     stroke="#000000"
     stroke-width="4"
     stroke-linecap="round"
     stroke-linejoin="round"
     d="m 30.0979,574.226 0.2346,0.008 0.0292,0.611 -0.2014,3.512 0.2242,3.314 -0.2823,2.656 0.2705,3.138 -0.1775,2.219 0.5441,4.221 -0.0678,0.853 -0.129,-0.666"
     id="path3440" />
</g>
<metadata
   id="metadata4949">
  <rdf:RDF>
    <cc:Work
       rdf:about="">
      <dc:title>Quick sheets</dc:title>
    </cc:Work>
  </rdf:RDF>
</metadata>
</svg>
