<?xml version="1.0" encoding="UTF-8" standalone="no"?>
<!-- Created with Inkscape (http://www.inkscape.org/) -->

<svg
   width="118.46383mm"
   height="43.824677mm"
   viewBox="0 0 118.46383 43.824677"
   version="1.1"
   id="svg5"
   inkscape:version="1.1.2 (0a00cf5339, 2022-02-04)"
   sodipodi:docname="15-objects-values-references.svg"
   xmlns:inkscape="http://www.inkscape.org/namespaces/inkscape"
   xmlns:sodipodi="http://sodipodi.sourceforge.net/DTD/sodipodi-0.dtd"
   xmlns="http://www.w3.org/2000/svg"
   xmlns:svg="http://www.w3.org/2000/svg">
  <sodipodi:namedview
     id="namedview7"
     pagecolor="#ffffff"
     bordercolor="#666666"
     borderopacity="1.0"
     inkscape:pageshadow="2"
     inkscape:pageopacity="0.0"
     inkscape:pagecheckerboard="0"
     inkscape:document-units="mm"
     showgrid="true"
     inkscape:zoom="4.92"
     inkscape:cx="241.86992"
     inkscape:cy="62.195122"
     inkscape:window-width="3840"
     inkscape:window-height="1536"
     inkscape:window-x="0"
     inkscape:window-y="0"
     inkscape:window-maximized="1"
     inkscape:current-layer="layer1">
    <inkscape:grid
       type="xygrid"
       id="grid824"
       originx="-48.398779"
       originy="-51.425327" />
  </sodipodi:namedview>
  <defs
     id="defs2">
    <marker
       style="overflow:visible"
       id="Arrow1Mend"
       refX="0"
       refY="0"
       orient="auto"
       inkscape:stockid="Arrow1Mend"
       inkscape:isstock="true">
      <path
         transform="matrix(-0.4,0,0,-0.4,-4,0)"
         style="fill:context-stroke;fill-rule:evenodd;stroke:context-stroke;stroke-width:1pt"
         d="M 0,0 5,-5 -12.5,0 5,5 Z"
         id="path35978" />
    </marker>
    <inkscape:path-effect
       effect="bspline"
       id="path-effect35967"
       is_visible="true"
       lpeversion="1"
       weight="33.333333"
       steps="2"
       helper_size="0"
       apply_no_weight="true"
       apply_with_weight="true"
       only_selected="false" />
    <inkscape:path-effect
       effect="bspline"
       id="path-effect32514"
       is_visible="true"
       lpeversion="1"
       weight="33.333333"
       steps="2"
       helper_size="0"
       apply_no_weight="true"
       apply_with_weight="true"
       only_selected="false" />
    <inkscape:path-effect
       effect="bspline"
       id="path-effect32317"
       is_visible="true"
       lpeversion="1"
       weight="33.333333"
       steps="2"
       helper_size="0"
       apply_no_weight="true"
       apply_with_weight="true"
       only_selected="false" />
    <inkscape:path-effect
       effect="skeletal"
       id="path-effect32313"
       is_visible="true"
       lpeversion="1"
       pattern="M 0,4.9921382 C 0,2.2364779 2.2364779,0 4.9921382,0 c 2.7556604,0 4.9921383,2.2364779 4.9921383,4.9921382 0,2.7556604 -2.2364779,4.9921383 -4.9921383,4.9921383 C 2.2364779,9.9842765 0,7.7477986 0,4.9921382 Z"
       copytype="single_stretched"
       prop_scale="1"
       scale_y_rel="false"
       spacing="0"
       normal_offset="0"
       tang_offset="0"
       prop_units="false"
       vertical_pattern="false"
       hide_knot="false"
       fuse_tolerance="0" />
  </defs>
  <g
     inkscape:label="Layer 1"
     inkscape:groupmode="layer"
     id="layer1"
     transform="translate(-48.39878,-51.425322)">
    <g
       aria-label="[0x0300]"
       id="text2830"
       style="font-size:13.5293px;line-height:1.25;font-family:'PragmataPro Mono Liga';-inkscape-font-specification:'PragmataPro Mono Liga, Normal';stroke-width:0.634184"
       transform="matrix(0.50079285,0,0,0.50079285,45.909447,35.730138)">
      <path
         d="M 8.8683841,79.045002 H 4.9707831 V 66.427345 h 3.897601 v 0.997521 H 6.1004268 v 10.622615 h 2.7679573 z"
         id="path44794" />
      <path
         d="m 10.87664,72.333201 q 0,-1.05037 0.673822,-3.47481 0.449215,-1.704375 1.988437,-1.704375 1.605283,0 2.054498,1.704375 0.673823,2.42444 0.673823,3.47481 0,1.043765 -0.673823,3.468205 -0.449215,1.704374 -2.054498,1.704374 -1.539222,0 -1.988437,-1.704374 -0.673822,-2.42444 -0.673822,-3.468205 z m 4.267542,0 q 0,-1.056976 -0.594549,-3.190748 -0.23782,-0.951279 -1.010734,-0.957885 -0.706853,0.0066 -0.944673,0.957885 -0.594549,2.133772 -0.594549,3.190748 0,1.056977 0.594549,3.197354 0.23782,0.951279 0.944673,0.957885 0.772914,-0.0066 1.010734,-0.957885 0.594549,-2.140377 0.594549,-3.197354 z m -0.66061,1.056977 h -0.693641 l -1.129644,-2.265894 h 0.693641 z"
         id="path44796" />
      <path
         d="m 19.325846,75.821224 q -0.528489,0.733277 -0.581337,1.55904 h -1.123038 l 0.01321,-0.257638 q 0.04624,-0.739883 0.845582,-1.862921 L 19.709,73.5223 18.652023,72.022714 q -0.799338,-1.116431 -0.845581,-1.869527 l -0.0066,-0.251032 h 1.123037 q 0.04624,0.812551 0.574731,1.559041 l 0.838976,1.175886 0.838975,-1.175886 q 0.528488,-0.74649 0.574731,-1.559041 h 1.123037 l -0.0066,0.251032 q -0.04624,0.753096 -0.845581,1.869527 l -1.063583,1.499586 1.235342,1.737405 q 0.799338,1.123038 0.845581,1.862921 l 0.01321,0.257638 H 21.92865 Q 21.8758,76.554501 21.347313,75.821224 L 20.33658,74.400912 Z"
         id="path44798" />
      <path
         d="m 24.405939,72.333201 q 0,-1.05037 0.673822,-3.47481 0.449215,-1.704375 1.988437,-1.704375 1.605284,0 2.054499,1.704375 0.673822,2.42444 0.673822,3.47481 0,1.043765 -0.673822,3.468205 -0.449215,1.704374 -2.054499,1.704374 -1.539222,0 -1.988437,-1.704374 -0.673822,-2.42444 -0.673822,-3.468205 z m 4.267543,0 q 0,-1.056976 -0.59455,-3.190748 -0.237819,-0.951279 -1.010734,-0.957885 -0.706853,0.0066 -0.944672,0.957885 -0.59455,2.133772 -0.59455,3.190748 0,1.056977 0.59455,3.197354 0.237819,0.951279 0.944672,0.957885 0.772915,-0.0066 1.010734,-0.957885 0.59455,-2.140377 0.59455,-3.197354 z m -0.660611,1.056977 H 27.31923 l -1.129643,-2.265894 h 0.693641 z"
         id="path44800" />
      <path
         d="m 31.124346,75.847648 0.918249,-0.614367 q 0.469033,1.255159 1.737405,1.255159 0.66061,0 1.096613,-0.455821 0.442609,-0.462427 0.442609,-1.625101 0,-1.096613 -0.521882,-1.49298 -0.515276,-0.396366 -1.208917,-0.396366 h -0.488852 v -0.957885 h 0.488852 q 0.587943,0 1.056976,-0.416184 0.469034,-0.422791 0.469034,-1.308009 0,-0.865399 -0.376548,-1.261766 -0.376548,-0.396366 -0.957885,-0.396366 -1.070189,0 -1.539222,1.25516 L 31.322529,68.82536 q 0.931461,-1.671344 2.464077,-1.671344 1.090007,0 1.770436,0.733278 0.687035,0.733277 0.687035,1.9488 0,1.625102 -1.341039,2.199833 1.545828,0.436002 1.545828,2.371591 0,1.519404 -0.753096,2.312136 -0.753096,0.786126 -1.909164,0.786126 -1.730799,0 -2.66226,-1.658132 z"
         id="path44802" />
      <path
         d="m 37.935239,72.333201 q 0,-1.05037 0.673823,-3.47481 0.449215,-1.704375 1.988437,-1.704375 1.605283,0 2.054498,1.704375 0.673823,2.42444 0.673823,3.47481 0,1.043765 -0.673823,3.468205 -0.449215,1.704374 -2.054498,1.704374 -1.539222,0 -1.988437,-1.704374 -0.673823,-2.42444 -0.673823,-3.468205 z m 4.267543,0 q 0,-1.056976 -0.594549,-3.190748 -0.23782,-0.951279 -1.010734,-0.957885 -0.706853,0.0066 -0.944673,0.957885 -0.594549,2.133772 -0.594549,3.190748 0,1.056977 0.594549,3.197354 0.23782,0.951279 0.944673,0.957885 0.772914,-0.0066 1.010734,-0.957885 0.594549,-2.140377 0.594549,-3.197354 z m -0.66061,1.056977 h -0.693641 l -1.129644,-2.265894 h 0.693641 z"
         id="path44804" />
      <path
         d="m 44.699888,72.333201 q 0,-1.05037 0.673822,-3.47481 0.449215,-1.704375 1.988438,-1.704375 1.605283,0 2.054498,1.704375 0.673822,2.42444 0.673822,3.47481 0,1.043765 -0.673822,3.468205 -0.449215,1.704374 -2.054498,1.704374 -1.539223,0 -1.988438,-1.704374 -0.673822,-2.42444 -0.673822,-3.468205 z m 4.267543,0 q 0,-1.056976 -0.59455,-3.190748 -0.237819,-0.951279 -1.010733,-0.957885 -0.706853,0.0066 -0.944673,0.957885 -0.59455,2.133772 -0.59455,3.190748 0,1.056977 0.59455,3.197354 0.23782,0.951279 0.944673,0.957885 0.772914,-0.0066 1.010733,-0.957885 0.59455,-2.140377 0.59455,-3.197354 z m -0.660611,1.056977 h -0.693641 l -1.129643,-2.265894 h 0.693641 z"
         id="path44806" />
      <path
         d="m 55.996327,79.045002 h -3.897601 v -0.997521 h 2.767957 V 67.424866 h -2.767957 v -0.997521 h 3.897601 z"
         id="path44808" />
    </g>
    <path
       style="fill:none;stroke:#000000;stroke-width:0.401;stroke-linecap:butt;stroke-linejoin:miter;stroke-opacity:1;stroke-miterlimit:4;stroke-dasharray:none"
       d="M 76.729168,65.078466 V 95.249997"
       id="path15858" />
    <path
       style="fill:none;stroke:#000000;stroke-width:0.401;stroke-linecap:butt;stroke-linejoin:miter;stroke-opacity:1;stroke-miterlimit:4;stroke-dasharray:none"
       d="M 134.9375,65.078466 V 95.249997"
       id="path15860" />
    <g
       aria-label="Address"
       id="text17765"
       style="font-size:13.5293px;line-height:1.25;font-family:'PragmataPro Mono Liga';-inkscape-font-specification:'PragmataPro Mono Liga, Normal';stroke-width:0.634184"
       transform="matrix(0.50079285,0,0,0.50079285,45.962183,36.185107)">
      <path
         d="m 11.312626,60.665555 v 0.561519 h -1.123037 v -0.561519 q 0,-1.446737 0.865399,-4.875304 l 1.162674,-4.644091 h 1.268372 l 1.162674,4.644091 q 0.8654,3.428567 0.8654,4.875304 v 0.561519 H 14.39107 v -0.561519 q 0,-0.680429 -0.191577,-1.79686 h -2.701896 q -0.184971,1.116431 -0.184971,1.79686 z m 1.539222,-7.735747 -0.838975,3.488022 q -0.198183,0.805945 -0.336911,1.49298 h 2.345167 Q 13.8824,57.223775 13.690823,56.41783 Z"
         id="path40212" />
      <path
         d="m 17.000481,56.972743 q 0,-1.790254 0.640792,-2.57638 0.640792,-0.786127 1.532616,-0.786127 1.149462,0 1.737405,1.043765 V 51.14616 h 1.123038 v 10.080914 h -1.123038 v -0.89843 q -0.587943,1.023946 -1.737405,1.023946 -0.891824,0 -1.532616,-0.779521 -0.640792,-0.77952 -0.640792,-2.569774 z m 1.156068,1.030552 q 0,1.301403 0.330306,1.816679 0.330305,0.515276 0.964491,0.515276 1.109825,0 1.459948,-1.486374 v -2.662259 q -0.343517,-1.559041 -1.459948,-1.559041 -0.634186,0 -0.964491,0.521883 -0.330306,0.515276 -0.330306,1.823284 z"
         id="path40214" />
      <path
         d="m 23.765131,56.972743 q 0,-1.790254 0.640792,-2.57638 0.640792,-0.786127 1.532616,-0.786127 1.149462,0 1.737405,1.043765 V 51.14616 h 1.123038 v 10.080914 h -1.123038 v -0.89843 q -0.587943,1.023946 -1.737405,1.023946 -0.891824,0 -1.532616,-0.779521 -0.640792,-0.77952 -0.640792,-2.569774 z m 1.156068,1.030552 q 0,1.301403 0.330305,1.816679 0.330306,0.515276 0.964492,0.515276 1.109825,0 1.459948,-1.486374 v -2.662259 q -0.343517,-1.559041 -1.459948,-1.559041 -0.634186,0 -0.964492,0.521883 -0.330305,0.515276 -0.330305,1.823284 z"
         id="path40216" />
      <path
         d="m 36.045877,55.01073 -0.977703,0.436003 q -0.330306,-0.819157 -1.116432,-0.819157 -1.651526,0 -1.651526,3.071838 v 3.52766 h -1.123037 v -7.478109 h 1.123037 v 1.195704 q 0.667217,-1.334433 1.829891,-1.334433 1.347645,0 1.91577,1.400494 z"
         id="path40218" />
      <path
         d="m 42.427373,57.712627 h -3.917419 v 0.224607 q 0,1.446737 0.422791,1.922376 0.429396,0.47564 1.149462,0.47564 0.924854,0 1.473161,-0.931461 l 0.911642,0.581337 q -0.858794,1.367464 -2.457471,1.367464 -1.142855,0 -1.882739,-0.819157 -0.739884,-0.819157 -0.739884,-2.596199 v -0.905036 q 0,-1.777042 0.739884,-2.596199 0.739884,-0.825763 1.783648,-0.825763 1.109825,0 1.810072,0.759702 0.706853,0.759702 0.706853,2.470683 z m -1.123037,-0.990916 q 0,-1.142856 -0.396367,-1.618495 -0.38976,-0.47564 -0.997521,-0.47564 -0.581337,0 -0.990916,0.47564 -0.409578,0.475639 -0.409578,1.618495 z"
         id="path40220" />
      <path
         d="m 46.701523,60.361674 q 0.700247,0 1.056976,-0.330305 0.363336,-0.336911 0.363336,-0.812551 0,-0.654004 -0.799339,-1.01734 l -1.44013,-0.66061 q -1.341039,-0.634186 -1.341039,-1.810072 0,-0.918249 0.66061,-1.519404 0.66061,-0.601156 1.704375,-0.601156 1.499585,0 2.298924,1.380676 l -0.918249,0.554913 q -0.416184,-0.938067 -1.380675,-0.938067 -0.574731,0 -0.911642,0.290669 -0.330306,0.290668 -0.330306,0.720065 0,0.574731 0.74649,0.93146 l 1.360857,0.634186 q 1.473161,0.680429 1.473161,2.087529 0,0.832369 -0.687034,1.459949 -0.687035,0.620974 -1.869528,0.620974 -1.651525,0 -2.582986,-1.52601 l 0.924854,-0.561519 q 0.548307,1.096613 1.671345,1.096613 z"
         id="path40222" />
      <path
         d="m 53.466171,60.361674 q 0.700247,0 1.056977,-0.330305 0.363335,-0.336911 0.363335,-0.812551 0,-0.654004 -0.799338,-1.01734 l -1.440131,-0.66061 q -1.341039,-0.634186 -1.341039,-1.810072 0,-0.918249 0.660611,-1.519404 0.66061,-0.601156 1.704374,-0.601156 1.499586,0 2.298924,1.380676 l -0.918248,0.554913 q -0.416185,-0.938067 -1.380676,-0.938067 -0.574731,0 -0.911642,0.290669 -0.330305,0.290668 -0.330305,0.720065 0,0.574731 0.746489,0.93146 l 1.360858,0.634186 q 1.473161,0.680429 1.473161,2.087529 0,0.832369 -0.687035,1.459949 -0.687035,0.620974 -1.869527,0.620974 -1.651526,0 -2.582987,-1.52601 l 0.924855,-0.561519 q 0.548306,1.096613 1.671344,1.096613 z"
         id="path40224" />
    </g>
    <g
       aria-label="Object"
       id="text21119"
       style="font-size:13.5293px;line-height:1.25;font-family:'PragmataPro Mono Liga';-inkscape-font-specification:'PragmataPro Mono Liga, Normal';stroke-width:0.634184"
       transform="matrix(0.50079285,0,0,0.50079285,70.664277,36.116707)">
      <path
         d="m 133.2515,73.991339 v -3.976874 q 0,-1.658132 0.68704,-2.42444 0.69364,-0.766308 1.79025,-0.766308 1.09661,0 1.78365,0.766308 0.69364,0.766308 0.69364,2.42444 v 3.976874 q 0,1.651526 -0.69364,2.417834 -0.68704,0.766308 -1.78365,0.766308 -1.09661,-0.0066 -1.79025,-0.766308 -0.68704,-0.766308 -0.68704,-2.417834 z m 1.12965,0 q 0,1.248554 0.35012,1.710981 0.35673,0.455821 0.99091,0.455821 0.63419,0 0.99092,-0.462427 0.36334,-0.462428 0.36334,-1.704375 v -3.976874 q 0,-1.241948 -0.36334,-1.704375 -0.35673,-0.462427 -0.99092,-0.462427 -0.63418,0 -0.99091,0.462427 -0.35012,0.455821 -0.35012,1.704375 z"
         id="path40242" />
      <path
         d="m 145.10946,73.826186 q 0,1.790254 -0.64079,2.569775 -0.6408,0.77952 -1.53262,0.77952 -1.14946,0 -1.73741,-1.023946 v 0.89843 h -1.12303 V 66.969051 h 1.12303 v 3.507841 q 0.58795,-1.043764 1.73741,-1.043764 0.89182,0 1.53262,0.786126 0.64079,0.786126 0.64079,2.57638 z m -1.15607,0 v -1.030552 q 0,-1.308008 -0.33031,-1.823284 -0.3303,-0.521882 -0.96449,-0.521882 -1.11643,0 -1.45995,1.492979 v 2.728321 q 0.35013,1.486373 1.45995,1.486373 0.63419,0 0.96449,-0.515276 0.33031,-0.515276 0.33031,-1.816679 z"
         id="path40244" />
      <path
         d="m 150.69822,67.035112 q 0,0.35673 -0.25103,0.614368 -0.24443,0.251032 -0.60776,0.251032 -0.37655,0 -0.62098,-0.251032 -0.24442,-0.257638 -0.24442,-0.614368 0,-0.356729 0.24442,-0.607761 0.24443,-0.257638 0.62098,-0.257638 0.36333,0 0.60776,0.257638 0.25103,0.251032 0.25103,0.607761 z m -1.22213,9.440122 v -5.945493 h -1.28158 v -0.957885 h 2.41123 v 6.903378 q 0,1.393888 -0.69365,2.180014 -0.68703,0.786126 -1.80346,0.786126 -1.25516,0 -2.1668,-1.05037 l 0.77291,-0.726671 q 0.5417,0.759701 1.32122,0.759701 0.66061,0 1.05037,-0.449215 0.38976,-0.442609 0.38976,-1.499585 z"
         id="path40246" />
      <path
         d="m 158.53967,73.535518 h -3.91742 v 0.224607 q 0,1.446737 0.42279,1.922377 0.42939,0.475639 1.14946,0.475639 0.92485,0 1.47316,-0.931461 l 0.91164,0.581337 q -0.85879,1.367464 -2.45747,1.367464 -1.14285,0 -1.88274,-0.819157 -0.73988,-0.819157 -0.73988,-2.596199 v -0.905036 q 0,-1.777042 0.73988,-2.596198 0.73989,-0.825763 1.78365,-0.825763 1.10983,0 1.81007,0.759702 0.70686,0.759701 0.70686,2.470682 z m -1.12304,-0.990916 q 0,-1.142855 -0.39637,-1.618495 -0.38976,-0.475639 -0.99752,-0.475639 -0.58134,0 -0.99092,0.475639 -0.40957,0.47564 -0.40957,1.618495 z"
         id="path40248" />
      <path
         d="m 165.6082,75.808017 q -0.8588,1.367464 -2.45747,1.367464 -1.14947,0 -1.88935,-0.819157 -0.73988,-0.819157 -0.73988,-2.589592 v -0.924855 q 0,-1.76383 0.73988,-2.582986 0.73988,-0.825763 1.88935,-0.825763 1.59867,0 2.45747,1.380675 l -0.91165,0.574731 q -0.55491,-0.938066 -1.47976,-0.938066 -0.71346,0 -1.14286,0.475639 -0.42279,0.47564 -0.42279,1.91577 v 0.924855 q 0,1.44013 0.42279,1.91577 0.4294,0.475639 1.14286,0.475639 0.92485,0 1.47976,-0.931461 z"
         id="path40250" />
      <path
         d="m 172.4257,76.006201 q -0.78613,1.16928 -2.10075,1.16928 -0.872,0 -1.46655,-0.587943 -0.58794,-0.59455 -0.58794,-1.750618 v -4.307179 h -1.25516 v -0.957885 h 1.25516 v -2.602805 h 1.12303 v 2.602805 h 2.52354 v 0.957885 h -2.52354 v 4.379846 q 0,0.614368 0.26425,0.931461 0.26424,0.317093 0.73328,0.317093 0.77952,0 1.18249,-0.772914 z"
         id="path40252" />
    </g>
    <g
       aria-label="Value: 5"
       id="text24735"
       style="font-size:13.5293px;line-height:1.25;font-family:'PragmataPro Mono Liga';-inkscape-font-specification:'PragmataPro Mono Liga, Normal';stroke-width:0.634184"
       transform="matrix(0.50079285,0,0,0.50079285,57.341477,35.728143)">
      <path
         d="m 70.537881,41.46962 -1.248554,-4.644091 q -0.845581,-3.118081 -0.845581,-4.875304 v -0.561519 h 1.129643 v 0.561519 q 0,1.453343 0.634186,4.181663 l 0.964491,4.075966 0.964492,-4.075966 q 0.634185,-2.72832 0.634185,-4.181663 v -0.561519 h 1.123038 v 0.561519 q 0,1.757223 -0.838975,4.875304 l -1.248554,4.644091 z"
         id="path40227" />
      <path
         d="m 80.196004,41.46962 h -1.123038 v -0.845581 q -0.713459,0.971097 -1.803466,0.971097 -0.918248,0 -1.486373,-0.62758 -0.561519,-0.62758 -0.561519,-1.578859 0,-0.977703 0.706853,-1.638313 0.706853,-0.660611 2.074316,-0.660611 h 1.070189 v -0.805944 q 0,-1.413707 -1.341039,-1.413707 -0.990915,0 -1.479767,0.872006 l -0.852187,-0.634186 q 0.885217,-1.255159 2.33856,-1.255159 1.076795,0 1.76383,0.614367 0.693641,0.614368 0.693641,1.816679 z m -1.123038,-1.757224 v -1.717587 h -1.070189 q -0.805944,0 -1.215523,0.376548 -0.409578,0.376548 -0.409578,1.01734 0,1.189099 1.16928,1.189099 0.918249,0 1.52601,-0.8654 z"
         id="path40229" />
      <path
         d="m 87.191867,41.46962 h -2.358379 q -0.957885,0 -0.957885,-0.957885 V 32.346591 H 81.99947 v -0.957885 h 3.005777 v 9.123029 h 2.18662 z"
         id="path40231" />
      <path
         d="m 93.890456,41.46962 h -1.123038 v -0.971097 q -0.720065,1.096613 -1.744011,1.096613 -0.832369,0 -1.4071,-0.62758 -0.574731,-0.62758 -0.574731,-2.252681 v -4.723364 h 1.123037 v 4.723364 q 0,1.090007 0.303881,1.479767 0.303881,0.383154 0.832369,0.383154 1.109825,0 1.466555,-1.459949 v -5.126336 h 1.123038 z"
         id="path40233" />
      <path
         d="m 100.74759,37.955173 h -3.917418 v 0.224607 q 0,1.446737 0.422791,1.922376 0.429396,0.47564 1.149462,0.47564 0.924854,0 1.473161,-0.931461 l 0.911644,0.581337 q -0.858796,1.367464 -2.457473,1.367464 -1.142855,0 -1.882739,-0.819157 -0.739884,-0.819157 -0.739884,-2.596199 v -0.905036 q 0,-1.777042 0.739884,-2.596199 0.739884,-0.825762 1.783648,-0.825762 1.109825,0 1.810074,0.759701 0.70685,0.759702 0.70685,2.470683 z m -1.123036,-0.990916 q 0,-1.142856 -0.396366,-1.618495 -0.389761,-0.47564 -0.997522,-0.47564 -0.581337,0 -0.990916,0.47564 -0.409578,0.475639 -0.409578,1.618495 z"
         id="path40235" />
      <path
         d="m 106.29672,35.154185 q 0,0.515276 -0.37655,0.905036 -0.36994,0.38976 -0.93146,0.38976 -0.56812,0 -0.93146,-0.38976 -0.35673,-0.38976 -0.35673,-0.905036 0,-0.515276 0.35673,-0.905036 0.36334,-0.396366 0.93146,-0.396366 0.56152,0 0.93146,0.396366 0.37655,0.396366 0.37655,0.905036 z m 0,5.146154 q 0,0.515277 -0.37655,0.905037 -0.36994,0.38976 -0.93146,0.38976 -0.56812,0 -0.93146,-0.38976 -0.35673,-0.38976 -0.35673,-0.905037 0,-0.50867 0.35673,-0.905036 0.36334,-0.396366 0.93146,-0.396366 0.56152,0 0.93146,0.402972 0.37655,0.396367 0.37655,0.89843 z"
         id="path40237" />
      <path
         d="m 121.02172,38.325115 q 0,1.55904 -0.75309,2.417833 -0.7531,0.852188 -1.8365,0.852188 -1.63831,0 -2.46408,-1.552435 l 0.91825,-0.607761 q 0.46904,1.142856 1.53923,1.142856 0.58133,0 1.02394,-0.521882 0.44261,-0.521883 0.44261,-1.730799 0,-1.228736 -0.436,-1.717587 -0.43601,-0.488852 -1.41371,-0.488852 h -1.49298 v -4.72997 h 4.26094 v 0.957885 h -3.1379 v 2.754745 h 0.56812 q 1.24856,0 2.01487,0.753096 0.7663,0.74649 0.7663,2.470683 z"
         id="path40239" />
    </g>
    <g
       aria-label="..."
       id="text31327"
       style="font-size:13.5293px;line-height:1.25;font-family:'PragmataPro Mono Liga';-inkscape-font-specification:'PragmataPro Mono Liga, Normal';stroke-width:0.634184"
       transform="matrix(0.50079285,0,0,0.50079285,58.427789,35.722461)">
      <path
         d="m 90.305213,88.471398 q 0,0.515276 -0.376548,0.905036 -0.369941,0.38976 -0.93146,0.38976 -0.568125,0 -0.931461,-0.38976 -0.356729,-0.38976 -0.356729,-0.905036 0,-0.50867 0.356729,-0.905036 0.363336,-0.396366 0.931461,-0.396366 0.561519,0 0.93146,0.402972 0.376548,0.396366 0.376548,0.89843 z"
         id="path91295" />
      <path
         d="m 96.085554,88.471398 q 0,0.515276 -0.376548,0.905036 -0.369942,0.38976 -0.931461,0.38976 -0.568125,0 -0.93146,-0.38976 -0.35673,-0.38976 -0.35673,-0.905036 0,-0.50867 0.35673,-0.905036 0.363335,-0.396366 0.93146,-0.396366 0.561519,0 0.931461,0.402972 0.376548,0.396366 0.376548,0.89843 z"
         id="path91297" />
      <path
         d="m 101.86589,88.471398 q 0,0.515276 -0.37654,0.905036 -0.36995,0.38976 -0.93146,0.38976 -0.568129,0 -0.931465,-0.38976 -0.356729,-0.38976 -0.356729,-0.905036 0,-0.50867 0.356729,-0.905036 0.363336,-0.396366 0.931465,-0.396366 0.56151,0 0.93146,0.402972 0.37654,0.396366 0.37654,0.89843 z"
         id="path91299" />
    </g>
    <g
       aria-label="..."
       id="text31327-2"
       style="font-size:13.5293px;line-height:1.25;font-family:'PragmataPro Mono Liga';-inkscape-font-specification:'PragmataPro Mono Liga, Normal';stroke-width:0.634184"
       transform="matrix(0.50079285,0,0,0.50079285,58.427789,35.588486)">
      <path
         d="m 90.305213,57.019055 q 0,0.515276 -0.376548,0.905036 -0.369941,0.38976 -0.93146,0.38976 -0.568125,0 -0.931461,-0.38976 -0.356729,-0.38976 -0.356729,-0.905036 0,-0.50867 0.356729,-0.905036 0.363336,-0.396366 0.931461,-0.396366 0.561519,0 0.93146,0.402972 0.376548,0.396366 0.376548,0.89843 z"
         id="path91270" />
      <path
         d="m 96.085554,57.019055 q 0,0.515276 -0.376548,0.905036 -0.369942,0.38976 -0.931461,0.38976 -0.568125,0 -0.93146,-0.38976 -0.35673,-0.38976 -0.35673,-0.905036 0,-0.50867 0.35673,-0.905036 0.363335,-0.396366 0.93146,-0.396366 0.561519,0 0.931461,0.402972 0.376548,0.396366 0.376548,0.89843 z"
         id="path91272" />
      <path
         d="m 101.86589,57.019055 q 0,0.515276 -0.37654,0.905036 -0.36995,0.38976 -0.93146,0.38976 -0.568129,0 -0.931465,-0.38976 -0.356729,-0.38976 -0.356729,-0.905036 0,-0.50867 0.356729,-0.905036 0.363336,-0.396366 0.931465,-0.396366 0.56151,0 0.93146,0.402972 0.37654,0.396366 0.37654,0.89843 z"
         id="path91274" />
    </g>
    <g
       aria-label="Reference"
       id="text35355"
       style="font-size:13.5293px;line-height:1.25;font-family:'PragmataPro Mono Liga';-inkscape-font-specification:'PragmataPro Mono Liga, Normal';stroke-width:0.634184"
       transform="matrix(0.50079285,0,0,0.50079285,70.616652,35.468413)">
      <path
         d="m 135.63891,105.0302 h -1.16928 v 4.59785 H 133.3466 V 99.547138 h 2.19983 q 1.34104,0 1.99504,0.726672 0.65401,0.72667 0.65401,1.9488 0,1.03716 -0.42279,1.70437 -0.41619,0.66722 -1.03716,0.89843 l 0.11891,0.18498 q 1.25516,1.9554 1.38728,4.16845 l 0.0264,0.44921 h -1.12303 l -0.0198,-0.35012 q -0.12552,-2.11395 -1.32122,-3.97688 z m -1.16928,-0.95128 h 1.07019 q 0.77952,0 1.13625,-0.46242 0.35673,-0.46243 0.35673,-1.4005 0,-0.92485 -0.35673,-1.31461 -0.35673,-0.39637 -1.13625,-0.39637 h -1.07019 z"
         id="path40255" />
      <path
         d="m 144.79497,106.1136 h -3.91742 v 0.22461 q 0,1.44674 0.42279,1.92238 0.4294,0.47564 1.14947,0.47564 0.92485,0 1.47316,-0.93146 l 0.91164,0.58133 q -0.85879,1.36747 -2.45747,1.36747 -1.14286,0 -1.88274,-0.81916 -0.73988,-0.81916 -0.73988,-2.5962 v -0.90503 q 0,-1.77705 0.73988,-2.5962 0.73988,-0.82577 1.78365,-0.82577 1.10982,0 1.81007,0.75971 0.70685,0.7597 0.70685,2.47068 z m -1.12303,-0.99091 q 0,-1.14286 -0.39637,-1.6185 -0.38976,-0.47564 -0.99752,-0.47564 -0.58134,0 -0.99092,0.47564 -0.40958,0.47564 -0.40958,1.6185 z"
         id="path40257" />
      <path
         d="m 151.00471,101.00048 q -0.26424,-0.56812 -0.9777,-0.56812 -0.46904,0 -0.73328,0.30388 -0.25764,0.29727 -0.25764,1.07679 v 0.7531 h 2.51693 v 0.95788 h -2.51693 v 6.10404 h -1.12964 v -6.10404 h -1.25516 v -0.95788 h 1.25516 v -0.68704 q 0,-1.27498 0.59455,-1.86952 0.59455,-0.60116 1.45334,-0.60116 1.32122,0 1.89595,0.91164 z"
         id="path40259" />
      <path
         d="m 158.32427,106.1136 h -3.91742 v 0.22461 q 0,1.44674 0.42279,1.92238 0.4294,0.47564 1.14947,0.47564 0.92485,0 1.47316,-0.93146 l 0.91164,0.58133 q -0.85879,1.36747 -2.45747,1.36747 -1.14286,0 -1.88274,-0.81916 -0.73988,-0.81916 -0.73988,-2.5962 v -0.90503 q 0,-1.77705 0.73988,-2.5962 0.73988,-0.82577 1.78365,-0.82577 1.10982,0 1.81007,0.75971 0.70685,0.7597 0.70685,2.47068 z m -1.12304,-0.99091 q 0,-1.14286 -0.39636,-1.6185 -0.38976,-0.47564 -0.99752,-0.47564 -0.58134,0 -0.99092,0.47564 -0.40958,0.47564 -0.40958,1.6185 z"
         id="path40261" />
      <path
         d="m 165.47208,103.41171 -0.97771,0.436 q -0.3303,-0.81916 -1.11643,-0.81916 -1.65152,0 -1.65152,3.07184 v 3.52766 h -1.12304 v -7.47811 h 1.12304 v 1.19571 q 0.66721,-1.33444 1.82989,-1.33444 1.34764,0 1.91577,1.4005 z"
         id="path40263" />
      <path
         d="m 171.85357,106.1136 h -3.91742 v 0.22461 q 0,1.44674 0.42279,1.92238 0.4294,0.47564 1.14947,0.47564 0.92485,0 1.47316,-0.93146 l 0.91164,0.58133 q -0.85879,1.36747 -2.45747,1.36747 -1.14286,0 -1.88274,-0.81916 -0.73988,-0.81916 -0.73988,-2.5962 v -0.90503 q 0,-1.77705 0.73988,-2.5962 0.73988,-0.82577 1.78365,-0.82577 1.10982,0 1.81007,0.75971 0.70685,0.7597 0.70685,2.47068 z m -1.12303,-0.99091 q 0,-1.14286 -0.39637,-1.6185 -0.38976,-0.47564 -0.99752,-0.47564 -0.58134,0 -0.99092,0.47564 -0.40958,0.47564 -0.40958,1.6185 z"
         id="path40265" />
      <path
         d="m 178.52574,109.62805 h -1.12304 v -4.84888 q 0,-0.9711 -0.30388,-1.34764 -0.30388,-0.38316 -0.83237,-0.38316 -1.10983,0 -1.46656,1.51941 v 5.06027 h -1.12303 v -7.47811 h 1.12303 v 0.95789 q 0.72007,-1.09662 1.74402,-1.09662 0.83236,0 1.4071,0.62098 0.57473,0.61437 0.57473,2.08092 z"
         id="path40267" />
      <path
         d="m 185.68675,108.3861 q -0.85879,1.36747 -2.45747,1.36747 -1.14946,0 -1.88934,-0.81916 -0.73989,-0.81916 -0.73989,-2.58959 v -0.92486 q 0,-1.76383 0.73989,-2.58298 0.73988,-0.82577 1.88934,-0.82577 1.59868,0 2.45747,1.38068 l -0.91164,0.57473 q -0.55491,-0.93807 -1.47976,-0.93807 -0.71346,0 -1.14286,0.47564 -0.42279,0.47564 -0.42279,1.91577 v 0.92486 q 0,1.44013 0.42279,1.91577 0.4294,0.47564 1.14286,0.47564 0.92485,0 1.47976,-0.93146 z"
         id="path40269" />
      <path
         d="m 192.14752,106.1136 h -3.91742 v 0.22461 q 0,1.44674 0.42279,1.92238 0.4294,0.47564 1.14947,0.47564 0.92485,0 1.47316,-0.93146 l 0.91164,0.58133 q -0.85879,1.36747 -2.45747,1.36747 -1.14286,0 -1.88274,-0.81916 -0.73988,-0.81916 -0.73988,-2.5962 v -0.90503 q 0,-1.77705 0.73988,-2.5962 0.73988,-0.82577 1.78365,-0.82577 1.10982,0 1.81007,0.75971 0.70685,0.7597 0.70685,2.47068 z m -1.12304,-0.99091 q 0,-1.14286 -0.39636,-1.6185 -0.38976,-0.47564 -0.99752,-0.47564 -0.58134,0 -0.99092,0.47564 -0.40958,0.47564 -0.40958,1.6185 z"
         id="path40271" />
    </g>
    <path
       style="fill:none;stroke:#000000;stroke-width:0.401;stroke-linecap:butt;stroke-linejoin:miter;stroke-miterlimit:4;stroke-dasharray:none;stroke-opacity:1;marker-end:url(#Arrow1Mend)"
       d="m 76.729168,87.312495 c -3.616563,-0.351791 -7.233418,-0.70361 -9.042094,-2.202725 -1.808675,-1.499114 -1.808675,-4.145684 -0.112033,-5.736363 1.696643,-1.590678 5.089661,-2.125045 8.482417,-2.65937"
       id="path35965"
       inkscape:original-d="m 76.729168,87.312495 c -3.616586,-0.351554 -7.233441,-0.703374 -10.850769,-1.055478 3.17e-4,-2.646361 3.17e-4,-5.292931 0,-7.93988 3.393332,-0.53411 6.78635,-1.068476 10.179059,-1.6031"
       inkscape:path-effect="#path-effect35967"
       sodipodi:nodetypes="cccc" />
    <text
       xml:space="preserve"
       style="font-style:normal;font-variant:normal;font-weight:normal;font-stretch:normal;font-size:5.64444px;line-height:1.25;font-family:'PragmataPro Liga';-inkscape-font-specification:'PragmataPro Liga, Normal';font-variant-ligatures:normal;font-variant-caps:normal;font-variant-numeric:normal;font-variant-east-asian:normal;stroke-width:0.264583"
       x="113.77084"
       y="71.4375"
       id="text4501"><tspan
         sodipodi:role="line"
         id="tspan4499"
         style="font-style:normal;font-variant:normal;font-weight:normal;font-stretch:normal;font-size:5.64444px;font-family:'PragmataPro Liga';-inkscape-font-specification:'PragmataPro Liga, Normal';font-variant-ligatures:normal;font-variant-caps:normal;font-variant-numeric:normal;font-variant-east-asian:normal;stroke-width:0.264583"
         x="113.77084"
         y="71.4375" /></text>
    <path
       style="fill:none;fill-rule:evenodd;stroke:#000000;stroke-width:0.264583px;stroke-linecap:butt;stroke-linejoin:miter;stroke-opacity:1"
       d="m 113.77083,71.437497 v 0"
       id="path5999"
       inkscape:connector-type="polyline"
       inkscape:connector-curvature="0" />
    <text
       xml:space="preserve"
       style="font-style:normal;font-variant:normal;font-weight:normal;font-stretch:normal;font-size:5.64444px;line-height:1.25;font-family:'PragmataPro Liga';-inkscape-font-specification:'PragmataPro Liga, Normal';font-variant-ligatures:normal;font-variant-caps:normal;font-variant-numeric:normal;font-variant-east-asian:normal;stroke-width:0.264583"
       x="111.125"
       y="75.40625"
       id="text7501"><tspan
         sodipodi:role="line"
         id="tspan8317"
         x="111.125"
         y="75.40625"></tspan></text>
    <g
       aria-label="00000011"
       id="text9993-0-0"
       style="font-size:4.23333px;line-height:1.25;stroke-width:0.264583">
      <path
         d="m 108.59918,87.975505 q 0,-0.492993 0.31626,-1.630908 0.21084,-0.799951 0.93328,-0.799951 0.75344,0 0.96428,0.799951 0.31626,1.137915 0.31626,1.630908 0,0.489893 -0.31626,1.627808 -0.21084,0.799951 -0.96428,0.799951 -0.72244,0 -0.93328,-0.799951 -0.31626,-1.137915 -0.31626,-1.627808 z m 2.00298,0 q 0,-0.496094 -0.27906,-1.497583 -0.11162,-0.446484 -0.47438,-0.449585 -0.33177,0.0031 -0.44339,0.449585 -0.27905,1.001489 -0.27905,1.497583 0,0.496094 0.27905,1.500684 0.11162,0.446484 0.44339,0.449585 0.36276,-0.0031 0.47438,-0.449585 0.27906,-1.00459 0.27906,-1.500684 z m -0.31006,0.496094 h -0.32556 l -0.5302,-1.063501 h 0.32556 z"
         style="font-size:6.35px;font-family:'PragmataPro Liga';-inkscape-font-specification:'PragmataPro Liga, Normal'"
         id="path43202" />
      <path
         d="m 111.77418,87.975505 q 0,-0.492993 0.31626,-1.630908 0.21084,-0.799951 0.93328,-0.799951 0.75344,0 0.96428,0.799951 0.31626,1.137915 0.31626,1.630908 0,0.489893 -0.31626,1.627808 -0.21084,0.799951 -0.96428,0.799951 -0.72244,0 -0.93328,-0.799951 -0.31626,-1.137915 -0.31626,-1.627808 z m 2.00298,0 q 0,-0.496094 -0.27906,-1.497583 -0.11162,-0.446484 -0.47438,-0.449585 -0.33177,0.0031 -0.44339,0.449585 -0.27905,1.001489 -0.27905,1.497583 0,0.496094 0.27905,1.500684 0.11162,0.446484 0.44339,0.449585 0.36276,-0.0031 0.47438,-0.449585 0.27906,-1.00459 0.27906,-1.500684 z m -0.31006,0.496094 h -0.32556 l -0.5302,-1.063501 h 0.32556 z"
         style="font-size:6.35px;font-family:'PragmataPro Liga';-inkscape-font-specification:'PragmataPro Liga, Normal'"
         id="path43204" />
      <path
         d="m 114.94918,87.975505 q 0,-0.492993 0.31626,-1.630908 0.21084,-0.799951 0.93328,-0.799951 0.75344,0 0.96428,0.799951 0.31626,1.137915 0.31626,1.630908 0,0.489893 -0.31626,1.627808 -0.21084,0.799951 -0.96428,0.799951 -0.72244,0 -0.93328,-0.799951 -0.31626,-1.137915 -0.31626,-1.627808 z m 2.00298,0 q 0,-0.496094 -0.27906,-1.497583 -0.11162,-0.446484 -0.47438,-0.449585 -0.33177,0.0031 -0.44339,0.449585 -0.27905,1.001489 -0.27905,1.497583 0,0.496094 0.27905,1.500684 0.11162,0.446484 0.44339,0.449585 0.36276,-0.0031 0.47438,-0.449585 0.27906,-1.00459 0.27906,-1.500684 z m -0.31006,0.496094 h -0.32556 l -0.5302,-1.063501 h 0.32556 z"
         style="font-size:6.35px;font-family:'PragmataPro Liga';-inkscape-font-specification:'PragmataPro Liga, Normal'"
         id="path43206" />
      <path
         d="m 118.12418,87.975505 q 0,-0.492993 0.31626,-1.630908 0.21084,-0.799951 0.93327,-0.799951 0.75345,0 0.96429,0.799951 0.31626,1.137915 0.31626,1.630908 0,0.489893 -0.31626,1.627808 -0.21084,0.799951 -0.96429,0.799951 -0.72243,0 -0.93327,-0.799951 -0.31626,-1.137915 -0.31626,-1.627808 z m 2.00298,0 q 0,-0.496094 -0.27906,-1.497583 -0.11162,-0.446484 -0.47439,-0.449585 -0.33176,0.0031 -0.44338,0.449585 -0.27905,1.001489 -0.27905,1.497583 0,0.496094 0.27905,1.500684 0.11162,0.446484 0.44338,0.449585 0.36277,-0.0031 0.47439,-0.449585 0.27906,-1.00459 0.27906,-1.500684 z m -0.31006,0.496094 h -0.32556 l -0.5302,-1.063501 h 0.32556 z"
         style="font-size:6.35px;font-family:'PragmataPro Liga';-inkscape-font-specification:'PragmataPro Liga, Normal'"
         id="path43208" />
      <path
         d="m 121.29918,87.975505 q 0,-0.492993 0.31626,-1.630908 0.21084,-0.799951 0.93327,-0.799951 0.75345,0 0.96429,0.799951 0.31626,1.137915 0.31626,1.630908 0,0.489893 -0.31626,1.627808 -0.21084,0.799951 -0.96429,0.799951 -0.72243,0 -0.93327,-0.799951 -0.31626,-1.137915 -0.31626,-1.627808 z m 2.00298,0 q 0,-0.496094 -0.27906,-1.497583 -0.11162,-0.446484 -0.47439,-0.449585 -0.33176,0.0031 -0.44338,0.449585 -0.27905,1.001489 -0.27905,1.497583 0,0.496094 0.27905,1.500684 0.11162,0.446484 0.44338,0.449585 0.36277,-0.0031 0.47439,-0.449585 0.27906,-1.00459 0.27906,-1.500684 z m -0.31006,0.496094 h -0.32556 l -0.5302,-1.063501 h 0.32556 z"
         style="font-size:6.35px;font-family:'PragmataPro Liga';-inkscape-font-specification:'PragmataPro Liga, Normal'"
         id="path43210" />
      <path
         d="m 124.47418,87.975505 q 0,-0.492993 0.31626,-1.630908 0.21084,-0.799951 0.93328,-0.799951 0.75344,0 0.96428,0.799951 0.31626,1.137915 0.31626,1.630908 0,0.489893 -0.31626,1.627808 -0.21084,0.799951 -0.96428,0.799951 -0.72244,0 -0.93328,-0.799951 -0.31626,-1.137915 -0.31626,-1.627808 z m 2.00298,0 q 0,-0.496094 -0.27906,-1.497583 -0.11162,-0.446484 -0.47438,-0.449585 -0.33177,0.0031 -0.44339,0.449585 -0.27905,1.001489 -0.27905,1.497583 0,0.496094 0.27905,1.500684 0.11162,0.446484 0.44339,0.449585 0.36276,-0.0031 0.47438,-0.449585 0.27906,-1.00459 0.27906,-1.500684 z m -0.31006,0.496094 h -0.32556 l -0.5302,-1.063501 h 0.32556 z"
         style="font-size:6.35px;font-family:'PragmataPro Liga';-inkscape-font-specification:'PragmataPro Liga, Normal'"
         id="path43212" />
      <path
         d="m 129.01034,90.344353 v -4.095874 l -0.88987,0.697632 -0.23875,-0.403077 1.18753,-0.930175 h 0.47129 v 4.731494 z"
         style="font-size:6.35px;font-family:'PragmataPro Liga';-inkscape-font-specification:'PragmataPro Liga, Normal'"
         id="path43214" />
      <path
         d="m 132.18534,90.344353 v -4.095874 l -0.88987,0.697632 -0.23875,-0.403077 1.18753,-0.930175 h 0.47129 v 4.731494 z"
         style="font-size:6.35px;font-family:'PragmataPro Liga';-inkscape-font-specification:'PragmataPro Liga, Normal'"
         id="path43216" />
    </g>
    <g
       aria-label="00000000"
       id="text9993-0-1"
       style="font-size:4.23333px;line-height:1.25;stroke-width:0.264583">
      <path
         d="m 108.27982,72.100505 q 0,-0.492993 0.31626,-1.630908 0.21084,-0.799951 0.93328,-0.799951 0.75344,0 0.96428,0.799951 0.31626,1.137915 0.31626,1.630908 0,0.489893 -0.31626,1.627808 -0.21084,0.799951 -0.96428,0.799951 -0.72244,0 -0.93328,-0.799951 -0.31626,-1.137915 -0.31626,-1.627808 z m 2.00298,0 q 0,-0.496094 -0.27905,-1.497583 -0.11163,-0.446484 -0.47439,-0.449585 -0.33177,0.0031 -0.44339,0.449585 -0.27905,1.001489 -0.27905,1.497583 0,0.496094 0.27905,1.500684 0.11162,0.446484 0.44339,0.449585 0.36276,-0.0031 0.47439,-0.449585 0.27905,-1.00459 0.27905,-1.500684 z m -0.31006,0.496094 h -0.32556 l -0.5302,-1.063501 h 0.32556 z"
         style="font-size:6.35px;font-family:'PragmataPro Liga';-inkscape-font-specification:'PragmataPro Liga, Normal'"
         id="path43185" />
      <path
         d="m 111.45482,72.100505 q 0,-0.492993 0.31626,-1.630908 0.21084,-0.799951 0.93328,-0.799951 0.75344,0 0.96428,0.799951 0.31626,1.137915 0.31626,1.630908 0,0.489893 -0.31626,1.627808 -0.21084,0.799951 -0.96428,0.799951 -0.72244,0 -0.93328,-0.799951 -0.31626,-1.137915 -0.31626,-1.627808 z m 2.00298,0 q 0,-0.496094 -0.27905,-1.497583 -0.11163,-0.446484 -0.47439,-0.449585 -0.33177,0.0031 -0.44339,0.449585 -0.27905,1.001489 -0.27905,1.497583 0,0.496094 0.27905,1.500684 0.11162,0.446484 0.44339,0.449585 0.36276,-0.0031 0.47439,-0.449585 0.27905,-1.00459 0.27905,-1.500684 z m -0.31006,0.496094 h -0.32556 l -0.5302,-1.063501 h 0.32556 z"
         style="font-size:6.35px;font-family:'PragmataPro Liga';-inkscape-font-specification:'PragmataPro Liga, Normal'"
         id="path43187" />
      <path
         d="m 114.62982,72.100505 q 0,-0.492993 0.31626,-1.630908 0.21084,-0.799951 0.93328,-0.799951 0.75344,0 0.96428,0.799951 0.31626,1.137915 0.31626,1.630908 0,0.489893 -0.31626,1.627808 -0.21084,0.799951 -0.96428,0.799951 -0.72244,0 -0.93328,-0.799951 -0.31626,-1.137915 -0.31626,-1.627808 z m 2.00298,0 q 0,-0.496094 -0.27905,-1.497583 -0.11163,-0.446484 -0.47439,-0.449585 -0.33177,0.0031 -0.44339,0.449585 -0.27905,1.001489 -0.27905,1.497583 0,0.496094 0.27905,1.500684 0.11162,0.446484 0.44339,0.449585 0.36276,-0.0031 0.47439,-0.449585 0.27905,-1.00459 0.27905,-1.500684 z m -0.31006,0.496094 h -0.32556 l -0.5302,-1.063501 h 0.32556 z"
         style="font-size:6.35px;font-family:'PragmataPro Liga';-inkscape-font-specification:'PragmataPro Liga, Normal'"
         id="path43189" />
      <path
         d="m 117.80482,72.100505 q 0,-0.492993 0.31626,-1.630908 0.21084,-0.799951 0.93328,-0.799951 0.75344,0 0.96428,0.799951 0.31626,1.137915 0.31626,1.630908 0,0.489893 -0.31626,1.627808 -0.21084,0.799951 -0.96428,0.799951 -0.72244,0 -0.93328,-0.799951 -0.31626,-1.137915 -0.31626,-1.627808 z m 2.00298,0 q 0,-0.496094 -0.27905,-1.497583 -0.11163,-0.446484 -0.47439,-0.449585 -0.33177,0.0031 -0.44339,0.449585 -0.27905,1.001489 -0.27905,1.497583 0,0.496094 0.27905,1.500684 0.11162,0.446484 0.44339,0.449585 0.36276,-0.0031 0.47439,-0.449585 0.27905,-1.00459 0.27905,-1.500684 z m -0.31006,0.496094 h -0.32556 l -0.5302,-1.063501 h 0.32556 z"
         style="font-size:6.35px;font-family:'PragmataPro Liga';-inkscape-font-specification:'PragmataPro Liga, Normal'"
         id="path43191" />
      <path
         d="m 120.97982,72.100505 q 0,-0.492993 0.31626,-1.630908 0.21084,-0.799951 0.93328,-0.799951 0.75344,0 0.96428,0.799951 0.31626,1.137915 0.31626,1.630908 0,0.489893 -0.31626,1.627808 -0.21084,0.799951 -0.96428,0.799951 -0.72244,0 -0.93328,-0.799951 -0.31626,-1.137915 -0.31626,-1.627808 z m 2.00298,0 q 0,-0.496094 -0.27905,-1.497583 -0.11163,-0.446484 -0.47439,-0.449585 -0.33177,0.0031 -0.44339,0.449585 -0.27905,1.001489 -0.27905,1.497583 0,0.496094 0.27905,1.500684 0.11162,0.446484 0.44339,0.449585 0.36276,-0.0031 0.47439,-0.449585 0.27905,-1.00459 0.27905,-1.500684 z m -0.31006,0.496094 h -0.32556 l -0.5302,-1.063501 h 0.32556 z"
         style="font-size:6.35px;font-family:'PragmataPro Liga';-inkscape-font-specification:'PragmataPro Liga, Normal'"
         id="path43193" />
      <path
         d="m 124.15482,72.100505 q 0,-0.492993 0.31626,-1.630908 0.21084,-0.799951 0.93328,-0.799951 0.75344,0 0.96428,0.799951 0.31626,1.137915 0.31626,1.630908 0,0.489893 -0.31626,1.627808 -0.21084,0.799951 -0.96428,0.799951 -0.72244,0 -0.93328,-0.799951 -0.31626,-1.137915 -0.31626,-1.627808 z m 2.00298,0 q 0,-0.496094 -0.27905,-1.497583 -0.11163,-0.446484 -0.47439,-0.449585 -0.33177,0.0031 -0.44339,0.449585 -0.27905,1.001489 -0.27905,1.497583 0,0.496094 0.27905,1.500684 0.11162,0.446484 0.44339,0.449585 0.36276,-0.0031 0.47439,-0.449585 0.27905,-1.00459 0.27905,-1.500684 z m -0.31006,0.496094 h -0.32556 l -0.5302,-1.063501 h 0.32556 z"
         style="font-size:6.35px;font-family:'PragmataPro Liga';-inkscape-font-specification:'PragmataPro Liga, Normal'"
         id="path43195" />
      <path
         d="m 127.32982,72.100505 q 0,-0.492993 0.31626,-1.630908 0.21084,-0.799951 0.93328,-0.799951 0.75344,0 0.96428,0.799951 0.31626,1.137915 0.31626,1.630908 0,0.489893 -0.31626,1.627808 -0.21084,0.799951 -0.96428,0.799951 -0.72244,0 -0.93328,-0.799951 -0.31626,-1.137915 -0.31626,-1.627808 z m 2.00298,0 q 0,-0.496094 -0.27905,-1.497583 -0.11163,-0.446484 -0.47439,-0.449585 -0.33177,0.0031 -0.44339,0.449585 -0.27905,1.001489 -0.27905,1.497583 0,0.496094 0.27905,1.500684 0.11162,0.446484 0.44339,0.449585 0.36276,-0.0031 0.47439,-0.449585 0.27905,-1.00459 0.27905,-1.500684 z m -0.31006,0.496094 h -0.32556 l -0.5302,-1.063501 h 0.32556 z"
         style="font-size:6.35px;font-family:'PragmataPro Liga';-inkscape-font-specification:'PragmataPro Liga, Normal'"
         id="path43197" />
      <path
         d="m 130.50482,72.100505 q 0,-0.492993 0.31626,-1.630908 0.21084,-0.799951 0.93328,-0.799951 0.75344,0 0.96428,0.799951 0.31626,1.137915 0.31626,1.630908 0,0.489893 -0.31626,1.627808 -0.21084,0.799951 -0.96428,0.799951 -0.72244,0 -0.93328,-0.799951 -0.31626,-1.137915 -0.31626,-1.627808 z m 2.00298,0 q 0,-0.496094 -0.27905,-1.497583 -0.11162,-0.446484 -0.47439,-0.449585 -0.33177,0.0031 -0.44339,0.449585 -0.27905,1.001489 -0.27905,1.497583 0,0.496094 0.27905,1.500684 0.11162,0.446484 0.44339,0.449585 0.36277,-0.0031 0.47439,-0.449585 0.27905,-1.00459 0.27905,-1.500684 z m -0.31006,0.496094 h -0.32556 l -0.5302,-1.063501 h 0.32556 z"
         style="font-size:6.35px;font-family:'PragmataPro Liga';-inkscape-font-specification:'PragmataPro Liga, Normal'"
         id="path43199" />
    </g>
    <g
       aria-label="00000000"
       id="text9993-0-1-5"
       style="font-size:4.23333px;line-height:1.25;stroke-width:0.264583"
       transform="translate(-0.16650384)">
      <path
         d="m 79.032437,87.975505 q 0,-0.492993 0.31626,-1.630908 0.21084,-0.799951 0.933276,-0.799951 0.753443,0 0.964282,0.799951 0.31626,1.137915 0.31626,1.630908 0,0.489893 -0.31626,1.627808 -0.210839,0.799951 -0.964282,0.799951 -0.722436,0 -0.933276,-0.799951 -0.31626,-1.137915 -0.31626,-1.627808 z m 2.002979,0 q 0,-0.496094 -0.279053,-1.497583 -0.111621,-0.446484 -0.47439,-0.449585 -0.331762,0.0031 -0.443384,0.449585 -0.279052,1.001489 -0.279052,1.497583 0,0.496094 0.279052,1.500684 0.111622,0.446484 0.443384,0.449585 0.362769,-0.0031 0.47439,-0.449585 0.279053,-1.00459 0.279053,-1.500684 z m -0.310059,0.496094 h -0.325561 l -0.530201,-1.063501 h 0.325562 z"
         style="font-size:6.35px;font-family:'PragmataPro Liga';-inkscape-font-specification:'PragmataPro Liga, Normal'"
         id="path43219" />
      <path
         d="m 82.207437,87.975505 q 0,-0.492993 0.31626,-1.630908 0.21084,-0.799951 0.933276,-0.799951 0.753443,0 0.964282,0.799951 0.31626,1.137915 0.31626,1.630908 0,0.489893 -0.31626,1.627808 -0.210839,0.799951 -0.964282,0.799951 -0.722436,0 -0.933276,-0.799951 -0.31626,-1.137915 -0.31626,-1.627808 z m 2.002979,0 q 0,-0.496094 -0.279053,-1.497583 -0.111621,-0.446484 -0.47439,-0.449585 -0.331762,0.0031 -0.443384,0.449585 -0.279052,1.001489 -0.279052,1.497583 0,0.496094 0.279052,1.500684 0.111622,0.446484 0.443384,0.449585 0.362769,-0.0031 0.47439,-0.449585 0.279053,-1.00459 0.279053,-1.500684 z m -0.310059,0.496094 h -0.325562 l -0.5302,-1.063501 h 0.325562 z"
         style="font-size:6.35px;font-family:'PragmataPro Liga';-inkscape-font-specification:'PragmataPro Liga, Normal'"
         id="path43221" />
      <path
         d="m 85.382437,87.975505 q 0,-0.492993 0.31626,-1.630908 0.21084,-0.799951 0.933276,-0.799951 0.753443,0 0.964282,0.799951 0.31626,1.137915 0.31626,1.630908 0,0.489893 -0.31626,1.627808 -0.210839,0.799951 -0.964282,0.799951 -0.722436,0 -0.933276,-0.799951 -0.31626,-1.137915 -0.31626,-1.627808 z m 2.002979,0 q 0,-0.496094 -0.279053,-1.497583 -0.111621,-0.446484 -0.47439,-0.449585 -0.331763,0.0031 -0.443384,0.449585 -0.279052,1.001489 -0.279052,1.497583 0,0.496094 0.279052,1.500684 0.111621,0.446484 0.443384,0.449585 0.362769,-0.0031 0.47439,-0.449585 0.279053,-1.00459 0.279053,-1.500684 z m -0.310059,0.496094 h -0.325562 l -0.5302,-1.063501 h 0.325562 z"
         style="font-size:6.35px;font-family:'PragmataPro Liga';-inkscape-font-specification:'PragmataPro Liga, Normal'"
         id="path43223" />
      <path
         d="m 88.557437,87.975505 q 0,-0.492993 0.31626,-1.630908 0.210839,-0.799951 0.933276,-0.799951 0.753442,0 0.964282,0.799951 0.31626,1.137915 0.31626,1.630908 0,0.489893 -0.31626,1.627808 -0.21084,0.799951 -0.964282,0.799951 -0.722437,0 -0.933276,-0.799951 -0.31626,-1.137915 -0.31626,-1.627808 z m 2.002978,0 q 0,-0.496094 -0.279052,-1.497583 -0.111622,-0.446484 -0.47439,-0.449585 -0.331763,0.0031 -0.443384,0.449585 -0.279053,1.001489 -0.279053,1.497583 0,0.496094 0.279053,1.500684 0.111621,0.446484 0.443384,0.449585 0.362768,-0.0031 0.47439,-0.449585 0.279052,-1.00459 0.279052,-1.500684 z m -0.310058,0.496094 h -0.325562 l -0.5302,-1.063501 h 0.325561 z"
         style="font-size:6.35px;font-family:'PragmataPro Liga';-inkscape-font-specification:'PragmataPro Liga, Normal'"
         id="path43225" />
      <path
         d="m 91.732437,87.975505 q 0,-0.492993 0.31626,-1.630908 0.21084,-0.799951 0.933276,-0.799951 0.753442,0 0.964282,0.799951 0.31626,1.137915 0.31626,1.630908 0,0.489893 -0.31626,1.627808 -0.21084,0.799951 -0.964282,0.799951 -0.722436,0 -0.933276,-0.799951 -0.31626,-1.137915 -0.31626,-1.627808 z m 2.002978,0 q 0,-0.496094 -0.279052,-1.497583 -0.111621,-0.446484 -0.47439,-0.449585 -0.331763,0.0031 -0.443384,0.449585 -0.279052,1.001489 -0.279052,1.497583 0,0.496094 0.279052,1.500684 0.111621,0.446484 0.443384,0.449585 0.362769,-0.0031 0.47439,-0.449585 0.279052,-1.00459 0.279052,-1.500684 z m -0.310058,0.496094 h -0.325562 l -0.5302,-1.063501 h 0.325562 z"
         style="font-size:6.35px;font-family:'PragmataPro Liga';-inkscape-font-specification:'PragmataPro Liga, Normal'"
         id="path43227" />
      <path
         d="m 94.907437,87.975505 q 0,-0.492993 0.31626,-1.630908 0.21084,-0.799951 0.933276,-0.799951 0.753443,0 0.964282,0.799951 0.31626,1.137915 0.31626,1.630908 0,0.489893 -0.31626,1.627808 -0.210839,0.799951 -0.964282,0.799951 -0.722436,0 -0.933276,-0.799951 -0.31626,-1.137915 -0.31626,-1.627808 z m 2.002979,0 q 0,-0.496094 -0.279053,-1.497583 -0.111621,-0.446484 -0.47439,-0.449585 -0.331762,0.0031 -0.443384,0.449585 -0.279052,1.001489 -0.279052,1.497583 0,0.496094 0.279052,1.500684 0.111622,0.446484 0.443384,0.449585 0.362769,-0.0031 0.47439,-0.449585 0.279053,-1.00459 0.279053,-1.500684 z m -0.310059,0.496094 h -0.325561 l -0.530201,-1.063501 h 0.325562 z"
         style="font-size:6.35px;font-family:'PragmataPro Liga';-inkscape-font-specification:'PragmataPro Liga, Normal'"
         id="path43229" />
      <path
         d="m 98.082436,87.975505 q 0,-0.492993 0.31626,-1.630908 0.21084,-0.799951 0.933276,-0.799951 0.753438,0 0.964278,0.799951 0.31626,1.137915 0.31626,1.630908 0,0.489893 -0.31626,1.627808 -0.21084,0.799951 -0.964278,0.799951 -0.722436,0 -0.933276,-0.799951 -0.31626,-1.137915 -0.31626,-1.627808 z m 2.002974,0 q 0,-0.496094 -0.279048,-1.497583 -0.111621,-0.446484 -0.47439,-0.449585 -0.331762,0.0031 -0.443383,0.449585 -0.279053,1.001489 -0.279053,1.497583 0,0.496094 0.279053,1.500684 0.111621,0.446484 0.443383,0.449585 0.362769,-0.0031 0.47439,-0.449585 0.279048,-1.00459 0.279048,-1.500684 z m -0.310054,0.496094 h -0.325561 l -0.5302,-1.063501 h 0.325561 z"
         style="font-size:6.35px;font-family:'PragmataPro Liga';-inkscape-font-specification:'PragmataPro Liga, Normal'"
         id="path43231" />
      <path
         d="m 101.25744,87.975505 q 0,-0.492993 0.31626,-1.630908 0.21084,-0.799951 0.93327,-0.799951 0.75345,0 0.96429,0.799951 0.31626,1.137915 0.31626,1.630908 0,0.489893 -0.31626,1.627808 -0.21084,0.799951 -0.96429,0.799951 -0.72243,0 -0.93327,-0.799951 -0.31626,-1.137915 -0.31626,-1.627808 z m 2.00298,0 q 0,-0.496094 -0.27906,-1.497583 -0.11162,-0.446484 -0.47439,-0.449585 -0.33176,0.0031 -0.44338,0.449585 -0.27905,1.001489 -0.27905,1.497583 0,0.496094 0.27905,1.500684 0.11162,0.446484 0.44338,0.449585 0.36277,-0.0031 0.47439,-0.449585 0.27906,-1.00459 0.27906,-1.500684 z m -0.31006,0.496094 h -0.32556 l -0.5302,-1.063501 h 0.32556 z"
         style="font-size:6.35px;font-family:'PragmataPro Liga';-inkscape-font-specification:'PragmataPro Liga, Normal'"
         id="path43233" />
    </g>
    <path
       style="fill:none;stroke:#000000;stroke-width:0.401;stroke-linecap:butt;stroke-linejoin:miter;stroke-opacity:1;stroke-miterlimit:4;stroke-dasharray:none"
       d="m 76.729167,67.468747 c 58.208333,0 58.208333,0 58.208333,0"
       id="path31220" />
    <path
       style="fill:none;stroke:#000000;stroke-width:0.401;stroke-linecap:butt;stroke-linejoin:miter;stroke-miterlimit:4;stroke-dasharray:none;stroke-opacity:1"
       d="m 76.729168,76.729162 c 58.208322,0 58.208322,0 58.208322,0"
       id="path31220-6-4" />
    <path
       style="fill:none;stroke:#000000;stroke-width:0.401;stroke-linecap:butt;stroke-linejoin:miter;stroke-opacity:1;stroke-miterlimit:4;stroke-dasharray:none"
       d="m 76.729175,83.343747 c 58.208325,0 58.208325,0 58.208325,0"
       id="path31220-6-4-6" />
    <path
       style="fill:none;stroke:#000000;stroke-width:0.401;stroke-linecap:butt;stroke-linejoin:miter;stroke-opacity:1;stroke-miterlimit:4;stroke-dasharray:none"
       d="m 76.729181,92.604164 c 58.208319,0 58.208319,0 58.208319,0"
       id="path31220-6-4-6-2" />
    <path
       style="fill:none;stroke:#000000;stroke-width:0.401;stroke-linecap:butt;stroke-linejoin:miter;stroke-opacity:1;stroke-miterlimit:4;stroke-dasharray:none"
       d="m 105.89667,67.468747 v 9.260416"
       id="path31442" />
    <path
       style="fill:none;stroke:#000000;stroke-width:0.401;stroke-linecap:butt;stroke-linejoin:miter;stroke-opacity:1;stroke-miterlimit:4;stroke-dasharray:none"
       d="m 105.83333,83.343747 v 9.260416"
       id="path31442-5" />
    <g
       aria-label="00001001"
       id="text48509"
       style="font-size:6.35px;line-height:1.25;font-family:'PragmataPro Liga';-inkscape-font-specification:'PragmataPro Liga, Normal';stroke-width:0.264583">
      <path
         d="m 79.185292,72.100505 q 0,-0.492993 0.31626,-1.630908 0.21084,-0.799951 0.933276,-0.799951 0.753443,0 0.964282,0.799951 0.31626,1.137915 0.31626,1.630908 0,0.489893 -0.31626,1.627808 -0.210839,0.799951 -0.964282,0.799951 -0.722436,0 -0.933276,-0.799951 -0.31626,-1.137915 -0.31626,-1.627808 z m 2.002979,0 q 0,-0.496094 -0.279053,-1.497583 -0.111621,-0.446484 -0.47439,-0.449585 -0.331763,0.0031 -0.443384,0.449585 -0.279052,1.001489 -0.279052,1.497583 0,0.496094 0.279052,1.500684 0.111621,0.446484 0.443384,0.449585 0.362769,-0.0031 0.47439,-0.449585 0.279053,-1.00459 0.279053,-1.500684 z m -0.310059,0.496094 H 80.55265 l -0.5302,-1.063501 h 0.325562 z"
         id="path50519" />
      <path
         d="m 82.360292,72.100505 q 0,-0.492993 0.31626,-1.630908 0.21084,-0.799951 0.933276,-0.799951 0.753442,0 0.964282,0.799951 0.31626,1.137915 0.31626,1.630908 0,0.489893 -0.31626,1.627808 -0.21084,0.799951 -0.964282,0.799951 -0.722436,0 -0.933276,-0.799951 -0.31626,-1.137915 -0.31626,-1.627808 z m 2.002978,0 q 0,-0.496094 -0.279052,-1.497583 -0.111621,-0.446484 -0.47439,-0.449585 -0.331763,0.0031 -0.443384,0.449585 -0.279052,1.001489 -0.279052,1.497583 0,0.496094 0.279052,1.500684 0.111621,0.446484 0.443384,0.449585 0.362769,-0.0031 0.47439,-0.449585 0.279052,-1.00459 0.279052,-1.500684 z m -0.310058,0.496094 H 83.72765 l -0.5302,-1.063501 h 0.325562 z"
         id="path50521" />
      <path
         d="m 85.535292,72.100505 q 0,-0.492993 0.31626,-1.630908 0.21084,-0.799951 0.933276,-0.799951 0.753442,0 0.964282,0.799951 0.31626,1.137915 0.31626,1.630908 0,0.489893 -0.31626,1.627808 -0.21084,0.799951 -0.964282,0.799951 -0.722436,0 -0.933276,-0.799951 -0.31626,-1.137915 -0.31626,-1.627808 z m 2.002978,0 q 0,-0.496094 -0.279052,-1.497583 -0.111621,-0.446484 -0.47439,-0.449585 -0.331763,0.0031 -0.443384,0.449585 -0.279052,1.001489 -0.279052,1.497583 0,0.496094 0.279052,1.500684 0.111621,0.446484 0.443384,0.449585 0.362769,-0.0031 0.47439,-0.449585 0.279052,-1.00459 0.279052,-1.500684 z m -0.310058,0.496094 H 86.90265 l -0.5302,-1.063501 h 0.325562 z"
         id="path50523" />
      <path
         d="m 88.710292,72.100505 q 0,-0.492993 0.316259,-1.630908 0.21084,-0.799951 0.933277,-0.799951 0.753442,0 0.964282,0.799951 0.31626,1.137915 0.31626,1.630908 0,0.489893 -0.31626,1.627808 -0.21084,0.799951 -0.964282,0.799951 -0.722437,0 -0.933277,-0.799951 -0.316259,-1.137915 -0.316259,-1.627808 z m 2.002978,0 q 0,-0.496094 -0.279053,-1.497583 -0.111621,-0.446484 -0.474389,-0.449585 -0.331763,0.0031 -0.443384,0.449585 -0.279053,1.001489 -0.279053,1.497583 0,0.496094 0.279053,1.500684 0.111621,0.446484 0.443384,0.449585 0.362768,-0.0031 0.474389,-0.449585 0.279053,-1.00459 0.279053,-1.500684 z m -0.310058,0.496094 H 90.07765 l -0.5302,-1.063501 h 0.325561 z"
         id="path50525" />
      <path
         d="m 93.246449,74.469353 v -4.095874 l -0.889868,0.697632 -0.238745,-0.403077 1.187524,-0.930175 h 0.471289 v 4.731494 z"
         id="path50527" />
      <path
         d="m 95.060292,72.100505 q 0,-0.492993 0.31626,-1.630908 0.21084,-0.799951 0.933276,-0.799951 0.753443,0 0.964282,0.799951 0.31626,1.137915 0.31626,1.630908 0,0.489893 -0.31626,1.627808 -0.210839,0.799951 -0.964282,0.799951 -0.722436,0 -0.933276,-0.799951 -0.31626,-1.137915 -0.31626,-1.627808 z m 2.002979,0 q 0,-0.496094 -0.279053,-1.497583 -0.111621,-0.446484 -0.47439,-0.449585 -0.331763,0.0031 -0.443384,0.449585 -0.279052,1.001489 -0.279052,1.497583 0,0.496094 0.279052,1.500684 0.111621,0.446484 0.443384,0.449585 0.362769,-0.0031 0.47439,-0.449585 0.279053,-1.00459 0.279053,-1.500684 z m -0.310059,0.496094 H 96.42765 l -0.5302,-1.063501 h 0.325562 z"
         id="path50529" />
      <path
         d="m 98.235291,72.100505 q 0,-0.492993 0.31626,-1.630908 0.21084,-0.799951 0.933276,-0.799951 0.753443,0 0.964283,0.799951 0.31626,1.137915 0.31626,1.630908 0,0.489893 -0.31626,1.627808 -0.21084,0.799951 -0.964283,0.799951 -0.722436,0 -0.933276,-0.799951 -0.31626,-1.137915 -0.31626,-1.627808 z m 2.002979,0 q 0,-0.496094 -0.279053,-1.497583 -0.111621,-0.446484 -0.47439,-0.449585 -0.331762,0.0031 -0.443383,0.449585 -0.279053,1.001489 -0.279053,1.497583 0,0.496094 0.279053,1.500684 0.111621,0.446484 0.443383,0.449585 0.362769,-0.0031 0.47439,-0.449585 0.279053,-1.00459 0.279053,-1.500684 z m -0.310059,0.496094 H 99.60265 l -0.530201,-1.063501 h 0.325562 z"
         id="path50531" />
      <path
         d="m 102.77145,74.469353 v -4.095874 l -0.88987,0.697632 -0.23874,-0.403077 1.18752,-0.930175 h 0.47129 v 4.731494 z"
         id="path50533" />
    </g>
  </g>
</svg>
