<?xml version="1.0" encoding="UTF-8" standalone="no"?>
<!DOCTYPE svg PUBLIC "-//W3C//DTD SVG 1.1//EN" "http://www.w3.org/Graphics/SVG/1.1/DTD/svg11.dtd">
<svg width="100%" height="100%" viewBox="0 0 776 193" version="1.1" xmlns="http://www.w3.org/2000/svg" xmlns:xlink="http://www.w3.org/1999/xlink" xml:space="preserve" xmlns:serif="http://www.serif.com/" style="fill-rule:evenodd;clip-rule:evenodd;stroke-linecap:round;stroke-linejoin:round;stroke-miterlimit:1.5;">
    <g transform="matrix(1,0,0,1,-643.177,-2596.71)">
        <g transform="matrix(1,0,0,1,-187.8,2125.06)">
            <g transform="matrix(1.0937,0,0,1.0937,123.507,-217.418)">
                <circle cx="923.526" cy="718.206" r="86.267" style="fill:rgb(235,235,235);fill-opacity:0;stroke:black;stroke-width:3.81px;"/>
            </g>
            <g transform="matrix(1,0,0,1,382.196,24.3511)">
                <g transform="matrix(75,0,0,75,731.567,569.492)">
                    <path d="M0.48,-0.606C0.47,-0.625 0.459,-0.643 0.444,-0.658C0.407,-0.695 0.354,-0.702 0.303,-0.702C0.242,-0.702 0.182,-0.683 0.138,-0.64C0.105,-0.606 0.091,-0.559 0.091,-0.512C0.091,-0.466 0.109,-0.421 0.142,-0.388C0.168,-0.362 0.228,-0.334 0.274,-0.314C0.302,-0.302 0.339,-0.277 0.36,-0.255C0.379,-0.234 0.395,-0.202 0.395,-0.178C0.395,-0.141 0.383,-0.102 0.357,-0.076C0.329,-0.049 0.29,-0.031 0.252,-0.031C0.219,-0.031 0.185,-0.045 0.161,-0.069C0.139,-0.091 0.128,-0.122 0.119,-0.152L0.102,-0.153L0.045,-0.087C0.053,-0.066 0.066,-0.047 0.082,-0.031C0.115,0.003 0.163,0.015 0.21,0.015C0.289,0.015 0.366,-0.016 0.422,-0.072C0.459,-0.109 0.483,-0.157 0.483,-0.209C0.483,-0.25 0.461,-0.296 0.431,-0.325C0.413,-0.344 0.361,-0.373 0.324,-0.389C0.285,-0.406 0.242,-0.427 0.215,-0.454C0.19,-0.479 0.171,-0.511 0.171,-0.547C0.171,-0.577 0.179,-0.607 0.2,-0.628C0.221,-0.65 0.251,-0.665 0.282,-0.665C0.313,-0.665 0.344,-0.654 0.367,-0.632C0.388,-0.611 0.397,-0.581 0.404,-0.553L0.417,-0.55L0.48,-0.606Z" style="fill-rule:nonzero;"/>
                </g>
            </g>
            <g transform="matrix(1,0,0,1,115.714,154.405)">
                <g transform="matrix(33.3333,0,0,33.3333,1033.42,449.189)">
                    <path d="M0.216,-0.392C0.216,-0.413 0.214,-0.437 0.2,-0.453C0.188,-0.469 0.168,-0.471 0.154,-0.471C0.135,-0.471 0.113,-0.459 0.095,-0.45C0.071,-0.438 0.038,-0.415 0.014,-0.396L0.027,-0.378C0.051,-0.393 0.085,-0.41 0.107,-0.41C0.117,-0.41 0.126,-0.405 0.131,-0.395C0.138,-0.381 0.142,-0.355 0.142,-0.325L0.136,-0.104C0.136,-0.06 0.138,-0.038 0.152,-0.02C0.169,0.001 0.192,0.008 0.216,0.008C0.242,0.008 0.266,-0.005 0.288,-0.019C0.315,-0.039 0.337,-0.062 0.357,-0.089L0.357,-0.1L0.344,-0.11C0.328,-0.096 0.312,-0.084 0.294,-0.074C0.282,-0.068 0.266,-0.065 0.252,-0.065C0.238,-0.065 0.226,-0.074 0.22,-0.087C0.212,-0.105 0.208,-0.141 0.208,-0.182L0.216,-0.392ZM0.23,-0.625C0.23,-0.655 0.21,-0.683 0.176,-0.683C0.146,-0.683 0.114,-0.661 0.112,-0.627C0.112,-0.595 0.138,-0.569 0.17,-0.569C0.202,-0.569 0.228,-0.592 0.23,-0.625Z" style="fill-rule:nonzero;"/>
                </g>
            </g>
        </g>
        <g transform="matrix(1,0,0,1,189.118,2125.06)">
            <g transform="matrix(1.0937,0,0,1.0937,123.507,-217.418)">
                <circle cx="923.526" cy="718.206" r="86.267" style="fill:rgb(235,235,235);fill-opacity:0;stroke:black;stroke-width:3.81px;"/>
            </g>
            <g transform="matrix(1,0,0,1,382.196,24.3511)">
                <g transform="matrix(75,0,0,75,731.567,569.492)">
                    <path d="M0.48,-0.606C0.47,-0.625 0.459,-0.643 0.444,-0.658C0.407,-0.695 0.354,-0.702 0.303,-0.702C0.242,-0.702 0.182,-0.683 0.138,-0.64C0.105,-0.606 0.091,-0.559 0.091,-0.512C0.091,-0.466 0.109,-0.421 0.142,-0.388C0.168,-0.362 0.228,-0.334 0.274,-0.314C0.302,-0.302 0.339,-0.277 0.36,-0.255C0.379,-0.234 0.395,-0.202 0.395,-0.178C0.395,-0.141 0.383,-0.102 0.357,-0.076C0.329,-0.049 0.29,-0.031 0.252,-0.031C0.219,-0.031 0.185,-0.045 0.161,-0.069C0.139,-0.091 0.128,-0.122 0.119,-0.152L0.102,-0.153L0.045,-0.087C0.053,-0.066 0.066,-0.047 0.082,-0.031C0.115,0.003 0.163,0.015 0.21,0.015C0.289,0.015 0.366,-0.016 0.422,-0.072C0.459,-0.109 0.483,-0.157 0.483,-0.209C0.483,-0.25 0.461,-0.296 0.431,-0.325C0.413,-0.344 0.361,-0.373 0.324,-0.389C0.285,-0.406 0.242,-0.427 0.215,-0.454C0.19,-0.479 0.171,-0.511 0.171,-0.547C0.171,-0.577 0.179,-0.607 0.2,-0.628C0.221,-0.65 0.251,-0.665 0.282,-0.665C0.313,-0.665 0.344,-0.654 0.367,-0.632C0.388,-0.611 0.397,-0.581 0.404,-0.553L0.417,-0.55L0.48,-0.606Z" style="fill-rule:nonzero;"/>
                </g>
            </g>
            <g transform="matrix(1,0,0,1,115.714,154.405)">
                <g transform="matrix(33.3333,0,0,33.3333,1033.42,449.189)">
                    <path d="M0.027,-0.375C0.052,-0.388 0.087,-0.408 0.103,-0.408C0.114,-0.408 0.12,-0.408 0.131,-0.394C0.135,-0.39 0.142,-0.375 0.144,-0.355C0.147,-0.318 0.147,-0.252 0.147,-0.154C0.147,-0.11 0.144,0.014 0.127,0.076C0.113,0.126 0.073,0.171 -0.001,0.215L0.015,0.231C0.061,0.209 0.115,0.176 0.148,0.141C0.175,0.112 0.198,0.079 0.211,0.041C0.223,0.006 0.223,-0.134 0.223,-0.154C0.223,-0.191 0.223,-0.358 0.216,-0.401C0.214,-0.421 0.211,-0.441 0.196,-0.455C0.186,-0.465 0.17,-0.468 0.155,-0.468C0.135,-0.468 0.116,-0.458 0.098,-0.449C0.068,-0.433 0.041,-0.414 0.014,-0.393L0.027,-0.375ZM0.168,-0.683C0.136,-0.683 0.109,-0.657 0.109,-0.625C0.109,-0.593 0.132,-0.565 0.165,-0.565C0.2,-0.565 0.226,-0.595 0.226,-0.629C0.226,-0.661 0.198,-0.683 0.168,-0.683Z" style="fill-rule:nonzero;"/>
                </g>
            </g>
            <g transform="matrix(1,0,0,1,188.879,-2077.94)">
                <g transform="matrix(1,-0,-0,1,265.18,2549.59)">
                    <path d="M575.958,90.183L582.208,96.433L575.958,102.683" style="fill:none;stroke:black;stroke-width:4.17px;stroke-linejoin:miter;stroke-miterlimit:10;"/>
                    <path d="M396.937,96.433L582.208,96.433" style="fill:none;stroke:black;stroke-width:4.17px;"/>
                </g>
            </g>
        </g>
        <g transform="matrix(-1,0,0,1,1513.53,47.1244)">
            <g transform="matrix(-1,0,0,1,870.354,2549.59)">
                <path d="M199.041,90.183L205.291,96.433L199.041,102.683" style="fill:none;stroke:black;stroke-width:4.17px;stroke-linejoin:miter;stroke-miterlimit:10;"/>
                <path d="M19.654,96.433L205.291,96.433" style="fill:none;stroke:black;stroke-width:4.17px;"/>
            </g>
        </g>
        <g transform="matrix(1,0,0,1,-1.34236,75.6715)">
            <g transform="matrix(33.3333,0,0,33.3333,702.481,2591.95)">
                <path d="M0.19,-0.286C0.225,-0.286 0.256,-0.287 0.283,-0.289C0.311,-0.256 0.333,-0.217 0.358,-0.176C0.394,-0.118 0.442,-0.031 0.453,0.003C0.472,-0 0.494,-0 0.513,-0C0.533,-0 0.553,-0 0.573,0.003L0.575,-0C0.525,-0.057 0.425,-0.215 0.362,-0.299C0.388,-0.304 0.408,-0.311 0.422,-0.318C0.476,-0.345 0.522,-0.397 0.522,-0.479C0.522,-0.529 0.505,-0.57 0.469,-0.604C0.421,-0.649 0.345,-0.652 0.282,-0.652C0.257,-0.652 0.177,-0.645 0.147,-0.645C0.135,-0.645 0.108,-0.646 0.096,-0.648L0.094,-0.645C0.102,-0.588 0.104,-0.52 0.104,-0.445L0.104,-0.2C0.104,-0.125 0.102,-0.054 0.094,-0L0.096,0.003C0.108,0.001 0.135,-0 0.147,-0C0.159,-0 0.186,0.001 0.198,0.003L0.2,-0C0.192,-0.057 0.19,-0.125 0.19,-0.2L0.19,-0.286ZM0.283,-0.609C0.344,-0.609 0.426,-0.586 0.426,-0.478C0.426,-0.356 0.345,-0.326 0.248,-0.326L0.19,-0.326L0.19,-0.565C0.19,-0.604 0.193,-0.609 0.283,-0.609Z" style="fill-rule:nonzero;"/>
            </g>
            <g transform="matrix(33.3333,0,0,33.3333,722.481,2591.95)">
                <path d="M0.392,-0.104C0.357,-0.066 0.31,-0.049 0.255,-0.049C0.221,-0.049 0.174,-0.062 0.146,-0.106C0.128,-0.134 0.122,-0.175 0.122,-0.233L0.394,-0.233C0.405,-0.233 0.412,-0.239 0.412,-0.25C0.412,-0.334 0.371,-0.439 0.239,-0.439C0.136,-0.439 0.034,-0.356 0.034,-0.209C0.034,-0.152 0.046,-0.096 0.079,-0.056C0.113,-0.015 0.171,0.01 0.238,0.01C0.31,0.01 0.374,-0.027 0.412,-0.079L0.392,-0.104ZM0.125,-0.273C0.142,-0.377 0.208,-0.399 0.239,-0.399C0.279,-0.399 0.323,-0.362 0.323,-0.287C0.323,-0.278 0.319,-0.273 0.309,-0.273L0.125,-0.273Z" style="fill-rule:nonzero;"/>
            </g>
            <g transform="matrix(33.3333,0,0,33.3333,737.815,2591.95)">
                <path d="M0.366,-0.432C0.348,-0.435 0.291,-0.439 0.257,-0.439C0.141,-0.439 0.049,-0.348 0.049,-0.216C0.049,-0.112 0.104,0.01 0.242,0.01C0.299,0.01 0.345,-0.01 0.36,-0.023L0.36,0.032C0.36,0.106 0.36,0.178 0.351,0.232L0.353,0.235C0.353,0.235 0.365,0.232 0.4,0.232C0.434,0.232 0.447,0.235 0.447,0.235L0.449,0.232C0.441,0.175 0.44,0.107 0.44,0.032L0.44,-0.235C0.44,-0.31 0.442,-0.386 0.449,-0.429L0.447,-0.432C0.424,-0.43 0.384,-0.429 0.366,-0.432ZM0.357,-0.376C0.357,-0.376 0.36,-0.334 0.36,-0.234L0.36,-0.066C0.334,-0.046 0.285,-0.034 0.266,-0.034C0.208,-0.034 0.137,-0.076 0.137,-0.227C0.137,-0.331 0.189,-0.399 0.263,-0.399C0.307,-0.399 0.335,-0.394 0.357,-0.376Z" style="fill-rule:nonzero;"/>
            </g>
            <g transform="matrix(33.3333,0,0,33.3333,755.215,2591.95)">
                <path d="M0.365,-0.092L0.369,-0.089L0.374,-0C0.374,0.002 0.375,0.003 0.378,0.003C0.391,0.001 0.403,-0 0.418,-0C0.43,-0 0.449,0.001 0.462,0.003L0.464,-0C0.456,-0.043 0.447,-0.117 0.447,-0.192L0.447,-0.249C0.447,-0.324 0.448,-0.376 0.456,-0.429L0.454,-0.432C0.442,-0.43 0.419,-0.429 0.407,-0.429C0.395,-0.429 0.372,-0.43 0.36,-0.432L0.358,-0.429C0.366,-0.372 0.367,-0.325 0.367,-0.249L0.367,-0.151C0.337,-0.1 0.279,-0.046 0.23,-0.046C0.196,-0.046 0.163,-0.057 0.163,-0.15L0.163,-0.249C0.163,-0.324 0.164,-0.376 0.172,-0.429L0.17,-0.432C0.158,-0.43 0.135,-0.429 0.123,-0.429C0.111,-0.429 0.088,-0.43 0.076,-0.432L0.074,-0.429C0.082,-0.372 0.083,-0.325 0.083,-0.249L0.083,-0.129C0.083,-0.06 0.115,0.01 0.214,0.01C0.276,0.01 0.332,-0.041 0.365,-0.092Z" style="fill-rule:nonzero;"/>
            </g>
            <g transform="matrix(33.3333,0,0,33.3333,773.115,2591.95)">
                <path d="M0.392,-0.104C0.357,-0.066 0.31,-0.049 0.255,-0.049C0.221,-0.049 0.174,-0.062 0.146,-0.106C0.128,-0.134 0.122,-0.175 0.122,-0.233L0.394,-0.233C0.405,-0.233 0.412,-0.239 0.412,-0.25C0.412,-0.334 0.371,-0.439 0.239,-0.439C0.136,-0.439 0.034,-0.356 0.034,-0.209C0.034,-0.152 0.046,-0.096 0.079,-0.056C0.113,-0.015 0.171,0.01 0.238,0.01C0.31,0.01 0.374,-0.027 0.412,-0.079L0.392,-0.104ZM0.125,-0.273C0.142,-0.377 0.208,-0.399 0.239,-0.399C0.279,-0.399 0.323,-0.362 0.323,-0.287C0.323,-0.278 0.319,-0.273 0.309,-0.273L0.125,-0.273Z" style="fill-rule:nonzero;"/>
            </g>
            <g transform="matrix(33.3333,0,0,33.3333,788.215,2591.95)">
                <path d="M0.05,-0.101L0.033,-0.017C0.09,0.003 0.146,0.01 0.184,0.01C0.322,0.01 0.354,-0.072 0.354,-0.127C0.354,-0.209 0.289,-0.241 0.218,-0.258C0.18,-0.267 0.125,-0.286 0.125,-0.336C0.125,-0.377 0.158,-0.399 0.201,-0.399C0.253,-0.399 0.285,-0.358 0.308,-0.331L0.322,-0.332L0.342,-0.406L0.34,-0.409C0.311,-0.424 0.256,-0.439 0.205,-0.439C0.131,-0.439 0.054,-0.4 0.054,-0.317C0.054,-0.237 0.114,-0.211 0.174,-0.194C0.232,-0.178 0.275,-0.162 0.275,-0.113C0.275,-0.06 0.236,-0.03 0.183,-0.03C0.135,-0.03 0.093,-0.063 0.065,-0.102L0.05,-0.101Z" style="fill-rule:nonzero;"/>
            </g>
            <g transform="matrix(33.3333,0,0,33.3333,801.415,2591.95)">
                <path d="M0.095,-0.429C0.075,-0.429 0.053,-0.429 0.041,-0.431C0.034,-0.415 0.029,-0.405 0.019,-0.39L0.024,-0.383C0.041,-0.384 0.072,-0.385 0.095,-0.385L0.095,-0.248C0.095,-0.188 0.092,-0.116 0.092,-0.086C0.092,-0.021 0.134,0.01 0.18,0.01C0.222,0.01 0.254,-0 0.296,-0.027L0.284,-0.052C0.253,-0.041 0.23,-0.04 0.205,-0.044C0.181,-0.048 0.172,-0.072 0.172,-0.126C0.172,-0.156 0.175,-0.199 0.175,-0.259L0.175,-0.385L0.213,-0.385C0.237,-0.385 0.272,-0.384 0.285,-0.383C0.288,-0.399 0.291,-0.409 0.297,-0.424L0.292,-0.431C0.274,-0.43 0.245,-0.429 0.222,-0.429L0.175,-0.429C0.175,-0.504 0.176,-0.517 0.18,-0.575C0.18,-0.582 0.177,-0.585 0.171,-0.585C0.146,-0.575 0.134,-0.565 0.101,-0.56L0.099,-0.557C0.097,-0.522 0.095,-0.487 0.095,-0.429Z" style="fill-rule:nonzero;"/>
            </g>
        </g>
        <g transform="matrix(1,0,0,1,385.541,83.1715)">
            <g transform="matrix(33.3333,0,0,33.3333,702.481,2591.95)">
                <path d="M0.19,-0.2L0.19,-0.317C0.238,-0.317 0.344,-0.314 0.413,-0.307L0.416,-0.31C0.414,-0.319 0.413,-0.333 0.413,-0.342C0.413,-0.351 0.414,-0.365 0.416,-0.374L0.413,-0.377C0.354,-0.372 0.308,-0.367 0.19,-0.367L0.19,-0.445C0.19,-0.462 0.191,-0.565 0.198,-0.589C0.332,-0.589 0.47,-0.577 0.47,-0.577L0.472,-0.581C0.471,-0.589 0.47,-0.598 0.47,-0.607C0.47,-0.615 0.471,-0.631 0.472,-0.645L0.47,-0.648C0.454,-0.646 0.431,-0.645 0.41,-0.645L0.147,-0.645C0.113,-0.645 0.096,-0.648 0.096,-0.648L0.094,-0.645C0.102,-0.588 0.104,-0.52 0.104,-0.445L0.104,-0.2C0.104,-0.125 0.102,-0.054 0.094,-0L0.095,0.003C0.095,0.003 0.112,-0 0.147,-0L0.42,-0C0.441,-0 0.464,0.001 0.48,0.003L0.482,-0C0.481,-0.014 0.48,-0.021 0.48,-0.031C0.48,-0.041 0.481,-0.056 0.482,-0.064L0.48,-0.068C0.48,-0.068 0.332,-0.056 0.198,-0.056C0.191,-0.08 0.19,-0.183 0.19,-0.2Z" style="fill-rule:nonzero;"/>
            </g>
            <g transform="matrix(33.3333,0,0,33.3333,720.415,2591.95)">
                <path d="M0.202,0.003C0.212,-0 0.223,-0 0.233,-0C0.243,-0 0.254,-0 0.263,0.003C0.315,-0.143 0.377,-0.285 0.442,-0.432C0.433,-0.429 0.414,-0.429 0.404,-0.429C0.394,-0.429 0.379,-0.429 0.37,-0.432C0.33,-0.319 0.295,-0.188 0.249,-0.09L0.247,-0.09C0.197,-0.205 0.164,-0.317 0.128,-0.432C0.115,-0.429 0.092,-0.429 0.078,-0.429C0.062,-0.429 0.036,-0.429 0.02,-0.432C0.087,-0.285 0.146,-0.143 0.202,0.003Z" style="fill-rule:nonzero;"/>
            </g>
            <g transform="matrix(33.3333,0,0,33.3333,735.548,2591.95)">
                <path d="M0.392,-0.104C0.357,-0.066 0.31,-0.049 0.255,-0.049C0.221,-0.049 0.174,-0.062 0.146,-0.106C0.128,-0.134 0.122,-0.175 0.122,-0.233L0.394,-0.233C0.405,-0.233 0.412,-0.239 0.412,-0.25C0.412,-0.334 0.371,-0.439 0.239,-0.439C0.136,-0.439 0.034,-0.356 0.034,-0.209C0.034,-0.152 0.046,-0.096 0.079,-0.056C0.113,-0.015 0.171,0.01 0.238,0.01C0.31,0.01 0.374,-0.027 0.412,-0.079L0.392,-0.104ZM0.125,-0.273C0.142,-0.377 0.208,-0.399 0.239,-0.399C0.279,-0.399 0.323,-0.362 0.323,-0.287C0.323,-0.278 0.319,-0.273 0.309,-0.273L0.125,-0.273Z" style="fill-rule:nonzero;"/>
            </g>
            <g transform="matrix(33.3333,0,0,33.3333,750.648,2591.95)">
                <path d="M0.46,-0.18C0.46,-0.212 0.462,-0.249 0.462,-0.281C0.462,-0.385 0.428,-0.439 0.338,-0.439C0.3,-0.439 0.229,-0.424 0.165,-0.349L0.163,-0.352L0.163,-0.425C0.163,-0.433 0.162,-0.435 0.157,-0.435C0.135,-0.431 0.099,-0.43 0.076,-0.432L0.074,-0.429C0.081,-0.386 0.083,-0.31 0.083,-0.235L0.083,-0.18C0.083,-0.105 0.082,-0.054 0.074,-0L0.076,0.003C0.088,0.001 0.111,-0 0.123,-0C0.135,-0 0.158,0.001 0.17,0.003L0.172,-0C0.164,-0.057 0.163,-0.104 0.163,-0.18L0.163,-0.297C0.214,-0.357 0.272,-0.379 0.308,-0.379C0.359,-0.379 0.38,-0.359 0.38,-0.278L0.38,-0.18C0.38,-0.105 0.378,-0.054 0.371,-0L0.373,0.003C0.385,0.001 0.408,-0 0.42,-0C0.432,-0 0.455,0.001 0.467,0.003L0.469,-0C0.461,-0.057 0.46,-0.104 0.46,-0.18Z" style="fill-rule:nonzero;"/>
            </g>
            <g transform="matrix(33.3333,0,0,33.3333,768.615,2591.95)">
                <path d="M0.095,-0.429C0.075,-0.429 0.053,-0.429 0.041,-0.431C0.034,-0.415 0.029,-0.405 0.019,-0.39L0.024,-0.383C0.041,-0.384 0.072,-0.385 0.095,-0.385L0.095,-0.248C0.095,-0.188 0.092,-0.116 0.092,-0.086C0.092,-0.021 0.134,0.01 0.18,0.01C0.222,0.01 0.254,-0 0.296,-0.027L0.284,-0.052C0.253,-0.041 0.23,-0.04 0.205,-0.044C0.181,-0.048 0.172,-0.072 0.172,-0.126C0.172,-0.156 0.175,-0.199 0.175,-0.259L0.175,-0.385L0.213,-0.385C0.237,-0.385 0.272,-0.384 0.285,-0.383C0.288,-0.399 0.291,-0.409 0.297,-0.424L0.292,-0.431C0.274,-0.43 0.245,-0.429 0.222,-0.429L0.175,-0.429C0.175,-0.504 0.176,-0.517 0.18,-0.575C0.18,-0.582 0.177,-0.585 0.171,-0.585C0.146,-0.575 0.134,-0.565 0.101,-0.56L0.099,-0.557C0.097,-0.522 0.095,-0.487 0.095,-0.429Z" style="fill-rule:nonzero;"/>
            </g>
            <g transform="matrix(33.3333,0,0,33.3333,779.948,2591.95)">
                <path d="M0.198,-0.567C0.165,-0.53 0.114,-0.522 0.114,-0.479C0.114,-0.464 0.126,-0.451 0.143,-0.451C0.181,-0.451 0.188,-0.51 0.213,-0.555C0.238,-0.516 0.245,-0.451 0.284,-0.451C0.298,-0.451 0.313,-0.462 0.313,-0.48C0.313,-0.52 0.264,-0.53 0.23,-0.567C0.248,-0.57 0.266,-0.571 0.285,-0.571C0.319,-0.571 0.354,-0.578 0.354,-0.608C0.354,-0.618 0.347,-0.638 0.32,-0.638C0.287,-0.638 0.271,-0.606 0.225,-0.586C0.227,-0.616 0.244,-0.656 0.244,-0.683C0.244,-0.707 0.229,-0.718 0.211,-0.718C0.193,-0.718 0.181,-0.7 0.181,-0.679C0.181,-0.653 0.2,-0.626 0.204,-0.587C0.16,-0.605 0.142,-0.638 0.108,-0.638C0.084,-0.638 0.075,-0.622 0.075,-0.608C0.075,-0.578 0.107,-0.571 0.156,-0.571C0.171,-0.571 0.185,-0.57 0.198,-0.567Z" style="fill-rule:nonzero;"/>
            </g>
        </g>
    </g>
</svg>
