<?xml version="1.0" encoding="UTF-8" standalone="no"?>
<!DOCTYPE svg PUBLIC "-//W3C//DTD SVG 1.1//EN" "http://www.w3.org/Graphics/SVG/1.1/DTD/svg11.dtd">
<svg width="100%" height="100%" viewBox="0 0 1325 192" version="1.1" xmlns="http://www.w3.org/2000/svg" xmlns:xlink="http://www.w3.org/1999/xlink" xml:space="preserve" xmlns:serif="http://www.serif.com/" style="fill-rule:evenodd;clip-rule:evenodd;stroke-linecap:round;stroke-miterlimit:10;">
    <g transform="matrix(1,0,0,1,-377.826,-1131.54)">
        <g transform="matrix(1,0,0,1,-358.376,873.882)">
            <g transform="matrix(33.3333,0,0,33.3333,1033.42,449.189)">
                <path d="M0.308,-0.712L0.092,-0.639L0.092,-0.612L0.175,-0.612C0.2,-0.612 0.22,-0.591 0.221,-0.566C0.222,-0.541 0.222,-0.468 0.222,-0.419C0.222,-0.279 0.219,-0.139 0.214,-0L0.226,0.005L0.31,-0.022C0.307,-0.098 0.307,-0.296 0.307,-0.432C0.307,-0.521 0.309,-0.611 0.314,-0.7L0.308,-0.712Z" style="fill-rule:nonzero;"/>
            </g>
        </g>
        <g transform="matrix(1,0,0,1,-281.161,657.819)">
            <g transform="matrix(1,-0,-0,1,658.987,473.717)">
                <path d="M371.03,88.113L377.28,94.363L371.03,100.613" style="fill:none;stroke:black;stroke-width:4.17px;"/>
                <path d="M188.743,94.363L377.28,94.363" style="fill:none;stroke:black;stroke-width:4.17px;stroke-linejoin:round;stroke-miterlimit:1.5;"/>
            </g>
        </g>
        <g transform="matrix(1,0,0,1,-261.966,816.669)">
            <g transform="matrix(75,0,0,75,901.739,493.869)">
                <path d="M0.575,-0.689L0.567,-0.696C0.479,-0.692 0.38,-0.686 0.305,-0.686C0.128,-0.686 0.128,-0.694 0.033,-0.697L0.026,-0.69L0.026,-0.642L0.034,-0.635C0.145,-0.639 0.224,-0.642 0.248,-0.642C0.253,-0.642 0.257,-0.64 0.257,-0.636C0.258,-0.606 0.259,-0.462 0.259,-0.38C0.259,-0.253 0.254,-0.126 0.246,0.001L0.255,0.01L0.355,-0.017C0.348,-0.138 0.342,-0.317 0.342,-0.438C0.342,-0.518 0.345,-0.619 0.346,-0.633C0.346,-0.639 0.349,-0.644 0.355,-0.644C0.376,-0.644 0.397,-0.642 0.565,-0.634L0.573,-0.641L0.575,-0.689Z" style="fill-rule:nonzero;"/>
            </g>
        </g>
        <g transform="matrix(1,0,0,1,14.1219,874.323)">
            <g transform="matrix(33.3333,0,0,33.3333,1033.42,449.189)">
                <path d="M0.472,-0.08L0.467,-0.088L0.158,-0.088C0.153,-0.088 0.148,-0.089 0.146,-0.093C0.145,-0.095 0.146,-0.098 0.147,-0.099C0.197,-0.157 0.245,-0.215 0.29,-0.275C0.322,-0.317 0.353,-0.359 0.378,-0.405C0.404,-0.451 0.426,-0.5 0.426,-0.553C0.426,-0.594 0.414,-0.635 0.384,-0.664C0.355,-0.693 0.316,-0.708 0.275,-0.708C0.237,-0.708 0.201,-0.697 0.168,-0.679C0.128,-0.658 0.094,-0.628 0.064,-0.595L0.084,-0.576C0.108,-0.596 0.13,-0.611 0.158,-0.626C0.177,-0.636 0.199,-0.64 0.221,-0.64C0.25,-0.64 0.28,-0.629 0.3,-0.607C0.328,-0.578 0.334,-0.537 0.334,-0.508C0.334,-0.443 0.311,-0.382 0.276,-0.326C0.248,-0.28 0.213,-0.238 0.178,-0.197C0.125,-0.135 0.069,-0.076 0.012,-0.018L0.012,-0.002L0.449,-0.002L0.472,-0.08Z" style="fill-rule:nonzero;"/>
            </g>
        </g>
        <g transform="matrix(0.977703,0,0,1,117.925,657.819)">
            <g transform="matrix(1.02281,-0,-0,1,265.829,473.717)">
                <path d="M746.944,88.113L753.194,94.363L746.944,100.613" style="fill:none;stroke:black;stroke-width:4.17px;"/>
                <path d="M568.926,94.363L753.194,94.363" style="fill:none;stroke:black;stroke-width:4.17px;stroke-linejoin:round;stroke-miterlimit:1.5;"/>
            </g>
        </g>
        <g transform="matrix(1,0,0,1,114.482,820.018)">
            <g transform="matrix(75,0,0,75,901.739,493.869)">
                <path d="M0.575,-0.689L0.567,-0.696C0.479,-0.692 0.38,-0.686 0.305,-0.686C0.128,-0.686 0.128,-0.694 0.033,-0.697L0.026,-0.69L0.026,-0.642L0.034,-0.635C0.145,-0.639 0.224,-0.642 0.248,-0.642C0.253,-0.642 0.257,-0.64 0.257,-0.636C0.258,-0.606 0.259,-0.462 0.259,-0.38C0.259,-0.253 0.254,-0.126 0.246,0.001L0.255,0.01L0.355,-0.017C0.348,-0.138 0.342,-0.317 0.342,-0.438C0.342,-0.518 0.345,-0.619 0.346,-0.633C0.346,-0.639 0.349,-0.644 0.355,-0.644C0.376,-0.644 0.397,-0.642 0.565,-0.634L0.573,-0.641L0.575,-0.689Z" style="fill-rule:nonzero;"/>
            </g>
        </g>
        <g transform="matrix(1,0,0,1,394.449,870.974)">
            <g transform="matrix(33.3333,0,0,33.3333,1033.42,449.189)">
                <path d="M0.241,-0.382C0.282,-0.394 0.321,-0.416 0.352,-0.446C0.384,-0.478 0.399,-0.523 0.399,-0.568C0.399,-0.604 0.387,-0.64 0.361,-0.665C0.333,-0.694 0.292,-0.702 0.253,-0.702C0.225,-0.702 0.198,-0.691 0.173,-0.678C0.137,-0.659 0.103,-0.634 0.072,-0.608L0.086,-0.586C0.109,-0.601 0.132,-0.615 0.157,-0.626C0.174,-0.633 0.191,-0.639 0.208,-0.639C0.238,-0.639 0.267,-0.632 0.288,-0.611C0.307,-0.592 0.317,-0.567 0.317,-0.54C0.317,-0.502 0.302,-0.465 0.274,-0.437C0.258,-0.421 0.237,-0.409 0.215,-0.399C0.187,-0.386 0.156,-0.378 0.126,-0.371L0.125,-0.345C0.162,-0.345 0.199,-0.343 0.235,-0.334C0.26,-0.328 0.285,-0.319 0.303,-0.3C0.332,-0.269 0.352,-0.229 0.352,-0.186C0.352,-0.141 0.338,-0.095 0.306,-0.063C0.279,-0.036 0.243,-0.023 0.206,-0.023C0.17,-0.023 0.136,-0.041 0.111,-0.067C0.095,-0.083 0.082,-0.101 0.07,-0.121L0.06,-0.121L0.018,-0.049L0.025,-0.038C0.07,-0.003 0.124,0.017 0.181,0.017C0.254,0.017 0.325,-0.008 0.377,-0.059C0.419,-0.101 0.446,-0.156 0.446,-0.215C0.446,-0.254 0.433,-0.291 0.406,-0.318C0.388,-0.336 0.364,-0.347 0.341,-0.355C0.308,-0.366 0.275,-0.371 0.241,-0.374L0.241,-0.382Z" style="fill-rule:nonzero;"/>
            </g>
        </g>
        <g transform="matrix(0.988066,0,0,1,484.25,657.819)">
            <g transform="matrix(1.01208,-0,-0,1,-107.709,473.717)">
                <path d="M1124.04,88.113L1130.29,94.363L1124.04,100.613" style="fill:none;stroke:black;stroke-width:4.17px;"/>
                <path d="M944.037,94.363L1130.29,94.363" style="fill:none;stroke:black;stroke-width:4.17px;stroke-linejoin:round;stroke-miterlimit:1.5;"/>
            </g>
        </g>
        <g transform="matrix(1,0,0,1,494.809,816.669)">
            <g transform="matrix(75,0,0,75,901.739,493.869)">
                <path d="M0.575,-0.689L0.567,-0.696C0.479,-0.692 0.38,-0.686 0.305,-0.686C0.128,-0.686 0.128,-0.694 0.033,-0.697L0.026,-0.69L0.026,-0.642L0.034,-0.635C0.145,-0.639 0.224,-0.642 0.248,-0.642C0.253,-0.642 0.257,-0.64 0.257,-0.636C0.258,-0.606 0.259,-0.462 0.259,-0.38C0.259,-0.253 0.254,-0.126 0.246,0.001L0.255,0.01L0.355,-0.017C0.348,-0.138 0.342,-0.317 0.342,-0.438C0.342,-0.518 0.345,-0.619 0.346,-0.633C0.346,-0.639 0.349,-0.644 0.355,-0.644C0.376,-0.644 0.397,-0.642 0.565,-0.634L0.573,-0.641L0.575,-0.689Z" style="fill-rule:nonzero;"/>
            </g>
        </g>
        <g transform="matrix(1,0,0,1,-281.098,686.239)">
            <g transform="matrix(75,0,0,75,731.567,569.492)">
                <path d="M0.48,-0.606C0.47,-0.625 0.459,-0.643 0.444,-0.658C0.407,-0.695 0.354,-0.702 0.303,-0.702C0.242,-0.702 0.182,-0.683 0.138,-0.64C0.105,-0.606 0.091,-0.559 0.091,-0.512C0.091,-0.466 0.109,-0.421 0.142,-0.388C0.168,-0.362 0.228,-0.334 0.274,-0.314C0.302,-0.302 0.339,-0.277 0.36,-0.255C0.379,-0.234 0.395,-0.202 0.395,-0.178C0.395,-0.141 0.383,-0.102 0.357,-0.076C0.329,-0.049 0.29,-0.031 0.252,-0.031C0.219,-0.031 0.185,-0.045 0.161,-0.069C0.139,-0.091 0.128,-0.122 0.119,-0.152L0.102,-0.153L0.045,-0.087C0.053,-0.066 0.066,-0.047 0.082,-0.031C0.115,0.003 0.163,0.015 0.21,0.015C0.289,0.015 0.366,-0.016 0.422,-0.072C0.459,-0.109 0.483,-0.157 0.483,-0.209C0.483,-0.25 0.461,-0.296 0.431,-0.325C0.413,-0.344 0.361,-0.373 0.324,-0.389C0.285,-0.406 0.242,-0.427 0.215,-0.454C0.19,-0.479 0.171,-0.511 0.171,-0.547C0.171,-0.577 0.179,-0.607 0.2,-0.628C0.221,-0.65 0.251,-0.665 0.282,-0.665C0.313,-0.665 0.344,-0.654 0.367,-0.632C0.388,-0.611 0.397,-0.581 0.404,-0.553L0.417,-0.55L0.48,-0.606Z" style="fill-rule:nonzero;"/>
            </g>
        </g>
        <g id="_1" serif:id="1" transform="matrix(1,0,0,1,-546.58,816.293)">
            <g transform="matrix(33.3333,0,0,33.3333,1033.42,449.189)">
                <path d="M0.29,-0.704C0.246,-0.686 0.197,-0.662 0.164,-0.629C0.079,-0.544 0.034,-0.423 0.034,-0.303C0.034,-0.245 0.039,-0.192 0.055,-0.136C0.066,-0.094 0.087,-0.053 0.118,-0.022C0.142,0.001 0.174,0.014 0.207,0.014C0.262,0.014 0.315,-0.008 0.354,-0.046C0.39,-0.083 0.416,-0.129 0.432,-0.177C0.452,-0.234 0.46,-0.295 0.46,-0.356C0.46,-0.434 0.445,-0.513 0.405,-0.582C0.376,-0.632 0.34,-0.672 0.29,-0.704ZM0.234,-0.64C0.279,-0.621 0.324,-0.551 0.33,-0.539C0.374,-0.461 0.398,-0.375 0.398,-0.285C0.398,-0.245 0.395,-0.204 0.383,-0.166C0.373,-0.135 0.36,-0.106 0.337,-0.083C0.316,-0.061 0.283,-0.052 0.252,-0.052C0.232,-0.052 0.203,-0.065 0.184,-0.084C0.153,-0.115 0.135,-0.156 0.122,-0.199C0.106,-0.254 0.101,-0.313 0.101,-0.371C0.101,-0.452 0.129,-0.532 0.181,-0.595C0.197,-0.614 0.215,-0.628 0.234,-0.64Z" style="fill-rule:nonzero;"/>
            </g>
        </g>
        <g transform="matrix(1,0,0,1,-756.042,372.353)">
            <ellipse cx="1230.3" cy="772.655" rx="94.35" ry="11.388" style="fill:rgb(235,235,235);fill-opacity:0;stroke:black;stroke-width:4.17px;stroke-linejoin:round;stroke-miterlimit:1.5;"/>
            <g transform="matrix(-1,0,0,-1,2460.6,1703.45)">
                <path d="M1135.95,772.655C1135.95,766.37 1178.23,761.267 1230.3,761.267C1282.37,761.267 1324.65,766.37 1324.65,772.655" style="fill:rgb(235,235,235);fill-opacity:0;stroke:black;stroke-width:4.17px;stroke-linejoin:round;stroke-miterlimit:1.5;"/>
            </g>
            <path d="M1135.95,772.655L1135.95,930.798" style="fill:none;stroke:black;stroke-width:4.17px;stroke-linejoin:round;stroke-miterlimit:1.5;"/>
            <g transform="matrix(1,0,0,1,188.7,0)">
                <path d="M1135.95,772.655L1135.95,930.798" style="fill:none;stroke:black;stroke-width:4.17px;stroke-linejoin:round;stroke-miterlimit:1.5;"/>
            </g>
        </g>
        <g transform="matrix(1,0,0,1,97.0449,688.06)">
            <g transform="matrix(75,0,0,75,731.567,569.492)">
                <path d="M0.48,-0.606C0.47,-0.625 0.459,-0.643 0.444,-0.658C0.407,-0.695 0.354,-0.702 0.303,-0.702C0.242,-0.702 0.182,-0.683 0.138,-0.64C0.105,-0.606 0.091,-0.559 0.091,-0.512C0.091,-0.466 0.109,-0.421 0.142,-0.388C0.168,-0.362 0.228,-0.334 0.274,-0.314C0.302,-0.302 0.339,-0.277 0.36,-0.255C0.379,-0.234 0.395,-0.202 0.395,-0.178C0.395,-0.141 0.383,-0.102 0.357,-0.076C0.329,-0.049 0.29,-0.031 0.252,-0.031C0.219,-0.031 0.185,-0.045 0.161,-0.069C0.139,-0.091 0.128,-0.122 0.119,-0.152L0.102,-0.153L0.045,-0.087C0.053,-0.066 0.066,-0.047 0.082,-0.031C0.115,0.003 0.163,0.015 0.21,0.015C0.289,0.015 0.366,-0.016 0.422,-0.072C0.459,-0.109 0.483,-0.157 0.483,-0.209C0.483,-0.25 0.461,-0.296 0.431,-0.325C0.413,-0.344 0.361,-0.373 0.324,-0.389C0.285,-0.406 0.242,-0.427 0.215,-0.454C0.19,-0.479 0.171,-0.511 0.171,-0.547C0.171,-0.577 0.179,-0.607 0.2,-0.628C0.221,-0.65 0.251,-0.665 0.282,-0.665C0.313,-0.665 0.344,-0.654 0.367,-0.632C0.388,-0.611 0.397,-0.581 0.404,-0.553L0.417,-0.55L0.48,-0.606Z" style="fill-rule:nonzero;"/>
            </g>
        </g>
        <g id="_11" serif:id="1" transform="matrix(1,0,0,1,-168.437,818.113)">
            <g transform="matrix(33.3333,0,0,33.3333,1033.42,449.189)">
                <path d="M0.308,-0.712L0.092,-0.639L0.092,-0.612L0.175,-0.612C0.2,-0.612 0.22,-0.591 0.221,-0.566C0.222,-0.541 0.222,-0.468 0.222,-0.419C0.222,-0.279 0.219,-0.139 0.214,-0L0.226,0.005L0.31,-0.022C0.307,-0.098 0.307,-0.296 0.307,-0.432C0.307,-0.521 0.309,-0.611 0.314,-0.7L0.308,-0.712Z" style="fill-rule:nonzero;"/>
            </g>
        </g>
        <g transform="matrix(1,0,0,1,-377.898,374.173)">
            <ellipse cx="1230.3" cy="772.655" rx="94.35" ry="11.388" style="fill:rgb(235,235,235);fill-opacity:0;stroke:black;stroke-width:4.17px;stroke-linejoin:round;stroke-miterlimit:1.5;"/>
        </g>
        <g transform="matrix(-1,0,0,-1,2082.7,2077.63)">
            <path d="M1135.95,772.655C1135.95,766.37 1178.23,761.267 1230.3,761.267C1282.37,761.267 1324.65,766.37 1324.65,772.655" style="fill:rgb(235,235,235);fill-opacity:0;stroke:black;stroke-width:4.17px;stroke-linejoin:round;stroke-miterlimit:1.5;"/>
        </g>
        <g transform="matrix(1,0,0,1,-377.898,374.173)">
            <path d="M1135.95,772.655L1135.95,930.798" style="fill:none;stroke:black;stroke-width:4.17px;stroke-linejoin:round;stroke-miterlimit:1.5;"/>
        </g>
        <g transform="matrix(1,0,0,1,-189.199,374.173)">
            <path d="M1135.95,772.655L1135.95,930.798" style="fill:none;stroke:black;stroke-width:4.17px;stroke-linejoin:round;stroke-miterlimit:1.5;"/>
        </g>
        <g transform="matrix(1,0,0,1,472.02,692.128)">
            <g transform="matrix(75,0,0,75,731.567,569.492)">
                <path d="M0.48,-0.606C0.47,-0.625 0.459,-0.643 0.444,-0.658C0.407,-0.695 0.354,-0.702 0.303,-0.702C0.242,-0.702 0.182,-0.683 0.138,-0.64C0.105,-0.606 0.091,-0.559 0.091,-0.512C0.091,-0.466 0.109,-0.421 0.142,-0.388C0.168,-0.362 0.228,-0.334 0.274,-0.314C0.302,-0.302 0.339,-0.277 0.36,-0.255C0.379,-0.234 0.395,-0.202 0.395,-0.178C0.395,-0.141 0.383,-0.102 0.357,-0.076C0.329,-0.049 0.29,-0.031 0.252,-0.031C0.219,-0.031 0.185,-0.045 0.161,-0.069C0.139,-0.091 0.128,-0.122 0.119,-0.152L0.102,-0.153L0.045,-0.087C0.053,-0.066 0.066,-0.047 0.082,-0.031C0.115,0.003 0.163,0.015 0.21,0.015C0.289,0.015 0.366,-0.016 0.422,-0.072C0.459,-0.109 0.483,-0.157 0.483,-0.209C0.483,-0.25 0.461,-0.296 0.431,-0.325C0.413,-0.344 0.361,-0.373 0.324,-0.389C0.285,-0.406 0.242,-0.427 0.215,-0.454C0.19,-0.479 0.171,-0.511 0.171,-0.547C0.171,-0.577 0.179,-0.607 0.2,-0.628C0.221,-0.65 0.251,-0.665 0.282,-0.665C0.313,-0.665 0.344,-0.654 0.367,-0.632C0.388,-0.611 0.397,-0.581 0.404,-0.553L0.417,-0.55L0.48,-0.606Z" style="fill-rule:nonzero;"/>
            </g>
        </g>
        <g id="_12" serif:id="1" transform="matrix(1,0,0,1,206.538,822.182)">
            <g transform="matrix(33.3333,0,0,33.3333,1033.42,449.189)">
                <path d="M0.472,-0.08L0.467,-0.088L0.158,-0.088C0.153,-0.088 0.148,-0.089 0.146,-0.093C0.145,-0.095 0.146,-0.098 0.147,-0.099C0.197,-0.157 0.245,-0.215 0.29,-0.275C0.322,-0.317 0.353,-0.359 0.378,-0.405C0.404,-0.451 0.426,-0.5 0.426,-0.553C0.426,-0.594 0.414,-0.635 0.384,-0.664C0.355,-0.693 0.316,-0.708 0.275,-0.708C0.237,-0.708 0.201,-0.697 0.168,-0.679C0.128,-0.658 0.094,-0.628 0.064,-0.595L0.084,-0.576C0.108,-0.596 0.13,-0.611 0.158,-0.626C0.177,-0.636 0.199,-0.64 0.221,-0.64C0.25,-0.64 0.28,-0.629 0.3,-0.607C0.328,-0.578 0.334,-0.537 0.334,-0.508C0.334,-0.443 0.311,-0.382 0.276,-0.326C0.248,-0.28 0.213,-0.238 0.178,-0.197C0.125,-0.135 0.069,-0.076 0.012,-0.018L0.012,-0.002L0.449,-0.002L0.472,-0.08Z" style="fill-rule:nonzero;"/>
            </g>
        </g>
        <g transform="matrix(1,0,0,1,-2.9235,378.242)">
            <ellipse cx="1230.3" cy="772.655" rx="94.35" ry="11.388" style="fill:rgb(235,235,235);fill-opacity:0;stroke:black;stroke-width:4.17px;stroke-linejoin:round;stroke-miterlimit:1.5;"/>
            <g transform="matrix(-1,0,0,-1,2460.6,1703.45)">
                <path d="M1135.95,772.655C1135.95,766.37 1178.23,761.267 1230.3,761.267C1282.37,761.267 1324.65,766.37 1324.65,772.655" style="fill:rgb(235,235,235);fill-opacity:0;stroke:black;stroke-width:4.17px;stroke-linejoin:round;stroke-miterlimit:1.5;"/>
            </g>
            <path d="M1135.95,772.655L1135.95,930.798" style="fill:none;stroke:black;stroke-width:4.17px;stroke-linejoin:round;stroke-miterlimit:1.5;"/>
            <g transform="matrix(1,0,0,1,188.7,0)">
                <path d="M1135.95,772.655L1135.95,930.798" style="fill:none;stroke:black;stroke-width:4.17px;stroke-linejoin:round;stroke-miterlimit:1.5;"/>
            </g>
        </g>
        <g transform="matrix(1,0,0,1,850.054,688.06)">
            <g transform="matrix(75,0,0,75,731.567,569.492)">
                <path d="M0.48,-0.606C0.47,-0.625 0.459,-0.643 0.444,-0.658C0.407,-0.695 0.354,-0.702 0.303,-0.702C0.242,-0.702 0.182,-0.683 0.138,-0.64C0.105,-0.606 0.091,-0.559 0.091,-0.512C0.091,-0.466 0.109,-0.421 0.142,-0.388C0.168,-0.362 0.228,-0.334 0.274,-0.314C0.302,-0.302 0.339,-0.277 0.36,-0.255C0.379,-0.234 0.395,-0.202 0.395,-0.178C0.395,-0.141 0.383,-0.102 0.357,-0.076C0.329,-0.049 0.29,-0.031 0.252,-0.031C0.219,-0.031 0.185,-0.045 0.161,-0.069C0.139,-0.091 0.128,-0.122 0.119,-0.152L0.102,-0.153L0.045,-0.087C0.053,-0.066 0.066,-0.047 0.082,-0.031C0.115,0.003 0.163,0.015 0.21,0.015C0.289,0.015 0.366,-0.016 0.422,-0.072C0.459,-0.109 0.483,-0.157 0.483,-0.209C0.483,-0.25 0.461,-0.296 0.431,-0.325C0.413,-0.344 0.361,-0.373 0.324,-0.389C0.285,-0.406 0.242,-0.427 0.215,-0.454C0.19,-0.479 0.171,-0.511 0.171,-0.547C0.171,-0.577 0.179,-0.607 0.2,-0.628C0.221,-0.65 0.251,-0.665 0.282,-0.665C0.313,-0.665 0.344,-0.654 0.367,-0.632C0.388,-0.611 0.397,-0.581 0.404,-0.553L0.417,-0.55L0.48,-0.606Z" style="fill-rule:nonzero;"/>
            </g>
        </g>
        <g id="_13" serif:id="1" transform="matrix(1,0,0,1,584.572,818.113)">
            <g transform="matrix(33.3333,0,0,33.3333,1033.42,449.189)">
                <path d="M0.241,-0.382C0.282,-0.394 0.321,-0.416 0.352,-0.446C0.384,-0.478 0.399,-0.523 0.399,-0.568C0.399,-0.604 0.387,-0.64 0.361,-0.665C0.333,-0.694 0.292,-0.702 0.253,-0.702C0.225,-0.702 0.198,-0.691 0.173,-0.678C0.137,-0.659 0.103,-0.634 0.072,-0.608L0.086,-0.586C0.109,-0.601 0.132,-0.615 0.157,-0.626C0.174,-0.633 0.191,-0.639 0.208,-0.639C0.238,-0.639 0.267,-0.632 0.288,-0.611C0.307,-0.592 0.317,-0.567 0.317,-0.54C0.317,-0.502 0.302,-0.465 0.274,-0.437C0.258,-0.421 0.237,-0.409 0.215,-0.399C0.187,-0.386 0.156,-0.378 0.126,-0.371L0.125,-0.345C0.162,-0.345 0.199,-0.343 0.235,-0.334C0.26,-0.328 0.285,-0.319 0.303,-0.3C0.332,-0.269 0.352,-0.229 0.352,-0.186C0.352,-0.141 0.338,-0.095 0.306,-0.063C0.279,-0.036 0.243,-0.023 0.206,-0.023C0.17,-0.023 0.136,-0.041 0.111,-0.067C0.095,-0.083 0.082,-0.101 0.07,-0.121L0.06,-0.121L0.018,-0.049L0.025,-0.038C0.07,-0.003 0.124,0.017 0.181,0.017C0.254,0.017 0.325,-0.008 0.377,-0.059C0.419,-0.101 0.446,-0.156 0.446,-0.215C0.446,-0.254 0.433,-0.291 0.406,-0.318C0.388,-0.336 0.364,-0.347 0.341,-0.355C0.308,-0.366 0.275,-0.371 0.241,-0.374L0.241,-0.382Z" style="fill-rule:nonzero;"/>
            </g>
        </g>
        <g transform="matrix(1,0,0,1,375.111,374.173)">
            <ellipse cx="1230.3" cy="772.655" rx="94.35" ry="11.388" style="fill:rgb(235,235,235);fill-opacity:0;stroke:black;stroke-width:4.17px;stroke-linejoin:round;stroke-miterlimit:1.5;"/>
            <g transform="matrix(-1,0,0,-1,2460.6,1703.45)">
                <path d="M1135.95,772.655C1135.95,766.37 1178.23,761.267 1230.3,761.267C1282.37,761.267 1324.65,766.37 1324.65,772.655" style="fill:rgb(235,235,235);fill-opacity:0;stroke:black;stroke-width:4.17px;stroke-linejoin:round;stroke-miterlimit:1.5;"/>
            </g>
            <path d="M1135.95,772.655L1135.95,930.798" style="fill:none;stroke:black;stroke-width:4.17px;stroke-linejoin:round;stroke-miterlimit:1.5;"/>
            <g transform="matrix(1,0,0,1,188.7,0)">
                <path d="M1135.95,772.655L1135.95,930.798" style="fill:none;stroke:black;stroke-width:4.17px;stroke-linejoin:round;stroke-miterlimit:1.5;"/>
            </g>
        </g>
    </g>
</svg>
