<?xml version="1.0" encoding="UTF-8" standalone="no"?>
<!DOCTYPE svg PUBLIC "-//W3C//DTD SVG 1.1//EN" "http://www.w3.org/Graphics/SVG/1.1/DTD/svg11.dtd">
<svg width="100%" height="100%" viewBox="0 0 1706 468" version="1.1" xmlns="http://www.w3.org/2000/svg" xmlns:xlink="http://www.w3.org/1999/xlink" xml:space="preserve" xmlns:serif="http://www.serif.com/" style="fill-rule:evenodd;clip-rule:evenodd;stroke-linecap:round;stroke-linejoin:round;stroke-miterlimit:1.5;">
    <g transform="matrix(1,0,0,1,-375.786,-469.537)">
        <g transform="matrix(1,0,0,1,-281.161,-2.11098)">
            <g transform="matrix(1.0937,0,0,1.0937,-256.677,-217.418)">
                <circle cx="923.526" cy="718.206" r="86.267" style="fill:rgb(235,235,235);fill-opacity:0;stroke:black;stroke-width:3.81px;"/>
            </g>
            <g transform="matrix(1,0,0,1,2.01277,24.3511)">
                <g transform="matrix(75,0,0,75,731.567,569.492)">
                    <path d="M0.48,-0.606C0.47,-0.625 0.459,-0.643 0.444,-0.658C0.407,-0.695 0.354,-0.702 0.303,-0.702C0.242,-0.702 0.182,-0.683 0.138,-0.64C0.105,-0.606 0.091,-0.559 0.091,-0.512C0.091,-0.466 0.109,-0.421 0.142,-0.388C0.168,-0.362 0.228,-0.334 0.274,-0.314C0.302,-0.302 0.339,-0.277 0.36,-0.255C0.379,-0.234 0.395,-0.202 0.395,-0.178C0.395,-0.141 0.383,-0.102 0.357,-0.076C0.329,-0.049 0.29,-0.031 0.252,-0.031C0.219,-0.031 0.185,-0.045 0.161,-0.069C0.139,-0.091 0.128,-0.122 0.119,-0.152L0.102,-0.153L0.045,-0.087C0.053,-0.066 0.066,-0.047 0.082,-0.031C0.115,0.003 0.163,0.015 0.21,0.015C0.289,0.015 0.366,-0.016 0.422,-0.072C0.459,-0.109 0.483,-0.157 0.483,-0.209C0.483,-0.25 0.461,-0.296 0.431,-0.325C0.413,-0.344 0.361,-0.373 0.324,-0.389C0.285,-0.406 0.242,-0.427 0.215,-0.454C0.19,-0.479 0.171,-0.511 0.171,-0.547C0.171,-0.577 0.179,-0.607 0.2,-0.628C0.221,-0.65 0.251,-0.665 0.282,-0.665C0.313,-0.665 0.344,-0.654 0.367,-0.632C0.388,-0.611 0.397,-0.581 0.404,-0.553L0.417,-0.55L0.48,-0.606Z" style="fill-rule:nonzero;"/>
                </g>
            </g>
            <g transform="matrix(1,0,0,1,-264.469,154.405)">
                <g transform="matrix(33.3333,0,0,33.3333,1033.42,449.189)">
                    <path d="M0.29,-0.704C0.246,-0.686 0.197,-0.662 0.164,-0.629C0.079,-0.544 0.034,-0.423 0.034,-0.303C0.034,-0.245 0.039,-0.192 0.055,-0.136C0.066,-0.094 0.087,-0.053 0.118,-0.022C0.142,0.001 0.174,0.014 0.207,0.014C0.262,0.014 0.315,-0.008 0.354,-0.046C0.39,-0.083 0.416,-0.129 0.432,-0.177C0.452,-0.234 0.46,-0.295 0.46,-0.356C0.46,-0.434 0.445,-0.513 0.405,-0.582C0.376,-0.632 0.34,-0.672 0.29,-0.704ZM0.234,-0.64C0.279,-0.621 0.324,-0.551 0.33,-0.539C0.374,-0.461 0.398,-0.375 0.398,-0.285C0.398,-0.245 0.395,-0.204 0.383,-0.166C0.373,-0.135 0.36,-0.106 0.337,-0.083C0.316,-0.061 0.283,-0.052 0.252,-0.052C0.232,-0.052 0.203,-0.065 0.184,-0.084C0.153,-0.115 0.135,-0.156 0.122,-0.199C0.106,-0.254 0.101,-0.313 0.101,-0.371C0.101,-0.452 0.129,-0.532 0.181,-0.595C0.197,-0.614 0.215,-0.628 0.234,-0.64Z" style="fill-rule:nonzero;"/>
                </g>
            </g>
        </g>
        <g transform="matrix(1,0,0,1,-281.161,-2.11098)">
            <g transform="matrix(1.0937,0,0,1.0937,123.507,-217.418)">
                <circle cx="923.526" cy="718.206" r="86.267" style="fill:rgb(235,235,235);fill-opacity:0;stroke:black;stroke-width:3.81px;"/>
            </g>
            <g transform="matrix(1,0,0,1,382.196,24.3511)">
                <g transform="matrix(75,0,0,75,731.567,569.492)">
                    <path d="M0.48,-0.606C0.47,-0.625 0.459,-0.643 0.444,-0.658C0.407,-0.695 0.354,-0.702 0.303,-0.702C0.242,-0.702 0.182,-0.683 0.138,-0.64C0.105,-0.606 0.091,-0.559 0.091,-0.512C0.091,-0.466 0.109,-0.421 0.142,-0.388C0.168,-0.362 0.228,-0.334 0.274,-0.314C0.302,-0.302 0.339,-0.277 0.36,-0.255C0.379,-0.234 0.395,-0.202 0.395,-0.178C0.395,-0.141 0.383,-0.102 0.357,-0.076C0.329,-0.049 0.29,-0.031 0.252,-0.031C0.219,-0.031 0.185,-0.045 0.161,-0.069C0.139,-0.091 0.128,-0.122 0.119,-0.152L0.102,-0.153L0.045,-0.087C0.053,-0.066 0.066,-0.047 0.082,-0.031C0.115,0.003 0.163,0.015 0.21,0.015C0.289,0.015 0.366,-0.016 0.422,-0.072C0.459,-0.109 0.483,-0.157 0.483,-0.209C0.483,-0.25 0.461,-0.296 0.431,-0.325C0.413,-0.344 0.361,-0.373 0.324,-0.389C0.285,-0.406 0.242,-0.427 0.215,-0.454C0.19,-0.479 0.171,-0.511 0.171,-0.547C0.171,-0.577 0.179,-0.607 0.2,-0.628C0.221,-0.65 0.251,-0.665 0.282,-0.665C0.313,-0.665 0.344,-0.654 0.367,-0.632C0.388,-0.611 0.397,-0.581 0.404,-0.553L0.417,-0.55L0.48,-0.606Z" style="fill-rule:nonzero;"/>
                </g>
            </g>
            <g transform="matrix(1,0,0,1,115.714,154.405)">
                <g transform="matrix(33.3333,0,0,33.3333,1033.42,449.189)">
                    <path d="M0.308,-0.712L0.092,-0.639L0.092,-0.612L0.175,-0.612C0.2,-0.612 0.22,-0.591 0.221,-0.566C0.222,-0.541 0.222,-0.468 0.222,-0.419C0.222,-0.279 0.219,-0.139 0.214,-0L0.226,0.005L0.31,-0.022C0.307,-0.098 0.307,-0.296 0.307,-0.432C0.307,-0.521 0.309,-0.611 0.314,-0.7L0.308,-0.712Z" style="fill-rule:nonzero;"/>
                </g>
            </g>
        </g>
        <g transform="matrix(1,0,0,1,96.7375,-2.11098)">
            <g transform="matrix(1.0937,0,0,1.0937,123.507,-217.418)">
                <circle cx="923.526" cy="718.206" r="86.267" style="fill:rgb(235,235,235);fill-opacity:0;stroke:black;stroke-width:3.81px;"/>
            </g>
            <g transform="matrix(1,0,0,1,382.196,24.3511)">
                <g transform="matrix(75,0,0,75,731.567,569.492)">
                    <path d="M0.48,-0.606C0.47,-0.625 0.459,-0.643 0.444,-0.658C0.407,-0.695 0.354,-0.702 0.303,-0.702C0.242,-0.702 0.182,-0.683 0.138,-0.64C0.105,-0.606 0.091,-0.559 0.091,-0.512C0.091,-0.466 0.109,-0.421 0.142,-0.388C0.168,-0.362 0.228,-0.334 0.274,-0.314C0.302,-0.302 0.339,-0.277 0.36,-0.255C0.379,-0.234 0.395,-0.202 0.395,-0.178C0.395,-0.141 0.383,-0.102 0.357,-0.076C0.329,-0.049 0.29,-0.031 0.252,-0.031C0.219,-0.031 0.185,-0.045 0.161,-0.069C0.139,-0.091 0.128,-0.122 0.119,-0.152L0.102,-0.153L0.045,-0.087C0.053,-0.066 0.066,-0.047 0.082,-0.031C0.115,0.003 0.163,0.015 0.21,0.015C0.289,0.015 0.366,-0.016 0.422,-0.072C0.459,-0.109 0.483,-0.157 0.483,-0.209C0.483,-0.25 0.461,-0.296 0.431,-0.325C0.413,-0.344 0.361,-0.373 0.324,-0.389C0.285,-0.406 0.242,-0.427 0.215,-0.454C0.19,-0.479 0.171,-0.511 0.171,-0.547C0.171,-0.577 0.179,-0.607 0.2,-0.628C0.221,-0.65 0.251,-0.665 0.282,-0.665C0.313,-0.665 0.344,-0.654 0.367,-0.632C0.388,-0.611 0.397,-0.581 0.404,-0.553L0.417,-0.55L0.48,-0.606Z" style="fill-rule:nonzero;"/>
                </g>
            </g>
            <g id="_1" serif:id="1" transform="matrix(1,0,0,1,116.714,154.405)">
                <g transform="matrix(33.3333,0,0,33.3333,1033.42,449.189)">
                    <path d="M0.472,-0.08L0.467,-0.088L0.158,-0.088C0.153,-0.088 0.148,-0.089 0.146,-0.093C0.145,-0.095 0.146,-0.098 0.147,-0.099C0.197,-0.157 0.245,-0.215 0.29,-0.275C0.322,-0.317 0.353,-0.359 0.378,-0.405C0.404,-0.451 0.426,-0.5 0.426,-0.553C0.426,-0.594 0.414,-0.635 0.384,-0.664C0.355,-0.693 0.316,-0.708 0.275,-0.708C0.237,-0.708 0.201,-0.697 0.168,-0.679C0.128,-0.658 0.094,-0.628 0.064,-0.595L0.084,-0.576C0.108,-0.596 0.13,-0.611 0.158,-0.626C0.177,-0.636 0.199,-0.64 0.221,-0.64C0.25,-0.64 0.28,-0.629 0.3,-0.607C0.328,-0.578 0.334,-0.537 0.334,-0.508C0.334,-0.443 0.311,-0.382 0.276,-0.326C0.248,-0.28 0.213,-0.238 0.178,-0.197C0.125,-0.135 0.069,-0.076 0.012,-0.018L0.012,-0.002L0.449,-0.002L0.472,-0.08Z" style="fill-rule:nonzero;"/>
                </g>
            </g>
        </g>
        <g>
            <g transform="matrix(1.0937,0,0,1.0937,596.382,-219.529)">
                <circle cx="923.526" cy="718.206" r="86.267" style="fill:rgb(235,235,235);fill-opacity:0;stroke:black;stroke-width:3.81px;"/>
            </g>
            <g transform="matrix(1,0,0,1,855.071,22.2401)">
                <g transform="matrix(75,0,0,75,731.567,569.492)">
                    <path d="M0.48,-0.606C0.47,-0.625 0.459,-0.643 0.444,-0.658C0.407,-0.695 0.354,-0.702 0.303,-0.702C0.242,-0.702 0.182,-0.683 0.138,-0.64C0.105,-0.606 0.091,-0.559 0.091,-0.512C0.091,-0.466 0.109,-0.421 0.142,-0.388C0.168,-0.362 0.228,-0.334 0.274,-0.314C0.302,-0.302 0.339,-0.277 0.36,-0.255C0.379,-0.234 0.395,-0.202 0.395,-0.178C0.395,-0.141 0.383,-0.102 0.357,-0.076C0.329,-0.049 0.29,-0.031 0.252,-0.031C0.219,-0.031 0.185,-0.045 0.161,-0.069C0.139,-0.091 0.128,-0.122 0.119,-0.152L0.102,-0.153L0.045,-0.087C0.053,-0.066 0.066,-0.047 0.082,-0.031C0.115,0.003 0.163,0.015 0.21,0.015C0.289,0.015 0.366,-0.016 0.422,-0.072C0.459,-0.109 0.483,-0.157 0.483,-0.209C0.483,-0.25 0.461,-0.296 0.431,-0.325C0.413,-0.344 0.361,-0.373 0.324,-0.389C0.285,-0.406 0.242,-0.427 0.215,-0.454C0.19,-0.479 0.171,-0.511 0.171,-0.547C0.171,-0.577 0.179,-0.607 0.2,-0.628C0.221,-0.65 0.251,-0.665 0.282,-0.665C0.313,-0.665 0.344,-0.654 0.367,-0.632C0.388,-0.611 0.397,-0.581 0.404,-0.553L0.417,-0.55L0.48,-0.606Z" style="fill-rule:nonzero;"/>
                </g>
            </g>
            <g id="_11" serif:id="1" transform="matrix(1,0,0,1,589.589,152.294)">
                <g transform="matrix(33.3333,0,0,33.3333,1033.42,449.189)">
                    <path d="M0.472,-0.08L0.467,-0.088L0.158,-0.088C0.153,-0.088 0.148,-0.089 0.146,-0.093C0.145,-0.095 0.146,-0.098 0.147,-0.099C0.197,-0.157 0.245,-0.215 0.29,-0.275C0.322,-0.317 0.353,-0.359 0.378,-0.405C0.404,-0.451 0.426,-0.5 0.426,-0.553C0.426,-0.594 0.414,-0.635 0.384,-0.664C0.355,-0.693 0.316,-0.708 0.275,-0.708C0.237,-0.708 0.201,-0.697 0.168,-0.679C0.128,-0.658 0.094,-0.628 0.064,-0.595L0.084,-0.576C0.108,-0.596 0.13,-0.611 0.158,-0.626C0.177,-0.636 0.199,-0.64 0.221,-0.64C0.25,-0.64 0.28,-0.629 0.3,-0.607C0.328,-0.578 0.334,-0.537 0.334,-0.508C0.334,-0.443 0.311,-0.382 0.276,-0.326C0.248,-0.28 0.213,-0.238 0.178,-0.197C0.125,-0.135 0.069,-0.076 0.012,-0.018L0.012,-0.002L0.449,-0.002L0.472,-0.08Z" style="fill-rule:nonzero;"/>
                </g>
            </g>
        </g>
        <g transform="matrix(1,0,0,1,472.959,306.365)">
            <g transform="matrix(75,0,0,75,731.567,569.492)">
                <path d="M0.48,-0.606C0.47,-0.625 0.459,-0.643 0.444,-0.658C0.407,-0.695 0.354,-0.702 0.303,-0.702C0.242,-0.702 0.182,-0.683 0.138,-0.64C0.105,-0.606 0.091,-0.559 0.091,-0.512C0.091,-0.466 0.109,-0.421 0.142,-0.388C0.168,-0.362 0.228,-0.334 0.274,-0.314C0.302,-0.302 0.339,-0.277 0.36,-0.255C0.379,-0.234 0.395,-0.202 0.395,-0.178C0.395,-0.141 0.383,-0.102 0.357,-0.076C0.329,-0.049 0.29,-0.031 0.252,-0.031C0.219,-0.031 0.185,-0.045 0.161,-0.069C0.139,-0.091 0.128,-0.122 0.119,-0.152L0.102,-0.153L0.045,-0.087C0.053,-0.066 0.066,-0.047 0.082,-0.031C0.115,0.003 0.163,0.015 0.21,0.015C0.289,0.015 0.366,-0.016 0.422,-0.072C0.459,-0.109 0.483,-0.157 0.483,-0.209C0.483,-0.25 0.461,-0.296 0.431,-0.325C0.413,-0.344 0.361,-0.373 0.324,-0.389C0.285,-0.406 0.242,-0.427 0.215,-0.454C0.19,-0.479 0.171,-0.511 0.171,-0.547C0.171,-0.577 0.179,-0.607 0.2,-0.628C0.221,-0.65 0.251,-0.665 0.282,-0.665C0.313,-0.665 0.344,-0.654 0.367,-0.632C0.388,-0.611 0.397,-0.581 0.404,-0.553L0.417,-0.55L0.48,-0.606Z" style="fill-rule:nonzero;"/>
            </g>
        </g>
        <g id="_12" serif:id="1" transform="matrix(1,0,0,1,207.477,436.419)">
            <g transform="matrix(33.3333,0,0,33.3333,1033.42,449.189)">
                <path d="M0.472,-0.08L0.467,-0.088L0.158,-0.088C0.153,-0.088 0.148,-0.089 0.146,-0.093C0.145,-0.095 0.146,-0.098 0.147,-0.099C0.197,-0.157 0.245,-0.215 0.29,-0.275C0.322,-0.317 0.353,-0.359 0.378,-0.405C0.404,-0.451 0.426,-0.5 0.426,-0.553C0.426,-0.594 0.414,-0.635 0.384,-0.664C0.355,-0.693 0.316,-0.708 0.275,-0.708C0.237,-0.708 0.201,-0.697 0.168,-0.679C0.128,-0.658 0.094,-0.628 0.064,-0.595L0.084,-0.576C0.108,-0.596 0.13,-0.611 0.158,-0.626C0.177,-0.636 0.199,-0.64 0.221,-0.64C0.25,-0.64 0.28,-0.629 0.3,-0.607C0.328,-0.578 0.334,-0.537 0.334,-0.508C0.334,-0.443 0.311,-0.382 0.276,-0.326C0.248,-0.28 0.213,-0.238 0.178,-0.197C0.125,-0.135 0.069,-0.076 0.012,-0.018L0.012,-0.002L0.449,-0.002L0.472,-0.08Z" style="fill-rule:nonzero;"/>
            </g>
        </g>
        <g transform="matrix(1,0,0,1,851.425,-2.11098)">
            <g transform="matrix(1.0937,0,0,1.0937,123.507,-217.418)">
                <circle cx="923.526" cy="718.206" r="86.267" style="fill:rgb(235,235,235);fill-opacity:0;stroke:black;stroke-width:3.81px;"/>
            </g>
            <g transform="matrix(1,0,0,1,382.196,24.3511)">
                <g transform="matrix(75,0,0,75,731.567,569.492)">
                    <path d="M0.48,-0.606C0.47,-0.625 0.459,-0.643 0.444,-0.658C0.407,-0.695 0.354,-0.702 0.303,-0.702C0.242,-0.702 0.182,-0.683 0.138,-0.64C0.105,-0.606 0.091,-0.559 0.091,-0.512C0.091,-0.466 0.109,-0.421 0.142,-0.388C0.168,-0.362 0.228,-0.334 0.274,-0.314C0.302,-0.302 0.339,-0.277 0.36,-0.255C0.379,-0.234 0.395,-0.202 0.395,-0.178C0.395,-0.141 0.383,-0.102 0.357,-0.076C0.329,-0.049 0.29,-0.031 0.252,-0.031C0.219,-0.031 0.185,-0.045 0.161,-0.069C0.139,-0.091 0.128,-0.122 0.119,-0.152L0.102,-0.153L0.045,-0.087C0.053,-0.066 0.066,-0.047 0.082,-0.031C0.115,0.003 0.163,0.015 0.21,0.015C0.289,0.015 0.366,-0.016 0.422,-0.072C0.459,-0.109 0.483,-0.157 0.483,-0.209C0.483,-0.25 0.461,-0.296 0.431,-0.325C0.413,-0.344 0.361,-0.373 0.324,-0.389C0.285,-0.406 0.242,-0.427 0.215,-0.454C0.19,-0.479 0.171,-0.511 0.171,-0.547C0.171,-0.577 0.179,-0.607 0.2,-0.628C0.221,-0.65 0.251,-0.665 0.282,-0.665C0.313,-0.665 0.344,-0.654 0.367,-0.632C0.388,-0.611 0.397,-0.581 0.404,-0.553L0.417,-0.55L0.48,-0.606Z" style="fill-rule:nonzero;"/>
                </g>
            </g>
            <g id="_13" serif:id="1" transform="matrix(1,0,0,1,116.714,154.405)">
                <g transform="matrix(33.3333,0,0,33.3333,1033.42,449.189)">
                    <path d="M0.241,-0.382C0.282,-0.394 0.321,-0.416 0.352,-0.446C0.384,-0.478 0.399,-0.523 0.399,-0.568C0.399,-0.604 0.387,-0.64 0.361,-0.665C0.333,-0.694 0.292,-0.702 0.253,-0.702C0.225,-0.702 0.198,-0.691 0.173,-0.678C0.137,-0.659 0.103,-0.634 0.072,-0.608L0.086,-0.586C0.109,-0.601 0.132,-0.615 0.157,-0.626C0.174,-0.633 0.191,-0.639 0.208,-0.639C0.238,-0.639 0.267,-0.632 0.288,-0.611C0.307,-0.592 0.317,-0.567 0.317,-0.54C0.317,-0.502 0.302,-0.465 0.274,-0.437C0.258,-0.421 0.237,-0.409 0.215,-0.399C0.187,-0.386 0.156,-0.378 0.126,-0.371L0.125,-0.345C0.162,-0.345 0.199,-0.343 0.235,-0.334C0.26,-0.328 0.285,-0.319 0.303,-0.3C0.332,-0.269 0.352,-0.229 0.352,-0.186C0.352,-0.141 0.338,-0.095 0.306,-0.063C0.279,-0.036 0.243,-0.023 0.206,-0.023C0.17,-0.023 0.136,-0.041 0.111,-0.067C0.095,-0.083 0.082,-0.101 0.07,-0.121L0.06,-0.121L0.018,-0.049L0.025,-0.038C0.07,-0.003 0.124,0.017 0.181,0.017C0.254,0.017 0.325,-0.008 0.377,-0.059C0.419,-0.101 0.446,-0.156 0.446,-0.215C0.446,-0.254 0.433,-0.291 0.406,-0.318C0.388,-0.336 0.364,-0.347 0.341,-0.355C0.308,-0.366 0.275,-0.371 0.241,-0.374L0.241,-0.382Z" style="fill-rule:nonzero;"/>
                </g>
            </g>
        </g>
        <g transform="matrix(1,0,0,1,-358.376,211.006)">
            <g transform="matrix(33.3333,0,0,33.3333,1033.42,449.189)">
                <path d="M0.308,-0.712L0.092,-0.639L0.092,-0.612L0.175,-0.612C0.2,-0.612 0.22,-0.591 0.221,-0.566C0.222,-0.541 0.222,-0.468 0.222,-0.419C0.222,-0.279 0.219,-0.139 0.214,-0L0.226,0.005L0.31,-0.022C0.307,-0.098 0.307,-0.296 0.307,-0.432C0.307,-0.521 0.309,-0.611 0.314,-0.7L0.308,-0.712Z" style="fill-rule:nonzero;"/>
            </g>
        </g>
        <g transform="matrix(1,0,0,1,-281.161,-2.11098)">
            <g transform="matrix(1,-0,-0,1,656.947,471.648)">
                <path d="M373.071,90.183L379.321,96.433L373.071,102.683" style="fill:none;stroke:black;stroke-width:4.17px;stroke-linejoin:miter;stroke-miterlimit:10;"/>
                <path d="M190.783,96.433L379.321,96.433" style="fill:none;stroke:black;stroke-width:4.17px;"/>
            </g>
        </g>
        <g transform="matrix(1,0,0,1,-261.966,156.738)">
            <g transform="matrix(75,0,0,75,901.739,493.869)">
                <path d="M0.575,-0.689L0.567,-0.696C0.479,-0.692 0.38,-0.686 0.305,-0.686C0.128,-0.686 0.128,-0.694 0.033,-0.697L0.026,-0.69L0.026,-0.642L0.034,-0.635C0.145,-0.639 0.224,-0.642 0.248,-0.642C0.253,-0.642 0.257,-0.64 0.257,-0.636C0.258,-0.606 0.259,-0.462 0.259,-0.38C0.259,-0.253 0.254,-0.126 0.246,0.001L0.255,0.01L0.355,-0.017C0.348,-0.138 0.342,-0.317 0.342,-0.438C0.342,-0.518 0.345,-0.619 0.346,-0.633C0.346,-0.639 0.349,-0.644 0.355,-0.644C0.376,-0.644 0.397,-0.642 0.565,-0.634L0.573,-0.641L0.575,-0.689Z" style="fill-rule:nonzero;"/>
            </g>
        </g>
        <g transform="matrix(1,0,0,1,15.4185,211.181)">
            <g transform="matrix(33.3333,0,0,33.3333,1033.42,449.189)">
                <path d="M0.472,-0.08L0.467,-0.088L0.158,-0.088C0.153,-0.088 0.148,-0.089 0.146,-0.093C0.145,-0.095 0.146,-0.098 0.147,-0.099C0.197,-0.157 0.245,-0.215 0.29,-0.275C0.322,-0.317 0.353,-0.359 0.378,-0.405C0.404,-0.451 0.426,-0.5 0.426,-0.553C0.426,-0.594 0.414,-0.635 0.384,-0.664C0.355,-0.693 0.316,-0.708 0.275,-0.708C0.237,-0.708 0.201,-0.697 0.168,-0.679C0.128,-0.658 0.094,-0.628 0.064,-0.595L0.084,-0.576C0.108,-0.596 0.13,-0.611 0.158,-0.626C0.177,-0.636 0.199,-0.64 0.221,-0.64C0.25,-0.64 0.28,-0.629 0.3,-0.607C0.328,-0.578 0.334,-0.537 0.334,-0.508C0.334,-0.443 0.311,-0.382 0.276,-0.326C0.248,-0.28 0.213,-0.238 0.178,-0.197C0.125,-0.135 0.069,-0.076 0.012,-0.018L0.012,-0.002L0.449,-0.002L0.472,-0.08Z" style="fill-rule:nonzero;"/>
            </g>
        </g>
        <g transform="matrix(0.988066,0,0,1,109.139,-2.11098)">
            <g transform="matrix(1.01208,-0,-0,1,269.867,471.648)">
                <path d="M750.969,90.183L757.219,96.433L750.969,102.683" style="fill:none;stroke:black;stroke-width:4.17px;stroke-linejoin:miter;stroke-miterlimit:10;"/>
                <path d="M570.966,96.433L757.219,96.433" style="fill:none;stroke:black;stroke-width:4.17px;"/>
            </g>
        </g>
        <g transform="matrix(1,0,0,1,115.779,156.876)">
            <g transform="matrix(75,0,0,75,901.739,493.869)">
                <path d="M0.575,-0.689L0.567,-0.696C0.479,-0.692 0.38,-0.686 0.305,-0.686C0.128,-0.686 0.128,-0.694 0.033,-0.697L0.026,-0.69L0.026,-0.642L0.034,-0.635C0.145,-0.639 0.224,-0.642 0.248,-0.642C0.253,-0.642 0.257,-0.64 0.257,-0.636C0.258,-0.606 0.259,-0.462 0.259,-0.38C0.259,-0.253 0.254,-0.126 0.246,0.001L0.255,0.01L0.355,-0.017C0.348,-0.138 0.342,-0.317 0.342,-0.438C0.342,-0.518 0.345,-0.619 0.346,-0.633C0.346,-0.639 0.349,-0.644 0.355,-0.644C0.376,-0.644 0.397,-0.642 0.565,-0.634L0.573,-0.641L0.575,-0.689Z" style="fill-rule:nonzero;"/>
            </g>
        </g>
        <g transform="matrix(1,0,0,1,774.025,211.044)">
            <g transform="matrix(33.3333,0,0,33.3333,1033.42,449.189)">
                <path d="M0.241,-0.382C0.282,-0.394 0.321,-0.416 0.352,-0.446C0.384,-0.478 0.399,-0.523 0.399,-0.568C0.399,-0.604 0.387,-0.64 0.361,-0.665C0.333,-0.694 0.292,-0.702 0.253,-0.702C0.225,-0.702 0.198,-0.691 0.173,-0.678C0.137,-0.659 0.103,-0.634 0.072,-0.608L0.086,-0.586C0.109,-0.601 0.132,-0.615 0.157,-0.626C0.174,-0.633 0.191,-0.639 0.208,-0.639C0.238,-0.639 0.267,-0.632 0.288,-0.611C0.307,-0.592 0.317,-0.567 0.317,-0.54C0.317,-0.502 0.302,-0.465 0.274,-0.437C0.258,-0.421 0.237,-0.409 0.215,-0.399C0.187,-0.386 0.156,-0.378 0.126,-0.371L0.125,-0.345C0.162,-0.345 0.199,-0.343 0.235,-0.334C0.26,-0.328 0.285,-0.319 0.303,-0.3C0.332,-0.269 0.352,-0.229 0.352,-0.186C0.352,-0.141 0.338,-0.095 0.306,-0.063C0.279,-0.036 0.243,-0.023 0.206,-0.023C0.17,-0.023 0.136,-0.041 0.111,-0.067C0.095,-0.083 0.082,-0.101 0.07,-0.121L0.06,-0.121L0.018,-0.049L0.025,-0.038C0.07,-0.003 0.124,0.017 0.181,0.017C0.254,0.017 0.325,-0.008 0.377,-0.059C0.419,-0.101 0.446,-0.156 0.446,-0.215C0.446,-0.254 0.433,-0.291 0.406,-0.318C0.388,-0.336 0.364,-0.347 0.341,-0.355C0.308,-0.366 0.275,-0.371 0.241,-0.374L0.241,-0.382Z" style="fill-rule:nonzero;"/>
            </g>
        </g>
        <g transform="matrix(0.988066,0,0,1,863.826,-2.11098)">
            <g transform="matrix(1.01208,-0,-0,1,-493.935,471.648)">
                <path d="M1505.66,90.183L1511.91,96.433L1505.66,102.683" style="fill:none;stroke:black;stroke-width:4.17px;stroke-linejoin:miter;stroke-miterlimit:10;"/>
                <path d="M1325.65,96.433L1511.91,96.433" style="fill:none;stroke:black;stroke-width:4.17px;"/>
            </g>
        </g>
        <g transform="matrix(1,0,0,1,874.385,156.738)">
            <g transform="matrix(75,0,0,75,901.739,493.869)">
                <path d="M0.575,-0.689L0.567,-0.696C0.479,-0.692 0.38,-0.686 0.305,-0.686C0.128,-0.686 0.128,-0.694 0.033,-0.697L0.026,-0.69L0.026,-0.642L0.034,-0.635C0.145,-0.639 0.224,-0.642 0.248,-0.642C0.253,-0.642 0.257,-0.64 0.257,-0.636C0.258,-0.606 0.259,-0.462 0.259,-0.38C0.259,-0.253 0.254,-0.126 0.246,0.001L0.255,0.01L0.355,-0.017C0.348,-0.138 0.342,-0.317 0.342,-0.438C0.342,-0.518 0.345,-0.619 0.346,-0.633C0.346,-0.639 0.349,-0.644 0.355,-0.644C0.376,-0.644 0.397,-0.642 0.565,-0.634L0.573,-0.641L0.575,-0.689Z" style="fill-rule:nonzero;"/>
            </g>
        </g>
        <g transform="matrix(1,0,0,1,-1.98447,-7.52118)">
            <ellipse cx="1230.3" cy="772.655" rx="94.35" ry="11.388" style="fill:rgb(235,235,235);fill-opacity:0;stroke:black;stroke-width:4.17px;"/>
            <g transform="matrix(-1,0,0,-1,2460.6,1703.45)">
                <path d="M1135.95,772.655C1135.95,766.37 1178.23,761.267 1230.3,761.267C1282.37,761.267 1324.65,766.37 1324.65,772.655" style="fill:rgb(235,235,235);fill-opacity:0;stroke:black;stroke-width:4.17px;"/>
            </g>
            <path d="M1135.95,772.655L1135.95,930.798" style="fill:none;stroke:black;stroke-width:4.17px;"/>
            <g transform="matrix(1,0,0,1,188.7,0)">
                <path d="M1135.95,772.655L1135.95,930.798" style="fill:none;stroke:black;stroke-width:4.17px;"/>
            </g>
        </g>
        <g transform="matrix(1,-0,-0,1,375.786,469.537)">
            <path d="M858.781,275.013L852.531,281.263L846.281,275.013" style="fill:none;stroke:black;stroke-width:4.17px;stroke-linejoin:miter;stroke-miterlimit:10;"/>
            <path d="M852.531,190.299L852.531,281.263" style="fill:none;stroke:black;stroke-width:4.17px;"/>
        </g>
        <g transform="matrix(1,-0,-0,1,375.786,469.537)">
            <path d="M1127.15,90.12L1133.36,96.413L1127.06,102.62" style="fill:none;stroke:black;stroke-width:4.17px;stroke-linejoin:miter;stroke-miterlimit:10;"/>
            <path d="M949.413,378.612C985.066,377.854 1042.43,338.44 1040.9,239.933C1038.77,102.622 1113.91,96.516 1133.36,96.413" style="fill:none;stroke:black;stroke-width:4.17px;"/>
        </g>
        <g transform="matrix(1,0,0,1,11.37,-67.4671)">
            <g transform="matrix(33.3333,0,0,33.3333,1430.3,782.495)">
                <path d="M0.443,-0.238C0.443,-0.151 0.427,-0.088 0.394,-0.049C0.36,-0.01 0.323,0.009 0.283,0.009C0.226,0.009 0.183,-0.016 0.154,-0.068L0.154,0.172L0.071,0.172L0.071,-0.553L0.154,-0.553L0.154,-0.487C0.183,-0.538 0.226,-0.563 0.283,-0.563C0.323,-0.563 0.36,-0.544 0.394,-0.505C0.427,-0.467 0.443,-0.403 0.443,-0.314L0.443,-0.238ZM0.358,-0.314C0.358,-0.379 0.349,-0.424 0.331,-0.45C0.313,-0.475 0.29,-0.488 0.262,-0.488C0.208,-0.488 0.172,-0.45 0.154,-0.374L0.154,-0.18C0.171,-0.104 0.207,-0.066 0.262,-0.066C0.29,-0.066 0.313,-0.079 0.331,-0.104C0.349,-0.13 0.358,-0.174 0.358,-0.238L0.358,-0.314Z" style="fill-rule:nonzero;"/>
            </g>
            <g transform="matrix(33.3333,0,0,33.3333,1446.97,782.495)">
                <path d="M0.437,-0.239C0.437,-0.155 0.419,-0.092 0.384,-0.052C0.349,-0.011 0.305,0.009 0.25,0.009C0.195,0.009 0.151,-0.011 0.116,-0.052C0.081,-0.092 0.064,-0.155 0.064,-0.239L0.064,-0.314C0.064,-0.399 0.081,-0.462 0.116,-0.502C0.151,-0.543 0.195,-0.563 0.25,-0.563C0.305,-0.563 0.349,-0.543 0.384,-0.502C0.419,-0.462 0.437,-0.399 0.437,-0.314L0.437,-0.239ZM0.354,-0.239L0.354,-0.314C0.354,-0.38 0.344,-0.425 0.324,-0.45C0.305,-0.475 0.28,-0.488 0.25,-0.488C0.22,-0.488 0.195,-0.475 0.176,-0.45C0.157,-0.425 0.147,-0.38 0.147,-0.314L0.147,-0.239C0.147,-0.174 0.157,-0.129 0.176,-0.104C0.195,-0.078 0.22,-0.066 0.25,-0.066C0.28,-0.066 0.305,-0.078 0.324,-0.104C0.344,-0.129 0.354,-0.174 0.354,-0.239Z" style="fill-rule:nonzero;"/>
            </g>
            <g transform="matrix(33.3333,0,0,33.3333,1463.64,782.495)">
                <path d="M0.252,-0.064C0.286,-0.064 0.313,-0.073 0.33,-0.089C0.348,-0.106 0.357,-0.125 0.357,-0.148C0.357,-0.181 0.337,-0.206 0.298,-0.224L0.191,-0.273C0.125,-0.304 0.092,-0.349 0.092,-0.41C0.092,-0.453 0.109,-0.489 0.141,-0.519C0.174,-0.548 0.216,-0.563 0.267,-0.563C0.341,-0.563 0.398,-0.529 0.437,-0.461L0.369,-0.42C0.349,-0.466 0.315,-0.489 0.267,-0.489C0.239,-0.489 0.216,-0.482 0.2,-0.468C0.184,-0.454 0.175,-0.437 0.175,-0.416C0.175,-0.386 0.194,-0.363 0.23,-0.346L0.331,-0.299C0.404,-0.265 0.44,-0.215 0.44,-0.15C0.44,-0.106 0.423,-0.068 0.389,-0.037C0.355,-0.006 0.309,0.009 0.251,0.009C0.17,0.009 0.106,-0.028 0.06,-0.104L0.128,-0.146C0.155,-0.091 0.197,-0.064 0.252,-0.064Z" style="fill-rule:nonzero;"/>
            </g>
            <g transform="matrix(33.3333,0,0,33.3333,1480.3,782.495)">
                <path d="M0.462,-0.077C0.424,-0.02 0.372,0.009 0.307,0.009C0.264,0.009 0.228,-0.005 0.199,-0.034C0.17,-0.064 0.155,-0.107 0.155,-0.164L0.155,-0.482L0.063,-0.482L0.063,-0.553L0.155,-0.553L0.155,-0.745L0.238,-0.745L0.238,-0.553L0.425,-0.553L0.425,-0.482L0.238,-0.482L0.238,-0.158C0.238,-0.128 0.245,-0.105 0.258,-0.089C0.271,-0.074 0.289,-0.066 0.312,-0.066C0.35,-0.066 0.38,-0.085 0.399,-0.123L0.462,-0.077Z" style="fill-rule:nonzero;"/>
            </g>
            <g transform="matrix(33.3333,0,0,33.3333,1496.97,782.495)">
                <rect x="-0.005" y="0.033" width="0.511" height="0.071" style="fill-rule:nonzero;"/>
            </g>
            <g transform="matrix(33.3333,0,0,33.3333,1513.64,782.495)">
                <path d="M0.429,-0L0.346,-0L0.346,-0.072C0.311,-0.018 0.268,0.009 0.217,0.009C0.176,0.009 0.142,-0.006 0.113,-0.037C0.085,-0.068 0.071,-0.124 0.071,-0.204L0.071,-0.553L0.154,-0.553L0.154,-0.204C0.154,-0.15 0.161,-0.114 0.176,-0.094C0.191,-0.075 0.212,-0.066 0.238,-0.066C0.292,-0.066 0.329,-0.102 0.346,-0.174L0.346,-0.553L0.429,-0.553L0.429,-0Z" style="fill-rule:nonzero;"/>
            </g>
            <g transform="matrix(33.3333,0,0,33.3333,1530.3,782.495)">
                <path d="M0.443,-0.238C0.443,-0.151 0.427,-0.088 0.394,-0.049C0.36,-0.01 0.323,0.009 0.283,0.009C0.226,0.009 0.183,-0.016 0.154,-0.068L0.154,0.172L0.071,0.172L0.071,-0.553L0.154,-0.553L0.154,-0.487C0.183,-0.538 0.226,-0.563 0.283,-0.563C0.323,-0.563 0.36,-0.544 0.394,-0.505C0.427,-0.467 0.443,-0.403 0.443,-0.314L0.443,-0.238ZM0.358,-0.314C0.358,-0.379 0.349,-0.424 0.331,-0.45C0.313,-0.475 0.29,-0.488 0.262,-0.488C0.208,-0.488 0.172,-0.45 0.154,-0.374L0.154,-0.18C0.171,-0.104 0.207,-0.066 0.262,-0.066C0.29,-0.066 0.313,-0.079 0.331,-0.104C0.349,-0.13 0.358,-0.174 0.358,-0.238L0.358,-0.314Z" style="fill-rule:nonzero;"/>
            </g>
            <g transform="matrix(33.3333,0,0,33.3333,1546.97,782.495)">
                <path d="M0.466,-0.487L0.437,-0.487L0.392,-0.491C0.417,-0.461 0.429,-0.43 0.429,-0.399C0.429,-0.356 0.414,-0.321 0.383,-0.292C0.352,-0.264 0.31,-0.25 0.256,-0.25L0.201,-0.25C0.175,-0.233 0.162,-0.216 0.162,-0.2C0.162,-0.184 0.167,-0.171 0.177,-0.163C0.188,-0.155 0.205,-0.151 0.229,-0.151L0.275,-0.151C0.344,-0.151 0.394,-0.137 0.425,-0.107C0.455,-0.078 0.471,-0.041 0.471,0.003C0.471,0.054 0.451,0.095 0.412,0.128C0.373,0.16 0.321,0.177 0.257,0.177C0.19,0.177 0.139,0.162 0.104,0.131C0.069,0.101 0.052,0.064 0.052,0.021C0.052,-0.035 0.08,-0.078 0.137,-0.107C0.095,-0.125 0.074,-0.151 0.074,-0.188C0.074,-0.224 0.097,-0.255 0.141,-0.28C0.096,-0.311 0.073,-0.353 0.073,-0.408C0.073,-0.453 0.089,-0.49 0.121,-0.518C0.153,-0.546 0.198,-0.561 0.256,-0.561C0.273,-0.561 0.314,-0.558 0.38,-0.553L0.466,-0.553L0.466,-0.487ZM0.349,-0.408C0.349,-0.43 0.341,-0.45 0.325,-0.467C0.308,-0.483 0.284,-0.492 0.251,-0.492C0.218,-0.492 0.194,-0.484 0.177,-0.468C0.161,-0.452 0.153,-0.432 0.153,-0.407C0.153,-0.378 0.162,-0.356 0.179,-0.341C0.196,-0.326 0.219,-0.319 0.25,-0.319C0.283,-0.319 0.308,-0.327 0.324,-0.342C0.341,-0.358 0.349,-0.38 0.349,-0.408ZM0.385,0.003C0.385,-0.021 0.377,-0.04 0.361,-0.055C0.345,-0.069 0.316,-0.076 0.275,-0.076L0.242,-0.076C0.204,-0.076 0.177,-0.068 0.161,-0.051C0.145,-0.033 0.137,-0.012 0.137,0.015C0.137,0.043 0.148,0.064 0.168,0.079C0.189,0.094 0.217,0.102 0.251,0.102C0.34,0.102 0.385,0.069 0.385,0.003Z" style="fill-rule:nonzero;"/>
            </g>
            <g transform="matrix(33.3333,0,0,33.3333,1563.64,782.495)">
                <path d="M0.464,-0.459L0.392,-0.427C0.376,-0.468 0.348,-0.488 0.31,-0.488C0.228,-0.488 0.188,-0.412 0.188,-0.261L0.188,-0L0.104,-0L0.104,-0.553L0.188,-0.553L0.188,-0.464C0.22,-0.53 0.265,-0.563 0.323,-0.563C0.389,-0.563 0.436,-0.528 0.464,-0.459Z" style="fill-rule:nonzero;"/>
            </g>
            <g transform="matrix(33.3333,0,0,33.3333,1580.3,782.495)">
                <path d="M0.417,-0L0.334,-0L0.334,-0.063C0.299,-0.015 0.254,0.009 0.201,0.009C0.155,0.009 0.119,-0.006 0.091,-0.037C0.063,-0.068 0.049,-0.107 0.049,-0.154C0.049,-0.202 0.067,-0.242 0.102,-0.275C0.136,-0.307 0.188,-0.324 0.255,-0.324L0.334,-0.324L0.334,-0.383C0.334,-0.453 0.301,-0.488 0.235,-0.488C0.186,-0.488 0.15,-0.466 0.125,-0.423L0.063,-0.47C0.106,-0.532 0.164,-0.563 0.235,-0.563C0.288,-0.563 0.332,-0.548 0.366,-0.518C0.4,-0.487 0.417,-0.443 0.417,-0.383L0.417,-0ZM0.334,-0.13L0.334,-0.257L0.255,-0.257C0.215,-0.257 0.185,-0.248 0.165,-0.229C0.145,-0.21 0.135,-0.185 0.135,-0.154C0.135,-0.095 0.164,-0.066 0.221,-0.066C0.266,-0.066 0.304,-0.087 0.334,-0.13Z" style="fill-rule:nonzero;"/>
            </g>
            <g transform="matrix(33.3333,0,0,33.3333,1596.97,782.495)">
                <path d="M0.057,-0.314C0.057,-0.403 0.072,-0.466 0.104,-0.505C0.136,-0.544 0.173,-0.563 0.217,-0.563C0.274,-0.563 0.317,-0.537 0.346,-0.486L0.346,-0.745L0.429,-0.745L0.429,-0L0.346,-0L0.346,-0.066C0.317,-0.016 0.274,0.009 0.217,0.009C0.173,0.009 0.136,-0.01 0.104,-0.048C0.072,-0.087 0.057,-0.15 0.057,-0.238L0.057,-0.314ZM0.142,-0.238C0.142,-0.174 0.15,-0.129 0.167,-0.104C0.183,-0.079 0.207,-0.066 0.238,-0.066C0.292,-0.066 0.328,-0.103 0.346,-0.176L0.346,-0.373C0.329,-0.449 0.293,-0.488 0.238,-0.488C0.207,-0.488 0.183,-0.475 0.167,-0.449C0.15,-0.424 0.142,-0.379 0.142,-0.314L0.142,-0.238Z" style="fill-rule:nonzero;"/>
            </g>
            <g transform="matrix(33.3333,0,0,33.3333,1613.64,782.495)">
                <path d="M0.436,-0.26L0.146,-0.26L0.146,-0.243C0.146,-0.172 0.157,-0.125 0.178,-0.101C0.199,-0.078 0.227,-0.066 0.263,-0.066C0.308,-0.066 0.345,-0.089 0.372,-0.135L0.439,-0.092C0.397,-0.024 0.336,0.009 0.257,0.009C0.201,0.009 0.155,-0.011 0.118,-0.051C0.082,-0.092 0.063,-0.156 0.063,-0.243L0.063,-0.31C0.063,-0.398 0.082,-0.462 0.118,-0.502C0.155,-0.543 0.199,-0.563 0.25,-0.563C0.305,-0.563 0.349,-0.544 0.384,-0.507C0.419,-0.469 0.436,-0.409 0.436,-0.324L0.436,-0.26ZM0.353,-0.333C0.353,-0.389 0.343,-0.429 0.324,-0.453C0.305,-0.476 0.28,-0.488 0.25,-0.488C0.221,-0.488 0.197,-0.476 0.177,-0.453C0.157,-0.429 0.146,-0.389 0.146,-0.333L0.353,-0.333Z" style="fill-rule:nonzero;"/>
            </g>
        </g>
        <g transform="matrix(1,0,0,1,-75.4785,0.735804)">
            <g transform="matrix(33.3333,0,0,33.3333,1099.46,714.292)">
                <path d="M0.443,-0.238C0.443,-0.151 0.427,-0.088 0.394,-0.049C0.36,-0.01 0.323,0.009 0.283,0.009C0.226,0.009 0.183,-0.016 0.154,-0.068L0.154,0.172L0.071,0.172L0.071,-0.553L0.154,-0.553L0.154,-0.487C0.183,-0.538 0.226,-0.563 0.283,-0.563C0.323,-0.563 0.36,-0.544 0.394,-0.505C0.427,-0.467 0.443,-0.403 0.443,-0.314L0.443,-0.238ZM0.358,-0.314C0.358,-0.379 0.349,-0.424 0.331,-0.45C0.313,-0.475 0.29,-0.488 0.262,-0.488C0.208,-0.488 0.172,-0.45 0.154,-0.374L0.154,-0.18C0.171,-0.104 0.207,-0.066 0.262,-0.066C0.29,-0.066 0.313,-0.079 0.331,-0.104C0.349,-0.13 0.358,-0.174 0.358,-0.238L0.358,-0.314Z" style="fill-rule:nonzero;"/>
            </g>
            <g transform="matrix(33.3333,0,0,33.3333,1116.13,714.292)">
                <path d="M0.464,-0.459L0.392,-0.427C0.376,-0.468 0.348,-0.488 0.31,-0.488C0.228,-0.488 0.188,-0.412 0.188,-0.261L0.188,-0L0.104,-0L0.104,-0.553L0.188,-0.553L0.188,-0.464C0.22,-0.53 0.265,-0.563 0.323,-0.563C0.389,-0.563 0.436,-0.528 0.464,-0.459Z" style="fill-rule:nonzero;"/>
            </g>
            <g transform="matrix(33.3333,0,0,33.3333,1132.79,714.292)">
                <path d="M0.436,-0.26L0.146,-0.26L0.146,-0.243C0.146,-0.172 0.157,-0.125 0.178,-0.101C0.199,-0.078 0.227,-0.066 0.263,-0.066C0.308,-0.066 0.345,-0.089 0.372,-0.135L0.439,-0.092C0.397,-0.024 0.336,0.009 0.257,0.009C0.201,0.009 0.155,-0.011 0.118,-0.051C0.082,-0.092 0.063,-0.156 0.063,-0.243L0.063,-0.31C0.063,-0.398 0.082,-0.462 0.118,-0.502C0.155,-0.543 0.199,-0.563 0.25,-0.563C0.305,-0.563 0.349,-0.544 0.384,-0.507C0.419,-0.469 0.436,-0.409 0.436,-0.324L0.436,-0.26ZM0.353,-0.333C0.353,-0.389 0.343,-0.429 0.324,-0.453C0.305,-0.476 0.28,-0.488 0.25,-0.488C0.221,-0.488 0.197,-0.476 0.177,-0.453C0.157,-0.429 0.146,-0.389 0.146,-0.333L0.353,-0.333Z" style="fill-rule:nonzero;"/>
            </g>
            <g transform="matrix(33.3333,0,0,33.3333,1149.46,714.292)">
                <rect x="-0.005" y="0.033" width="0.511" height="0.071" style="fill-rule:nonzero;"/>
            </g>
            <g transform="matrix(33.3333,0,0,33.3333,1166.13,714.292)">
                <path d="M0.429,-0L0.346,-0L0.346,-0.072C0.311,-0.018 0.268,0.009 0.217,0.009C0.176,0.009 0.142,-0.006 0.113,-0.037C0.085,-0.068 0.071,-0.124 0.071,-0.204L0.071,-0.553L0.154,-0.553L0.154,-0.204C0.154,-0.15 0.161,-0.114 0.176,-0.094C0.191,-0.075 0.212,-0.066 0.238,-0.066C0.292,-0.066 0.329,-0.102 0.346,-0.174L0.346,-0.553L0.429,-0.553L0.429,-0Z" style="fill-rule:nonzero;"/>
            </g>
            <g transform="matrix(33.3333,0,0,33.3333,1182.79,714.292)">
                <path d="M0.443,-0.238C0.443,-0.151 0.427,-0.088 0.394,-0.049C0.36,-0.01 0.323,0.009 0.283,0.009C0.226,0.009 0.183,-0.016 0.154,-0.068L0.154,0.172L0.071,0.172L0.071,-0.553L0.154,-0.553L0.154,-0.487C0.183,-0.538 0.226,-0.563 0.283,-0.563C0.323,-0.563 0.36,-0.544 0.394,-0.505C0.427,-0.467 0.443,-0.403 0.443,-0.314L0.443,-0.238ZM0.358,-0.314C0.358,-0.379 0.349,-0.424 0.331,-0.45C0.313,-0.475 0.29,-0.488 0.262,-0.488C0.208,-0.488 0.172,-0.45 0.154,-0.374L0.154,-0.18C0.171,-0.104 0.207,-0.066 0.262,-0.066C0.29,-0.066 0.313,-0.079 0.331,-0.104C0.349,-0.13 0.358,-0.174 0.358,-0.238L0.358,-0.314Z" style="fill-rule:nonzero;"/>
            </g>
            <g transform="matrix(33.3333,0,0,33.3333,1199.46,714.292)">
                <path d="M0.466,-0.487L0.437,-0.487L0.392,-0.491C0.417,-0.461 0.429,-0.43 0.429,-0.399C0.429,-0.356 0.414,-0.321 0.383,-0.292C0.352,-0.264 0.31,-0.25 0.256,-0.25L0.201,-0.25C0.175,-0.233 0.162,-0.216 0.162,-0.2C0.162,-0.184 0.167,-0.171 0.177,-0.163C0.188,-0.155 0.205,-0.151 0.229,-0.151L0.275,-0.151C0.344,-0.151 0.394,-0.137 0.425,-0.107C0.455,-0.078 0.471,-0.041 0.471,0.003C0.471,0.054 0.451,0.095 0.412,0.128C0.373,0.16 0.321,0.177 0.257,0.177C0.19,0.177 0.139,0.162 0.104,0.131C0.069,0.101 0.052,0.064 0.052,0.021C0.052,-0.035 0.08,-0.078 0.137,-0.107C0.095,-0.125 0.074,-0.151 0.074,-0.188C0.074,-0.224 0.097,-0.255 0.141,-0.28C0.096,-0.311 0.073,-0.353 0.073,-0.408C0.073,-0.453 0.089,-0.49 0.121,-0.518C0.153,-0.546 0.198,-0.561 0.256,-0.561C0.273,-0.561 0.314,-0.558 0.38,-0.553L0.466,-0.553L0.466,-0.487ZM0.349,-0.408C0.349,-0.43 0.341,-0.45 0.325,-0.467C0.308,-0.483 0.284,-0.492 0.251,-0.492C0.218,-0.492 0.194,-0.484 0.177,-0.468C0.161,-0.452 0.153,-0.432 0.153,-0.407C0.153,-0.378 0.162,-0.356 0.179,-0.341C0.196,-0.326 0.219,-0.319 0.25,-0.319C0.283,-0.319 0.308,-0.327 0.324,-0.342C0.341,-0.358 0.349,-0.38 0.349,-0.408ZM0.385,0.003C0.385,-0.021 0.377,-0.04 0.361,-0.055C0.345,-0.069 0.316,-0.076 0.275,-0.076L0.242,-0.076C0.204,-0.076 0.177,-0.068 0.161,-0.051C0.145,-0.033 0.137,-0.012 0.137,0.015C0.137,0.043 0.148,0.064 0.168,0.079C0.189,0.094 0.217,0.102 0.251,0.102C0.34,0.102 0.385,0.069 0.385,0.003Z" style="fill-rule:nonzero;"/>
            </g>
            <g transform="matrix(33.3333,0,0,33.3333,1216.13,714.292)">
                <path d="M0.464,-0.459L0.392,-0.427C0.376,-0.468 0.348,-0.488 0.31,-0.488C0.228,-0.488 0.188,-0.412 0.188,-0.261L0.188,-0L0.104,-0L0.104,-0.553L0.188,-0.553L0.188,-0.464C0.22,-0.53 0.265,-0.563 0.323,-0.563C0.389,-0.563 0.436,-0.528 0.464,-0.459Z" style="fill-rule:nonzero;"/>
            </g>
            <g transform="matrix(33.3333,0,0,33.3333,1232.79,714.292)">
                <path d="M0.417,-0L0.334,-0L0.334,-0.063C0.299,-0.015 0.254,0.009 0.201,0.009C0.155,0.009 0.119,-0.006 0.091,-0.037C0.063,-0.068 0.049,-0.107 0.049,-0.154C0.049,-0.202 0.067,-0.242 0.102,-0.275C0.136,-0.307 0.188,-0.324 0.255,-0.324L0.334,-0.324L0.334,-0.383C0.334,-0.453 0.301,-0.488 0.235,-0.488C0.186,-0.488 0.15,-0.466 0.125,-0.423L0.063,-0.47C0.106,-0.532 0.164,-0.563 0.235,-0.563C0.288,-0.563 0.332,-0.548 0.366,-0.518C0.4,-0.487 0.417,-0.443 0.417,-0.383L0.417,-0ZM0.334,-0.13L0.334,-0.257L0.255,-0.257C0.215,-0.257 0.185,-0.248 0.165,-0.229C0.145,-0.21 0.135,-0.185 0.135,-0.154C0.135,-0.095 0.164,-0.066 0.221,-0.066C0.266,-0.066 0.304,-0.087 0.334,-0.13Z" style="fill-rule:nonzero;"/>
            </g>
            <g transform="matrix(33.3333,0,0,33.3333,1249.46,714.292)">
                <path d="M0.057,-0.314C0.057,-0.403 0.072,-0.466 0.104,-0.505C0.136,-0.544 0.173,-0.563 0.217,-0.563C0.274,-0.563 0.317,-0.537 0.346,-0.486L0.346,-0.745L0.429,-0.745L0.429,-0L0.346,-0L0.346,-0.066C0.317,-0.016 0.274,0.009 0.217,0.009C0.173,0.009 0.136,-0.01 0.104,-0.048C0.072,-0.087 0.057,-0.15 0.057,-0.238L0.057,-0.314ZM0.142,-0.238C0.142,-0.174 0.15,-0.129 0.167,-0.104C0.183,-0.079 0.207,-0.066 0.238,-0.066C0.292,-0.066 0.328,-0.103 0.346,-0.176L0.346,-0.373C0.329,-0.449 0.293,-0.488 0.238,-0.488C0.207,-0.488 0.183,-0.475 0.167,-0.449C0.15,-0.424 0.142,-0.379 0.142,-0.314L0.142,-0.238Z" style="fill-rule:nonzero;"/>
            </g>
            <g transform="matrix(33.3333,0,0,33.3333,1266.13,714.292)">
                <path d="M0.436,-0.26L0.146,-0.26L0.146,-0.243C0.146,-0.172 0.157,-0.125 0.178,-0.101C0.199,-0.078 0.227,-0.066 0.263,-0.066C0.308,-0.066 0.345,-0.089 0.372,-0.135L0.439,-0.092C0.397,-0.024 0.336,0.009 0.257,0.009C0.201,0.009 0.155,-0.011 0.118,-0.051C0.082,-0.092 0.063,-0.156 0.063,-0.243L0.063,-0.31C0.063,-0.398 0.082,-0.462 0.118,-0.502C0.155,-0.543 0.199,-0.563 0.25,-0.563C0.305,-0.563 0.349,-0.544 0.384,-0.507C0.419,-0.469 0.436,-0.409 0.436,-0.324L0.436,-0.26ZM0.353,-0.333C0.353,-0.389 0.343,-0.429 0.324,-0.453C0.305,-0.476 0.28,-0.488 0.25,-0.488C0.221,-0.488 0.197,-0.476 0.177,-0.453C0.157,-0.429 0.146,-0.389 0.146,-0.333L0.353,-0.333Z" style="fill-rule:nonzero;"/>
            </g>
        </g>
    </g>
</svg>
