<?xml version="1.0" encoding="UTF-8" standalone="no"?>
<!DOCTYPE svg PUBLIC "-//W3C//DTD SVG 1.1//EN" "http://www.w3.org/Graphics/SVG/1.1/DTD/svg11.dtd">
<svg width="100%" height="100%" viewBox="0 0 1439 477" version="1.1" xmlns="http://www.w3.org/2000/svg" xmlns:xlink="http://www.w3.org/1999/xlink" xml:space="preserve" xmlns:serif="http://www.serif.com/" style="fill-rule:evenodd;clip-rule:evenodd;stroke-linecap:round;stroke-linejoin:round;stroke-miterlimit:1.5;">
    <g transform="matrix(1,0,0,1,-547.78,-375.869)">
        <g transform="matrix(0.730769,0,0,0.730769,60.8722,-64.5064)">
            <circle cx="1322.84" cy="944.882" r="307.087" style="fill:white;stroke:black;stroke-width:5.7px;"/>
        </g>
        <g transform="matrix(0.538462,0,0,0.538462,350.697,129.013)">
            <circle cx="1322.84" cy="944.882" r="307.087" style="fill:rgb(238,238,238);stroke:black;stroke-width:7.74px;"/>
        </g>
        <g transform="matrix(0.355769,0,0,0.355769,630.754,316.399)">
            <circle cx="1322.84" cy="944.882" r="307.087" style="fill:rgb(221,221,221);stroke:black;stroke-width:11.71px;"/>
        </g>
        <g transform="matrix(1,0,0,1,352.191,204.148)">
            <text x="732.761px" y="457.27px" style="font-family:'Neo-Euler', 'Neo Euler';font-weight:500;font-size:58.333px;">v</text>
            <g transform="matrix(34.0083,0,0,34.0083,778.606,476.695)">
            </g>
            <text x="761.636px" y="476.695px" style="font-family:'Neo-Euler', 'Neo Euler';font-weight:500;font-size:34.008px;">1</text>
        </g>
        <g transform="matrix(1,0,0,1,204.616,156.731)">
            <text x="732.761px" y="457.27px" style="font-family:'Neo-Euler', 'Neo Euler';font-weight:500;font-size:58.333px;">v</text>
            <g transform="matrix(34.0083,0,0,34.0083,778.606,476.695)">
            </g>
            <text x="761.636px" y="476.695px" style="font-family:'Neo-Euler', 'Neo Euler';font-weight:500;font-size:34.008px;">2</text>
        </g>
        <g transform="matrix(1,0,0,1,103.504,116.136)">
            <text x="732.761px" y="457.27px" style="font-family:'Neo-Euler', 'Neo Euler';font-weight:500;font-size:58.333px;">v</text>
            <g transform="matrix(34.0083,0,0,34.0083,778.606,476.695)">
            </g>
            <text x="761.636px" y="476.695px" style="font-family:'Neo-Euler', 'Neo Euler';font-weight:500;font-size:34.008px;">3</text>
        </g>
        <g transform="matrix(0.730769,0,0,0.730769,793.156,-88.1284)">
            <circle cx="1322.84" cy="944.882" r="307.087" style="fill:rgb(221,221,221);stroke:black;stroke-width:5.7px;"/>
        </g>
        <g transform="matrix(0.538462,0,0,0.538462,1082.98,105.391)">
            <circle cx="1322.84" cy="944.882" r="307.087" style="fill:rgb(238,238,238);stroke:black;stroke-width:7.74px;"/>
        </g>
        <g transform="matrix(0.355769,0,0,0.355769,1363.04,292.777)">
            <circle cx="1322.84" cy="944.882" r="307.087" style="fill:white;stroke:black;stroke-width:11.71px;"/>
        </g>
        <g transform="matrix(1,0,0,1,827.345,116.486)">
            <text x="732.761px" y="457.27px" style="font-family:'Neo-Euler', 'Neo Euler';font-weight:500;font-size:58.333px;">v</text>
            <g transform="matrix(34.0083,0,0,34.0083,778.606,476.695)">
            </g>
            <text x="761.636px" y="476.695px" style="font-family:'Neo-Euler', 'Neo Euler';font-weight:500;font-size:34.008px;">1</text>
        </g>
        <g transform="matrix(1,0,0,1,929.518,148.522)">
            <text x="732.761px" y="457.27px" style="font-family:'Neo-Euler', 'Neo Euler';font-weight:500;font-size:58.333px;">v</text>
            <g transform="matrix(34.0083,0,0,34.0083,778.606,476.695)">
            </g>
            <text x="761.636px" y="476.695px" style="font-family:'Neo-Euler', 'Neo Euler';font-weight:500;font-size:34.008px;">2</text>
        </g>
        <g transform="matrix(1,0,0,1,1079.49,184.262)">
            <text x="732.761px" y="457.27px" style="font-family:'Neo-Euler', 'Neo Euler';font-weight:500;font-size:58.333px;">v</text>
            <g transform="matrix(34.0083,0,0,34.0083,778.606,476.695)">
            </g>
            <text x="761.636px" y="476.695px" style="font-family:'Neo-Euler', 'Neo Euler';font-weight:500;font-size:34.008px;">3</text>
        </g>
        <g transform="matrix(1,0,0,1,109.035,-100.402)">
            <g transform="matrix(233.2,0,0,233.2,528.061,779.371)">
            </g>
            <text x="430.35px" y="779.371px" style="font-family:'Neo-Euler', 'Neo Euler';font-weight:500;font-size:233.2px;">f</text>
        </g>
        <g transform="matrix(1,0,0,1,-24.3883,-82.7494)">
            <g transform="matrix(233.2,0,0,233.2,758.469,748.576)">
            </g>
            <text x="708.097px" y="748.576px" style="font-family:'Neo-Euler', 'Neo Euler';font-weight:500;font-size:233.2px;">:</text>
        </g>
        <g transform="matrix(1,-0,-0,1,547.78,375.869)">
            <path d="M907.582,222.679L931.019,238.304L907.582,253.929" style="fill:none;stroke:black;stroke-width:10.42px;stroke-linejoin:miter;stroke-miterlimit:10;"/>
            <path d="M751.433,238.304L931.019,238.304" style="fill:none;stroke:black;stroke-width:10.42px;stroke-linejoin:miter;stroke-miterlimit:2;"/>
        </g>
    </g>
</svg>
