<?xml version="1.0" encoding="UTF-8" standalone="no"?>
<!DOCTYPE svg PUBLIC "-//W3C//DTD SVG 1.1//EN" "http://www.w3.org/Graphics/SVG/1.1/DTD/svg11.dtd">
<svg width="100%" height="100%" viewBox="0 0 412 308" version="1.1" xmlns="http://www.w3.org/2000/svg" xmlns:xlink="http://www.w3.org/1999/xlink" xml:space="preserve" xmlns:serif="http://www.serif.com/" style="fill-rule:evenodd;clip-rule:evenodd;stroke-linecap:round;stroke-linejoin:round;stroke-miterlimit:1.5;">
    <g transform="matrix(1,0,0,1,-446.736,-1204.72)">
        <g transform="matrix(1,0,0,1,34.681,-41.006)">
            <g transform="matrix(72.875,0,0,72.875,417.146,1412.9)">
                <path d="M0.29,-0.704C0.246,-0.686 0.197,-0.662 0.164,-0.629C0.079,-0.544 0.034,-0.423 0.034,-0.303C0.034,-0.245 0.039,-0.192 0.055,-0.136C0.066,-0.094 0.087,-0.053 0.118,-0.022C0.142,0.001 0.174,0.014 0.207,0.014C0.262,0.014 0.315,-0.008 0.354,-0.046C0.39,-0.083 0.416,-0.129 0.432,-0.177C0.452,-0.234 0.46,-0.295 0.46,-0.356C0.46,-0.434 0.445,-0.513 0.405,-0.582C0.376,-0.632 0.34,-0.672 0.29,-0.704ZM0.234,-0.64C0.279,-0.621 0.324,-0.551 0.33,-0.539C0.374,-0.461 0.398,-0.375 0.398,-0.285C0.398,-0.245 0.395,-0.204 0.383,-0.166C0.373,-0.135 0.36,-0.106 0.337,-0.083C0.316,-0.061 0.283,-0.052 0.252,-0.052C0.232,-0.052 0.203,-0.065 0.184,-0.084C0.153,-0.115 0.135,-0.156 0.122,-0.199C0.106,-0.254 0.101,-0.313 0.101,-0.371C0.101,-0.452 0.129,-0.532 0.181,-0.595C0.197,-0.614 0.215,-0.628 0.234,-0.64Z" style="fill-rule:nonzero;"/>
            </g>
            <g transform="matrix(72.875,0,0,72.875,453.511,1412.9)">
                <path d="M0.308,-0.712L0.092,-0.639L0.092,-0.612L0.175,-0.612C0.2,-0.612 0.22,-0.591 0.221,-0.566C0.222,-0.541 0.222,-0.468 0.222,-0.419C0.222,-0.279 0.219,-0.139 0.214,-0L0.226,0.005L0.31,-0.022C0.307,-0.098 0.307,-0.296 0.307,-0.432C0.307,-0.521 0.309,-0.611 0.314,-0.7L0.308,-0.712Z" style="fill-rule:nonzero;"/>
            </g>
            <g transform="matrix(72.875,0,0,72.875,489.876,1412.9)">
                <path d="M0.308,-0.712L0.092,-0.639L0.092,-0.612L0.175,-0.612C0.2,-0.612 0.22,-0.591 0.221,-0.566C0.222,-0.541 0.222,-0.468 0.222,-0.419C0.222,-0.279 0.219,-0.139 0.214,-0L0.226,0.005L0.31,-0.022C0.307,-0.098 0.307,-0.296 0.307,-0.432C0.307,-0.521 0.309,-0.611 0.314,-0.7L0.308,-0.712Z" style="fill-rule:nonzero;"/>
            </g>
            <g transform="matrix(72.875,0,0,72.875,526.24,1412.9)">
                <path d="M0.29,-0.704C0.246,-0.686 0.197,-0.662 0.164,-0.629C0.079,-0.544 0.034,-0.423 0.034,-0.303C0.034,-0.245 0.039,-0.192 0.055,-0.136C0.066,-0.094 0.087,-0.053 0.118,-0.022C0.142,0.001 0.174,0.014 0.207,0.014C0.262,0.014 0.315,-0.008 0.354,-0.046C0.39,-0.083 0.416,-0.129 0.432,-0.177C0.452,-0.234 0.46,-0.295 0.46,-0.356C0.46,-0.434 0.445,-0.513 0.405,-0.582C0.376,-0.632 0.34,-0.672 0.29,-0.704ZM0.234,-0.64C0.279,-0.621 0.324,-0.551 0.33,-0.539C0.374,-0.461 0.398,-0.375 0.398,-0.285C0.398,-0.245 0.395,-0.204 0.383,-0.166C0.373,-0.135 0.36,-0.106 0.337,-0.083C0.316,-0.061 0.283,-0.052 0.252,-0.052C0.232,-0.052 0.203,-0.065 0.184,-0.084C0.153,-0.115 0.135,-0.156 0.122,-0.199C0.106,-0.254 0.101,-0.313 0.101,-0.371C0.101,-0.452 0.129,-0.532 0.181,-0.595C0.197,-0.614 0.215,-0.628 0.234,-0.64Z" style="fill-rule:nonzero;"/>
            </g>
            <g transform="matrix(72.875,0,0,72.875,562.605,1412.9)">
                <path d="M0.308,-0.712L0.092,-0.639L0.092,-0.612L0.175,-0.612C0.2,-0.612 0.22,-0.591 0.221,-0.566C0.222,-0.541 0.222,-0.468 0.222,-0.419C0.222,-0.279 0.219,-0.139 0.214,-0L0.226,0.005L0.31,-0.022C0.307,-0.098 0.307,-0.296 0.307,-0.432C0.307,-0.521 0.309,-0.611 0.314,-0.7L0.308,-0.712Z" style="fill-rule:nonzero;"/>
            </g>
            <g transform="matrix(72.875,0,0,72.875,598.97,1412.9)">
                <path d="M0.29,-0.704C0.246,-0.686 0.197,-0.662 0.164,-0.629C0.079,-0.544 0.034,-0.423 0.034,-0.303C0.034,-0.245 0.039,-0.192 0.055,-0.136C0.066,-0.094 0.087,-0.053 0.118,-0.022C0.142,0.001 0.174,0.014 0.207,0.014C0.262,0.014 0.315,-0.008 0.354,-0.046C0.39,-0.083 0.416,-0.129 0.432,-0.177C0.452,-0.234 0.46,-0.295 0.46,-0.356C0.46,-0.434 0.445,-0.513 0.405,-0.582C0.376,-0.632 0.34,-0.672 0.29,-0.704ZM0.234,-0.64C0.279,-0.621 0.324,-0.551 0.33,-0.539C0.374,-0.461 0.398,-0.375 0.398,-0.285C0.398,-0.245 0.395,-0.204 0.383,-0.166C0.373,-0.135 0.36,-0.106 0.337,-0.083C0.316,-0.061 0.283,-0.052 0.252,-0.052C0.232,-0.052 0.203,-0.065 0.184,-0.084C0.153,-0.115 0.135,-0.156 0.122,-0.199C0.106,-0.254 0.101,-0.313 0.101,-0.371C0.101,-0.452 0.129,-0.532 0.181,-0.595C0.197,-0.614 0.215,-0.628 0.234,-0.64Z" style="fill-rule:nonzero;"/>
            </g>
            <g transform="matrix(72.875,0,0,72.875,635.334,1412.9)">
                <path d="M0.308,-0.712L0.092,-0.639L0.092,-0.612L0.175,-0.612C0.2,-0.612 0.22,-0.591 0.221,-0.566C0.222,-0.541 0.222,-0.468 0.222,-0.419C0.222,-0.279 0.219,-0.139 0.214,-0L0.226,0.005L0.31,-0.022C0.307,-0.098 0.307,-0.296 0.307,-0.432C0.307,-0.521 0.309,-0.611 0.314,-0.7L0.308,-0.712Z" style="fill-rule:nonzero;"/>
            </g>
            <g transform="matrix(72.875,0,0,72.875,671.699,1412.9)">
                <path d="M0.308,-0.712L0.092,-0.639L0.092,-0.612L0.175,-0.612C0.2,-0.612 0.22,-0.591 0.221,-0.566C0.222,-0.541 0.222,-0.468 0.222,-0.419C0.222,-0.279 0.219,-0.139 0.214,-0L0.226,0.005L0.31,-0.022C0.307,-0.098 0.307,-0.296 0.307,-0.432C0.307,-0.521 0.309,-0.611 0.314,-0.7L0.308,-0.712Z" style="fill-rule:nonzero;"/>
            </g>
            <g transform="matrix(72.875,0,0,72.875,708.063,1412.9)">
                <path d="M0.308,-0.712L0.092,-0.639L0.092,-0.612L0.175,-0.612C0.2,-0.612 0.22,-0.591 0.221,-0.566C0.222,-0.541 0.222,-0.468 0.222,-0.419C0.222,-0.279 0.219,-0.139 0.214,-0L0.226,0.005L0.31,-0.022C0.307,-0.098 0.307,-0.296 0.307,-0.432C0.307,-0.521 0.309,-0.611 0.314,-0.7L0.308,-0.712Z" style="fill-rule:nonzero;"/>
            </g>
            <g transform="matrix(72.875,0,0,72.875,744.428,1412.9)">
                <path d="M0.308,-0.712L0.092,-0.639L0.092,-0.612L0.175,-0.612C0.2,-0.612 0.22,-0.591 0.221,-0.566C0.222,-0.541 0.222,-0.468 0.222,-0.419C0.222,-0.279 0.219,-0.139 0.214,-0L0.226,0.005L0.31,-0.022C0.307,-0.098 0.307,-0.296 0.307,-0.432C0.307,-0.521 0.309,-0.611 0.314,-0.7L0.308,-0.712Z" style="fill-rule:nonzero;"/>
            </g>
            <g transform="matrix(72.875,0,0,72.875,780.793,1412.9)">
                <path d="M0.308,-0.712L0.092,-0.639L0.092,-0.612L0.175,-0.612C0.2,-0.612 0.22,-0.591 0.221,-0.566C0.222,-0.541 0.222,-0.468 0.222,-0.419C0.222,-0.279 0.219,-0.139 0.214,-0L0.226,0.005L0.31,-0.022C0.307,-0.098 0.307,-0.296 0.307,-0.432C0.307,-0.521 0.309,-0.611 0.314,-0.7L0.308,-0.712Z" style="fill-rule:nonzero;"/>
            </g>
        </g>
        <g transform="matrix(1.07702,0,0,1.07702,-60.0075,-172.745)">
            <path d="M472.441,1370.08C472.86,1355.41 476.576,1344.84 519.685,1346.46C519.685,1346.46 613.862,1347.29 637.795,1346.46C661.876,1345.61 661.417,1322.84 661.417,1322.84" style="fill:none;stroke:black;stroke-width:3.87px;"/>
            <g transform="matrix(-1,0,0,1,1322.83,0)">
                <path d="M472.441,1370.08C472.86,1355.41 476.576,1344.84 519.685,1346.46C519.685,1346.46 613.862,1347.29 637.795,1346.46C661.876,1345.61 661.417,1322.84 661.417,1322.84" style="fill:none;stroke:black;stroke-width:3.87px;"/>
            </g>
        </g>
        <g transform="matrix(1.07702,0,0,1.07702,-60.0075,-172.745)">
            <path d="M472.441,1370.08C472.86,1355.41 476.576,1344.84 519.685,1346.46C519.685,1346.46 613.862,1347.29 637.795,1346.46C661.876,1345.61 661.417,1322.84 661.417,1322.84" style="fill:none;stroke:black;stroke-width:3.87px;"/>
            <g transform="matrix(-1,0,0,1,1322.83,0)">
                <path d="M472.441,1370.08C472.86,1355.41 476.576,1344.84 519.685,1346.46C519.685,1346.46 613.862,1347.29 637.795,1346.46C661.876,1345.61 661.417,1322.84 661.417,1322.84" style="fill:none;stroke:black;stroke-width:3.87px;"/>
            </g>
        </g>
        <g transform="matrix(0.46794,-3.24766e-18,7.07396e-18,-1.07702,227.745,2865.66)">
            <path d="M472.441,1370.08C472.86,1355.41 476.576,1344.84 519.685,1346.46C519.685,1346.46 613.862,1347.29 637.795,1346.46C661.876,1345.61 661.417,1322.84 661.417,1322.84" style="fill:none;stroke:black;stroke-width:5.02px;"/>
            <g transform="matrix(-1,0,0,1,1322.83,0)">
                <path d="M472.441,1370.08C472.86,1355.41 476.576,1344.84 519.685,1346.46C519.685,1346.46 613.862,1347.29 637.795,1346.46C661.876,1345.61 661.417,1322.84 661.417,1322.84" style="fill:none;stroke:black;stroke-width:5.02px;"/>
            </g>
        </g>
        <g transform="matrix(0.46794,-3.24766e-18,7.07396e-18,-1.07702,457.947,2865.66)">
            <path d="M472.441,1370.08C472.86,1355.41 476.576,1344.84 519.685,1346.46C519.685,1346.46 613.862,1347.29 637.795,1346.46C661.876,1345.61 661.417,1322.84 661.417,1322.84" style="fill:none;stroke:black;stroke-width:5.02px;"/>
            <g transform="matrix(-1,0,0,1,1322.83,0)">
                <path d="M472.441,1370.08C472.86,1355.41 476.576,1344.84 519.685,1346.46C519.685,1346.46 613.862,1347.29 637.795,1346.46C661.876,1345.61 661.417,1322.84 661.417,1322.84" style="fill:none;stroke:black;stroke-width:5.02px;"/>
            </g>
        </g>
        <g transform="matrix(1,0,0,1,-26.0495,-93.4072)">
            <g transform="matrix(36.4375,0,0,36.4375,630.133,1323.57)">
                <path d="M0.212,-0.575C0.212,-0.606 0.213,-0.626 0.215,-0.629C0.218,-0.635 0.22,-0.638 0.226,-0.641C0.232,-0.644 0.249,-0.645 0.292,-0.645C0.339,-0.645 0.448,-0.642 0.481,-0.635C0.523,-0.626 0.549,-0.613 0.571,-0.591C0.627,-0.535 0.644,-0.438 0.644,-0.377C0.644,-0.283 0.623,-0.185 0.555,-0.117C0.527,-0.089 0.491,-0.072 0.454,-0.06C0.407,-0.045 0.358,-0.04 0.309,-0.04C0.282,-0.04 0.243,-0.04 0.23,-0.053C0.215,-0.068 0.213,-0.13 0.212,-0.17L0.212,-0.575ZM0.106,-0.002L0.337,-0.002C0.397,-0.002 0.457,-0.007 0.514,-0.024C0.558,-0.037 0.608,-0.057 0.639,-0.091C0.716,-0.174 0.738,-0.258 0.738,-0.385C0.738,-0.43 0.734,-0.475 0.721,-0.517C0.711,-0.551 0.696,-0.583 0.671,-0.608C0.64,-0.639 0.598,-0.655 0.555,-0.666C0.495,-0.681 0.433,-0.686 0.371,-0.686L0.058,-0.686L0.051,-0.678L0.051,-0.659C0.07,-0.653 0.09,-0.648 0.109,-0.641C0.118,-0.637 0.125,-0.63 0.126,-0.62C0.127,-0.605 0.128,-0.589 0.128,-0.573L0.128,-0.079C0.127,-0.041 0.126,-0.027 0.106,-0.012L0.106,-0.002Z" style="fill-rule:nonzero;"/>
            </g>
            <g transform="matrix(36.4375,0,0,36.4375,672.437,1323.57)">
                <path d="M0.162,-0.081L0.162,-0.34C0.201,-0.38 0.226,-0.399 0.267,-0.399C0.328,-0.399 0.382,-0.349 0.382,-0.224C0.382,-0.1 0.345,-0.03 0.25,-0.03C0.219,-0.03 0.182,-0.056 0.162,-0.081ZM0.162,-0.5C0.162,-0.574 0.163,-0.627 0.168,-0.688C0.168,-0.695 0.165,-0.698 0.159,-0.698C0.134,-0.688 0.113,-0.681 0.072,-0.678L0.07,-0.675C0.078,-0.632 0.082,-0.558 0.082,-0.482L0.082,-0.073C0.082,-0.034 0.081,-0.02 0.077,0.002C0.083,0.008 0.095,0.01 0.105,0.01C0.116,-0.002 0.128,-0.019 0.138,-0.039C0.167,-0.014 0.213,0.01 0.256,0.01C0.358,0.01 0.471,-0.062 0.471,-0.232C0.471,-0.354 0.384,-0.439 0.287,-0.439C0.239,-0.439 0.196,-0.426 0.162,-0.389L0.162,-0.5Z" style="fill-rule:nonzero;"/>
            </g>
            <g transform="matrix(36.4375,0,0,36.4375,690.802,1323.57)">
                <path d="M0.08,-0.597C0.08,-0.57 0.104,-0.546 0.131,-0.546C0.158,-0.546 0.182,-0.57 0.182,-0.597C0.182,-0.624 0.158,-0.648 0.131,-0.648C0.104,-0.648 0.08,-0.624 0.08,-0.597ZM0.09,-0.235L0.09,-0.18C0.09,-0.105 0.088,-0.054 0.081,-0L0.083,0.003C0.095,0.001 0.118,-0 0.13,-0C0.142,-0 0.165,0.001 0.177,0.003L0.179,-0C0.172,-0.057 0.17,-0.104 0.17,-0.18L0.17,-0.251C0.17,-0.326 0.173,-0.362 0.179,-0.423C0.179,-0.432 0.178,-0.433 0.17,-0.433C0.147,-0.431 0.104,-0.43 0.083,-0.432L0.081,-0.429C0.087,-0.386 0.09,-0.31 0.09,-0.235Z" style="fill-rule:nonzero;"/>
            </g>
            <g transform="matrix(36.4375,0,0,36.4375,700.276,1323.57)">
                <path d="M0.095,-0.429C0.075,-0.429 0.053,-0.429 0.041,-0.431C0.034,-0.415 0.029,-0.405 0.019,-0.39L0.024,-0.383C0.041,-0.384 0.072,-0.385 0.095,-0.385L0.095,-0.248C0.095,-0.188 0.092,-0.116 0.092,-0.086C0.092,-0.021 0.134,0.01 0.18,0.01C0.222,0.01 0.254,-0 0.296,-0.027L0.284,-0.052C0.253,-0.041 0.23,-0.04 0.205,-0.044C0.181,-0.048 0.172,-0.072 0.172,-0.126C0.172,-0.156 0.175,-0.199 0.175,-0.259L0.175,-0.385L0.213,-0.385C0.237,-0.385 0.272,-0.384 0.285,-0.383C0.288,-0.399 0.291,-0.409 0.297,-0.424L0.292,-0.431C0.274,-0.43 0.245,-0.429 0.222,-0.429L0.175,-0.429C0.175,-0.504 0.176,-0.517 0.18,-0.575C0.18,-0.582 0.177,-0.585 0.171,-0.585C0.146,-0.575 0.134,-0.564 0.101,-0.56L0.099,-0.557C0.097,-0.522 0.095,-0.487 0.095,-0.429Z" style="fill-rule:nonzero;"/>
            </g>
            <g transform="matrix(36.4375,0,0,36.4375,712.664,1323.57)">
                <path d="M0.05,-0.101L0.033,-0.017C0.09,0.003 0.146,0.01 0.184,0.01C0.322,0.01 0.354,-0.072 0.354,-0.127C0.354,-0.209 0.289,-0.241 0.218,-0.258C0.18,-0.267 0.125,-0.286 0.125,-0.336C0.125,-0.377 0.158,-0.399 0.201,-0.399C0.253,-0.399 0.285,-0.358 0.308,-0.331L0.322,-0.332L0.342,-0.406L0.34,-0.409C0.311,-0.424 0.256,-0.439 0.205,-0.439C0.131,-0.439 0.054,-0.4 0.054,-0.317C0.054,-0.237 0.114,-0.211 0.174,-0.194C0.232,-0.178 0.275,-0.162 0.275,-0.113C0.275,-0.06 0.236,-0.03 0.183,-0.03C0.135,-0.03 0.093,-0.063 0.065,-0.102L0.05,-0.101Z" style="fill-rule:nonzero;"/>
            </g>
        </g>
        <g transform="matrix(1,0,0,1,-148.872,151.913)">
            <g transform="matrix(29.15,0,0,29.15,630.133,1319.4)">
                <path d="M0.167,-0.334L0.167,-0.425C0.167,-0.433 0.166,-0.435 0.161,-0.435C0.139,-0.431 0.103,-0.43 0.08,-0.432L0.078,-0.429C0.085,-0.386 0.087,-0.31 0.087,-0.235L0.087,-0.18C0.087,-0.105 0.086,-0.054 0.078,-0L0.08,0.003C0.092,0.001 0.115,-0 0.127,-0C0.139,-0 0.162,0.001 0.174,0.003L0.176,-0C0.169,-0.057 0.167,-0.104 0.167,-0.18L0.167,-0.232C0.167,-0.274 0.18,-0.298 0.201,-0.331C0.216,-0.353 0.238,-0.366 0.257,-0.366C0.277,-0.366 0.296,-0.364 0.309,-0.352L0.317,-0.354L0.337,-0.428L0.333,-0.432C0.316,-0.437 0.315,-0.439 0.297,-0.439C0.243,-0.439 0.214,-0.408 0.17,-0.332L0.167,-0.334Z" style="fill-rule:nonzero;"/>
            </g>
            <g transform="matrix(29.15,0,0,29.15,640.082,1319.4)">
                <path d="M0.038,-0.205C0.038,-0.085 0.117,0.01 0.25,0.01C0.382,0.01 0.462,-0.083 0.462,-0.214C0.462,-0.35 0.389,-0.439 0.254,-0.439C0.123,-0.439 0.038,-0.347 0.038,-0.205ZM0.247,-0.399C0.353,-0.399 0.374,-0.317 0.374,-0.196C0.374,-0.101 0.326,-0.03 0.259,-0.03C0.153,-0.03 0.126,-0.145 0.126,-0.222C0.126,-0.309 0.153,-0.399 0.247,-0.399Z" style="fill-rule:nonzero;"/>
            </g>
            <g transform="matrix(29.15,0,0,29.15,655.007,1319.4)">
                <path d="M0.038,-0.205C0.038,-0.085 0.117,0.01 0.25,0.01C0.382,0.01 0.462,-0.083 0.462,-0.214C0.462,-0.35 0.389,-0.439 0.254,-0.439C0.123,-0.439 0.038,-0.347 0.038,-0.205ZM0.247,-0.399C0.353,-0.399 0.374,-0.317 0.374,-0.196C0.374,-0.101 0.326,-0.03 0.259,-0.03C0.153,-0.03 0.126,-0.145 0.126,-0.222C0.126,-0.309 0.153,-0.399 0.247,-0.399Z" style="fill-rule:nonzero;"/>
            </g>
            <g transform="matrix(29.15,0,0,29.15,669.582,1319.4)">
                <path d="M0.095,-0.429C0.075,-0.429 0.053,-0.429 0.041,-0.431C0.034,-0.415 0.029,-0.405 0.019,-0.39L0.024,-0.383C0.041,-0.384 0.072,-0.385 0.095,-0.385L0.095,-0.248C0.095,-0.188 0.092,-0.116 0.092,-0.086C0.092,-0.021 0.134,0.01 0.18,0.01C0.222,0.01 0.254,-0 0.296,-0.027L0.284,-0.052C0.253,-0.041 0.23,-0.04 0.205,-0.044C0.181,-0.048 0.172,-0.072 0.172,-0.126C0.172,-0.156 0.175,-0.199 0.175,-0.259L0.175,-0.385L0.213,-0.385C0.237,-0.385 0.272,-0.384 0.285,-0.383C0.288,-0.399 0.291,-0.409 0.297,-0.424L0.292,-0.431C0.274,-0.43 0.245,-0.429 0.222,-0.429L0.175,-0.429C0.175,-0.504 0.176,-0.517 0.18,-0.575C0.18,-0.582 0.177,-0.585 0.171,-0.585C0.146,-0.575 0.134,-0.564 0.101,-0.56L0.099,-0.557C0.097,-0.522 0.095,-0.487 0.095,-0.429Z" style="fill-rule:nonzero;"/>
            </g>
            <g transform="matrix(29.15,0,0,29.15,686.78,1319.4)">
                <path d="M0.162,-0.294C0.184,-0.347 0.243,-0.393 0.282,-0.393C0.35,-0.393 0.385,-0.331 0.385,-0.218C0.385,-0.136 0.362,-0.03 0.255,-0.03C0.239,-0.03 0.197,-0.034 0.162,-0.075L0.162,-0.294ZM0.162,-0.352L0.162,-0.425C0.162,-0.433 0.161,-0.435 0.156,-0.435C0.134,-0.431 0.098,-0.43 0.075,-0.432L0.073,-0.429C0.08,-0.386 0.082,-0.31 0.082,-0.235L0.082,0.032C0.082,0.107 0.08,0.178 0.073,0.232L0.075,0.235C0.087,0.233 0.11,0.232 0.122,0.232C0.134,0.232 0.157,0.233 0.169,0.235L0.171,0.232C0.164,0.175 0.162,0.107 0.162,0.032L0.162,-0.012C0.188,0.002 0.225,0.01 0.261,0.01C0.393,0.01 0.473,-0.09 0.473,-0.231C0.473,-0.337 0.411,-0.439 0.299,-0.439C0.26,-0.439 0.21,-0.419 0.164,-0.349L0.162,-0.352Z" style="fill-rule:nonzero;"/>
            </g>
            <g transform="matrix(29.15,0,0,29.15,702.026,1319.4)">
                <path d="M0.31,-0.225L0.306,-0.106C0.306,-0.093 0.3,-0.086 0.292,-0.08C0.264,-0.059 0.23,-0.041 0.2,-0.041C0.155,-0.041 0.126,-0.071 0.126,-0.102C0.126,-0.147 0.147,-0.181 0.225,-0.202L0.31,-0.225ZM0.31,-0.048C0.322,-0.009 0.351,0.01 0.388,0.01C0.413,0.01 0.444,0.004 0.468,-0.021L0.46,-0.046C0.449,-0.042 0.441,-0.04 0.433,-0.04C0.423,-0.04 0.41,-0.042 0.404,-0.048C0.394,-0.057 0.387,-0.081 0.387,-0.126C0.387,-0.155 0.39,-0.266 0.39,-0.277C0.39,-0.412 0.301,-0.439 0.225,-0.439C0.149,-0.439 0.103,-0.402 0.078,-0.381L0.075,-0.377L0.092,-0.31L0.105,-0.309C0.133,-0.354 0.167,-0.394 0.215,-0.394C0.251,-0.394 0.311,-0.389 0.311,-0.276C0.311,-0.269 0.307,-0.265 0.304,-0.264L0.211,-0.243C0.109,-0.22 0.045,-0.166 0.045,-0.098C0.045,-0.024 0.096,0.01 0.17,0.01C0.225,0.01 0.253,-0.003 0.306,-0.048L0.31,-0.048Z" style="fill-rule:nonzero;"/>
            </g>
            <g transform="matrix(29.15,0,0,29.15,716.047,1319.4)">
                <path d="M0.095,-0.429C0.075,-0.429 0.053,-0.429 0.041,-0.431C0.034,-0.415 0.029,-0.405 0.019,-0.39L0.024,-0.383C0.041,-0.384 0.072,-0.385 0.095,-0.385L0.095,-0.248C0.095,-0.188 0.092,-0.116 0.092,-0.086C0.092,-0.021 0.134,0.01 0.18,0.01C0.222,0.01 0.254,-0 0.296,-0.027L0.284,-0.052C0.253,-0.041 0.23,-0.04 0.205,-0.044C0.181,-0.048 0.172,-0.072 0.172,-0.126C0.172,-0.156 0.175,-0.199 0.175,-0.259L0.175,-0.385L0.213,-0.385C0.237,-0.385 0.272,-0.384 0.285,-0.383C0.288,-0.399 0.291,-0.409 0.297,-0.424L0.292,-0.431C0.274,-0.43 0.245,-0.429 0.222,-0.429L0.175,-0.429C0.175,-0.504 0.176,-0.517 0.18,-0.575C0.18,-0.582 0.177,-0.585 0.171,-0.585C0.146,-0.575 0.134,-0.564 0.101,-0.56L0.099,-0.557C0.097,-0.522 0.095,-0.487 0.095,-0.429Z" style="fill-rule:nonzero;"/>
            </g>
            <g transform="matrix(29.15,0,0,29.15,725.958,1319.4)">
                <path d="M0.17,-0.352L0.17,-0.501C0.17,-0.575 0.174,-0.627 0.179,-0.688C0.179,-0.695 0.176,-0.698 0.17,-0.698C0.145,-0.688 0.124,-0.681 0.083,-0.678L0.081,-0.675C0.089,-0.632 0.09,-0.557 0.09,-0.481L0.09,-0.18C0.09,-0.106 0.089,-0.056 0.081,-0L0.083,0.003C0.095,0.001 0.118,-0 0.13,-0C0.142,-0 0.165,0.001 0.177,0.003L0.179,-0C0.172,-0.057 0.17,-0.104 0.17,-0.18L0.17,-0.297C0.221,-0.357 0.28,-0.379 0.315,-0.379C0.366,-0.379 0.387,-0.359 0.387,-0.278L0.387,-0.18C0.387,-0.105 0.386,-0.054 0.378,-0L0.38,0.003C0.392,0.001 0.415,-0 0.427,-0C0.439,-0 0.462,0.001 0.474,0.003L0.476,-0C0.468,-0.057 0.467,-0.104 0.467,-0.18C0.467,-0.212 0.469,-0.249 0.469,-0.281C0.469,-0.385 0.435,-0.439 0.345,-0.439C0.307,-0.439 0.236,-0.424 0.172,-0.349L0.17,-0.352Z" style="fill-rule:nonzero;"/>
            </g>
        </g>
        <g transform="matrix(1,0,0,1,59.4304,151.913)">
            <g transform="matrix(29.15,0,0,29.15,630.133,1319.4)">
                <path d="M0.05,-0.101L0.033,-0.017C0.09,0.003 0.146,0.01 0.184,0.01C0.322,0.01 0.354,-0.072 0.354,-0.127C0.354,-0.209 0.289,-0.241 0.218,-0.258C0.18,-0.267 0.125,-0.286 0.125,-0.336C0.125,-0.377 0.158,-0.399 0.201,-0.399C0.253,-0.399 0.285,-0.358 0.308,-0.331L0.322,-0.332L0.342,-0.406L0.34,-0.409C0.311,-0.424 0.256,-0.439 0.205,-0.439C0.131,-0.439 0.054,-0.4 0.054,-0.317C0.054,-0.237 0.114,-0.211 0.174,-0.194C0.232,-0.178 0.275,-0.162 0.275,-0.113C0.275,-0.06 0.236,-0.03 0.183,-0.03C0.135,-0.03 0.093,-0.063 0.065,-0.102L0.05,-0.101Z" style="fill-rule:nonzero;"/>
            </g>
            <g transform="matrix(29.15,0,0,29.15,641.677,1319.4)">
                <path d="M0.365,-0.092L0.369,-0.089L0.374,-0C0.374,0.002 0.375,0.003 0.378,0.003C0.391,0.001 0.403,-0 0.418,-0C0.43,-0 0.449,0.001 0.462,0.003L0.464,-0C0.456,-0.043 0.447,-0.117 0.447,-0.192L0.447,-0.249C0.447,-0.324 0.448,-0.376 0.456,-0.429L0.454,-0.432C0.442,-0.43 0.419,-0.429 0.407,-0.429C0.395,-0.429 0.372,-0.43 0.36,-0.432L0.358,-0.429C0.366,-0.372 0.367,-0.325 0.367,-0.249L0.367,-0.151C0.337,-0.1 0.279,-0.046 0.23,-0.046C0.196,-0.046 0.163,-0.057 0.163,-0.15L0.163,-0.249C0.163,-0.324 0.164,-0.376 0.172,-0.429L0.17,-0.432C0.158,-0.43 0.135,-0.429 0.123,-0.429C0.111,-0.429 0.088,-0.43 0.076,-0.432L0.074,-0.429C0.082,-0.372 0.083,-0.325 0.083,-0.249L0.083,-0.129C0.083,-0.06 0.115,0.01 0.214,0.01C0.276,0.01 0.332,-0.041 0.365,-0.092Z" style="fill-rule:nonzero;"/>
            </g>
            <g transform="matrix(29.15,0,0,29.15,657.33,1319.4)">
                <path d="M0.162,-0.081L0.162,-0.34C0.201,-0.38 0.226,-0.399 0.267,-0.399C0.328,-0.399 0.382,-0.349 0.382,-0.224C0.382,-0.1 0.345,-0.03 0.25,-0.03C0.219,-0.03 0.182,-0.056 0.162,-0.081ZM0.162,-0.5C0.162,-0.574 0.163,-0.627 0.168,-0.688C0.168,-0.695 0.165,-0.698 0.159,-0.698C0.134,-0.688 0.113,-0.681 0.072,-0.678L0.07,-0.675C0.078,-0.632 0.082,-0.558 0.082,-0.482L0.082,-0.073C0.082,-0.034 0.081,-0.02 0.077,0.002C0.083,0.008 0.095,0.01 0.105,0.01C0.116,-0.002 0.128,-0.019 0.138,-0.039C0.167,-0.014 0.213,0.01 0.256,0.01C0.358,0.01 0.471,-0.062 0.471,-0.232C0.471,-0.354 0.384,-0.439 0.287,-0.439C0.239,-0.439 0.196,-0.426 0.162,-0.389L0.162,-0.5Z" style="fill-rule:nonzero;"/>
            </g>
            <g transform="matrix(29.15,0,0,29.15,672.022,1319.4)">
                <path d="M0.095,-0.429C0.075,-0.429 0.053,-0.429 0.041,-0.431C0.034,-0.415 0.029,-0.405 0.019,-0.39L0.024,-0.383C0.041,-0.384 0.072,-0.385 0.095,-0.385L0.095,-0.248C0.095,-0.188 0.092,-0.116 0.092,-0.086C0.092,-0.021 0.134,0.01 0.18,0.01C0.222,0.01 0.254,-0 0.296,-0.027L0.284,-0.052C0.253,-0.041 0.23,-0.04 0.205,-0.044C0.181,-0.048 0.172,-0.072 0.172,-0.126C0.172,-0.156 0.175,-0.199 0.175,-0.259L0.175,-0.385L0.213,-0.385C0.237,-0.385 0.272,-0.384 0.285,-0.383C0.288,-0.399 0.291,-0.409 0.297,-0.424L0.292,-0.431C0.274,-0.43 0.245,-0.429 0.222,-0.429L0.175,-0.429C0.175,-0.504 0.176,-0.517 0.18,-0.575C0.18,-0.582 0.177,-0.585 0.171,-0.585C0.146,-0.575 0.134,-0.564 0.101,-0.56L0.099,-0.557C0.097,-0.522 0.095,-0.487 0.095,-0.429Z" style="fill-rule:nonzero;"/>
            </g>
            <g transform="matrix(29.15,0,0,29.15,681.933,1319.4)">
                <path d="M0.167,-0.334L0.167,-0.425C0.167,-0.433 0.166,-0.435 0.161,-0.435C0.139,-0.431 0.103,-0.43 0.08,-0.432L0.078,-0.429C0.085,-0.386 0.087,-0.31 0.087,-0.235L0.087,-0.18C0.087,-0.105 0.086,-0.054 0.078,-0L0.08,0.003C0.092,0.001 0.115,-0 0.127,-0C0.139,-0 0.162,0.001 0.174,0.003L0.176,-0C0.169,-0.057 0.167,-0.104 0.167,-0.18L0.167,-0.232C0.167,-0.274 0.18,-0.298 0.201,-0.331C0.216,-0.353 0.238,-0.366 0.257,-0.366C0.277,-0.366 0.296,-0.364 0.309,-0.352L0.317,-0.354L0.337,-0.428L0.333,-0.432C0.316,-0.437 0.315,-0.439 0.297,-0.439C0.243,-0.439 0.214,-0.408 0.17,-0.332L0.167,-0.334Z" style="fill-rule:nonzero;"/>
            </g>
            <g transform="matrix(29.15,0,0,29.15,691.881,1319.4)">
                <path d="M0.125,-0.273C0.142,-0.377 0.208,-0.399 0.239,-0.399C0.279,-0.399 0.323,-0.362 0.323,-0.287C0.323,-0.278 0.319,-0.273 0.309,-0.273L0.125,-0.273ZM0.392,-0.104C0.357,-0.066 0.31,-0.049 0.255,-0.049C0.221,-0.049 0.174,-0.062 0.146,-0.106C0.128,-0.134 0.122,-0.175 0.122,-0.233L0.394,-0.233C0.405,-0.233 0.412,-0.239 0.412,-0.25C0.412,-0.334 0.371,-0.439 0.239,-0.439C0.136,-0.439 0.034,-0.356 0.034,-0.209C0.034,-0.152 0.046,-0.096 0.079,-0.056C0.113,-0.015 0.171,0.01 0.238,0.01C0.31,0.01 0.374,-0.027 0.412,-0.079L0.392,-0.104Z" style="fill-rule:nonzero;"/>
            </g>
            <g transform="matrix(29.15,0,0,29.15,705.436,1319.4)">
                <path d="M0.125,-0.273C0.142,-0.377 0.208,-0.399 0.239,-0.399C0.279,-0.399 0.323,-0.362 0.323,-0.287C0.323,-0.278 0.319,-0.273 0.309,-0.273L0.125,-0.273ZM0.392,-0.104C0.357,-0.066 0.31,-0.049 0.255,-0.049C0.221,-0.049 0.174,-0.062 0.146,-0.106C0.128,-0.134 0.122,-0.175 0.122,-0.233L0.394,-0.233C0.405,-0.233 0.412,-0.239 0.412,-0.25C0.412,-0.334 0.371,-0.439 0.239,-0.439C0.136,-0.439 0.034,-0.356 0.034,-0.209C0.034,-0.152 0.046,-0.096 0.079,-0.056C0.113,-0.015 0.171,0.01 0.238,0.01C0.31,0.01 0.374,-0.027 0.412,-0.079L0.392,-0.104Z" style="fill-rule:nonzero;"/>
            </g>
            <g transform="matrix(29.15,0,0,29.15,725.929,1319.4)">
                <path d="M0.361,-0.113C0.325,-0.067 0.279,-0.042 0.238,-0.042C0.184,-0.042 0.138,-0.096 0.138,-0.221C0.138,-0.371 0.218,-0.399 0.266,-0.399C0.313,-0.399 0.337,-0.379 0.361,-0.341L0.361,-0.113ZM0.361,-0.058L0.363,-0.058L0.368,-0C0.368,0.002 0.371,0.003 0.377,0.003C0.39,0.001 0.397,-0 0.412,-0C0.424,-0 0.443,0.001 0.456,0.003L0.458,-0C0.45,-0.043 0.441,-0.117 0.441,-0.192L0.441,-0.5C0.441,-0.574 0.445,-0.626 0.45,-0.688C0.45,-0.695 0.447,-0.698 0.441,-0.698C0.416,-0.688 0.395,-0.681 0.354,-0.678L0.352,-0.675C0.36,-0.632 0.361,-0.558 0.361,-0.482L0.361,-0.417C0.338,-0.43 0.297,-0.439 0.277,-0.439C0.147,-0.439 0.051,-0.349 0.051,-0.213C0.051,-0.09 0.124,0.01 0.232,0.01C0.28,0.01 0.325,-0.012 0.361,-0.058Z" style="fill-rule:nonzero;"/>
            </g>
            <g transform="matrix(29.15,0,0,29.15,741.378,1319.4)">
                <path d="M0.125,-0.273C0.142,-0.377 0.208,-0.399 0.239,-0.399C0.279,-0.399 0.323,-0.362 0.323,-0.287C0.323,-0.278 0.319,-0.273 0.309,-0.273L0.125,-0.273ZM0.392,-0.104C0.357,-0.066 0.31,-0.049 0.255,-0.049C0.221,-0.049 0.174,-0.062 0.146,-0.106C0.128,-0.134 0.122,-0.175 0.122,-0.233L0.394,-0.233C0.405,-0.233 0.412,-0.239 0.412,-0.25C0.412,-0.334 0.371,-0.439 0.239,-0.439C0.136,-0.439 0.034,-0.356 0.034,-0.209C0.034,-0.152 0.046,-0.096 0.079,-0.056C0.113,-0.015 0.171,0.01 0.238,0.01C0.31,0.01 0.374,-0.027 0.412,-0.079L0.392,-0.104Z" style="fill-rule:nonzero;"/>
            </g>
            <g transform="matrix(29.15,0,0,29.15,754.583,1319.4)">
                <path d="M0.162,-0.294C0.184,-0.347 0.243,-0.393 0.282,-0.393C0.35,-0.393 0.385,-0.331 0.385,-0.218C0.385,-0.136 0.362,-0.03 0.255,-0.03C0.239,-0.03 0.197,-0.034 0.162,-0.075L0.162,-0.294ZM0.162,-0.352L0.162,-0.425C0.162,-0.433 0.161,-0.435 0.156,-0.435C0.134,-0.431 0.098,-0.43 0.075,-0.432L0.073,-0.429C0.08,-0.386 0.082,-0.31 0.082,-0.235L0.082,0.032C0.082,0.107 0.08,0.178 0.073,0.232L0.075,0.235C0.087,0.233 0.11,0.232 0.122,0.232C0.134,0.232 0.157,0.233 0.169,0.235L0.171,0.232C0.164,0.175 0.162,0.107 0.162,0.032L0.162,-0.012C0.188,0.002 0.225,0.01 0.261,0.01C0.393,0.01 0.473,-0.09 0.473,-0.231C0.473,-0.337 0.411,-0.439 0.299,-0.439C0.26,-0.439 0.21,-0.419 0.164,-0.349L0.162,-0.352Z" style="fill-rule:nonzero;"/>
            </g>
            <g transform="matrix(29.15,0,0,29.15,769.828,1319.4)">
                <path d="M0.095,-0.429C0.075,-0.429 0.053,-0.429 0.041,-0.431C0.034,-0.415 0.029,-0.405 0.019,-0.39L0.024,-0.383C0.041,-0.384 0.072,-0.385 0.095,-0.385L0.095,-0.248C0.095,-0.188 0.092,-0.116 0.092,-0.086C0.092,-0.021 0.134,0.01 0.18,0.01C0.222,0.01 0.254,-0 0.296,-0.027L0.284,-0.052C0.253,-0.041 0.23,-0.04 0.205,-0.044C0.181,-0.048 0.172,-0.072 0.172,-0.126C0.172,-0.156 0.175,-0.199 0.175,-0.259L0.175,-0.385L0.213,-0.385C0.237,-0.385 0.272,-0.384 0.285,-0.383C0.288,-0.399 0.291,-0.409 0.297,-0.424L0.292,-0.431C0.274,-0.43 0.245,-0.429 0.222,-0.429L0.175,-0.429C0.175,-0.504 0.176,-0.517 0.18,-0.575C0.18,-0.582 0.177,-0.585 0.171,-0.585C0.146,-0.575 0.134,-0.564 0.101,-0.56L0.099,-0.557C0.097,-0.522 0.095,-0.487 0.095,-0.429Z" style="fill-rule:nonzero;"/>
            </g>
            <g transform="matrix(29.15,0,0,29.15,779.739,1319.4)">
                <path d="M0.17,-0.352L0.17,-0.501C0.17,-0.575 0.174,-0.627 0.179,-0.688C0.179,-0.695 0.176,-0.698 0.17,-0.698C0.145,-0.688 0.124,-0.681 0.083,-0.678L0.081,-0.675C0.089,-0.632 0.09,-0.557 0.09,-0.481L0.09,-0.18C0.09,-0.106 0.089,-0.056 0.081,-0L0.083,0.003C0.095,0.001 0.118,-0 0.13,-0C0.142,-0 0.165,0.001 0.177,0.003L0.179,-0C0.172,-0.057 0.17,-0.104 0.17,-0.18L0.17,-0.297C0.221,-0.357 0.28,-0.379 0.315,-0.379C0.366,-0.379 0.387,-0.359 0.387,-0.278L0.387,-0.18C0.387,-0.105 0.386,-0.054 0.378,-0L0.38,0.003C0.392,0.001 0.415,-0 0.427,-0C0.439,-0 0.462,0.001 0.474,0.003L0.476,-0C0.468,-0.057 0.467,-0.104 0.467,-0.18C0.467,-0.212 0.469,-0.249 0.469,-0.281C0.469,-0.385 0.435,-0.439 0.345,-0.439C0.307,-0.439 0.236,-0.424 0.172,-0.349L0.17,-0.352Z" style="fill-rule:nonzero;"/>
            </g>
        </g>
        <g transform="matrix(1,0,0,1,-47.6938,192.117)">
            <g transform="matrix(29.15,0,0,29.15,630.133,1319.4)">
                <path d="M0.09,-0.2C0.09,-0.126 0.089,-0.054 0.081,-0L0.083,0.003C0.095,0.001 0.118,-0 0.13,-0C0.142,-0 0.165,0.001 0.177,0.003L0.179,-0C0.171,-0.057 0.17,-0.125 0.17,-0.2L0.17,-0.5C0.17,-0.575 0.174,-0.625 0.179,-0.688C0.179,-0.695 0.176,-0.698 0.17,-0.698C0.145,-0.688 0.124,-0.681 0.083,-0.678L0.081,-0.675C0.089,-0.632 0.09,-0.558 0.09,-0.482L0.09,-0.2Z" style="fill-rule:nonzero;"/>
            </g>
            <g transform="matrix(29.15,0,0,29.15,637.479,1319.4)">
                <path d="M0.31,-0.225L0.306,-0.106C0.306,-0.093 0.3,-0.086 0.292,-0.08C0.264,-0.059 0.23,-0.041 0.2,-0.041C0.155,-0.041 0.126,-0.071 0.126,-0.102C0.126,-0.147 0.147,-0.181 0.225,-0.202L0.31,-0.225ZM0.31,-0.048C0.322,-0.009 0.351,0.01 0.388,0.01C0.413,0.01 0.444,0.004 0.468,-0.021L0.46,-0.046C0.449,-0.042 0.441,-0.04 0.433,-0.04C0.423,-0.04 0.41,-0.042 0.404,-0.048C0.394,-0.057 0.387,-0.081 0.387,-0.126C0.387,-0.155 0.39,-0.266 0.39,-0.277C0.39,-0.412 0.301,-0.439 0.225,-0.439C0.149,-0.439 0.103,-0.402 0.078,-0.381L0.075,-0.377L0.092,-0.31L0.105,-0.309C0.133,-0.354 0.167,-0.394 0.215,-0.394C0.251,-0.394 0.311,-0.389 0.311,-0.276C0.311,-0.269 0.307,-0.265 0.304,-0.264L0.211,-0.243C0.109,-0.22 0.045,-0.166 0.045,-0.098C0.045,-0.024 0.096,0.01 0.17,0.01C0.225,0.01 0.253,-0.003 0.306,-0.048L0.31,-0.048Z" style="fill-rule:nonzero;"/>
            </g>
            <g transform="matrix(29.15,0,0,29.15,651.5,1319.4)">
                <path d="M0.05,-0.101L0.033,-0.017C0.09,0.003 0.146,0.01 0.184,0.01C0.322,0.01 0.354,-0.072 0.354,-0.127C0.354,-0.209 0.289,-0.241 0.218,-0.258C0.18,-0.267 0.125,-0.286 0.125,-0.336C0.125,-0.377 0.158,-0.399 0.201,-0.399C0.253,-0.399 0.285,-0.358 0.308,-0.331L0.322,-0.332L0.342,-0.406L0.34,-0.409C0.311,-0.424 0.256,-0.439 0.205,-0.439C0.131,-0.439 0.054,-0.4 0.054,-0.317C0.054,-0.237 0.114,-0.211 0.174,-0.194C0.232,-0.178 0.275,-0.162 0.275,-0.113C0.275,-0.06 0.236,-0.03 0.183,-0.03C0.135,-0.03 0.093,-0.063 0.065,-0.102L0.05,-0.101Z" style="fill-rule:nonzero;"/>
            </g>
            <g transform="matrix(29.15,0,0,29.15,663.044,1319.4)">
                <path d="M0.095,-0.429C0.075,-0.429 0.053,-0.429 0.041,-0.431C0.034,-0.415 0.029,-0.405 0.019,-0.39L0.024,-0.383C0.041,-0.384 0.072,-0.385 0.095,-0.385L0.095,-0.248C0.095,-0.188 0.092,-0.116 0.092,-0.086C0.092,-0.021 0.134,0.01 0.18,0.01C0.222,0.01 0.254,-0 0.296,-0.027L0.284,-0.052C0.253,-0.041 0.23,-0.04 0.205,-0.044C0.181,-0.048 0.172,-0.072 0.172,-0.126C0.172,-0.156 0.175,-0.199 0.175,-0.259L0.175,-0.385L0.213,-0.385C0.237,-0.385 0.272,-0.384 0.285,-0.383C0.288,-0.399 0.291,-0.409 0.297,-0.424L0.292,-0.431C0.274,-0.43 0.245,-0.429 0.222,-0.429L0.175,-0.429C0.175,-0.504 0.176,-0.517 0.18,-0.575C0.18,-0.582 0.177,-0.585 0.171,-0.585C0.146,-0.575 0.134,-0.564 0.101,-0.56L0.099,-0.557C0.097,-0.522 0.095,-0.487 0.095,-0.429Z" style="fill-rule:nonzero;"/>
            </g>
            <g transform="matrix(29.15,0,0,29.15,680.242,1319.4)">
                <path d="M0.136,-0.045L0.365,-0.387C0.382,-0.412 0.389,-0.422 0.395,-0.429C0.395,-0.433 0.394,-0.435 0.39,-0.435C0.385,-0.435 0.338,-0.429 0.309,-0.429L0.105,-0.429C0.085,-0.429 0.064,-0.43 0.049,-0.432L0.047,-0.429C0.048,-0.416 0.049,-0.411 0.049,-0.402C0.049,-0.393 0.048,-0.384 0.047,-0.376L0.049,-0.373C0.049,-0.373 0.162,-0.382 0.277,-0.384L0.042,-0.032C0.034,-0.02 0.028,-0.011 0.02,-0.002L0.023,0.003C0.023,0.003 0.076,-0 0.104,-0L0.33,-0C0.35,-0 0.371,0.001 0.386,0.003L0.388,-0C0.387,-0.013 0.386,-0.018 0.386,-0.027C0.386,-0.036 0.387,-0.045 0.388,-0.053L0.386,-0.056C0.386,-0.056 0.258,-0.046 0.136,-0.045Z" style="fill-rule:nonzero;"/>
            </g>
            <g transform="matrix(29.15,0,0,29.15,692.369,1319.4)">
                <path d="M0.125,-0.273C0.142,-0.377 0.208,-0.399 0.239,-0.399C0.279,-0.399 0.323,-0.362 0.323,-0.287C0.323,-0.278 0.319,-0.273 0.309,-0.273L0.125,-0.273ZM0.392,-0.104C0.357,-0.066 0.31,-0.049 0.255,-0.049C0.221,-0.049 0.174,-0.062 0.146,-0.106C0.128,-0.134 0.122,-0.175 0.122,-0.233L0.394,-0.233C0.405,-0.233 0.412,-0.239 0.412,-0.25C0.412,-0.334 0.371,-0.439 0.239,-0.439C0.136,-0.439 0.034,-0.356 0.034,-0.209C0.034,-0.152 0.046,-0.096 0.079,-0.056C0.113,-0.015 0.171,0.01 0.238,0.01C0.31,0.01 0.374,-0.027 0.412,-0.079L0.392,-0.104Z" style="fill-rule:nonzero;"/>
            </g>
            <g transform="matrix(29.15,0,0,29.15,705.574,1319.4)">
                <path d="M0.167,-0.334L0.167,-0.425C0.167,-0.433 0.166,-0.435 0.161,-0.435C0.139,-0.431 0.103,-0.43 0.08,-0.432L0.078,-0.429C0.085,-0.386 0.087,-0.31 0.087,-0.235L0.087,-0.18C0.087,-0.105 0.086,-0.054 0.078,-0L0.08,0.003C0.092,0.001 0.115,-0 0.127,-0C0.139,-0 0.162,0.001 0.174,0.003L0.176,-0C0.169,-0.057 0.167,-0.104 0.167,-0.18L0.167,-0.232C0.167,-0.274 0.18,-0.298 0.201,-0.331C0.216,-0.353 0.238,-0.366 0.257,-0.366C0.277,-0.366 0.296,-0.364 0.309,-0.352L0.317,-0.354L0.337,-0.428L0.333,-0.432C0.316,-0.437 0.315,-0.439 0.297,-0.439C0.243,-0.439 0.214,-0.408 0.17,-0.332L0.167,-0.334Z" style="fill-rule:nonzero;"/>
            </g>
            <g transform="matrix(29.15,0,0,29.15,715.522,1319.4)">
                <path d="M0.038,-0.205C0.038,-0.085 0.117,0.01 0.25,0.01C0.382,0.01 0.462,-0.083 0.462,-0.214C0.462,-0.35 0.389,-0.439 0.254,-0.439C0.123,-0.439 0.038,-0.347 0.038,-0.205ZM0.247,-0.399C0.353,-0.399 0.374,-0.317 0.374,-0.196C0.374,-0.101 0.326,-0.03 0.259,-0.03C0.153,-0.03 0.126,-0.145 0.126,-0.222C0.126,-0.309 0.153,-0.399 0.247,-0.399Z" style="fill-rule:nonzero;"/>
            </g>
            <g transform="matrix(29.15,0,0,29.15,737.384,1319.4)">
                <path d="M0.162,-0.081L0.162,-0.34C0.201,-0.38 0.226,-0.399 0.267,-0.399C0.328,-0.399 0.382,-0.349 0.382,-0.224C0.382,-0.1 0.345,-0.03 0.25,-0.03C0.219,-0.03 0.182,-0.056 0.162,-0.081ZM0.162,-0.5C0.162,-0.574 0.163,-0.627 0.168,-0.688C0.168,-0.695 0.165,-0.698 0.159,-0.698C0.134,-0.688 0.113,-0.681 0.072,-0.678L0.07,-0.675C0.078,-0.632 0.082,-0.558 0.082,-0.482L0.082,-0.073C0.082,-0.034 0.081,-0.02 0.077,0.002C0.083,0.008 0.095,0.01 0.105,0.01C0.116,-0.002 0.128,-0.019 0.138,-0.039C0.167,-0.014 0.213,0.01 0.256,0.01C0.358,0.01 0.471,-0.062 0.471,-0.232C0.471,-0.354 0.384,-0.439 0.287,-0.439C0.239,-0.439 0.196,-0.426 0.162,-0.389L0.162,-0.5Z" style="fill-rule:nonzero;"/>
            </g>
            <g transform="matrix(29.15,0,0,29.15,752.076,1319.4)">
                <path d="M0.08,-0.597C0.08,-0.57 0.104,-0.546 0.131,-0.546C0.158,-0.546 0.182,-0.57 0.182,-0.597C0.182,-0.624 0.158,-0.648 0.131,-0.648C0.104,-0.648 0.08,-0.624 0.08,-0.597ZM0.09,-0.235L0.09,-0.18C0.09,-0.105 0.088,-0.054 0.081,-0L0.083,0.003C0.095,0.001 0.118,-0 0.13,-0C0.142,-0 0.165,0.001 0.177,0.003L0.179,-0C0.172,-0.057 0.17,-0.104 0.17,-0.18L0.17,-0.251C0.17,-0.326 0.173,-0.362 0.179,-0.423C0.179,-0.432 0.178,-0.433 0.17,-0.433C0.147,-0.431 0.104,-0.43 0.083,-0.432L0.081,-0.429C0.087,-0.386 0.09,-0.31 0.09,-0.235Z" style="fill-rule:nonzero;"/>
            </g>
            <g transform="matrix(29.15,0,0,29.15,759.655,1319.4)">
                <path d="M0.095,-0.429C0.075,-0.429 0.053,-0.429 0.041,-0.431C0.034,-0.415 0.029,-0.405 0.019,-0.39L0.024,-0.383C0.041,-0.384 0.072,-0.385 0.095,-0.385L0.095,-0.248C0.095,-0.188 0.092,-0.116 0.092,-0.086C0.092,-0.021 0.134,0.01 0.18,0.01C0.222,0.01 0.254,-0 0.296,-0.027L0.284,-0.052C0.253,-0.041 0.23,-0.04 0.205,-0.044C0.181,-0.048 0.172,-0.072 0.172,-0.126C0.172,-0.156 0.175,-0.199 0.175,-0.259L0.175,-0.385L0.213,-0.385C0.237,-0.385 0.272,-0.384 0.285,-0.383C0.288,-0.399 0.291,-0.409 0.297,-0.424L0.292,-0.431C0.274,-0.43 0.245,-0.429 0.222,-0.429L0.175,-0.429C0.175,-0.504 0.176,-0.517 0.18,-0.575C0.18,-0.582 0.177,-0.585 0.171,-0.585C0.146,-0.575 0.134,-0.564 0.101,-0.56L0.099,-0.557C0.097,-0.522 0.095,-0.487 0.095,-0.429Z" style="fill-rule:nonzero;"/>
            </g>
        </g>
        <g transform="matrix(0.998193,-0.0600921,0.0600921,0.998193,-106.133,-54.6989)">
            <g transform="matrix(0.998193,0.0600921,-0.0600921,0.998193,476.188,1290.37)">
                <path d="M199.634,200.852L205.974,182.132L212.134,200.912L199.634,200.852Z"/>
                <path d="M205.503,280.465C205.503,280.465 205.77,224.663 205.902,197.132" style="fill:none;stroke:black;stroke-width:4.17px;"/>
            </g>
        </g>
    </g>
</svg>
