<?xml version="1.0" encoding="UTF-8" standalone="no"?>
<!DOCTYPE svg PUBLIC "-//W3C//DTD SVG 1.1//EN" "http://www.w3.org/Graphics/SVG/1.1/DTD/svg11.dtd">
<svg width="100%" height="100%" viewBox="0 0 609 129" version="1.1" xmlns="http://www.w3.org/2000/svg" xmlns:xlink="http://www.w3.org/1999/xlink" xml:space="preserve" xmlns:serif="http://www.serif.com/" style="fill-rule:evenodd;clip-rule:evenodd;stroke-linecap:round;stroke-linejoin:round;stroke-miterlimit:1.5;">
    <g transform="matrix(1,0,0,1,-982.4,-1296.99)">
        <g transform="matrix(1,0,0,1,162.215,709.384)">
            <g transform="matrix(29.15,0,0,29.15,823.014,703.743)">
                <path d="M0.29,-0.704C0.246,-0.686 0.197,-0.662 0.164,-0.629C0.079,-0.544 0.034,-0.423 0.034,-0.303C0.034,-0.245 0.039,-0.192 0.055,-0.136C0.066,-0.094 0.087,-0.053 0.118,-0.022C0.142,0.001 0.174,0.014 0.207,0.014C0.262,0.014 0.315,-0.008 0.354,-0.046C0.39,-0.083 0.416,-0.129 0.432,-0.177C0.452,-0.234 0.46,-0.295 0.46,-0.356C0.46,-0.434 0.445,-0.513 0.405,-0.582C0.376,-0.632 0.34,-0.672 0.29,-0.704ZM0.234,-0.64C0.279,-0.621 0.324,-0.551 0.33,-0.539C0.374,-0.461 0.398,-0.375 0.398,-0.285C0.398,-0.245 0.395,-0.204 0.383,-0.166C0.373,-0.135 0.36,-0.106 0.337,-0.083C0.316,-0.061 0.283,-0.052 0.252,-0.052C0.232,-0.052 0.203,-0.065 0.184,-0.084C0.153,-0.115 0.135,-0.156 0.122,-0.199C0.106,-0.254 0.101,-0.313 0.101,-0.371C0.101,-0.452 0.129,-0.532 0.181,-0.595C0.197,-0.614 0.215,-0.628 0.234,-0.64Z" style="fill-rule:nonzero;"/>
            </g>
        </g>
        <g transform="matrix(1,0,0,1,319.633,633.359)">
            <g transform="matrix(33.3333,0,0,33.3333,823.014,687.093)">
                <path d="M0.29,-0.704C0.246,-0.686 0.197,-0.662 0.164,-0.629C0.079,-0.544 0.034,-0.423 0.034,-0.303C0.034,-0.245 0.039,-0.192 0.055,-0.136C0.066,-0.094 0.087,-0.053 0.118,-0.022C0.142,0.001 0.174,0.014 0.207,0.014C0.262,0.014 0.315,-0.008 0.354,-0.046C0.39,-0.083 0.416,-0.129 0.432,-0.177C0.452,-0.234 0.46,-0.295 0.46,-0.356C0.46,-0.434 0.445,-0.513 0.405,-0.582C0.376,-0.632 0.34,-0.672 0.29,-0.704ZM0.234,-0.64C0.279,-0.621 0.324,-0.551 0.33,-0.539C0.374,-0.461 0.398,-0.375 0.398,-0.285C0.398,-0.245 0.395,-0.204 0.383,-0.166C0.373,-0.135 0.36,-0.106 0.337,-0.083C0.316,-0.061 0.283,-0.052 0.252,-0.052C0.232,-0.052 0.203,-0.065 0.184,-0.084C0.153,-0.115 0.135,-0.156 0.122,-0.199C0.106,-0.254 0.101,-0.313 0.101,-0.371C0.101,-0.452 0.129,-0.532 0.181,-0.595C0.197,-0.614 0.215,-0.628 0.234,-0.64Z" style="fill-rule:nonzero;"/>
            </g>
            <g transform="matrix(33.3333,0,0,33.3333,850.748,687.093)">
                <path d="M0.716,-0.329L0.722,-0.369L0.061,-0.369L0.054,-0.329L0.716,-0.329ZM0.716,-0.132L0.722,-0.172L0.061,-0.172L0.054,-0.132L0.716,-0.132Z" style="fill-rule:nonzero;"/>
            </g>
            <g transform="matrix(33.3333,0,0,33.3333,887.048,687.093)">
                <path d="M0.29,-0.704C0.246,-0.686 0.197,-0.662 0.164,-0.629C0.079,-0.544 0.034,-0.423 0.034,-0.303C0.034,-0.245 0.039,-0.192 0.055,-0.136C0.066,-0.094 0.087,-0.053 0.118,-0.022C0.142,0.001 0.174,0.014 0.207,0.014C0.262,0.014 0.315,-0.008 0.354,-0.046C0.39,-0.083 0.416,-0.129 0.432,-0.177C0.452,-0.234 0.46,-0.295 0.46,-0.356C0.46,-0.434 0.445,-0.513 0.405,-0.582C0.376,-0.632 0.34,-0.672 0.29,-0.704ZM0.234,-0.64C0.279,-0.621 0.324,-0.551 0.33,-0.539C0.374,-0.461 0.398,-0.375 0.398,-0.285C0.398,-0.245 0.395,-0.204 0.383,-0.166C0.373,-0.135 0.36,-0.106 0.337,-0.083C0.316,-0.061 0.283,-0.052 0.252,-0.052C0.232,-0.052 0.203,-0.065 0.184,-0.084C0.153,-0.115 0.135,-0.156 0.122,-0.199C0.106,-0.254 0.101,-0.313 0.101,-0.371C0.101,-0.452 0.129,-0.532 0.181,-0.595C0.197,-0.614 0.215,-0.628 0.234,-0.64Z" style="fill-rule:nonzero;"/>
            </g>
            <g transform="matrix(33.3333,0,0,33.3333,903.681,687.093)">
                <path d="M0.29,-0.704C0.246,-0.686 0.197,-0.662 0.164,-0.629C0.079,-0.544 0.034,-0.423 0.034,-0.303C0.034,-0.245 0.039,-0.192 0.055,-0.136C0.066,-0.094 0.087,-0.053 0.118,-0.022C0.142,0.001 0.174,0.014 0.207,0.014C0.262,0.014 0.315,-0.008 0.354,-0.046C0.39,-0.083 0.416,-0.129 0.432,-0.177C0.452,-0.234 0.46,-0.295 0.46,-0.356C0.46,-0.434 0.445,-0.513 0.405,-0.582C0.376,-0.632 0.34,-0.672 0.29,-0.704ZM0.234,-0.64C0.279,-0.621 0.324,-0.551 0.33,-0.539C0.374,-0.461 0.398,-0.375 0.398,-0.285C0.398,-0.245 0.395,-0.204 0.383,-0.166C0.373,-0.135 0.36,-0.106 0.337,-0.083C0.316,-0.061 0.283,-0.052 0.252,-0.052C0.232,-0.052 0.203,-0.065 0.184,-0.084C0.153,-0.115 0.135,-0.156 0.122,-0.199C0.106,-0.254 0.101,-0.313 0.101,-0.371C0.101,-0.452 0.129,-0.532 0.181,-0.595C0.197,-0.614 0.215,-0.628 0.234,-0.64Z" style="fill-rule:nonzero;"/>
            </g>
            <g transform="matrix(19.4333,0,0,19.4333,920.314,698.193)">
                <path d="M0.472,-0.08L0.467,-0.088L0.158,-0.088C0.153,-0.088 0.148,-0.089 0.146,-0.093C0.145,-0.095 0.146,-0.098 0.147,-0.099C0.197,-0.157 0.245,-0.215 0.29,-0.275C0.322,-0.317 0.353,-0.359 0.378,-0.405C0.404,-0.451 0.426,-0.5 0.426,-0.553C0.426,-0.594 0.414,-0.635 0.384,-0.664C0.355,-0.693 0.316,-0.708 0.275,-0.708C0.237,-0.708 0.201,-0.697 0.168,-0.679C0.128,-0.658 0.094,-0.628 0.064,-0.595L0.084,-0.576C0.108,-0.596 0.13,-0.611 0.158,-0.626C0.177,-0.636 0.199,-0.64 0.221,-0.64C0.25,-0.64 0.28,-0.629 0.3,-0.607C0.328,-0.578 0.334,-0.537 0.334,-0.508C0.334,-0.443 0.311,-0.382 0.276,-0.326C0.248,-0.28 0.213,-0.238 0.178,-0.197C0.125,-0.135 0.069,-0.076 0.012,-0.018L0.012,-0.002L0.449,-0.002L0.472,-0.08Z" style="fill-rule:nonzero;"/>
            </g>
        </g>
        <g transform="matrix(1,0,0,1,210.438,709.646)">
            <g transform="matrix(29.15,0,0,29.15,823.014,703.743)">
                <path d="M0.308,-0.712L0.092,-0.639L0.092,-0.612L0.175,-0.612C0.2,-0.612 0.22,-0.591 0.221,-0.566C0.222,-0.541 0.222,-0.468 0.222,-0.419C0.222,-0.279 0.219,-0.139 0.214,-0L0.226,0.005L0.31,-0.022C0.307,-0.098 0.307,-0.296 0.307,-0.432C0.307,-0.521 0.309,-0.611 0.314,-0.7L0.308,-0.712Z" style="fill-rule:nonzero;"/>
            </g>
        </g>
        <g transform="matrix(0.545014,0,0,0.545014,694.093,993.05)">
            <g transform="matrix(61.1605,0,0,61.1605,823.014,687.093)">
                <path d="M0.308,-0.712L0.092,-0.639L0.092,-0.612L0.175,-0.612C0.2,-0.612 0.22,-0.591 0.221,-0.566C0.222,-0.541 0.222,-0.468 0.222,-0.419C0.222,-0.279 0.219,-0.139 0.214,-0L0.226,0.005L0.31,-0.022C0.307,-0.098 0.307,-0.296 0.307,-0.432C0.307,-0.521 0.309,-0.611 0.314,-0.7L0.308,-0.712Z" style="fill-rule:nonzero;"/>
            </g>
            <g transform="matrix(61.1605,0,0,61.1605,873.9,687.093)">
                <path d="M0.716,-0.329L0.722,-0.369L0.061,-0.369L0.054,-0.329L0.716,-0.329ZM0.716,-0.132L0.722,-0.172L0.061,-0.172L0.054,-0.132L0.716,-0.132Z" style="fill-rule:nonzero;"/>
            </g>
            <g transform="matrix(61.1605,0,0,61.1605,940.504,687.093)">
                <path d="M0.29,-0.704C0.246,-0.686 0.197,-0.662 0.164,-0.629C0.079,-0.544 0.034,-0.423 0.034,-0.303C0.034,-0.245 0.039,-0.192 0.055,-0.136C0.066,-0.094 0.087,-0.053 0.118,-0.022C0.142,0.001 0.174,0.014 0.207,0.014C0.262,0.014 0.315,-0.008 0.354,-0.046C0.39,-0.083 0.416,-0.129 0.432,-0.177C0.452,-0.234 0.46,-0.295 0.46,-0.356C0.46,-0.434 0.445,-0.513 0.405,-0.582C0.376,-0.632 0.34,-0.672 0.29,-0.704ZM0.234,-0.64C0.279,-0.621 0.324,-0.551 0.33,-0.539C0.374,-0.461 0.398,-0.375 0.398,-0.285C0.398,-0.245 0.395,-0.204 0.383,-0.166C0.373,-0.135 0.36,-0.106 0.337,-0.083C0.316,-0.061 0.283,-0.052 0.252,-0.052C0.232,-0.052 0.203,-0.065 0.184,-0.084C0.153,-0.115 0.135,-0.156 0.122,-0.199C0.106,-0.254 0.101,-0.313 0.101,-0.371C0.101,-0.452 0.129,-0.532 0.181,-0.595C0.197,-0.614 0.215,-0.628 0.234,-0.64Z" style="fill-rule:nonzero;"/>
            </g>
            <g transform="matrix(61.1605,0,0,61.1605,971.023,687.093)">
                <path d="M0.308,-0.712L0.092,-0.639L0.092,-0.612L0.175,-0.612C0.2,-0.612 0.22,-0.591 0.221,-0.566C0.222,-0.541 0.222,-0.468 0.222,-0.419C0.222,-0.279 0.219,-0.139 0.214,-0L0.226,0.005L0.31,-0.022C0.307,-0.098 0.307,-0.296 0.307,-0.432C0.307,-0.521 0.309,-0.611 0.314,-0.7L0.308,-0.712Z" style="fill-rule:nonzero;"/>
            </g>
            <g transform="matrix(35.6565,0,0,35.6565,1001.54,707.459)">
                <path d="M0.472,-0.08L0.467,-0.088L0.158,-0.088C0.153,-0.088 0.148,-0.089 0.146,-0.093C0.145,-0.095 0.146,-0.098 0.147,-0.099C0.197,-0.157 0.245,-0.215 0.29,-0.275C0.322,-0.317 0.353,-0.359 0.378,-0.405C0.404,-0.451 0.426,-0.5 0.426,-0.553C0.426,-0.594 0.414,-0.635 0.384,-0.664C0.355,-0.693 0.316,-0.708 0.275,-0.708C0.237,-0.708 0.201,-0.697 0.168,-0.679C0.128,-0.658 0.094,-0.628 0.064,-0.595L0.084,-0.576C0.108,-0.596 0.13,-0.611 0.158,-0.626C0.177,-0.636 0.199,-0.64 0.221,-0.64C0.25,-0.64 0.28,-0.629 0.3,-0.607C0.328,-0.578 0.334,-0.537 0.334,-0.508C0.334,-0.443 0.311,-0.382 0.276,-0.326C0.248,-0.28 0.213,-0.238 0.178,-0.197C0.125,-0.135 0.069,-0.076 0.012,-0.018L0.012,-0.002L0.449,-0.002L0.472,-0.08Z" style="fill-rule:nonzero;"/>
            </g>
        </g>
        <g transform="matrix(1,0,0,1,319.633,727.505)">
            <g transform="matrix(33.3333,0,0,33.3333,823.014,687.093)">
                <path d="M0.472,-0.08L0.467,-0.088L0.158,-0.088C0.153,-0.088 0.148,-0.089 0.146,-0.093C0.145,-0.095 0.146,-0.098 0.147,-0.099C0.197,-0.157 0.245,-0.215 0.29,-0.275C0.322,-0.317 0.353,-0.359 0.378,-0.405C0.404,-0.451 0.426,-0.5 0.426,-0.553C0.426,-0.594 0.414,-0.635 0.384,-0.664C0.355,-0.693 0.316,-0.708 0.275,-0.708C0.237,-0.708 0.201,-0.697 0.168,-0.679C0.128,-0.658 0.094,-0.628 0.064,-0.595L0.084,-0.576C0.108,-0.596 0.13,-0.611 0.158,-0.626C0.177,-0.636 0.199,-0.64 0.221,-0.64C0.25,-0.64 0.28,-0.629 0.3,-0.607C0.328,-0.578 0.334,-0.537 0.334,-0.508C0.334,-0.443 0.311,-0.382 0.276,-0.326C0.248,-0.28 0.213,-0.238 0.178,-0.197C0.125,-0.135 0.069,-0.076 0.012,-0.018L0.012,-0.002L0.449,-0.002L0.472,-0.08Z" style="fill-rule:nonzero;"/>
            </g>
            <g transform="matrix(33.3333,0,0,33.3333,850.748,687.093)">
                <path d="M0.716,-0.329L0.722,-0.369L0.061,-0.369L0.054,-0.329L0.716,-0.329ZM0.716,-0.132L0.722,-0.172L0.061,-0.172L0.054,-0.132L0.716,-0.132Z" style="fill-rule:nonzero;"/>
            </g>
            <g transform="matrix(33.3333,0,0,33.3333,887.048,687.093)">
                <path d="M0.308,-0.712L0.092,-0.639L0.092,-0.612L0.175,-0.612C0.2,-0.612 0.22,-0.591 0.221,-0.566C0.222,-0.541 0.222,-0.468 0.222,-0.419C0.222,-0.279 0.219,-0.139 0.214,-0L0.226,0.005L0.31,-0.022C0.307,-0.098 0.307,-0.296 0.307,-0.432C0.307,-0.521 0.309,-0.611 0.314,-0.7L0.308,-0.712Z" style="fill-rule:nonzero;"/>
            </g>
            <g transform="matrix(33.3333,0,0,33.3333,903.681,687.093)">
                <path d="M0.29,-0.704C0.246,-0.686 0.197,-0.662 0.164,-0.629C0.079,-0.544 0.034,-0.423 0.034,-0.303C0.034,-0.245 0.039,-0.192 0.055,-0.136C0.066,-0.094 0.087,-0.053 0.118,-0.022C0.142,0.001 0.174,0.014 0.207,0.014C0.262,0.014 0.315,-0.008 0.354,-0.046C0.39,-0.083 0.416,-0.129 0.432,-0.177C0.452,-0.234 0.46,-0.295 0.46,-0.356C0.46,-0.434 0.445,-0.513 0.405,-0.582C0.376,-0.632 0.34,-0.672 0.29,-0.704ZM0.234,-0.64C0.279,-0.621 0.324,-0.551 0.33,-0.539C0.374,-0.461 0.398,-0.375 0.398,-0.285C0.398,-0.245 0.395,-0.204 0.383,-0.166C0.373,-0.135 0.36,-0.106 0.337,-0.083C0.316,-0.061 0.283,-0.052 0.252,-0.052C0.232,-0.052 0.203,-0.065 0.184,-0.084C0.153,-0.115 0.135,-0.156 0.122,-0.199C0.106,-0.254 0.101,-0.313 0.101,-0.371C0.101,-0.452 0.129,-0.532 0.181,-0.595C0.197,-0.614 0.215,-0.628 0.234,-0.64Z" style="fill-rule:nonzero;"/>
            </g>
            <g transform="matrix(19.4333,0,0,19.4333,920.314,698.193)">
                <path d="M0.472,-0.08L0.467,-0.088L0.158,-0.088C0.153,-0.088 0.148,-0.089 0.146,-0.093C0.145,-0.095 0.146,-0.098 0.147,-0.099C0.197,-0.157 0.245,-0.215 0.29,-0.275C0.322,-0.317 0.353,-0.359 0.378,-0.405C0.404,-0.451 0.426,-0.5 0.426,-0.553C0.426,-0.594 0.414,-0.635 0.384,-0.664C0.355,-0.693 0.316,-0.708 0.275,-0.708C0.237,-0.708 0.201,-0.697 0.168,-0.679C0.128,-0.658 0.094,-0.628 0.064,-0.595L0.084,-0.576C0.108,-0.596 0.13,-0.611 0.158,-0.626C0.177,-0.636 0.199,-0.64 0.221,-0.64C0.25,-0.64 0.28,-0.629 0.3,-0.607C0.328,-0.578 0.334,-0.537 0.334,-0.508C0.334,-0.443 0.311,-0.382 0.276,-0.326C0.248,-0.28 0.213,-0.238 0.178,-0.197C0.125,-0.135 0.069,-0.076 0.012,-0.018L0.012,-0.002L0.449,-0.002L0.472,-0.08Z" style="fill-rule:nonzero;"/>
            </g>
        </g>
        <g transform="matrix(1,0,0,1,255.607,709.85)">
            <g transform="matrix(29.15,0,0,29.15,823.014,703.743)">
                <path d="M0.472,-0.08L0.467,-0.088L0.158,-0.088C0.153,-0.088 0.148,-0.089 0.146,-0.093C0.145,-0.095 0.146,-0.098 0.147,-0.099C0.197,-0.157 0.245,-0.215 0.29,-0.275C0.322,-0.317 0.353,-0.359 0.378,-0.405C0.404,-0.451 0.426,-0.5 0.426,-0.553C0.426,-0.594 0.414,-0.635 0.384,-0.664C0.355,-0.693 0.316,-0.708 0.275,-0.708C0.237,-0.708 0.201,-0.697 0.168,-0.679C0.128,-0.658 0.094,-0.628 0.064,-0.595L0.084,-0.576C0.108,-0.596 0.13,-0.611 0.158,-0.626C0.177,-0.636 0.199,-0.64 0.221,-0.64C0.25,-0.64 0.28,-0.629 0.3,-0.607C0.328,-0.578 0.334,-0.537 0.334,-0.508C0.334,-0.443 0.311,-0.382 0.276,-0.326C0.248,-0.28 0.213,-0.238 0.178,-0.197C0.125,-0.135 0.069,-0.076 0.012,-0.018L0.012,-0.002L0.449,-0.002L0.472,-0.08Z" style="fill-rule:nonzero;"/>
            </g>
        </g>
        <g transform="matrix(1,0,0,1,-7.64297,-7.64297)">
            <circle cx="1047.01" cy="1330.48" r="7.643" style="fill:white;fill-opacity:0;stroke:black;stroke-width:4.17px;"/>
        </g>
        <g transform="matrix(1,0,0,1,-54.8871,39.6011)">
            <circle cx="1047.01" cy="1330.48" r="7.643" style="fill:white;fill-opacity:0;stroke:black;stroke-width:4.17px;"/>
        </g>
        <path d="M1033.46,1328.74L998.031,1364.17" style="fill:none;stroke:black;stroke-width:4.17px;"/>
        <g transform="matrix(-1,0,0,1,2133.63,38.7324)">
            <circle cx="1047.01" cy="1330.48" r="7.643" style="fill:white;fill-opacity:0;stroke:black;stroke-width:4.17px;"/>
        </g>
        <g transform="matrix(-1,0,0,1,2078.74,-0.868731)">
            <path d="M1033.46,1328.74L998.031,1364.17" style="fill:none;stroke:black;stroke-width:4.17px;"/>
        </g>
        <g transform="matrix(1,0,0,1,38.9537,-13.0224)">
            <g transform="matrix(24.2917,0,0,24.2917,1240.47,1332.4)">
                <path d="M0.09,-0.2C0.09,-0.126 0.089,-0.054 0.081,-0L0.083,0.003C0.095,0.001 0.118,-0 0.13,-0C0.142,-0 0.165,0.001 0.177,0.003L0.179,-0C0.171,-0.057 0.17,-0.125 0.17,-0.2L0.17,-0.5C0.17,-0.575 0.174,-0.625 0.179,-0.688C0.179,-0.695 0.176,-0.698 0.17,-0.698C0.145,-0.688 0.124,-0.681 0.083,-0.678L0.081,-0.675C0.089,-0.632 0.09,-0.558 0.09,-0.482L0.09,-0.2Z" style="fill-rule:nonzero;"/>
            </g>
            <g transform="matrix(24.2917,0,0,24.2917,1246.59,1332.4)">
                <path d="M0.125,-0.273C0.142,-0.377 0.208,-0.399 0.239,-0.399C0.279,-0.399 0.323,-0.362 0.323,-0.287C0.323,-0.278 0.319,-0.273 0.309,-0.273L0.125,-0.273ZM0.392,-0.104C0.357,-0.066 0.31,-0.049 0.255,-0.049C0.221,-0.049 0.174,-0.062 0.146,-0.106C0.128,-0.134 0.122,-0.175 0.122,-0.233L0.394,-0.233C0.405,-0.233 0.412,-0.239 0.412,-0.25C0.412,-0.334 0.371,-0.439 0.239,-0.439C0.136,-0.439 0.034,-0.356 0.034,-0.209C0.034,-0.152 0.046,-0.096 0.079,-0.056C0.113,-0.015 0.171,0.01 0.238,0.01C0.31,0.01 0.374,-0.027 0.412,-0.079L0.392,-0.104Z" style="fill-rule:nonzero;"/>
            </g>
            <g transform="matrix(24.2917,0,0,24.2917,1257.59,1332.4)">
                <path d="M0.099,-0.385L0.099,-0.2C0.099,-0.126 0.098,-0.054 0.089,-0L0.09,0.003C0.09,0.003 0.104,-0 0.139,-0C0.173,-0 0.187,0.003 0.187,0.003L0.189,-0C0.181,-0.057 0.179,-0.125 0.179,-0.2L0.179,-0.385L0.391,-0.385L0.391,-0.231C0.391,-0.171 0.388,-0.099 0.388,-0.069C0.388,-0.022 0.42,0.01 0.466,0.01C0.508,0.01 0.553,-0.001 0.592,-0.037L0.58,-0.062C0.553,-0.046 0.527,-0.044 0.501,-0.044C0.474,-0.044 0.468,-0.068 0.468,-0.109C0.468,-0.139 0.471,-0.182 0.471,-0.242L0.471,-0.385L0.509,-0.385C0.533,-0.385 0.568,-0.384 0.581,-0.383C0.584,-0.399 0.587,-0.409 0.593,-0.424L0.588,-0.431C0.574,-0.43 0.541,-0.429 0.518,-0.429L0.471,-0.429C0.471,-0.504 0.472,-0.51 0.476,-0.568C0.476,-0.575 0.473,-0.578 0.467,-0.578C0.442,-0.568 0.427,-0.556 0.386,-0.553L0.384,-0.55C0.391,-0.508 0.391,-0.487 0.391,-0.429L0.179,-0.429L0.179,-0.439C0.179,-0.464 0.174,-0.517 0.174,-0.535C0.174,-0.59 0.2,-0.638 0.257,-0.638C0.286,-0.638 0.304,-0.623 0.315,-0.603L0.326,-0.604C0.333,-0.631 0.343,-0.667 0.354,-0.686L0.353,-0.689C0.345,-0.694 0.327,-0.698 0.308,-0.698C0.245,-0.698 0.19,-0.671 0.154,-0.622C0.118,-0.573 0.099,-0.547 0.099,-0.469L0.099,-0.429C0.077,-0.429 0.054,-0.429 0.041,-0.431C0.034,-0.415 0.029,-0.405 0.019,-0.39L0.024,-0.383C0.042,-0.384 0.075,-0.385 0.098,-0.385L0.099,-0.385Z" style="fill-rule:nonzero;"/>
            </g>
            <g transform="matrix(24.2917,0,0,24.2917,1279.11,1332.4)">
                <path d="M0.095,-0.429C0.075,-0.429 0.053,-0.429 0.041,-0.431C0.034,-0.415 0.029,-0.405 0.019,-0.39L0.024,-0.383C0.041,-0.384 0.072,-0.385 0.095,-0.385L0.095,-0.248C0.095,-0.188 0.092,-0.116 0.092,-0.086C0.092,-0.021 0.134,0.01 0.18,0.01C0.222,0.01 0.254,-0 0.296,-0.027L0.284,-0.052C0.253,-0.041 0.23,-0.04 0.205,-0.044C0.181,-0.048 0.172,-0.072 0.172,-0.126C0.172,-0.156 0.175,-0.199 0.175,-0.259L0.175,-0.385L0.213,-0.385C0.237,-0.385 0.272,-0.384 0.285,-0.383C0.288,-0.399 0.291,-0.409 0.297,-0.424L0.292,-0.431C0.274,-0.43 0.245,-0.429 0.222,-0.429L0.175,-0.429C0.175,-0.504 0.176,-0.517 0.18,-0.575C0.18,-0.582 0.177,-0.585 0.171,-0.585C0.146,-0.575 0.134,-0.564 0.101,-0.56L0.099,-0.557C0.097,-0.522 0.095,-0.487 0.095,-0.429Z" style="fill-rule:nonzero;"/>
            </g>
            <g transform="matrix(24.2917,0,0,24.2917,1287.37,1332.4)">
                <path d="M0.365,-0.092L0.369,-0.089L0.374,-0C0.374,0.002 0.375,0.003 0.378,0.003C0.391,0.001 0.403,-0 0.418,-0C0.43,-0 0.449,0.001 0.462,0.003L0.464,-0C0.456,-0.043 0.447,-0.117 0.447,-0.192L0.447,-0.249C0.447,-0.324 0.448,-0.376 0.456,-0.429L0.454,-0.432C0.442,-0.43 0.419,-0.429 0.407,-0.429C0.395,-0.429 0.372,-0.43 0.36,-0.432L0.358,-0.429C0.366,-0.372 0.367,-0.325 0.367,-0.249L0.367,-0.151C0.337,-0.1 0.279,-0.046 0.23,-0.046C0.196,-0.046 0.163,-0.057 0.163,-0.15L0.163,-0.249C0.163,-0.324 0.164,-0.376 0.172,-0.429L0.17,-0.432C0.158,-0.43 0.135,-0.429 0.123,-0.429C0.111,-0.429 0.088,-0.43 0.076,-0.432L0.074,-0.429C0.082,-0.372 0.083,-0.325 0.083,-0.249L0.083,-0.129C0.083,-0.06 0.115,0.01 0.214,0.01C0.276,0.01 0.332,-0.041 0.365,-0.092Z" style="fill-rule:nonzero;"/>
            </g>
            <g transform="matrix(24.2917,0,0,24.2917,1300.42,1332.4)">
                <path d="M0.167,-0.334L0.167,-0.425C0.167,-0.433 0.166,-0.435 0.161,-0.435C0.139,-0.431 0.103,-0.43 0.08,-0.432L0.078,-0.429C0.085,-0.386 0.087,-0.31 0.087,-0.235L0.087,-0.18C0.087,-0.105 0.086,-0.054 0.078,-0L0.08,0.003C0.092,0.001 0.115,-0 0.127,-0C0.139,-0 0.162,0.001 0.174,0.003L0.176,-0C0.169,-0.057 0.167,-0.104 0.167,-0.18L0.167,-0.232C0.167,-0.274 0.18,-0.298 0.201,-0.331C0.216,-0.353 0.238,-0.366 0.257,-0.366C0.277,-0.366 0.296,-0.364 0.309,-0.352L0.317,-0.354L0.337,-0.428L0.333,-0.432C0.316,-0.437 0.315,-0.439 0.297,-0.439C0.243,-0.439 0.214,-0.408 0.17,-0.332L0.167,-0.334Z" style="fill-rule:nonzero;"/>
            </g>
            <g transform="matrix(24.2917,0,0,24.2917,1309.04,1332.4)">
                <path d="M0.46,-0.18C0.46,-0.212 0.462,-0.249 0.462,-0.281C0.462,-0.385 0.428,-0.439 0.338,-0.439C0.3,-0.439 0.229,-0.424 0.165,-0.349L0.163,-0.352L0.163,-0.425C0.163,-0.433 0.162,-0.435 0.157,-0.435C0.135,-0.431 0.099,-0.43 0.076,-0.432L0.074,-0.429C0.081,-0.386 0.083,-0.31 0.083,-0.235L0.083,-0.18C0.083,-0.105 0.082,-0.054 0.074,-0L0.076,0.003C0.088,0.001 0.111,-0 0.123,-0C0.135,-0 0.158,0.001 0.17,0.003L0.172,-0C0.164,-0.057 0.163,-0.104 0.163,-0.18L0.163,-0.297C0.214,-0.357 0.272,-0.379 0.308,-0.379C0.359,-0.379 0.38,-0.359 0.38,-0.278L0.38,-0.18C0.38,-0.105 0.378,-0.054 0.371,-0L0.373,0.003C0.385,0.001 0.408,-0 0.42,-0C0.432,-0 0.455,0.001 0.467,0.003L0.469,-0C0.461,-0.057 0.46,-0.104 0.46,-0.18Z" style="fill-rule:nonzero;"/>
            </g>
            <g transform="matrix(24.2917,0,0,24.2917,1328.21,1332.4)">
                <path d="M0.099,-0.429C0.077,-0.429 0.054,-0.429 0.041,-0.431C0.034,-0.415 0.029,-0.405 0.019,-0.39L0.024,-0.383C0.042,-0.384 0.075,-0.385 0.098,-0.385L0.099,-0.385L0.099,-0.199C0.099,-0.124 0.098,-0.054 0.089,-0L0.091,0.003C0.103,0.001 0.127,-0 0.139,-0C0.151,-0 0.175,0.001 0.187,0.003L0.189,-0C0.181,-0.057 0.179,-0.124 0.179,-0.199L0.179,-0.385L0.213,-0.385C0.237,-0.385 0.272,-0.384 0.285,-0.383C0.288,-0.399 0.291,-0.409 0.297,-0.424L0.292,-0.431C0.275,-0.43 0.245,-0.429 0.222,-0.429L0.179,-0.429L0.179,-0.438C0.179,-0.474 0.174,-0.526 0.174,-0.544C0.174,-0.599 0.21,-0.637 0.267,-0.637C0.293,-0.637 0.314,-0.622 0.325,-0.602L0.336,-0.603C0.343,-0.63 0.354,-0.664 0.364,-0.685L0.363,-0.688C0.355,-0.693 0.337,-0.698 0.318,-0.698C0.255,-0.698 0.192,-0.669 0.154,-0.621C0.116,-0.573 0.099,-0.526 0.099,-0.468L0.099,-0.429Z" style="fill-rule:nonzero;"/>
            </g>
            <g transform="matrix(24.2917,0,0,24.2917,1335.83,1332.4)">
                <path d="M0.167,-0.334L0.167,-0.425C0.167,-0.433 0.166,-0.435 0.161,-0.435C0.139,-0.431 0.103,-0.43 0.08,-0.432L0.078,-0.429C0.085,-0.386 0.087,-0.31 0.087,-0.235L0.087,-0.18C0.087,-0.105 0.086,-0.054 0.078,-0L0.08,0.003C0.092,0.001 0.115,-0 0.127,-0C0.139,-0 0.162,0.001 0.174,0.003L0.176,-0C0.169,-0.057 0.167,-0.104 0.167,-0.18L0.167,-0.232C0.167,-0.274 0.18,-0.298 0.201,-0.331C0.216,-0.353 0.238,-0.366 0.257,-0.366C0.277,-0.366 0.296,-0.364 0.309,-0.352L0.317,-0.354L0.337,-0.428L0.333,-0.432C0.316,-0.437 0.315,-0.439 0.297,-0.439C0.243,-0.439 0.214,-0.408 0.17,-0.332L0.167,-0.334Z" style="fill-rule:nonzero;"/>
            </g>
            <g transform="matrix(24.2917,0,0,24.2917,1344.13,1332.4)">
                <path d="M0.038,-0.205C0.038,-0.085 0.117,0.01 0.25,0.01C0.382,0.01 0.462,-0.083 0.462,-0.214C0.462,-0.35 0.389,-0.439 0.254,-0.439C0.123,-0.439 0.038,-0.347 0.038,-0.205ZM0.247,-0.399C0.353,-0.399 0.374,-0.317 0.374,-0.196C0.374,-0.101 0.326,-0.03 0.259,-0.03C0.153,-0.03 0.126,-0.145 0.126,-0.222C0.126,-0.309 0.153,-0.399 0.247,-0.399Z" style="fill-rule:nonzero;"/>
            </g>
            <g transform="matrix(24.2917,0,0,24.2917,1356.27,1332.4)">
                <path d="M0.162,-0.352L0.162,-0.425C0.162,-0.433 0.161,-0.435 0.156,-0.435C0.134,-0.431 0.098,-0.43 0.075,-0.432L0.073,-0.429C0.08,-0.386 0.082,-0.31 0.082,-0.235L0.082,-0.18C0.082,-0.105 0.081,-0.054 0.073,-0L0.075,0.003C0.087,0.001 0.11,-0 0.122,-0C0.134,-0 0.157,0.001 0.169,0.003L0.171,-0C0.163,-0.057 0.162,-0.104 0.162,-0.18L0.162,-0.301C0.209,-0.349 0.265,-0.379 0.3,-0.379C0.338,-0.379 0.366,-0.357 0.366,-0.29L0.366,-0.18C0.366,-0.105 0.365,-0.054 0.357,-0L0.359,0.003C0.371,0.001 0.394,-0 0.406,-0C0.418,-0 0.441,0.001 0.453,0.003L0.455,-0C0.447,-0.057 0.446,-0.104 0.446,-0.18L0.446,-0.281C0.446,-0.295 0.446,-0.307 0.445,-0.319C0.493,-0.372 0.533,-0.379 0.572,-0.379C0.626,-0.379 0.652,-0.357 0.652,-0.29L0.652,-0.18C0.652,-0.105 0.651,-0.054 0.643,-0L0.645,0.003C0.657,0.001 0.68,-0 0.692,-0C0.704,-0 0.727,0.001 0.739,0.003L0.741,-0C0.733,-0.057 0.732,-0.104 0.732,-0.18L0.732,-0.28C0.732,-0.369 0.716,-0.439 0.608,-0.439C0.554,-0.439 0.496,-0.42 0.439,-0.36C0.43,-0.408 0.389,-0.439 0.333,-0.439C0.271,-0.439 0.212,-0.399 0.165,-0.349L0.162,-0.352Z" style="fill-rule:nonzero;"/>
            </g>
            <g transform="matrix(24.2917,0,0,24.2917,1381.95,1332.4)">
                <path d="M0.095,-0.429C0.075,-0.429 0.053,-0.429 0.041,-0.431C0.034,-0.415 0.029,-0.405 0.019,-0.39L0.024,-0.383C0.041,-0.384 0.072,-0.385 0.095,-0.385L0.095,-0.248C0.095,-0.188 0.092,-0.116 0.092,-0.086C0.092,-0.021 0.134,0.01 0.18,0.01C0.222,0.01 0.254,-0 0.296,-0.027L0.284,-0.052C0.253,-0.041 0.23,-0.04 0.205,-0.044C0.181,-0.048 0.172,-0.072 0.172,-0.126C0.172,-0.156 0.175,-0.199 0.175,-0.259L0.175,-0.385L0.213,-0.385C0.237,-0.385 0.272,-0.384 0.285,-0.383C0.288,-0.399 0.291,-0.409 0.297,-0.424L0.292,-0.431C0.274,-0.43 0.245,-0.429 0.222,-0.429L0.175,-0.429C0.175,-0.504 0.176,-0.517 0.18,-0.575C0.18,-0.582 0.177,-0.585 0.171,-0.585C0.146,-0.575 0.134,-0.564 0.101,-0.56L0.099,-0.557C0.097,-0.522 0.095,-0.487 0.095,-0.429Z" style="fill-rule:nonzero;"/>
            </g>
            <g transform="matrix(24.2917,0,0,24.2917,1390.21,1332.4)">
                <path d="M0.17,-0.352L0.17,-0.501C0.17,-0.575 0.174,-0.627 0.179,-0.688C0.179,-0.695 0.176,-0.698 0.17,-0.698C0.145,-0.688 0.124,-0.681 0.083,-0.678L0.081,-0.675C0.089,-0.632 0.09,-0.557 0.09,-0.481L0.09,-0.18C0.09,-0.106 0.089,-0.056 0.081,-0L0.083,0.003C0.095,0.001 0.118,-0 0.13,-0C0.142,-0 0.165,0.001 0.177,0.003L0.179,-0C0.172,-0.057 0.17,-0.104 0.17,-0.18L0.17,-0.297C0.221,-0.357 0.28,-0.379 0.315,-0.379C0.366,-0.379 0.387,-0.359 0.387,-0.278L0.387,-0.18C0.387,-0.105 0.386,-0.054 0.378,-0L0.38,0.003C0.392,0.001 0.415,-0 0.427,-0C0.439,-0 0.462,0.001 0.474,0.003L0.476,-0C0.468,-0.057 0.467,-0.104 0.467,-0.18C0.467,-0.212 0.469,-0.249 0.469,-0.281C0.469,-0.385 0.435,-0.439 0.345,-0.439C0.307,-0.439 0.236,-0.424 0.172,-0.349L0.17,-0.352Z" style="fill-rule:nonzero;"/>
            </g>
            <g transform="matrix(24.2917,0,0,24.2917,1403.54,1332.4)">
                <path d="M0.125,-0.273C0.142,-0.377 0.208,-0.399 0.239,-0.399C0.279,-0.399 0.323,-0.362 0.323,-0.287C0.323,-0.278 0.319,-0.273 0.309,-0.273L0.125,-0.273ZM0.392,-0.104C0.357,-0.066 0.31,-0.049 0.255,-0.049C0.221,-0.049 0.174,-0.062 0.146,-0.106C0.128,-0.134 0.122,-0.175 0.122,-0.233L0.394,-0.233C0.405,-0.233 0.412,-0.239 0.412,-0.25C0.412,-0.334 0.371,-0.439 0.239,-0.439C0.136,-0.439 0.034,-0.356 0.034,-0.209C0.034,-0.152 0.046,-0.096 0.079,-0.056C0.113,-0.015 0.171,0.01 0.238,0.01C0.31,0.01 0.374,-0.027 0.412,-0.079L0.392,-0.104Z" style="fill-rule:nonzero;"/>
            </g>
            <g transform="matrix(24.2917,0,0,24.2917,1420.62,1332.4)">
                <path d="M0.167,-0.334L0.167,-0.425C0.167,-0.433 0.166,-0.435 0.161,-0.435C0.139,-0.431 0.103,-0.43 0.08,-0.432L0.078,-0.429C0.085,-0.386 0.087,-0.31 0.087,-0.235L0.087,-0.18C0.087,-0.105 0.086,-0.054 0.078,-0L0.08,0.003C0.092,0.001 0.115,-0 0.127,-0C0.139,-0 0.162,0.001 0.174,0.003L0.176,-0C0.169,-0.057 0.167,-0.104 0.167,-0.18L0.167,-0.232C0.167,-0.274 0.18,-0.298 0.201,-0.331C0.216,-0.353 0.238,-0.366 0.257,-0.366C0.277,-0.366 0.296,-0.364 0.309,-0.352L0.317,-0.354L0.337,-0.428L0.333,-0.432C0.316,-0.437 0.315,-0.439 0.297,-0.439C0.243,-0.439 0.214,-0.408 0.17,-0.332L0.167,-0.334Z" style="fill-rule:nonzero;"/>
            </g>
            <g transform="matrix(24.2917,0,0,24.2917,1428.91,1332.4)">
                <path d="M0.038,-0.205C0.038,-0.085 0.117,0.01 0.25,0.01C0.382,0.01 0.462,-0.083 0.462,-0.214C0.462,-0.35 0.389,-0.439 0.254,-0.439C0.123,-0.439 0.038,-0.347 0.038,-0.205ZM0.247,-0.399C0.353,-0.399 0.374,-0.317 0.374,-0.196C0.374,-0.101 0.326,-0.03 0.259,-0.03C0.153,-0.03 0.126,-0.145 0.126,-0.222C0.126,-0.309 0.153,-0.399 0.247,-0.399Z" style="fill-rule:nonzero;"/>
            </g>
            <g transform="matrix(24.2917,0,0,24.2917,1441.35,1332.4)">
                <path d="M0.038,-0.205C0.038,-0.085 0.117,0.01 0.25,0.01C0.382,0.01 0.462,-0.083 0.462,-0.214C0.462,-0.35 0.389,-0.439 0.254,-0.439C0.123,-0.439 0.038,-0.347 0.038,-0.205ZM0.247,-0.399C0.353,-0.399 0.374,-0.317 0.374,-0.196C0.374,-0.101 0.326,-0.03 0.259,-0.03C0.153,-0.03 0.126,-0.145 0.126,-0.222C0.126,-0.309 0.153,-0.399 0.247,-0.399Z" style="fill-rule:nonzero;"/>
            </g>
            <g transform="matrix(24.2917,0,0,24.2917,1453.49,1332.4)">
                <path d="M0.095,-0.429C0.075,-0.429 0.053,-0.429 0.041,-0.431C0.034,-0.415 0.029,-0.405 0.019,-0.39L0.024,-0.383C0.041,-0.384 0.072,-0.385 0.095,-0.385L0.095,-0.248C0.095,-0.188 0.092,-0.116 0.092,-0.086C0.092,-0.021 0.134,0.01 0.18,0.01C0.222,0.01 0.254,-0 0.296,-0.027L0.284,-0.052C0.253,-0.041 0.23,-0.04 0.205,-0.044C0.181,-0.048 0.172,-0.072 0.172,-0.126C0.172,-0.156 0.175,-0.199 0.175,-0.259L0.175,-0.385L0.213,-0.385C0.237,-0.385 0.272,-0.384 0.285,-0.383C0.288,-0.399 0.291,-0.409 0.297,-0.424L0.292,-0.431C0.274,-0.43 0.245,-0.429 0.222,-0.429L0.175,-0.429C0.175,-0.504 0.176,-0.517 0.18,-0.575C0.18,-0.582 0.177,-0.585 0.171,-0.585C0.146,-0.575 0.134,-0.564 0.101,-0.56L0.099,-0.557C0.097,-0.522 0.095,-0.487 0.095,-0.429Z" style="fill-rule:nonzero;"/>
            </g>
        </g>
        <g transform="matrix(1,0,0,1,38.7969,78.254)">
            <g transform="matrix(24.2917,0,0,24.2917,1240.47,1332.4)">
                <path d="M0.167,-0.334L0.167,-0.425C0.167,-0.433 0.166,-0.435 0.161,-0.435C0.139,-0.431 0.103,-0.43 0.08,-0.432L0.078,-0.429C0.085,-0.386 0.087,-0.31 0.087,-0.235L0.087,-0.18C0.087,-0.105 0.086,-0.054 0.078,-0L0.08,0.003C0.092,0.001 0.115,-0 0.127,-0C0.139,-0 0.162,0.001 0.174,0.003L0.176,-0C0.169,-0.057 0.167,-0.104 0.167,-0.18L0.167,-0.232C0.167,-0.274 0.18,-0.298 0.201,-0.331C0.216,-0.353 0.238,-0.366 0.257,-0.366C0.277,-0.366 0.296,-0.364 0.309,-0.352L0.317,-0.354L0.337,-0.428L0.333,-0.432C0.316,-0.437 0.315,-0.439 0.297,-0.439C0.243,-0.439 0.214,-0.408 0.17,-0.332L0.167,-0.334Z" style="fill-rule:nonzero;"/>
            </g>
            <g transform="matrix(24.2917,0,0,24.2917,1249.09,1332.4)">
                <path d="M0.08,-0.597C0.08,-0.57 0.104,-0.546 0.131,-0.546C0.158,-0.546 0.182,-0.57 0.182,-0.597C0.182,-0.624 0.158,-0.648 0.131,-0.648C0.104,-0.648 0.08,-0.624 0.08,-0.597ZM0.09,-0.235L0.09,-0.18C0.09,-0.105 0.088,-0.054 0.081,-0L0.083,0.003C0.095,0.001 0.118,-0 0.13,-0C0.142,-0 0.165,0.001 0.177,0.003L0.179,-0C0.172,-0.057 0.17,-0.104 0.17,-0.18L0.17,-0.251C0.17,-0.326 0.173,-0.362 0.179,-0.423C0.179,-0.432 0.178,-0.433 0.17,-0.433C0.147,-0.431 0.104,-0.43 0.083,-0.432L0.081,-0.429C0.087,-0.386 0.09,-0.31 0.09,-0.235Z" style="fill-rule:nonzero;"/>
            </g>
            <g transform="matrix(24.2917,0,0,24.2917,1255.41,1332.4)">
                <path d="M0.101,0.104C0.101,0.071 0.131,0.034 0.166,0.015C0.196,0.015 0.241,0.012 0.255,0.012C0.303,0.012 0.334,0.013 0.361,0.029C0.39,0.046 0.4,0.075 0.4,0.101C0.4,0.162 0.318,0.194 0.232,0.194C0.167,0.194 0.101,0.172 0.101,0.104ZM0.39,-0.285C0.39,-0.354 0.363,-0.386 0.34,-0.401C0.37,-0.399 0.403,-0.395 0.444,-0.391L0.447,-0.394C0.445,-0.403 0.444,-0.411 0.444,-0.42C0.444,-0.429 0.445,-0.437 0.447,-0.446L0.444,-0.449C0.396,-0.445 0.361,-0.434 0.286,-0.43C0.268,-0.436 0.247,-0.439 0.225,-0.439C0.146,-0.439 0.055,-0.386 0.055,-0.287C0.055,-0.212 0.098,-0.178 0.126,-0.162C0.097,-0.142 0.062,-0.113 0.062,-0.079C0.062,-0.038 0.086,-0.002 0.14,0.007C0.112,0.019 0.081,0.038 0.055,0.058C0.043,0.077 0.032,0.105 0.032,0.124C0.032,0.203 0.118,0.237 0.224,0.237C0.38,0.237 0.473,0.172 0.473,0.078C0.473,0.034 0.459,0.003 0.431,-0.021C0.394,-0.053 0.325,-0.054 0.29,-0.054C0.273,-0.054 0.233,-0.052 0.21,-0.049C0.196,-0.048 0.186,-0.047 0.181,-0.047C0.153,-0.047 0.123,-0.051 0.123,-0.094C0.123,-0.114 0.128,-0.131 0.15,-0.15C0.163,-0.143 0.194,-0.136 0.224,-0.136C0.328,-0.136 0.39,-0.206 0.39,-0.285ZM0.312,-0.284C0.312,-0.223 0.287,-0.176 0.227,-0.176C0.155,-0.176 0.133,-0.223 0.133,-0.292C0.133,-0.358 0.163,-0.401 0.221,-0.401C0.286,-0.401 0.312,-0.355 0.312,-0.284Z" style="fill-rule:nonzero;"/>
            </g>
            <g transform="matrix(24.2917,0,0,24.2917,1267.53,1332.4)">
                <path d="M0.17,-0.352L0.17,-0.501C0.17,-0.575 0.174,-0.627 0.179,-0.688C0.179,-0.695 0.176,-0.698 0.17,-0.698C0.145,-0.688 0.124,-0.681 0.083,-0.678L0.081,-0.675C0.089,-0.632 0.09,-0.557 0.09,-0.481L0.09,-0.18C0.09,-0.106 0.089,-0.056 0.081,-0L0.083,0.003C0.095,0.001 0.118,-0 0.13,-0C0.142,-0 0.165,0.001 0.177,0.003L0.179,-0C0.172,-0.057 0.17,-0.104 0.17,-0.18L0.17,-0.297C0.221,-0.357 0.28,-0.379 0.315,-0.379C0.366,-0.379 0.387,-0.359 0.387,-0.278L0.387,-0.18C0.387,-0.105 0.386,-0.054 0.378,-0L0.38,0.003C0.392,0.001 0.415,-0 0.427,-0C0.439,-0 0.462,0.001 0.474,0.003L0.476,-0C0.468,-0.057 0.467,-0.104 0.467,-0.18C0.467,-0.212 0.469,-0.249 0.469,-0.281C0.469,-0.385 0.435,-0.439 0.345,-0.439C0.307,-0.439 0.236,-0.424 0.172,-0.349L0.17,-0.352Z" style="fill-rule:nonzero;"/>
            </g>
            <g transform="matrix(24.2917,0,0,24.2917,1280.86,1332.4)">
                <path d="M0.095,-0.429C0.075,-0.429 0.053,-0.429 0.041,-0.431C0.034,-0.415 0.029,-0.405 0.019,-0.39L0.024,-0.383C0.041,-0.384 0.072,-0.385 0.095,-0.385L0.095,-0.248C0.095,-0.188 0.092,-0.116 0.092,-0.086C0.092,-0.021 0.134,0.01 0.18,0.01C0.222,0.01 0.254,-0 0.296,-0.027L0.284,-0.052C0.253,-0.041 0.23,-0.04 0.205,-0.044C0.181,-0.048 0.172,-0.072 0.172,-0.126C0.172,-0.156 0.175,-0.199 0.175,-0.259L0.175,-0.385L0.213,-0.385C0.237,-0.385 0.272,-0.384 0.285,-0.383C0.288,-0.399 0.291,-0.409 0.297,-0.424L0.292,-0.431C0.274,-0.43 0.245,-0.429 0.222,-0.429L0.175,-0.429C0.175,-0.504 0.176,-0.517 0.18,-0.575C0.18,-0.582 0.177,-0.585 0.171,-0.585C0.146,-0.575 0.134,-0.564 0.101,-0.56L0.099,-0.557C0.097,-0.522 0.095,-0.487 0.095,-0.429Z" style="fill-rule:nonzero;"/>
            </g>
            <g transform="matrix(24.2917,0,0,24.2917,1295.19,1332.4)">
                <path d="M0.095,-0.429C0.075,-0.429 0.053,-0.429 0.041,-0.431C0.034,-0.415 0.029,-0.405 0.019,-0.39L0.024,-0.383C0.041,-0.384 0.072,-0.385 0.095,-0.385L0.095,-0.248C0.095,-0.188 0.092,-0.116 0.092,-0.086C0.092,-0.021 0.134,0.01 0.18,0.01C0.222,0.01 0.254,-0 0.296,-0.027L0.284,-0.052C0.253,-0.041 0.23,-0.04 0.205,-0.044C0.181,-0.048 0.172,-0.072 0.172,-0.126C0.172,-0.156 0.175,-0.199 0.175,-0.259L0.175,-0.385L0.213,-0.385C0.237,-0.385 0.272,-0.384 0.285,-0.383C0.288,-0.399 0.291,-0.409 0.297,-0.424L0.292,-0.431C0.274,-0.43 0.245,-0.429 0.222,-0.429L0.175,-0.429C0.175,-0.504 0.176,-0.517 0.18,-0.575C0.18,-0.582 0.177,-0.585 0.171,-0.585C0.146,-0.575 0.134,-0.564 0.101,-0.56L0.099,-0.557C0.097,-0.522 0.095,-0.487 0.095,-0.429Z" style="fill-rule:nonzero;"/>
            </g>
            <g transform="matrix(24.2917,0,0,24.2917,1303.45,1332.4)">
                <path d="M0.365,-0.092L0.369,-0.089L0.374,-0C0.374,0.002 0.375,0.003 0.378,0.003C0.391,0.001 0.403,-0 0.418,-0C0.43,-0 0.449,0.001 0.462,0.003L0.464,-0C0.456,-0.043 0.447,-0.117 0.447,-0.192L0.447,-0.249C0.447,-0.324 0.448,-0.376 0.456,-0.429L0.454,-0.432C0.442,-0.43 0.419,-0.429 0.407,-0.429C0.395,-0.429 0.372,-0.43 0.36,-0.432L0.358,-0.429C0.366,-0.372 0.367,-0.325 0.367,-0.249L0.367,-0.151C0.337,-0.1 0.279,-0.046 0.23,-0.046C0.196,-0.046 0.163,-0.057 0.163,-0.15L0.163,-0.249C0.163,-0.324 0.164,-0.376 0.172,-0.429L0.17,-0.432C0.158,-0.43 0.135,-0.429 0.123,-0.429C0.111,-0.429 0.088,-0.43 0.076,-0.432L0.074,-0.429C0.082,-0.372 0.083,-0.325 0.083,-0.249L0.083,-0.129C0.083,-0.06 0.115,0.01 0.214,0.01C0.276,0.01 0.332,-0.041 0.365,-0.092Z" style="fill-rule:nonzero;"/>
            </g>
            <g transform="matrix(24.2917,0,0,24.2917,1316.5,1332.4)">
                <path d="M0.167,-0.334L0.167,-0.425C0.167,-0.433 0.166,-0.435 0.161,-0.435C0.139,-0.431 0.103,-0.43 0.08,-0.432L0.078,-0.429C0.085,-0.386 0.087,-0.31 0.087,-0.235L0.087,-0.18C0.087,-0.105 0.086,-0.054 0.078,-0L0.08,0.003C0.092,0.001 0.115,-0 0.127,-0C0.139,-0 0.162,0.001 0.174,0.003L0.176,-0C0.169,-0.057 0.167,-0.104 0.167,-0.18L0.167,-0.232C0.167,-0.274 0.18,-0.298 0.201,-0.331C0.216,-0.353 0.238,-0.366 0.257,-0.366C0.277,-0.366 0.296,-0.364 0.309,-0.352L0.317,-0.354L0.337,-0.428L0.333,-0.432C0.316,-0.437 0.315,-0.439 0.297,-0.439C0.243,-0.439 0.214,-0.408 0.17,-0.332L0.167,-0.334Z" style="fill-rule:nonzero;"/>
            </g>
            <g transform="matrix(24.2917,0,0,24.2917,1325.12,1332.4)">
                <path d="M0.46,-0.18C0.46,-0.212 0.462,-0.249 0.462,-0.281C0.462,-0.385 0.428,-0.439 0.338,-0.439C0.3,-0.439 0.229,-0.424 0.165,-0.349L0.163,-0.352L0.163,-0.425C0.163,-0.433 0.162,-0.435 0.157,-0.435C0.135,-0.431 0.099,-0.43 0.076,-0.432L0.074,-0.429C0.081,-0.386 0.083,-0.31 0.083,-0.235L0.083,-0.18C0.083,-0.105 0.082,-0.054 0.074,-0L0.076,0.003C0.088,0.001 0.111,-0 0.123,-0C0.135,-0 0.158,0.001 0.17,0.003L0.172,-0C0.164,-0.057 0.163,-0.104 0.163,-0.18L0.163,-0.297C0.214,-0.357 0.272,-0.379 0.308,-0.379C0.359,-0.379 0.38,-0.359 0.38,-0.278L0.38,-0.18C0.38,-0.105 0.378,-0.054 0.371,-0L0.373,0.003C0.385,0.001 0.408,-0 0.42,-0C0.432,-0 0.455,0.001 0.467,0.003L0.469,-0C0.461,-0.057 0.46,-0.104 0.46,-0.18Z" style="fill-rule:nonzero;"/>
            </g>
            <g transform="matrix(24.2917,0,0,24.2917,1344.29,1332.4)">
                <path d="M0.099,-0.429C0.077,-0.429 0.054,-0.429 0.041,-0.431C0.034,-0.415 0.029,-0.405 0.019,-0.39L0.024,-0.383C0.042,-0.384 0.075,-0.385 0.098,-0.385L0.099,-0.385L0.099,-0.199C0.099,-0.124 0.098,-0.054 0.089,-0L0.091,0.003C0.103,0.001 0.127,-0 0.139,-0C0.151,-0 0.175,0.001 0.187,0.003L0.189,-0C0.181,-0.057 0.179,-0.124 0.179,-0.199L0.179,-0.385L0.213,-0.385C0.237,-0.385 0.272,-0.384 0.285,-0.383C0.288,-0.399 0.291,-0.409 0.297,-0.424L0.292,-0.431C0.275,-0.43 0.245,-0.429 0.222,-0.429L0.179,-0.429L0.179,-0.438C0.179,-0.474 0.174,-0.526 0.174,-0.544C0.174,-0.599 0.21,-0.637 0.267,-0.637C0.293,-0.637 0.314,-0.622 0.325,-0.602L0.336,-0.603C0.343,-0.63 0.354,-0.664 0.364,-0.685L0.363,-0.688C0.355,-0.693 0.337,-0.698 0.318,-0.698C0.255,-0.698 0.192,-0.669 0.154,-0.621C0.116,-0.573 0.099,-0.526 0.099,-0.468L0.099,-0.429Z" style="fill-rule:nonzero;"/>
            </g>
            <g transform="matrix(24.2917,0,0,24.2917,1351.92,1332.4)">
                <path d="M0.167,-0.334L0.167,-0.425C0.167,-0.433 0.166,-0.435 0.161,-0.435C0.139,-0.431 0.103,-0.43 0.08,-0.432L0.078,-0.429C0.085,-0.386 0.087,-0.31 0.087,-0.235L0.087,-0.18C0.087,-0.105 0.086,-0.054 0.078,-0L0.08,0.003C0.092,0.001 0.115,-0 0.127,-0C0.139,-0 0.162,0.001 0.174,0.003L0.176,-0C0.169,-0.057 0.167,-0.104 0.167,-0.18L0.167,-0.232C0.167,-0.274 0.18,-0.298 0.201,-0.331C0.216,-0.353 0.238,-0.366 0.257,-0.366C0.277,-0.366 0.296,-0.364 0.309,-0.352L0.317,-0.354L0.337,-0.428L0.333,-0.432C0.316,-0.437 0.315,-0.439 0.297,-0.439C0.243,-0.439 0.214,-0.408 0.17,-0.332L0.167,-0.334Z" style="fill-rule:nonzero;"/>
            </g>
            <g transform="matrix(24.2917,0,0,24.2917,1360.21,1332.4)">
                <path d="M0.038,-0.205C0.038,-0.085 0.117,0.01 0.25,0.01C0.382,0.01 0.462,-0.083 0.462,-0.214C0.462,-0.35 0.389,-0.439 0.254,-0.439C0.123,-0.439 0.038,-0.347 0.038,-0.205ZM0.247,-0.399C0.353,-0.399 0.374,-0.317 0.374,-0.196C0.374,-0.101 0.326,-0.03 0.259,-0.03C0.153,-0.03 0.126,-0.145 0.126,-0.222C0.126,-0.309 0.153,-0.399 0.247,-0.399Z" style="fill-rule:nonzero;"/>
            </g>
            <g transform="matrix(24.2917,0,0,24.2917,1372.35,1332.4)">
                <path d="M0.162,-0.352L0.162,-0.425C0.162,-0.433 0.161,-0.435 0.156,-0.435C0.134,-0.431 0.098,-0.43 0.075,-0.432L0.073,-0.429C0.08,-0.386 0.082,-0.31 0.082,-0.235L0.082,-0.18C0.082,-0.105 0.081,-0.054 0.073,-0L0.075,0.003C0.087,0.001 0.11,-0 0.122,-0C0.134,-0 0.157,0.001 0.169,0.003L0.171,-0C0.163,-0.057 0.162,-0.104 0.162,-0.18L0.162,-0.301C0.209,-0.349 0.265,-0.379 0.3,-0.379C0.338,-0.379 0.366,-0.357 0.366,-0.29L0.366,-0.18C0.366,-0.105 0.365,-0.054 0.357,-0L0.359,0.003C0.371,0.001 0.394,-0 0.406,-0C0.418,-0 0.441,0.001 0.453,0.003L0.455,-0C0.447,-0.057 0.446,-0.104 0.446,-0.18L0.446,-0.281C0.446,-0.295 0.446,-0.307 0.445,-0.319C0.493,-0.372 0.533,-0.379 0.572,-0.379C0.626,-0.379 0.652,-0.357 0.652,-0.29L0.652,-0.18C0.652,-0.105 0.651,-0.054 0.643,-0L0.645,0.003C0.657,0.001 0.68,-0 0.692,-0C0.704,-0 0.727,0.001 0.739,0.003L0.741,-0C0.733,-0.057 0.732,-0.104 0.732,-0.18L0.732,-0.28C0.732,-0.369 0.716,-0.439 0.608,-0.439C0.554,-0.439 0.496,-0.42 0.439,-0.36C0.43,-0.408 0.389,-0.439 0.333,-0.439C0.271,-0.439 0.212,-0.399 0.165,-0.349L0.162,-0.352Z" style="fill-rule:nonzero;"/>
            </g>
            <g transform="matrix(24.2917,0,0,24.2917,1398.03,1332.4)">
                <path d="M0.095,-0.429C0.075,-0.429 0.053,-0.429 0.041,-0.431C0.034,-0.415 0.029,-0.405 0.019,-0.39L0.024,-0.383C0.041,-0.384 0.072,-0.385 0.095,-0.385L0.095,-0.248C0.095,-0.188 0.092,-0.116 0.092,-0.086C0.092,-0.021 0.134,0.01 0.18,0.01C0.222,0.01 0.254,-0 0.296,-0.027L0.284,-0.052C0.253,-0.041 0.23,-0.04 0.205,-0.044C0.181,-0.048 0.172,-0.072 0.172,-0.126C0.172,-0.156 0.175,-0.199 0.175,-0.259L0.175,-0.385L0.213,-0.385C0.237,-0.385 0.272,-0.384 0.285,-0.383C0.288,-0.399 0.291,-0.409 0.297,-0.424L0.292,-0.431C0.274,-0.43 0.245,-0.429 0.222,-0.429L0.175,-0.429C0.175,-0.504 0.176,-0.517 0.18,-0.575C0.18,-0.582 0.177,-0.585 0.171,-0.585C0.146,-0.575 0.134,-0.564 0.101,-0.56L0.099,-0.557C0.097,-0.522 0.095,-0.487 0.095,-0.429Z" style="fill-rule:nonzero;"/>
            </g>
            <g transform="matrix(24.2917,0,0,24.2917,1406.29,1332.4)">
                <path d="M0.17,-0.352L0.17,-0.501C0.17,-0.575 0.174,-0.627 0.179,-0.688C0.179,-0.695 0.176,-0.698 0.17,-0.698C0.145,-0.688 0.124,-0.681 0.083,-0.678L0.081,-0.675C0.089,-0.632 0.09,-0.557 0.09,-0.481L0.09,-0.18C0.09,-0.106 0.089,-0.056 0.081,-0L0.083,0.003C0.095,0.001 0.118,-0 0.13,-0C0.142,-0 0.165,0.001 0.177,0.003L0.179,-0C0.172,-0.057 0.17,-0.104 0.17,-0.18L0.17,-0.297C0.221,-0.357 0.28,-0.379 0.315,-0.379C0.366,-0.379 0.387,-0.359 0.387,-0.278L0.387,-0.18C0.387,-0.105 0.386,-0.054 0.378,-0L0.38,0.003C0.392,0.001 0.415,-0 0.427,-0C0.439,-0 0.462,0.001 0.474,0.003L0.476,-0C0.468,-0.057 0.467,-0.104 0.467,-0.18C0.467,-0.212 0.469,-0.249 0.469,-0.281C0.469,-0.385 0.435,-0.439 0.345,-0.439C0.307,-0.439 0.236,-0.424 0.172,-0.349L0.17,-0.352Z" style="fill-rule:nonzero;"/>
            </g>
            <g transform="matrix(24.2917,0,0,24.2917,1419.62,1332.4)">
                <path d="M0.125,-0.273C0.142,-0.377 0.208,-0.399 0.239,-0.399C0.279,-0.399 0.323,-0.362 0.323,-0.287C0.323,-0.278 0.319,-0.273 0.309,-0.273L0.125,-0.273ZM0.392,-0.104C0.357,-0.066 0.31,-0.049 0.255,-0.049C0.221,-0.049 0.174,-0.062 0.146,-0.106C0.128,-0.134 0.122,-0.175 0.122,-0.233L0.394,-0.233C0.405,-0.233 0.412,-0.239 0.412,-0.25C0.412,-0.334 0.371,-0.439 0.239,-0.439C0.136,-0.439 0.034,-0.356 0.034,-0.209C0.034,-0.152 0.046,-0.096 0.079,-0.056C0.113,-0.015 0.171,0.01 0.238,0.01C0.31,0.01 0.374,-0.027 0.412,-0.079L0.392,-0.104Z" style="fill-rule:nonzero;"/>
            </g>
            <g transform="matrix(24.2917,0,0,24.2917,1436.7,1332.4)">
                <path d="M0.167,-0.334L0.167,-0.425C0.167,-0.433 0.166,-0.435 0.161,-0.435C0.139,-0.431 0.103,-0.43 0.08,-0.432L0.078,-0.429C0.085,-0.386 0.087,-0.31 0.087,-0.235L0.087,-0.18C0.087,-0.105 0.086,-0.054 0.078,-0L0.08,0.003C0.092,0.001 0.115,-0 0.127,-0C0.139,-0 0.162,0.001 0.174,0.003L0.176,-0C0.169,-0.057 0.167,-0.104 0.167,-0.18L0.167,-0.232C0.167,-0.274 0.18,-0.298 0.201,-0.331C0.216,-0.353 0.238,-0.366 0.257,-0.366C0.277,-0.366 0.296,-0.364 0.309,-0.352L0.317,-0.354L0.337,-0.428L0.333,-0.432C0.316,-0.437 0.315,-0.439 0.297,-0.439C0.243,-0.439 0.214,-0.408 0.17,-0.332L0.167,-0.334Z" style="fill-rule:nonzero;"/>
            </g>
            <g transform="matrix(24.2917,0,0,24.2917,1444.99,1332.4)">
                <path d="M0.038,-0.205C0.038,-0.085 0.117,0.01 0.25,0.01C0.382,0.01 0.462,-0.083 0.462,-0.214C0.462,-0.35 0.389,-0.439 0.254,-0.439C0.123,-0.439 0.038,-0.347 0.038,-0.205ZM0.247,-0.399C0.353,-0.399 0.374,-0.317 0.374,-0.196C0.374,-0.101 0.326,-0.03 0.259,-0.03C0.153,-0.03 0.126,-0.145 0.126,-0.222C0.126,-0.309 0.153,-0.399 0.247,-0.399Z" style="fill-rule:nonzero;"/>
            </g>
            <g transform="matrix(24.2917,0,0,24.2917,1457.43,1332.4)">
                <path d="M0.038,-0.205C0.038,-0.085 0.117,0.01 0.25,0.01C0.382,0.01 0.462,-0.083 0.462,-0.214C0.462,-0.35 0.389,-0.439 0.254,-0.439C0.123,-0.439 0.038,-0.347 0.038,-0.205ZM0.247,-0.399C0.353,-0.399 0.374,-0.317 0.374,-0.196C0.374,-0.101 0.326,-0.03 0.259,-0.03C0.153,-0.03 0.126,-0.145 0.126,-0.222C0.126,-0.309 0.153,-0.399 0.247,-0.399Z" style="fill-rule:nonzero;"/>
            </g>
            <g transform="matrix(24.2917,0,0,24.2917,1469.57,1332.4)">
                <path d="M0.095,-0.429C0.075,-0.429 0.053,-0.429 0.041,-0.431C0.034,-0.415 0.029,-0.405 0.019,-0.39L0.024,-0.383C0.041,-0.384 0.072,-0.385 0.095,-0.385L0.095,-0.248C0.095,-0.188 0.092,-0.116 0.092,-0.086C0.092,-0.021 0.134,0.01 0.18,0.01C0.222,0.01 0.254,-0 0.296,-0.027L0.284,-0.052C0.253,-0.041 0.23,-0.04 0.205,-0.044C0.181,-0.048 0.172,-0.072 0.172,-0.126C0.172,-0.156 0.175,-0.199 0.175,-0.259L0.175,-0.385L0.213,-0.385C0.237,-0.385 0.272,-0.384 0.285,-0.383C0.288,-0.399 0.291,-0.409 0.297,-0.424L0.292,-0.431C0.274,-0.43 0.245,-0.429 0.222,-0.429L0.175,-0.429C0.175,-0.504 0.176,-0.517 0.18,-0.575C0.18,-0.582 0.177,-0.585 0.171,-0.585C0.146,-0.575 0.134,-0.564 0.101,-0.56L0.099,-0.557C0.097,-0.522 0.095,-0.487 0.095,-0.429Z" style="fill-rule:nonzero;"/>
            </g>
        </g>
        <g transform="matrix(1,0,0,1,38.7969,33.8348)">
            <g transform="matrix(24.2917,0,0,24.2917,1240.47,1332.4)">
                <path d="M0.167,-0.334L0.167,-0.425C0.167,-0.433 0.166,-0.435 0.161,-0.435C0.139,-0.431 0.103,-0.43 0.08,-0.432L0.078,-0.429C0.085,-0.386 0.087,-0.31 0.087,-0.235L0.087,-0.18C0.087,-0.105 0.086,-0.054 0.078,-0L0.08,0.003C0.092,0.001 0.115,-0 0.127,-0C0.139,-0 0.162,0.001 0.174,0.003L0.176,-0C0.169,-0.057 0.167,-0.104 0.167,-0.18L0.167,-0.232C0.167,-0.274 0.18,-0.298 0.201,-0.331C0.216,-0.353 0.238,-0.366 0.257,-0.366C0.277,-0.366 0.296,-0.364 0.309,-0.352L0.317,-0.354L0.337,-0.428L0.333,-0.432C0.316,-0.437 0.315,-0.439 0.297,-0.439C0.243,-0.439 0.214,-0.408 0.17,-0.332L0.167,-0.334Z" style="fill-rule:nonzero;"/>
            </g>
            <g transform="matrix(24.2917,0,0,24.2917,1248.76,1332.4)">
                <path d="M0.038,-0.205C0.038,-0.085 0.117,0.01 0.25,0.01C0.382,0.01 0.462,-0.083 0.462,-0.214C0.462,-0.35 0.389,-0.439 0.254,-0.439C0.123,-0.439 0.038,-0.347 0.038,-0.205ZM0.247,-0.399C0.353,-0.399 0.374,-0.317 0.374,-0.196C0.374,-0.101 0.326,-0.03 0.259,-0.03C0.153,-0.03 0.126,-0.145 0.126,-0.222C0.126,-0.309 0.153,-0.399 0.247,-0.399Z" style="fill-rule:nonzero;"/>
            </g>
            <g transform="matrix(24.2917,0,0,24.2917,1261.19,1332.4)">
                <path d="M0.038,-0.205C0.038,-0.085 0.117,0.01 0.25,0.01C0.382,0.01 0.462,-0.083 0.462,-0.214C0.462,-0.35 0.389,-0.439 0.254,-0.439C0.123,-0.439 0.038,-0.347 0.038,-0.205ZM0.247,-0.399C0.353,-0.399 0.374,-0.317 0.374,-0.196C0.374,-0.101 0.326,-0.03 0.259,-0.03C0.153,-0.03 0.126,-0.145 0.126,-0.222C0.126,-0.309 0.153,-0.399 0.247,-0.399Z" style="fill-rule:nonzero;"/>
            </g>
            <g transform="matrix(24.2917,0,0,24.2917,1273.34,1332.4)">
                <path d="M0.095,-0.429C0.075,-0.429 0.053,-0.429 0.041,-0.431C0.034,-0.415 0.029,-0.405 0.019,-0.39L0.024,-0.383C0.041,-0.384 0.072,-0.385 0.095,-0.385L0.095,-0.248C0.095,-0.188 0.092,-0.116 0.092,-0.086C0.092,-0.021 0.134,0.01 0.18,0.01C0.222,0.01 0.254,-0 0.296,-0.027L0.284,-0.052C0.253,-0.041 0.23,-0.04 0.205,-0.044C0.181,-0.048 0.172,-0.072 0.172,-0.126C0.172,-0.156 0.175,-0.199 0.175,-0.259L0.175,-0.385L0.213,-0.385C0.237,-0.385 0.272,-0.384 0.285,-0.383C0.288,-0.399 0.291,-0.409 0.297,-0.424L0.292,-0.431C0.274,-0.43 0.245,-0.429 0.222,-0.429L0.175,-0.429C0.175,-0.504 0.176,-0.517 0.18,-0.575C0.18,-0.582 0.177,-0.585 0.171,-0.585C0.146,-0.575 0.134,-0.564 0.101,-0.56L0.099,-0.557C0.097,-0.522 0.095,-0.487 0.095,-0.429Z" style="fill-rule:nonzero;"/>
            </g>
            <g transform="matrix(24.2917,0,0,24.2917,1287.67,1332.4)">
                <path d="M0.205,0.004C0.215,0.001 0.228,0.001 0.238,0.001C0.248,0.001 0.265,0.001 0.274,0.004C0.301,-0.073 0.33,-0.155 0.363,-0.234C0.393,-0.156 0.425,-0.075 0.453,0.003C0.463,-0 0.469,-0 0.479,-0C0.489,-0 0.507,-0 0.516,0.003C0.565,-0.115 0.645,-0.307 0.702,-0.432C0.693,-0.429 0.669,-0.429 0.659,-0.429C0.649,-0.429 0.634,-0.429 0.625,-0.432C0.588,-0.314 0.543,-0.186 0.502,-0.09L0.494,-0.09C0.452,-0.2 0.421,-0.326 0.398,-0.432C0.385,-0.429 0.362,-0.429 0.348,-0.429C0.332,-0.429 0.306,-0.429 0.29,-0.432C0.304,-0.391 0.32,-0.347 0.337,-0.301C0.31,-0.226 0.283,-0.151 0.254,-0.089L0.248,-0.089C0.198,-0.204 0.164,-0.316 0.128,-0.431C0.115,-0.428 0.092,-0.428 0.078,-0.428C0.062,-0.428 0.036,-0.428 0.02,-0.431C0.087,-0.284 0.149,-0.142 0.205,0.004Z" style="fill-rule:nonzero;"/>
            </g>
            <g transform="matrix(24.2917,0,0,24.2917,1305.21,1332.4)">
                <path d="M0.08,-0.597C0.08,-0.57 0.104,-0.546 0.131,-0.546C0.158,-0.546 0.182,-0.57 0.182,-0.597C0.182,-0.624 0.158,-0.648 0.131,-0.648C0.104,-0.648 0.08,-0.624 0.08,-0.597ZM0.09,-0.235L0.09,-0.18C0.09,-0.105 0.088,-0.054 0.081,-0L0.083,0.003C0.095,0.001 0.118,-0 0.13,-0C0.142,-0 0.165,0.001 0.177,0.003L0.179,-0C0.172,-0.057 0.17,-0.104 0.17,-0.18L0.17,-0.251C0.17,-0.326 0.173,-0.362 0.179,-0.423C0.179,-0.432 0.178,-0.433 0.17,-0.433C0.147,-0.431 0.104,-0.43 0.083,-0.432L0.081,-0.429C0.087,-0.386 0.09,-0.31 0.09,-0.235Z" style="fill-rule:nonzero;"/>
            </g>
            <g transform="matrix(24.2917,0,0,24.2917,1311.53,1332.4)">
                <path d="M0.095,-0.429C0.075,-0.429 0.053,-0.429 0.041,-0.431C0.034,-0.415 0.029,-0.405 0.019,-0.39L0.024,-0.383C0.041,-0.384 0.072,-0.385 0.095,-0.385L0.095,-0.248C0.095,-0.188 0.092,-0.116 0.092,-0.086C0.092,-0.021 0.134,0.01 0.18,0.01C0.222,0.01 0.254,-0 0.296,-0.027L0.284,-0.052C0.253,-0.041 0.23,-0.04 0.205,-0.044C0.181,-0.048 0.172,-0.072 0.172,-0.126C0.172,-0.156 0.175,-0.199 0.175,-0.259L0.175,-0.385L0.213,-0.385C0.237,-0.385 0.272,-0.384 0.285,-0.383C0.288,-0.399 0.291,-0.409 0.297,-0.424L0.292,-0.431C0.274,-0.43 0.245,-0.429 0.222,-0.429L0.175,-0.429C0.175,-0.504 0.176,-0.517 0.18,-0.575C0.18,-0.582 0.177,-0.585 0.171,-0.585C0.146,-0.575 0.134,-0.564 0.101,-0.56L0.099,-0.557C0.097,-0.522 0.095,-0.487 0.095,-0.429Z" style="fill-rule:nonzero;"/>
            </g>
            <g transform="matrix(24.2917,0,0,24.2917,1319.78,1332.4)">
                <path d="M0.17,-0.352L0.17,-0.501C0.17,-0.575 0.174,-0.627 0.179,-0.688C0.179,-0.695 0.176,-0.698 0.17,-0.698C0.145,-0.688 0.124,-0.681 0.083,-0.678L0.081,-0.675C0.089,-0.632 0.09,-0.557 0.09,-0.481L0.09,-0.18C0.09,-0.106 0.089,-0.056 0.081,-0L0.083,0.003C0.095,0.001 0.118,-0 0.13,-0C0.142,-0 0.165,0.001 0.177,0.003L0.179,-0C0.172,-0.057 0.17,-0.104 0.17,-0.18L0.17,-0.297C0.221,-0.357 0.28,-0.379 0.315,-0.379C0.366,-0.379 0.387,-0.359 0.387,-0.278L0.387,-0.18C0.387,-0.105 0.386,-0.054 0.378,-0L0.38,0.003C0.392,0.001 0.415,-0 0.427,-0C0.439,-0 0.462,0.001 0.474,0.003L0.476,-0C0.468,-0.057 0.467,-0.104 0.467,-0.18C0.467,-0.212 0.469,-0.249 0.469,-0.281C0.469,-0.385 0.435,-0.439 0.345,-0.439C0.307,-0.439 0.236,-0.424 0.172,-0.349L0.17,-0.352Z" style="fill-rule:nonzero;"/>
            </g>
            <g transform="matrix(24.2917,0,0,24.2917,1339.19,1332.4)">
                <path d="M0.25,-0.399C0.289,-0.399 0.324,-0.371 0.35,-0.325L0.363,-0.326L0.386,-0.408L0.384,-0.411C0.353,-0.427 0.301,-0.439 0.251,-0.439C0.147,-0.439 0.038,-0.354 0.038,-0.218C0.038,-0.079 0.117,0.01 0.239,0.01C0.299,0.01 0.346,-0.01 0.386,-0.061L0.367,-0.082L0.363,-0.082C0.325,-0.048 0.293,-0.04 0.256,-0.04C0.183,-0.04 0.126,-0.106 0.126,-0.223C0.126,-0.333 0.184,-0.399 0.25,-0.399Z" style="fill-rule:nonzero;"/>
            </g>
            <g transform="matrix(24.2917,0,0,24.2917,1349.62,1332.4)">
                <path d="M0.17,-0.352L0.17,-0.501C0.17,-0.575 0.174,-0.627 0.179,-0.688C0.179,-0.695 0.176,-0.698 0.17,-0.698C0.145,-0.688 0.124,-0.681 0.083,-0.678L0.081,-0.675C0.089,-0.632 0.09,-0.557 0.09,-0.481L0.09,-0.18C0.09,-0.106 0.089,-0.056 0.081,-0L0.083,0.003C0.095,0.001 0.118,-0 0.13,-0C0.142,-0 0.165,0.001 0.177,0.003L0.179,-0C0.172,-0.057 0.17,-0.104 0.17,-0.18L0.17,-0.297C0.221,-0.357 0.28,-0.379 0.315,-0.379C0.366,-0.379 0.387,-0.359 0.387,-0.278L0.387,-0.18C0.387,-0.105 0.386,-0.054 0.378,-0L0.38,0.003C0.392,0.001 0.415,-0 0.427,-0C0.439,-0 0.462,0.001 0.474,0.003L0.476,-0C0.468,-0.057 0.467,-0.104 0.467,-0.18C0.467,-0.212 0.469,-0.249 0.469,-0.281C0.469,-0.385 0.435,-0.439 0.345,-0.439C0.307,-0.439 0.236,-0.424 0.172,-0.349L0.17,-0.352Z" style="fill-rule:nonzero;"/>
            </g>
            <g transform="matrix(24.2917,0,0,24.2917,1362.95,1332.4)">
                <path d="M0.08,-0.597C0.08,-0.57 0.104,-0.546 0.131,-0.546C0.158,-0.546 0.182,-0.57 0.182,-0.597C0.182,-0.624 0.158,-0.648 0.131,-0.648C0.104,-0.648 0.08,-0.624 0.08,-0.597ZM0.09,-0.235L0.09,-0.18C0.09,-0.105 0.088,-0.054 0.081,-0L0.083,0.003C0.095,0.001 0.118,-0 0.13,-0C0.142,-0 0.165,0.001 0.177,0.003L0.179,-0C0.172,-0.057 0.17,-0.104 0.17,-0.18L0.17,-0.251C0.17,-0.326 0.173,-0.362 0.179,-0.423C0.179,-0.432 0.178,-0.433 0.17,-0.433C0.147,-0.431 0.104,-0.43 0.083,-0.432L0.081,-0.429C0.087,-0.386 0.09,-0.31 0.09,-0.235Z" style="fill-rule:nonzero;"/>
            </g>
            <g transform="matrix(24.2917,0,0,24.2917,1369.27,1332.4)">
                <path d="M0.09,-0.2C0.09,-0.126 0.089,-0.054 0.081,-0L0.083,0.003C0.095,0.001 0.118,-0 0.13,-0C0.142,-0 0.165,0.001 0.177,0.003L0.179,-0C0.171,-0.057 0.17,-0.125 0.17,-0.2L0.17,-0.5C0.17,-0.575 0.174,-0.625 0.179,-0.688C0.179,-0.695 0.176,-0.698 0.17,-0.698C0.145,-0.688 0.124,-0.681 0.083,-0.678L0.081,-0.675C0.089,-0.632 0.09,-0.558 0.09,-0.482L0.09,-0.2Z" style="fill-rule:nonzero;"/>
            </g>
            <g transform="matrix(24.2917,0,0,24.2917,1375.39,1332.4)">
                <path d="M0.361,-0.113C0.325,-0.067 0.279,-0.042 0.238,-0.042C0.184,-0.042 0.138,-0.096 0.138,-0.221C0.138,-0.371 0.218,-0.399 0.266,-0.399C0.313,-0.399 0.337,-0.379 0.361,-0.341L0.361,-0.113ZM0.361,-0.058L0.363,-0.058L0.368,-0C0.368,0.002 0.371,0.003 0.377,0.003C0.39,0.001 0.397,-0 0.412,-0C0.424,-0 0.443,0.001 0.456,0.003L0.458,-0C0.45,-0.043 0.441,-0.117 0.441,-0.192L0.441,-0.5C0.441,-0.574 0.445,-0.626 0.45,-0.688C0.45,-0.695 0.447,-0.698 0.441,-0.698C0.416,-0.688 0.395,-0.681 0.354,-0.678L0.352,-0.675C0.36,-0.632 0.361,-0.558 0.361,-0.482L0.361,-0.417C0.338,-0.43 0.297,-0.439 0.277,-0.439C0.147,-0.439 0.051,-0.349 0.051,-0.213C0.051,-0.09 0.124,0.01 0.232,0.01C0.28,0.01 0.325,-0.012 0.361,-0.058Z" style="fill-rule:nonzero;"/>
            </g>
            <g transform="matrix(24.2917,0,0,24.2917,1388.26,1332.4)">
                <path d="M0.167,-0.334L0.167,-0.425C0.167,-0.433 0.166,-0.435 0.161,-0.435C0.139,-0.431 0.103,-0.43 0.08,-0.432L0.078,-0.429C0.085,-0.386 0.087,-0.31 0.087,-0.235L0.087,-0.18C0.087,-0.105 0.086,-0.054 0.078,-0L0.08,0.003C0.092,0.001 0.115,-0 0.127,-0C0.139,-0 0.162,0.001 0.174,0.003L0.176,-0C0.169,-0.057 0.167,-0.104 0.167,-0.18L0.167,-0.232C0.167,-0.274 0.18,-0.298 0.201,-0.331C0.216,-0.353 0.238,-0.366 0.257,-0.366C0.277,-0.366 0.296,-0.364 0.309,-0.352L0.317,-0.354L0.337,-0.428L0.333,-0.432C0.316,-0.437 0.315,-0.439 0.297,-0.439C0.243,-0.439 0.214,-0.408 0.17,-0.332L0.167,-0.334Z" style="fill-rule:nonzero;"/>
            </g>
            <g transform="matrix(24.2917,0,0,24.2917,1396.55,1332.4)">
                <path d="M0.125,-0.273C0.142,-0.377 0.208,-0.399 0.239,-0.399C0.279,-0.399 0.323,-0.362 0.323,-0.287C0.323,-0.278 0.319,-0.273 0.309,-0.273L0.125,-0.273ZM0.392,-0.104C0.357,-0.066 0.31,-0.049 0.255,-0.049C0.221,-0.049 0.174,-0.062 0.146,-0.106C0.128,-0.134 0.122,-0.175 0.122,-0.233L0.394,-0.233C0.405,-0.233 0.412,-0.239 0.412,-0.25C0.412,-0.334 0.371,-0.439 0.239,-0.439C0.136,-0.439 0.034,-0.356 0.034,-0.209C0.034,-0.152 0.046,-0.096 0.079,-0.056C0.113,-0.015 0.171,0.01 0.238,0.01C0.31,0.01 0.374,-0.027 0.412,-0.079L0.392,-0.104Z" style="fill-rule:nonzero;"/>
            </g>
            <g transform="matrix(24.2917,0,0,24.2917,1407.56,1332.4)">
                <path d="M0.46,-0.18C0.46,-0.212 0.462,-0.249 0.462,-0.281C0.462,-0.385 0.428,-0.439 0.338,-0.439C0.3,-0.439 0.229,-0.424 0.165,-0.349L0.163,-0.352L0.163,-0.425C0.163,-0.433 0.162,-0.435 0.157,-0.435C0.135,-0.431 0.099,-0.43 0.076,-0.432L0.074,-0.429C0.081,-0.386 0.083,-0.31 0.083,-0.235L0.083,-0.18C0.083,-0.105 0.082,-0.054 0.074,-0L0.076,0.003C0.088,0.001 0.111,-0 0.123,-0C0.135,-0 0.158,0.001 0.17,0.003L0.172,-0C0.164,-0.057 0.163,-0.104 0.163,-0.18L0.163,-0.297C0.214,-0.357 0.272,-0.379 0.308,-0.379C0.359,-0.379 0.38,-0.359 0.38,-0.278L0.38,-0.18C0.38,-0.105 0.378,-0.054 0.371,-0L0.373,0.003C0.385,0.001 0.408,-0 0.42,-0C0.432,-0 0.455,0.001 0.467,0.003L0.469,-0C0.461,-0.057 0.46,-0.104 0.46,-0.18Z" style="fill-rule:nonzero;"/>
            </g>
            <g transform="matrix(24.2917,0,0,24.2917,1426.72,1332.4)">
                <path d="M0.038,-0.205C0.038,-0.085 0.117,0.01 0.25,0.01C0.382,0.01 0.462,-0.083 0.462,-0.214C0.462,-0.35 0.389,-0.439 0.254,-0.439C0.123,-0.439 0.038,-0.347 0.038,-0.205ZM0.247,-0.399C0.353,-0.399 0.374,-0.317 0.374,-0.196C0.374,-0.101 0.326,-0.03 0.259,-0.03C0.153,-0.03 0.126,-0.145 0.126,-0.222C0.126,-0.309 0.153,-0.399 0.247,-0.399Z" style="fill-rule:nonzero;"/>
            </g>
            <g transform="matrix(24.2917,0,0,24.2917,1438.87,1332.4)">
                <path d="M0.099,-0.429C0.077,-0.429 0.054,-0.429 0.041,-0.431C0.034,-0.415 0.029,-0.405 0.019,-0.39L0.024,-0.383C0.042,-0.384 0.075,-0.385 0.098,-0.385L0.099,-0.385L0.099,-0.199C0.099,-0.124 0.098,-0.054 0.089,-0L0.091,0.003C0.103,0.001 0.127,-0 0.139,-0C0.151,-0 0.175,0.001 0.187,0.003L0.189,-0C0.181,-0.057 0.179,-0.124 0.179,-0.199L0.179,-0.385L0.213,-0.385C0.237,-0.385 0.272,-0.384 0.285,-0.383C0.288,-0.399 0.291,-0.409 0.297,-0.424L0.292,-0.431C0.275,-0.43 0.245,-0.429 0.222,-0.429L0.179,-0.429L0.179,-0.438C0.179,-0.474 0.174,-0.526 0.174,-0.544C0.174,-0.599 0.21,-0.637 0.267,-0.637C0.293,-0.637 0.314,-0.622 0.325,-0.602L0.336,-0.603C0.343,-0.63 0.354,-0.664 0.364,-0.685L0.363,-0.688C0.355,-0.693 0.337,-0.698 0.318,-0.698C0.255,-0.698 0.192,-0.669 0.154,-0.621C0.116,-0.573 0.099,-0.526 0.099,-0.468L0.099,-0.429Z" style="fill-rule:nonzero;"/>
            </g>
            <g transform="matrix(24.2917,0,0,24.2917,1452.57,1332.4)">
                <path d="M0.361,-0.113C0.325,-0.067 0.279,-0.042 0.238,-0.042C0.184,-0.042 0.138,-0.096 0.138,-0.221C0.138,-0.371 0.218,-0.399 0.266,-0.399C0.313,-0.399 0.337,-0.379 0.361,-0.341L0.361,-0.113ZM0.361,-0.058L0.363,-0.058L0.368,-0C0.368,0.002 0.371,0.003 0.377,0.003C0.39,0.001 0.397,-0 0.412,-0C0.424,-0 0.443,0.001 0.456,0.003L0.458,-0C0.45,-0.043 0.441,-0.117 0.441,-0.192L0.441,-0.5C0.441,-0.574 0.445,-0.626 0.45,-0.688C0.45,-0.695 0.447,-0.698 0.441,-0.698C0.416,-0.688 0.395,-0.681 0.354,-0.678L0.352,-0.675C0.36,-0.632 0.361,-0.558 0.361,-0.482L0.361,-0.417C0.338,-0.43 0.297,-0.439 0.277,-0.439C0.147,-0.439 0.051,-0.349 0.051,-0.213C0.051,-0.09 0.124,0.01 0.232,0.01C0.28,0.01 0.325,-0.012 0.361,-0.058Z" style="fill-rule:nonzero;"/>
            </g>
            <g transform="matrix(24.2917,0,0,24.2917,1465.44,1332.4)">
                <path d="M0.125,-0.273C0.142,-0.377 0.208,-0.399 0.239,-0.399C0.279,-0.399 0.323,-0.362 0.323,-0.287C0.323,-0.278 0.319,-0.273 0.309,-0.273L0.125,-0.273ZM0.392,-0.104C0.357,-0.066 0.31,-0.049 0.255,-0.049C0.221,-0.049 0.174,-0.062 0.146,-0.106C0.128,-0.134 0.122,-0.175 0.122,-0.233L0.394,-0.233C0.405,-0.233 0.412,-0.239 0.412,-0.25C0.412,-0.334 0.371,-0.439 0.239,-0.439C0.136,-0.439 0.034,-0.356 0.034,-0.209C0.034,-0.152 0.046,-0.096 0.079,-0.056C0.113,-0.015 0.171,0.01 0.238,0.01C0.31,0.01 0.374,-0.027 0.412,-0.079L0.392,-0.104Z" style="fill-rule:nonzero;"/>
            </g>
            <g transform="matrix(24.2917,0,0,24.2917,1476.45,1332.4)">
                <path d="M0.162,-0.294C0.184,-0.347 0.243,-0.393 0.282,-0.393C0.35,-0.393 0.385,-0.331 0.385,-0.218C0.385,-0.136 0.362,-0.03 0.255,-0.03C0.239,-0.03 0.197,-0.034 0.162,-0.075L0.162,-0.294ZM0.162,-0.352L0.162,-0.425C0.162,-0.433 0.161,-0.435 0.156,-0.435C0.134,-0.431 0.098,-0.43 0.075,-0.432L0.073,-0.429C0.08,-0.386 0.082,-0.31 0.082,-0.235L0.082,0.032C0.082,0.107 0.08,0.178 0.073,0.232L0.075,0.235C0.087,0.233 0.11,0.232 0.122,0.232C0.134,0.232 0.157,0.233 0.169,0.235L0.171,0.232C0.164,0.175 0.162,0.107 0.162,0.032L0.162,-0.012C0.188,0.002 0.225,0.01 0.261,0.01C0.393,0.01 0.473,-0.09 0.473,-0.231C0.473,-0.337 0.411,-0.439 0.299,-0.439C0.26,-0.439 0.21,-0.419 0.164,-0.349L0.162,-0.352Z" style="fill-rule:nonzero;"/>
            </g>
            <g transform="matrix(24.2917,0,0,24.2917,1489.15,1332.4)">
                <path d="M0.095,-0.429C0.075,-0.429 0.053,-0.429 0.041,-0.431C0.034,-0.415 0.029,-0.405 0.019,-0.39L0.024,-0.383C0.041,-0.384 0.072,-0.385 0.095,-0.385L0.095,-0.248C0.095,-0.188 0.092,-0.116 0.092,-0.086C0.092,-0.021 0.134,0.01 0.18,0.01C0.222,0.01 0.254,-0 0.296,-0.027L0.284,-0.052C0.253,-0.041 0.23,-0.04 0.205,-0.044C0.181,-0.048 0.172,-0.072 0.172,-0.126C0.172,-0.156 0.175,-0.199 0.175,-0.259L0.175,-0.385L0.213,-0.385C0.237,-0.385 0.272,-0.384 0.285,-0.383C0.288,-0.399 0.291,-0.409 0.297,-0.424L0.292,-0.431C0.274,-0.43 0.245,-0.429 0.222,-0.429L0.175,-0.429C0.175,-0.504 0.176,-0.517 0.18,-0.575C0.18,-0.582 0.177,-0.585 0.171,-0.585C0.146,-0.575 0.134,-0.564 0.101,-0.56L0.099,-0.557C0.097,-0.522 0.095,-0.487 0.095,-0.429Z" style="fill-rule:nonzero;"/>
            </g>
            <g transform="matrix(24.2917,0,0,24.2917,1497.41,1332.4)">
                <path d="M0.17,-0.352L0.17,-0.501C0.17,-0.575 0.174,-0.627 0.179,-0.688C0.179,-0.695 0.176,-0.698 0.17,-0.698C0.145,-0.688 0.124,-0.681 0.083,-0.678L0.081,-0.675C0.089,-0.632 0.09,-0.557 0.09,-0.481L0.09,-0.18C0.09,-0.106 0.089,-0.056 0.081,-0L0.083,0.003C0.095,0.001 0.118,-0 0.13,-0C0.142,-0 0.165,0.001 0.177,0.003L0.179,-0C0.172,-0.057 0.17,-0.104 0.17,-0.18L0.17,-0.297C0.221,-0.357 0.28,-0.379 0.315,-0.379C0.366,-0.379 0.387,-0.359 0.387,-0.278L0.387,-0.18C0.387,-0.105 0.386,-0.054 0.378,-0L0.38,0.003C0.392,0.001 0.415,-0 0.427,-0C0.439,-0 0.462,0.001 0.474,0.003L0.476,-0C0.468,-0.057 0.467,-0.104 0.467,-0.18C0.467,-0.212 0.469,-0.249 0.469,-0.281C0.469,-0.385 0.435,-0.439 0.345,-0.439C0.307,-0.439 0.236,-0.424 0.172,-0.349L0.17,-0.352Z" style="fill-rule:nonzero;"/>
            </g>
            <g transform="matrix(24.2917,0,0,24.2917,1516.82,1332.4)">
                <path d="M0.038,-0.205C0.038,-0.085 0.117,0.01 0.25,0.01C0.382,0.01 0.462,-0.083 0.462,-0.214C0.462,-0.35 0.389,-0.439 0.254,-0.439C0.123,-0.439 0.038,-0.347 0.038,-0.205ZM0.247,-0.399C0.353,-0.399 0.374,-0.317 0.374,-0.196C0.374,-0.101 0.326,-0.03 0.259,-0.03C0.153,-0.03 0.126,-0.145 0.126,-0.222C0.126,-0.309 0.153,-0.399 0.247,-0.399Z" style="fill-rule:nonzero;"/>
            </g>
            <g transform="matrix(24.2917,0,0,24.2917,1528.97,1332.4)">
                <path d="M0.46,-0.18C0.46,-0.212 0.462,-0.249 0.462,-0.281C0.462,-0.385 0.428,-0.439 0.338,-0.439C0.3,-0.439 0.229,-0.424 0.165,-0.349L0.163,-0.352L0.163,-0.425C0.163,-0.433 0.162,-0.435 0.157,-0.435C0.135,-0.431 0.099,-0.43 0.076,-0.432L0.074,-0.429C0.081,-0.386 0.083,-0.31 0.083,-0.235L0.083,-0.18C0.083,-0.105 0.082,-0.054 0.074,-0L0.076,0.003C0.088,0.001 0.111,-0 0.123,-0C0.135,-0 0.158,0.001 0.17,0.003L0.172,-0C0.164,-0.057 0.163,-0.104 0.163,-0.18L0.163,-0.297C0.214,-0.357 0.272,-0.379 0.308,-0.379C0.359,-0.379 0.38,-0.359 0.38,-0.278L0.38,-0.18C0.38,-0.105 0.378,-0.054 0.371,-0L0.373,0.003C0.385,0.001 0.408,-0 0.42,-0C0.432,-0 0.455,0.001 0.467,0.003L0.469,-0C0.461,-0.057 0.46,-0.104 0.46,-0.18Z" style="fill-rule:nonzero;"/>
            </g>
            <g transform="matrix(24.2917,0,0,24.2917,1542.06,1332.4)">
                <path d="M0.125,-0.273C0.142,-0.377 0.208,-0.399 0.239,-0.399C0.279,-0.399 0.323,-0.362 0.323,-0.287C0.323,-0.278 0.319,-0.273 0.309,-0.273L0.125,-0.273ZM0.392,-0.104C0.357,-0.066 0.31,-0.049 0.255,-0.049C0.221,-0.049 0.174,-0.062 0.146,-0.106C0.128,-0.134 0.122,-0.175 0.122,-0.233L0.394,-0.233C0.405,-0.233 0.412,-0.239 0.412,-0.25C0.412,-0.334 0.371,-0.439 0.239,-0.439C0.136,-0.439 0.034,-0.356 0.034,-0.209C0.034,-0.152 0.046,-0.096 0.079,-0.056C0.113,-0.015 0.171,0.01 0.238,0.01C0.31,0.01 0.374,-0.027 0.412,-0.079L0.392,-0.104Z" style="fill-rule:nonzero;"/>
            </g>
        </g>
    </g>
</svg>
