<?xml version="1.0" encoding="UTF-8" standalone="no"?>
<!DOCTYPE svg PUBLIC "-//W3C//DTD SVG 1.1//EN" "http://www.w3.org/Graphics/SVG/1.1/DTD/svg11.dtd">
<svg width="100%" height="100%" viewBox="0 0 468 193" version="1.1" xmlns="http://www.w3.org/2000/svg" xmlns:xlink="http://www.w3.org/1999/xlink" xml:space="preserve" xmlns:serif="http://www.serif.com/" style="fill-rule:evenodd;clip-rule:evenodd;stroke-linecap:round;stroke-linejoin:round;stroke-miterlimit:1.5;">
    <g transform="matrix(1,0,0,1,-309.682,-1937.01)">
        <g transform="matrix(1,0,0,1,-58.4376,-16.5009)">
            <g transform="matrix(1,0,0,1,42.3635,55.5752)">
                <g transform="matrix(41.6667,0,0,41.6667,356.961,1993.26)">
                    <path d="M0.716,-0.329L0.722,-0.369L0.061,-0.369L0.054,-0.329L0.716,-0.329ZM0.716,-0.132L0.722,-0.172L0.061,-0.172L0.054,-0.132L0.716,-0.132Z" style="fill-rule:nonzero;"/>
                </g>
                <g transform="matrix(41.6667,0,0,41.6667,402.336,1993.26)">
                    <path d="M0.027,-0.661L0.027,-0.64C0.047,-0.637 0.096,-0.631 0.097,-0.631C0.115,-0.629 0.121,-0.615 0.121,-0.599L0.121,-0.123C0.121,-0.069 0.136,-0.041 0.154,-0.023C0.178,0.001 0.205,0.01 0.238,0.01C0.323,0.01 0.399,-0.033 0.457,-0.093C0.48,-0.116 0.494,-0.146 0.504,-0.177C0.517,-0.216 0.522,-0.256 0.523,-0.297C0.525,-0.345 0.515,-0.396 0.48,-0.43C0.454,-0.455 0.418,-0.468 0.382,-0.468C0.314,-0.468 0.256,-0.434 0.203,-0.394L0.194,-0.399C0.192,-0.493 0.199,-0.584 0.208,-0.677L0.202,-0.684L0.033,-0.666L0.027,-0.661ZM0.198,-0.347C0.237,-0.381 0.282,-0.406 0.335,-0.406C0.373,-0.406 0.397,-0.383 0.41,-0.363C0.424,-0.342 0.44,-0.3 0.44,-0.227C0.44,-0.195 0.435,-0.162 0.424,-0.132C0.416,-0.109 0.404,-0.087 0.384,-0.071C0.358,-0.05 0.326,-0.038 0.293,-0.038C0.265,-0.038 0.246,-0.044 0.225,-0.064C0.198,-0.09 0.194,-0.167 0.194,-0.229C0.194,-0.268 0.196,-0.313 0.198,-0.347Z" style="fill-rule:nonzero;"/>
                </g>
                <g transform="matrix(24.2917,0,0,24.2917,426.836,2007.14)">
                    <path d="M0.308,-0.712L0.092,-0.639L0.092,-0.612L0.175,-0.612C0.2,-0.612 0.22,-0.591 0.221,-0.566C0.222,-0.541 0.222,-0.468 0.222,-0.419C0.222,-0.279 0.219,-0.139 0.214,-0L0.226,0.005L0.31,-0.022C0.307,-0.098 0.307,-0.296 0.307,-0.432C0.307,-0.521 0.309,-0.611 0.314,-0.7L0.308,-0.712Z" style="fill-rule:nonzero;"/>
                </g>
                <g transform="matrix(41.6667,0,0,41.6667,452.833,1993.26)">
                    <path d="M0.077,-0.052C0.077,-0.015 0.107,0.015 0.144,0.015C0.181,0.015 0.211,-0.015 0.211,-0.052C0.211,-0.089 0.181,-0.119 0.144,-0.119C0.107,-0.119 0.077,-0.089 0.077,-0.052Z" style="fill-rule:nonzero;"/>
                </g>
                <g transform="matrix(41.6667,0,0,41.6667,464.374,1993.26)">
                    <path d="M0.077,-0.052C0.077,-0.015 0.107,0.015 0.144,0.015C0.181,0.015 0.211,-0.015 0.211,-0.052C0.211,-0.089 0.181,-0.119 0.144,-0.119C0.107,-0.119 0.077,-0.089 0.077,-0.052Z" style="fill-rule:nonzero;"/>
                </g>
                <g transform="matrix(41.6667,0,0,41.6667,475.916,1993.26)">
                    <path d="M0.077,-0.052C0.077,-0.015 0.107,0.015 0.144,0.015C0.181,0.015 0.211,-0.015 0.211,-0.052C0.211,-0.089 0.181,-0.119 0.144,-0.119C0.107,-0.119 0.077,-0.089 0.077,-0.052Z" style="fill-rule:nonzero;"/>
                </g>
                <g transform="matrix(41.6667,0,0,41.6667,501.333,1993.26)">
                    <path d="M0.027,-0.661L0.027,-0.64C0.047,-0.637 0.096,-0.631 0.097,-0.631C0.115,-0.629 0.121,-0.615 0.121,-0.599L0.121,-0.123C0.121,-0.069 0.136,-0.041 0.154,-0.023C0.178,0.001 0.205,0.01 0.238,0.01C0.323,0.01 0.399,-0.033 0.457,-0.093C0.48,-0.116 0.494,-0.146 0.504,-0.177C0.517,-0.216 0.522,-0.256 0.523,-0.297C0.525,-0.345 0.515,-0.396 0.48,-0.43C0.454,-0.455 0.418,-0.468 0.382,-0.468C0.314,-0.468 0.256,-0.434 0.203,-0.394L0.194,-0.399C0.192,-0.493 0.199,-0.584 0.208,-0.677L0.202,-0.684L0.033,-0.666L0.027,-0.661ZM0.198,-0.347C0.237,-0.381 0.282,-0.406 0.335,-0.406C0.373,-0.406 0.397,-0.383 0.41,-0.363C0.424,-0.342 0.44,-0.3 0.44,-0.227C0.44,-0.195 0.435,-0.162 0.424,-0.132C0.416,-0.109 0.404,-0.087 0.384,-0.071C0.358,-0.05 0.326,-0.038 0.293,-0.038C0.265,-0.038 0.246,-0.044 0.225,-0.064C0.198,-0.09 0.194,-0.167 0.194,-0.229C0.194,-0.268 0.196,-0.313 0.198,-0.347Z" style="fill-rule:nonzero;"/>
                </g>
                <g transform="matrix(24.2917,0,0,24.2917,525.833,2007.14)">
                    <path d="M0.202,-0.266L0.189,-0.266L0.198,-0.679L0.192,-0.686L0.032,-0.663L0.027,-0.659L0.027,-0.638C0.046,-0.636 0.073,-0.631 0.083,-0.628C0.098,-0.622 0.109,-0.609 0.113,-0.594C0.125,-0.548 0.122,-0.438 0.12,-0.359C0.117,-0.24 0.113,-0.12 0.11,-0L0.116,0.007L0.187,-0.013L0.189,-0.234L0.199,-0.241C0.27,-0.162 0.359,-0.042 0.359,-0.042C0.376,-0.023 0.393,-0.007 0.404,-0.001C0.411,0.004 0.429,0.007 0.438,0.007C0.448,0.007 0.462,0.004 0.468,-0C0.514,-0.03 0.538,-0.056 0.565,-0.092L0.546,-0.112C0.524,-0.089 0.501,-0.073 0.468,-0.073C0.456,-0.073 0.432,-0.085 0.418,-0.099C0.372,-0.146 0.319,-0.198 0.272,-0.258C0.269,-0.263 0.264,-0.268 0.264,-0.274C0.264,-0.279 0.275,-0.288 0.282,-0.294C0.349,-0.35 0.42,-0.401 0.495,-0.445L0.495,-0.456L0.449,-0.485C0.437,-0.479 0.427,-0.471 0.416,-0.462C0.413,-0.459 0.363,-0.413 0.336,-0.389L0.202,-0.266Z" style="fill-rule:nonzero;"/>
                </g>
                <g transform="matrix(24.2917,0,0,24.2917,539.315,2007.14)">
                    <path d="M0.498,-0.236L0.504,-0.276L0.047,-0.276L0.04,-0.236L0.498,-0.236Z" style="fill-rule:nonzero;"/>
                </g>
                <g transform="matrix(24.2917,0,0,24.2917,552.529,2007.14)">
                    <path d="M0.308,-0.712L0.092,-0.639L0.092,-0.612L0.175,-0.612C0.2,-0.612 0.22,-0.591 0.221,-0.566C0.222,-0.541 0.222,-0.468 0.222,-0.419C0.222,-0.279 0.219,-0.139 0.214,-0L0.226,0.005L0.31,-0.022C0.307,-0.098 0.307,-0.296 0.307,-0.432C0.307,-0.521 0.309,-0.611 0.314,-0.7L0.308,-0.712Z" style="fill-rule:nonzero;"/>
                </g>
                <g transform="matrix(41.6667,0,0,41.6667,578.526,1993.26)">
                    <path d="M0.027,-0.661L0.027,-0.64C0.047,-0.637 0.096,-0.631 0.097,-0.631C0.115,-0.629 0.121,-0.615 0.121,-0.599L0.121,-0.123C0.121,-0.069 0.136,-0.041 0.154,-0.023C0.178,0.001 0.205,0.01 0.238,0.01C0.323,0.01 0.399,-0.033 0.457,-0.093C0.48,-0.116 0.494,-0.146 0.504,-0.177C0.517,-0.216 0.522,-0.256 0.523,-0.297C0.525,-0.345 0.515,-0.396 0.48,-0.43C0.454,-0.455 0.418,-0.468 0.382,-0.468C0.314,-0.468 0.256,-0.434 0.203,-0.394L0.194,-0.399C0.192,-0.493 0.199,-0.584 0.208,-0.677L0.202,-0.684L0.033,-0.666L0.027,-0.661ZM0.198,-0.347C0.237,-0.381 0.282,-0.406 0.335,-0.406C0.373,-0.406 0.397,-0.383 0.41,-0.363C0.424,-0.342 0.44,-0.3 0.44,-0.227C0.44,-0.195 0.435,-0.162 0.424,-0.132C0.416,-0.109 0.404,-0.087 0.384,-0.071C0.358,-0.05 0.326,-0.038 0.293,-0.038C0.265,-0.038 0.246,-0.044 0.225,-0.064C0.198,-0.09 0.194,-0.167 0.194,-0.229C0.194,-0.268 0.196,-0.313 0.198,-0.347Z" style="fill-rule:nonzero;"/>
                </g>
                <g transform="matrix(24.2917,0,0,24.2917,603.026,2007.14)">
                    <path d="M0.202,-0.266L0.189,-0.266L0.198,-0.679L0.192,-0.686L0.032,-0.663L0.027,-0.659L0.027,-0.638C0.046,-0.636 0.073,-0.631 0.083,-0.628C0.098,-0.622 0.109,-0.609 0.113,-0.594C0.125,-0.548 0.122,-0.438 0.12,-0.359C0.117,-0.24 0.113,-0.12 0.11,-0L0.116,0.007L0.187,-0.013L0.189,-0.234L0.199,-0.241C0.27,-0.162 0.359,-0.042 0.359,-0.042C0.376,-0.023 0.393,-0.007 0.404,-0.001C0.411,0.004 0.429,0.007 0.438,0.007C0.448,0.007 0.462,0.004 0.468,-0C0.514,-0.03 0.538,-0.056 0.565,-0.092L0.546,-0.112C0.524,-0.089 0.501,-0.073 0.468,-0.073C0.456,-0.073 0.432,-0.085 0.418,-0.099C0.372,-0.146 0.319,-0.198 0.272,-0.258C0.269,-0.263 0.264,-0.268 0.264,-0.274C0.264,-0.279 0.275,-0.288 0.282,-0.294C0.349,-0.35 0.42,-0.401 0.495,-0.445L0.495,-0.456L0.449,-0.485C0.437,-0.479 0.427,-0.471 0.416,-0.462C0.413,-0.459 0.363,-0.413 0.336,-0.389L0.202,-0.266Z" style="fill-rule:nonzero;"/>
                </g>
            </g>
            <g transform="matrix(1,0,0,1,312.825,56.7418)">
                <g transform="matrix(41.6667,0,0,41.6667,356.961,1993.26)">
                    <path d="M0.29,-0.704C0.246,-0.686 0.197,-0.662 0.164,-0.629C0.079,-0.544 0.034,-0.423 0.034,-0.303C0.034,-0.245 0.039,-0.192 0.055,-0.136C0.066,-0.094 0.087,-0.053 0.118,-0.022C0.142,0.001 0.174,0.014 0.207,0.014C0.262,0.014 0.315,-0.008 0.354,-0.046C0.39,-0.083 0.416,-0.129 0.432,-0.177C0.452,-0.234 0.46,-0.295 0.46,-0.356C0.46,-0.434 0.445,-0.513 0.405,-0.582C0.376,-0.632 0.34,-0.672 0.29,-0.704ZM0.234,-0.64C0.279,-0.621 0.324,-0.551 0.33,-0.539C0.374,-0.461 0.398,-0.375 0.398,-0.285C0.398,-0.245 0.395,-0.204 0.383,-0.166C0.373,-0.135 0.36,-0.106 0.337,-0.083C0.316,-0.061 0.283,-0.052 0.252,-0.052C0.232,-0.052 0.203,-0.065 0.184,-0.084C0.153,-0.115 0.135,-0.156 0.122,-0.199C0.106,-0.254 0.101,-0.313 0.101,-0.371C0.101,-0.452 0.129,-0.532 0.181,-0.595C0.197,-0.614 0.215,-0.628 0.234,-0.64Z" style="fill-rule:nonzero;"/>
                </g>
                <g transform="matrix(41.6667,0,0,41.6667,391.628,1993.26)">
                    <path d="M0.308,-0.712L0.092,-0.639L0.092,-0.612L0.175,-0.612C0.2,-0.612 0.22,-0.591 0.221,-0.566C0.222,-0.541 0.222,-0.468 0.222,-0.419C0.222,-0.279 0.219,-0.139 0.214,-0L0.226,0.005L0.31,-0.022C0.307,-0.098 0.307,-0.296 0.307,-0.432C0.307,-0.521 0.309,-0.611 0.314,-0.7L0.308,-0.712Z" style="fill-rule:nonzero;"/>
                </g>
                <g transform="matrix(41.6667,0,0,41.6667,426.295,1993.26)">
                    <path d="M0.308,-0.712L0.092,-0.639L0.092,-0.612L0.175,-0.612C0.2,-0.612 0.22,-0.591 0.221,-0.566C0.222,-0.541 0.222,-0.468 0.222,-0.419C0.222,-0.279 0.219,-0.139 0.214,-0L0.226,0.005L0.31,-0.022C0.307,-0.098 0.307,-0.296 0.307,-0.432C0.307,-0.521 0.309,-0.611 0.314,-0.7L0.308,-0.712Z" style="fill-rule:nonzero;"/>
                </g>
                <g transform="matrix(41.6667,0,0,41.6667,460.961,1993.26)">
                    <path d="M0.077,-0.052C0.077,-0.015 0.107,0.015 0.144,0.015C0.181,0.015 0.211,-0.015 0.211,-0.052C0.211,-0.089 0.181,-0.119 0.144,-0.119C0.107,-0.119 0.077,-0.089 0.077,-0.052Z" style="fill-rule:nonzero;"/>
                </g>
                <g transform="matrix(41.6667,0,0,41.6667,472.503,1993.26)">
                    <path d="M0.077,-0.052C0.077,-0.015 0.107,0.015 0.144,0.015C0.181,0.015 0.211,-0.015 0.211,-0.052C0.211,-0.089 0.181,-0.119 0.144,-0.119C0.107,-0.119 0.077,-0.089 0.077,-0.052Z" style="fill-rule:nonzero;"/>
                </g>
                <g transform="matrix(41.6667,0,0,41.6667,484.045,1993.26)">
                    <path d="M0.077,-0.052C0.077,-0.015 0.107,0.015 0.144,0.015C0.181,0.015 0.211,-0.015 0.211,-0.052C0.211,-0.089 0.181,-0.119 0.144,-0.119C0.107,-0.119 0.077,-0.089 0.077,-0.052Z" style="fill-rule:nonzero;"/>
                </g>
                <g transform="matrix(41.6667,0,0,41.6667,509.461,1993.26)">
                    <path d="M0.308,-0.712L0.092,-0.639L0.092,-0.612L0.175,-0.612C0.2,-0.612 0.22,-0.591 0.221,-0.566C0.222,-0.541 0.222,-0.468 0.222,-0.419C0.222,-0.279 0.219,-0.139 0.214,-0L0.226,0.005L0.31,-0.022C0.307,-0.098 0.307,-0.296 0.307,-0.432C0.307,-0.521 0.309,-0.611 0.314,-0.7L0.308,-0.712Z" style="fill-rule:nonzero;"/>
                </g>
            </g>
            <g transform="matrix(1,0,0,1,13.2623,57.0335)">
                <g transform="matrix(41.6667,0,0,41.6667,356.961,1993.26)">
                    <path d="M0.216,-0.392C0.216,-0.413 0.214,-0.437 0.2,-0.453C0.188,-0.469 0.168,-0.471 0.154,-0.471C0.135,-0.471 0.113,-0.459 0.095,-0.45C0.071,-0.438 0.038,-0.415 0.014,-0.396L0.027,-0.378C0.051,-0.393 0.085,-0.41 0.107,-0.41C0.117,-0.41 0.126,-0.405 0.131,-0.395C0.138,-0.381 0.142,-0.355 0.142,-0.325L0.136,-0.104C0.136,-0.06 0.138,-0.038 0.152,-0.02C0.169,0.001 0.192,0.008 0.216,0.008C0.242,0.008 0.266,-0.005 0.288,-0.019C0.315,-0.039 0.337,-0.062 0.357,-0.089L0.357,-0.1L0.344,-0.11C0.328,-0.096 0.312,-0.084 0.294,-0.074C0.282,-0.068 0.266,-0.065 0.252,-0.065C0.238,-0.065 0.226,-0.074 0.22,-0.087C0.212,-0.105 0.208,-0.141 0.208,-0.182L0.216,-0.392ZM0.23,-0.625C0.23,-0.655 0.21,-0.683 0.176,-0.683C0.146,-0.683 0.114,-0.661 0.112,-0.627C0.112,-0.595 0.138,-0.569 0.17,-0.569C0.202,-0.569 0.228,-0.592 0.23,-0.625Z" style="fill-rule:nonzero;"/>
                </g>
            </g>
        </g>
        <g transform="matrix(1,0,0,1,-57.2293,9.5528)">
            <g transform="matrix(1,0,0,1,42.3635,113.087)">
                <g transform="matrix(41.6667,0,0,41.6667,356.961,1993.26)">
                    <path d="M0.716,-0.329L0.722,-0.369L0.061,-0.369L0.054,-0.329L0.716,-0.329ZM0.716,-0.132L0.722,-0.172L0.061,-0.172L0.054,-0.132L0.716,-0.132Z" style="fill-rule:nonzero;"/>
                </g>
                <g transform="matrix(41.6667,0,0,41.6667,402.336,1993.26)">
                    <path d="M0.027,-0.661L0.027,-0.64C0.047,-0.637 0.096,-0.631 0.097,-0.631C0.115,-0.629 0.121,-0.615 0.121,-0.599L0.121,-0.123C0.121,-0.069 0.136,-0.041 0.154,-0.023C0.178,0.001 0.205,0.01 0.238,0.01C0.323,0.01 0.399,-0.033 0.457,-0.093C0.48,-0.116 0.494,-0.146 0.504,-0.177C0.517,-0.216 0.522,-0.256 0.523,-0.297C0.525,-0.345 0.515,-0.396 0.48,-0.43C0.454,-0.455 0.418,-0.468 0.382,-0.468C0.314,-0.468 0.256,-0.434 0.203,-0.394L0.194,-0.399C0.192,-0.493 0.199,-0.584 0.208,-0.677L0.202,-0.684L0.033,-0.666L0.027,-0.661ZM0.198,-0.347C0.237,-0.381 0.282,-0.406 0.335,-0.406C0.373,-0.406 0.397,-0.383 0.41,-0.363C0.424,-0.342 0.44,-0.3 0.44,-0.227C0.44,-0.195 0.435,-0.162 0.424,-0.132C0.416,-0.109 0.404,-0.087 0.384,-0.071C0.358,-0.05 0.326,-0.038 0.293,-0.038C0.265,-0.038 0.246,-0.044 0.225,-0.064C0.198,-0.09 0.194,-0.167 0.194,-0.229C0.194,-0.268 0.196,-0.313 0.198,-0.347Z" style="fill-rule:nonzero;"/>
                </g>
                <g transform="matrix(24.2917,0,0,24.2917,426.836,2007.14)">
                    <path d="M0.308,-0.712L0.092,-0.639L0.092,-0.612L0.175,-0.612C0.2,-0.612 0.22,-0.591 0.221,-0.566C0.222,-0.541 0.222,-0.468 0.222,-0.419C0.222,-0.279 0.219,-0.139 0.214,-0L0.226,0.005L0.31,-0.022C0.307,-0.098 0.307,-0.296 0.307,-0.432C0.307,-0.521 0.309,-0.611 0.314,-0.7L0.308,-0.712Z" style="fill-rule:nonzero;"/>
                </g>
                <g transform="matrix(41.6667,0,0,41.6667,452.833,1993.26)">
                    <path d="M0.077,-0.052C0.077,-0.015 0.107,0.015 0.144,0.015C0.181,0.015 0.211,-0.015 0.211,-0.052C0.211,-0.089 0.181,-0.119 0.144,-0.119C0.107,-0.119 0.077,-0.089 0.077,-0.052Z" style="fill-rule:nonzero;"/>
                </g>
                <g transform="matrix(41.6667,0,0,41.6667,464.374,1993.26)">
                    <path d="M0.077,-0.052C0.077,-0.015 0.107,0.015 0.144,0.015C0.181,0.015 0.211,-0.015 0.211,-0.052C0.211,-0.089 0.181,-0.119 0.144,-0.119C0.107,-0.119 0.077,-0.089 0.077,-0.052Z" style="fill-rule:nonzero;"/>
                </g>
                <g transform="matrix(41.6667,0,0,41.6667,475.916,1993.26)">
                    <path d="M0.077,-0.052C0.077,-0.015 0.107,0.015 0.144,0.015C0.181,0.015 0.211,-0.015 0.211,-0.052C0.211,-0.089 0.181,-0.119 0.144,-0.119C0.107,-0.119 0.077,-0.089 0.077,-0.052Z" style="fill-rule:nonzero;"/>
                </g>
                <g transform="matrix(41.6667,0,0,41.6667,501.333,1993.26)">
                    <path d="M0.027,-0.661L0.027,-0.64C0.047,-0.637 0.096,-0.631 0.097,-0.631C0.115,-0.629 0.121,-0.615 0.121,-0.599L0.121,-0.123C0.121,-0.069 0.136,-0.041 0.154,-0.023C0.178,0.001 0.205,0.01 0.238,0.01C0.323,0.01 0.399,-0.033 0.457,-0.093C0.48,-0.116 0.494,-0.146 0.504,-0.177C0.517,-0.216 0.522,-0.256 0.523,-0.297C0.525,-0.345 0.515,-0.396 0.48,-0.43C0.454,-0.455 0.418,-0.468 0.382,-0.468C0.314,-0.468 0.256,-0.434 0.203,-0.394L0.194,-0.399C0.192,-0.493 0.199,-0.584 0.208,-0.677L0.202,-0.684L0.033,-0.666L0.027,-0.661ZM0.198,-0.347C0.237,-0.381 0.282,-0.406 0.335,-0.406C0.373,-0.406 0.397,-0.383 0.41,-0.363C0.424,-0.342 0.44,-0.3 0.44,-0.227C0.44,-0.195 0.435,-0.162 0.424,-0.132C0.416,-0.109 0.404,-0.087 0.384,-0.071C0.358,-0.05 0.326,-0.038 0.293,-0.038C0.265,-0.038 0.246,-0.044 0.225,-0.064C0.198,-0.09 0.194,-0.167 0.194,-0.229C0.194,-0.268 0.196,-0.313 0.198,-0.347Z" style="fill-rule:nonzero;"/>
                </g>
                <g transform="matrix(24.2917,0,0,24.2917,525.833,2007.14)">
                    <path d="M0.202,-0.266L0.189,-0.266L0.198,-0.679L0.192,-0.686L0.032,-0.663L0.027,-0.659L0.027,-0.638C0.046,-0.636 0.073,-0.631 0.083,-0.628C0.098,-0.622 0.109,-0.609 0.113,-0.594C0.125,-0.548 0.122,-0.438 0.12,-0.359C0.117,-0.24 0.113,-0.12 0.11,-0L0.116,0.007L0.187,-0.013L0.189,-0.234L0.199,-0.241C0.27,-0.162 0.359,-0.042 0.359,-0.042C0.376,-0.023 0.393,-0.007 0.404,-0.001C0.411,0.004 0.429,0.007 0.438,0.007C0.448,0.007 0.462,0.004 0.468,-0C0.514,-0.03 0.538,-0.056 0.565,-0.092L0.546,-0.112C0.524,-0.089 0.501,-0.073 0.468,-0.073C0.456,-0.073 0.432,-0.085 0.418,-0.099C0.372,-0.146 0.319,-0.198 0.272,-0.258C0.269,-0.263 0.264,-0.268 0.264,-0.274C0.264,-0.279 0.275,-0.288 0.282,-0.294C0.349,-0.35 0.42,-0.401 0.495,-0.445L0.495,-0.456L0.449,-0.485C0.437,-0.479 0.427,-0.471 0.416,-0.462C0.413,-0.459 0.363,-0.413 0.336,-0.389L0.202,-0.266Z" style="fill-rule:nonzero;"/>
                </g>
                <g transform="matrix(24.2917,0,0,24.2917,539.315,2007.14)">
                    <path d="M0.498,-0.236L0.504,-0.276L0.047,-0.276L0.04,-0.236L0.498,-0.236Z" style="fill-rule:nonzero;"/>
                </g>
                <g transform="matrix(24.2917,0,0,24.2917,552.529,2007.14)">
                    <path d="M0.308,-0.712L0.092,-0.639L0.092,-0.612L0.175,-0.612C0.2,-0.612 0.22,-0.591 0.221,-0.566C0.222,-0.541 0.222,-0.468 0.222,-0.419C0.222,-0.279 0.219,-0.139 0.214,-0L0.226,0.005L0.31,-0.022C0.307,-0.098 0.307,-0.296 0.307,-0.432C0.307,-0.521 0.309,-0.611 0.314,-0.7L0.308,-0.712Z" style="fill-rule:nonzero;"/>
                </g>
                <g transform="matrix(41.6667,0,0,41.6667,580.829,1993.26)">
                    <path d="M0.29,-0.704C0.246,-0.686 0.197,-0.662 0.164,-0.629C0.079,-0.544 0.034,-0.423 0.034,-0.303C0.034,-0.245 0.039,-0.192 0.055,-0.136C0.066,-0.094 0.087,-0.053 0.118,-0.022C0.142,0.001 0.174,0.014 0.207,0.014C0.262,0.014 0.315,-0.008 0.354,-0.046C0.39,-0.083 0.416,-0.129 0.432,-0.177C0.452,-0.234 0.46,-0.295 0.46,-0.356C0.46,-0.434 0.445,-0.513 0.405,-0.582C0.376,-0.632 0.34,-0.672 0.29,-0.704ZM0.234,-0.64C0.279,-0.621 0.324,-0.551 0.33,-0.539C0.374,-0.461 0.398,-0.375 0.398,-0.285C0.398,-0.245 0.395,-0.204 0.383,-0.166C0.373,-0.135 0.36,-0.106 0.337,-0.083C0.316,-0.061 0.283,-0.052 0.252,-0.052C0.232,-0.052 0.203,-0.065 0.184,-0.084C0.153,-0.115 0.135,-0.156 0.122,-0.199C0.106,-0.254 0.101,-0.313 0.101,-0.371C0.101,-0.452 0.129,-0.532 0.181,-0.595C0.197,-0.614 0.215,-0.628 0.234,-0.64Z" style="fill-rule:nonzero;"/>
                </g>
            </g>
            <g transform="matrix(1,0,0,1,311.617,112.462)">
                <g transform="matrix(41.6667,0,0,41.6667,356.961,1993.26)">
                    <path d="M0.308,-0.712L0.092,-0.639L0.092,-0.612L0.175,-0.612C0.2,-0.612 0.22,-0.591 0.221,-0.566C0.222,-0.541 0.222,-0.468 0.222,-0.419C0.222,-0.279 0.219,-0.139 0.214,-0L0.226,0.005L0.31,-0.022C0.307,-0.098 0.307,-0.296 0.307,-0.432C0.307,-0.521 0.309,-0.611 0.314,-0.7L0.308,-0.712Z" style="fill-rule:nonzero;"/>
                </g>
                <g transform="matrix(41.6667,0,0,41.6667,391.628,1993.26)">
                    <path d="M0.308,-0.712L0.092,-0.639L0.092,-0.612L0.175,-0.612C0.2,-0.612 0.22,-0.591 0.221,-0.566C0.222,-0.541 0.222,-0.468 0.222,-0.419C0.222,-0.279 0.219,-0.139 0.214,-0L0.226,0.005L0.31,-0.022C0.307,-0.098 0.307,-0.296 0.307,-0.432C0.307,-0.521 0.309,-0.611 0.314,-0.7L0.308,-0.712Z" style="fill-rule:nonzero;"/>
                </g>
                <g transform="matrix(41.6667,0,0,41.6667,426.295,1993.26)">
                    <path d="M0.308,-0.712L0.092,-0.639L0.092,-0.612L0.175,-0.612C0.2,-0.612 0.22,-0.591 0.221,-0.566C0.222,-0.541 0.222,-0.468 0.222,-0.419C0.222,-0.279 0.219,-0.139 0.214,-0L0.226,0.005L0.31,-0.022C0.307,-0.098 0.307,-0.296 0.307,-0.432C0.307,-0.521 0.309,-0.611 0.314,-0.7L0.308,-0.712Z" style="fill-rule:nonzero;"/>
                </g>
                <g transform="matrix(41.6667,0,0,41.6667,460.961,1993.26)">
                    <path d="M0.077,-0.052C0.077,-0.015 0.107,0.015 0.144,0.015C0.181,0.015 0.211,-0.015 0.211,-0.052C0.211,-0.089 0.181,-0.119 0.144,-0.119C0.107,-0.119 0.077,-0.089 0.077,-0.052Z" style="fill-rule:nonzero;"/>
                </g>
                <g transform="matrix(41.6667,0,0,41.6667,472.503,1993.26)">
                    <path d="M0.077,-0.052C0.077,-0.015 0.107,0.015 0.144,0.015C0.181,0.015 0.211,-0.015 0.211,-0.052C0.211,-0.089 0.181,-0.119 0.144,-0.119C0.107,-0.119 0.077,-0.089 0.077,-0.052Z" style="fill-rule:nonzero;"/>
                </g>
                <g transform="matrix(41.6667,0,0,41.6667,484.045,1993.26)">
                    <path d="M0.077,-0.052C0.077,-0.015 0.107,0.015 0.144,0.015C0.181,0.015 0.211,-0.015 0.211,-0.052C0.211,-0.089 0.181,-0.119 0.144,-0.119C0.107,-0.119 0.077,-0.089 0.077,-0.052Z" style="fill-rule:nonzero;"/>
                </g>
                <g transform="matrix(41.6667,0,0,41.6667,509.461,1993.26)">
                    <path d="M0.308,-0.712L0.092,-0.639L0.092,-0.612L0.175,-0.612C0.2,-0.612 0.22,-0.591 0.221,-0.566C0.222,-0.541 0.222,-0.468 0.222,-0.419C0.222,-0.279 0.219,-0.139 0.214,-0L0.226,0.005L0.31,-0.022C0.307,-0.098 0.307,-0.296 0.307,-0.432C0.307,-0.521 0.309,-0.611 0.314,-0.7L0.308,-0.712Z" style="fill-rule:nonzero;"/>
                </g>
            </g>
            <g transform="matrix(1,0,0,1,10.4498,112.462)">
                <g transform="matrix(41.6667,0,0,41.6667,356.961,1993.26)">
                    <path d="M0.199,0.206C0.193,0.154 0.19,0.057 0.189,0.011L0.199,0.003C0.218,0.008 0.238,0.011 0.258,0.011C0.288,0.011 0.316,0.002 0.343,-0.011C0.377,-0.027 0.408,-0.049 0.436,-0.074C0.456,-0.092 0.48,-0.132 0.493,-0.163C0.509,-0.202 0.518,-0.254 0.518,-0.298C0.518,-0.35 0.51,-0.388 0.474,-0.428C0.452,-0.45 0.412,-0.465 0.381,-0.465C0.349,-0.465 0.318,-0.459 0.288,-0.446C0.252,-0.43 0.23,-0.417 0.197,-0.391L0.189,-0.395C0.187,-0.419 0.183,-0.441 0.168,-0.455C0.156,-0.467 0.14,-0.47 0.124,-0.47C0.103,-0.47 0.084,-0.462 0.065,-0.452C0.038,-0.439 0.012,-0.421 -0.012,-0.402L0.002,-0.383C0.026,-0.397 0.054,-0.412 0.075,-0.412C0.087,-0.412 0.094,-0.405 0.1,-0.395C0.109,-0.381 0.114,-0.337 0.114,-0.315L0.114,-0.094C0.114,-0.037 0.113,0.168 0.108,0.226L0.118,0.237L0.199,0.206ZM0.191,-0.066C0.191,-0.067 0.189,-0.17 0.189,-0.252C0.189,-0.263 0.192,-0.339 0.192,-0.345C0.239,-0.382 0.28,-0.403 0.331,-0.403C0.352,-0.403 0.376,-0.394 0.394,-0.373C0.407,-0.358 0.415,-0.343 0.42,-0.325C0.428,-0.3 0.434,-0.265 0.434,-0.239C0.434,-0.202 0.432,-0.175 0.42,-0.14C0.411,-0.112 0.398,-0.085 0.377,-0.065C0.35,-0.039 0.315,-0.029 0.279,-0.029C0.246,-0.029 0.215,-0.044 0.191,-0.066Z" style="fill-rule:nonzero;"/>
                </g>
            </g>
        </g>
        <g transform="matrix(1,0,0,1,-63.7218,-61.2788)">
            <g transform="matrix(1,-0,-0,1,373.404,1998.29)">
                <path d="M314.761,47.456L311.636,56.831L308.511,47.456L314.761,47.456Z"/>
                <path d="M311.636,26.703L311.636,49.331" style="fill:none;stroke:black;stroke-width:2.08px;"/>
            </g>
        </g>
        <g transform="matrix(1,0,0,1,-69.6254,-63.449)">
            <g transform="matrix(24.2917,0,0,24.2917,632.385,2017.41)">
                <path d="M0.09,-0.2C0.09,-0.126 0.089,-0.054 0.081,-0L0.083,0.003C0.095,0.001 0.118,-0 0.13,-0C0.142,-0 0.165,0.001 0.177,0.003L0.179,-0C0.171,-0.057 0.17,-0.125 0.17,-0.2L0.17,-0.5C0.17,-0.575 0.174,-0.625 0.179,-0.688C0.179,-0.695 0.176,-0.698 0.17,-0.698C0.145,-0.688 0.124,-0.681 0.083,-0.678L0.081,-0.675C0.089,-0.632 0.09,-0.558 0.09,-0.482L0.09,-0.2Z" style="fill-rule:nonzero;"/>
            </g>
            <g transform="matrix(24.2917,0,0,24.2917,638.506,2017.41)">
                <path d="M0.31,-0.225L0.306,-0.106C0.306,-0.093 0.3,-0.086 0.292,-0.08C0.264,-0.059 0.23,-0.041 0.2,-0.041C0.155,-0.041 0.126,-0.071 0.126,-0.102C0.126,-0.147 0.147,-0.181 0.225,-0.202L0.31,-0.225ZM0.31,-0.048C0.322,-0.009 0.351,0.01 0.388,0.01C0.413,0.01 0.444,0.004 0.468,-0.021L0.46,-0.046C0.449,-0.042 0.441,-0.04 0.433,-0.04C0.423,-0.04 0.41,-0.042 0.404,-0.048C0.394,-0.057 0.387,-0.081 0.387,-0.126C0.387,-0.155 0.39,-0.266 0.39,-0.277C0.39,-0.412 0.301,-0.439 0.225,-0.439C0.149,-0.439 0.103,-0.402 0.078,-0.381L0.075,-0.377L0.092,-0.31L0.105,-0.309C0.133,-0.354 0.167,-0.394 0.215,-0.394C0.251,-0.394 0.311,-0.389 0.311,-0.276C0.311,-0.269 0.307,-0.265 0.304,-0.264L0.211,-0.243C0.109,-0.22 0.045,-0.166 0.045,-0.098C0.045,-0.024 0.096,0.01 0.17,0.01C0.225,0.01 0.253,-0.003 0.306,-0.048L0.31,-0.048Z" style="fill-rule:nonzero;"/>
            </g>
            <g transform="matrix(24.2917,0,0,24.2917,650.19,2017.41)">
                <path d="M0.05,-0.101L0.033,-0.017C0.09,0.003 0.146,0.01 0.184,0.01C0.322,0.01 0.354,-0.072 0.354,-0.127C0.354,-0.209 0.289,-0.241 0.218,-0.258C0.18,-0.267 0.125,-0.286 0.125,-0.336C0.125,-0.377 0.158,-0.399 0.201,-0.399C0.253,-0.399 0.285,-0.358 0.308,-0.331L0.322,-0.332L0.342,-0.406L0.34,-0.409C0.311,-0.424 0.256,-0.439 0.205,-0.439C0.131,-0.439 0.054,-0.4 0.054,-0.317C0.054,-0.237 0.114,-0.211 0.174,-0.194C0.232,-0.178 0.275,-0.162 0.275,-0.113C0.275,-0.06 0.236,-0.03 0.183,-0.03C0.135,-0.03 0.093,-0.063 0.065,-0.102L0.05,-0.101Z" style="fill-rule:nonzero;"/>
            </g>
            <g transform="matrix(24.2917,0,0,24.2917,659.81,2017.41)">
                <path d="M0.095,-0.429C0.075,-0.429 0.053,-0.429 0.041,-0.431C0.034,-0.415 0.029,-0.405 0.019,-0.39L0.024,-0.383C0.041,-0.384 0.072,-0.385 0.095,-0.385L0.095,-0.248C0.095,-0.188 0.092,-0.116 0.092,-0.086C0.092,-0.021 0.134,0.01 0.18,0.01C0.222,0.01 0.254,-0 0.296,-0.027L0.284,-0.052C0.253,-0.041 0.23,-0.04 0.205,-0.044C0.181,-0.048 0.172,-0.072 0.172,-0.126C0.172,-0.156 0.175,-0.199 0.175,-0.259L0.175,-0.385L0.213,-0.385C0.237,-0.385 0.272,-0.384 0.285,-0.383C0.288,-0.399 0.291,-0.409 0.297,-0.424L0.292,-0.431C0.274,-0.43 0.245,-0.429 0.222,-0.429L0.175,-0.429C0.175,-0.504 0.176,-0.517 0.18,-0.575C0.18,-0.582 0.177,-0.585 0.171,-0.585C0.146,-0.575 0.134,-0.564 0.101,-0.56L0.099,-0.557C0.097,-0.522 0.095,-0.487 0.095,-0.429Z" style="fill-rule:nonzero;"/>
            </g>
            <g transform="matrix(24.2917,0,0,24.2917,674.142,2017.41)">
                <path d="M0.136,-0.045L0.365,-0.387C0.382,-0.412 0.389,-0.422 0.395,-0.429C0.395,-0.433 0.394,-0.435 0.39,-0.435C0.385,-0.435 0.338,-0.429 0.309,-0.429L0.105,-0.429C0.085,-0.429 0.064,-0.43 0.049,-0.432L0.047,-0.429C0.048,-0.416 0.049,-0.411 0.049,-0.402C0.049,-0.393 0.048,-0.384 0.047,-0.376L0.049,-0.373C0.049,-0.373 0.162,-0.382 0.277,-0.384L0.042,-0.032C0.034,-0.02 0.028,-0.011 0.02,-0.002L0.023,0.003C0.023,0.003 0.076,-0 0.104,-0L0.33,-0C0.35,-0 0.371,0.001 0.386,0.003L0.388,-0C0.387,-0.013 0.386,-0.018 0.386,-0.027C0.386,-0.036 0.387,-0.045 0.388,-0.053L0.386,-0.056C0.386,-0.056 0.258,-0.046 0.136,-0.045Z" style="fill-rule:nonzero;"/>
            </g>
            <g transform="matrix(24.2917,0,0,24.2917,684.247,2017.41)">
                <path d="M0.125,-0.273C0.142,-0.377 0.208,-0.399 0.239,-0.399C0.279,-0.399 0.323,-0.362 0.323,-0.287C0.323,-0.278 0.319,-0.273 0.309,-0.273L0.125,-0.273ZM0.392,-0.104C0.357,-0.066 0.31,-0.049 0.255,-0.049C0.221,-0.049 0.174,-0.062 0.146,-0.106C0.128,-0.134 0.122,-0.175 0.122,-0.233L0.394,-0.233C0.405,-0.233 0.412,-0.239 0.412,-0.25C0.412,-0.334 0.371,-0.439 0.239,-0.439C0.136,-0.439 0.034,-0.356 0.034,-0.209C0.034,-0.152 0.046,-0.096 0.079,-0.056C0.113,-0.015 0.171,0.01 0.238,0.01C0.31,0.01 0.374,-0.027 0.412,-0.079L0.392,-0.104Z" style="fill-rule:nonzero;"/>
            </g>
            <g transform="matrix(24.2917,0,0,24.2917,695.251,2017.41)">
                <path d="M0.167,-0.334L0.167,-0.425C0.167,-0.433 0.166,-0.435 0.161,-0.435C0.139,-0.431 0.103,-0.43 0.08,-0.432L0.078,-0.429C0.085,-0.386 0.087,-0.31 0.087,-0.235L0.087,-0.18C0.087,-0.105 0.086,-0.054 0.078,-0L0.08,0.003C0.092,0.001 0.115,-0 0.127,-0C0.139,-0 0.162,0.001 0.174,0.003L0.176,-0C0.169,-0.057 0.167,-0.104 0.167,-0.18L0.167,-0.232C0.167,-0.274 0.18,-0.298 0.201,-0.331C0.216,-0.353 0.238,-0.366 0.257,-0.366C0.277,-0.366 0.296,-0.364 0.309,-0.352L0.317,-0.354L0.337,-0.428L0.333,-0.432C0.316,-0.437 0.315,-0.439 0.297,-0.439C0.243,-0.439 0.214,-0.408 0.17,-0.332L0.167,-0.334Z" style="fill-rule:nonzero;"/>
            </g>
            <g transform="matrix(24.2917,0,0,24.2917,703.542,2017.41)">
                <path d="M0.038,-0.205C0.038,-0.085 0.117,0.01 0.25,0.01C0.382,0.01 0.462,-0.083 0.462,-0.214C0.462,-0.35 0.389,-0.439 0.254,-0.439C0.123,-0.439 0.038,-0.347 0.038,-0.205ZM0.247,-0.399C0.353,-0.399 0.374,-0.317 0.374,-0.196C0.374,-0.101 0.326,-0.03 0.259,-0.03C0.153,-0.03 0.126,-0.145 0.126,-0.222C0.126,-0.309 0.153,-0.399 0.247,-0.399Z" style="fill-rule:nonzero;"/>
            </g>
            <g transform="matrix(24.2917,0,0,24.2917,721.76,2017.41)">
                <path d="M0.162,-0.081L0.162,-0.34C0.201,-0.38 0.226,-0.399 0.267,-0.399C0.328,-0.399 0.382,-0.349 0.382,-0.224C0.382,-0.1 0.345,-0.03 0.25,-0.03C0.219,-0.03 0.182,-0.056 0.162,-0.081ZM0.162,-0.5C0.162,-0.574 0.163,-0.627 0.168,-0.688C0.168,-0.695 0.165,-0.698 0.159,-0.698C0.134,-0.688 0.113,-0.681 0.072,-0.678L0.07,-0.675C0.078,-0.632 0.082,-0.558 0.082,-0.482L0.082,-0.073C0.082,-0.034 0.081,-0.02 0.077,0.002C0.083,0.008 0.095,0.01 0.105,0.01C0.116,-0.002 0.128,-0.019 0.138,-0.039C0.167,-0.014 0.213,0.01 0.256,0.01C0.358,0.01 0.471,-0.062 0.471,-0.232C0.471,-0.354 0.384,-0.439 0.287,-0.439C0.239,-0.439 0.196,-0.426 0.162,-0.389L0.162,-0.5Z" style="fill-rule:nonzero;"/>
            </g>
            <g transform="matrix(24.2917,0,0,24.2917,734.003,2017.41)">
                <path d="M0.08,-0.597C0.08,-0.57 0.104,-0.546 0.131,-0.546C0.158,-0.546 0.182,-0.57 0.182,-0.597C0.182,-0.624 0.158,-0.648 0.131,-0.648C0.104,-0.648 0.08,-0.624 0.08,-0.597ZM0.09,-0.235L0.09,-0.18C0.09,-0.105 0.088,-0.054 0.081,-0L0.083,0.003C0.095,0.001 0.118,-0 0.13,-0C0.142,-0 0.165,0.001 0.177,0.003L0.179,-0C0.172,-0.057 0.17,-0.104 0.17,-0.18L0.17,-0.251C0.17,-0.326 0.173,-0.362 0.179,-0.423C0.179,-0.432 0.178,-0.433 0.17,-0.433C0.147,-0.431 0.104,-0.43 0.083,-0.432L0.081,-0.429C0.087,-0.386 0.09,-0.31 0.09,-0.235Z" style="fill-rule:nonzero;"/>
            </g>
            <g transform="matrix(24.2917,0,0,24.2917,740.319,2017.41)">
                <path d="M0.095,-0.429C0.075,-0.429 0.053,-0.429 0.041,-0.431C0.034,-0.415 0.029,-0.405 0.019,-0.39L0.024,-0.383C0.041,-0.384 0.072,-0.385 0.095,-0.385L0.095,-0.248C0.095,-0.188 0.092,-0.116 0.092,-0.086C0.092,-0.021 0.134,0.01 0.18,0.01C0.222,0.01 0.254,-0 0.296,-0.027L0.284,-0.052C0.253,-0.041 0.23,-0.04 0.205,-0.044C0.181,-0.048 0.172,-0.072 0.172,-0.126C0.172,-0.156 0.175,-0.199 0.175,-0.259L0.175,-0.385L0.213,-0.385C0.237,-0.385 0.272,-0.384 0.285,-0.383C0.288,-0.399 0.291,-0.409 0.297,-0.424L0.292,-0.431C0.274,-0.43 0.245,-0.429 0.222,-0.429L0.175,-0.429C0.175,-0.504 0.176,-0.517 0.18,-0.575C0.18,-0.582 0.177,-0.585 0.171,-0.585C0.146,-0.575 0.134,-0.564 0.101,-0.56L0.099,-0.557C0.097,-0.522 0.095,-0.487 0.095,-0.429Z" style="fill-rule:nonzero;"/>
            </g>
        </g>
    </g>
</svg>
