<?xml version="1.0" encoding="UTF-8" standalone="no"?>
<!DOCTYPE svg PUBLIC "-//W3C//DTD SVG 1.1//EN" "http://www.w3.org/Graphics/SVG/1.1/DTD/svg11.dtd">
<svg width="100%" height="100%" viewBox="0 0 648 187" version="1.1" xmlns="http://www.w3.org/2000/svg" xmlns:xlink="http://www.w3.org/1999/xlink" xml:space="preserve" xmlns:serif="http://www.serif.com/" style="fill-rule:evenodd;clip-rule:evenodd;stroke-linecap:round;stroke-linejoin:round;stroke-miterlimit:1.5;">
    <g transform="matrix(1,0,0,1,-1451.71,-1509.73)">
        <g transform="matrix(1,0,0,1,650.358,1006.4)">
            <g transform="matrix(37.5,0,0,37.5,823.014,687.093)">
                <path d="M0.29,-0.704C0.246,-0.686 0.197,-0.662 0.164,-0.629C0.079,-0.544 0.034,-0.423 0.034,-0.303C0.034,-0.245 0.039,-0.192 0.055,-0.136C0.066,-0.094 0.087,-0.053 0.118,-0.022C0.142,0.001 0.174,0.014 0.207,0.014C0.262,0.014 0.315,-0.008 0.354,-0.046C0.39,-0.083 0.416,-0.129 0.432,-0.177C0.452,-0.234 0.46,-0.295 0.46,-0.356C0.46,-0.434 0.445,-0.513 0.405,-0.582C0.376,-0.632 0.34,-0.672 0.29,-0.704ZM0.234,-0.64C0.279,-0.621 0.324,-0.551 0.33,-0.539C0.374,-0.461 0.398,-0.375 0.398,-0.285C0.398,-0.245 0.395,-0.204 0.383,-0.166C0.373,-0.135 0.36,-0.106 0.337,-0.083C0.316,-0.061 0.283,-0.052 0.252,-0.052C0.232,-0.052 0.203,-0.065 0.184,-0.084C0.153,-0.115 0.135,-0.156 0.122,-0.199C0.106,-0.254 0.101,-0.313 0.101,-0.371C0.101,-0.452 0.129,-0.532 0.181,-0.595C0.197,-0.614 0.215,-0.628 0.234,-0.64Z" style="fill-rule:nonzero;"/>
            </g>
        </g>
        <g transform="matrix(1,0,0,1,697.509,1006.74)">
            <g transform="matrix(37.5,0,0,37.5,823.014,687.093)">
                <path d="M0.308,-0.712L0.092,-0.639L0.092,-0.612L0.175,-0.612C0.2,-0.612 0.22,-0.591 0.221,-0.566C0.222,-0.541 0.222,-0.468 0.222,-0.419C0.222,-0.279 0.219,-0.139 0.214,-0L0.226,0.005L0.31,-0.022C0.307,-0.098 0.307,-0.296 0.307,-0.432C0.307,-0.521 0.309,-0.611 0.314,-0.7L0.308,-0.712Z" style="fill-rule:nonzero;"/>
            </g>
        </g>
        <g transform="matrix(1,0,0,1,745.033,1006.74)">
            <g transform="matrix(37.5,0,0,37.5,823.014,687.093)">
                <path d="M0.472,-0.08L0.467,-0.088L0.158,-0.088C0.153,-0.088 0.148,-0.089 0.146,-0.093C0.145,-0.095 0.146,-0.098 0.147,-0.099C0.197,-0.157 0.245,-0.215 0.29,-0.275C0.322,-0.317 0.353,-0.359 0.378,-0.405C0.404,-0.451 0.426,-0.5 0.426,-0.553C0.426,-0.594 0.414,-0.635 0.384,-0.664C0.355,-0.693 0.316,-0.708 0.275,-0.708C0.237,-0.708 0.201,-0.697 0.168,-0.679C0.128,-0.658 0.094,-0.628 0.064,-0.595L0.084,-0.576C0.108,-0.596 0.13,-0.611 0.158,-0.626C0.177,-0.636 0.199,-0.64 0.221,-0.64C0.25,-0.64 0.28,-0.629 0.3,-0.607C0.328,-0.578 0.334,-0.537 0.334,-0.508C0.334,-0.443 0.311,-0.382 0.276,-0.326C0.248,-0.28 0.213,-0.238 0.178,-0.197C0.125,-0.135 0.069,-0.076 0.012,-0.018L0.012,-0.002L0.449,-0.002L0.472,-0.08Z" style="fill-rule:nonzero;"/>
            </g>
        </g>
        <g transform="matrix(1,0,0,1,840.009,1006.59)">
            <g transform="matrix(37.5,0,0,37.5,823.014,687.093)">
                <path d="M0.361,-0.704L0.285,-0.669L-0.001,-0.235L-0.001,-0.191L0.283,-0.191L0.29,-0.182C0.29,-0.119 0.29,-0.036 0.285,-0.001L0.29,0.005L0.37,-0.028C0.367,-0.05 0.367,-0.129 0.367,-0.183L0.375,-0.191L0.457,-0.191L0.473,-0.228L0.468,-0.235L0.374,-0.235L0.367,-0.244C0.367,-0.399 0.367,-0.671 0.368,-0.698L0.361,-0.704ZM0.29,-0.243L0.284,-0.235L0.069,-0.235L0.064,-0.242C0.065,-0.264 0.149,-0.402 0.187,-0.461C0.216,-0.506 0.246,-0.552 0.28,-0.591C0.282,-0.593 0.287,-0.594 0.289,-0.591C0.289,-0.59 0.29,-0.587 0.29,-0.585L0.29,-0.243Z" style="fill-rule:nonzero;"/>
            </g>
        </g>
        <g transform="matrix(1,0,0,1,887.16,1006.92)">
            <g transform="matrix(37.5,0,0,37.5,823.014,687.093)">
                <path d="M0.125,-0.594C0.125,-0.6 0.131,-0.604 0.137,-0.604C0.185,-0.604 0.311,-0.607 0.398,-0.609L0.425,-0.687L0.09,-0.687L0.083,-0.68L0.083,-0.353L0.096,-0.342C0.128,-0.373 0.169,-0.395 0.213,-0.395C0.247,-0.395 0.281,-0.385 0.305,-0.361C0.341,-0.325 0.352,-0.273 0.352,-0.223C0.352,-0.167 0.337,-0.108 0.298,-0.069C0.268,-0.039 0.227,-0.026 0.186,-0.026C0.158,-0.026 0.132,-0.04 0.113,-0.059C0.092,-0.08 0.079,-0.106 0.067,-0.132L0.056,-0.132L0.012,-0.076L0.013,-0.064C0.054,-0.015 0.115,0.011 0.178,0.011C0.253,0.011 0.325,-0.018 0.378,-0.071C0.425,-0.118 0.448,-0.184 0.448,-0.251C0.448,-0.303 0.433,-0.356 0.395,-0.393C0.359,-0.429 0.308,-0.443 0.257,-0.443C0.211,-0.443 0.166,-0.426 0.125,-0.406L0.125,-0.594Z" style="fill-rule:nonzero;"/>
            </g>
        </g>
        <g transform="matrix(1,0,0,1,934.685,1006.92)">
            <g transform="matrix(37.5,0,0,37.5,823.014,687.093)">
                <path d="M0.471,-0.688C0.456,-0.694 0.431,-0.7 0.416,-0.7C0.375,-0.7 0.335,-0.687 0.299,-0.668C0.254,-0.645 0.214,-0.613 0.179,-0.576C0.09,-0.487 0.045,-0.363 0.045,-0.238C0.045,-0.164 0.062,-0.087 0.115,-0.034C0.147,-0.002 0.191,0.013 0.236,0.013C0.298,0.013 0.356,-0.013 0.399,-0.056C0.441,-0.098 0.471,-0.151 0.471,-0.211C0.471,-0.256 0.456,-0.301 0.424,-0.334C0.397,-0.361 0.359,-0.377 0.321,-0.377C0.252,-0.377 0.189,-0.348 0.136,-0.305L0.129,-0.306C0.13,-0.402 0.149,-0.503 0.228,-0.576C0.269,-0.614 0.323,-0.641 0.384,-0.641C0.404,-0.641 0.422,-0.638 0.442,-0.63L0.451,-0.634L0.471,-0.688ZM0.132,-0.265C0.154,-0.286 0.215,-0.314 0.256,-0.314C0.289,-0.314 0.323,-0.303 0.346,-0.279C0.375,-0.251 0.392,-0.212 0.392,-0.172C0.392,-0.131 0.38,-0.091 0.351,-0.063C0.328,-0.04 0.295,-0.032 0.263,-0.032C0.238,-0.032 0.213,-0.043 0.195,-0.06C0.174,-0.081 0.157,-0.11 0.148,-0.139C0.136,-0.179 0.132,-0.224 0.132,-0.265Z" style="fill-rule:nonzero;"/>
            </g>
        </g>
        <g transform="matrix(1,0,0,1,792.971,1006.02)">
            <g transform="matrix(37.5,0,0,37.5,823.014,687.093)">
                <path d="M0.241,-0.382C0.282,-0.394 0.321,-0.416 0.352,-0.446C0.384,-0.478 0.399,-0.523 0.399,-0.568C0.399,-0.604 0.387,-0.64 0.361,-0.665C0.333,-0.694 0.292,-0.702 0.253,-0.702C0.225,-0.702 0.198,-0.691 0.173,-0.678C0.137,-0.659 0.103,-0.634 0.072,-0.608L0.086,-0.586C0.109,-0.601 0.132,-0.615 0.157,-0.626C0.174,-0.633 0.191,-0.639 0.208,-0.639C0.238,-0.639 0.267,-0.632 0.288,-0.611C0.307,-0.592 0.317,-0.567 0.317,-0.54C0.317,-0.502 0.302,-0.465 0.274,-0.437C0.258,-0.421 0.237,-0.409 0.215,-0.399C0.187,-0.386 0.156,-0.378 0.126,-0.371L0.125,-0.345C0.162,-0.345 0.199,-0.343 0.235,-0.334C0.26,-0.328 0.285,-0.319 0.303,-0.3C0.332,-0.269 0.352,-0.229 0.352,-0.186C0.352,-0.141 0.338,-0.095 0.306,-0.063C0.279,-0.036 0.243,-0.023 0.206,-0.023C0.17,-0.023 0.136,-0.041 0.111,-0.067C0.095,-0.083 0.082,-0.101 0.07,-0.121L0.06,-0.121L0.018,-0.049L0.025,-0.038C0.07,-0.003 0.124,0.017 0.181,0.017C0.254,0.017 0.325,-0.008 0.377,-0.059C0.419,-0.101 0.446,-0.156 0.446,-0.215C0.446,-0.254 0.433,-0.291 0.406,-0.318C0.388,-0.336 0.364,-0.347 0.341,-0.355C0.308,-0.366 0.275,-0.371 0.241,-0.374L0.241,-0.382Z" style="fill-rule:nonzero;"/>
            </g>
        </g>
        <g transform="matrix(1,0,0,1,482.847,267.485)">
            <circle cx="1047.01" cy="1330.48" r="7.643" style="fill:white;fill-opacity:0;stroke:black;stroke-width:4.17px;"/>
        </g>
        <g transform="matrix(1,0,0,1,435.603,314.73)">
            <circle cx="1047.01" cy="1330.48" r="7.643" style="fill:white;fill-opacity:0;stroke:black;stroke-width:4.17px;"/>
        </g>
        <g transform="matrix(1,0,0,1,490.49,275.128)">
            <path d="M1033.46,1328.74L998.031,1364.17" style="fill:none;stroke:black;stroke-width:4.17px;"/>
        </g>
        <g transform="matrix(-1,0,0,1,2624.12,313.861)">
            <circle cx="1047.01" cy="1330.48" r="7.643" style="fill:white;fill-opacity:0;stroke:black;stroke-width:4.17px;"/>
        </g>
        <g transform="matrix(-1,0,0,1,2569.23,274.26)">
            <path d="M1033.46,1328.74L998.031,1364.17" style="fill:none;stroke:black;stroke-width:4.17px;"/>
        </g>
        <g transform="matrix(1,0,0,1,866.373,268.179)">
            <circle cx="1047.01" cy="1330.48" r="7.643" style="fill:white;fill-opacity:0;stroke:black;stroke-width:4.17px;"/>
        </g>
        <g transform="matrix(1,0,0,1,819.129,315.423)">
            <circle cx="1047.01" cy="1330.48" r="7.643" style="fill:white;fill-opacity:0;stroke:black;stroke-width:4.17px;"/>
        </g>
        <g transform="matrix(1,0,0,1,874.016,275.822)">
            <path d="M1033.46,1328.74L998.031,1364.17" style="fill:none;stroke:black;stroke-width:4.17px;"/>
        </g>
        <g transform="matrix(-1,0,0,1,3007.64,314.554)">
            <circle cx="1047.01" cy="1330.48" r="7.643" style="fill:white;fill-opacity:0;stroke:black;stroke-width:4.17px;"/>
        </g>
        <g transform="matrix(-1,0,0,1,2952.76,274.953)">
            <path d="M1033.46,1328.74L998.031,1364.17" style="fill:none;stroke:black;stroke-width:4.17px;"/>
        </g>
        <g transform="matrix(1,0,0,1,577.335,232.052)">
            <circle cx="1047.01" cy="1330.48" r="7.643" style="fill:white;fill-opacity:0;stroke:black;stroke-width:4.17px;"/>
        </g>
        <g transform="matrix(1,0,0,1,770.154,188.976)">
            <circle cx="1047.01" cy="1330.48" r="7.643" style="fill:white;fill-opacity:0;stroke:black;stroke-width:4.17px;"/>
        </g>
        <g transform="matrix(1.36855,0.219214,-0.848506,1.09591,1329.8,-121.027)">
            <path d="M1033.46,1328.74L998.031,1364.17" style="fill:none;stroke:black;stroke-width:4.17px;"/>
        </g>
        <g transform="matrix(-1,0,0,1,2767.35,267.245)">
            <circle cx="1047.01" cy="1330.48" r="7.643" style="fill:white;fill-opacity:0;stroke:black;stroke-width:4.17px;"/>
        </g>
        <g transform="matrix(-1,0,0,1,2814.6,314.489)">
            <circle cx="1047.01" cy="1330.48" r="7.643" style="fill:white;fill-opacity:0;stroke:black;stroke-width:4.17px;"/>
        </g>
        <g transform="matrix(-1,0,0,1,3125.75,316.227)">
            <circle cx="1047.01" cy="1330.48" r="7.643" style="fill:white;fill-opacity:0;stroke:black;stroke-width:4.17px;"/>
        </g>
        <g transform="matrix(-1,0,0,1,3066.7,232.746)">
            <circle cx="1047.01" cy="1330.48" r="7.643" style="fill:white;fill-opacity:0;stroke:black;stroke-width:4.17px;"/>
        </g>
        <g transform="matrix(-1,0,0,1,2759.71,274.888)">
            <path d="M1033.46,1328.74L998.031,1364.17" style="fill:none;stroke:black;stroke-width:4.17px;"/>
        </g>
        <g transform="matrix(1,0,0,1,626.085,313.621)">
            <circle cx="1047.01" cy="1330.48" r="7.643" style="fill:white;fill-opacity:0;stroke:black;stroke-width:4.17px;"/>
        </g>
        <g transform="matrix(1,0,0,1,680.972,274.019)">
            <path d="M1033.46,1328.74L998.031,1364.17" style="fill:none;stroke:black;stroke-width:4.17px;"/>
        </g>
        <g transform="matrix(-1.36855,0.219214,0.848506,1.09591,1920.4,-121.268)">
            <path d="M1033.46,1328.74L998.031,1364.17" style="fill:none;stroke:black;stroke-width:4.17px;"/>
        </g>
        <g transform="matrix(1,0,0,1,1034.68,1008.51)">
            <g transform="matrix(37.5,0,0,37.5,823.014,687.093)">
                <path d="M0.238,-0.334C0.26,-0.32 0.309,-0.287 0.324,-0.274C0.353,-0.245 0.374,-0.209 0.374,-0.168C0.374,-0.131 0.363,-0.09 0.337,-0.064C0.313,-0.04 0.278,-0.032 0.245,-0.032C0.216,-0.032 0.186,-0.045 0.165,-0.065C0.136,-0.095 0.123,-0.136 0.123,-0.177C0.123,-0.214 0.133,-0.252 0.159,-0.279C0.181,-0.301 0.211,-0.32 0.238,-0.334ZM0.312,-0.385L0.312,-0.396C0.346,-0.417 0.376,-0.443 0.4,-0.475C0.42,-0.502 0.435,-0.534 0.435,-0.568C0.435,-0.602 0.423,-0.635 0.399,-0.659C0.383,-0.675 0.36,-0.687 0.339,-0.694C0.311,-0.703 0.284,-0.707 0.254,-0.706C0.211,-0.689 0.169,-0.669 0.134,-0.638C0.103,-0.611 0.089,-0.57 0.089,-0.53C0.089,-0.498 0.102,-0.468 0.119,-0.441C0.142,-0.409 0.169,-0.385 0.201,-0.363L0.201,-0.352C0.158,-0.327 0.108,-0.297 0.083,-0.272C0.052,-0.242 0.04,-0.199 0.04,-0.157C0.04,-0.112 0.05,-0.067 0.082,-0.035C0.117,-0 0.171,0.01 0.219,0.01C0.291,0.01 0.36,-0.017 0.41,-0.067C0.444,-0.102 0.461,-0.149 0.461,-0.197C0.461,-0.239 0.444,-0.278 0.415,-0.307C0.398,-0.324 0.349,-0.36 0.312,-0.385ZM0.279,-0.412C0.249,-0.433 0.215,-0.461 0.194,-0.491C0.178,-0.512 0.166,-0.536 0.166,-0.562C0.166,-0.582 0.17,-0.606 0.182,-0.623C0.19,-0.634 0.208,-0.649 0.223,-0.659C0.266,-0.659 0.299,-0.644 0.322,-0.618C0.342,-0.594 0.351,-0.564 0.351,-0.543C0.351,-0.49 0.321,-0.441 0.279,-0.412Z" style="fill-rule:nonzero;"/>
            </g>
        </g>
        <g transform="matrix(1,0,0,1,1081.23,1009.04)">
            <g transform="matrix(37.5,0,0,37.5,823.014,687.093)">
                <path d="M0.214,-0.011C0.22,-0.048 0.237,-0.082 0.255,-0.115C0.283,-0.169 0.316,-0.22 0.35,-0.27C0.382,-0.317 0.411,-0.365 0.434,-0.417C0.449,-0.453 0.462,-0.49 0.462,-0.528C0.462,-0.574 0.445,-0.619 0.413,-0.651C0.394,-0.67 0.37,-0.683 0.345,-0.691C0.326,-0.697 0.296,-0.702 0.246,-0.702C0.196,-0.68 0.108,-0.634 0.079,-0.598C0.05,-0.562 0.04,-0.517 0.04,-0.465C0.04,-0.419 0.063,-0.373 0.092,-0.344C0.119,-0.317 0.166,-0.299 0.194,-0.299C0.213,-0.299 0.235,-0.301 0.253,-0.306C0.283,-0.314 0.314,-0.326 0.344,-0.342L0.349,-0.336C0.317,-0.281 0.232,-0.167 0.232,-0.167C0.187,-0.109 0.139,-0.045 0.119,0.001L0.129,0.009L0.214,-0.011ZM0.351,-0.384C0.327,-0.36 0.292,-0.352 0.259,-0.352C0.23,-0.352 0.199,-0.365 0.178,-0.386C0.144,-0.419 0.129,-0.467 0.129,-0.515C0.129,-0.573 0.156,-0.616 0.202,-0.643C0.209,-0.644 0.212,-0.644 0.219,-0.644C0.261,-0.644 0.305,-0.632 0.33,-0.607C0.363,-0.574 0.382,-0.529 0.382,-0.482C0.382,-0.447 0.376,-0.409 0.351,-0.384Z" style="fill-rule:nonzero;"/>
            </g>
        </g>
        <g transform="matrix(1,0,0,1,1117.91,1008.85)">
            <g transform="matrix(37.5,0,0,37.5,823.014,687.093)">
                <path d="M0.308,-0.712L0.092,-0.639L0.092,-0.612L0.175,-0.612C0.2,-0.612 0.22,-0.591 0.221,-0.566C0.222,-0.541 0.222,-0.468 0.222,-0.419C0.222,-0.279 0.219,-0.139 0.214,-0L0.226,0.005L0.31,-0.022C0.307,-0.098 0.307,-0.296 0.307,-0.432C0.307,-0.521 0.309,-0.611 0.314,-0.7L0.308,-0.712Z" style="fill-rule:nonzero;"/>
            </g>
            <g transform="matrix(37.5,0,0,37.5,841.727,687.093)">
                <path d="M0.29,-0.704C0.246,-0.686 0.197,-0.662 0.164,-0.629C0.079,-0.544 0.034,-0.423 0.034,-0.303C0.034,-0.245 0.039,-0.192 0.055,-0.136C0.066,-0.094 0.087,-0.053 0.118,-0.022C0.142,0.001 0.174,0.014 0.207,0.014C0.262,0.014 0.315,-0.008 0.354,-0.046C0.39,-0.083 0.416,-0.129 0.432,-0.177C0.452,-0.234 0.46,-0.295 0.46,-0.356C0.46,-0.434 0.445,-0.513 0.405,-0.582C0.376,-0.632 0.34,-0.672 0.29,-0.704ZM0.234,-0.64C0.279,-0.621 0.324,-0.551 0.33,-0.539C0.374,-0.461 0.398,-0.375 0.398,-0.285C0.398,-0.245 0.395,-0.204 0.383,-0.166C0.373,-0.135 0.36,-0.106 0.337,-0.083C0.316,-0.061 0.283,-0.052 0.252,-0.052C0.232,-0.052 0.203,-0.065 0.184,-0.084C0.153,-0.115 0.135,-0.156 0.122,-0.199C0.106,-0.254 0.101,-0.313 0.101,-0.371C0.101,-0.452 0.129,-0.532 0.181,-0.595C0.197,-0.614 0.215,-0.628 0.234,-0.64Z" style="fill-rule:nonzero;"/>
            </g>
        </g>
        <g transform="matrix(1,0,0,1,1179.7,1009.41)">
            <g transform="matrix(37.5,0,0,37.5,823.014,687.093)">
                <path d="M0.308,-0.712L0.092,-0.639L0.092,-0.612L0.175,-0.612C0.2,-0.612 0.22,-0.591 0.221,-0.566C0.222,-0.541 0.222,-0.468 0.222,-0.419C0.222,-0.279 0.219,-0.139 0.214,-0L0.226,0.005L0.31,-0.022C0.307,-0.098 0.307,-0.296 0.307,-0.432C0.307,-0.521 0.309,-0.611 0.314,-0.7L0.308,-0.712Z" style="fill-rule:nonzero;"/>
            </g>
            <g transform="matrix(37.5,0,0,37.5,841.727,687.093)">
                <path d="M0.308,-0.712L0.092,-0.639L0.092,-0.612L0.175,-0.612C0.2,-0.612 0.22,-0.591 0.221,-0.566C0.222,-0.541 0.222,-0.468 0.222,-0.419C0.222,-0.279 0.219,-0.139 0.214,-0L0.226,0.005L0.31,-0.022C0.307,-0.098 0.307,-0.296 0.307,-0.432C0.307,-0.521 0.309,-0.611 0.314,-0.7L0.308,-0.712Z" style="fill-rule:nonzero;"/>
            </g>
        </g>
        <g transform="matrix(1,0,0,1,1238.76,1009.41)">
            <g transform="matrix(37.5,0,0,37.5,823.014,687.093)">
                <path d="M0.308,-0.712L0.092,-0.639L0.092,-0.612L0.175,-0.612C0.2,-0.612 0.22,-0.591 0.221,-0.566C0.222,-0.541 0.222,-0.468 0.222,-0.419C0.222,-0.279 0.219,-0.139 0.214,-0L0.226,0.005L0.31,-0.022C0.307,-0.098 0.307,-0.296 0.307,-0.432C0.307,-0.521 0.309,-0.611 0.314,-0.7L0.308,-0.712Z" style="fill-rule:nonzero;"/>
            </g>
            <g transform="matrix(37.5,0,0,37.5,841.727,687.093)">
                <path d="M0.472,-0.08L0.467,-0.088L0.158,-0.088C0.153,-0.088 0.148,-0.089 0.146,-0.093C0.145,-0.095 0.146,-0.098 0.147,-0.099C0.197,-0.157 0.245,-0.215 0.29,-0.275C0.322,-0.317 0.353,-0.359 0.378,-0.405C0.404,-0.451 0.426,-0.5 0.426,-0.553C0.426,-0.594 0.414,-0.635 0.384,-0.664C0.355,-0.693 0.316,-0.708 0.275,-0.708C0.237,-0.708 0.201,-0.697 0.168,-0.679C0.128,-0.658 0.094,-0.628 0.064,-0.595L0.084,-0.576C0.108,-0.596 0.13,-0.611 0.158,-0.626C0.177,-0.636 0.199,-0.64 0.221,-0.64C0.25,-0.64 0.28,-0.629 0.3,-0.607C0.328,-0.578 0.334,-0.537 0.334,-0.508C0.334,-0.443 0.311,-0.382 0.276,-0.326C0.248,-0.28 0.213,-0.238 0.178,-0.197C0.125,-0.135 0.069,-0.076 0.012,-0.018L0.012,-0.002L0.449,-0.002L0.472,-0.08Z" style="fill-rule:nonzero;"/>
            </g>
        </g>
        <g transform="matrix(1,0,0,1,984.545,1007.94)">
            <g transform="matrix(37.5,0,0,37.5,823.014,687.093)">
                <path d="M0.494,-0.674L0.494,-0.686L0.286,-0.686C0.241,-0.686 0.088,-0.688 0.07,-0.694L0.049,-0.615L0.056,-0.606L0.392,-0.606L0.398,-0.594C0.336,-0.495 0.238,-0.324 0.238,-0.324C0.184,-0.232 0.099,-0.082 0.075,-0L0.081,0.008L0.165,-0.012C0.197,-0.158 0.262,-0.294 0.34,-0.422L0.494,-0.674Z" style="fill-rule:nonzero;"/>
            </g>
        </g>
        <g transform="matrix(0.976628,-0.0151573,0.0246988,0.998817,1102.28,-746.045)">
            <path d="M665.585,2279.53L484.252,2314.96" style="fill:none;stroke:black;stroke-width:4.2px;"/>
        </g>
        <g transform="matrix(0.983179,0.00567022,0.00567022,0.998089,24.9812,-8.42084)">
            <path d="M2012.04,1563.22L1919.29,1594.49" style="fill:none;stroke:black;stroke-width:4.18px;"/>
        </g>
        <g transform="matrix(0.998882,0.0472815,-0.0472815,0.998882,75.5402,-96.3852)">
            <path d="M2027.33,1570.87L2078.74,1640" style="fill:none;stroke:black;stroke-width:4.17px;"/>
        </g>
        <path d="M1824.81,1519.45L2012.04,1559.06" style="fill:none;stroke:black;stroke-width:4.17px;"/>
        <g transform="matrix(0.935484,0,0,0.870846,115.824,215.088)">
            <rect x="1429.13" y="1529.73" width="366.142" height="135.627" style="fill:white;fill-opacity:0;stroke:black;stroke-width:2.31px;stroke-dasharray:2.31,4.61,2.31,4.61,2.31,4.61;stroke-dashoffset:4.61;"/>
        </g>
        <g transform="matrix(0.356124,0,0,0.589899,1339.48,680.293)">
            <rect x="1429.13" y="1529.73" width="366.142" height="135.627" style="fill:white;fill-opacity:0;stroke:black;stroke-width:4.28px;stroke-dasharray:4.28,8.55,4.28,8.55,4.28,8.55;stroke-dashoffset:8.55;"/>
        </g>
        <g transform="matrix(0.102134,0,0,0.241561,1914.82,1260.4)">
            <rect x="1429.13" y="1529.73" width="366.142" height="135.627" style="fill:white;fill-opacity:0;stroke:black;stroke-width:11.23px;stroke-dasharray:11.23,22.47,11.23,22.47,11.23,22.47;stroke-dashoffset:22.47;"/>
        </g>
    </g>
</svg>
