<?xml version="1.0" encoding="UTF-8" standalone="no"?>
<!DOCTYPE svg PUBLIC "-//W3C//DTD SVG 1.1//EN" "http://www.w3.org/Graphics/SVG/1.1/DTD/svg11.dtd">
<svg width="100%" height="100%" viewBox="0 0 1470 444" version="1.1" xmlns="http://www.w3.org/2000/svg" xmlns:xlink="http://www.w3.org/1999/xlink" xml:space="preserve" xmlns:serif="http://www.serif.com/" style="fill-rule:evenodd;clip-rule:evenodd;stroke-linecap:round;stroke-linejoin:round;stroke-miterlimit:1.5;">
    <g transform="matrix(1,0,0,1,-375.869,-222.326)">
        <g transform="matrix(1,0,0,1,-94.4882,-0.526182)">
            <g transform="matrix(1,0,0,0.761138,2.84217e-14,230.959)">
                <rect x="472.441" y="472.441" width="70.866" height="94.488" style="fill:white;fill-opacity:0;stroke:black;stroke-width:4.69px;"/>
            </g>
            <g transform="matrix(1,0,0,1,-202.197,117.012)">
                <g transform="matrix(50,0,0,50,693.316,524.784)">
                    <path d="M0.215,-0.066L0.215,-0.338C0.217,-0.342 0.221,-0.345 0.225,-0.345C0.23,-0.346 0.259,-0.346 0.277,-0.346C0.313,-0.346 0.349,-0.344 0.383,-0.335C0.408,-0.328 0.432,-0.319 0.45,-0.301C0.475,-0.276 0.483,-0.241 0.483,-0.208C0.483,-0.164 0.47,-0.121 0.439,-0.089C0.4,-0.051 0.344,-0.039 0.29,-0.039C0.258,-0.039 0.232,-0.041 0.226,-0.045C0.22,-0.049 0.215,-0.053 0.215,-0.066ZM0.215,-0.391L0.215,-0.629C0.217,-0.636 0.221,-0.642 0.228,-0.643C0.248,-0.646 0.268,-0.648 0.288,-0.648C0.315,-0.648 0.342,-0.647 0.368,-0.641C0.385,-0.637 0.403,-0.632 0.415,-0.62C0.435,-0.6 0.449,-0.574 0.449,-0.545C0.449,-0.503 0.436,-0.461 0.406,-0.431C0.37,-0.396 0.32,-0.381 0.269,-0.381C0.254,-0.381 0.231,-0.38 0.223,-0.383C0.22,-0.384 0.216,-0.387 0.215,-0.391ZM0.381,-0.378C0.421,-0.395 0.461,-0.412 0.491,-0.443C0.52,-0.472 0.534,-0.512 0.534,-0.553C0.534,-0.585 0.522,-0.615 0.5,-0.638C0.48,-0.658 0.453,-0.667 0.426,-0.674C0.386,-0.684 0.346,-0.686 0.305,-0.686L0.058,-0.686L0.051,-0.679L0.05,-0.662C0.075,-0.655 0.099,-0.647 0.116,-0.639C0.118,-0.638 0.133,-0.628 0.133,-0.611L0.133,-0.081C0.133,-0.07 0.132,-0.048 0.132,-0.047C0.131,-0.043 0.13,-0.04 0.128,-0.037C0.128,-0.036 0.116,-0.02 0.11,-0.011L0.111,-0.001C0.112,-0.001 0.243,-0 0.309,0.001C0.385,0.001 0.466,-0.012 0.521,-0.068C0.556,-0.103 0.574,-0.151 0.574,-0.201C0.574,-0.244 0.565,-0.284 0.534,-0.315C0.519,-0.33 0.497,-0.343 0.477,-0.349C0.447,-0.358 0.411,-0.366 0.38,-0.37L0.381,-0.378Z" style="fill-rule:nonzero;"/>
                </g>
                <g transform="matrix(19.4333,0,0,19.4333,726.066,535.884)">
                    <path d="M0.308,-0.712L0.092,-0.639L0.092,-0.612L0.175,-0.612C0.2,-0.612 0.22,-0.591 0.221,-0.566C0.222,-0.541 0.222,-0.468 0.222,-0.419C0.222,-0.279 0.219,-0.139 0.214,-0L0.226,0.005L0.31,-0.022C0.307,-0.098 0.307,-0.296 0.307,-0.432C0.307,-0.521 0.309,-0.611 0.314,-0.7L0.308,-0.712Z" style="fill-rule:nonzero;"/>
                </g>
            </g>
        </g>
        <g transform="matrix(1,0,0,1,-35.4331,-118.636)">
            <g transform="matrix(1,0,0,0.761138,2.84217e-14,230.959)">
                <rect x="472.441" y="472.441" width="70.866" height="94.488" style="fill:white;fill-opacity:0;stroke:black;stroke-width:4.69px;"/>
            </g>
            <g transform="matrix(1,0,0,1,-213.307,113.625)">
                <g transform="matrix(50,0,0,50,693.316,524.784)">
                    <path d="M0.744,-0.014L0.743,-0.032C0.742,-0.032 0.713,-0.04 0.695,-0.045C0.679,-0.049 0.666,-0.062 0.666,-0.079C0.66,-0.241 0.661,-0.403 0.665,-0.565C0.666,-0.604 0.67,-0.645 0.673,-0.684L0.668,-0.69L0.58,-0.673C0.58,-0.587 0.583,-0.483 0.583,-0.397C0.583,-0.391 0.582,-0.385 0.571,-0.385L0.225,-0.385C0.215,-0.385 0.213,-0.392 0.213,-0.397C0.213,-0.462 0.217,-0.546 0.219,-0.611C0.22,-0.634 0.222,-0.658 0.226,-0.68L0.221,-0.685L0.059,-0.685L0.052,-0.678L0.053,-0.659C0.073,-0.652 0.109,-0.641 0.113,-0.64C0.123,-0.636 0.125,-0.625 0.126,-0.616C0.131,-0.533 0.132,-0.45 0.132,-0.367C0.132,-0.245 0.132,-0.116 0.122,-0.003L0.128,0.002L0.22,-0.026C0.217,-0.052 0.215,-0.078 0.215,-0.104C0.214,-0.171 0.215,-0.267 0.215,-0.334C0.215,-0.341 0.221,-0.346 0.228,-0.346L0.571,-0.346C0.58,-0.346 0.583,-0.339 0.583,-0.334C0.583,-0.237 0.58,-0.118 0.578,-0.021L0.589,-0L0.738,-0.008L0.744,-0.014Z" style="fill-rule:nonzero;"/>
                </g>
                <g transform="matrix(19.4333,0,0,19.4333,732.466,535.884)">
                    <path d="M0.308,-0.712L0.092,-0.639L0.092,-0.612L0.175,-0.612C0.2,-0.612 0.22,-0.591 0.221,-0.566C0.222,-0.541 0.222,-0.468 0.222,-0.419C0.222,-0.279 0.219,-0.139 0.214,-0L0.226,0.005L0.31,-0.022C0.307,-0.098 0.307,-0.296 0.307,-0.432C0.307,-0.521 0.309,-0.611 0.314,-0.7L0.308,-0.712Z" style="fill-rule:nonzero;"/>
                </g>
                <g transform="matrix(19.4333,0,0,19.4333,742.163,535.884)">
                    <path d="M0.472,-0.08L0.467,-0.088L0.158,-0.088C0.153,-0.088 0.148,-0.089 0.146,-0.093C0.145,-0.095 0.146,-0.098 0.147,-0.099C0.197,-0.157 0.245,-0.215 0.29,-0.275C0.322,-0.317 0.353,-0.359 0.378,-0.405C0.404,-0.451 0.426,-0.5 0.426,-0.553C0.426,-0.594 0.414,-0.635 0.384,-0.664C0.355,-0.693 0.316,-0.708 0.275,-0.708C0.237,-0.708 0.201,-0.697 0.168,-0.679C0.128,-0.658 0.094,-0.628 0.064,-0.595L0.084,-0.576C0.108,-0.596 0.13,-0.611 0.158,-0.626C0.177,-0.636 0.199,-0.64 0.221,-0.64C0.25,-0.64 0.28,-0.629 0.3,-0.607C0.328,-0.578 0.334,-0.537 0.334,-0.508C0.334,-0.443 0.311,-0.382 0.276,-0.326C0.248,-0.28 0.213,-0.238 0.178,-0.197C0.125,-0.135 0.069,-0.076 0.012,-0.018L0.012,-0.002L0.449,-0.002L0.472,-0.08Z" style="fill-rule:nonzero;"/>
                </g>
            </g>
        </g>
        <g transform="matrix(1,0,0,1,82.6772,-236.22)">
            <g transform="matrix(1,0,0,0.761138,2.84217e-14,230.959)">
                <rect x="472.441" y="472.441" width="70.866" height="94.488" style="fill:white;fill-opacity:0;stroke:black;stroke-width:4.69px;"/>
            </g>
            <g transform="matrix(1,0,0,1,-213.307,113.625)">
                <g transform="matrix(50,0,0,50,693.316,524.784)">
                    <path d="M0.744,-0.014L0.743,-0.032C0.742,-0.032 0.713,-0.04 0.695,-0.045C0.679,-0.049 0.666,-0.062 0.666,-0.079C0.66,-0.241 0.661,-0.403 0.665,-0.565C0.666,-0.604 0.67,-0.645 0.673,-0.684L0.668,-0.69L0.58,-0.673C0.58,-0.587 0.583,-0.483 0.583,-0.397C0.583,-0.391 0.582,-0.385 0.571,-0.385L0.225,-0.385C0.215,-0.385 0.213,-0.392 0.213,-0.397C0.213,-0.462 0.217,-0.546 0.219,-0.611C0.22,-0.634 0.222,-0.658 0.226,-0.68L0.221,-0.685L0.059,-0.685L0.052,-0.678L0.053,-0.659C0.073,-0.652 0.109,-0.641 0.113,-0.64C0.123,-0.636 0.125,-0.625 0.126,-0.616C0.131,-0.533 0.132,-0.45 0.132,-0.367C0.132,-0.245 0.132,-0.116 0.122,-0.003L0.128,0.002L0.22,-0.026C0.217,-0.052 0.215,-0.078 0.215,-0.104C0.214,-0.171 0.215,-0.267 0.215,-0.334C0.215,-0.341 0.221,-0.346 0.228,-0.346L0.571,-0.346C0.58,-0.346 0.583,-0.339 0.583,-0.334C0.583,-0.237 0.58,-0.118 0.578,-0.021L0.589,-0L0.738,-0.008L0.744,-0.014Z" style="fill-rule:nonzero;"/>
                </g>
                <g transform="matrix(19.4333,0,0,19.4333,732.466,535.884)">
                    <path d="M0.308,-0.712L0.092,-0.639L0.092,-0.612L0.175,-0.612C0.2,-0.612 0.22,-0.591 0.221,-0.566C0.222,-0.541 0.222,-0.468 0.222,-0.419C0.222,-0.279 0.219,-0.139 0.214,-0L0.226,0.005L0.31,-0.022C0.307,-0.098 0.307,-0.296 0.307,-0.432C0.307,-0.521 0.309,-0.611 0.314,-0.7L0.308,-0.712Z" style="fill-rule:nonzero;"/>
                </g>
                <g transform="matrix(19.4333,0,0,19.4333,742.163,535.884)">
                    <path d="M0.361,-0.704L0.285,-0.669L-0.001,-0.235L-0.001,-0.191L0.283,-0.191L0.29,-0.182C0.29,-0.119 0.29,-0.036 0.285,-0.001L0.29,0.005L0.37,-0.028C0.367,-0.05 0.367,-0.129 0.367,-0.183L0.375,-0.191L0.457,-0.191L0.473,-0.228L0.468,-0.235L0.374,-0.235L0.367,-0.244C0.367,-0.399 0.367,-0.671 0.368,-0.698L0.361,-0.704ZM0.29,-0.243L0.284,-0.235L0.069,-0.235L0.064,-0.242C0.065,-0.264 0.149,-0.402 0.187,-0.461C0.216,-0.506 0.246,-0.552 0.28,-0.591C0.282,-0.593 0.287,-0.594 0.289,-0.591C0.289,-0.59 0.29,-0.587 0.29,-0.585L0.29,-0.243Z" style="fill-rule:nonzero;"/>
                </g>
            </g>
        </g>
        <g transform="matrix(1,0,0,1,318.898,-366.142)">
            <g transform="matrix(1,0,0,0.761138,2.84217e-14,230.959)">
                <rect x="472.441" y="472.441" width="70.866" height="94.488" style="fill:white;fill-opacity:0;stroke:black;stroke-width:4.69px;"/>
            </g>
            <g transform="matrix(1,0,0,1,-213.307,113.625)">
                <g transform="matrix(50,0,0,50,693.316,524.784)">
                    <path d="M0.744,-0.014L0.743,-0.032C0.742,-0.032 0.713,-0.04 0.695,-0.045C0.679,-0.049 0.666,-0.062 0.666,-0.079C0.66,-0.241 0.661,-0.403 0.665,-0.565C0.666,-0.604 0.67,-0.645 0.673,-0.684L0.668,-0.69L0.58,-0.673C0.58,-0.587 0.583,-0.483 0.583,-0.397C0.583,-0.391 0.582,-0.385 0.571,-0.385L0.225,-0.385C0.215,-0.385 0.213,-0.392 0.213,-0.397C0.213,-0.462 0.217,-0.546 0.219,-0.611C0.22,-0.634 0.222,-0.658 0.226,-0.68L0.221,-0.685L0.059,-0.685L0.052,-0.678L0.053,-0.659C0.073,-0.652 0.109,-0.641 0.113,-0.64C0.123,-0.636 0.125,-0.625 0.126,-0.616C0.131,-0.533 0.132,-0.45 0.132,-0.367C0.132,-0.245 0.132,-0.116 0.122,-0.003L0.128,0.002L0.22,-0.026C0.217,-0.052 0.215,-0.078 0.215,-0.104C0.214,-0.171 0.215,-0.267 0.215,-0.334C0.215,-0.341 0.221,-0.346 0.228,-0.346L0.571,-0.346C0.58,-0.346 0.583,-0.339 0.583,-0.334C0.583,-0.237 0.58,-0.118 0.578,-0.021L0.589,-0L0.738,-0.008L0.744,-0.014Z" style="fill-rule:nonzero;"/>
                </g>
                <g transform="matrix(19.4333,0,0,19.4333,732.466,535.884)">
                    <path d="M0.308,-0.712L0.092,-0.639L0.092,-0.612L0.175,-0.612C0.2,-0.612 0.22,-0.591 0.221,-0.566C0.222,-0.541 0.222,-0.468 0.222,-0.419C0.222,-0.279 0.219,-0.139 0.214,-0L0.226,0.005L0.31,-0.022C0.307,-0.098 0.307,-0.296 0.307,-0.432C0.307,-0.521 0.309,-0.611 0.314,-0.7L0.308,-0.712Z" style="fill-rule:nonzero;"/>
                </g>
                <g transform="matrix(19.4333,0,0,19.4333,742.163,535.884)">
                    <path d="M0.125,-0.594C0.125,-0.6 0.131,-0.604 0.137,-0.604C0.185,-0.604 0.311,-0.607 0.398,-0.609L0.425,-0.687L0.09,-0.687L0.083,-0.68L0.083,-0.353L0.096,-0.342C0.128,-0.373 0.169,-0.395 0.213,-0.395C0.247,-0.395 0.281,-0.385 0.305,-0.361C0.341,-0.325 0.352,-0.273 0.352,-0.223C0.352,-0.167 0.337,-0.108 0.298,-0.069C0.268,-0.039 0.227,-0.026 0.186,-0.026C0.158,-0.026 0.132,-0.04 0.113,-0.059C0.092,-0.08 0.079,-0.106 0.067,-0.132L0.056,-0.132L0.012,-0.076L0.013,-0.064C0.054,-0.015 0.115,0.011 0.178,0.011C0.253,0.011 0.325,-0.018 0.378,-0.071C0.425,-0.118 0.448,-0.184 0.448,-0.251C0.448,-0.303 0.433,-0.356 0.395,-0.393C0.359,-0.429 0.308,-0.443 0.257,-0.443C0.211,-0.443 0.166,-0.426 0.125,-0.406L0.125,-0.594Z" style="fill-rule:nonzero;"/>
                </g>
            </g>
        </g>
        <g transform="matrix(1,-0,-0,1,375.869,222.326)">
            <path d="M225.46,115.438L214.682,132.005L213.364,112.284L225.46,115.438Z"/>
            <path d="M450.902,74.002C450.902,74.002 447.558,77.993 439.091,84.76C417.491,102.026 303.815,88.338 244.609,96.572C229.793,98.632 222.264,108.635 218.466,117.49" style="fill:none;stroke:black;stroke-width:4.17px;"/>
        </g>
        <g transform="matrix(1,0,0,1,23.622,0.526182)">
            <g transform="matrix(1,0,0,0.761138,2.84217e-14,230.959)">
                <rect x="472.441" y="472.441" width="70.866" height="94.488" style="fill:white;fill-opacity:0;stroke:black;stroke-width:4.69px;"/>
            </g>
            <g transform="matrix(1,0,0,1,-202.197,117.012)">
                <g transform="matrix(50,0,0,50,693.316,524.784)">
                    <path d="M0.215,-0.066L0.215,-0.338C0.217,-0.342 0.221,-0.345 0.225,-0.345C0.23,-0.346 0.259,-0.346 0.277,-0.346C0.313,-0.346 0.349,-0.344 0.383,-0.335C0.408,-0.328 0.432,-0.319 0.45,-0.301C0.475,-0.276 0.483,-0.241 0.483,-0.208C0.483,-0.164 0.47,-0.121 0.439,-0.089C0.4,-0.051 0.344,-0.039 0.29,-0.039C0.258,-0.039 0.232,-0.041 0.226,-0.045C0.22,-0.049 0.215,-0.053 0.215,-0.066ZM0.215,-0.391L0.215,-0.629C0.217,-0.636 0.221,-0.642 0.228,-0.643C0.248,-0.646 0.268,-0.648 0.288,-0.648C0.315,-0.648 0.342,-0.647 0.368,-0.641C0.385,-0.637 0.403,-0.632 0.415,-0.62C0.435,-0.6 0.449,-0.574 0.449,-0.545C0.449,-0.503 0.436,-0.461 0.406,-0.431C0.37,-0.396 0.32,-0.381 0.269,-0.381C0.254,-0.381 0.231,-0.38 0.223,-0.383C0.22,-0.384 0.216,-0.387 0.215,-0.391ZM0.381,-0.378C0.421,-0.395 0.461,-0.412 0.491,-0.443C0.52,-0.472 0.534,-0.512 0.534,-0.553C0.534,-0.585 0.522,-0.615 0.5,-0.638C0.48,-0.658 0.453,-0.667 0.426,-0.674C0.386,-0.684 0.346,-0.686 0.305,-0.686L0.058,-0.686L0.051,-0.679L0.05,-0.662C0.075,-0.655 0.099,-0.647 0.116,-0.639C0.118,-0.638 0.133,-0.628 0.133,-0.611L0.133,-0.081C0.133,-0.07 0.132,-0.048 0.132,-0.047C0.131,-0.043 0.13,-0.04 0.128,-0.037C0.128,-0.036 0.116,-0.02 0.11,-0.011L0.111,-0.001C0.112,-0.001 0.243,-0 0.309,0.001C0.385,0.001 0.466,-0.012 0.521,-0.068C0.556,-0.103 0.574,-0.151 0.574,-0.201C0.574,-0.244 0.565,-0.284 0.534,-0.315C0.519,-0.33 0.497,-0.343 0.477,-0.349C0.447,-0.358 0.411,-0.366 0.38,-0.37L0.381,-0.378Z" style="fill-rule:nonzero;"/>
                </g>
                <g transform="matrix(19.4333,0,0,19.4333,726.066,535.884)">
                    <path d="M0.472,-0.08L0.467,-0.088L0.158,-0.088C0.153,-0.088 0.148,-0.089 0.146,-0.093C0.145,-0.095 0.146,-0.098 0.147,-0.099C0.197,-0.157 0.245,-0.215 0.29,-0.275C0.322,-0.317 0.353,-0.359 0.378,-0.405C0.404,-0.451 0.426,-0.5 0.426,-0.553C0.426,-0.594 0.414,-0.635 0.384,-0.664C0.355,-0.693 0.316,-0.708 0.275,-0.708C0.237,-0.708 0.201,-0.697 0.168,-0.679C0.128,-0.658 0.094,-0.628 0.064,-0.595L0.084,-0.576C0.108,-0.596 0.13,-0.611 0.158,-0.626C0.177,-0.636 0.199,-0.64 0.221,-0.64C0.25,-0.64 0.28,-0.629 0.3,-0.607C0.328,-0.578 0.334,-0.537 0.334,-0.508C0.334,-0.443 0.311,-0.382 0.276,-0.326C0.248,-0.28 0.213,-0.238 0.178,-0.197C0.125,-0.135 0.069,-0.076 0.012,-0.018L0.012,-0.002L0.449,-0.002L0.472,-0.08Z" style="fill-rule:nonzero;"/>
                </g>
            </g>
        </g>
        <g transform="matrix(1,-2.38698e-15,-2.55351e-15,1,23.622,118.636)">
            <g transform="matrix(1,2.38698e-15,2.55351e-15,1,352.247,103.69)">
                <path d="M46.57,350.13L37.516,367.699L34.218,348.212L46.57,350.13Z"/>
                <path d="M96.572,321.507C96.572,321.507 97.678,331.485 84.76,332.792C74.301,333.85 59.717,333.112 49.327,338.352C44.377,340.849 41.494,346.908 39.819,352.877" style="fill:none;stroke:black;stroke-width:4.17px;"/>
            </g>
        </g>
        <g transform="matrix(-1,-2.38698e-15,2.55351e-15,1,921.307,119.689)">
            <g transform="matrix(-1,-2.38698e-15,2.55351e-15,1,545.438,102.637)">
                <path d="M158.972,349.264L155.674,368.751L146.62,351.183L158.972,349.264Z"/>
                <path d="M96.619,322.56C96.619,322.56 95.512,332.537 108.43,333.844C118.89,334.903 133.473,334.165 143.863,339.404C148.814,341.901 151.697,347.96 153.372,353.929" style="fill:none;stroke:black;stroke-width:4.17px;"/>
            </g>
        </g>
        <g transform="matrix(1,-2.38698e-15,-2.55351e-15,1,259.843,119.689)">
            <g transform="matrix(1,2.38698e-15,2.55351e-15,1,116.027,102.637)">
                <path d="M282.791,351.183L273.737,368.751L270.439,349.264L282.791,351.183Z"/>
                <path d="M332.792,322.56C332.792,322.56 333.899,332.537 320.981,333.844C310.521,334.903 295.938,334.165 285.548,339.404C280.597,341.901 277.714,347.96 276.039,353.929" style="fill:none;stroke:black;stroke-width:4.17px;"/>
            </g>
        </g>
        <g transform="matrix(-1,-2.38698e-15,2.55351e-15,1,1157.53,120.741)">
            <g transform="matrix(-1,-2.38698e-15,2.55351e-15,1,781.658,101.585)">
                <path d="M395.193,350.316L391.895,369.804L382.841,352.235L395.193,350.316Z"/>
                <path d="M332.839,323.612C332.839,323.612 331.732,333.59 344.65,334.897C355.11,335.955 369.694,335.217 380.083,340.457C385.034,342.953 387.917,349.013 389.592,354.981" style="fill:none;stroke:black;stroke-width:4.17px;"/>
            </g>
        </g>
        <g transform="matrix(1,0,0,1,141.732,0.526182)">
            <g transform="matrix(1,0,0,0.761138,2.84217e-14,230.959)">
                <rect x="472.441" y="472.441" width="70.866" height="94.488" style="fill:white;fill-opacity:0;stroke:black;stroke-width:4.69px;"/>
            </g>
            <g transform="matrix(1,0,0,1,-202.197,117.012)">
                <g transform="matrix(50,0,0,50,693.316,524.784)">
                    <path d="M0.215,-0.066L0.215,-0.338C0.217,-0.342 0.221,-0.345 0.225,-0.345C0.23,-0.346 0.259,-0.346 0.277,-0.346C0.313,-0.346 0.349,-0.344 0.383,-0.335C0.408,-0.328 0.432,-0.319 0.45,-0.301C0.475,-0.276 0.483,-0.241 0.483,-0.208C0.483,-0.164 0.47,-0.121 0.439,-0.089C0.4,-0.051 0.344,-0.039 0.29,-0.039C0.258,-0.039 0.232,-0.041 0.226,-0.045C0.22,-0.049 0.215,-0.053 0.215,-0.066ZM0.215,-0.391L0.215,-0.629C0.217,-0.636 0.221,-0.642 0.228,-0.643C0.248,-0.646 0.268,-0.648 0.288,-0.648C0.315,-0.648 0.342,-0.647 0.368,-0.641C0.385,-0.637 0.403,-0.632 0.415,-0.62C0.435,-0.6 0.449,-0.574 0.449,-0.545C0.449,-0.503 0.436,-0.461 0.406,-0.431C0.37,-0.396 0.32,-0.381 0.269,-0.381C0.254,-0.381 0.231,-0.38 0.223,-0.383C0.22,-0.384 0.216,-0.387 0.215,-0.391ZM0.381,-0.378C0.421,-0.395 0.461,-0.412 0.491,-0.443C0.52,-0.472 0.534,-0.512 0.534,-0.553C0.534,-0.585 0.522,-0.615 0.5,-0.638C0.48,-0.658 0.453,-0.667 0.426,-0.674C0.386,-0.684 0.346,-0.686 0.305,-0.686L0.058,-0.686L0.051,-0.679L0.05,-0.662C0.075,-0.655 0.099,-0.647 0.116,-0.639C0.118,-0.638 0.133,-0.628 0.133,-0.611L0.133,-0.081C0.133,-0.07 0.132,-0.048 0.132,-0.047C0.131,-0.043 0.13,-0.04 0.128,-0.037C0.128,-0.036 0.116,-0.02 0.11,-0.011L0.111,-0.001C0.112,-0.001 0.243,-0 0.309,0.001C0.385,0.001 0.466,-0.012 0.521,-0.068C0.556,-0.103 0.574,-0.151 0.574,-0.201C0.574,-0.244 0.565,-0.284 0.534,-0.315C0.519,-0.33 0.497,-0.343 0.477,-0.349C0.447,-0.358 0.411,-0.366 0.38,-0.37L0.381,-0.378Z" style="fill-rule:nonzero;"/>
                </g>
                <g transform="matrix(19.4333,0,0,19.4333,726.066,535.884)">
                    <path d="M0.241,-0.382C0.282,-0.394 0.321,-0.416 0.352,-0.446C0.384,-0.478 0.399,-0.523 0.399,-0.568C0.399,-0.604 0.387,-0.64 0.361,-0.665C0.333,-0.694 0.292,-0.702 0.253,-0.702C0.225,-0.702 0.198,-0.691 0.173,-0.678C0.137,-0.659 0.103,-0.634 0.072,-0.608L0.086,-0.586C0.109,-0.601 0.132,-0.615 0.157,-0.626C0.174,-0.633 0.191,-0.639 0.208,-0.639C0.238,-0.639 0.267,-0.632 0.288,-0.611C0.307,-0.592 0.317,-0.567 0.317,-0.54C0.317,-0.502 0.302,-0.465 0.274,-0.437C0.258,-0.421 0.237,-0.409 0.215,-0.399C0.187,-0.386 0.156,-0.378 0.126,-0.371L0.125,-0.345C0.162,-0.345 0.199,-0.343 0.235,-0.334C0.26,-0.328 0.285,-0.319 0.303,-0.3C0.332,-0.269 0.352,-0.229 0.352,-0.186C0.352,-0.141 0.338,-0.095 0.306,-0.063C0.279,-0.036 0.243,-0.023 0.206,-0.023C0.17,-0.023 0.136,-0.041 0.111,-0.067C0.095,-0.083 0.082,-0.101 0.07,-0.121L0.06,-0.121L0.018,-0.049L0.025,-0.038C0.07,-0.003 0.124,0.017 0.181,0.017C0.254,0.017 0.325,-0.008 0.377,-0.059C0.419,-0.101 0.446,-0.156 0.446,-0.215C0.446,-0.254 0.433,-0.291 0.406,-0.318C0.388,-0.336 0.364,-0.347 0.341,-0.355C0.308,-0.366 0.275,-0.371 0.241,-0.374L0.241,-0.382Z" style="fill-rule:nonzero;"/>
                </g>
            </g>
        </g>
        <g transform="matrix(1,0,0,1,200.787,-117.584)">
            <g transform="matrix(1,0,0,0.761138,2.84217e-14,230.959)">
                <rect x="472.441" y="472.441" width="70.866" height="94.488" style="fill:white;fill-opacity:0;stroke:black;stroke-width:4.69px;"/>
            </g>
            <g transform="matrix(1,0,0,1,-213.307,113.625)">
                <g transform="matrix(50,0,0,50,693.316,524.784)">
                    <path d="M0.744,-0.014L0.743,-0.032C0.742,-0.032 0.713,-0.04 0.695,-0.045C0.679,-0.049 0.666,-0.062 0.666,-0.079C0.66,-0.241 0.661,-0.403 0.665,-0.565C0.666,-0.604 0.67,-0.645 0.673,-0.684L0.668,-0.69L0.58,-0.673C0.58,-0.587 0.583,-0.483 0.583,-0.397C0.583,-0.391 0.582,-0.385 0.571,-0.385L0.225,-0.385C0.215,-0.385 0.213,-0.392 0.213,-0.397C0.213,-0.462 0.217,-0.546 0.219,-0.611C0.22,-0.634 0.222,-0.658 0.226,-0.68L0.221,-0.685L0.059,-0.685L0.052,-0.678L0.053,-0.659C0.073,-0.652 0.109,-0.641 0.113,-0.64C0.123,-0.636 0.125,-0.625 0.126,-0.616C0.131,-0.533 0.132,-0.45 0.132,-0.367C0.132,-0.245 0.132,-0.116 0.122,-0.003L0.128,0.002L0.22,-0.026C0.217,-0.052 0.215,-0.078 0.215,-0.104C0.214,-0.171 0.215,-0.267 0.215,-0.334C0.215,-0.341 0.221,-0.346 0.228,-0.346L0.571,-0.346C0.58,-0.346 0.583,-0.339 0.583,-0.334C0.583,-0.237 0.58,-0.118 0.578,-0.021L0.589,-0L0.738,-0.008L0.744,-0.014Z" style="fill-rule:nonzero;"/>
                </g>
                <g transform="matrix(19.4333,0,0,19.4333,732.466,535.884)">
                    <path d="M0.241,-0.382C0.282,-0.394 0.321,-0.416 0.352,-0.446C0.384,-0.478 0.399,-0.523 0.399,-0.568C0.399,-0.604 0.387,-0.64 0.361,-0.665C0.333,-0.694 0.292,-0.702 0.253,-0.702C0.225,-0.702 0.198,-0.691 0.173,-0.678C0.137,-0.659 0.103,-0.634 0.072,-0.608L0.086,-0.586C0.109,-0.601 0.132,-0.615 0.157,-0.626C0.174,-0.633 0.191,-0.639 0.208,-0.639C0.238,-0.639 0.267,-0.632 0.288,-0.611C0.307,-0.592 0.317,-0.567 0.317,-0.54C0.317,-0.502 0.302,-0.465 0.274,-0.437C0.258,-0.421 0.237,-0.409 0.215,-0.399C0.187,-0.386 0.156,-0.378 0.126,-0.371L0.125,-0.345C0.162,-0.345 0.199,-0.343 0.235,-0.334C0.26,-0.328 0.285,-0.319 0.303,-0.3C0.332,-0.269 0.352,-0.229 0.352,-0.186C0.352,-0.141 0.338,-0.095 0.306,-0.063C0.279,-0.036 0.243,-0.023 0.206,-0.023C0.17,-0.023 0.136,-0.041 0.111,-0.067C0.095,-0.083 0.082,-0.101 0.07,-0.121L0.06,-0.121L0.018,-0.049L0.025,-0.038C0.07,-0.003 0.124,0.017 0.181,0.017C0.254,0.017 0.325,-0.008 0.377,-0.059C0.419,-0.101 0.446,-0.156 0.446,-0.215C0.446,-0.254 0.433,-0.291 0.406,-0.318C0.388,-0.336 0.364,-0.347 0.341,-0.355C0.308,-0.366 0.275,-0.371 0.241,-0.374L0.241,-0.382Z" style="fill-rule:nonzero;"/>
                </g>
                <g transform="matrix(19.4333,0,0,19.4333,742.163,535.884)">
                    <path d="M0.361,-0.704L0.285,-0.669L-0.001,-0.235L-0.001,-0.191L0.283,-0.191L0.29,-0.182C0.29,-0.119 0.29,-0.036 0.285,-0.001L0.29,0.005L0.37,-0.028C0.367,-0.05 0.367,-0.129 0.367,-0.183L0.375,-0.191L0.457,-0.191L0.473,-0.228L0.468,-0.235L0.374,-0.235L0.367,-0.244C0.367,-0.399 0.367,-0.671 0.368,-0.698L0.361,-0.704ZM0.29,-0.243L0.284,-0.235L0.069,-0.235L0.064,-0.242C0.065,-0.264 0.149,-0.402 0.187,-0.461C0.216,-0.506 0.246,-0.552 0.28,-0.591C0.282,-0.593 0.287,-0.594 0.289,-0.591C0.289,-0.59 0.29,-0.587 0.29,-0.585L0.29,-0.243Z" style="fill-rule:nonzero;"/>
                </g>
            </g>
        </g>
        <g transform="matrix(1,0,0,1,259.843,1.57855)">
            <g transform="matrix(1,0,0,0.761138,2.84217e-14,230.959)">
                <rect x="472.441" y="472.441" width="70.866" height="94.488" style="fill:white;fill-opacity:0;stroke:black;stroke-width:4.69px;"/>
            </g>
            <g transform="matrix(1,0,0,1,-202.197,117.012)">
                <g transform="matrix(50,0,0,50,693.316,524.784)">
                    <path d="M0.215,-0.066L0.215,-0.338C0.217,-0.342 0.221,-0.345 0.225,-0.345C0.23,-0.346 0.259,-0.346 0.277,-0.346C0.313,-0.346 0.349,-0.344 0.383,-0.335C0.408,-0.328 0.432,-0.319 0.45,-0.301C0.475,-0.276 0.483,-0.241 0.483,-0.208C0.483,-0.164 0.47,-0.121 0.439,-0.089C0.4,-0.051 0.344,-0.039 0.29,-0.039C0.258,-0.039 0.232,-0.041 0.226,-0.045C0.22,-0.049 0.215,-0.053 0.215,-0.066ZM0.215,-0.391L0.215,-0.629C0.217,-0.636 0.221,-0.642 0.228,-0.643C0.248,-0.646 0.268,-0.648 0.288,-0.648C0.315,-0.648 0.342,-0.647 0.368,-0.641C0.385,-0.637 0.403,-0.632 0.415,-0.62C0.435,-0.6 0.449,-0.574 0.449,-0.545C0.449,-0.503 0.436,-0.461 0.406,-0.431C0.37,-0.396 0.32,-0.381 0.269,-0.381C0.254,-0.381 0.231,-0.38 0.223,-0.383C0.22,-0.384 0.216,-0.387 0.215,-0.391ZM0.381,-0.378C0.421,-0.395 0.461,-0.412 0.491,-0.443C0.52,-0.472 0.534,-0.512 0.534,-0.553C0.534,-0.585 0.522,-0.615 0.5,-0.638C0.48,-0.658 0.453,-0.667 0.426,-0.674C0.386,-0.684 0.346,-0.686 0.305,-0.686L0.058,-0.686L0.051,-0.679L0.05,-0.662C0.075,-0.655 0.099,-0.647 0.116,-0.639C0.118,-0.638 0.133,-0.628 0.133,-0.611L0.133,-0.081C0.133,-0.07 0.132,-0.048 0.132,-0.047C0.131,-0.043 0.13,-0.04 0.128,-0.037C0.128,-0.036 0.116,-0.02 0.11,-0.011L0.111,-0.001C0.112,-0.001 0.243,-0 0.309,0.001C0.385,0.001 0.466,-0.012 0.521,-0.068C0.556,-0.103 0.574,-0.151 0.574,-0.201C0.574,-0.244 0.565,-0.284 0.534,-0.315C0.519,-0.33 0.497,-0.343 0.477,-0.349C0.447,-0.358 0.411,-0.366 0.38,-0.37L0.381,-0.378Z" style="fill-rule:nonzero;"/>
                </g>
                <g transform="matrix(19.4333,0,0,19.4333,726.066,535.884)">
                    <path d="M0.361,-0.704L0.285,-0.669L-0.001,-0.235L-0.001,-0.191L0.283,-0.191L0.29,-0.182C0.29,-0.119 0.29,-0.036 0.285,-0.001L0.29,0.005L0.37,-0.028C0.367,-0.05 0.367,-0.129 0.367,-0.183L0.375,-0.191L0.457,-0.191L0.473,-0.228L0.468,-0.235L0.374,-0.235L0.367,-0.244C0.367,-0.399 0.367,-0.671 0.368,-0.698L0.361,-0.704ZM0.29,-0.243L0.284,-0.235L0.069,-0.235L0.064,-0.242C0.065,-0.264 0.149,-0.402 0.187,-0.461C0.216,-0.506 0.246,-0.552 0.28,-0.591C0.282,-0.593 0.287,-0.594 0.289,-0.591C0.289,-0.59 0.29,-0.587 0.29,-0.585L0.29,-0.243Z" style="fill-rule:nonzero;"/>
                </g>
            </g>
        </g>
        <g transform="matrix(1,0,0,1,377.953,0.526182)">
            <g transform="matrix(1,0,0,0.761138,2.84217e-14,230.959)">
                <rect x="472.441" y="472.441" width="70.866" height="94.488" style="fill:white;fill-opacity:0;stroke:black;stroke-width:4.69px;"/>
            </g>
            <g transform="matrix(1,0,0,1,-202.197,117.012)">
                <g transform="matrix(50,0,0,50,693.316,524.784)">
                    <path d="M0.215,-0.066L0.215,-0.338C0.217,-0.342 0.221,-0.345 0.225,-0.345C0.23,-0.346 0.259,-0.346 0.277,-0.346C0.313,-0.346 0.349,-0.344 0.383,-0.335C0.408,-0.328 0.432,-0.319 0.45,-0.301C0.475,-0.276 0.483,-0.241 0.483,-0.208C0.483,-0.164 0.47,-0.121 0.439,-0.089C0.4,-0.051 0.344,-0.039 0.29,-0.039C0.258,-0.039 0.232,-0.041 0.226,-0.045C0.22,-0.049 0.215,-0.053 0.215,-0.066ZM0.215,-0.391L0.215,-0.629C0.217,-0.636 0.221,-0.642 0.228,-0.643C0.248,-0.646 0.268,-0.648 0.288,-0.648C0.315,-0.648 0.342,-0.647 0.368,-0.641C0.385,-0.637 0.403,-0.632 0.415,-0.62C0.435,-0.6 0.449,-0.574 0.449,-0.545C0.449,-0.503 0.436,-0.461 0.406,-0.431C0.37,-0.396 0.32,-0.381 0.269,-0.381C0.254,-0.381 0.231,-0.38 0.223,-0.383C0.22,-0.384 0.216,-0.387 0.215,-0.391ZM0.381,-0.378C0.421,-0.395 0.461,-0.412 0.491,-0.443C0.52,-0.472 0.534,-0.512 0.534,-0.553C0.534,-0.585 0.522,-0.615 0.5,-0.638C0.48,-0.658 0.453,-0.667 0.426,-0.674C0.386,-0.684 0.346,-0.686 0.305,-0.686L0.058,-0.686L0.051,-0.679L0.05,-0.662C0.075,-0.655 0.099,-0.647 0.116,-0.639C0.118,-0.638 0.133,-0.628 0.133,-0.611L0.133,-0.081C0.133,-0.07 0.132,-0.048 0.132,-0.047C0.131,-0.043 0.13,-0.04 0.128,-0.037C0.128,-0.036 0.116,-0.02 0.11,-0.011L0.111,-0.001C0.112,-0.001 0.243,-0 0.309,0.001C0.385,0.001 0.466,-0.012 0.521,-0.068C0.556,-0.103 0.574,-0.151 0.574,-0.201C0.574,-0.244 0.565,-0.284 0.534,-0.315C0.519,-0.33 0.497,-0.343 0.477,-0.349C0.447,-0.358 0.411,-0.366 0.38,-0.37L0.381,-0.378Z" style="fill-rule:nonzero;"/>
                </g>
                <g transform="matrix(19.4333,0,0,19.4333,726.066,535.884)">
                    <path d="M0.125,-0.594C0.125,-0.6 0.131,-0.604 0.137,-0.604C0.185,-0.604 0.311,-0.607 0.398,-0.609L0.425,-0.687L0.09,-0.687L0.083,-0.68L0.083,-0.353L0.096,-0.342C0.128,-0.373 0.169,-0.395 0.213,-0.395C0.247,-0.395 0.281,-0.385 0.305,-0.361C0.341,-0.325 0.352,-0.273 0.352,-0.223C0.352,-0.167 0.337,-0.108 0.298,-0.069C0.268,-0.039 0.227,-0.026 0.186,-0.026C0.158,-0.026 0.132,-0.04 0.113,-0.059C0.092,-0.08 0.079,-0.106 0.067,-0.132L0.056,-0.132L0.012,-0.076L0.013,-0.064C0.054,-0.015 0.115,0.011 0.178,0.011C0.253,0.011 0.325,-0.018 0.378,-0.071C0.425,-0.118 0.448,-0.184 0.448,-0.251C0.448,-0.303 0.433,-0.356 0.395,-0.393C0.359,-0.429 0.308,-0.443 0.257,-0.443C0.211,-0.443 0.166,-0.426 0.125,-0.406L0.125,-0.594Z" style="fill-rule:nonzero;"/>
                </g>
            </g>
        </g>
        <g transform="matrix(1,0,0,1,23.622,71.9185)">
            <g transform="matrix(1,-0,-0,1,352.247,150.408)">
                <path d="M111.376,236.495L96.572,249.589L100.559,230.231L111.376,236.495Z"/>
                <path d="M214.682,203.923C214.682,203.923 214.093,207.778 202.871,214.682C189.371,222.987 137.006,210.978 120.194,220.242C113.883,223.718 108.263,230.462 104.088,236.608" style="fill:none;stroke:black;stroke-width:4.17px;"/>
            </g>
        </g>
        <g transform="matrix(-1,0,0,1,1157.48,72.4447)">
            <g transform="matrix(-1,0,0,1,781.611,149.881)">
                <path d="M328.804,230.757L332.792,250.115L317.987,237.021L328.804,230.757Z"/>
                <path d="M214.682,204.449C214.682,204.449 215.271,208.304 226.493,215.208C239.992,223.513 292.357,211.505 309.17,220.768C315.48,224.245 321.101,230.988 325.275,237.134" style="fill:none;stroke:black;stroke-width:4.17px;"/>
            </g>
        </g>
        <g transform="matrix(1,-0,-0,1,375.869,222.326)">
            <path d="M514.879,349.083L509.957,368.225L502.409,349.959L514.879,349.083Z"/>
            <path d="M450.902,74.002C450.902,74.002 472.051,123.882 474.524,132.005C484.507,164.791 486.239,170.206 498.146,238.304C501.924,259.909 506.797,323.942 508.907,353.262" style="fill:none;stroke:black;stroke-width:4.17px;"/>
        </g>
        <g transform="matrix(1,0,0,1,708.661,-0.526182)">
            <g transform="matrix(1,0,0,0.761138,2.84217e-14,230.959)">
                <rect x="472.441" y="472.441" width="70.866" height="94.488" style="fill:white;fill-opacity:0;stroke:black;stroke-width:4.69px;"/>
            </g>
            <g transform="matrix(1,0,0,1,-202.197,117.012)">
                <g transform="matrix(50,0,0,50,693.316,524.784)">
                    <path d="M0.215,-0.066L0.215,-0.338C0.217,-0.342 0.221,-0.345 0.225,-0.345C0.23,-0.346 0.259,-0.346 0.277,-0.346C0.313,-0.346 0.349,-0.344 0.383,-0.335C0.408,-0.328 0.432,-0.319 0.45,-0.301C0.475,-0.276 0.483,-0.241 0.483,-0.208C0.483,-0.164 0.47,-0.121 0.439,-0.089C0.4,-0.051 0.344,-0.039 0.29,-0.039C0.258,-0.039 0.232,-0.041 0.226,-0.045C0.22,-0.049 0.215,-0.053 0.215,-0.066ZM0.215,-0.391L0.215,-0.629C0.217,-0.636 0.221,-0.642 0.228,-0.643C0.248,-0.646 0.268,-0.648 0.288,-0.648C0.315,-0.648 0.342,-0.647 0.368,-0.641C0.385,-0.637 0.403,-0.632 0.415,-0.62C0.435,-0.6 0.449,-0.574 0.449,-0.545C0.449,-0.503 0.436,-0.461 0.406,-0.431C0.37,-0.396 0.32,-0.381 0.269,-0.381C0.254,-0.381 0.231,-0.38 0.223,-0.383C0.22,-0.384 0.216,-0.387 0.215,-0.391ZM0.381,-0.378C0.421,-0.395 0.461,-0.412 0.491,-0.443C0.52,-0.472 0.534,-0.512 0.534,-0.553C0.534,-0.585 0.522,-0.615 0.5,-0.638C0.48,-0.658 0.453,-0.667 0.426,-0.674C0.386,-0.684 0.346,-0.686 0.305,-0.686L0.058,-0.686L0.051,-0.679L0.05,-0.662C0.075,-0.655 0.099,-0.647 0.116,-0.639C0.118,-0.638 0.133,-0.628 0.133,-0.611L0.133,-0.081C0.133,-0.07 0.132,-0.048 0.132,-0.047C0.131,-0.043 0.13,-0.04 0.128,-0.037C0.128,-0.036 0.116,-0.02 0.11,-0.011L0.111,-0.001C0.112,-0.001 0.243,-0 0.309,0.001C0.385,0.001 0.466,-0.012 0.521,-0.068C0.556,-0.103 0.574,-0.151 0.574,-0.201C0.574,-0.244 0.565,-0.284 0.534,-0.315C0.519,-0.33 0.497,-0.343 0.477,-0.349C0.447,-0.358 0.411,-0.366 0.38,-0.37L0.381,-0.378Z" style="fill-rule:nonzero;"/>
                </g>
                <g transform="matrix(19.4333,0,0,19.4333,726.066,535.884)">
                    <path d="M0.308,-0.712L0.092,-0.639L0.092,-0.612L0.175,-0.612C0.2,-0.612 0.22,-0.591 0.221,-0.566C0.222,-0.541 0.222,-0.468 0.222,-0.419C0.222,-0.279 0.219,-0.139 0.214,-0L0.226,0.005L0.31,-0.022C0.307,-0.098 0.307,-0.296 0.307,-0.432C0.307,-0.521 0.309,-0.611 0.314,-0.7L0.308,-0.712Z" style="fill-rule:nonzero;"/>
                </g>
            </g>
        </g>
        <g transform="matrix(1,0,0,1,767.717,-118.636)">
            <g transform="matrix(1,0,0,0.761138,2.84217e-14,230.959)">
                <rect x="472.441" y="472.441" width="70.866" height="94.488" style="fill:white;fill-opacity:0;stroke:black;stroke-width:4.69px;"/>
            </g>
            <g transform="matrix(1,0,0,1,-213.307,113.625)">
                <g transform="matrix(50,0,0,50,693.316,524.784)">
                    <path d="M0.744,-0.014L0.743,-0.032C0.742,-0.032 0.713,-0.04 0.695,-0.045C0.679,-0.049 0.666,-0.062 0.666,-0.079C0.66,-0.241 0.661,-0.403 0.665,-0.565C0.666,-0.604 0.67,-0.645 0.673,-0.684L0.668,-0.69L0.58,-0.673C0.58,-0.587 0.583,-0.483 0.583,-0.397C0.583,-0.391 0.582,-0.385 0.571,-0.385L0.225,-0.385C0.215,-0.385 0.213,-0.392 0.213,-0.397C0.213,-0.462 0.217,-0.546 0.219,-0.611C0.22,-0.634 0.222,-0.658 0.226,-0.68L0.221,-0.685L0.059,-0.685L0.052,-0.678L0.053,-0.659C0.073,-0.652 0.109,-0.641 0.113,-0.64C0.123,-0.636 0.125,-0.625 0.126,-0.616C0.131,-0.533 0.132,-0.45 0.132,-0.367C0.132,-0.245 0.132,-0.116 0.122,-0.003L0.128,0.002L0.22,-0.026C0.217,-0.052 0.215,-0.078 0.215,-0.104C0.214,-0.171 0.215,-0.267 0.215,-0.334C0.215,-0.341 0.221,-0.346 0.228,-0.346L0.571,-0.346C0.58,-0.346 0.583,-0.339 0.583,-0.334C0.583,-0.237 0.58,-0.118 0.578,-0.021L0.589,-0L0.738,-0.008L0.744,-0.014Z" style="fill-rule:nonzero;"/>
                </g>
                <g transform="matrix(19.4333,0,0,19.4333,732.466,535.884)">
                    <path d="M0.308,-0.712L0.092,-0.639L0.092,-0.612L0.175,-0.612C0.2,-0.612 0.22,-0.591 0.221,-0.566C0.222,-0.541 0.222,-0.468 0.222,-0.419C0.222,-0.279 0.219,-0.139 0.214,-0L0.226,0.005L0.31,-0.022C0.307,-0.098 0.307,-0.296 0.307,-0.432C0.307,-0.521 0.309,-0.611 0.314,-0.7L0.308,-0.712Z" style="fill-rule:nonzero;"/>
                </g>
                <g transform="matrix(19.4333,0,0,19.4333,742.163,535.884)">
                    <path d="M0.472,-0.08L0.467,-0.088L0.158,-0.088C0.153,-0.088 0.148,-0.089 0.146,-0.093C0.145,-0.095 0.146,-0.098 0.147,-0.099C0.197,-0.157 0.245,-0.215 0.29,-0.275C0.322,-0.317 0.353,-0.359 0.378,-0.405C0.404,-0.451 0.426,-0.5 0.426,-0.553C0.426,-0.594 0.414,-0.635 0.384,-0.664C0.355,-0.693 0.316,-0.708 0.275,-0.708C0.237,-0.708 0.201,-0.697 0.168,-0.679C0.128,-0.658 0.094,-0.628 0.064,-0.595L0.084,-0.576C0.108,-0.596 0.13,-0.611 0.158,-0.626C0.177,-0.636 0.199,-0.64 0.221,-0.64C0.25,-0.64 0.28,-0.629 0.3,-0.607C0.328,-0.578 0.334,-0.537 0.334,-0.508C0.334,-0.443 0.311,-0.382 0.276,-0.326C0.248,-0.28 0.213,-0.238 0.178,-0.197C0.125,-0.135 0.069,-0.076 0.012,-0.018L0.012,-0.002L0.449,-0.002L0.472,-0.08Z" style="fill-rule:nonzero;"/>
                </g>
            </g>
        </g>
        <g transform="matrix(1,0,0,1,885.827,-236.22)">
            <g transform="matrix(1,0,0,0.761138,2.84217e-14,230.959)">
                <rect x="472.441" y="472.441" width="70.866" height="94.488" style="fill:white;fill-opacity:0;stroke:black;stroke-width:4.69px;"/>
            </g>
            <g transform="matrix(1,0,0,1,-213.307,113.625)">
                <g transform="matrix(50,0,0,50,693.316,524.784)">
                    <path d="M0.744,-0.014L0.743,-0.032C0.742,-0.032 0.713,-0.04 0.695,-0.045C0.679,-0.049 0.666,-0.062 0.666,-0.079C0.66,-0.241 0.661,-0.403 0.665,-0.565C0.666,-0.604 0.67,-0.645 0.673,-0.684L0.668,-0.69L0.58,-0.673C0.58,-0.587 0.583,-0.483 0.583,-0.397C0.583,-0.391 0.582,-0.385 0.571,-0.385L0.225,-0.385C0.215,-0.385 0.213,-0.392 0.213,-0.397C0.213,-0.462 0.217,-0.546 0.219,-0.611C0.22,-0.634 0.222,-0.658 0.226,-0.68L0.221,-0.685L0.059,-0.685L0.052,-0.678L0.053,-0.659C0.073,-0.652 0.109,-0.641 0.113,-0.64C0.123,-0.636 0.125,-0.625 0.126,-0.616C0.131,-0.533 0.132,-0.45 0.132,-0.367C0.132,-0.245 0.132,-0.116 0.122,-0.003L0.128,0.002L0.22,-0.026C0.217,-0.052 0.215,-0.078 0.215,-0.104C0.214,-0.171 0.215,-0.267 0.215,-0.334C0.215,-0.341 0.221,-0.346 0.228,-0.346L0.571,-0.346C0.58,-0.346 0.583,-0.339 0.583,-0.334C0.583,-0.237 0.58,-0.118 0.578,-0.021L0.589,-0L0.738,-0.008L0.744,-0.014Z" style="fill-rule:nonzero;"/>
                </g>
                <g transform="matrix(19.4333,0,0,19.4333,732.466,535.884)">
                    <path d="M0.308,-0.712L0.092,-0.639L0.092,-0.612L0.175,-0.612C0.2,-0.612 0.22,-0.591 0.221,-0.566C0.222,-0.541 0.222,-0.468 0.222,-0.419C0.222,-0.279 0.219,-0.139 0.214,-0L0.226,0.005L0.31,-0.022C0.307,-0.098 0.307,-0.296 0.307,-0.432C0.307,-0.521 0.309,-0.611 0.314,-0.7L0.308,-0.712Z" style="fill-rule:nonzero;"/>
                </g>
                <g transform="matrix(19.4333,0,0,19.4333,742.163,535.884)">
                    <path d="M0.361,-0.704L0.285,-0.669L-0.001,-0.235L-0.001,-0.191L0.283,-0.191L0.29,-0.182C0.29,-0.119 0.29,-0.036 0.285,-0.001L0.29,0.005L0.37,-0.028C0.367,-0.05 0.367,-0.129 0.367,-0.183L0.375,-0.191L0.457,-0.191L0.473,-0.228L0.468,-0.235L0.374,-0.235L0.367,-0.244C0.367,-0.399 0.367,-0.671 0.368,-0.698L0.361,-0.704ZM0.29,-0.243L0.284,-0.235L0.069,-0.235L0.064,-0.242C0.065,-0.264 0.149,-0.402 0.187,-0.461C0.216,-0.506 0.246,-0.552 0.28,-0.591C0.282,-0.593 0.287,-0.594 0.289,-0.591C0.289,-0.59 0.29,-0.587 0.29,-0.585L0.29,-0.243Z" style="fill-rule:nonzero;"/>
                </g>
            </g>
        </g>
        <g transform="matrix(1,0,0,1,1122.05,-366.142)">
            <g transform="matrix(1,0,0,0.761138,2.84217e-14,230.959)">
                <rect x="472.441" y="472.441" width="70.866" height="94.488" style="fill:white;fill-opacity:0;stroke:black;stroke-width:4.69px;"/>
            </g>
            <g transform="matrix(1,0,0,1,-213.307,113.625)">
                <g transform="matrix(50,0,0,50,693.316,524.784)">
                    <path d="M0.744,-0.014L0.743,-0.032C0.742,-0.032 0.713,-0.04 0.695,-0.045C0.679,-0.049 0.666,-0.062 0.666,-0.079C0.66,-0.241 0.661,-0.403 0.665,-0.565C0.666,-0.604 0.67,-0.645 0.673,-0.684L0.668,-0.69L0.58,-0.673C0.58,-0.587 0.583,-0.483 0.583,-0.397C0.583,-0.391 0.582,-0.385 0.571,-0.385L0.225,-0.385C0.215,-0.385 0.213,-0.392 0.213,-0.397C0.213,-0.462 0.217,-0.546 0.219,-0.611C0.22,-0.634 0.222,-0.658 0.226,-0.68L0.221,-0.685L0.059,-0.685L0.052,-0.678L0.053,-0.659C0.073,-0.652 0.109,-0.641 0.113,-0.64C0.123,-0.636 0.125,-0.625 0.126,-0.616C0.131,-0.533 0.132,-0.45 0.132,-0.367C0.132,-0.245 0.132,-0.116 0.122,-0.003L0.128,0.002L0.22,-0.026C0.217,-0.052 0.215,-0.078 0.215,-0.104C0.214,-0.171 0.215,-0.267 0.215,-0.334C0.215,-0.341 0.221,-0.346 0.228,-0.346L0.571,-0.346C0.58,-0.346 0.583,-0.339 0.583,-0.334C0.583,-0.237 0.58,-0.118 0.578,-0.021L0.589,-0L0.738,-0.008L0.744,-0.014Z" style="fill-rule:nonzero;"/>
                </g>
                <g transform="matrix(19.4333,0,0,19.4333,732.466,535.884)">
                    <path d="M0.308,-0.712L0.092,-0.639L0.092,-0.612L0.175,-0.612C0.2,-0.612 0.22,-0.591 0.221,-0.566C0.222,-0.541 0.222,-0.468 0.222,-0.419C0.222,-0.279 0.219,-0.139 0.214,-0L0.226,0.005L0.31,-0.022C0.307,-0.098 0.307,-0.296 0.307,-0.432C0.307,-0.521 0.309,-0.611 0.314,-0.7L0.308,-0.712Z" style="fill-rule:nonzero;"/>
                </g>
                <g transform="matrix(19.4333,0,0,19.4333,742.163,535.884)">
                    <path d="M0.471,-0.688C0.456,-0.694 0.431,-0.7 0.416,-0.7C0.375,-0.7 0.335,-0.687 0.299,-0.668C0.254,-0.645 0.214,-0.613 0.179,-0.576C0.09,-0.487 0.045,-0.363 0.045,-0.238C0.045,-0.164 0.062,-0.087 0.115,-0.034C0.147,-0.002 0.191,0.013 0.236,0.013C0.298,0.013 0.356,-0.013 0.399,-0.056C0.441,-0.098 0.471,-0.151 0.471,-0.211C0.471,-0.256 0.456,-0.301 0.424,-0.334C0.397,-0.361 0.359,-0.377 0.321,-0.377C0.252,-0.377 0.189,-0.348 0.136,-0.305L0.129,-0.306C0.13,-0.402 0.149,-0.503 0.228,-0.576C0.269,-0.614 0.323,-0.641 0.384,-0.641C0.404,-0.641 0.422,-0.638 0.442,-0.63L0.451,-0.634L0.471,-0.688ZM0.132,-0.265C0.154,-0.286 0.215,-0.314 0.256,-0.314C0.289,-0.314 0.323,-0.303 0.346,-0.279C0.375,-0.251 0.392,-0.212 0.392,-0.172C0.392,-0.131 0.38,-0.091 0.351,-0.063C0.328,-0.04 0.295,-0.032 0.263,-0.032C0.238,-0.032 0.213,-0.043 0.195,-0.06C0.174,-0.081 0.157,-0.11 0.148,-0.139C0.136,-0.179 0.132,-0.224 0.132,-0.265Z" style="fill-rule:nonzero;"/>
                </g>
            </g>
        </g>
        <g transform="matrix(1,0,0,1,803.15,2.84217e-14)">
            <g transform="matrix(1,-0,-0,1,-427.28,222.326)">
                <path d="M1028.61,115.438L1017.83,132.005L1016.51,112.284L1028.61,115.438Z"/>
                <path d="M1254.05,74.002C1254.05,74.002 1250.71,77.993 1242.24,84.76C1220.64,102.026 1106.96,88.338 1047.76,96.572C1032.94,98.632 1025.41,108.635 1021.62,117.49" style="fill:none;stroke:black;stroke-width:4.17px;"/>
            </g>
        </g>
        <g transform="matrix(1,0,0,1,826.772,0.526182)">
            <g transform="matrix(1,0,0,0.761138,2.84217e-14,230.959)">
                <rect x="472.441" y="472.441" width="70.866" height="94.488" style="fill:white;fill-opacity:0;stroke:black;stroke-width:4.69px;"/>
            </g>
            <g transform="matrix(1,0,0,1,-202.197,117.012)">
                <g transform="matrix(50,0,0,50,693.316,524.784)">
                    <path d="M0.215,-0.066L0.215,-0.338C0.217,-0.342 0.221,-0.345 0.225,-0.345C0.23,-0.346 0.259,-0.346 0.277,-0.346C0.313,-0.346 0.349,-0.344 0.383,-0.335C0.408,-0.328 0.432,-0.319 0.45,-0.301C0.475,-0.276 0.483,-0.241 0.483,-0.208C0.483,-0.164 0.47,-0.121 0.439,-0.089C0.4,-0.051 0.344,-0.039 0.29,-0.039C0.258,-0.039 0.232,-0.041 0.226,-0.045C0.22,-0.049 0.215,-0.053 0.215,-0.066ZM0.215,-0.391L0.215,-0.629C0.217,-0.636 0.221,-0.642 0.228,-0.643C0.248,-0.646 0.268,-0.648 0.288,-0.648C0.315,-0.648 0.342,-0.647 0.368,-0.641C0.385,-0.637 0.403,-0.632 0.415,-0.62C0.435,-0.6 0.449,-0.574 0.449,-0.545C0.449,-0.503 0.436,-0.461 0.406,-0.431C0.37,-0.396 0.32,-0.381 0.269,-0.381C0.254,-0.381 0.231,-0.38 0.223,-0.383C0.22,-0.384 0.216,-0.387 0.215,-0.391ZM0.381,-0.378C0.421,-0.395 0.461,-0.412 0.491,-0.443C0.52,-0.472 0.534,-0.512 0.534,-0.553C0.534,-0.585 0.522,-0.615 0.5,-0.638C0.48,-0.658 0.453,-0.667 0.426,-0.674C0.386,-0.684 0.346,-0.686 0.305,-0.686L0.058,-0.686L0.051,-0.679L0.05,-0.662C0.075,-0.655 0.099,-0.647 0.116,-0.639C0.118,-0.638 0.133,-0.628 0.133,-0.611L0.133,-0.081C0.133,-0.07 0.132,-0.048 0.132,-0.047C0.131,-0.043 0.13,-0.04 0.128,-0.037C0.128,-0.036 0.116,-0.02 0.11,-0.011L0.111,-0.001C0.112,-0.001 0.243,-0 0.309,0.001C0.385,0.001 0.466,-0.012 0.521,-0.068C0.556,-0.103 0.574,-0.151 0.574,-0.201C0.574,-0.244 0.565,-0.284 0.534,-0.315C0.519,-0.33 0.497,-0.343 0.477,-0.349C0.447,-0.358 0.411,-0.366 0.38,-0.37L0.381,-0.378Z" style="fill-rule:nonzero;"/>
                </g>
                <g transform="matrix(19.4333,0,0,19.4333,726.066,535.884)">
                    <path d="M0.472,-0.08L0.467,-0.088L0.158,-0.088C0.153,-0.088 0.148,-0.089 0.146,-0.093C0.145,-0.095 0.146,-0.098 0.147,-0.099C0.197,-0.157 0.245,-0.215 0.29,-0.275C0.322,-0.317 0.353,-0.359 0.378,-0.405C0.404,-0.451 0.426,-0.5 0.426,-0.553C0.426,-0.594 0.414,-0.635 0.384,-0.664C0.355,-0.693 0.316,-0.708 0.275,-0.708C0.237,-0.708 0.201,-0.697 0.168,-0.679C0.128,-0.658 0.094,-0.628 0.064,-0.595L0.084,-0.576C0.108,-0.596 0.13,-0.611 0.158,-0.626C0.177,-0.636 0.199,-0.64 0.221,-0.64C0.25,-0.64 0.28,-0.629 0.3,-0.607C0.328,-0.578 0.334,-0.537 0.334,-0.508C0.334,-0.443 0.311,-0.382 0.276,-0.326C0.248,-0.28 0.213,-0.238 0.178,-0.197C0.125,-0.135 0.069,-0.076 0.012,-0.018L0.012,-0.002L0.449,-0.002L0.472,-0.08Z" style="fill-rule:nonzero;"/>
                </g>
            </g>
        </g>
        <g transform="matrix(1,-2.38698e-15,-2.55351e-15,1,826.772,118.636)">
            <g transform="matrix(1,2.38698e-15,2.55351e-15,1,-450.902,103.69)">
                <path d="M849.72,350.13L840.666,367.699L837.368,348.212L849.72,350.13Z"/>
                <path d="M899.721,321.507C899.721,321.507 900.828,331.485 887.91,332.792C877.45,333.85 862.867,333.112 852.477,338.352C847.526,340.849 844.644,346.908 842.968,352.877" style="fill:none;stroke:black;stroke-width:4.17px;"/>
            </g>
        </g>
        <g transform="matrix(-1,-2.38698e-15,2.55351e-15,1,1724.46,119.689)">
            <g transform="matrix(-1,-2.38698e-15,2.55351e-15,1,1348.59,102.637)">
                <path d="M962.122,349.264L958.824,368.751L949.77,351.183L962.122,349.264Z"/>
                <path d="M899.769,322.56C899.769,322.56 898.662,332.537 911.58,333.844C922.039,334.903 936.623,334.165 947.013,339.404C951.963,341.901 954.846,347.96 956.521,353.929" style="fill:none;stroke:black;stroke-width:4.17px;"/>
            </g>
        </g>
        <g transform="matrix(1,-2.38698e-15,-2.55351e-15,1,1062.99,119.689)">
            <g transform="matrix(1,2.38698e-15,2.55351e-15,1,-687.123,102.637)">
                <path d="M1085.94,351.183L1076.89,368.751L1073.59,349.264L1085.94,351.183Z"/>
                <path d="M1135.94,322.56C1135.94,322.56 1137.05,332.537 1124.13,333.844C1113.67,334.903 1099.09,334.165 1088.7,339.404C1083.75,341.901 1080.86,347.96 1079.19,353.929" style="fill:none;stroke:black;stroke-width:4.17px;"/>
            </g>
        </g>
        <g transform="matrix(-1,-2.38698e-15,2.55351e-15,1,1960.68,120.741)">
            <g transform="matrix(-1,-2.38698e-15,2.55351e-15,1,1584.81,101.585)">
                <path d="M1198.34,350.316L1195.04,369.804L1185.99,352.235L1198.34,350.316Z"/>
                <path d="M1135.99,323.612C1135.99,323.612 1134.88,333.59 1147.8,334.897C1158.26,335.955 1172.84,335.217 1183.23,340.457C1188.18,342.953 1191.07,349.013 1192.74,354.981" style="fill:none;stroke:black;stroke-width:4.17px;"/>
            </g>
        </g>
        <g transform="matrix(1,0,0,1,944.882,0.526182)">
            <g transform="matrix(1,0,0,0.761138,2.84217e-14,230.959)">
                <rect x="472.441" y="472.441" width="70.866" height="94.488" style="fill:white;fill-opacity:0;stroke:black;stroke-width:4.69px;"/>
            </g>
            <g transform="matrix(1,0,0,1,-202.197,117.012)">
                <g transform="matrix(50,0,0,50,693.316,524.784)">
                    <path d="M0.215,-0.066L0.215,-0.338C0.217,-0.342 0.221,-0.345 0.225,-0.345C0.23,-0.346 0.259,-0.346 0.277,-0.346C0.313,-0.346 0.349,-0.344 0.383,-0.335C0.408,-0.328 0.432,-0.319 0.45,-0.301C0.475,-0.276 0.483,-0.241 0.483,-0.208C0.483,-0.164 0.47,-0.121 0.439,-0.089C0.4,-0.051 0.344,-0.039 0.29,-0.039C0.258,-0.039 0.232,-0.041 0.226,-0.045C0.22,-0.049 0.215,-0.053 0.215,-0.066ZM0.215,-0.391L0.215,-0.629C0.217,-0.636 0.221,-0.642 0.228,-0.643C0.248,-0.646 0.268,-0.648 0.288,-0.648C0.315,-0.648 0.342,-0.647 0.368,-0.641C0.385,-0.637 0.403,-0.632 0.415,-0.62C0.435,-0.6 0.449,-0.574 0.449,-0.545C0.449,-0.503 0.436,-0.461 0.406,-0.431C0.37,-0.396 0.32,-0.381 0.269,-0.381C0.254,-0.381 0.231,-0.38 0.223,-0.383C0.22,-0.384 0.216,-0.387 0.215,-0.391ZM0.381,-0.378C0.421,-0.395 0.461,-0.412 0.491,-0.443C0.52,-0.472 0.534,-0.512 0.534,-0.553C0.534,-0.585 0.522,-0.615 0.5,-0.638C0.48,-0.658 0.453,-0.667 0.426,-0.674C0.386,-0.684 0.346,-0.686 0.305,-0.686L0.058,-0.686L0.051,-0.679L0.05,-0.662C0.075,-0.655 0.099,-0.647 0.116,-0.639C0.118,-0.638 0.133,-0.628 0.133,-0.611L0.133,-0.081C0.133,-0.07 0.132,-0.048 0.132,-0.047C0.131,-0.043 0.13,-0.04 0.128,-0.037C0.128,-0.036 0.116,-0.02 0.11,-0.011L0.111,-0.001C0.112,-0.001 0.243,-0 0.309,0.001C0.385,0.001 0.466,-0.012 0.521,-0.068C0.556,-0.103 0.574,-0.151 0.574,-0.201C0.574,-0.244 0.565,-0.284 0.534,-0.315C0.519,-0.33 0.497,-0.343 0.477,-0.349C0.447,-0.358 0.411,-0.366 0.38,-0.37L0.381,-0.378Z" style="fill-rule:nonzero;"/>
                </g>
                <g transform="matrix(19.4333,0,0,19.4333,726.066,535.884)">
                    <path d="M0.241,-0.382C0.282,-0.394 0.321,-0.416 0.352,-0.446C0.384,-0.478 0.399,-0.523 0.399,-0.568C0.399,-0.604 0.387,-0.64 0.361,-0.665C0.333,-0.694 0.292,-0.702 0.253,-0.702C0.225,-0.702 0.198,-0.691 0.173,-0.678C0.137,-0.659 0.103,-0.634 0.072,-0.608L0.086,-0.586C0.109,-0.601 0.132,-0.615 0.157,-0.626C0.174,-0.633 0.191,-0.639 0.208,-0.639C0.238,-0.639 0.267,-0.632 0.288,-0.611C0.307,-0.592 0.317,-0.567 0.317,-0.54C0.317,-0.502 0.302,-0.465 0.274,-0.437C0.258,-0.421 0.237,-0.409 0.215,-0.399C0.187,-0.386 0.156,-0.378 0.126,-0.371L0.125,-0.345C0.162,-0.345 0.199,-0.343 0.235,-0.334C0.26,-0.328 0.285,-0.319 0.303,-0.3C0.332,-0.269 0.352,-0.229 0.352,-0.186C0.352,-0.141 0.338,-0.095 0.306,-0.063C0.279,-0.036 0.243,-0.023 0.206,-0.023C0.17,-0.023 0.136,-0.041 0.111,-0.067C0.095,-0.083 0.082,-0.101 0.07,-0.121L0.06,-0.121L0.018,-0.049L0.025,-0.038C0.07,-0.003 0.124,0.017 0.181,0.017C0.254,0.017 0.325,-0.008 0.377,-0.059C0.419,-0.101 0.446,-0.156 0.446,-0.215C0.446,-0.254 0.433,-0.291 0.406,-0.318C0.388,-0.336 0.364,-0.347 0.341,-0.355C0.308,-0.366 0.275,-0.371 0.241,-0.374L0.241,-0.382Z" style="fill-rule:nonzero;"/>
                </g>
            </g>
        </g>
        <g transform="matrix(1,0,0,1,1003.94,-117.584)">
            <g transform="matrix(1,0,0,0.761138,2.84217e-14,230.959)">
                <rect x="472.441" y="472.441" width="70.866" height="94.488" style="fill:white;fill-opacity:0;stroke:black;stroke-width:4.69px;"/>
            </g>
            <g transform="matrix(1,0,0,1,-213.307,113.625)">
                <g transform="matrix(50,0,0,50,693.316,524.784)">
                    <path d="M0.744,-0.014L0.743,-0.032C0.742,-0.032 0.713,-0.04 0.695,-0.045C0.679,-0.049 0.666,-0.062 0.666,-0.079C0.66,-0.241 0.661,-0.403 0.665,-0.565C0.666,-0.604 0.67,-0.645 0.673,-0.684L0.668,-0.69L0.58,-0.673C0.58,-0.587 0.583,-0.483 0.583,-0.397C0.583,-0.391 0.582,-0.385 0.571,-0.385L0.225,-0.385C0.215,-0.385 0.213,-0.392 0.213,-0.397C0.213,-0.462 0.217,-0.546 0.219,-0.611C0.22,-0.634 0.222,-0.658 0.226,-0.68L0.221,-0.685L0.059,-0.685L0.052,-0.678L0.053,-0.659C0.073,-0.652 0.109,-0.641 0.113,-0.64C0.123,-0.636 0.125,-0.625 0.126,-0.616C0.131,-0.533 0.132,-0.45 0.132,-0.367C0.132,-0.245 0.132,-0.116 0.122,-0.003L0.128,0.002L0.22,-0.026C0.217,-0.052 0.215,-0.078 0.215,-0.104C0.214,-0.171 0.215,-0.267 0.215,-0.334C0.215,-0.341 0.221,-0.346 0.228,-0.346L0.571,-0.346C0.58,-0.346 0.583,-0.339 0.583,-0.334C0.583,-0.237 0.58,-0.118 0.578,-0.021L0.589,-0L0.738,-0.008L0.744,-0.014Z" style="fill-rule:nonzero;"/>
                </g>
                <g transform="matrix(19.4333,0,0,19.4333,732.466,535.884)">
                    <path d="M0.241,-0.382C0.282,-0.394 0.321,-0.416 0.352,-0.446C0.384,-0.478 0.399,-0.523 0.399,-0.568C0.399,-0.604 0.387,-0.64 0.361,-0.665C0.333,-0.694 0.292,-0.702 0.253,-0.702C0.225,-0.702 0.198,-0.691 0.173,-0.678C0.137,-0.659 0.103,-0.634 0.072,-0.608L0.086,-0.586C0.109,-0.601 0.132,-0.615 0.157,-0.626C0.174,-0.633 0.191,-0.639 0.208,-0.639C0.238,-0.639 0.267,-0.632 0.288,-0.611C0.307,-0.592 0.317,-0.567 0.317,-0.54C0.317,-0.502 0.302,-0.465 0.274,-0.437C0.258,-0.421 0.237,-0.409 0.215,-0.399C0.187,-0.386 0.156,-0.378 0.126,-0.371L0.125,-0.345C0.162,-0.345 0.199,-0.343 0.235,-0.334C0.26,-0.328 0.285,-0.319 0.303,-0.3C0.332,-0.269 0.352,-0.229 0.352,-0.186C0.352,-0.141 0.338,-0.095 0.306,-0.063C0.279,-0.036 0.243,-0.023 0.206,-0.023C0.17,-0.023 0.136,-0.041 0.111,-0.067C0.095,-0.083 0.082,-0.101 0.07,-0.121L0.06,-0.121L0.018,-0.049L0.025,-0.038C0.07,-0.003 0.124,0.017 0.181,0.017C0.254,0.017 0.325,-0.008 0.377,-0.059C0.419,-0.101 0.446,-0.156 0.446,-0.215C0.446,-0.254 0.433,-0.291 0.406,-0.318C0.388,-0.336 0.364,-0.347 0.341,-0.355C0.308,-0.366 0.275,-0.371 0.241,-0.374L0.241,-0.382Z" style="fill-rule:nonzero;"/>
                </g>
                <g transform="matrix(19.4333,0,0,19.4333,742.163,535.884)">
                    <path d="M0.361,-0.704L0.285,-0.669L-0.001,-0.235L-0.001,-0.191L0.283,-0.191L0.29,-0.182C0.29,-0.119 0.29,-0.036 0.285,-0.001L0.29,0.005L0.37,-0.028C0.367,-0.05 0.367,-0.129 0.367,-0.183L0.375,-0.191L0.457,-0.191L0.473,-0.228L0.468,-0.235L0.374,-0.235L0.367,-0.244C0.367,-0.399 0.367,-0.671 0.368,-0.698L0.361,-0.704ZM0.29,-0.243L0.284,-0.235L0.069,-0.235L0.064,-0.242C0.065,-0.264 0.149,-0.402 0.187,-0.461C0.216,-0.506 0.246,-0.552 0.28,-0.591C0.282,-0.593 0.287,-0.594 0.289,-0.591C0.289,-0.59 0.29,-0.587 0.29,-0.585L0.29,-0.243Z" style="fill-rule:nonzero;"/>
                </g>
            </g>
        </g>
        <g transform="matrix(1,0,0,1,1062.99,1.57855)">
            <g transform="matrix(1,0,0,0.761138,2.84217e-14,230.959)">
                <rect x="472.441" y="472.441" width="70.866" height="94.488" style="fill:white;fill-opacity:0;stroke:black;stroke-width:4.69px;"/>
            </g>
            <g transform="matrix(1,0,0,1,-202.197,117.012)">
                <g transform="matrix(50,0,0,50,693.316,524.784)">
                    <path d="M0.215,-0.066L0.215,-0.338C0.217,-0.342 0.221,-0.345 0.225,-0.345C0.23,-0.346 0.259,-0.346 0.277,-0.346C0.313,-0.346 0.349,-0.344 0.383,-0.335C0.408,-0.328 0.432,-0.319 0.45,-0.301C0.475,-0.276 0.483,-0.241 0.483,-0.208C0.483,-0.164 0.47,-0.121 0.439,-0.089C0.4,-0.051 0.344,-0.039 0.29,-0.039C0.258,-0.039 0.232,-0.041 0.226,-0.045C0.22,-0.049 0.215,-0.053 0.215,-0.066ZM0.215,-0.391L0.215,-0.629C0.217,-0.636 0.221,-0.642 0.228,-0.643C0.248,-0.646 0.268,-0.648 0.288,-0.648C0.315,-0.648 0.342,-0.647 0.368,-0.641C0.385,-0.637 0.403,-0.632 0.415,-0.62C0.435,-0.6 0.449,-0.574 0.449,-0.545C0.449,-0.503 0.436,-0.461 0.406,-0.431C0.37,-0.396 0.32,-0.381 0.269,-0.381C0.254,-0.381 0.231,-0.38 0.223,-0.383C0.22,-0.384 0.216,-0.387 0.215,-0.391ZM0.381,-0.378C0.421,-0.395 0.461,-0.412 0.491,-0.443C0.52,-0.472 0.534,-0.512 0.534,-0.553C0.534,-0.585 0.522,-0.615 0.5,-0.638C0.48,-0.658 0.453,-0.667 0.426,-0.674C0.386,-0.684 0.346,-0.686 0.305,-0.686L0.058,-0.686L0.051,-0.679L0.05,-0.662C0.075,-0.655 0.099,-0.647 0.116,-0.639C0.118,-0.638 0.133,-0.628 0.133,-0.611L0.133,-0.081C0.133,-0.07 0.132,-0.048 0.132,-0.047C0.131,-0.043 0.13,-0.04 0.128,-0.037C0.128,-0.036 0.116,-0.02 0.11,-0.011L0.111,-0.001C0.112,-0.001 0.243,-0 0.309,0.001C0.385,0.001 0.466,-0.012 0.521,-0.068C0.556,-0.103 0.574,-0.151 0.574,-0.201C0.574,-0.244 0.565,-0.284 0.534,-0.315C0.519,-0.33 0.497,-0.343 0.477,-0.349C0.447,-0.358 0.411,-0.366 0.38,-0.37L0.381,-0.378Z" style="fill-rule:nonzero;"/>
                </g>
                <g transform="matrix(19.4333,0,0,19.4333,726.066,535.884)">
                    <path d="M0.361,-0.704L0.285,-0.669L-0.001,-0.235L-0.001,-0.191L0.283,-0.191L0.29,-0.182C0.29,-0.119 0.29,-0.036 0.285,-0.001L0.29,0.005L0.37,-0.028C0.367,-0.05 0.367,-0.129 0.367,-0.183L0.375,-0.191L0.457,-0.191L0.473,-0.228L0.468,-0.235L0.374,-0.235L0.367,-0.244C0.367,-0.399 0.367,-0.671 0.368,-0.698L0.361,-0.704ZM0.29,-0.243L0.284,-0.235L0.069,-0.235L0.064,-0.242C0.065,-0.264 0.149,-0.402 0.187,-0.461C0.216,-0.506 0.246,-0.552 0.28,-0.591C0.282,-0.593 0.287,-0.594 0.289,-0.591C0.289,-0.59 0.29,-0.587 0.29,-0.585L0.29,-0.243Z" style="fill-rule:nonzero;"/>
                </g>
            </g>
        </g>
        <g transform="matrix(1,-2.38698e-15,-2.55351e-15,1,1299.21,119.689)">
            <g transform="matrix(1,2.38698e-15,2.55351e-15,1,-923.343,102.637)">
                <path d="M1322.16,351.183L1313.11,368.751L1309.81,349.264L1322.16,351.183Z"/>
                <path d="M1372.16,322.56C1372.16,322.56 1373.27,332.537 1360.35,333.844C1349.89,334.903 1335.31,334.165 1324.92,339.404C1319.97,341.901 1317.08,347.96 1315.41,353.929" style="fill:none;stroke:black;stroke-width:4.17px;"/>
            </g>
        </g>
        <g transform="matrix(-1,-2.38698e-15,2.55351e-15,1,2196.9,120.741)">
            <g transform="matrix(-1,-2.38698e-15,2.55351e-15,1,1821.03,101.585)">
                <path d="M1434.56,350.316L1431.27,369.804L1422.21,352.235L1434.56,350.316Z"/>
                <path d="M1372.21,323.612C1372.21,323.612 1371.1,333.59 1384.02,334.897C1394.48,335.955 1409.06,335.217 1419.45,340.457C1424.4,342.953 1427.29,349.013 1428.96,354.981" style="fill:none;stroke:black;stroke-width:4.17px;"/>
            </g>
        </g>
        <g transform="matrix(1,0,0,1,1181.1,0.526182)">
            <g transform="matrix(1,0,0,0.761138,2.84217e-14,230.959)">
                <rect x="472.441" y="472.441" width="70.866" height="94.488" style="fill:white;fill-opacity:0;stroke:black;stroke-width:4.69px;"/>
            </g>
            <g transform="matrix(1,0,0,1,-202.197,117.012)">
                <g transform="matrix(50,0,0,50,693.316,524.784)">
                    <path d="M0.215,-0.066L0.215,-0.338C0.217,-0.342 0.221,-0.345 0.225,-0.345C0.23,-0.346 0.259,-0.346 0.277,-0.346C0.313,-0.346 0.349,-0.344 0.383,-0.335C0.408,-0.328 0.432,-0.319 0.45,-0.301C0.475,-0.276 0.483,-0.241 0.483,-0.208C0.483,-0.164 0.47,-0.121 0.439,-0.089C0.4,-0.051 0.344,-0.039 0.29,-0.039C0.258,-0.039 0.232,-0.041 0.226,-0.045C0.22,-0.049 0.215,-0.053 0.215,-0.066ZM0.215,-0.391L0.215,-0.629C0.217,-0.636 0.221,-0.642 0.228,-0.643C0.248,-0.646 0.268,-0.648 0.288,-0.648C0.315,-0.648 0.342,-0.647 0.368,-0.641C0.385,-0.637 0.403,-0.632 0.415,-0.62C0.435,-0.6 0.449,-0.574 0.449,-0.545C0.449,-0.503 0.436,-0.461 0.406,-0.431C0.37,-0.396 0.32,-0.381 0.269,-0.381C0.254,-0.381 0.231,-0.38 0.223,-0.383C0.22,-0.384 0.216,-0.387 0.215,-0.391ZM0.381,-0.378C0.421,-0.395 0.461,-0.412 0.491,-0.443C0.52,-0.472 0.534,-0.512 0.534,-0.553C0.534,-0.585 0.522,-0.615 0.5,-0.638C0.48,-0.658 0.453,-0.667 0.426,-0.674C0.386,-0.684 0.346,-0.686 0.305,-0.686L0.058,-0.686L0.051,-0.679L0.05,-0.662C0.075,-0.655 0.099,-0.647 0.116,-0.639C0.118,-0.638 0.133,-0.628 0.133,-0.611L0.133,-0.081C0.133,-0.07 0.132,-0.048 0.132,-0.047C0.131,-0.043 0.13,-0.04 0.128,-0.037C0.128,-0.036 0.116,-0.02 0.11,-0.011L0.111,-0.001C0.112,-0.001 0.243,-0 0.309,0.001C0.385,0.001 0.466,-0.012 0.521,-0.068C0.556,-0.103 0.574,-0.151 0.574,-0.201C0.574,-0.244 0.565,-0.284 0.534,-0.315C0.519,-0.33 0.497,-0.343 0.477,-0.349C0.447,-0.358 0.411,-0.366 0.38,-0.37L0.381,-0.378Z" style="fill-rule:nonzero;"/>
                </g>
                <g transform="matrix(19.4333,0,0,19.4333,726.066,535.884)">
                    <path d="M0.125,-0.594C0.125,-0.6 0.131,-0.604 0.137,-0.604C0.185,-0.604 0.311,-0.607 0.398,-0.609L0.425,-0.687L0.09,-0.687L0.083,-0.68L0.083,-0.353L0.096,-0.342C0.128,-0.373 0.169,-0.395 0.213,-0.395C0.247,-0.395 0.281,-0.385 0.305,-0.361C0.341,-0.325 0.352,-0.273 0.352,-0.223C0.352,-0.167 0.337,-0.108 0.298,-0.069C0.268,-0.039 0.227,-0.026 0.186,-0.026C0.158,-0.026 0.132,-0.04 0.113,-0.059C0.092,-0.08 0.079,-0.106 0.067,-0.132L0.056,-0.132L0.012,-0.076L0.013,-0.064C0.054,-0.015 0.115,0.011 0.178,0.011C0.253,0.011 0.325,-0.018 0.378,-0.071C0.425,-0.118 0.448,-0.184 0.448,-0.251C0.448,-0.303 0.433,-0.356 0.395,-0.393C0.359,-0.429 0.308,-0.443 0.257,-0.443C0.211,-0.443 0.166,-0.426 0.125,-0.406L0.125,-0.594Z" style="fill-rule:nonzero;"/>
                </g>
            </g>
        </g>
        <g transform="matrix(1,0,0,1,1240.16,-117.584)">
            <g transform="matrix(1,0,0,0.761138,2.84217e-14,230.959)">
                <rect x="472.441" y="472.441" width="70.866" height="94.488" style="fill:white;fill-opacity:0;stroke:black;stroke-width:4.69px;"/>
            </g>
            <g transform="matrix(1,0,0,1,-213.307,113.625)">
                <g transform="matrix(50,0,0,50,693.316,524.784)">
                    <path d="M0.744,-0.014L0.743,-0.032C0.742,-0.032 0.713,-0.04 0.695,-0.045C0.679,-0.049 0.666,-0.062 0.666,-0.079C0.66,-0.241 0.661,-0.403 0.665,-0.565C0.666,-0.604 0.67,-0.645 0.673,-0.684L0.668,-0.69L0.58,-0.673C0.58,-0.587 0.583,-0.483 0.583,-0.397C0.583,-0.391 0.582,-0.385 0.571,-0.385L0.225,-0.385C0.215,-0.385 0.213,-0.392 0.213,-0.397C0.213,-0.462 0.217,-0.546 0.219,-0.611C0.22,-0.634 0.222,-0.658 0.226,-0.68L0.221,-0.685L0.059,-0.685L0.052,-0.678L0.053,-0.659C0.073,-0.652 0.109,-0.641 0.113,-0.64C0.123,-0.636 0.125,-0.625 0.126,-0.616C0.131,-0.533 0.132,-0.45 0.132,-0.367C0.132,-0.245 0.132,-0.116 0.122,-0.003L0.128,0.002L0.22,-0.026C0.217,-0.052 0.215,-0.078 0.215,-0.104C0.214,-0.171 0.215,-0.267 0.215,-0.334C0.215,-0.341 0.221,-0.346 0.228,-0.346L0.571,-0.346C0.58,-0.346 0.583,-0.339 0.583,-0.334C0.583,-0.237 0.58,-0.118 0.578,-0.021L0.589,-0L0.738,-0.008L0.744,-0.014Z" style="fill-rule:nonzero;"/>
                </g>
                <g transform="matrix(19.4333,0,0,19.4333,732.466,535.884)">
                    <path d="M0.125,-0.594C0.125,-0.6 0.131,-0.604 0.137,-0.604C0.185,-0.604 0.311,-0.607 0.398,-0.609L0.425,-0.687L0.09,-0.687L0.083,-0.68L0.083,-0.353L0.096,-0.342C0.128,-0.373 0.169,-0.395 0.213,-0.395C0.247,-0.395 0.281,-0.385 0.305,-0.361C0.341,-0.325 0.352,-0.273 0.352,-0.223C0.352,-0.167 0.337,-0.108 0.298,-0.069C0.268,-0.039 0.227,-0.026 0.186,-0.026C0.158,-0.026 0.132,-0.04 0.113,-0.059C0.092,-0.08 0.079,-0.106 0.067,-0.132L0.056,-0.132L0.012,-0.076L0.013,-0.064C0.054,-0.015 0.115,0.011 0.178,0.011C0.253,0.011 0.325,-0.018 0.378,-0.071C0.425,-0.118 0.448,-0.184 0.448,-0.251C0.448,-0.303 0.433,-0.356 0.395,-0.393C0.359,-0.429 0.308,-0.443 0.257,-0.443C0.211,-0.443 0.166,-0.426 0.125,-0.406L0.125,-0.594Z" style="fill-rule:nonzero;"/>
                </g>
                <g transform="matrix(19.4333,0,0,19.4333,742.163,535.884)">
                    <path d="M0.471,-0.688C0.456,-0.694 0.431,-0.7 0.416,-0.7C0.375,-0.7 0.335,-0.687 0.299,-0.668C0.254,-0.645 0.214,-0.613 0.179,-0.576C0.09,-0.487 0.045,-0.363 0.045,-0.238C0.045,-0.164 0.062,-0.087 0.115,-0.034C0.147,-0.002 0.191,0.013 0.236,0.013C0.298,0.013 0.356,-0.013 0.399,-0.056C0.441,-0.098 0.471,-0.151 0.471,-0.211C0.471,-0.256 0.456,-0.301 0.424,-0.334C0.397,-0.361 0.359,-0.377 0.321,-0.377C0.252,-0.377 0.189,-0.348 0.136,-0.305L0.129,-0.306C0.13,-0.402 0.149,-0.503 0.228,-0.576C0.269,-0.614 0.323,-0.641 0.384,-0.641C0.404,-0.641 0.422,-0.638 0.442,-0.63L0.451,-0.634L0.471,-0.688ZM0.132,-0.265C0.154,-0.286 0.215,-0.314 0.256,-0.314C0.289,-0.314 0.323,-0.303 0.346,-0.279C0.375,-0.251 0.392,-0.212 0.392,-0.172C0.392,-0.131 0.38,-0.091 0.351,-0.063C0.328,-0.04 0.295,-0.032 0.263,-0.032C0.238,-0.032 0.213,-0.043 0.195,-0.06C0.174,-0.081 0.157,-0.11 0.148,-0.139C0.136,-0.179 0.132,-0.224 0.132,-0.265Z" style="fill-rule:nonzero;"/>
                </g>
            </g>
            <g transform="matrix(1,0,0,1,-1240.16,117.584)">
                <g transform="matrix(1,-0,-0,1,375.869,222.326)">
                    <path d="M1374.15,230.451L1372.16,250.115L1361.95,233.19L1374.15,230.451Z"/>
                    <path d="M1254.05,72.949C1254.05,72.949 1257.35,90.388 1265.86,108.383C1275.27,128.274 1324.92,140.374 1348.54,179.249C1357.87,194.614 1365,219.647 1368.88,235.479" style="fill:none;stroke:black;stroke-width:4.17px;"/>
                </g>
            </g>
        </g>
        <g transform="matrix(1,0,0,1,1300.21,1.57855)">
            <g transform="matrix(1,0,0,0.761138,2.84217e-14,230.959)">
                <rect x="472.441" y="472.441" width="70.866" height="94.488" style="fill:white;fill-opacity:0;stroke:black;stroke-width:4.69px;"/>
            </g>
            <g transform="matrix(1,0,0,1,-202.197,117.012)">
                <g transform="matrix(50,0,0,50,693.316,524.784)">
                    <path d="M0.215,-0.066L0.215,-0.338C0.217,-0.342 0.221,-0.345 0.225,-0.345C0.23,-0.346 0.259,-0.346 0.277,-0.346C0.313,-0.346 0.349,-0.344 0.383,-0.335C0.408,-0.328 0.432,-0.319 0.45,-0.301C0.475,-0.276 0.483,-0.241 0.483,-0.208C0.483,-0.164 0.47,-0.121 0.439,-0.089C0.4,-0.051 0.344,-0.039 0.29,-0.039C0.258,-0.039 0.232,-0.041 0.226,-0.045C0.22,-0.049 0.215,-0.053 0.215,-0.066ZM0.215,-0.391L0.215,-0.629C0.217,-0.636 0.221,-0.642 0.228,-0.643C0.248,-0.646 0.268,-0.648 0.288,-0.648C0.315,-0.648 0.342,-0.647 0.368,-0.641C0.385,-0.637 0.403,-0.632 0.415,-0.62C0.435,-0.6 0.449,-0.574 0.449,-0.545C0.449,-0.503 0.436,-0.461 0.406,-0.431C0.37,-0.396 0.32,-0.381 0.269,-0.381C0.254,-0.381 0.231,-0.38 0.223,-0.383C0.22,-0.384 0.216,-0.387 0.215,-0.391ZM0.381,-0.378C0.421,-0.395 0.461,-0.412 0.491,-0.443C0.52,-0.472 0.534,-0.512 0.534,-0.553C0.534,-0.585 0.522,-0.615 0.5,-0.638C0.48,-0.658 0.453,-0.667 0.426,-0.674C0.386,-0.684 0.346,-0.686 0.305,-0.686L0.058,-0.686L0.051,-0.679L0.05,-0.662C0.075,-0.655 0.099,-0.647 0.116,-0.639C0.118,-0.638 0.133,-0.628 0.133,-0.611L0.133,-0.081C0.133,-0.07 0.132,-0.048 0.132,-0.047C0.131,-0.043 0.13,-0.04 0.128,-0.037C0.128,-0.036 0.116,-0.02 0.11,-0.011L0.111,-0.001C0.112,-0.001 0.243,-0 0.309,0.001C0.385,0.001 0.466,-0.012 0.521,-0.068C0.556,-0.103 0.574,-0.151 0.574,-0.201C0.574,-0.244 0.565,-0.284 0.534,-0.315C0.519,-0.33 0.497,-0.343 0.477,-0.349C0.447,-0.358 0.411,-0.366 0.38,-0.37L0.381,-0.378Z" style="fill-rule:nonzero;"/>
                </g>
                <g transform="matrix(19.4333,0,0,19.4333,726.066,535.884)">
                    <path d="M0.471,-0.688C0.456,-0.694 0.431,-0.7 0.416,-0.7C0.375,-0.7 0.335,-0.687 0.299,-0.668C0.254,-0.645 0.214,-0.613 0.179,-0.576C0.09,-0.487 0.045,-0.363 0.045,-0.238C0.045,-0.164 0.062,-0.087 0.115,-0.034C0.147,-0.002 0.191,0.013 0.236,0.013C0.298,0.013 0.356,-0.013 0.399,-0.056C0.441,-0.098 0.471,-0.151 0.471,-0.211C0.471,-0.256 0.456,-0.301 0.424,-0.334C0.397,-0.361 0.359,-0.377 0.321,-0.377C0.252,-0.377 0.189,-0.348 0.136,-0.305L0.129,-0.306C0.13,-0.402 0.149,-0.503 0.228,-0.576C0.269,-0.614 0.323,-0.641 0.384,-0.641C0.404,-0.641 0.422,-0.638 0.442,-0.63L0.451,-0.634L0.471,-0.688ZM0.132,-0.265C0.154,-0.286 0.215,-0.314 0.256,-0.314C0.289,-0.314 0.323,-0.303 0.346,-0.279C0.375,-0.251 0.392,-0.212 0.392,-0.172C0.392,-0.131 0.38,-0.091 0.351,-0.063C0.328,-0.04 0.295,-0.032 0.263,-0.032C0.238,-0.032 0.213,-0.043 0.195,-0.06C0.174,-0.081 0.157,-0.11 0.148,-0.139C0.136,-0.179 0.132,-0.224 0.132,-0.265Z" style="fill-rule:nonzero;"/>
                </g>
            </g>
        </g>
        <g transform="matrix(1,0,0,1,-118.11,0)">
            <path d="M1913.39,590.551L1889.76,614.173" style="fill:none;stroke:black;stroke-width:1.04px;stroke-dasharray:1.04,1.04;"/>
            <path d="M1937.01,590.551L1889.76,637.795" style="fill:none;stroke:black;stroke-width:1.04px;stroke-dasharray:1.04,1.04;"/>
            <path d="M1925.2,590.551L1889.76,625.984" style="fill:none;stroke:black;stroke-width:1.04px;stroke-dasharray:1.04,1.04;"/>
            <path d="M1960.63,590.551L1889.76,661.417" style="fill:none;stroke:black;stroke-width:1.04px;stroke-dasharray:1.04,1.04;"/>
            <path d="M1948.82,590.551L1889.76,649.606" style="fill:none;stroke:black;stroke-width:1.04px;stroke-dasharray:1.04,1.04;"/>
            <path d="M1901.58,590.551L1889.76,602.362" style="fill:none;stroke:black;stroke-width:1.04px;stroke-dasharray:1.04,1.04;"/>
            <path d="M1960.63,614.173L1913.39,661.417" style="fill:none;stroke:black;stroke-width:1.04px;stroke-dasharray:1.04,1.04;"/>
            <path d="M1960.63,637.795L1937.01,661.417" style="fill:none;stroke:black;stroke-width:1.04px;stroke-dasharray:1.04,1.04;"/>
            <path d="M1960.63,649.606L1948.82,661.417" style="fill:none;stroke:black;stroke-width:1.04px;stroke-dasharray:1.04,1.04;"/>
            <path d="M1960.63,625.984L1925.2,661.417" style="fill:none;stroke:black;stroke-width:1.04px;stroke-dasharray:1.04,1.04;"/>
            <path d="M1960.63,602.362L1901.58,661.417" style="fill:none;stroke:black;stroke-width:1.04px;stroke-dasharray:1.04,1.04;"/>
        </g>
        <g transform="matrix(1,0,0,1,826.772,71.9185)">
            <g transform="matrix(1,-0,-0,1,-450.902,150.408)">
                <path d="M914.526,236.495L899.721,249.589L903.709,230.231L914.526,236.495Z"/>
                <path d="M1017.83,203.923C1017.83,203.923 1017.24,207.778 1006.02,214.682C992.521,222.987 940.156,210.978 923.343,220.242C917.033,223.718 911.412,230.462 907.238,236.608" style="fill:none;stroke:black;stroke-width:4.17px;"/>
            </g>
        </g>
        <g transform="matrix(-1,0,0,1,1960.63,72.4447)">
            <g transform="matrix(-1,0,0,1,1584.76,149.881)">
                <path d="M1131.95,230.757L1135.94,250.115L1121.14,237.021L1131.95,230.757Z"/>
                <path d="M1017.83,204.449C1017.83,204.449 1018.42,208.304 1029.64,215.208C1043.14,223.513 1095.51,211.505 1112.32,220.768C1118.63,224.245 1124.25,230.988 1128.42,237.134" style="fill:none;stroke:black;stroke-width:4.17px;"/>
            </g>
        </g>
        <g transform="matrix(1,-0,-0,1,375.869,222.326)">
            <path d="M720.489,237.615L757.989,250.115L720.489,262.615L720.489,237.615Z"/>
            <path d="M592.635,250.115L727.989,250.115" style="fill:none;stroke:black;stroke-width:8.33px;"/>
        </g>
        <g transform="matrix(1,0,0,1,-177.165,-118.11)">
            <path d="M1913.39,590.551L1889.76,614.173" style="fill:none;stroke:black;stroke-width:1.04px;stroke-dasharray:1.04,1.04;"/>
            <path d="M1937.01,590.551L1889.76,637.795" style="fill:none;stroke:black;stroke-width:1.04px;stroke-dasharray:1.04,1.04;"/>
            <path d="M1925.2,590.551L1889.76,625.984" style="fill:none;stroke:black;stroke-width:1.04px;stroke-dasharray:1.04,1.04;"/>
            <path d="M1960.63,590.551L1889.76,661.417" style="fill:none;stroke:black;stroke-width:1.04px;stroke-dasharray:1.04,1.04;"/>
            <path d="M1948.82,590.551L1889.76,649.606" style="fill:none;stroke:black;stroke-width:1.04px;stroke-dasharray:1.04,1.04;"/>
            <path d="M1901.58,590.551L1889.76,602.362" style="fill:none;stroke:black;stroke-width:1.04px;stroke-dasharray:1.04,1.04;"/>
            <path d="M1960.63,614.173L1913.39,661.417" style="fill:none;stroke:black;stroke-width:1.04px;stroke-dasharray:1.04,1.04;"/>
            <path d="M1960.63,637.795L1937.01,661.417" style="fill:none;stroke:black;stroke-width:1.04px;stroke-dasharray:1.04,1.04;"/>
            <path d="M1960.63,649.606L1948.82,661.417" style="fill:none;stroke:black;stroke-width:1.04px;stroke-dasharray:1.04,1.04;"/>
            <path d="M1960.63,625.984L1925.2,661.417" style="fill:none;stroke:black;stroke-width:1.04px;stroke-dasharray:1.04,1.04;"/>
            <path d="M1960.63,602.362L1901.58,661.417" style="fill:none;stroke:black;stroke-width:1.04px;stroke-dasharray:1.04,1.04;"/>
        </g>
        <g transform="matrix(1,0,0,1,-295.276,-366.142)">
            <path d="M1913.39,590.551L1889.76,614.173" style="fill:none;stroke:black;stroke-width:1.04px;stroke-dasharray:1.04,1.04;"/>
            <path d="M1937.01,590.551L1889.76,637.795" style="fill:none;stroke:black;stroke-width:1.04px;stroke-dasharray:1.04,1.04;"/>
            <path d="M1925.2,590.551L1889.76,625.984" style="fill:none;stroke:black;stroke-width:1.04px;stroke-dasharray:1.04,1.04;"/>
            <path d="M1960.63,590.551L1889.76,661.417" style="fill:none;stroke:black;stroke-width:1.04px;stroke-dasharray:1.04,1.04;"/>
            <path d="M1948.82,590.551L1889.76,649.606" style="fill:none;stroke:black;stroke-width:1.04px;stroke-dasharray:1.04,1.04;"/>
            <path d="M1901.58,590.551L1889.76,602.362" style="fill:none;stroke:black;stroke-width:1.04px;stroke-dasharray:1.04,1.04;"/>
            <path d="M1960.63,614.173L1913.39,661.417" style="fill:none;stroke:black;stroke-width:1.04px;stroke-dasharray:1.04,1.04;"/>
            <path d="M1960.63,637.795L1937.01,661.417" style="fill:none;stroke:black;stroke-width:1.04px;stroke-dasharray:1.04,1.04;"/>
            <path d="M1960.63,649.606L1948.82,661.417" style="fill:none;stroke:black;stroke-width:1.04px;stroke-dasharray:1.04,1.04;"/>
            <path d="M1960.63,625.984L1925.2,661.417" style="fill:none;stroke:black;stroke-width:1.04px;stroke-dasharray:1.04,1.04;"/>
            <path d="M1960.63,602.362L1901.58,661.417" style="fill:none;stroke:black;stroke-width:1.04px;stroke-dasharray:1.04,1.04;"/>
        </g>
    </g>
</svg>
