<?xml version="1.0" encoding="UTF-8" standalone="no"?>
<!DOCTYPE svg PUBLIC "-//W3C//DTD SVG 1.1//EN" "http://www.w3.org/Graphics/SVG/1.1/DTD/svg11.dtd">
<svg width="100%" height="100%" viewBox="0 0 1077 389" version="1.1" xmlns="http://www.w3.org/2000/svg" xmlns:xlink="http://www.w3.org/1999/xlink" xml:space="preserve" xmlns:serif="http://www.serif.com/" style="fill-rule:evenodd;clip-rule:evenodd;stroke-linecap:round;stroke-linejoin:round;stroke-miterlimit:1.5;">
    <g transform="matrix(1,0,0,1,-322.634,-1518.16)">
        <g transform="matrix(1,0,0,1,-2.56996,-33.9805)">
            <g transform="matrix(0.225458,0,0,0.383137,1201.97,1075.85)">
                <path d="M472.441,1370.08C472.86,1355.41 476.576,1344.84 519.685,1346.46C519.685,1346.46 613.862,1347.29 637.795,1346.46C661.876,1345.61 661.417,1322.84 661.417,1322.84" style="fill:none;stroke:black;stroke-width:13.26px;"/>
                <g transform="matrix(-1,0,0,1,1322.83,0)">
                    <path d="M472.441,1370.08C472.86,1355.41 476.576,1344.84 519.685,1346.46C519.685,1346.46 613.862,1347.29 637.795,1346.46C661.876,1345.61 661.417,1322.84 661.417,1322.84" style="fill:none;stroke:black;stroke-width:13.26px;"/>
                </g>
            </g>
            <g transform="matrix(1,0,0,1,-6.52548,17.8291)">
                <g transform="matrix(41.6667,0,0,41.6667,1068.24,1619.2)">
                    <path d="M0.167,-0.334L0.167,-0.425C0.167,-0.433 0.166,-0.435 0.161,-0.435C0.139,-0.431 0.103,-0.43 0.08,-0.432L0.078,-0.429C0.085,-0.386 0.087,-0.31 0.087,-0.235L0.087,-0.18C0.087,-0.105 0.086,-0.054 0.078,-0L0.08,0.003C0.092,0.001 0.115,-0 0.127,-0C0.139,-0 0.162,0.001 0.174,0.003L0.176,-0C0.169,-0.057 0.167,-0.104 0.167,-0.18L0.167,-0.232C0.167,-0.274 0.18,-0.298 0.201,-0.331C0.216,-0.353 0.238,-0.366 0.257,-0.366C0.277,-0.366 0.296,-0.364 0.309,-0.352L0.317,-0.354L0.337,-0.428L0.333,-0.432C0.316,-0.437 0.315,-0.439 0.297,-0.439C0.243,-0.439 0.214,-0.408 0.17,-0.332L0.167,-0.334Z" style="fill-rule:nonzero;"/>
                </g>
                <g transform="matrix(41.6667,0,0,41.6667,1082.7,1619.2)">
                    <path d="M0.038,-0.205C0.038,-0.085 0.117,0.01 0.25,0.01C0.382,0.01 0.462,-0.083 0.462,-0.214C0.462,-0.35 0.389,-0.439 0.254,-0.439C0.123,-0.439 0.038,-0.347 0.038,-0.205ZM0.247,-0.399C0.353,-0.399 0.374,-0.317 0.374,-0.196C0.374,-0.101 0.326,-0.03 0.259,-0.03C0.153,-0.03 0.126,-0.145 0.126,-0.222C0.126,-0.309 0.153,-0.399 0.247,-0.399Z" style="fill-rule:nonzero;"/>
                </g>
                <g transform="matrix(41.6667,0,0,41.6667,1103.82,1619.2)">
                    <path d="M0.038,-0.205C0.038,-0.085 0.117,0.01 0.25,0.01C0.382,0.01 0.462,-0.083 0.462,-0.214C0.462,-0.35 0.389,-0.439 0.254,-0.439C0.123,-0.439 0.038,-0.347 0.038,-0.205ZM0.247,-0.399C0.353,-0.399 0.374,-0.317 0.374,-0.196C0.374,-0.101 0.326,-0.03 0.259,-0.03C0.153,-0.03 0.126,-0.145 0.126,-0.222C0.126,-0.309 0.153,-0.399 0.247,-0.399Z" style="fill-rule:nonzero;"/>
                </g>
                <g transform="matrix(41.6667,0,0,41.6667,1124.66,1619.2)">
                    <path d="M0.095,-0.429C0.075,-0.429 0.053,-0.429 0.041,-0.431C0.034,-0.415 0.029,-0.405 0.019,-0.39L0.024,-0.383C0.041,-0.384 0.072,-0.385 0.095,-0.385L0.095,-0.248C0.095,-0.188 0.092,-0.116 0.092,-0.086C0.092,-0.021 0.134,0.01 0.18,0.01C0.222,0.01 0.254,-0 0.296,-0.027L0.284,-0.052C0.253,-0.041 0.23,-0.04 0.205,-0.044C0.181,-0.048 0.172,-0.072 0.172,-0.126C0.172,-0.156 0.175,-0.199 0.175,-0.259L0.175,-0.385L0.213,-0.385C0.237,-0.385 0.272,-0.384 0.285,-0.383C0.288,-0.399 0.291,-0.409 0.297,-0.424L0.292,-0.431C0.274,-0.43 0.245,-0.429 0.222,-0.429L0.175,-0.429C0.175,-0.504 0.176,-0.517 0.18,-0.575C0.18,-0.582 0.177,-0.585 0.171,-0.585C0.146,-0.575 0.134,-0.564 0.101,-0.56L0.099,-0.557C0.097,-0.522 0.095,-0.487 0.095,-0.429Z" style="fill-rule:nonzero;"/>
                </g>
                <g transform="matrix(41.6667,0,0,41.6667,1138.82,1619.2)">
                    <path d="M0.061,-0.356C0.07,-0.323 0.084,-0.309 0.115,-0.302L0.119,-0.302C0.147,-0.309 0.163,-0.324 0.173,-0.356L0.173,-0.36C0.164,-0.388 0.148,-0.404 0.119,-0.414L0.115,-0.414C0.085,-0.402 0.07,-0.387 0.061,-0.36L0.061,-0.356ZM0.061,-0.093C0.07,-0.06 0.084,-0.046 0.115,-0.039L0.119,-0.039C0.147,-0.046 0.163,-0.061 0.173,-0.093L0.173,-0.097C0.164,-0.125 0.148,-0.141 0.119,-0.151L0.115,-0.151C0.085,-0.139 0.07,-0.124 0.061,-0.097L0.061,-0.093Z" style="fill-rule:nonzero;"/>
                </g>
                <g transform="matrix(41.6667,0,0,41.6667,1158.41,1619.2)">
                    <path d="M0.472,-0.08L0.467,-0.088L0.158,-0.088C0.153,-0.088 0.148,-0.089 0.146,-0.093C0.145,-0.095 0.146,-0.098 0.147,-0.099C0.197,-0.157 0.245,-0.215 0.29,-0.275C0.322,-0.317 0.353,-0.359 0.378,-0.405C0.404,-0.451 0.426,-0.5 0.426,-0.553C0.426,-0.594 0.414,-0.635 0.384,-0.664C0.355,-0.693 0.316,-0.708 0.275,-0.708C0.237,-0.708 0.201,-0.697 0.168,-0.679C0.128,-0.658 0.094,-0.628 0.064,-0.595L0.084,-0.576C0.108,-0.596 0.13,-0.611 0.158,-0.626C0.177,-0.636 0.199,-0.64 0.221,-0.64C0.25,-0.64 0.28,-0.629 0.3,-0.607C0.328,-0.578 0.334,-0.537 0.334,-0.508C0.334,-0.443 0.311,-0.382 0.276,-0.326C0.248,-0.28 0.213,-0.238 0.178,-0.197C0.125,-0.135 0.069,-0.076 0.012,-0.018L0.012,-0.002L0.449,-0.002L0.472,-0.08Z" style="fill-rule:nonzero;"/>
                </g>
                <g transform="matrix(24.2917,0,0,24.2917,1179.2,1605.33)">
                    <path d="M0.212,-0.575C0.212,-0.606 0.213,-0.626 0.215,-0.629C0.218,-0.635 0.22,-0.638 0.226,-0.641C0.232,-0.644 0.249,-0.645 0.292,-0.645C0.339,-0.645 0.448,-0.642 0.481,-0.635C0.523,-0.626 0.549,-0.613 0.571,-0.591C0.627,-0.535 0.644,-0.438 0.644,-0.377C0.644,-0.283 0.623,-0.185 0.555,-0.117C0.527,-0.089 0.491,-0.072 0.454,-0.06C0.407,-0.045 0.358,-0.04 0.309,-0.04C0.282,-0.04 0.243,-0.04 0.23,-0.053C0.215,-0.068 0.213,-0.13 0.212,-0.17L0.212,-0.575ZM0.106,-0.002L0.337,-0.002C0.397,-0.002 0.457,-0.007 0.514,-0.024C0.558,-0.037 0.608,-0.057 0.639,-0.091C0.716,-0.174 0.738,-0.258 0.738,-0.385C0.738,-0.43 0.734,-0.475 0.721,-0.517C0.711,-0.551 0.696,-0.583 0.671,-0.608C0.64,-0.639 0.598,-0.655 0.555,-0.666C0.495,-0.681 0.433,-0.686 0.371,-0.686L0.058,-0.686L0.051,-0.678L0.051,-0.659C0.07,-0.653 0.09,-0.648 0.109,-0.641C0.118,-0.637 0.125,-0.63 0.126,-0.62C0.127,-0.605 0.128,-0.589 0.128,-0.573L0.128,-0.079C0.127,-0.041 0.126,-0.027 0.106,-0.012L0.106,-0.002Z" style="fill-rule:nonzero;"/>
                </g>
                <g transform="matrix(41.6667,0,0,41.6667,1199.31,1619.2)">
                    <path d="M0.498,-0.236L0.504,-0.276L0.047,-0.276L0.04,-0.236L0.498,-0.236Z" style="fill-rule:nonzero;"/>
                </g>
                <g transform="matrix(41.6667,0,0,41.6667,1221.98,1619.2)">
                    <path d="M0.308,-0.712L0.092,-0.639L0.092,-0.612L0.175,-0.612C0.2,-0.612 0.22,-0.591 0.221,-0.566C0.222,-0.541 0.222,-0.468 0.222,-0.419C0.222,-0.279 0.219,-0.139 0.214,-0L0.226,0.005L0.31,-0.022C0.307,-0.098 0.307,-0.296 0.307,-0.432C0.307,-0.521 0.309,-0.611 0.314,-0.7L0.308,-0.712Z" style="fill-rule:nonzero;"/>
                </g>
                <g transform="matrix(41.6667,0,0,41.6667,1242.77,1619.2)">
                    <path d="M0.716,-0.329L0.722,-0.369L0.061,-0.369L0.054,-0.329L0.716,-0.329ZM0.716,-0.132L0.722,-0.172L0.061,-0.172L0.054,-0.132L0.716,-0.132Z" style="fill-rule:nonzero;"/>
                </g>
                <g transform="matrix(41.6667,0,0,41.6667,1288.15,1619.2)">
                    <path d="M0.29,-0.704C0.246,-0.686 0.197,-0.662 0.164,-0.629C0.079,-0.544 0.034,-0.423 0.034,-0.303C0.034,-0.245 0.039,-0.192 0.055,-0.136C0.066,-0.094 0.087,-0.053 0.118,-0.022C0.142,0.001 0.174,0.014 0.207,0.014C0.262,0.014 0.315,-0.008 0.354,-0.046C0.39,-0.083 0.416,-0.129 0.432,-0.177C0.452,-0.234 0.46,-0.295 0.46,-0.356C0.46,-0.434 0.445,-0.513 0.405,-0.582C0.376,-0.632 0.34,-0.672 0.29,-0.704ZM0.234,-0.64C0.279,-0.621 0.324,-0.551 0.33,-0.539C0.374,-0.461 0.398,-0.375 0.398,-0.285C0.398,-0.245 0.395,-0.204 0.383,-0.166C0.373,-0.135 0.36,-0.106 0.337,-0.083C0.316,-0.061 0.283,-0.052 0.252,-0.052C0.232,-0.052 0.203,-0.065 0.184,-0.084C0.153,-0.115 0.135,-0.156 0.122,-0.199C0.106,-0.254 0.101,-0.313 0.101,-0.371C0.101,-0.452 0.129,-0.532 0.181,-0.595C0.197,-0.614 0.215,-0.628 0.234,-0.64Z" style="fill-rule:nonzero;"/>
                </g>
                <g transform="matrix(41.6667,0,0,41.6667,1308.94,1619.2)">
                    <path d="M0.308,-0.712L0.092,-0.639L0.092,-0.612L0.175,-0.612C0.2,-0.612 0.22,-0.591 0.221,-0.566C0.222,-0.541 0.222,-0.468 0.222,-0.419C0.222,-0.279 0.219,-0.139 0.214,-0L0.226,0.005L0.31,-0.022C0.307,-0.098 0.307,-0.296 0.307,-0.432C0.307,-0.521 0.309,-0.611 0.314,-0.7L0.308,-0.712Z" style="fill-rule:nonzero;"/>
                </g>
                <g transform="matrix(41.6667,0,0,41.6667,1329.73,1619.2)">
                    <path d="M0.308,-0.712L0.092,-0.639L0.092,-0.612L0.175,-0.612C0.2,-0.612 0.22,-0.591 0.221,-0.566C0.222,-0.541 0.222,-0.468 0.222,-0.419C0.222,-0.279 0.219,-0.139 0.214,-0L0.226,0.005L0.31,-0.022C0.307,-0.098 0.307,-0.296 0.307,-0.432C0.307,-0.521 0.309,-0.611 0.314,-0.7L0.308,-0.712Z" style="fill-rule:nonzero;"/>
                </g>
                <g transform="matrix(41.6667,0,0,41.6667,1350.52,1619.2)">
                    <path d="M0.077,-0.052C0.077,-0.015 0.107,0.015 0.144,0.015C0.181,0.015 0.211,-0.015 0.211,-0.052C0.211,-0.089 0.181,-0.119 0.144,-0.119C0.107,-0.119 0.077,-0.089 0.077,-0.052Z" style="fill-rule:nonzero;"/>
                </g>
                <g transform="matrix(41.6667,0,0,41.6667,1362.06,1619.2)">
                    <path d="M0.077,-0.052C0.077,-0.015 0.107,0.015 0.144,0.015C0.181,0.015 0.211,-0.015 0.211,-0.052C0.211,-0.089 0.181,-0.119 0.144,-0.119C0.107,-0.119 0.077,-0.089 0.077,-0.052Z" style="fill-rule:nonzero;"/>
                </g>
                <g transform="matrix(41.6667,0,0,41.6667,1373.6,1619.2)">
                    <path d="M0.077,-0.052C0.077,-0.015 0.107,0.015 0.144,0.015C0.181,0.015 0.211,-0.015 0.211,-0.052C0.211,-0.089 0.181,-0.119 0.144,-0.119C0.107,-0.119 0.077,-0.089 0.077,-0.052Z" style="fill-rule:nonzero;"/>
                </g>
                <g transform="matrix(41.6667,0,0,41.6667,1385.15,1619.2)">
                    <path d="M0.308,-0.712L0.092,-0.639L0.092,-0.612L0.175,-0.612C0.2,-0.612 0.22,-0.591 0.221,-0.566C0.222,-0.541 0.222,-0.468 0.222,-0.419C0.222,-0.279 0.219,-0.139 0.214,-0L0.226,0.005L0.31,-0.022C0.307,-0.098 0.307,-0.296 0.307,-0.432C0.307,-0.521 0.309,-0.611 0.314,-0.7L0.308,-0.712Z" style="fill-rule:nonzero;"/>
                </g>
            </g>
            <g transform="matrix(1,0,0,1,-3.43008,19.2552)">
                <g transform="matrix(24.2917,0,0,24.2917,1345.31,1549.55)">
                    <path d="M0.212,-0.575C0.212,-0.606 0.213,-0.626 0.215,-0.629C0.218,-0.635 0.22,-0.638 0.226,-0.641C0.232,-0.644 0.249,-0.645 0.292,-0.645C0.339,-0.645 0.448,-0.642 0.481,-0.635C0.523,-0.626 0.549,-0.613 0.571,-0.591C0.627,-0.535 0.644,-0.438 0.644,-0.377C0.644,-0.283 0.623,-0.185 0.555,-0.117C0.527,-0.089 0.491,-0.072 0.454,-0.06C0.407,-0.045 0.358,-0.04 0.309,-0.04C0.282,-0.04 0.243,-0.04 0.23,-0.053C0.215,-0.068 0.213,-0.13 0.212,-0.17L0.212,-0.575ZM0.106,-0.002L0.337,-0.002C0.397,-0.002 0.457,-0.007 0.514,-0.024C0.558,-0.037 0.608,-0.057 0.639,-0.091C0.716,-0.174 0.738,-0.258 0.738,-0.385C0.738,-0.43 0.734,-0.475 0.721,-0.517C0.711,-0.551 0.696,-0.583 0.671,-0.608C0.64,-0.639 0.598,-0.655 0.555,-0.666C0.495,-0.681 0.433,-0.686 0.371,-0.686L0.058,-0.686L0.051,-0.678L0.051,-0.659C0.07,-0.653 0.09,-0.648 0.109,-0.641C0.118,-0.637 0.125,-0.63 0.126,-0.62C0.127,-0.605 0.128,-0.589 0.128,-0.573L0.128,-0.079C0.127,-0.041 0.126,-0.027 0.106,-0.012L0.106,-0.002Z" style="fill-rule:nonzero;"/>
                </g>
            </g>
        </g>
        <g transform="matrix(1,0,0,1,0,21)">
            <g transform="matrix(1,0,0,1,-377.953,220.935)">
                <circle cx="1047.01" cy="1330.48" r="7.643" style="fill:white;fill-opacity:0;stroke:black;stroke-width:4.17px;"/>
            </g>
            <g transform="matrix(1,0,0,1,-11.8966,-0.00556862)">
                <g>
                    <g transform="matrix(1,0,0,1,-41.3386,-94.4882)">
                        <path d="M472.441,1748.03L377.953,1937.01L568.667,1937.01L472.441,1748.03Z" style="fill:none;stroke:black;stroke-width:4.17px;"/>
                    </g>
                    <g transform="matrix(1,0,0,1,10.7499,28.4815)">
                        <g transform="matrix(41.6667,0,0,41.6667,405.409,1766.59)">
                            <path d="M0.212,-0.575C0.212,-0.606 0.213,-0.626 0.215,-0.629C0.218,-0.635 0.22,-0.638 0.226,-0.641C0.232,-0.644 0.249,-0.645 0.292,-0.645C0.339,-0.645 0.448,-0.642 0.481,-0.635C0.523,-0.626 0.549,-0.613 0.571,-0.591C0.627,-0.535 0.644,-0.438 0.644,-0.377C0.644,-0.283 0.623,-0.185 0.555,-0.117C0.527,-0.089 0.491,-0.072 0.454,-0.06C0.407,-0.045 0.358,-0.04 0.309,-0.04C0.282,-0.04 0.243,-0.04 0.23,-0.053C0.215,-0.068 0.213,-0.13 0.212,-0.17L0.212,-0.575ZM0.106,-0.002L0.337,-0.002C0.397,-0.002 0.457,-0.007 0.514,-0.024C0.558,-0.037 0.608,-0.057 0.639,-0.091C0.716,-0.174 0.738,-0.258 0.738,-0.385C0.738,-0.43 0.734,-0.475 0.721,-0.517C0.711,-0.551 0.696,-0.583 0.671,-0.608C0.64,-0.639 0.598,-0.655 0.555,-0.666C0.495,-0.681 0.433,-0.686 0.371,-0.686L0.058,-0.686L0.051,-0.678L0.051,-0.659C0.07,-0.653 0.09,-0.648 0.109,-0.641C0.118,-0.637 0.125,-0.63 0.126,-0.62C0.127,-0.605 0.128,-0.589 0.128,-0.573L0.128,-0.079C0.127,-0.041 0.126,-0.027 0.106,-0.012L0.106,-0.002Z" style="fill-rule:nonzero;"/>
                        </g>
                    </g>
                </g>
                <g transform="matrix(1,0,0,1,-5.8457,13.9844)">
                    <g transform="matrix(41.6667,0,0,41.6667,341.01,1867.57)">
                        <path d="M0.29,-0.704C0.246,-0.686 0.197,-0.662 0.164,-0.629C0.079,-0.544 0.034,-0.423 0.034,-0.303C0.034,-0.245 0.039,-0.192 0.055,-0.136C0.066,-0.094 0.087,-0.053 0.118,-0.022C0.142,0.001 0.174,0.014 0.207,0.014C0.262,0.014 0.315,-0.008 0.354,-0.046C0.39,-0.083 0.416,-0.129 0.432,-0.177C0.452,-0.234 0.46,-0.295 0.46,-0.356C0.46,-0.434 0.445,-0.513 0.405,-0.582C0.376,-0.632 0.34,-0.672 0.29,-0.704ZM0.234,-0.64C0.279,-0.621 0.324,-0.551 0.33,-0.539C0.374,-0.461 0.398,-0.375 0.398,-0.285C0.398,-0.245 0.395,-0.204 0.383,-0.166C0.373,-0.135 0.36,-0.106 0.337,-0.083C0.316,-0.061 0.283,-0.052 0.252,-0.052C0.232,-0.052 0.203,-0.065 0.184,-0.084C0.153,-0.115 0.135,-0.156 0.122,-0.199C0.106,-0.254 0.101,-0.313 0.101,-0.371C0.101,-0.452 0.129,-0.532 0.181,-0.595C0.197,-0.614 0.215,-0.628 0.234,-0.64Z" style="fill-rule:nonzero;"/>
                    </g>
                </g>
                <g transform="matrix(1,0,0,1,107.309,13.9844)">
                    <g transform="matrix(41.6667,0,0,41.6667,341.01,1867.57)">
                        <path d="M0.472,-0.08L0.467,-0.088L0.158,-0.088C0.153,-0.088 0.148,-0.089 0.146,-0.093C0.145,-0.095 0.146,-0.098 0.147,-0.099C0.197,-0.157 0.245,-0.215 0.29,-0.275C0.322,-0.317 0.353,-0.359 0.378,-0.405C0.404,-0.451 0.426,-0.5 0.426,-0.553C0.426,-0.594 0.414,-0.635 0.384,-0.664C0.355,-0.693 0.316,-0.708 0.275,-0.708C0.237,-0.708 0.201,-0.697 0.168,-0.679C0.128,-0.658 0.094,-0.628 0.064,-0.595L0.084,-0.576C0.108,-0.596 0.13,-0.611 0.158,-0.626C0.177,-0.636 0.199,-0.64 0.221,-0.64C0.25,-0.64 0.28,-0.629 0.3,-0.607C0.328,-0.578 0.334,-0.537 0.334,-0.508C0.334,-0.443 0.311,-0.382 0.276,-0.326C0.248,-0.28 0.213,-0.238 0.178,-0.197C0.125,-0.135 0.069,-0.076 0.012,-0.018L0.012,-0.002L0.449,-0.002L0.472,-0.08Z" style="fill-rule:nonzero;"/>
                    </g>
                    <g transform="matrix(24.2917,0,0,24.2917,361.801,1853.69)">
                        <path d="M0.212,-0.575C0.212,-0.606 0.213,-0.626 0.215,-0.629C0.218,-0.635 0.22,-0.638 0.226,-0.641C0.232,-0.644 0.249,-0.645 0.292,-0.645C0.339,-0.645 0.448,-0.642 0.481,-0.635C0.523,-0.626 0.549,-0.613 0.571,-0.591C0.627,-0.535 0.644,-0.438 0.644,-0.377C0.644,-0.283 0.623,-0.185 0.555,-0.117C0.527,-0.089 0.491,-0.072 0.454,-0.06C0.407,-0.045 0.358,-0.04 0.309,-0.04C0.282,-0.04 0.243,-0.04 0.23,-0.053C0.215,-0.068 0.213,-0.13 0.212,-0.17L0.212,-0.575ZM0.106,-0.002L0.337,-0.002C0.397,-0.002 0.457,-0.007 0.514,-0.024C0.558,-0.037 0.608,-0.057 0.639,-0.091C0.716,-0.174 0.738,-0.258 0.738,-0.385C0.738,-0.43 0.734,-0.475 0.721,-0.517C0.711,-0.551 0.696,-0.583 0.671,-0.608C0.64,-0.639 0.598,-0.655 0.555,-0.666C0.495,-0.681 0.433,-0.686 0.371,-0.686L0.058,-0.686L0.051,-0.678L0.051,-0.659C0.07,-0.653 0.09,-0.648 0.109,-0.641C0.118,-0.637 0.125,-0.63 0.126,-0.62C0.127,-0.605 0.128,-0.589 0.128,-0.573L0.128,-0.079C0.127,-0.041 0.126,-0.027 0.106,-0.012L0.106,-0.002Z" style="fill-rule:nonzero;"/>
                    </g>
                    <g transform="matrix(41.6667,0,0,41.6667,381.915,1867.57)">
                        <path d="M0.498,-0.236L0.504,-0.276L0.047,-0.276L0.04,-0.236L0.498,-0.236Z" style="fill-rule:nonzero;"/>
                    </g>
                    <g transform="matrix(41.6667,0,0,41.6667,404.582,1867.57)">
                        <path d="M0.472,-0.08L0.467,-0.088L0.158,-0.088C0.153,-0.088 0.148,-0.089 0.146,-0.093C0.145,-0.095 0.146,-0.098 0.147,-0.099C0.197,-0.157 0.245,-0.215 0.29,-0.275C0.322,-0.317 0.353,-0.359 0.378,-0.405C0.404,-0.451 0.426,-0.5 0.426,-0.553C0.426,-0.594 0.414,-0.635 0.384,-0.664C0.355,-0.693 0.316,-0.708 0.275,-0.708C0.237,-0.708 0.201,-0.697 0.168,-0.679C0.128,-0.658 0.094,-0.628 0.064,-0.595L0.084,-0.576C0.108,-0.596 0.13,-0.611 0.158,-0.626C0.177,-0.636 0.199,-0.64 0.221,-0.64C0.25,-0.64 0.28,-0.629 0.3,-0.607C0.328,-0.578 0.334,-0.537 0.334,-0.508C0.334,-0.443 0.311,-0.382 0.276,-0.326C0.248,-0.28 0.213,-0.238 0.178,-0.197C0.125,-0.135 0.069,-0.076 0.012,-0.018L0.012,-0.002L0.449,-0.002L0.472,-0.08Z" style="fill-rule:nonzero;"/>
                    </g>
                </g>
                <g transform="matrix(1,0,0,1,-1.43212,11.0336)">
                    <g transform="matrix(41.6667,0,0,41.6667,385.465,1869.81)">
                        <path d="M0.077,-0.052C0.077,-0.015 0.107,0.015 0.144,0.015C0.181,0.015 0.211,-0.015 0.211,-0.052C0.211,-0.089 0.181,-0.119 0.144,-0.119C0.107,-0.119 0.077,-0.089 0.077,-0.052Z" style="fill-rule:nonzero;"/>
                    </g>
                    <g transform="matrix(41.6667,0,0,41.6667,397.007,1869.81)">
                        <path d="M0.077,-0.052C0.077,-0.015 0.107,0.015 0.144,0.015C0.181,0.015 0.211,-0.015 0.211,-0.052C0.211,-0.089 0.181,-0.119 0.144,-0.119C0.107,-0.119 0.077,-0.089 0.077,-0.052Z" style="fill-rule:nonzero;"/>
                    </g>
                    <g transform="matrix(41.6667,0,0,41.6667,408.549,1869.81)">
                        <path d="M0.077,-0.052C0.077,-0.015 0.107,0.015 0.144,0.015C0.181,0.015 0.211,-0.015 0.211,-0.052C0.211,-0.089 0.181,-0.119 0.144,-0.119C0.107,-0.119 0.077,-0.089 0.077,-0.052Z" style="fill-rule:nonzero;"/>
                    </g>
                </g>
            </g>
            <g transform="matrix(1,0,0,1,146.504,1.48543)">
                <g>
                    <g transform="matrix(-1,0,0,1,1244.36,-95.9736)">
                        <path d="M472.441,1748.03L377.953,1937.01L568.667,1937.01L472.441,1748.03Z" style="fill:none;stroke:black;stroke-width:4.17px;"/>
                    </g>
                    <g transform="matrix(1,0,0,1,349.834,28.6898)">
                        <g transform="matrix(41.6667,0,0,41.6667,405.409,1766.59)">
                            <path d="M0.212,-0.575C0.212,-0.606 0.213,-0.626 0.215,-0.629C0.218,-0.635 0.22,-0.638 0.226,-0.641C0.232,-0.644 0.249,-0.645 0.292,-0.645C0.339,-0.645 0.448,-0.642 0.481,-0.635C0.523,-0.626 0.549,-0.613 0.571,-0.591C0.627,-0.535 0.644,-0.438 0.644,-0.377C0.644,-0.283 0.623,-0.185 0.555,-0.117C0.527,-0.089 0.491,-0.072 0.454,-0.06C0.407,-0.045 0.358,-0.04 0.309,-0.04C0.282,-0.04 0.243,-0.04 0.23,-0.053C0.215,-0.068 0.213,-0.13 0.212,-0.17L0.212,-0.575ZM0.106,-0.002L0.337,-0.002C0.397,-0.002 0.457,-0.007 0.514,-0.024C0.558,-0.037 0.608,-0.057 0.639,-0.091C0.716,-0.174 0.738,-0.258 0.738,-0.385C0.738,-0.43 0.734,-0.475 0.721,-0.517C0.711,-0.551 0.696,-0.583 0.671,-0.608C0.64,-0.639 0.598,-0.655 0.555,-0.666C0.495,-0.681 0.433,-0.686 0.371,-0.686L0.058,-0.686L0.051,-0.678L0.051,-0.659C0.07,-0.653 0.09,-0.648 0.109,-0.641C0.118,-0.637 0.125,-0.63 0.126,-0.62C0.127,-0.605 0.128,-0.589 0.128,-0.573L0.128,-0.079C0.127,-0.041 0.126,-0.027 0.106,-0.012L0.106,-0.002Z" style="fill-rule:nonzero;"/>
                        </g>
                    </g>
                </g>
                <g transform="matrix(1,0,0,1,329.758,16.53)">
                    <g transform="matrix(41.6667,0,0,41.6667,341.01,1867.57)">
                        <path d="M0.472,-0.08L0.467,-0.088L0.158,-0.088C0.153,-0.088 0.148,-0.089 0.146,-0.093C0.145,-0.095 0.146,-0.098 0.147,-0.099C0.197,-0.157 0.245,-0.215 0.29,-0.275C0.322,-0.317 0.353,-0.359 0.378,-0.405C0.404,-0.451 0.426,-0.5 0.426,-0.553C0.426,-0.594 0.414,-0.635 0.384,-0.664C0.355,-0.693 0.316,-0.708 0.275,-0.708C0.237,-0.708 0.201,-0.697 0.168,-0.679C0.128,-0.658 0.094,-0.628 0.064,-0.595L0.084,-0.576C0.108,-0.596 0.13,-0.611 0.158,-0.626C0.177,-0.636 0.199,-0.64 0.221,-0.64C0.25,-0.64 0.28,-0.629 0.3,-0.607C0.328,-0.578 0.334,-0.537 0.334,-0.508C0.334,-0.443 0.311,-0.382 0.276,-0.326C0.248,-0.28 0.213,-0.238 0.178,-0.197C0.125,-0.135 0.069,-0.076 0.012,-0.018L0.012,-0.002L0.449,-0.002L0.472,-0.08Z" style="fill-rule:nonzero;"/>
                    </g>
                    <g transform="matrix(24.2917,0,0,24.2917,361.801,1853.69)">
                        <path d="M0.212,-0.575C0.212,-0.606 0.213,-0.626 0.215,-0.629C0.218,-0.635 0.22,-0.638 0.226,-0.641C0.232,-0.644 0.249,-0.645 0.292,-0.645C0.339,-0.645 0.448,-0.642 0.481,-0.635C0.523,-0.626 0.549,-0.613 0.571,-0.591C0.627,-0.535 0.644,-0.438 0.644,-0.377C0.644,-0.283 0.623,-0.185 0.555,-0.117C0.527,-0.089 0.491,-0.072 0.454,-0.06C0.407,-0.045 0.358,-0.04 0.309,-0.04C0.282,-0.04 0.243,-0.04 0.23,-0.053C0.215,-0.068 0.213,-0.13 0.212,-0.17L0.212,-0.575ZM0.106,-0.002L0.337,-0.002C0.397,-0.002 0.457,-0.007 0.514,-0.024C0.558,-0.037 0.608,-0.057 0.639,-0.091C0.716,-0.174 0.738,-0.258 0.738,-0.385C0.738,-0.43 0.734,-0.475 0.721,-0.517C0.711,-0.551 0.696,-0.583 0.671,-0.608C0.64,-0.639 0.598,-0.655 0.555,-0.666C0.495,-0.681 0.433,-0.686 0.371,-0.686L0.058,-0.686L0.051,-0.678L0.051,-0.659C0.07,-0.653 0.09,-0.648 0.109,-0.641C0.118,-0.637 0.125,-0.63 0.126,-0.62C0.127,-0.605 0.128,-0.589 0.128,-0.573L0.128,-0.079C0.127,-0.041 0.126,-0.027 0.106,-0.012L0.106,-0.002Z" style="fill-rule:nonzero;"/>
                    </g>
                </g>
                <g transform="matrix(1,0,0,1,413.951,15.8217)">
                    <g transform="matrix(41.6667,0,0,41.6667,341.01,1867.57)">
                        <path d="M0.472,-0.08L0.467,-0.088L0.158,-0.088C0.153,-0.088 0.148,-0.089 0.146,-0.093C0.145,-0.095 0.146,-0.098 0.147,-0.099C0.197,-0.157 0.245,-0.215 0.29,-0.275C0.322,-0.317 0.353,-0.359 0.378,-0.405C0.404,-0.451 0.426,-0.5 0.426,-0.553C0.426,-0.594 0.414,-0.635 0.384,-0.664C0.355,-0.693 0.316,-0.708 0.275,-0.708C0.237,-0.708 0.201,-0.697 0.168,-0.679C0.128,-0.658 0.094,-0.628 0.064,-0.595L0.084,-0.576C0.108,-0.596 0.13,-0.611 0.158,-0.626C0.177,-0.636 0.199,-0.64 0.221,-0.64C0.25,-0.64 0.28,-0.629 0.3,-0.607C0.328,-0.578 0.334,-0.537 0.334,-0.508C0.334,-0.443 0.311,-0.382 0.276,-0.326C0.248,-0.28 0.213,-0.238 0.178,-0.197C0.125,-0.135 0.069,-0.076 0.012,-0.018L0.012,-0.002L0.449,-0.002L0.472,-0.08Z" style="fill-rule:nonzero;"/>
                    </g>
                    <g transform="matrix(24.2917,0,0,24.2917,361.801,1853.69)">
                        <path d="M0.212,-0.575C0.212,-0.606 0.213,-0.626 0.215,-0.629C0.218,-0.635 0.22,-0.638 0.226,-0.641C0.232,-0.644 0.249,-0.645 0.292,-0.645C0.339,-0.645 0.448,-0.642 0.481,-0.635C0.523,-0.626 0.549,-0.613 0.571,-0.591C0.627,-0.535 0.644,-0.438 0.644,-0.377C0.644,-0.283 0.623,-0.185 0.555,-0.117C0.527,-0.089 0.491,-0.072 0.454,-0.06C0.407,-0.045 0.358,-0.04 0.309,-0.04C0.282,-0.04 0.243,-0.04 0.23,-0.053C0.215,-0.068 0.213,-0.13 0.212,-0.17L0.212,-0.575ZM0.106,-0.002L0.337,-0.002C0.397,-0.002 0.457,-0.007 0.514,-0.024C0.558,-0.037 0.608,-0.057 0.639,-0.091C0.716,-0.174 0.738,-0.258 0.738,-0.385C0.738,-0.43 0.734,-0.475 0.721,-0.517C0.711,-0.551 0.696,-0.583 0.671,-0.608C0.64,-0.639 0.598,-0.655 0.555,-0.666C0.495,-0.681 0.433,-0.686 0.371,-0.686L0.058,-0.686L0.051,-0.678L0.051,-0.659C0.07,-0.653 0.09,-0.648 0.109,-0.641C0.118,-0.637 0.125,-0.63 0.126,-0.62C0.127,-0.605 0.128,-0.589 0.128,-0.573L0.128,-0.079C0.127,-0.041 0.126,-0.027 0.106,-0.012L0.106,-0.002Z" style="fill-rule:nonzero;"/>
                    </g>
                    <g transform="matrix(24.2917,0,0,24.2917,381.915,1853.69)">
                        <path d="M0.396,-0.276L0.396,-0.586L0.356,-0.58L0.356,-0.276L0.053,-0.276L0.046,-0.236L0.356,-0.236L0.356,0.074L0.396,0.067L0.396,-0.236L0.704,-0.236L0.709,-0.276L0.396,-0.276Z" style="fill-rule:nonzero;"/>
                    </g>
                    <g transform="matrix(24.2917,0,0,24.2917,400.255,1853.69)">
                        <path d="M0.308,-0.712L0.092,-0.639L0.092,-0.612L0.175,-0.612C0.2,-0.612 0.22,-0.591 0.221,-0.566C0.222,-0.541 0.222,-0.468 0.222,-0.419C0.222,-0.279 0.219,-0.139 0.214,-0L0.226,0.005L0.31,-0.022C0.307,-0.098 0.307,-0.296 0.307,-0.432C0.307,-0.521 0.309,-0.611 0.314,-0.7L0.308,-0.712Z" style="fill-rule:nonzero;"/>
                    </g>
                    <g transform="matrix(41.6667,0,0,41.6667,412.377,1867.57)">
                        <path d="M0.498,-0.236L0.504,-0.276L0.047,-0.276L0.04,-0.236L0.498,-0.236Z" style="fill-rule:nonzero;"/>
                    </g>
                    <g transform="matrix(41.6667,0,0,41.6667,435.043,1867.57)">
                        <path d="M0.472,-0.08L0.467,-0.088L0.158,-0.088C0.153,-0.088 0.148,-0.089 0.146,-0.093C0.145,-0.095 0.146,-0.098 0.147,-0.099C0.197,-0.157 0.245,-0.215 0.29,-0.275C0.322,-0.317 0.353,-0.359 0.378,-0.405C0.404,-0.451 0.426,-0.5 0.426,-0.553C0.426,-0.594 0.414,-0.635 0.384,-0.664C0.355,-0.693 0.316,-0.708 0.275,-0.708C0.237,-0.708 0.201,-0.697 0.168,-0.679C0.128,-0.658 0.094,-0.628 0.064,-0.595L0.084,-0.576C0.108,-0.596 0.13,-0.611 0.158,-0.626C0.177,-0.636 0.199,-0.64 0.221,-0.64C0.25,-0.64 0.28,-0.629 0.3,-0.607C0.328,-0.578 0.334,-0.537 0.334,-0.508C0.334,-0.443 0.311,-0.382 0.276,-0.326C0.248,-0.28 0.213,-0.238 0.178,-0.197C0.125,-0.135 0.069,-0.076 0.012,-0.018L0.012,-0.002L0.449,-0.002L0.472,-0.08Z" style="fill-rule:nonzero;"/>
                    </g>
                </g>
                <g transform="matrix(1,0,0,1,324.505,12.9862)">
                    <g transform="matrix(41.6667,0,0,41.6667,385.465,1869.81)">
                        <path d="M0.077,-0.052C0.077,-0.015 0.107,0.015 0.144,0.015C0.181,0.015 0.211,-0.015 0.211,-0.052C0.211,-0.089 0.181,-0.119 0.144,-0.119C0.107,-0.119 0.077,-0.089 0.077,-0.052Z" style="fill-rule:nonzero;"/>
                    </g>
                    <g transform="matrix(41.6667,0,0,41.6667,397.007,1869.81)">
                        <path d="M0.077,-0.052C0.077,-0.015 0.107,0.015 0.144,0.015C0.181,0.015 0.211,-0.015 0.211,-0.052C0.211,-0.089 0.181,-0.119 0.144,-0.119C0.107,-0.119 0.077,-0.089 0.077,-0.052Z" style="fill-rule:nonzero;"/>
                    </g>
                    <g transform="matrix(41.6667,0,0,41.6667,408.549,1869.81)">
                        <path d="M0.077,-0.052C0.077,-0.015 0.107,0.015 0.144,0.015C0.181,0.015 0.211,-0.015 0.211,-0.052C0.211,-0.089 0.181,-0.119 0.144,-0.119C0.107,-0.119 0.077,-0.089 0.077,-0.052Z" style="fill-rule:nonzero;"/>
                    </g>
                </g>
            </g>
            <g transform="matrix(1,0,0,1,289.461,17.7238)">
                <g transform="matrix(41.6667,0,0,41.6667,341.01,1867.57)">
                    <path d="M0.472,-0.08L0.467,-0.088L0.158,-0.088C0.153,-0.088 0.148,-0.089 0.146,-0.093C0.145,-0.095 0.146,-0.098 0.147,-0.099C0.197,-0.157 0.245,-0.215 0.29,-0.275C0.322,-0.317 0.353,-0.359 0.378,-0.405C0.404,-0.451 0.426,-0.5 0.426,-0.553C0.426,-0.594 0.414,-0.635 0.384,-0.664C0.355,-0.693 0.316,-0.708 0.275,-0.708C0.237,-0.708 0.201,-0.697 0.168,-0.679C0.128,-0.658 0.094,-0.628 0.064,-0.595L0.084,-0.576C0.108,-0.596 0.13,-0.611 0.158,-0.626C0.177,-0.636 0.199,-0.64 0.221,-0.64C0.25,-0.64 0.28,-0.629 0.3,-0.607C0.328,-0.578 0.334,-0.537 0.334,-0.508C0.334,-0.443 0.311,-0.382 0.276,-0.326C0.248,-0.28 0.213,-0.238 0.178,-0.197C0.125,-0.135 0.069,-0.076 0.012,-0.018L0.012,-0.002L0.449,-0.002L0.472,-0.08Z" style="fill-rule:nonzero;"/>
                </g>
                <g transform="matrix(24.2917,0,0,24.2917,361.801,1853.69)">
                    <path d="M0.212,-0.575C0.212,-0.606 0.213,-0.626 0.215,-0.629C0.218,-0.635 0.22,-0.638 0.226,-0.641C0.232,-0.644 0.249,-0.645 0.292,-0.645C0.339,-0.645 0.448,-0.642 0.481,-0.635C0.523,-0.626 0.549,-0.613 0.571,-0.591C0.627,-0.535 0.644,-0.438 0.644,-0.377C0.644,-0.283 0.623,-0.185 0.555,-0.117C0.527,-0.089 0.491,-0.072 0.454,-0.06C0.407,-0.045 0.358,-0.04 0.309,-0.04C0.282,-0.04 0.243,-0.04 0.23,-0.053C0.215,-0.068 0.213,-0.13 0.212,-0.17L0.212,-0.575ZM0.106,-0.002L0.337,-0.002C0.397,-0.002 0.457,-0.007 0.514,-0.024C0.558,-0.037 0.608,-0.057 0.639,-0.091C0.716,-0.174 0.738,-0.258 0.738,-0.385C0.738,-0.43 0.734,-0.475 0.721,-0.517C0.711,-0.551 0.696,-0.583 0.671,-0.608C0.64,-0.639 0.598,-0.655 0.555,-0.666C0.495,-0.681 0.433,-0.686 0.371,-0.686L0.058,-0.686L0.051,-0.678L0.051,-0.659C0.07,-0.653 0.09,-0.648 0.109,-0.641C0.118,-0.637 0.125,-0.63 0.126,-0.62C0.127,-0.605 0.128,-0.589 0.128,-0.573L0.128,-0.079C0.127,-0.041 0.126,-0.027 0.106,-0.012L0.106,-0.002Z" style="fill-rule:nonzero;"/>
                </g>
                <g transform="matrix(41.6667,0,0,41.6667,381.915,1867.57)">
                    <path d="M0.498,-0.236L0.504,-0.276L0.047,-0.276L0.04,-0.236L0.498,-0.236Z" style="fill-rule:nonzero;"/>
                </g>
                <g transform="matrix(41.6667,0,0,41.6667,404.582,1867.57)">
                    <path d="M0.308,-0.712L0.092,-0.639L0.092,-0.612L0.175,-0.612C0.2,-0.612 0.22,-0.591 0.221,-0.566C0.222,-0.541 0.222,-0.468 0.222,-0.419C0.222,-0.279 0.219,-0.139 0.214,-0L0.226,0.005L0.31,-0.022C0.307,-0.098 0.307,-0.296 0.307,-0.432C0.307,-0.521 0.309,-0.611 0.314,-0.7L0.308,-0.712Z" style="fill-rule:nonzero;"/>
                </g>
            </g>
            <path d="M661.417,1551.41L420.074,1653.54" style="fill:none;stroke:black;stroke-width:4.17px;"/>
            <g transform="matrix(-1,0,0,1,1338.12,0)">
                <path d="M661.417,1551.41L420.074,1653.54" style="fill:none;stroke:black;stroke-width:4.17px;"/>
            </g>
            <g transform="matrix(1,0,0,1,2.63197,-31.1116)">
                <g transform="matrix(1,0,0,1,-8.62341,119.56)">
                    <g transform="matrix(41.6667,0,0,41.6667,1068.24,1619.2)">
                        <path d="M0.09,-0.2C0.09,-0.126 0.089,-0.054 0.081,-0L0.083,0.003C0.095,0.001 0.118,-0 0.13,-0C0.142,-0 0.165,0.001 0.177,0.003L0.179,-0C0.171,-0.057 0.17,-0.125 0.17,-0.2L0.17,-0.5C0.17,-0.575 0.174,-0.625 0.179,-0.688C0.179,-0.695 0.176,-0.698 0.17,-0.698C0.145,-0.688 0.124,-0.681 0.083,-0.678L0.081,-0.675C0.089,-0.632 0.09,-0.558 0.09,-0.482L0.09,-0.2Z" style="fill-rule:nonzero;"/>
                    </g>
                    <g transform="matrix(41.6667,0,0,41.6667,1078.74,1619.2)">
                        <path d="M0.125,-0.273C0.142,-0.377 0.208,-0.399 0.239,-0.399C0.279,-0.399 0.323,-0.362 0.323,-0.287C0.323,-0.278 0.319,-0.273 0.309,-0.273L0.125,-0.273ZM0.392,-0.104C0.357,-0.066 0.31,-0.049 0.255,-0.049C0.221,-0.049 0.174,-0.062 0.146,-0.106C0.128,-0.134 0.122,-0.175 0.122,-0.233L0.394,-0.233C0.405,-0.233 0.412,-0.239 0.412,-0.25C0.412,-0.334 0.371,-0.439 0.239,-0.439C0.136,-0.439 0.034,-0.356 0.034,-0.209C0.034,-0.152 0.046,-0.096 0.079,-0.056C0.113,-0.015 0.171,0.01 0.238,0.01C0.31,0.01 0.374,-0.027 0.412,-0.079L0.392,-0.104Z" style="fill-rule:nonzero;"/>
                    </g>
                    <g transform="matrix(41.6667,0,0,41.6667,1097.62,1619.2)">
                        <path d="M0.099,-0.385L0.099,-0.2C0.099,-0.126 0.098,-0.054 0.089,-0L0.09,0.003C0.09,0.003 0.104,-0 0.139,-0C0.173,-0 0.187,0.003 0.187,0.003L0.189,-0C0.181,-0.057 0.179,-0.125 0.179,-0.2L0.179,-0.385L0.391,-0.385L0.391,-0.231C0.391,-0.171 0.388,-0.099 0.388,-0.069C0.388,-0.022 0.42,0.01 0.466,0.01C0.508,0.01 0.553,-0.001 0.592,-0.037L0.58,-0.062C0.553,-0.046 0.527,-0.044 0.501,-0.044C0.474,-0.044 0.468,-0.068 0.468,-0.109C0.468,-0.139 0.471,-0.182 0.471,-0.242L0.471,-0.385L0.509,-0.385C0.533,-0.385 0.568,-0.384 0.581,-0.383C0.584,-0.399 0.587,-0.409 0.593,-0.424L0.588,-0.431C0.574,-0.43 0.541,-0.429 0.518,-0.429L0.471,-0.429C0.471,-0.504 0.472,-0.51 0.476,-0.568C0.476,-0.575 0.473,-0.578 0.467,-0.578C0.442,-0.568 0.427,-0.556 0.386,-0.553L0.384,-0.55C0.391,-0.508 0.391,-0.487 0.391,-0.429L0.179,-0.429L0.179,-0.439C0.179,-0.464 0.174,-0.517 0.174,-0.535C0.174,-0.59 0.2,-0.638 0.257,-0.638C0.286,-0.638 0.304,-0.623 0.315,-0.603L0.326,-0.604C0.333,-0.631 0.343,-0.667 0.354,-0.686L0.353,-0.689C0.345,-0.694 0.327,-0.698 0.308,-0.698C0.245,-0.698 0.19,-0.671 0.154,-0.622C0.118,-0.573 0.099,-0.547 0.099,-0.469L0.099,-0.429C0.077,-0.429 0.054,-0.429 0.041,-0.431C0.034,-0.415 0.029,-0.405 0.019,-0.39L0.024,-0.383C0.042,-0.384 0.075,-0.385 0.098,-0.385L0.099,-0.385Z" style="fill-rule:nonzero;"/>
                    </g>
                    <g transform="matrix(41.6667,0,0,41.6667,1134.53,1619.2)">
                        <path d="M0.05,-0.101L0.033,-0.017C0.09,0.003 0.146,0.01 0.184,0.01C0.322,0.01 0.354,-0.072 0.354,-0.127C0.354,-0.209 0.289,-0.241 0.218,-0.258C0.18,-0.267 0.125,-0.286 0.125,-0.336C0.125,-0.377 0.158,-0.399 0.201,-0.399C0.253,-0.399 0.285,-0.358 0.308,-0.331L0.322,-0.332L0.342,-0.406L0.34,-0.409C0.311,-0.424 0.256,-0.439 0.205,-0.439C0.131,-0.439 0.054,-0.4 0.054,-0.317C0.054,-0.237 0.114,-0.211 0.174,-0.194C0.232,-0.178 0.275,-0.162 0.275,-0.113C0.275,-0.06 0.236,-0.03 0.183,-0.03C0.135,-0.03 0.093,-0.063 0.065,-0.102L0.05,-0.101Z" style="fill-rule:nonzero;"/>
                    </g>
                    <g transform="matrix(41.6667,0,0,41.6667,1151.03,1619.2)">
                        <path d="M0.365,-0.092L0.369,-0.089L0.374,-0C0.374,0.002 0.375,0.003 0.378,0.003C0.391,0.001 0.403,-0 0.418,-0C0.43,-0 0.449,0.001 0.462,0.003L0.464,-0C0.456,-0.043 0.447,-0.117 0.447,-0.192L0.447,-0.249C0.447,-0.324 0.448,-0.376 0.456,-0.429L0.454,-0.432C0.442,-0.43 0.419,-0.429 0.407,-0.429C0.395,-0.429 0.372,-0.43 0.36,-0.432L0.358,-0.429C0.366,-0.372 0.367,-0.325 0.367,-0.249L0.367,-0.151C0.337,-0.1 0.279,-0.046 0.23,-0.046C0.196,-0.046 0.163,-0.057 0.163,-0.15L0.163,-0.249C0.163,-0.324 0.164,-0.376 0.172,-0.429L0.17,-0.432C0.158,-0.43 0.135,-0.429 0.123,-0.429C0.111,-0.429 0.088,-0.43 0.076,-0.432L0.074,-0.429C0.082,-0.372 0.083,-0.325 0.083,-0.249L0.083,-0.129C0.083,-0.06 0.115,0.01 0.214,0.01C0.276,0.01 0.332,-0.041 0.365,-0.092Z" style="fill-rule:nonzero;"/>
                    </g>
                    <g transform="matrix(41.6667,0,0,41.6667,1173.41,1619.2)">
                        <path d="M0.162,-0.081L0.162,-0.34C0.201,-0.38 0.226,-0.399 0.267,-0.399C0.328,-0.399 0.382,-0.349 0.382,-0.224C0.382,-0.1 0.345,-0.03 0.25,-0.03C0.219,-0.03 0.182,-0.056 0.162,-0.081ZM0.162,-0.5C0.162,-0.574 0.163,-0.627 0.168,-0.688C0.168,-0.695 0.165,-0.698 0.159,-0.698C0.134,-0.688 0.113,-0.681 0.072,-0.678L0.07,-0.675C0.078,-0.632 0.082,-0.558 0.082,-0.482L0.082,-0.073C0.082,-0.034 0.081,-0.02 0.077,0.002C0.083,0.008 0.095,0.01 0.105,0.01C0.116,-0.002 0.128,-0.019 0.138,-0.039C0.167,-0.014 0.213,0.01 0.256,0.01C0.358,0.01 0.471,-0.062 0.471,-0.232C0.471,-0.354 0.384,-0.439 0.287,-0.439C0.239,-0.439 0.196,-0.426 0.162,-0.389L0.162,-0.5Z" style="fill-rule:nonzero;"/>
                    </g>
                    <g transform="matrix(41.6667,0,0,41.6667,1194.41,1619.2)">
                        <path d="M0.095,-0.429C0.075,-0.429 0.053,-0.429 0.041,-0.431C0.034,-0.415 0.029,-0.405 0.019,-0.39L0.024,-0.383C0.041,-0.384 0.072,-0.385 0.095,-0.385L0.095,-0.248C0.095,-0.188 0.092,-0.116 0.092,-0.086C0.092,-0.021 0.134,0.01 0.18,0.01C0.222,0.01 0.254,-0 0.296,-0.027L0.284,-0.052C0.253,-0.041 0.23,-0.04 0.205,-0.044C0.181,-0.048 0.172,-0.072 0.172,-0.126C0.172,-0.156 0.175,-0.199 0.175,-0.259L0.175,-0.385L0.213,-0.385C0.237,-0.385 0.272,-0.384 0.285,-0.383C0.288,-0.399 0.291,-0.409 0.297,-0.424L0.292,-0.431C0.274,-0.43 0.245,-0.429 0.222,-0.429L0.175,-0.429C0.175,-0.504 0.176,-0.517 0.18,-0.575C0.18,-0.582 0.177,-0.585 0.171,-0.585C0.146,-0.575 0.134,-0.564 0.101,-0.56L0.099,-0.557C0.097,-0.522 0.095,-0.487 0.095,-0.429Z" style="fill-rule:nonzero;"/>
                    </g>
                    <g transform="matrix(41.6667,0,0,41.6667,1208.57,1619.2)">
                        <path d="M0.167,-0.334L0.167,-0.425C0.167,-0.433 0.166,-0.435 0.161,-0.435C0.139,-0.431 0.103,-0.43 0.08,-0.432L0.078,-0.429C0.085,-0.386 0.087,-0.31 0.087,-0.235L0.087,-0.18C0.087,-0.105 0.086,-0.054 0.078,-0L0.08,0.003C0.092,0.001 0.115,-0 0.127,-0C0.139,-0 0.162,0.001 0.174,0.003L0.176,-0C0.169,-0.057 0.167,-0.104 0.167,-0.18L0.167,-0.232C0.167,-0.274 0.18,-0.298 0.201,-0.331C0.216,-0.353 0.238,-0.366 0.257,-0.366C0.277,-0.366 0.296,-0.364 0.309,-0.352L0.317,-0.354L0.337,-0.428L0.333,-0.432C0.316,-0.437 0.315,-0.439 0.297,-0.439C0.243,-0.439 0.214,-0.408 0.17,-0.332L0.167,-0.334Z" style="fill-rule:nonzero;"/>
                    </g>
                    <g transform="matrix(41.6667,0,0,41.6667,1223.03,1619.2)">
                        <path d="M0.125,-0.273C0.142,-0.377 0.208,-0.399 0.239,-0.399C0.279,-0.399 0.323,-0.362 0.323,-0.287C0.323,-0.278 0.319,-0.273 0.309,-0.273L0.125,-0.273ZM0.392,-0.104C0.357,-0.066 0.31,-0.049 0.255,-0.049C0.221,-0.049 0.174,-0.062 0.146,-0.106C0.128,-0.134 0.122,-0.175 0.122,-0.233L0.394,-0.233C0.405,-0.233 0.412,-0.239 0.412,-0.25C0.412,-0.334 0.371,-0.439 0.239,-0.439C0.136,-0.439 0.034,-0.356 0.034,-0.209C0.034,-0.152 0.046,-0.096 0.079,-0.056C0.113,-0.015 0.171,0.01 0.238,0.01C0.31,0.01 0.374,-0.027 0.412,-0.079L0.392,-0.104Z" style="fill-rule:nonzero;"/>
                    </g>
                    <g transform="matrix(41.6667,0,0,41.6667,1242.2,1619.2)">
                        <path d="M0.125,-0.273C0.142,-0.377 0.208,-0.399 0.239,-0.399C0.279,-0.399 0.323,-0.362 0.323,-0.287C0.323,-0.278 0.319,-0.273 0.309,-0.273L0.125,-0.273ZM0.392,-0.104C0.357,-0.066 0.31,-0.049 0.255,-0.049C0.221,-0.049 0.174,-0.062 0.146,-0.106C0.128,-0.134 0.122,-0.175 0.122,-0.233L0.394,-0.233C0.405,-0.233 0.412,-0.239 0.412,-0.25C0.412,-0.334 0.371,-0.439 0.239,-0.439C0.136,-0.439 0.034,-0.356 0.034,-0.209C0.034,-0.152 0.046,-0.096 0.079,-0.056C0.113,-0.015 0.171,0.01 0.238,0.01C0.31,0.01 0.374,-0.027 0.412,-0.079L0.392,-0.104Z" style="fill-rule:nonzero;"/>
                    </g>
                    <g transform="matrix(41.6667,0,0,41.6667,1261.07,1619.2)">
                        <path d="M0.061,-0.356C0.07,-0.323 0.084,-0.309 0.115,-0.302L0.119,-0.302C0.147,-0.309 0.163,-0.324 0.173,-0.356L0.173,-0.36C0.164,-0.388 0.148,-0.404 0.119,-0.414L0.115,-0.414C0.085,-0.402 0.07,-0.387 0.061,-0.36L0.061,-0.356ZM0.061,-0.093C0.07,-0.06 0.084,-0.046 0.115,-0.039L0.119,-0.039C0.147,-0.046 0.163,-0.061 0.173,-0.093L0.173,-0.097C0.164,-0.125 0.148,-0.141 0.119,-0.151L0.115,-0.151C0.085,-0.139 0.07,-0.124 0.061,-0.097L0.061,-0.093Z" style="fill-rule:nonzero;"/>
                    </g>
                    <g transform="matrix(41.6667,0,0,41.6667,1311.87,1619.2)">
                        <path d="M0.29,-0.704C0.246,-0.686 0.197,-0.662 0.164,-0.629C0.079,-0.544 0.034,-0.423 0.034,-0.303C0.034,-0.245 0.039,-0.192 0.055,-0.136C0.066,-0.094 0.087,-0.053 0.118,-0.022C0.142,0.001 0.174,0.014 0.207,0.014C0.262,0.014 0.315,-0.008 0.354,-0.046C0.39,-0.083 0.416,-0.129 0.432,-0.177C0.452,-0.234 0.46,-0.295 0.46,-0.356C0.46,-0.434 0.445,-0.513 0.405,-0.582C0.376,-0.632 0.34,-0.672 0.29,-0.704ZM0.234,-0.64C0.279,-0.621 0.324,-0.551 0.33,-0.539C0.374,-0.461 0.398,-0.375 0.398,-0.285C0.398,-0.245 0.395,-0.204 0.383,-0.166C0.373,-0.135 0.36,-0.106 0.337,-0.083C0.316,-0.061 0.283,-0.052 0.252,-0.052C0.232,-0.052 0.203,-0.065 0.184,-0.084C0.153,-0.115 0.135,-0.156 0.122,-0.199C0.106,-0.254 0.101,-0.313 0.101,-0.371C0.101,-0.452 0.129,-0.532 0.181,-0.595C0.197,-0.614 0.215,-0.628 0.234,-0.64Z" style="fill-rule:nonzero;"/>
                    </g>
                    <g transform="matrix(41.6667,0,0,41.6667,1332.66,1619.2)">
                        <path d="M0.077,-0.052C0.077,-0.015 0.107,0.015 0.144,0.015C0.181,0.015 0.211,-0.015 0.211,-0.052C0.211,-0.089 0.181,-0.119 0.144,-0.119C0.107,-0.119 0.077,-0.089 0.077,-0.052Z" style="fill-rule:nonzero;"/>
                    </g>
                    <g transform="matrix(41.6667,0,0,41.6667,1344.2,1619.2)">
                        <path d="M0.077,-0.052C0.077,-0.015 0.107,0.015 0.144,0.015C0.181,0.015 0.211,-0.015 0.211,-0.052C0.211,-0.089 0.181,-0.119 0.144,-0.119C0.107,-0.119 0.077,-0.089 0.077,-0.052Z" style="fill-rule:nonzero;"/>
                    </g>
                    <g transform="matrix(41.6667,0,0,41.6667,1355.74,1619.2)">
                        <path d="M0.077,-0.052C0.077,-0.015 0.107,0.015 0.144,0.015C0.181,0.015 0.211,-0.015 0.211,-0.052C0.211,-0.089 0.181,-0.119 0.144,-0.119C0.107,-0.119 0.077,-0.089 0.077,-0.052Z" style="fill-rule:nonzero;"/>
                    </g>
                    <g transform="matrix(41.6667,0,0,41.6667,1367.28,1619.2)">
                        <path d="M0.077,-0.052C0.077,-0.015 0.107,0.015 0.144,0.015C0.181,0.015 0.211,-0.015 0.211,-0.052C0.211,-0.089 0.181,-0.119 0.144,-0.119C0.107,-0.119 0.077,-0.089 0.077,-0.052Z" style="fill-rule:nonzero;"/>
                    </g>
                    <g transform="matrix(41.6667,0,0,41.6667,1378.82,1619.2)">
                        <path d="M0.077,-0.052C0.077,-0.015 0.107,0.015 0.144,0.015C0.181,0.015 0.211,-0.015 0.211,-0.052C0.211,-0.089 0.181,-0.119 0.144,-0.119C0.107,-0.119 0.077,-0.089 0.077,-0.052Z" style="fill-rule:nonzero;"/>
                    </g>
                    <g transform="matrix(41.6667,0,0,41.6667,1390.37,1619.2)">
                        <path d="M0.077,-0.052C0.077,-0.015 0.107,0.015 0.144,0.015C0.181,0.015 0.211,-0.015 0.211,-0.052C0.211,-0.089 0.181,-0.119 0.144,-0.119C0.107,-0.119 0.077,-0.089 0.077,-0.052Z" style="fill-rule:nonzero;"/>
                    </g>
                </g>
                <g>
                    <g transform="matrix(0.1875,0,0,0.383137,1234.25,1175.86)">
                        <path d="M472.441,1370.08C472.86,1355.41 476.576,1344.84 519.685,1346.46C519.685,1346.46 613.862,1347.29 637.795,1346.46C661.876,1345.61 661.417,1322.84 661.417,1322.84" style="fill:none;stroke:black;stroke-width:13.81px;"/>
                        <g transform="matrix(-1,0,0,1,1322.83,0)">
                            <path d="M472.441,1370.08C472.86,1355.41 476.576,1344.84 519.685,1346.46C519.685,1346.46 613.862,1347.29 637.795,1346.46C661.876,1345.61 661.417,1322.84 661.417,1322.84" style="fill:none;stroke:black;stroke-width:13.81px;"/>
                        </g>
                    </g>
                    <g transform="matrix(1,0,0,1,-26.2936,120.855)">
                        <g transform="matrix(24.2917,0,0,24.2917,1345.31,1549.55)">
                            <path d="M0.212,-0.575C0.212,-0.606 0.213,-0.626 0.215,-0.629C0.218,-0.635 0.22,-0.638 0.226,-0.641C0.232,-0.644 0.249,-0.645 0.292,-0.645C0.339,-0.645 0.448,-0.642 0.481,-0.635C0.523,-0.626 0.549,-0.613 0.571,-0.591C0.627,-0.535 0.644,-0.438 0.644,-0.377C0.644,-0.283 0.623,-0.185 0.555,-0.117C0.527,-0.089 0.491,-0.072 0.454,-0.06C0.407,-0.045 0.358,-0.04 0.309,-0.04C0.282,-0.04 0.243,-0.04 0.23,-0.053C0.215,-0.068 0.213,-0.13 0.212,-0.17L0.212,-0.575ZM0.106,-0.002L0.337,-0.002C0.397,-0.002 0.457,-0.007 0.514,-0.024C0.558,-0.037 0.608,-0.057 0.639,-0.091C0.716,-0.174 0.738,-0.258 0.738,-0.385C0.738,-0.43 0.734,-0.475 0.721,-0.517C0.711,-0.551 0.696,-0.583 0.671,-0.608C0.64,-0.639 0.598,-0.655 0.555,-0.666C0.495,-0.681 0.433,-0.686 0.371,-0.686L0.058,-0.686L0.051,-0.678L0.051,-0.659C0.07,-0.653 0.09,-0.648 0.109,-0.641C0.118,-0.637 0.125,-0.63 0.126,-0.62C0.127,-0.605 0.128,-0.589 0.128,-0.573L0.128,-0.079C0.127,-0.041 0.126,-0.027 0.106,-0.012L0.106,-0.002Z" style="fill-rule:nonzero;"/>
                        </g>
                        <g transform="matrix(24.2917,0,0,24.2917,1365.42,1549.55)">
                            <path d="M0.498,-0.236L0.504,-0.276L0.047,-0.276L0.04,-0.236L0.498,-0.236Z" style="fill-rule:nonzero;"/>
                        </g>
                        <g transform="matrix(24.2917,0,0,24.2917,1378.63,1549.55)">
                            <path d="M0.138,-0.582C0.14,-0.556 0.14,-0.492 0.14,-0.441L0.134,-0.435L0.03,-0.435L0.024,-0.429L0.017,-0.405L0.022,-0.4L0.134,-0.4L0.14,-0.393L0.14,-0.203C0.14,-0.068 0.142,-0.049 0.163,-0.022C0.181,0.002 0.212,0.009 0.235,0.009C0.262,0.009 0.287,-0.001 0.311,-0.014C0.343,-0.031 0.372,-0.054 0.399,-0.079L0.392,-0.094L0.38,-0.096C0.35,-0.077 0.314,-0.055 0.289,-0.055C0.272,-0.055 0.257,-0.06 0.244,-0.075C0.222,-0.099 0.218,-0.163 0.218,-0.205L0.218,-0.394L0.224,-0.4L0.343,-0.4L0.349,-0.405L0.357,-0.431L0.352,-0.435L0.224,-0.435L0.218,-0.44C0.219,-0.498 0.224,-0.549 0.229,-0.606L0.222,-0.611L0.138,-0.582Z" style="fill-rule:nonzero;"/>
                        </g>
                        <g transform="matrix(24.2917,0,0,24.2917,1388.74,1549.55)">
                            <path d="M0.361,-0.339L0.415,-0.388C0.413,-0.41 0.406,-0.435 0.392,-0.449C0.378,-0.463 0.355,-0.467 0.336,-0.467C0.318,-0.467 0.303,-0.457 0.289,-0.448C0.266,-0.433 0.245,-0.415 0.226,-0.397L0.216,-0.401C0.213,-0.421 0.207,-0.442 0.193,-0.456C0.18,-0.469 0.162,-0.473 0.144,-0.473C0.125,-0.473 0.107,-0.463 0.089,-0.454C0.061,-0.438 0.034,-0.418 0.009,-0.398L0.021,-0.381C0.046,-0.395 0.076,-0.412 0.099,-0.412C0.11,-0.412 0.12,-0.407 0.126,-0.397C0.142,-0.372 0.142,-0.296 0.142,-0.243C0.141,-0.163 0.137,-0.076 0.13,-0.006L0.145,0.003L0.215,-0.018C0.211,-0.11 0.212,-0.201 0.213,-0.294C0.214,-0.308 0.214,-0.328 0.219,-0.34C0.231,-0.367 0.255,-0.402 0.296,-0.402C0.309,-0.402 0.321,-0.397 0.33,-0.388C0.341,-0.376 0.346,-0.36 0.349,-0.344L0.361,-0.339Z" style="fill-rule:nonzero;"/>
                        </g>
                        <g transform="matrix(24.2917,0,0,24.2917,1399.23,1549.55)">
                            <path d="M0.198,-0.396C0.219,-0.422 0.249,-0.438 0.282,-0.438C0.301,-0.438 0.314,-0.435 0.326,-0.428C0.35,-0.412 0.366,-0.379 0.372,-0.354C0.373,-0.351 0.373,-0.347 0.373,-0.344C0.373,-0.328 0.366,-0.32 0.36,-0.318L0.158,-0.238L0.154,-0.242C0.153,-0.248 0.152,-0.254 0.152,-0.26C0.152,-0.309 0.159,-0.354 0.198,-0.396ZM0.438,-0.319C0.445,-0.322 0.455,-0.327 0.458,-0.332C0.459,-0.333 0.459,-0.336 0.459,-0.34C0.459,-0.382 0.442,-0.423 0.409,-0.45C0.383,-0.471 0.35,-0.478 0.317,-0.478C0.241,-0.478 0.169,-0.445 0.12,-0.388C0.081,-0.343 0.069,-0.284 0.069,-0.226C0.069,-0.177 0.076,-0.126 0.095,-0.08C0.104,-0.057 0.117,-0.034 0.137,-0.018C0.165,0.004 0.2,0.012 0.235,0.012C0.277,0.012 0.318,-0.002 0.354,-0.023C0.394,-0.045 0.43,-0.073 0.463,-0.104L0.45,-0.122L0.439,-0.124C0.416,-0.106 0.392,-0.091 0.367,-0.078C0.341,-0.065 0.314,-0.056 0.285,-0.056C0.255,-0.056 0.225,-0.064 0.203,-0.085C0.173,-0.113 0.159,-0.164 0.156,-0.197L0.438,-0.319Z" style="fill-rule:nonzero;"/>
                        </g>
                        <g transform="matrix(24.2917,0,0,24.2917,1411.36,1549.55)">
                            <path d="M0.198,-0.396C0.219,-0.422 0.249,-0.438 0.282,-0.438C0.301,-0.438 0.314,-0.435 0.326,-0.428C0.35,-0.412 0.366,-0.379 0.372,-0.354C0.373,-0.351 0.373,-0.347 0.373,-0.344C0.373,-0.328 0.366,-0.32 0.36,-0.318L0.158,-0.238L0.154,-0.242C0.153,-0.248 0.152,-0.254 0.152,-0.26C0.152,-0.309 0.159,-0.354 0.198,-0.396ZM0.438,-0.319C0.445,-0.322 0.455,-0.327 0.458,-0.332C0.459,-0.333 0.459,-0.336 0.459,-0.34C0.459,-0.382 0.442,-0.423 0.409,-0.45C0.383,-0.471 0.35,-0.478 0.317,-0.478C0.241,-0.478 0.169,-0.445 0.12,-0.388C0.081,-0.343 0.069,-0.284 0.069,-0.226C0.069,-0.177 0.076,-0.126 0.095,-0.08C0.104,-0.057 0.117,-0.034 0.137,-0.018C0.165,0.004 0.2,0.012 0.235,0.012C0.277,0.012 0.318,-0.002 0.354,-0.023C0.394,-0.045 0.43,-0.073 0.463,-0.104L0.45,-0.122L0.439,-0.124C0.416,-0.106 0.392,-0.091 0.367,-0.078C0.341,-0.065 0.314,-0.056 0.285,-0.056C0.255,-0.056 0.225,-0.064 0.203,-0.085C0.173,-0.113 0.159,-0.164 0.156,-0.197L0.438,-0.319Z" style="fill-rule:nonzero;"/>
                        </g>
                    </g>
                </g>
            </g>
            <g>
                <g transform="matrix(1,0,0,1,-8.49841,213.441)">
                    <g transform="matrix(41.6667,0,0,41.6667,1068.24,1619.2)">
                        <path d="M0.167,-0.334L0.167,-0.425C0.167,-0.433 0.166,-0.435 0.161,-0.435C0.139,-0.431 0.103,-0.43 0.08,-0.432L0.078,-0.429C0.085,-0.386 0.087,-0.31 0.087,-0.235L0.087,-0.18C0.087,-0.105 0.086,-0.054 0.078,-0L0.08,0.003C0.092,0.001 0.115,-0 0.127,-0C0.139,-0 0.162,0.001 0.174,0.003L0.176,-0C0.169,-0.057 0.167,-0.104 0.167,-0.18L0.167,-0.232C0.167,-0.274 0.18,-0.298 0.201,-0.331C0.216,-0.353 0.238,-0.366 0.257,-0.366C0.277,-0.366 0.296,-0.364 0.309,-0.352L0.317,-0.354L0.337,-0.428L0.333,-0.432C0.316,-0.437 0.315,-0.439 0.297,-0.439C0.243,-0.439 0.214,-0.408 0.17,-0.332L0.167,-0.334Z" style="fill-rule:nonzero;"/>
                    </g>
                    <g transform="matrix(41.6667,0,0,41.6667,1083.03,1619.2)">
                        <path d="M0.08,-0.597C0.08,-0.57 0.104,-0.546 0.131,-0.546C0.158,-0.546 0.182,-0.57 0.182,-0.597C0.182,-0.624 0.158,-0.648 0.131,-0.648C0.104,-0.648 0.08,-0.624 0.08,-0.597ZM0.09,-0.235L0.09,-0.18C0.09,-0.105 0.088,-0.054 0.081,-0L0.083,0.003C0.095,0.001 0.118,-0 0.13,-0C0.142,-0 0.165,0.001 0.177,0.003L0.179,-0C0.172,-0.057 0.17,-0.104 0.17,-0.18L0.17,-0.251C0.17,-0.326 0.173,-0.362 0.179,-0.423C0.179,-0.432 0.178,-0.433 0.17,-0.433C0.147,-0.431 0.104,-0.43 0.083,-0.432L0.081,-0.429C0.087,-0.386 0.09,-0.31 0.09,-0.235Z" style="fill-rule:nonzero;"/>
                    </g>
                    <g transform="matrix(41.6667,0,0,41.6667,1093.87,1619.2)">
                        <path d="M0.101,0.104C0.101,0.071 0.131,0.034 0.166,0.015C0.196,0.015 0.241,0.012 0.255,0.012C0.303,0.012 0.334,0.013 0.361,0.029C0.39,0.046 0.4,0.075 0.4,0.101C0.4,0.162 0.318,0.194 0.232,0.194C0.167,0.194 0.101,0.172 0.101,0.104ZM0.39,-0.285C0.39,-0.354 0.363,-0.386 0.34,-0.401C0.37,-0.399 0.403,-0.395 0.444,-0.391L0.447,-0.394C0.445,-0.403 0.444,-0.411 0.444,-0.42C0.444,-0.429 0.445,-0.437 0.447,-0.446L0.444,-0.449C0.396,-0.445 0.361,-0.434 0.286,-0.43C0.268,-0.436 0.247,-0.439 0.225,-0.439C0.146,-0.439 0.055,-0.386 0.055,-0.287C0.055,-0.212 0.098,-0.178 0.126,-0.162C0.097,-0.142 0.062,-0.113 0.062,-0.079C0.062,-0.038 0.086,-0.002 0.14,0.007C0.112,0.019 0.081,0.038 0.055,0.058C0.043,0.077 0.032,0.105 0.032,0.124C0.032,0.203 0.118,0.237 0.224,0.237C0.38,0.237 0.473,0.172 0.473,0.078C0.473,0.034 0.459,0.003 0.431,-0.021C0.394,-0.053 0.325,-0.054 0.29,-0.054C0.273,-0.054 0.233,-0.052 0.21,-0.049C0.196,-0.048 0.186,-0.047 0.181,-0.047C0.153,-0.047 0.123,-0.051 0.123,-0.094C0.123,-0.114 0.128,-0.131 0.15,-0.15C0.163,-0.143 0.194,-0.136 0.224,-0.136C0.328,-0.136 0.39,-0.206 0.39,-0.285ZM0.312,-0.284C0.312,-0.223 0.287,-0.176 0.227,-0.176C0.155,-0.176 0.133,-0.223 0.133,-0.292C0.133,-0.358 0.163,-0.401 0.221,-0.401C0.286,-0.401 0.312,-0.355 0.312,-0.284Z" style="fill-rule:nonzero;"/>
                    </g>
                    <g transform="matrix(41.6667,0,0,41.6667,1114.66,1619.2)">
                        <path d="M0.17,-0.352L0.17,-0.501C0.17,-0.575 0.174,-0.627 0.179,-0.688C0.179,-0.695 0.176,-0.698 0.17,-0.698C0.145,-0.688 0.124,-0.681 0.083,-0.678L0.081,-0.675C0.089,-0.632 0.09,-0.557 0.09,-0.481L0.09,-0.18C0.09,-0.106 0.089,-0.056 0.081,-0L0.083,0.003C0.095,0.001 0.118,-0 0.13,-0C0.142,-0 0.165,0.001 0.177,0.003L0.179,-0C0.172,-0.057 0.17,-0.104 0.17,-0.18L0.17,-0.297C0.221,-0.357 0.28,-0.379 0.315,-0.379C0.366,-0.379 0.387,-0.359 0.387,-0.278L0.387,-0.18C0.387,-0.105 0.386,-0.054 0.378,-0L0.38,0.003C0.392,0.001 0.415,-0 0.427,-0C0.439,-0 0.462,0.001 0.474,0.003L0.476,-0C0.468,-0.057 0.467,-0.104 0.467,-0.18C0.467,-0.212 0.469,-0.249 0.469,-0.281C0.469,-0.385 0.435,-0.439 0.345,-0.439C0.307,-0.439 0.236,-0.424 0.172,-0.349L0.17,-0.352Z" style="fill-rule:nonzero;"/>
                    </g>
                    <g transform="matrix(41.6667,0,0,41.6667,1137.53,1619.2)">
                        <path d="M0.095,-0.429C0.075,-0.429 0.053,-0.429 0.041,-0.431C0.034,-0.415 0.029,-0.405 0.019,-0.39L0.024,-0.383C0.041,-0.384 0.072,-0.385 0.095,-0.385L0.095,-0.248C0.095,-0.188 0.092,-0.116 0.092,-0.086C0.092,-0.021 0.134,0.01 0.18,0.01C0.222,0.01 0.254,-0 0.296,-0.027L0.284,-0.052C0.253,-0.041 0.23,-0.04 0.205,-0.044C0.181,-0.048 0.172,-0.072 0.172,-0.126C0.172,-0.156 0.175,-0.199 0.175,-0.259L0.175,-0.385L0.213,-0.385C0.237,-0.385 0.272,-0.384 0.285,-0.383C0.288,-0.399 0.291,-0.409 0.297,-0.424L0.292,-0.431C0.274,-0.43 0.245,-0.429 0.222,-0.429L0.175,-0.429C0.175,-0.504 0.176,-0.517 0.18,-0.575C0.18,-0.582 0.177,-0.585 0.171,-0.585C0.146,-0.575 0.134,-0.564 0.101,-0.56L0.099,-0.557C0.097,-0.522 0.095,-0.487 0.095,-0.429Z" style="fill-rule:nonzero;"/>
                    </g>
                    <g transform="matrix(41.6667,0,0,41.6667,1162.12,1619.2)">
                        <path d="M0.05,-0.101L0.033,-0.017C0.09,0.003 0.146,0.01 0.184,0.01C0.322,0.01 0.354,-0.072 0.354,-0.127C0.354,-0.209 0.289,-0.241 0.218,-0.258C0.18,-0.267 0.125,-0.286 0.125,-0.336C0.125,-0.377 0.158,-0.399 0.201,-0.399C0.253,-0.399 0.285,-0.358 0.308,-0.331L0.322,-0.332L0.342,-0.406L0.34,-0.409C0.311,-0.424 0.256,-0.439 0.205,-0.439C0.131,-0.439 0.054,-0.4 0.054,-0.317C0.054,-0.237 0.114,-0.211 0.174,-0.194C0.232,-0.178 0.275,-0.162 0.275,-0.113C0.275,-0.06 0.236,-0.03 0.183,-0.03C0.135,-0.03 0.093,-0.063 0.065,-0.102L0.05,-0.101Z" style="fill-rule:nonzero;"/>
                    </g>
                    <g transform="matrix(41.6667,0,0,41.6667,1178.62,1619.2)">
                        <path d="M0.365,-0.092L0.369,-0.089L0.374,-0C0.374,0.002 0.375,0.003 0.378,0.003C0.391,0.001 0.403,-0 0.418,-0C0.43,-0 0.449,0.001 0.462,0.003L0.464,-0C0.456,-0.043 0.447,-0.117 0.447,-0.192L0.447,-0.249C0.447,-0.324 0.448,-0.376 0.456,-0.429L0.454,-0.432C0.442,-0.43 0.419,-0.429 0.407,-0.429C0.395,-0.429 0.372,-0.43 0.36,-0.432L0.358,-0.429C0.366,-0.372 0.367,-0.325 0.367,-0.249L0.367,-0.151C0.337,-0.1 0.279,-0.046 0.23,-0.046C0.196,-0.046 0.163,-0.057 0.163,-0.15L0.163,-0.249C0.163,-0.324 0.164,-0.376 0.172,-0.429L0.17,-0.432C0.158,-0.43 0.135,-0.429 0.123,-0.429C0.111,-0.429 0.088,-0.43 0.076,-0.432L0.074,-0.429C0.082,-0.372 0.083,-0.325 0.083,-0.249L0.083,-0.129C0.083,-0.06 0.115,0.01 0.214,0.01C0.276,0.01 0.332,-0.041 0.365,-0.092Z" style="fill-rule:nonzero;"/>
                    </g>
                    <g transform="matrix(41.6667,0,0,41.6667,1200.99,1619.2)">
                        <path d="M0.162,-0.081L0.162,-0.34C0.201,-0.38 0.226,-0.399 0.267,-0.399C0.328,-0.399 0.382,-0.349 0.382,-0.224C0.382,-0.1 0.345,-0.03 0.25,-0.03C0.219,-0.03 0.182,-0.056 0.162,-0.081ZM0.162,-0.5C0.162,-0.574 0.163,-0.627 0.168,-0.688C0.168,-0.695 0.165,-0.698 0.159,-0.698C0.134,-0.688 0.113,-0.681 0.072,-0.678L0.07,-0.675C0.078,-0.632 0.082,-0.558 0.082,-0.482L0.082,-0.073C0.082,-0.034 0.081,-0.02 0.077,0.002C0.083,0.008 0.095,0.01 0.105,0.01C0.116,-0.002 0.128,-0.019 0.138,-0.039C0.167,-0.014 0.213,0.01 0.256,0.01C0.358,0.01 0.471,-0.062 0.471,-0.232C0.471,-0.354 0.384,-0.439 0.287,-0.439C0.239,-0.439 0.196,-0.426 0.162,-0.389L0.162,-0.5Z" style="fill-rule:nonzero;"/>
                    </g>
                    <g transform="matrix(41.6667,0,0,41.6667,1221.99,1619.2)">
                        <path d="M0.095,-0.429C0.075,-0.429 0.053,-0.429 0.041,-0.431C0.034,-0.415 0.029,-0.405 0.019,-0.39L0.024,-0.383C0.041,-0.384 0.072,-0.385 0.095,-0.385L0.095,-0.248C0.095,-0.188 0.092,-0.116 0.092,-0.086C0.092,-0.021 0.134,0.01 0.18,0.01C0.222,0.01 0.254,-0 0.296,-0.027L0.284,-0.052C0.253,-0.041 0.23,-0.04 0.205,-0.044C0.181,-0.048 0.172,-0.072 0.172,-0.126C0.172,-0.156 0.175,-0.199 0.175,-0.259L0.175,-0.385L0.213,-0.385C0.237,-0.385 0.272,-0.384 0.285,-0.383C0.288,-0.399 0.291,-0.409 0.297,-0.424L0.292,-0.431C0.274,-0.43 0.245,-0.429 0.222,-0.429L0.175,-0.429C0.175,-0.504 0.176,-0.517 0.18,-0.575C0.18,-0.582 0.177,-0.585 0.171,-0.585C0.146,-0.575 0.134,-0.564 0.101,-0.56L0.099,-0.557C0.097,-0.522 0.095,-0.487 0.095,-0.429Z" style="fill-rule:nonzero;"/>
                    </g>
                    <g transform="matrix(41.6667,0,0,41.6667,1236.16,1619.2)">
                        <path d="M0.167,-0.334L0.167,-0.425C0.167,-0.433 0.166,-0.435 0.161,-0.435C0.139,-0.431 0.103,-0.43 0.08,-0.432L0.078,-0.429C0.085,-0.386 0.087,-0.31 0.087,-0.235L0.087,-0.18C0.087,-0.105 0.086,-0.054 0.078,-0L0.08,0.003C0.092,0.001 0.115,-0 0.127,-0C0.139,-0 0.162,0.001 0.174,0.003L0.176,-0C0.169,-0.057 0.167,-0.104 0.167,-0.18L0.167,-0.232C0.167,-0.274 0.18,-0.298 0.201,-0.331C0.216,-0.353 0.238,-0.366 0.257,-0.366C0.277,-0.366 0.296,-0.364 0.309,-0.352L0.317,-0.354L0.337,-0.428L0.333,-0.432C0.316,-0.437 0.315,-0.439 0.297,-0.439C0.243,-0.439 0.214,-0.408 0.17,-0.332L0.167,-0.334Z" style="fill-rule:nonzero;"/>
                    </g>
                    <g transform="matrix(41.6667,0,0,41.6667,1250.62,1619.2)">
                        <path d="M0.125,-0.273C0.142,-0.377 0.208,-0.399 0.239,-0.399C0.279,-0.399 0.323,-0.362 0.323,-0.287C0.323,-0.278 0.319,-0.273 0.309,-0.273L0.125,-0.273ZM0.392,-0.104C0.357,-0.066 0.31,-0.049 0.255,-0.049C0.221,-0.049 0.174,-0.062 0.146,-0.106C0.128,-0.134 0.122,-0.175 0.122,-0.233L0.394,-0.233C0.405,-0.233 0.412,-0.239 0.412,-0.25C0.412,-0.334 0.371,-0.439 0.239,-0.439C0.136,-0.439 0.034,-0.356 0.034,-0.209C0.034,-0.152 0.046,-0.096 0.079,-0.056C0.113,-0.015 0.171,0.01 0.238,0.01C0.31,0.01 0.374,-0.027 0.412,-0.079L0.392,-0.104Z" style="fill-rule:nonzero;"/>
                    </g>
                    <g transform="matrix(41.6667,0,0,41.6667,1269.78,1619.2)">
                        <path d="M0.125,-0.273C0.142,-0.377 0.208,-0.399 0.239,-0.399C0.279,-0.399 0.323,-0.362 0.323,-0.287C0.323,-0.278 0.319,-0.273 0.309,-0.273L0.125,-0.273ZM0.392,-0.104C0.357,-0.066 0.31,-0.049 0.255,-0.049C0.221,-0.049 0.174,-0.062 0.146,-0.106C0.128,-0.134 0.122,-0.175 0.122,-0.233L0.394,-0.233C0.405,-0.233 0.412,-0.239 0.412,-0.25C0.412,-0.334 0.371,-0.439 0.239,-0.439C0.136,-0.439 0.034,-0.356 0.034,-0.209C0.034,-0.152 0.046,-0.096 0.079,-0.056C0.113,-0.015 0.171,0.01 0.238,0.01C0.31,0.01 0.374,-0.027 0.412,-0.079L0.392,-0.104Z" style="fill-rule:nonzero;"/>
                    </g>
                    <g transform="matrix(41.6667,0,0,41.6667,1288.66,1619.2)">
                        <path d="M0.061,-0.356C0.07,-0.323 0.084,-0.309 0.115,-0.302L0.119,-0.302C0.147,-0.309 0.163,-0.324 0.173,-0.356L0.173,-0.36C0.164,-0.388 0.148,-0.404 0.119,-0.414L0.115,-0.414C0.085,-0.402 0.07,-0.387 0.061,-0.36L0.061,-0.356ZM0.061,-0.093C0.07,-0.06 0.084,-0.046 0.115,-0.039L0.119,-0.039C0.147,-0.046 0.163,-0.061 0.173,-0.093L0.173,-0.097C0.164,-0.125 0.148,-0.141 0.119,-0.151L0.115,-0.151C0.085,-0.139 0.07,-0.124 0.061,-0.097L0.061,-0.093Z" style="fill-rule:nonzero;"/>
                    </g>
                    <g transform="matrix(41.6667,0,0,41.6667,1311.7,1619.2)">
                        <path d="M0.308,-0.712L0.092,-0.639L0.092,-0.612L0.175,-0.612C0.2,-0.612 0.22,-0.591 0.221,-0.566C0.222,-0.541 0.222,-0.468 0.222,-0.419C0.222,-0.279 0.219,-0.139 0.214,-0L0.226,0.005L0.31,-0.022C0.307,-0.098 0.307,-0.296 0.307,-0.432C0.307,-0.521 0.309,-0.611 0.314,-0.7L0.308,-0.712Z" style="fill-rule:nonzero;"/>
                    </g>
                    <g transform="matrix(41.6667,0,0,41.6667,1332.49,1619.2)">
                        <path d="M0.077,-0.052C0.077,-0.015 0.107,0.015 0.144,0.015C0.181,0.015 0.211,-0.015 0.211,-0.052C0.211,-0.089 0.181,-0.119 0.144,-0.119C0.107,-0.119 0.077,-0.089 0.077,-0.052Z" style="fill-rule:nonzero;"/>
                    </g>
                    <g transform="matrix(41.6667,0,0,41.6667,1344.03,1619.2)">
                        <path d="M0.077,-0.052C0.077,-0.015 0.107,0.015 0.144,0.015C0.181,0.015 0.211,-0.015 0.211,-0.052C0.211,-0.089 0.181,-0.119 0.144,-0.119C0.107,-0.119 0.077,-0.089 0.077,-0.052Z" style="fill-rule:nonzero;"/>
                    </g>
                    <g transform="matrix(41.6667,0,0,41.6667,1355.57,1619.2)">
                        <path d="M0.077,-0.052C0.077,-0.015 0.107,0.015 0.144,0.015C0.181,0.015 0.211,-0.015 0.211,-0.052C0.211,-0.089 0.181,-0.119 0.144,-0.119C0.107,-0.119 0.077,-0.089 0.077,-0.052Z" style="fill-rule:nonzero;"/>
                    </g>
                    <g transform="matrix(41.6667,0,0,41.6667,1367.12,1619.2)">
                        <path d="M0.077,-0.052C0.077,-0.015 0.107,0.015 0.144,0.015C0.181,0.015 0.211,-0.015 0.211,-0.052C0.211,-0.089 0.181,-0.119 0.144,-0.119C0.107,-0.119 0.077,-0.089 0.077,-0.052Z" style="fill-rule:nonzero;"/>
                    </g>
                    <g transform="matrix(41.6667,0,0,41.6667,1378.66,1619.2)">
                        <path d="M0.077,-0.052C0.077,-0.015 0.107,0.015 0.144,0.015C0.181,0.015 0.211,-0.015 0.211,-0.052C0.211,-0.089 0.181,-0.119 0.144,-0.119C0.107,-0.119 0.077,-0.089 0.077,-0.052Z" style="fill-rule:nonzero;"/>
                    </g>
                    <g transform="matrix(41.6667,0,0,41.6667,1390.2,1619.2)">
                        <path d="M0.077,-0.052C0.077,-0.015 0.107,0.015 0.144,0.015C0.181,0.015 0.211,-0.015 0.211,-0.052C0.211,-0.089 0.181,-0.119 0.144,-0.119C0.107,-0.119 0.077,-0.089 0.077,-0.052Z" style="fill-rule:nonzero;"/>
                    </g>
                </g>
                <g transform="matrix(1,0,0,1,2.63197,94.4882)">
                    <g transform="matrix(0.1875,0,0,0.383137,1234.25,1175.86)">
                        <path d="M472.441,1370.08C472.86,1355.41 476.576,1344.84 519.685,1346.46C519.685,1346.46 613.862,1347.29 637.795,1346.46C661.876,1345.61 661.417,1322.84 661.417,1322.84" style="fill:none;stroke:black;stroke-width:13.81px;"/>
                        <g transform="matrix(-1,0,0,1,1322.83,0)">
                            <path d="M472.441,1370.08C472.86,1355.41 476.576,1344.84 519.685,1346.46C519.685,1346.46 613.862,1347.29 637.795,1346.46C661.876,1345.61 661.417,1322.84 661.417,1322.84" style="fill:none;stroke:black;stroke-width:13.81px;"/>
                        </g>
                    </g>
                    <g transform="matrix(1,0,0,1,-26.2936,120.855)">
                        <g transform="matrix(24.2917,0,0,24.2917,1345.31,1549.55)">
                            <path d="M0.212,-0.575C0.212,-0.606 0.213,-0.626 0.215,-0.629C0.218,-0.635 0.22,-0.638 0.226,-0.641C0.232,-0.644 0.249,-0.645 0.292,-0.645C0.339,-0.645 0.448,-0.642 0.481,-0.635C0.523,-0.626 0.549,-0.613 0.571,-0.591C0.627,-0.535 0.644,-0.438 0.644,-0.377C0.644,-0.283 0.623,-0.185 0.555,-0.117C0.527,-0.089 0.491,-0.072 0.454,-0.06C0.407,-0.045 0.358,-0.04 0.309,-0.04C0.282,-0.04 0.243,-0.04 0.23,-0.053C0.215,-0.068 0.213,-0.13 0.212,-0.17L0.212,-0.575ZM0.106,-0.002L0.337,-0.002C0.397,-0.002 0.457,-0.007 0.514,-0.024C0.558,-0.037 0.608,-0.057 0.639,-0.091C0.716,-0.174 0.738,-0.258 0.738,-0.385C0.738,-0.43 0.734,-0.475 0.721,-0.517C0.711,-0.551 0.696,-0.583 0.671,-0.608C0.64,-0.639 0.598,-0.655 0.555,-0.666C0.495,-0.681 0.433,-0.686 0.371,-0.686L0.058,-0.686L0.051,-0.678L0.051,-0.659C0.07,-0.653 0.09,-0.648 0.109,-0.641C0.118,-0.637 0.125,-0.63 0.126,-0.62C0.127,-0.605 0.128,-0.589 0.128,-0.573L0.128,-0.079C0.127,-0.041 0.126,-0.027 0.106,-0.012L0.106,-0.002Z" style="fill-rule:nonzero;"/>
                        </g>
                        <g transform="matrix(24.2917,0,0,24.2917,1365.42,1549.55)">
                            <path d="M0.498,-0.236L0.504,-0.276L0.047,-0.276L0.04,-0.236L0.498,-0.236Z" style="fill-rule:nonzero;"/>
                        </g>
                        <g transform="matrix(24.2917,0,0,24.2917,1378.63,1549.55)">
                            <path d="M0.138,-0.582C0.14,-0.556 0.14,-0.492 0.14,-0.441L0.134,-0.435L0.03,-0.435L0.024,-0.429L0.017,-0.405L0.022,-0.4L0.134,-0.4L0.14,-0.393L0.14,-0.203C0.14,-0.068 0.142,-0.049 0.163,-0.022C0.181,0.002 0.212,0.009 0.235,0.009C0.262,0.009 0.287,-0.001 0.311,-0.014C0.343,-0.031 0.372,-0.054 0.399,-0.079L0.392,-0.094L0.38,-0.096C0.35,-0.077 0.314,-0.055 0.289,-0.055C0.272,-0.055 0.257,-0.06 0.244,-0.075C0.222,-0.099 0.218,-0.163 0.218,-0.205L0.218,-0.394L0.224,-0.4L0.343,-0.4L0.349,-0.405L0.357,-0.431L0.352,-0.435L0.224,-0.435L0.218,-0.44C0.219,-0.498 0.224,-0.549 0.229,-0.606L0.222,-0.611L0.138,-0.582Z" style="fill-rule:nonzero;"/>
                        </g>
                        <g transform="matrix(24.2917,0,0,24.2917,1388.74,1549.55)">
                            <path d="M0.361,-0.339L0.415,-0.388C0.413,-0.41 0.406,-0.435 0.392,-0.449C0.378,-0.463 0.355,-0.467 0.336,-0.467C0.318,-0.467 0.303,-0.457 0.289,-0.448C0.266,-0.433 0.245,-0.415 0.226,-0.397L0.216,-0.401C0.213,-0.421 0.207,-0.442 0.193,-0.456C0.18,-0.469 0.162,-0.473 0.144,-0.473C0.125,-0.473 0.107,-0.463 0.089,-0.454C0.061,-0.438 0.034,-0.418 0.009,-0.398L0.021,-0.381C0.046,-0.395 0.076,-0.412 0.099,-0.412C0.11,-0.412 0.12,-0.407 0.126,-0.397C0.142,-0.372 0.142,-0.296 0.142,-0.243C0.141,-0.163 0.137,-0.076 0.13,-0.006L0.145,0.003L0.215,-0.018C0.211,-0.11 0.212,-0.201 0.213,-0.294C0.214,-0.308 0.214,-0.328 0.219,-0.34C0.231,-0.367 0.255,-0.402 0.296,-0.402C0.309,-0.402 0.321,-0.397 0.33,-0.388C0.341,-0.376 0.346,-0.36 0.349,-0.344L0.361,-0.339Z" style="fill-rule:nonzero;"/>
                        </g>
                        <g transform="matrix(24.2917,0,0,24.2917,1399.23,1549.55)">
                            <path d="M0.198,-0.396C0.219,-0.422 0.249,-0.438 0.282,-0.438C0.301,-0.438 0.314,-0.435 0.326,-0.428C0.35,-0.412 0.366,-0.379 0.372,-0.354C0.373,-0.351 0.373,-0.347 0.373,-0.344C0.373,-0.328 0.366,-0.32 0.36,-0.318L0.158,-0.238L0.154,-0.242C0.153,-0.248 0.152,-0.254 0.152,-0.26C0.152,-0.309 0.159,-0.354 0.198,-0.396ZM0.438,-0.319C0.445,-0.322 0.455,-0.327 0.458,-0.332C0.459,-0.333 0.459,-0.336 0.459,-0.34C0.459,-0.382 0.442,-0.423 0.409,-0.45C0.383,-0.471 0.35,-0.478 0.317,-0.478C0.241,-0.478 0.169,-0.445 0.12,-0.388C0.081,-0.343 0.069,-0.284 0.069,-0.226C0.069,-0.177 0.076,-0.126 0.095,-0.08C0.104,-0.057 0.117,-0.034 0.137,-0.018C0.165,0.004 0.2,0.012 0.235,0.012C0.277,0.012 0.318,-0.002 0.354,-0.023C0.394,-0.045 0.43,-0.073 0.463,-0.104L0.45,-0.122L0.439,-0.124C0.416,-0.106 0.392,-0.091 0.367,-0.078C0.341,-0.065 0.314,-0.056 0.285,-0.056C0.255,-0.056 0.225,-0.064 0.203,-0.085C0.173,-0.113 0.159,-0.164 0.156,-0.197L0.438,-0.319Z" style="fill-rule:nonzero;"/>
                        </g>
                        <g transform="matrix(24.2917,0,0,24.2917,1411.36,1549.55)">
                            <path d="M0.198,-0.396C0.219,-0.422 0.249,-0.438 0.282,-0.438C0.301,-0.438 0.314,-0.435 0.326,-0.428C0.35,-0.412 0.366,-0.379 0.372,-0.354C0.373,-0.351 0.373,-0.347 0.373,-0.344C0.373,-0.328 0.366,-0.32 0.36,-0.318L0.158,-0.238L0.154,-0.242C0.153,-0.248 0.152,-0.254 0.152,-0.26C0.152,-0.309 0.159,-0.354 0.198,-0.396ZM0.438,-0.319C0.445,-0.322 0.455,-0.327 0.458,-0.332C0.459,-0.333 0.459,-0.336 0.459,-0.34C0.459,-0.382 0.442,-0.423 0.409,-0.45C0.383,-0.471 0.35,-0.478 0.317,-0.478C0.241,-0.478 0.169,-0.445 0.12,-0.388C0.081,-0.343 0.069,-0.284 0.069,-0.226C0.069,-0.177 0.076,-0.126 0.095,-0.08C0.104,-0.057 0.117,-0.034 0.137,-0.018C0.165,0.004 0.2,0.012 0.235,0.012C0.277,0.012 0.318,-0.002 0.354,-0.023C0.394,-0.045 0.43,-0.073 0.463,-0.104L0.45,-0.122L0.439,-0.124C0.416,-0.106 0.392,-0.091 0.367,-0.078C0.341,-0.065 0.314,-0.056 0.285,-0.056C0.255,-0.056 0.225,-0.064 0.203,-0.085C0.173,-0.113 0.159,-0.164 0.156,-0.197L0.438,-0.319Z" style="fill-rule:nonzero;"/>
                        </g>
                    </g>
                </g>
            </g>
        </g>
    </g>
</svg>
