<?xml version="1.0" encoding="UTF-8" standalone="no"?>
<!DOCTYPE svg PUBLIC "-//W3C//DTD SVG 1.1//EN" "http://www.w3.org/Graphics/SVG/1.1/DTD/svg11.dtd">
<svg width="100%" height="100%" viewBox="0 0 1634 750" version="1.1" xmlns="http://www.w3.org/2000/svg" xmlns:xlink="http://www.w3.org/1999/xlink" xml:space="preserve" xmlns:serif="http://www.serif.com/" style="fill-rule:evenodd;clip-rule:evenodd;stroke-linecap:round;stroke-linejoin:round;stroke-miterlimit:1.5;">
    <g transform="matrix(1,0,0,1,-272.012,-326.578)">
        <g transform="matrix(1,0,0,1,-12.3015,-0.352618)">
            <g transform="matrix(2.44181,0,0,2.44181,-375.136,-473.757)">
                <g transform="matrix(1,0,0,1,88.8194,-159.708)">
                    <path d="M248.248,488.23L314.596,521.978L314.596,589.475L248.248,623.223L181.9,589.475L181.9,521.978L248.248,488.23Z" style="fill:rgb(235,235,235);fill-opacity:0;stroke:black;stroke-width:0.94px;"/>
                </g>
                <g transform="matrix(1,0,0,1,-17.8244,-141.734)">
                    <path d="M354.9,537.765L355.064,604.967" style="fill:none;stroke:black;stroke-width:0.94px;"/>
                </g>
                <g transform="matrix(1,0,0,1,-42.3704,1.86073)">
                    <path d="M445.602,360.692L379.254,394.441L312.906,360.692" style="fill:rgb(235,235,235);fill-opacity:0;stroke:black;stroke-width:0.94px;"/>
                </g>
            </g>
            <g transform="matrix(0.892488,-0.451071,0.0124819,1.11415,203.361,383.406)">
                <g transform="matrix(2.80163,0,0,1.8502,-365.492,-262.258)">
                    <rect x="234.744" y="272.367" width="50.292" height="20.623" style="stroke:black;stroke-width:1.22px;"/>
                </g>
                <g transform="matrix(1,0,0,1,58.3696,-10.9025)">
                    <g transform="matrix(33.3333,0,0,33.3333,237.721,281.886)">
                        <path d="M0.247,-0.21L0.247,-0.445C0.247,-0.52 0.249,-0.592 0.257,-0.645L0.256,-0.648C0.256,-0.648 0.208,-0.645 0.173,-0.645C0.139,-0.645 0.094,-0.648 0.094,-0.648L0.092,-0.645C0.1,-0.588 0.103,-0.52 0.103,-0.445L0.103,-0.2C0.103,-0.125 0.101,-0.054 0.093,-0L0.094,0.003C0.094,0.003 0.143,-0 0.177,-0L0.481,-0C0.502,-0 0.525,0.001 0.541,0.003L0.543,-0C0.542,-0.014 0.541,-0.032 0.541,-0.042C0.541,-0.052 0.542,-0.091 0.543,-0.099L0.541,-0.103C0.541,-0.103 0.389,-0.081 0.255,-0.081C0.248,-0.105 0.247,-0.193 0.247,-0.21Z" style="fill:rgb(235,235,235);fill-rule:nonzero;stroke:black;stroke-width:0.04px;stroke-linecap:butt;stroke-miterlimit:2;"/>
                    </g>
                    <g transform="matrix(33.3333,0,0,33.3333,257.321,281.886)">
                        <path d="M0.24,-0.2L0.24,-0.311C0.288,-0.311 0.408,-0.308 0.477,-0.301L0.48,-0.304C0.478,-0.313 0.477,-0.333 0.477,-0.342C0.477,-0.351 0.478,-0.37 0.48,-0.379L0.477,-0.382C0.418,-0.377 0.358,-0.372 0.24,-0.372L0.24,-0.445C0.24,-0.462 0.241,-0.553 0.248,-0.577C0.382,-0.577 0.534,-0.565 0.534,-0.565L0.536,-0.569C0.535,-0.577 0.534,-0.601 0.534,-0.61C0.534,-0.618 0.535,-0.631 0.536,-0.645L0.534,-0.648C0.518,-0.646 0.495,-0.645 0.474,-0.645L0.17,-0.645C0.136,-0.645 0.086,-0.648 0.086,-0.648L0.084,-0.645C0.092,-0.588 0.096,-0.52 0.096,-0.445L0.096,-0.2C0.096,-0.125 0.092,-0.054 0.084,-0L0.085,0.003C0.085,0.003 0.135,-0 0.17,-0L0.484,-0C0.505,-0 0.528,0.001 0.544,0.003L0.546,-0C0.545,-0.013 0.544,-0.026 0.544,-0.036C0.544,-0.046 0.545,-0.083 0.546,-0.091L0.544,-0.095C0.544,-0.095 0.382,-0.073 0.248,-0.073C0.241,-0.097 0.24,-0.183 0.24,-0.2Z" style="fill:rgb(235,235,235);fill-rule:nonzero;stroke:black;stroke-width:0.04px;stroke-linecap:butt;stroke-miterlimit:2;"/>
                    </g>
                    <g transform="matrix(33.3333,0,0,33.3333,277.121,281.886)">
                        <path d="M0.2,-0.219C0.238,-0.22 0.297,-0.221 0.333,-0.221C0.365,-0.221 0.4,-0.22 0.433,-0.22C0.479,-0.094 0.501,-0.019 0.507,0.003C0.524,-0 0.571,-0 0.588,-0C0.605,-0 0.662,-0 0.679,0.003C0.629,-0.098 0.491,-0.434 0.405,-0.653L0.315,-0.653C0.219,-0.431 0.121,-0.218 0.02,0.003C0.032,-0 0.065,-0 0.076,-0C0.087,-0 0.109,-0 0.121,0.003C0.137,-0.056 0.166,-0.135 0.2,-0.219ZM0.412,-0.275C0.383,-0.275 0.352,-0.274 0.328,-0.274C0.299,-0.274 0.255,-0.275 0.224,-0.276L0.317,-0.494L0.323,-0.494C0.359,-0.412 0.387,-0.339 0.412,-0.275Z" style="fill:rgb(235,235,235);fill-rule:nonzero;stroke:black;stroke-width:0.04px;stroke-linecap:butt;stroke-miterlimit:2;"/>
                    </g>
                    <g transform="matrix(33.3333,0,0,33.3333,300.487,281.886)">
                        <path d="M0.175,-0.645C0.141,-0.645 0.091,-0.648 0.091,-0.648L0.089,-0.645C0.097,-0.588 0.101,-0.52 0.101,-0.445L0.101,-0.2C0.101,-0.125 0.097,-0.054 0.089,-0L0.09,0.003C0.09,0.003 0.14,-0 0.175,-0C0.253,-0 0.287,0.002 0.374,0.002C0.515,0.002 0.709,-0.072 0.709,-0.318C0.709,-0.515 0.548,-0.648 0.356,-0.648C0.285,-0.648 0.246,-0.645 0.175,-0.645ZM0.245,-0.101L0.245,-0.545C0.245,-0.58 0.269,-0.595 0.318,-0.595C0.534,-0.595 0.548,-0.448 0.548,-0.294C0.548,-0.092 0.484,-0.051 0.343,-0.051C0.267,-0.051 0.245,-0.069 0.245,-0.101Z" style="fill:rgb(235,235,235);fill-rule:nonzero;stroke:black;stroke-width:0.04px;stroke-linecap:butt;stroke-miterlimit:2;"/>
                    </g>
                    <g transform="matrix(33.3333,0,0,33.3333,325.854,281.886)">
                        <path d="M0.24,-0.2L0.24,-0.311C0.288,-0.311 0.408,-0.308 0.477,-0.301L0.48,-0.304C0.478,-0.313 0.477,-0.333 0.477,-0.342C0.477,-0.351 0.478,-0.37 0.48,-0.379L0.477,-0.382C0.418,-0.377 0.358,-0.372 0.24,-0.372L0.24,-0.445C0.24,-0.462 0.241,-0.553 0.248,-0.577C0.382,-0.577 0.534,-0.565 0.534,-0.565L0.536,-0.569C0.535,-0.577 0.534,-0.601 0.534,-0.61C0.534,-0.618 0.535,-0.631 0.536,-0.645L0.534,-0.648C0.518,-0.646 0.495,-0.645 0.474,-0.645L0.17,-0.645C0.136,-0.645 0.086,-0.648 0.086,-0.648L0.084,-0.645C0.092,-0.588 0.096,-0.52 0.096,-0.445L0.096,-0.2C0.096,-0.125 0.092,-0.054 0.084,-0L0.085,0.003C0.085,0.003 0.135,-0 0.17,-0L0.484,-0C0.505,-0 0.528,0.001 0.544,0.003L0.546,-0C0.545,-0.013 0.544,-0.026 0.544,-0.036C0.544,-0.046 0.545,-0.083 0.546,-0.091L0.544,-0.095C0.544,-0.095 0.382,-0.073 0.248,-0.073C0.241,-0.097 0.24,-0.183 0.24,-0.2Z" style="fill:rgb(235,235,235);fill-rule:nonzero;stroke:black;stroke-width:0.04px;stroke-linecap:butt;stroke-miterlimit:2;"/>
                    </g>
                    <g transform="matrix(33.3333,0,0,33.3333,345.654,281.886)">
                        <path d="M0.245,-0.296C0.263,-0.296 0.282,-0.296 0.302,-0.297C0.33,-0.262 0.357,-0.215 0.384,-0.176C0.434,-0.104 0.478,-0.031 0.489,0.003C0.508,-0 0.548,-0 0.567,-0C0.587,-0 0.64,-0 0.66,0.003L0.662,-0C0.611,-0.058 0.507,-0.231 0.444,-0.315C0.529,-0.336 0.597,-0.383 0.597,-0.483C0.597,-0.548 0.573,-0.592 0.532,-0.618C0.486,-0.648 0.419,-0.652 0.353,-0.652C0.328,-0.652 0.207,-0.645 0.177,-0.645C0.143,-0.645 0.093,-0.648 0.093,-0.648L0.091,-0.645C0.099,-0.588 0.103,-0.52 0.103,-0.445L0.103,-0.2C0.103,-0.125 0.099,-0.054 0.091,-0L0.092,0.003C0.092,0.003 0.138,-0 0.173,-0C0.207,-0 0.253,0.003 0.253,0.003L0.255,-0C0.247,-0.057 0.245,-0.125 0.245,-0.2L0.245,-0.296ZM0.334,-0.602C0.395,-0.602 0.442,-0.6 0.442,-0.482C0.442,-0.357 0.396,-0.352 0.299,-0.352L0.245,-0.352L0.245,-0.553C0.245,-0.582 0.263,-0.602 0.334,-0.602Z" style="fill:rgb(235,235,235);fill-rule:nonzero;stroke:black;stroke-width:0.04px;stroke-linecap:butt;stroke-miterlimit:2;"/>
                    </g>
                </g>
            </g>
            <g transform="matrix(0.892488,-0.451071,0.0124819,1.11415,203.361,446.518)">
                <g transform="matrix(2.80163,0,0,1.8502,-365.492,-262.258)">
                    <rect x="234.744" y="272.367" width="50.292" height="20.623" style="fill:white;stroke:black;stroke-width:1.22px;"/>
                </g>
                <g transform="matrix(1,0,0,1,61.2921,-10.7853)">
                    <g transform="matrix(33.3333,0,0,33.3333,237.721,281.886)">
                        <path d="M0.222,-0.379L0.26,-0.379C0.284,-0.379 0.319,-0.378 0.332,-0.377C0.334,-0.392 0.338,-0.409 0.344,-0.424L0.339,-0.432C0.32,-0.43 0.292,-0.429 0.269,-0.429L0.222,-0.429L0.222,-0.439C0.222,-0.465 0.215,-0.513 0.215,-0.535C0.215,-0.59 0.245,-0.629 0.299,-0.629C0.328,-0.629 0.355,-0.608 0.363,-0.579L0.393,-0.58C0.396,-0.608 0.407,-0.661 0.416,-0.681L0.415,-0.684C0.407,-0.689 0.371,-0.698 0.34,-0.698C0.264,-0.698 0.204,-0.673 0.162,-0.629C0.118,-0.583 0.093,-0.52 0.093,-0.459L0.093,-0.429C0.073,-0.429 0.051,-0.43 0.039,-0.432C0.034,-0.415 0.027,-0.399 0.017,-0.384L0.022,-0.377C0.039,-0.378 0.07,-0.379 0.093,-0.379L0.093,-0.2C0.093,-0.125 0.093,-0.051 0.086,-0L0.087,0.003C0.087,0.003 0.127,-0 0.162,-0C0.196,-0 0.231,0.003 0.231,0.003L0.233,-0C0.226,-0.058 0.226,-0.125 0.225,-0.2L0.222,-0.379Z" style="fill-rule:nonzero;stroke:black;stroke-width:0.04px;stroke-linecap:butt;stroke-miterlimit:2;"/>
                    </g>
                    <g transform="matrix(33.3333,0,0,33.3333,249.921,281.886)">
                        <path d="M0.041,-0.205C0.041,-0.072 0.134,0.01 0.283,0.01C0.436,0.01 0.525,-0.076 0.525,-0.214C0.525,-0.34 0.454,-0.439 0.285,-0.439C0.142,-0.439 0.041,-0.36 0.041,-0.205ZM0.278,-0.389C0.363,-0.389 0.383,-0.326 0.383,-0.187C0.383,-0.072 0.342,-0.04 0.297,-0.04C0.193,-0.04 0.183,-0.151 0.183,-0.228C0.183,-0.315 0.192,-0.389 0.278,-0.389Z" style="fill-rule:nonzero;stroke:black;stroke-width:0.04px;stroke-linecap:butt;stroke-miterlimit:2;"/>
                    </g>
                    <g transform="matrix(33.3333,0,0,33.3333,268.787,281.886)">
                        <path d="M0.086,-0.2C0.086,-0.125 0.083,-0.054 0.074,-0L0.075,0.003C0.075,0.003 0.117,-0 0.152,-0C0.186,-0 0.228,0.003 0.228,0.003L0.23,-0C0.222,-0.057 0.218,-0.125 0.218,-0.2L0.218,-0.5C0.218,-0.575 0.222,-0.627 0.23,-0.688C0.23,-0.695 0.225,-0.698 0.219,-0.698C0.194,-0.688 0.117,-0.668 0.076,-0.665L0.074,-0.662C0.082,-0.619 0.086,-0.55 0.086,-0.474L0.086,-0.2Z" style="fill-rule:nonzero;stroke:black;stroke-width:0.04px;stroke-linecap:butt;stroke-miterlimit:2;"/>
                    </g>
                    <g transform="matrix(33.3333,0,0,33.3333,278.921,281.886)">
                        <path d="M0.086,-0.2C0.086,-0.125 0.083,-0.054 0.074,-0L0.075,0.003C0.075,0.003 0.117,-0 0.152,-0C0.186,-0 0.228,0.003 0.228,0.003L0.23,-0C0.222,-0.057 0.218,-0.125 0.218,-0.2L0.218,-0.5C0.218,-0.575 0.222,-0.627 0.23,-0.688C0.23,-0.695 0.225,-0.698 0.219,-0.698C0.194,-0.688 0.117,-0.668 0.076,-0.665L0.074,-0.662C0.082,-0.619 0.086,-0.55 0.086,-0.474L0.086,-0.2Z" style="fill-rule:nonzero;stroke:black;stroke-width:0.04px;stroke-linecap:butt;stroke-miterlimit:2;"/>
                    </g>
                    <g transform="matrix(33.3333,0,0,33.3333,289.054,281.886)">
                        <path d="M0.041,-0.205C0.041,-0.072 0.134,0.01 0.283,0.01C0.436,0.01 0.525,-0.076 0.525,-0.214C0.525,-0.34 0.454,-0.439 0.285,-0.439C0.142,-0.439 0.041,-0.36 0.041,-0.205ZM0.278,-0.389C0.363,-0.389 0.383,-0.326 0.383,-0.187C0.383,-0.072 0.342,-0.04 0.297,-0.04C0.193,-0.04 0.183,-0.151 0.183,-0.228C0.183,-0.315 0.192,-0.389 0.278,-0.389Z" style="fill-rule:nonzero;stroke:black;stroke-width:0.04px;stroke-linecap:butt;stroke-miterlimit:2;"/>
                    </g>
                    <g transform="matrix(33.3333,0,0,33.3333,307.687,281.886)">
                        <path d="M0.201,0.004C0.21,0.001 0.245,0.001 0.254,0.001C0.263,0.001 0.292,0.001 0.3,0.004C0.336,-0.078 0.373,-0.16 0.411,-0.243C0.444,-0.161 0.475,-0.079 0.504,0.003C0.513,-0 0.547,-0 0.556,-0C0.565,-0 0.592,-0 0.6,0.003C0.661,-0.139 0.727,-0.289 0.793,-0.432C0.785,-0.429 0.753,-0.429 0.744,-0.429C0.735,-0.429 0.708,-0.429 0.7,-0.432C0.667,-0.327 0.619,-0.204 0.575,-0.11L0.571,-0.11C0.537,-0.217 0.508,-0.321 0.483,-0.432C0.471,-0.43 0.427,-0.429 0.414,-0.429C0.4,-0.429 0.345,-0.43 0.331,-0.432C0.348,-0.394 0.364,-0.357 0.379,-0.319C0.35,-0.241 0.316,-0.161 0.288,-0.1L0.282,-0.1C0.239,-0.211 0.202,-0.32 0.17,-0.431C0.158,-0.428 0.119,-0.428 0.106,-0.428C0.092,-0.428 0.032,-0.428 0.018,-0.431C0.084,-0.283 0.146,-0.142 0.201,0.004Z" style="fill-rule:nonzero;stroke:black;stroke-width:0.04px;stroke-linecap:butt;stroke-miterlimit:2;"/>
                    </g>
                    <g transform="matrix(33.3333,0,0,33.3333,334.454,281.886)">
                        <path d="M0.448,-0.107C0.402,-0.07 0.353,-0.066 0.311,-0.066C0.262,-0.066 0.226,-0.079 0.202,-0.105C0.18,-0.129 0.169,-0.164 0.169,-0.21L0.269,-0.21C0.369,-0.21 0.454,-0.208 0.454,-0.208L0.46,-0.214C0.46,-0.339 0.425,-0.439 0.271,-0.439C0.216,-0.439 0.156,-0.422 0.117,-0.389C0.068,-0.349 0.035,-0.289 0.035,-0.206C0.035,-0.147 0.057,-0.085 0.098,-0.042C0.132,-0.007 0.191,0.01 0.266,0.01C0.338,0.01 0.41,-0.013 0.464,-0.076C0.464,-0.089 0.458,-0.107 0.448,-0.107ZM0.173,-0.255C0.177,-0.304 0.189,-0.339 0.204,-0.359C0.216,-0.376 0.236,-0.389 0.264,-0.389C0.305,-0.389 0.329,-0.343 0.329,-0.255L0.173,-0.255Z" style="fill-rule:nonzero;stroke:black;stroke-width:0.04px;stroke-linecap:butt;stroke-miterlimit:2;"/>
                    </g>
                    <g transform="matrix(33.3333,0,0,33.3333,351.387,281.886)">
                        <path d="M0.225,-0.349L0.221,-0.352C0.221,-0.375 0.22,-0.417 0.218,-0.425C0.217,-0.432 0.215,-0.435 0.209,-0.435C0.18,-0.43 0.115,-0.43 0.08,-0.432L0.078,-0.429C0.086,-0.386 0.089,-0.31 0.089,-0.235L0.089,-0.18C0.089,-0.105 0.087,-0.054 0.079,-0L0.08,0.003C0.08,0.003 0.112,-0 0.147,-0C0.181,-0 0.229,0.003 0.229,0.003L0.231,-0C0.223,-0.057 0.221,-0.104 0.221,-0.18L0.221,-0.253C0.221,-0.33 0.29,-0.342 0.305,-0.342C0.324,-0.342 0.345,-0.337 0.363,-0.323L0.381,-0.325L0.401,-0.428L0.397,-0.432C0.38,-0.437 0.364,-0.439 0.346,-0.439C0.299,-0.439 0.251,-0.388 0.225,-0.349Z" style="fill-rule:nonzero;stroke:black;stroke-width:0.04px;stroke-linecap:butt;stroke-miterlimit:2;"/>
                    </g>
                </g>
            </g>
        </g>
        <g transform="matrix(1,0,0,1,-73.0617,-0.26156)">
            <g transform="matrix(2.44181,0,0,2.44181,25.0826,-473.848)">
                <g transform="matrix(1,0,0,1,88.8194,-159.708)">
                    <path d="M248.248,488.23L314.596,521.978L314.596,589.475L248.248,623.223L181.9,589.475L181.9,521.978L248.248,488.23Z" style="fill:rgb(235,235,235);fill-opacity:0;stroke:black;stroke-width:0.94px;"/>
                </g>
                <g transform="matrix(1,0,0,1,-17.8244,-141.734)">
                    <path d="M354.9,537.765L355.064,604.967" style="fill:none;stroke:black;stroke-width:0.94px;"/>
                </g>
                <g transform="matrix(1,0,0,1,-42.3704,1.86073)">
                    <path d="M445.602,360.692L379.254,394.441L312.906,360.692" style="fill:rgb(235,235,235);fill-opacity:0;stroke:black;stroke-width:0.94px;"/>
                </g>
            </g>
            <g transform="matrix(0.892488,-0.451071,0.0124819,1.11415,603.97,408.309)">
                <g transform="matrix(2.80163,0,0,1.8502,-365.492,-262.258)">
                    <rect x="234.744" y="272.367" width="50.292" height="20.623" style="fill:white;stroke:black;stroke-width:1.22px;"/>
                </g>
                <g transform="matrix(1,0,0,1,61.2921,-10.7853)">
                    <g transform="matrix(33.3333,0,0,33.3333,237.721,281.886)">
                        <path d="M0.222,-0.379L0.26,-0.379C0.284,-0.379 0.319,-0.378 0.332,-0.377C0.334,-0.392 0.338,-0.409 0.344,-0.424L0.339,-0.432C0.32,-0.43 0.292,-0.429 0.269,-0.429L0.222,-0.429L0.222,-0.439C0.222,-0.465 0.215,-0.513 0.215,-0.535C0.215,-0.59 0.245,-0.629 0.299,-0.629C0.328,-0.629 0.355,-0.608 0.363,-0.579L0.393,-0.58C0.396,-0.608 0.407,-0.661 0.416,-0.681L0.415,-0.684C0.407,-0.689 0.371,-0.698 0.34,-0.698C0.264,-0.698 0.204,-0.673 0.162,-0.629C0.118,-0.583 0.093,-0.52 0.093,-0.459L0.093,-0.429C0.073,-0.429 0.051,-0.43 0.039,-0.432C0.034,-0.415 0.027,-0.399 0.017,-0.384L0.022,-0.377C0.039,-0.378 0.07,-0.379 0.093,-0.379L0.093,-0.2C0.093,-0.125 0.093,-0.051 0.086,-0L0.087,0.003C0.087,0.003 0.127,-0 0.162,-0C0.196,-0 0.231,0.003 0.231,0.003L0.233,-0C0.226,-0.058 0.226,-0.125 0.225,-0.2L0.222,-0.379Z" style="fill-rule:nonzero;stroke:black;stroke-width:0.04px;stroke-linecap:butt;stroke-miterlimit:2;"/>
                    </g>
                    <g transform="matrix(33.3333,0,0,33.3333,249.921,281.886)">
                        <path d="M0.041,-0.205C0.041,-0.072 0.134,0.01 0.283,0.01C0.436,0.01 0.525,-0.076 0.525,-0.214C0.525,-0.34 0.454,-0.439 0.285,-0.439C0.142,-0.439 0.041,-0.36 0.041,-0.205ZM0.278,-0.389C0.363,-0.389 0.383,-0.326 0.383,-0.187C0.383,-0.072 0.342,-0.04 0.297,-0.04C0.193,-0.04 0.183,-0.151 0.183,-0.228C0.183,-0.315 0.192,-0.389 0.278,-0.389Z" style="fill-rule:nonzero;stroke:black;stroke-width:0.04px;stroke-linecap:butt;stroke-miterlimit:2;"/>
                    </g>
                    <g transform="matrix(33.3333,0,0,33.3333,268.787,281.886)">
                        <path d="M0.086,-0.2C0.086,-0.125 0.083,-0.054 0.074,-0L0.075,0.003C0.075,0.003 0.117,-0 0.152,-0C0.186,-0 0.228,0.003 0.228,0.003L0.23,-0C0.222,-0.057 0.218,-0.125 0.218,-0.2L0.218,-0.5C0.218,-0.575 0.222,-0.627 0.23,-0.688C0.23,-0.695 0.225,-0.698 0.219,-0.698C0.194,-0.688 0.117,-0.668 0.076,-0.665L0.074,-0.662C0.082,-0.619 0.086,-0.55 0.086,-0.474L0.086,-0.2Z" style="fill-rule:nonzero;stroke:black;stroke-width:0.04px;stroke-linecap:butt;stroke-miterlimit:2;"/>
                    </g>
                    <g transform="matrix(33.3333,0,0,33.3333,278.921,281.886)">
                        <path d="M0.086,-0.2C0.086,-0.125 0.083,-0.054 0.074,-0L0.075,0.003C0.075,0.003 0.117,-0 0.152,-0C0.186,-0 0.228,0.003 0.228,0.003L0.23,-0C0.222,-0.057 0.218,-0.125 0.218,-0.2L0.218,-0.5C0.218,-0.575 0.222,-0.627 0.23,-0.688C0.23,-0.695 0.225,-0.698 0.219,-0.698C0.194,-0.688 0.117,-0.668 0.076,-0.665L0.074,-0.662C0.082,-0.619 0.086,-0.55 0.086,-0.474L0.086,-0.2Z" style="fill-rule:nonzero;stroke:black;stroke-width:0.04px;stroke-linecap:butt;stroke-miterlimit:2;"/>
                    </g>
                    <g transform="matrix(33.3333,0,0,33.3333,289.054,281.886)">
                        <path d="M0.041,-0.205C0.041,-0.072 0.134,0.01 0.283,0.01C0.436,0.01 0.525,-0.076 0.525,-0.214C0.525,-0.34 0.454,-0.439 0.285,-0.439C0.142,-0.439 0.041,-0.36 0.041,-0.205ZM0.278,-0.389C0.363,-0.389 0.383,-0.326 0.383,-0.187C0.383,-0.072 0.342,-0.04 0.297,-0.04C0.193,-0.04 0.183,-0.151 0.183,-0.228C0.183,-0.315 0.192,-0.389 0.278,-0.389Z" style="fill-rule:nonzero;stroke:black;stroke-width:0.04px;stroke-linecap:butt;stroke-miterlimit:2;"/>
                    </g>
                    <g transform="matrix(33.3333,0,0,33.3333,307.687,281.886)">
                        <path d="M0.201,0.004C0.21,0.001 0.245,0.001 0.254,0.001C0.263,0.001 0.292,0.001 0.3,0.004C0.336,-0.078 0.373,-0.16 0.411,-0.243C0.444,-0.161 0.475,-0.079 0.504,0.003C0.513,-0 0.547,-0 0.556,-0C0.565,-0 0.592,-0 0.6,0.003C0.661,-0.139 0.727,-0.289 0.793,-0.432C0.785,-0.429 0.753,-0.429 0.744,-0.429C0.735,-0.429 0.708,-0.429 0.7,-0.432C0.667,-0.327 0.619,-0.204 0.575,-0.11L0.571,-0.11C0.537,-0.217 0.508,-0.321 0.483,-0.432C0.471,-0.43 0.427,-0.429 0.414,-0.429C0.4,-0.429 0.345,-0.43 0.331,-0.432C0.348,-0.394 0.364,-0.357 0.379,-0.319C0.35,-0.241 0.316,-0.161 0.288,-0.1L0.282,-0.1C0.239,-0.211 0.202,-0.32 0.17,-0.431C0.158,-0.428 0.119,-0.428 0.106,-0.428C0.092,-0.428 0.032,-0.428 0.018,-0.431C0.084,-0.283 0.146,-0.142 0.201,0.004Z" style="fill-rule:nonzero;stroke:black;stroke-width:0.04px;stroke-linecap:butt;stroke-miterlimit:2;"/>
                    </g>
                    <g transform="matrix(33.3333,0,0,33.3333,334.454,281.886)">
                        <path d="M0.448,-0.107C0.402,-0.07 0.353,-0.066 0.311,-0.066C0.262,-0.066 0.226,-0.079 0.202,-0.105C0.18,-0.129 0.169,-0.164 0.169,-0.21L0.269,-0.21C0.369,-0.21 0.454,-0.208 0.454,-0.208L0.46,-0.214C0.46,-0.339 0.425,-0.439 0.271,-0.439C0.216,-0.439 0.156,-0.422 0.117,-0.389C0.068,-0.349 0.035,-0.289 0.035,-0.206C0.035,-0.147 0.057,-0.085 0.098,-0.042C0.132,-0.007 0.191,0.01 0.266,0.01C0.338,0.01 0.41,-0.013 0.464,-0.076C0.464,-0.089 0.458,-0.107 0.448,-0.107ZM0.173,-0.255C0.177,-0.304 0.189,-0.339 0.204,-0.359C0.216,-0.376 0.236,-0.389 0.264,-0.389C0.305,-0.389 0.329,-0.343 0.329,-0.255L0.173,-0.255Z" style="fill-rule:nonzero;stroke:black;stroke-width:0.04px;stroke-linecap:butt;stroke-miterlimit:2;"/>
                    </g>
                    <g transform="matrix(33.3333,0,0,33.3333,351.387,281.886)">
                        <path d="M0.225,-0.349L0.221,-0.352C0.221,-0.375 0.22,-0.417 0.218,-0.425C0.217,-0.432 0.215,-0.435 0.209,-0.435C0.18,-0.43 0.115,-0.43 0.08,-0.432L0.078,-0.429C0.086,-0.386 0.089,-0.31 0.089,-0.235L0.089,-0.18C0.089,-0.105 0.087,-0.054 0.079,-0L0.08,0.003C0.08,0.003 0.112,-0 0.147,-0C0.181,-0 0.229,0.003 0.229,0.003L0.231,-0C0.223,-0.057 0.221,-0.104 0.221,-0.18L0.221,-0.253C0.221,-0.33 0.29,-0.342 0.305,-0.342C0.324,-0.342 0.345,-0.337 0.363,-0.323L0.381,-0.325L0.401,-0.428L0.397,-0.432C0.38,-0.437 0.364,-0.439 0.346,-0.439C0.299,-0.439 0.251,-0.388 0.225,-0.349Z" style="fill-rule:nonzero;stroke:black;stroke-width:0.04px;stroke-linecap:butt;stroke-miterlimit:2;"/>
                    </g>
                </g>
            </g>
        </g>
        <g transform="matrix(1,0,0,1,-12.6916,-61.2724)">
            <g transform="matrix(2.44181,0,0,2.44181,-374.746,-74.0195)">
                <g transform="matrix(1,0,0,1,88.8194,-159.708)">
                    <path d="M248.248,488.23L314.596,521.978L314.596,589.475L248.248,623.223L181.9,589.475L181.9,521.978L248.248,488.23Z" style="fill:rgb(235,235,235);fill-opacity:0;stroke:black;stroke-width:0.94px;"/>
                </g>
                <g transform="matrix(1,0,0,1,-17.8244,-141.734)">
                    <path d="M354.9,537.765L355.064,604.967" style="fill:none;stroke:black;stroke-width:0.94px;"/>
                </g>
                <g transform="matrix(1,0,0,1,-42.3704,1.86073)">
                    <path d="M445.602,360.692L379.254,394.441L312.906,360.692" style="fill:rgb(235,235,235);fill-opacity:0;stroke:black;stroke-width:0.94px;"/>
                </g>
            </g>
            <g transform="matrix(0.892488,-0.451071,0.0124819,1.11415,204.141,808.138)">
                <g transform="matrix(2.80163,0,0,1.8502,-365.492,-262.258)">
                    <rect x="234.744" y="272.367" width="50.292" height="20.623" style="fill:white;stroke:black;stroke-width:1.22px;"/>
                </g>
                <g transform="matrix(1,0,0,1,61.2921,-10.7853)">
                    <g transform="matrix(33.3333,0,0,33.3333,237.721,281.886)">
                        <path d="M0.222,-0.379L0.26,-0.379C0.284,-0.379 0.319,-0.378 0.332,-0.377C0.334,-0.392 0.338,-0.409 0.344,-0.424L0.339,-0.432C0.32,-0.43 0.292,-0.429 0.269,-0.429L0.222,-0.429L0.222,-0.439C0.222,-0.465 0.215,-0.513 0.215,-0.535C0.215,-0.59 0.245,-0.629 0.299,-0.629C0.328,-0.629 0.355,-0.608 0.363,-0.579L0.393,-0.58C0.396,-0.608 0.407,-0.661 0.416,-0.681L0.415,-0.684C0.407,-0.689 0.371,-0.698 0.34,-0.698C0.264,-0.698 0.204,-0.673 0.162,-0.629C0.118,-0.583 0.093,-0.52 0.093,-0.459L0.093,-0.429C0.073,-0.429 0.051,-0.43 0.039,-0.432C0.034,-0.415 0.027,-0.399 0.017,-0.384L0.022,-0.377C0.039,-0.378 0.07,-0.379 0.093,-0.379L0.093,-0.2C0.093,-0.125 0.093,-0.051 0.086,-0L0.087,0.003C0.087,0.003 0.127,-0 0.162,-0C0.196,-0 0.231,0.003 0.231,0.003L0.233,-0C0.226,-0.058 0.226,-0.125 0.225,-0.2L0.222,-0.379Z" style="fill-rule:nonzero;stroke:black;stroke-width:0.04px;stroke-linecap:butt;stroke-miterlimit:2;"/>
                    </g>
                    <g transform="matrix(33.3333,0,0,33.3333,249.921,281.886)">
                        <path d="M0.041,-0.205C0.041,-0.072 0.134,0.01 0.283,0.01C0.436,0.01 0.525,-0.076 0.525,-0.214C0.525,-0.34 0.454,-0.439 0.285,-0.439C0.142,-0.439 0.041,-0.36 0.041,-0.205ZM0.278,-0.389C0.363,-0.389 0.383,-0.326 0.383,-0.187C0.383,-0.072 0.342,-0.04 0.297,-0.04C0.193,-0.04 0.183,-0.151 0.183,-0.228C0.183,-0.315 0.192,-0.389 0.278,-0.389Z" style="fill-rule:nonzero;stroke:black;stroke-width:0.04px;stroke-linecap:butt;stroke-miterlimit:2;"/>
                    </g>
                    <g transform="matrix(33.3333,0,0,33.3333,268.787,281.886)">
                        <path d="M0.086,-0.2C0.086,-0.125 0.083,-0.054 0.074,-0L0.075,0.003C0.075,0.003 0.117,-0 0.152,-0C0.186,-0 0.228,0.003 0.228,0.003L0.23,-0C0.222,-0.057 0.218,-0.125 0.218,-0.2L0.218,-0.5C0.218,-0.575 0.222,-0.627 0.23,-0.688C0.23,-0.695 0.225,-0.698 0.219,-0.698C0.194,-0.688 0.117,-0.668 0.076,-0.665L0.074,-0.662C0.082,-0.619 0.086,-0.55 0.086,-0.474L0.086,-0.2Z" style="fill-rule:nonzero;stroke:black;stroke-width:0.04px;stroke-linecap:butt;stroke-miterlimit:2;"/>
                    </g>
                    <g transform="matrix(33.3333,0,0,33.3333,278.921,281.886)">
                        <path d="M0.086,-0.2C0.086,-0.125 0.083,-0.054 0.074,-0L0.075,0.003C0.075,0.003 0.117,-0 0.152,-0C0.186,-0 0.228,0.003 0.228,0.003L0.23,-0C0.222,-0.057 0.218,-0.125 0.218,-0.2L0.218,-0.5C0.218,-0.575 0.222,-0.627 0.23,-0.688C0.23,-0.695 0.225,-0.698 0.219,-0.698C0.194,-0.688 0.117,-0.668 0.076,-0.665L0.074,-0.662C0.082,-0.619 0.086,-0.55 0.086,-0.474L0.086,-0.2Z" style="fill-rule:nonzero;stroke:black;stroke-width:0.04px;stroke-linecap:butt;stroke-miterlimit:2;"/>
                    </g>
                    <g transform="matrix(33.3333,0,0,33.3333,289.054,281.886)">
                        <path d="M0.041,-0.205C0.041,-0.072 0.134,0.01 0.283,0.01C0.436,0.01 0.525,-0.076 0.525,-0.214C0.525,-0.34 0.454,-0.439 0.285,-0.439C0.142,-0.439 0.041,-0.36 0.041,-0.205ZM0.278,-0.389C0.363,-0.389 0.383,-0.326 0.383,-0.187C0.383,-0.072 0.342,-0.04 0.297,-0.04C0.193,-0.04 0.183,-0.151 0.183,-0.228C0.183,-0.315 0.192,-0.389 0.278,-0.389Z" style="fill-rule:nonzero;stroke:black;stroke-width:0.04px;stroke-linecap:butt;stroke-miterlimit:2;"/>
                    </g>
                    <g transform="matrix(33.3333,0,0,33.3333,307.687,281.886)">
                        <path d="M0.201,0.004C0.21,0.001 0.245,0.001 0.254,0.001C0.263,0.001 0.292,0.001 0.3,0.004C0.336,-0.078 0.373,-0.16 0.411,-0.243C0.444,-0.161 0.475,-0.079 0.504,0.003C0.513,-0 0.547,-0 0.556,-0C0.565,-0 0.592,-0 0.6,0.003C0.661,-0.139 0.727,-0.289 0.793,-0.432C0.785,-0.429 0.753,-0.429 0.744,-0.429C0.735,-0.429 0.708,-0.429 0.7,-0.432C0.667,-0.327 0.619,-0.204 0.575,-0.11L0.571,-0.11C0.537,-0.217 0.508,-0.321 0.483,-0.432C0.471,-0.43 0.427,-0.429 0.414,-0.429C0.4,-0.429 0.345,-0.43 0.331,-0.432C0.348,-0.394 0.364,-0.357 0.379,-0.319C0.35,-0.241 0.316,-0.161 0.288,-0.1L0.282,-0.1C0.239,-0.211 0.202,-0.32 0.17,-0.431C0.158,-0.428 0.119,-0.428 0.106,-0.428C0.092,-0.428 0.032,-0.428 0.018,-0.431C0.084,-0.283 0.146,-0.142 0.201,0.004Z" style="fill-rule:nonzero;stroke:black;stroke-width:0.04px;stroke-linecap:butt;stroke-miterlimit:2;"/>
                    </g>
                    <g transform="matrix(33.3333,0,0,33.3333,334.454,281.886)">
                        <path d="M0.448,-0.107C0.402,-0.07 0.353,-0.066 0.311,-0.066C0.262,-0.066 0.226,-0.079 0.202,-0.105C0.18,-0.129 0.169,-0.164 0.169,-0.21L0.269,-0.21C0.369,-0.21 0.454,-0.208 0.454,-0.208L0.46,-0.214C0.46,-0.339 0.425,-0.439 0.271,-0.439C0.216,-0.439 0.156,-0.422 0.117,-0.389C0.068,-0.349 0.035,-0.289 0.035,-0.206C0.035,-0.147 0.057,-0.085 0.098,-0.042C0.132,-0.007 0.191,0.01 0.266,0.01C0.338,0.01 0.41,-0.013 0.464,-0.076C0.464,-0.089 0.458,-0.107 0.448,-0.107ZM0.173,-0.255C0.177,-0.304 0.189,-0.339 0.204,-0.359C0.216,-0.376 0.236,-0.389 0.264,-0.389C0.305,-0.389 0.329,-0.343 0.329,-0.255L0.173,-0.255Z" style="fill-rule:nonzero;stroke:black;stroke-width:0.04px;stroke-linecap:butt;stroke-miterlimit:2;"/>
                    </g>
                    <g transform="matrix(33.3333,0,0,33.3333,351.387,281.886)">
                        <path d="M0.225,-0.349L0.221,-0.352C0.221,-0.375 0.22,-0.417 0.218,-0.425C0.217,-0.432 0.215,-0.435 0.209,-0.435C0.18,-0.43 0.115,-0.43 0.08,-0.432L0.078,-0.429C0.086,-0.386 0.089,-0.31 0.089,-0.235L0.089,-0.18C0.089,-0.105 0.087,-0.054 0.079,-0L0.08,0.003C0.08,0.003 0.112,-0 0.147,-0C0.181,-0 0.229,0.003 0.229,0.003L0.231,-0C0.223,-0.057 0.221,-0.104 0.221,-0.18L0.221,-0.253C0.221,-0.33 0.29,-0.342 0.305,-0.342C0.324,-0.342 0.345,-0.337 0.363,-0.323L0.381,-0.325L0.401,-0.428L0.397,-0.432C0.38,-0.437 0.364,-0.439 0.346,-0.439C0.299,-0.439 0.251,-0.388 0.225,-0.349Z" style="fill-rule:nonzero;stroke:black;stroke-width:0.04px;stroke-linecap:butt;stroke-miterlimit:2;"/>
                    </g>
                </g>
            </g>
        </g>
        <g transform="matrix(1,0,0,1,-73.0617,-62.03)">
            <g transform="matrix(2.44181,0,0,2.44181,25.0826,-73.2619)">
                <g transform="matrix(1,0,0,1,88.8194,-159.708)">
                    <path d="M248.248,488.23L314.596,521.978L314.596,589.475L248.248,623.223L181.9,589.475L181.9,521.978L248.248,488.23Z" style="fill:rgb(235,235,235);fill-opacity:0;stroke:black;stroke-width:0.94px;"/>
                </g>
                <g transform="matrix(1,0,0,1,-17.8244,-141.734)">
                    <path d="M354.9,537.765L355.064,604.967" style="fill:none;stroke:black;stroke-width:0.94px;"/>
                </g>
                <g transform="matrix(1,0,0,1,-42.3704,1.86073)">
                    <path d="M445.602,360.692L379.254,394.441L312.906,360.692" style="fill:rgb(235,235,235);fill-opacity:0;stroke:black;stroke-width:0.94px;"/>
                </g>
            </g>
            <g transform="matrix(0.892488,-0.451071,0.0124819,1.11415,603.97,808.895)">
                <g transform="matrix(2.80163,0,0,1.8502,-365.492,-262.258)">
                    <rect x="234.744" y="272.367" width="50.292" height="20.623" style="fill:white;stroke:black;stroke-width:1.22px;"/>
                </g>
                <g transform="matrix(1,0,0,1,61.2921,-10.7853)">
                    <g transform="matrix(33.3333,0,0,33.3333,237.721,281.886)">
                        <path d="M0.222,-0.379L0.26,-0.379C0.284,-0.379 0.319,-0.378 0.332,-0.377C0.334,-0.392 0.338,-0.409 0.344,-0.424L0.339,-0.432C0.32,-0.43 0.292,-0.429 0.269,-0.429L0.222,-0.429L0.222,-0.439C0.222,-0.465 0.215,-0.513 0.215,-0.535C0.215,-0.59 0.245,-0.629 0.299,-0.629C0.328,-0.629 0.355,-0.608 0.363,-0.579L0.393,-0.58C0.396,-0.608 0.407,-0.661 0.416,-0.681L0.415,-0.684C0.407,-0.689 0.371,-0.698 0.34,-0.698C0.264,-0.698 0.204,-0.673 0.162,-0.629C0.118,-0.583 0.093,-0.52 0.093,-0.459L0.093,-0.429C0.073,-0.429 0.051,-0.43 0.039,-0.432C0.034,-0.415 0.027,-0.399 0.017,-0.384L0.022,-0.377C0.039,-0.378 0.07,-0.379 0.093,-0.379L0.093,-0.2C0.093,-0.125 0.093,-0.051 0.086,-0L0.087,0.003C0.087,0.003 0.127,-0 0.162,-0C0.196,-0 0.231,0.003 0.231,0.003L0.233,-0C0.226,-0.058 0.226,-0.125 0.225,-0.2L0.222,-0.379Z" style="fill-rule:nonzero;stroke:black;stroke-width:0.04px;stroke-linecap:butt;stroke-miterlimit:2;"/>
                    </g>
                    <g transform="matrix(33.3333,0,0,33.3333,249.921,281.886)">
                        <path d="M0.041,-0.205C0.041,-0.072 0.134,0.01 0.283,0.01C0.436,0.01 0.525,-0.076 0.525,-0.214C0.525,-0.34 0.454,-0.439 0.285,-0.439C0.142,-0.439 0.041,-0.36 0.041,-0.205ZM0.278,-0.389C0.363,-0.389 0.383,-0.326 0.383,-0.187C0.383,-0.072 0.342,-0.04 0.297,-0.04C0.193,-0.04 0.183,-0.151 0.183,-0.228C0.183,-0.315 0.192,-0.389 0.278,-0.389Z" style="fill-rule:nonzero;stroke:black;stroke-width:0.04px;stroke-linecap:butt;stroke-miterlimit:2;"/>
                    </g>
                    <g transform="matrix(33.3333,0,0,33.3333,268.787,281.886)">
                        <path d="M0.086,-0.2C0.086,-0.125 0.083,-0.054 0.074,-0L0.075,0.003C0.075,0.003 0.117,-0 0.152,-0C0.186,-0 0.228,0.003 0.228,0.003L0.23,-0C0.222,-0.057 0.218,-0.125 0.218,-0.2L0.218,-0.5C0.218,-0.575 0.222,-0.627 0.23,-0.688C0.23,-0.695 0.225,-0.698 0.219,-0.698C0.194,-0.688 0.117,-0.668 0.076,-0.665L0.074,-0.662C0.082,-0.619 0.086,-0.55 0.086,-0.474L0.086,-0.2Z" style="fill-rule:nonzero;stroke:black;stroke-width:0.04px;stroke-linecap:butt;stroke-miterlimit:2;"/>
                    </g>
                    <g transform="matrix(33.3333,0,0,33.3333,278.921,281.886)">
                        <path d="M0.086,-0.2C0.086,-0.125 0.083,-0.054 0.074,-0L0.075,0.003C0.075,0.003 0.117,-0 0.152,-0C0.186,-0 0.228,0.003 0.228,0.003L0.23,-0C0.222,-0.057 0.218,-0.125 0.218,-0.2L0.218,-0.5C0.218,-0.575 0.222,-0.627 0.23,-0.688C0.23,-0.695 0.225,-0.698 0.219,-0.698C0.194,-0.688 0.117,-0.668 0.076,-0.665L0.074,-0.662C0.082,-0.619 0.086,-0.55 0.086,-0.474L0.086,-0.2Z" style="fill-rule:nonzero;stroke:black;stroke-width:0.04px;stroke-linecap:butt;stroke-miterlimit:2;"/>
                    </g>
                    <g transform="matrix(33.3333,0,0,33.3333,289.054,281.886)">
                        <path d="M0.041,-0.205C0.041,-0.072 0.134,0.01 0.283,0.01C0.436,0.01 0.525,-0.076 0.525,-0.214C0.525,-0.34 0.454,-0.439 0.285,-0.439C0.142,-0.439 0.041,-0.36 0.041,-0.205ZM0.278,-0.389C0.363,-0.389 0.383,-0.326 0.383,-0.187C0.383,-0.072 0.342,-0.04 0.297,-0.04C0.193,-0.04 0.183,-0.151 0.183,-0.228C0.183,-0.315 0.192,-0.389 0.278,-0.389Z" style="fill-rule:nonzero;stroke:black;stroke-width:0.04px;stroke-linecap:butt;stroke-miterlimit:2;"/>
                    </g>
                    <g transform="matrix(33.3333,0,0,33.3333,307.687,281.886)">
                        <path d="M0.201,0.004C0.21,0.001 0.245,0.001 0.254,0.001C0.263,0.001 0.292,0.001 0.3,0.004C0.336,-0.078 0.373,-0.16 0.411,-0.243C0.444,-0.161 0.475,-0.079 0.504,0.003C0.513,-0 0.547,-0 0.556,-0C0.565,-0 0.592,-0 0.6,0.003C0.661,-0.139 0.727,-0.289 0.793,-0.432C0.785,-0.429 0.753,-0.429 0.744,-0.429C0.735,-0.429 0.708,-0.429 0.7,-0.432C0.667,-0.327 0.619,-0.204 0.575,-0.11L0.571,-0.11C0.537,-0.217 0.508,-0.321 0.483,-0.432C0.471,-0.43 0.427,-0.429 0.414,-0.429C0.4,-0.429 0.345,-0.43 0.331,-0.432C0.348,-0.394 0.364,-0.357 0.379,-0.319C0.35,-0.241 0.316,-0.161 0.288,-0.1L0.282,-0.1C0.239,-0.211 0.202,-0.32 0.17,-0.431C0.158,-0.428 0.119,-0.428 0.106,-0.428C0.092,-0.428 0.032,-0.428 0.018,-0.431C0.084,-0.283 0.146,-0.142 0.201,0.004Z" style="fill-rule:nonzero;stroke:black;stroke-width:0.04px;stroke-linecap:butt;stroke-miterlimit:2;"/>
                    </g>
                    <g transform="matrix(33.3333,0,0,33.3333,334.454,281.886)">
                        <path d="M0.448,-0.107C0.402,-0.07 0.353,-0.066 0.311,-0.066C0.262,-0.066 0.226,-0.079 0.202,-0.105C0.18,-0.129 0.169,-0.164 0.169,-0.21L0.269,-0.21C0.369,-0.21 0.454,-0.208 0.454,-0.208L0.46,-0.214C0.46,-0.339 0.425,-0.439 0.271,-0.439C0.216,-0.439 0.156,-0.422 0.117,-0.389C0.068,-0.349 0.035,-0.289 0.035,-0.206C0.035,-0.147 0.057,-0.085 0.098,-0.042C0.132,-0.007 0.191,0.01 0.266,0.01C0.338,0.01 0.41,-0.013 0.464,-0.076C0.464,-0.089 0.458,-0.107 0.448,-0.107ZM0.173,-0.255C0.177,-0.304 0.189,-0.339 0.204,-0.359C0.216,-0.376 0.236,-0.389 0.264,-0.389C0.305,-0.389 0.329,-0.343 0.329,-0.255L0.173,-0.255Z" style="fill-rule:nonzero;stroke:black;stroke-width:0.04px;stroke-linecap:butt;stroke-miterlimit:2;"/>
                    </g>
                    <g transform="matrix(33.3333,0,0,33.3333,351.387,281.886)">
                        <path d="M0.225,-0.349L0.221,-0.352C0.221,-0.375 0.22,-0.417 0.218,-0.425C0.217,-0.432 0.215,-0.435 0.209,-0.435C0.18,-0.43 0.115,-0.43 0.08,-0.432L0.078,-0.429C0.086,-0.386 0.089,-0.31 0.089,-0.235L0.089,-0.18C0.089,-0.105 0.087,-0.054 0.079,-0L0.08,0.003C0.08,0.003 0.112,-0 0.147,-0C0.181,-0 0.229,0.003 0.229,0.003L0.231,-0C0.223,-0.057 0.221,-0.104 0.221,-0.18L0.221,-0.253C0.221,-0.33 0.29,-0.342 0.305,-0.342C0.324,-0.342 0.345,-0.337 0.363,-0.323L0.381,-0.325L0.401,-0.428L0.397,-0.432C0.38,-0.437 0.364,-0.439 0.346,-0.439C0.299,-0.439 0.251,-0.388 0.225,-0.349Z" style="fill-rule:nonzero;stroke:black;stroke-width:0.04px;stroke-linecap:butt;stroke-miterlimit:2;"/>
                    </g>
                </g>
            </g>
        </g>
        <g transform="matrix(1,0,0,1,1294.68,338.511)">
            <g transform="matrix(2.44181,0,0,2.44181,-375.136,-473.757)">
                <g transform="matrix(1,0,0,1,88.8194,-159.708)">
                    <path d="M248.248,488.23L314.596,521.978L314.596,589.475L248.248,623.223L181.9,589.475L181.9,521.978L248.248,488.23Z" style="fill:rgb(235,235,235);fill-opacity:0;stroke:black;stroke-width:0.94px;"/>
                </g>
                <g transform="matrix(1,0,0,1,88.8194,-159.708)">
                    <path d="M248.248,488.23L314.596,521.978L314.596,589.475L248.248,623.223L181.9,589.475L181.9,521.978L248.248,488.23Z" style="fill:rgb(235,235,235);fill-opacity:0;stroke:black;stroke-width:0.94px;"/>
                </g>
                <g transform="matrix(1,0,0,1,-17.8244,-141.734)">
                    <path d="M354.9,537.765L355.064,604.967" style="fill:none;stroke:black;stroke-width:0.94px;"/>
                </g>
                <g transform="matrix(1,0,0,1,-42.3704,1.86073)">
                    <path d="M445.602,360.692L379.254,394.441L312.906,360.692" style="fill:rgb(235,235,235);fill-opacity:0;stroke:black;stroke-width:0.94px;"/>
                </g>
            </g>
            <g transform="matrix(2.44181,0,0,2.44181,-375.136,-473.757)">
                <g transform="matrix(1,0,0,1,88.8194,-159.708)">
                    <path d="M248.248,488.23L314.596,521.978L314.596,589.475L248.248,623.223L181.9,589.475L181.9,521.978L248.248,488.23Z" style="fill:rgb(235,235,235);fill-opacity:0;stroke:black;stroke-width:0.94px;"/>
                </g>
                <g transform="matrix(1,0,0,1,88.8194,-159.708)">
                    <path d="M248.248,488.23L314.596,521.978L314.596,589.475L248.248,623.223L181.9,589.475L181.9,521.978L248.248,488.23Z" style="fill:rgb(235,235,235);fill-opacity:0;stroke:black;stroke-width:0.94px;"/>
                </g>
                <g transform="matrix(1,0,0,1,-17.8244,-141.734)">
                    <path d="M354.9,537.765L355.064,604.967" style="fill:none;stroke:black;stroke-width:0.94px;"/>
                </g>
                <g transform="matrix(1,0,0,1,-42.3704,1.86073)">
                    <path d="M445.602,360.692L379.254,394.441L312.906,360.692" style="fill:rgb(235,235,235);fill-opacity:0;stroke:black;stroke-width:0.94px;"/>
                </g>
            </g>
            <g transform="matrix(0.892488,-0.451071,0.0124819,1.11415,203.361,383.406)">
                <g transform="matrix(2.80163,0,0,1.8502,-365.492,-262.258)">
                    <rect x="234.744" y="272.367" width="50.292" height="20.623" style="stroke:black;stroke-width:1.22px;"/>
                </g>
                <g transform="matrix(1,0,0,1,58.3696,-10.9025)">
                    <g transform="matrix(33.3333,0,0,33.3333,237.721,281.886)">
                        <path d="M0.247,-0.21L0.247,-0.445C0.247,-0.52 0.249,-0.592 0.257,-0.645L0.256,-0.648C0.256,-0.648 0.208,-0.645 0.173,-0.645C0.139,-0.645 0.094,-0.648 0.094,-0.648L0.092,-0.645C0.1,-0.588 0.103,-0.52 0.103,-0.445L0.103,-0.2C0.103,-0.125 0.101,-0.054 0.093,-0L0.094,0.003C0.094,0.003 0.143,-0 0.177,-0L0.481,-0C0.502,-0 0.525,0.001 0.541,0.003L0.543,-0C0.542,-0.014 0.541,-0.032 0.541,-0.042C0.541,-0.052 0.542,-0.091 0.543,-0.099L0.541,-0.103C0.541,-0.103 0.389,-0.081 0.255,-0.081C0.248,-0.105 0.247,-0.193 0.247,-0.21Z" style="fill:rgb(235,235,235);fill-rule:nonzero;stroke:black;stroke-width:0.04px;stroke-linecap:butt;stroke-miterlimit:2;"/>
                    </g>
                    <g transform="matrix(33.3333,0,0,33.3333,257.321,281.886)">
                        <path d="M0.24,-0.2L0.24,-0.311C0.288,-0.311 0.408,-0.308 0.477,-0.301L0.48,-0.304C0.478,-0.313 0.477,-0.333 0.477,-0.342C0.477,-0.351 0.478,-0.37 0.48,-0.379L0.477,-0.382C0.418,-0.377 0.358,-0.372 0.24,-0.372L0.24,-0.445C0.24,-0.462 0.241,-0.553 0.248,-0.577C0.382,-0.577 0.534,-0.565 0.534,-0.565L0.536,-0.569C0.535,-0.577 0.534,-0.601 0.534,-0.61C0.534,-0.618 0.535,-0.631 0.536,-0.645L0.534,-0.648C0.518,-0.646 0.495,-0.645 0.474,-0.645L0.17,-0.645C0.136,-0.645 0.086,-0.648 0.086,-0.648L0.084,-0.645C0.092,-0.588 0.096,-0.52 0.096,-0.445L0.096,-0.2C0.096,-0.125 0.092,-0.054 0.084,-0L0.085,0.003C0.085,0.003 0.135,-0 0.17,-0L0.484,-0C0.505,-0 0.528,0.001 0.544,0.003L0.546,-0C0.545,-0.013 0.544,-0.026 0.544,-0.036C0.544,-0.046 0.545,-0.083 0.546,-0.091L0.544,-0.095C0.544,-0.095 0.382,-0.073 0.248,-0.073C0.241,-0.097 0.24,-0.183 0.24,-0.2Z" style="fill:rgb(235,235,235);fill-rule:nonzero;stroke:black;stroke-width:0.04px;stroke-linecap:butt;stroke-miterlimit:2;"/>
                    </g>
                    <g transform="matrix(33.3333,0,0,33.3333,277.121,281.886)">
                        <path d="M0.2,-0.219C0.238,-0.22 0.297,-0.221 0.333,-0.221C0.365,-0.221 0.4,-0.22 0.433,-0.22C0.479,-0.094 0.501,-0.019 0.507,0.003C0.524,-0 0.571,-0 0.588,-0C0.605,-0 0.662,-0 0.679,0.003C0.629,-0.098 0.491,-0.434 0.405,-0.653L0.315,-0.653C0.219,-0.431 0.121,-0.218 0.02,0.003C0.032,-0 0.065,-0 0.076,-0C0.087,-0 0.109,-0 0.121,0.003C0.137,-0.056 0.166,-0.135 0.2,-0.219ZM0.412,-0.275C0.383,-0.275 0.352,-0.274 0.328,-0.274C0.299,-0.274 0.255,-0.275 0.224,-0.276L0.317,-0.494L0.323,-0.494C0.359,-0.412 0.387,-0.339 0.412,-0.275Z" style="fill:rgb(235,235,235);fill-rule:nonzero;stroke:black;stroke-width:0.04px;stroke-linecap:butt;stroke-miterlimit:2;"/>
                    </g>
                    <g transform="matrix(33.3333,0,0,33.3333,300.487,281.886)">
                        <path d="M0.175,-0.645C0.141,-0.645 0.091,-0.648 0.091,-0.648L0.089,-0.645C0.097,-0.588 0.101,-0.52 0.101,-0.445L0.101,-0.2C0.101,-0.125 0.097,-0.054 0.089,-0L0.09,0.003C0.09,0.003 0.14,-0 0.175,-0C0.253,-0 0.287,0.002 0.374,0.002C0.515,0.002 0.709,-0.072 0.709,-0.318C0.709,-0.515 0.548,-0.648 0.356,-0.648C0.285,-0.648 0.246,-0.645 0.175,-0.645ZM0.245,-0.101L0.245,-0.545C0.245,-0.58 0.269,-0.595 0.318,-0.595C0.534,-0.595 0.548,-0.448 0.548,-0.294C0.548,-0.092 0.484,-0.051 0.343,-0.051C0.267,-0.051 0.245,-0.069 0.245,-0.101Z" style="fill:rgb(235,235,235);fill-rule:nonzero;stroke:black;stroke-width:0.04px;stroke-linecap:butt;stroke-miterlimit:2;"/>
                    </g>
                    <g transform="matrix(33.3333,0,0,33.3333,325.854,281.886)">
                        <path d="M0.24,-0.2L0.24,-0.311C0.288,-0.311 0.408,-0.308 0.477,-0.301L0.48,-0.304C0.478,-0.313 0.477,-0.333 0.477,-0.342C0.477,-0.351 0.478,-0.37 0.48,-0.379L0.477,-0.382C0.418,-0.377 0.358,-0.372 0.24,-0.372L0.24,-0.445C0.24,-0.462 0.241,-0.553 0.248,-0.577C0.382,-0.577 0.534,-0.565 0.534,-0.565L0.536,-0.569C0.535,-0.577 0.534,-0.601 0.534,-0.61C0.534,-0.618 0.535,-0.631 0.536,-0.645L0.534,-0.648C0.518,-0.646 0.495,-0.645 0.474,-0.645L0.17,-0.645C0.136,-0.645 0.086,-0.648 0.086,-0.648L0.084,-0.645C0.092,-0.588 0.096,-0.52 0.096,-0.445L0.096,-0.2C0.096,-0.125 0.092,-0.054 0.084,-0L0.085,0.003C0.085,0.003 0.135,-0 0.17,-0L0.484,-0C0.505,-0 0.528,0.001 0.544,0.003L0.546,-0C0.545,-0.013 0.544,-0.026 0.544,-0.036C0.544,-0.046 0.545,-0.083 0.546,-0.091L0.544,-0.095C0.544,-0.095 0.382,-0.073 0.248,-0.073C0.241,-0.097 0.24,-0.183 0.24,-0.2Z" style="fill:rgb(235,235,235);fill-rule:nonzero;stroke:black;stroke-width:0.04px;stroke-linecap:butt;stroke-miterlimit:2;"/>
                    </g>
                    <g transform="matrix(33.3333,0,0,33.3333,345.654,281.886)">
                        <path d="M0.245,-0.296C0.263,-0.296 0.282,-0.296 0.302,-0.297C0.33,-0.262 0.357,-0.215 0.384,-0.176C0.434,-0.104 0.478,-0.031 0.489,0.003C0.508,-0 0.548,-0 0.567,-0C0.587,-0 0.64,-0 0.66,0.003L0.662,-0C0.611,-0.058 0.507,-0.231 0.444,-0.315C0.529,-0.336 0.597,-0.383 0.597,-0.483C0.597,-0.548 0.573,-0.592 0.532,-0.618C0.486,-0.648 0.419,-0.652 0.353,-0.652C0.328,-0.652 0.207,-0.645 0.177,-0.645C0.143,-0.645 0.093,-0.648 0.093,-0.648L0.091,-0.645C0.099,-0.588 0.103,-0.52 0.103,-0.445L0.103,-0.2C0.103,-0.125 0.099,-0.054 0.091,-0L0.092,0.003C0.092,0.003 0.138,-0 0.173,-0C0.207,-0 0.253,0.003 0.253,0.003L0.255,-0C0.247,-0.057 0.245,-0.125 0.245,-0.2L0.245,-0.296ZM0.334,-0.602C0.395,-0.602 0.442,-0.6 0.442,-0.482C0.442,-0.357 0.396,-0.352 0.299,-0.352L0.245,-0.352L0.245,-0.553C0.245,-0.582 0.263,-0.602 0.334,-0.602Z" style="fill:rgb(235,235,235);fill-rule:nonzero;stroke:black;stroke-width:0.04px;stroke-linecap:butt;stroke-miterlimit:2;"/>
                    </g>
                </g>
            </g>
            <g transform="matrix(0.892488,-0.451071,0.0124819,1.11415,203.361,446.518)">
                <g transform="matrix(2.80163,0,0,1.8502,-365.492,-262.258)">
                    <rect x="234.744" y="272.367" width="50.292" height="20.623" style="fill:white;stroke:black;stroke-width:1.22px;"/>
                </g>
                <g transform="matrix(1,0,0,1,61.2921,-10.7853)">
                    <g transform="matrix(33.3333,0,0,33.3333,237.721,281.886)">
                        <path d="M0.222,-0.379L0.26,-0.379C0.284,-0.379 0.319,-0.378 0.332,-0.377C0.334,-0.392 0.338,-0.409 0.344,-0.424L0.339,-0.432C0.32,-0.43 0.292,-0.429 0.269,-0.429L0.222,-0.429L0.222,-0.439C0.222,-0.465 0.215,-0.513 0.215,-0.535C0.215,-0.59 0.245,-0.629 0.299,-0.629C0.328,-0.629 0.355,-0.608 0.363,-0.579L0.393,-0.58C0.396,-0.608 0.407,-0.661 0.416,-0.681L0.415,-0.684C0.407,-0.689 0.371,-0.698 0.34,-0.698C0.264,-0.698 0.204,-0.673 0.162,-0.629C0.118,-0.583 0.093,-0.52 0.093,-0.459L0.093,-0.429C0.073,-0.429 0.051,-0.43 0.039,-0.432C0.034,-0.415 0.027,-0.399 0.017,-0.384L0.022,-0.377C0.039,-0.378 0.07,-0.379 0.093,-0.379L0.093,-0.2C0.093,-0.125 0.093,-0.051 0.086,-0L0.087,0.003C0.087,0.003 0.127,-0 0.162,-0C0.196,-0 0.231,0.003 0.231,0.003L0.233,-0C0.226,-0.058 0.226,-0.125 0.225,-0.2L0.222,-0.379Z" style="fill-rule:nonzero;stroke:black;stroke-width:0.04px;stroke-linecap:butt;stroke-miterlimit:2;"/>
                    </g>
                    <g transform="matrix(33.3333,0,0,33.3333,249.921,281.886)">
                        <path d="M0.041,-0.205C0.041,-0.072 0.134,0.01 0.283,0.01C0.436,0.01 0.525,-0.076 0.525,-0.214C0.525,-0.34 0.454,-0.439 0.285,-0.439C0.142,-0.439 0.041,-0.36 0.041,-0.205ZM0.278,-0.389C0.363,-0.389 0.383,-0.326 0.383,-0.187C0.383,-0.072 0.342,-0.04 0.297,-0.04C0.193,-0.04 0.183,-0.151 0.183,-0.228C0.183,-0.315 0.192,-0.389 0.278,-0.389Z" style="fill-rule:nonzero;stroke:black;stroke-width:0.04px;stroke-linecap:butt;stroke-miterlimit:2;"/>
                    </g>
                    <g transform="matrix(33.3333,0,0,33.3333,268.787,281.886)">
                        <path d="M0.086,-0.2C0.086,-0.125 0.083,-0.054 0.074,-0L0.075,0.003C0.075,0.003 0.117,-0 0.152,-0C0.186,-0 0.228,0.003 0.228,0.003L0.23,-0C0.222,-0.057 0.218,-0.125 0.218,-0.2L0.218,-0.5C0.218,-0.575 0.222,-0.627 0.23,-0.688C0.23,-0.695 0.225,-0.698 0.219,-0.698C0.194,-0.688 0.117,-0.668 0.076,-0.665L0.074,-0.662C0.082,-0.619 0.086,-0.55 0.086,-0.474L0.086,-0.2Z" style="fill-rule:nonzero;stroke:black;stroke-width:0.04px;stroke-linecap:butt;stroke-miterlimit:2;"/>
                    </g>
                    <g transform="matrix(33.3333,0,0,33.3333,278.921,281.886)">
                        <path d="M0.086,-0.2C0.086,-0.125 0.083,-0.054 0.074,-0L0.075,0.003C0.075,0.003 0.117,-0 0.152,-0C0.186,-0 0.228,0.003 0.228,0.003L0.23,-0C0.222,-0.057 0.218,-0.125 0.218,-0.2L0.218,-0.5C0.218,-0.575 0.222,-0.627 0.23,-0.688C0.23,-0.695 0.225,-0.698 0.219,-0.698C0.194,-0.688 0.117,-0.668 0.076,-0.665L0.074,-0.662C0.082,-0.619 0.086,-0.55 0.086,-0.474L0.086,-0.2Z" style="fill-rule:nonzero;stroke:black;stroke-width:0.04px;stroke-linecap:butt;stroke-miterlimit:2;"/>
                    </g>
                    <g transform="matrix(33.3333,0,0,33.3333,289.054,281.886)">
                        <path d="M0.041,-0.205C0.041,-0.072 0.134,0.01 0.283,0.01C0.436,0.01 0.525,-0.076 0.525,-0.214C0.525,-0.34 0.454,-0.439 0.285,-0.439C0.142,-0.439 0.041,-0.36 0.041,-0.205ZM0.278,-0.389C0.363,-0.389 0.383,-0.326 0.383,-0.187C0.383,-0.072 0.342,-0.04 0.297,-0.04C0.193,-0.04 0.183,-0.151 0.183,-0.228C0.183,-0.315 0.192,-0.389 0.278,-0.389Z" style="fill-rule:nonzero;stroke:black;stroke-width:0.04px;stroke-linecap:butt;stroke-miterlimit:2;"/>
                    </g>
                    <g transform="matrix(33.3333,0,0,33.3333,307.687,281.886)">
                        <path d="M0.201,0.004C0.21,0.001 0.245,0.001 0.254,0.001C0.263,0.001 0.292,0.001 0.3,0.004C0.336,-0.078 0.373,-0.16 0.411,-0.243C0.444,-0.161 0.475,-0.079 0.504,0.003C0.513,-0 0.547,-0 0.556,-0C0.565,-0 0.592,-0 0.6,0.003C0.661,-0.139 0.727,-0.289 0.793,-0.432C0.785,-0.429 0.753,-0.429 0.744,-0.429C0.735,-0.429 0.708,-0.429 0.7,-0.432C0.667,-0.327 0.619,-0.204 0.575,-0.11L0.571,-0.11C0.537,-0.217 0.508,-0.321 0.483,-0.432C0.471,-0.43 0.427,-0.429 0.414,-0.429C0.4,-0.429 0.345,-0.43 0.331,-0.432C0.348,-0.394 0.364,-0.357 0.379,-0.319C0.35,-0.241 0.316,-0.161 0.288,-0.1L0.282,-0.1C0.239,-0.211 0.202,-0.32 0.17,-0.431C0.158,-0.428 0.119,-0.428 0.106,-0.428C0.092,-0.428 0.032,-0.428 0.018,-0.431C0.084,-0.283 0.146,-0.142 0.201,0.004Z" style="fill-rule:nonzero;stroke:black;stroke-width:0.04px;stroke-linecap:butt;stroke-miterlimit:2;"/>
                    </g>
                    <g transform="matrix(33.3333,0,0,33.3333,334.454,281.886)">
                        <path d="M0.448,-0.107C0.402,-0.07 0.353,-0.066 0.311,-0.066C0.262,-0.066 0.226,-0.079 0.202,-0.105C0.18,-0.129 0.169,-0.164 0.169,-0.21L0.269,-0.21C0.369,-0.21 0.454,-0.208 0.454,-0.208L0.46,-0.214C0.46,-0.339 0.425,-0.439 0.271,-0.439C0.216,-0.439 0.156,-0.422 0.117,-0.389C0.068,-0.349 0.035,-0.289 0.035,-0.206C0.035,-0.147 0.057,-0.085 0.098,-0.042C0.132,-0.007 0.191,0.01 0.266,0.01C0.338,0.01 0.41,-0.013 0.464,-0.076C0.464,-0.089 0.458,-0.107 0.448,-0.107ZM0.173,-0.255C0.177,-0.304 0.189,-0.339 0.204,-0.359C0.216,-0.376 0.236,-0.389 0.264,-0.389C0.305,-0.389 0.329,-0.343 0.329,-0.255L0.173,-0.255Z" style="fill-rule:nonzero;stroke:black;stroke-width:0.04px;stroke-linecap:butt;stroke-miterlimit:2;"/>
                    </g>
                    <g transform="matrix(33.3333,0,0,33.3333,351.387,281.886)">
                        <path d="M0.225,-0.349L0.221,-0.352C0.221,-0.375 0.22,-0.417 0.218,-0.425C0.217,-0.432 0.215,-0.435 0.209,-0.435C0.18,-0.43 0.115,-0.43 0.08,-0.432L0.078,-0.429C0.086,-0.386 0.089,-0.31 0.089,-0.235L0.089,-0.18C0.089,-0.105 0.087,-0.054 0.079,-0L0.08,0.003C0.08,0.003 0.112,-0 0.147,-0C0.181,-0 0.229,0.003 0.229,0.003L0.231,-0C0.223,-0.057 0.221,-0.104 0.221,-0.18L0.221,-0.253C0.221,-0.33 0.29,-0.342 0.305,-0.342C0.324,-0.342 0.345,-0.337 0.363,-0.323L0.381,-0.325L0.401,-0.428L0.397,-0.432C0.38,-0.437 0.364,-0.439 0.346,-0.439C0.299,-0.439 0.251,-0.388 0.225,-0.349Z" style="fill-rule:nonzero;stroke:black;stroke-width:0.04px;stroke-linecap:butt;stroke-miterlimit:2;"/>
                    </g>
                </g>
            </g>
        </g>
        <g transform="matrix(1,0,0,1,893.938,-0.26156)">
            <g transform="matrix(2.44181,0,0,2.44181,25.0826,-473.848)">
                <g transform="matrix(1,0,0,1,88.8194,-159.708)">
                    <path d="M248.248,488.23L314.596,521.978L314.596,589.475L248.248,623.223L181.9,589.475L181.9,521.978L248.248,488.23Z" style="fill:rgb(235,235,235);fill-opacity:0;stroke:black;stroke-width:0.94px;"/>
                </g>
                <g transform="matrix(1,0,0,1,-17.8244,-141.734)">
                    <path d="M354.9,537.765L355.064,604.967" style="fill:none;stroke:black;stroke-width:0.94px;"/>
                </g>
                <g transform="matrix(1,0,0,1,-42.3704,1.86073)">
                    <path d="M445.602,360.692L379.254,394.441L312.906,360.692" style="fill:rgb(235,235,235);fill-opacity:0;stroke:black;stroke-width:0.94px;"/>
                </g>
            </g>
            <g transform="matrix(0.892488,-0.451071,0.0124819,1.11415,603.97,408.309)">
                <g transform="matrix(2.80163,0,0,1.8502,-365.492,-262.258)">
                    <rect x="234.744" y="272.367" width="50.292" height="20.623" style="fill:white;stroke:black;stroke-width:1.22px;"/>
                </g>
                <g transform="matrix(1,0,0,1,61.2921,-10.7853)">
                    <g transform="matrix(33.3333,0,0,33.3333,237.721,281.886)">
                        <path d="M0.222,-0.379L0.26,-0.379C0.284,-0.379 0.319,-0.378 0.332,-0.377C0.334,-0.392 0.338,-0.409 0.344,-0.424L0.339,-0.432C0.32,-0.43 0.292,-0.429 0.269,-0.429L0.222,-0.429L0.222,-0.439C0.222,-0.465 0.215,-0.513 0.215,-0.535C0.215,-0.59 0.245,-0.629 0.299,-0.629C0.328,-0.629 0.355,-0.608 0.363,-0.579L0.393,-0.58C0.396,-0.608 0.407,-0.661 0.416,-0.681L0.415,-0.684C0.407,-0.689 0.371,-0.698 0.34,-0.698C0.264,-0.698 0.204,-0.673 0.162,-0.629C0.118,-0.583 0.093,-0.52 0.093,-0.459L0.093,-0.429C0.073,-0.429 0.051,-0.43 0.039,-0.432C0.034,-0.415 0.027,-0.399 0.017,-0.384L0.022,-0.377C0.039,-0.378 0.07,-0.379 0.093,-0.379L0.093,-0.2C0.093,-0.125 0.093,-0.051 0.086,-0L0.087,0.003C0.087,0.003 0.127,-0 0.162,-0C0.196,-0 0.231,0.003 0.231,0.003L0.233,-0C0.226,-0.058 0.226,-0.125 0.225,-0.2L0.222,-0.379Z" style="fill-rule:nonzero;stroke:black;stroke-width:0.04px;stroke-linecap:butt;stroke-miterlimit:2;"/>
                    </g>
                    <g transform="matrix(33.3333,0,0,33.3333,249.921,281.886)">
                        <path d="M0.041,-0.205C0.041,-0.072 0.134,0.01 0.283,0.01C0.436,0.01 0.525,-0.076 0.525,-0.214C0.525,-0.34 0.454,-0.439 0.285,-0.439C0.142,-0.439 0.041,-0.36 0.041,-0.205ZM0.278,-0.389C0.363,-0.389 0.383,-0.326 0.383,-0.187C0.383,-0.072 0.342,-0.04 0.297,-0.04C0.193,-0.04 0.183,-0.151 0.183,-0.228C0.183,-0.315 0.192,-0.389 0.278,-0.389Z" style="fill-rule:nonzero;stroke:black;stroke-width:0.04px;stroke-linecap:butt;stroke-miterlimit:2;"/>
                    </g>
                    <g transform="matrix(33.3333,0,0,33.3333,268.787,281.886)">
                        <path d="M0.086,-0.2C0.086,-0.125 0.083,-0.054 0.074,-0L0.075,0.003C0.075,0.003 0.117,-0 0.152,-0C0.186,-0 0.228,0.003 0.228,0.003L0.23,-0C0.222,-0.057 0.218,-0.125 0.218,-0.2L0.218,-0.5C0.218,-0.575 0.222,-0.627 0.23,-0.688C0.23,-0.695 0.225,-0.698 0.219,-0.698C0.194,-0.688 0.117,-0.668 0.076,-0.665L0.074,-0.662C0.082,-0.619 0.086,-0.55 0.086,-0.474L0.086,-0.2Z" style="fill-rule:nonzero;stroke:black;stroke-width:0.04px;stroke-linecap:butt;stroke-miterlimit:2;"/>
                    </g>
                    <g transform="matrix(33.3333,0,0,33.3333,278.921,281.886)">
                        <path d="M0.086,-0.2C0.086,-0.125 0.083,-0.054 0.074,-0L0.075,0.003C0.075,0.003 0.117,-0 0.152,-0C0.186,-0 0.228,0.003 0.228,0.003L0.23,-0C0.222,-0.057 0.218,-0.125 0.218,-0.2L0.218,-0.5C0.218,-0.575 0.222,-0.627 0.23,-0.688C0.23,-0.695 0.225,-0.698 0.219,-0.698C0.194,-0.688 0.117,-0.668 0.076,-0.665L0.074,-0.662C0.082,-0.619 0.086,-0.55 0.086,-0.474L0.086,-0.2Z" style="fill-rule:nonzero;stroke:black;stroke-width:0.04px;stroke-linecap:butt;stroke-miterlimit:2;"/>
                    </g>
                    <g transform="matrix(33.3333,0,0,33.3333,289.054,281.886)">
                        <path d="M0.041,-0.205C0.041,-0.072 0.134,0.01 0.283,0.01C0.436,0.01 0.525,-0.076 0.525,-0.214C0.525,-0.34 0.454,-0.439 0.285,-0.439C0.142,-0.439 0.041,-0.36 0.041,-0.205ZM0.278,-0.389C0.363,-0.389 0.383,-0.326 0.383,-0.187C0.383,-0.072 0.342,-0.04 0.297,-0.04C0.193,-0.04 0.183,-0.151 0.183,-0.228C0.183,-0.315 0.192,-0.389 0.278,-0.389Z" style="fill-rule:nonzero;stroke:black;stroke-width:0.04px;stroke-linecap:butt;stroke-miterlimit:2;"/>
                    </g>
                    <g transform="matrix(33.3333,0,0,33.3333,307.687,281.886)">
                        <path d="M0.201,0.004C0.21,0.001 0.245,0.001 0.254,0.001C0.263,0.001 0.292,0.001 0.3,0.004C0.336,-0.078 0.373,-0.16 0.411,-0.243C0.444,-0.161 0.475,-0.079 0.504,0.003C0.513,-0 0.547,-0 0.556,-0C0.565,-0 0.592,-0 0.6,0.003C0.661,-0.139 0.727,-0.289 0.793,-0.432C0.785,-0.429 0.753,-0.429 0.744,-0.429C0.735,-0.429 0.708,-0.429 0.7,-0.432C0.667,-0.327 0.619,-0.204 0.575,-0.11L0.571,-0.11C0.537,-0.217 0.508,-0.321 0.483,-0.432C0.471,-0.43 0.427,-0.429 0.414,-0.429C0.4,-0.429 0.345,-0.43 0.331,-0.432C0.348,-0.394 0.364,-0.357 0.379,-0.319C0.35,-0.241 0.316,-0.161 0.288,-0.1L0.282,-0.1C0.239,-0.211 0.202,-0.32 0.17,-0.431C0.158,-0.428 0.119,-0.428 0.106,-0.428C0.092,-0.428 0.032,-0.428 0.018,-0.431C0.084,-0.283 0.146,-0.142 0.201,0.004Z" style="fill-rule:nonzero;stroke:black;stroke-width:0.04px;stroke-linecap:butt;stroke-miterlimit:2;"/>
                    </g>
                    <g transform="matrix(33.3333,0,0,33.3333,334.454,281.886)">
                        <path d="M0.448,-0.107C0.402,-0.07 0.353,-0.066 0.311,-0.066C0.262,-0.066 0.226,-0.079 0.202,-0.105C0.18,-0.129 0.169,-0.164 0.169,-0.21L0.269,-0.21C0.369,-0.21 0.454,-0.208 0.454,-0.208L0.46,-0.214C0.46,-0.339 0.425,-0.439 0.271,-0.439C0.216,-0.439 0.156,-0.422 0.117,-0.389C0.068,-0.349 0.035,-0.289 0.035,-0.206C0.035,-0.147 0.057,-0.085 0.098,-0.042C0.132,-0.007 0.191,0.01 0.266,0.01C0.338,0.01 0.41,-0.013 0.464,-0.076C0.464,-0.089 0.458,-0.107 0.448,-0.107ZM0.173,-0.255C0.177,-0.304 0.189,-0.339 0.204,-0.359C0.216,-0.376 0.236,-0.389 0.264,-0.389C0.305,-0.389 0.329,-0.343 0.329,-0.255L0.173,-0.255Z" style="fill-rule:nonzero;stroke:black;stroke-width:0.04px;stroke-linecap:butt;stroke-miterlimit:2;"/>
                    </g>
                    <g transform="matrix(33.3333,0,0,33.3333,351.387,281.886)">
                        <path d="M0.225,-0.349L0.221,-0.352C0.221,-0.375 0.22,-0.417 0.218,-0.425C0.217,-0.432 0.215,-0.435 0.209,-0.435C0.18,-0.43 0.115,-0.43 0.08,-0.432L0.078,-0.429C0.086,-0.386 0.089,-0.31 0.089,-0.235L0.089,-0.18C0.089,-0.105 0.087,-0.054 0.079,-0L0.08,0.003C0.08,0.003 0.112,-0 0.147,-0C0.181,-0 0.229,0.003 0.229,0.003L0.231,-0C0.223,-0.057 0.221,-0.104 0.221,-0.18L0.221,-0.253C0.221,-0.33 0.29,-0.342 0.305,-0.342C0.324,-0.342 0.345,-0.337 0.363,-0.323L0.381,-0.325L0.401,-0.428L0.397,-0.432C0.38,-0.437 0.364,-0.439 0.346,-0.439C0.299,-0.439 0.251,-0.388 0.225,-0.349Z" style="fill-rule:nonzero;stroke:black;stroke-width:0.04px;stroke-linecap:butt;stroke-miterlimit:2;"/>
                    </g>
                </g>
            </g>
        </g>
        <g transform="matrix(1,0,0,1,554.48,-0.61629)">
            <g transform="matrix(2.44181,0,0,2.44181,25.0826,-473.848)">
                <g transform="matrix(1,0,0,1,88.8194,-159.708)">
                    <path d="M248.248,488.23L314.596,521.978L314.596,589.475L248.248,623.223L181.9,589.475L181.9,521.978L248.248,488.23Z" style="fill:rgb(235,235,235);fill-opacity:0;stroke:black;stroke-width:0.94px;"/>
                </g>
                <g transform="matrix(1,0,0,1,-17.8244,-141.734)">
                    <path d="M354.9,537.765L355.064,604.967" style="fill:none;stroke:black;stroke-width:0.94px;"/>
                </g>
                <g transform="matrix(1,0,0,1,-42.3704,1.86073)">
                    <path d="M445.602,360.692L379.254,394.441L312.906,360.692" style="fill:rgb(235,235,235);fill-opacity:0;stroke:black;stroke-width:0.94px;"/>
                </g>
            </g>
            <g transform="matrix(0.892488,-0.451071,0.0124819,1.11415,603.97,408.309)">
                <g transform="matrix(2.80163,0,0,1.8502,-365.492,-262.258)">
                    <rect x="234.744" y="272.367" width="50.292" height="20.623" style="fill:white;stroke:black;stroke-width:1.22px;"/>
                </g>
                <g transform="matrix(1,0,0,1,61.2921,-10.7853)">
                    <g transform="matrix(33.3333,0,0,33.3333,237.721,281.886)">
                        <path d="M0.222,-0.379L0.26,-0.379C0.284,-0.379 0.319,-0.378 0.332,-0.377C0.334,-0.392 0.338,-0.409 0.344,-0.424L0.339,-0.432C0.32,-0.43 0.292,-0.429 0.269,-0.429L0.222,-0.429L0.222,-0.439C0.222,-0.465 0.215,-0.513 0.215,-0.535C0.215,-0.59 0.245,-0.629 0.299,-0.629C0.328,-0.629 0.355,-0.608 0.363,-0.579L0.393,-0.58C0.396,-0.608 0.407,-0.661 0.416,-0.681L0.415,-0.684C0.407,-0.689 0.371,-0.698 0.34,-0.698C0.264,-0.698 0.204,-0.673 0.162,-0.629C0.118,-0.583 0.093,-0.52 0.093,-0.459L0.093,-0.429C0.073,-0.429 0.051,-0.43 0.039,-0.432C0.034,-0.415 0.027,-0.399 0.017,-0.384L0.022,-0.377C0.039,-0.378 0.07,-0.379 0.093,-0.379L0.093,-0.2C0.093,-0.125 0.093,-0.051 0.086,-0L0.087,0.003C0.087,0.003 0.127,-0 0.162,-0C0.196,-0 0.231,0.003 0.231,0.003L0.233,-0C0.226,-0.058 0.226,-0.125 0.225,-0.2L0.222,-0.379Z" style="fill-rule:nonzero;stroke:black;stroke-width:0.04px;stroke-linecap:butt;stroke-miterlimit:2;"/>
                    </g>
                    <g transform="matrix(33.3333,0,0,33.3333,249.921,281.886)">
                        <path d="M0.041,-0.205C0.041,-0.072 0.134,0.01 0.283,0.01C0.436,0.01 0.525,-0.076 0.525,-0.214C0.525,-0.34 0.454,-0.439 0.285,-0.439C0.142,-0.439 0.041,-0.36 0.041,-0.205ZM0.278,-0.389C0.363,-0.389 0.383,-0.326 0.383,-0.187C0.383,-0.072 0.342,-0.04 0.297,-0.04C0.193,-0.04 0.183,-0.151 0.183,-0.228C0.183,-0.315 0.192,-0.389 0.278,-0.389Z" style="fill-rule:nonzero;stroke:black;stroke-width:0.04px;stroke-linecap:butt;stroke-miterlimit:2;"/>
                    </g>
                    <g transform="matrix(33.3333,0,0,33.3333,268.787,281.886)">
                        <path d="M0.086,-0.2C0.086,-0.125 0.083,-0.054 0.074,-0L0.075,0.003C0.075,0.003 0.117,-0 0.152,-0C0.186,-0 0.228,0.003 0.228,0.003L0.23,-0C0.222,-0.057 0.218,-0.125 0.218,-0.2L0.218,-0.5C0.218,-0.575 0.222,-0.627 0.23,-0.688C0.23,-0.695 0.225,-0.698 0.219,-0.698C0.194,-0.688 0.117,-0.668 0.076,-0.665L0.074,-0.662C0.082,-0.619 0.086,-0.55 0.086,-0.474L0.086,-0.2Z" style="fill-rule:nonzero;stroke:black;stroke-width:0.04px;stroke-linecap:butt;stroke-miterlimit:2;"/>
                    </g>
                    <g transform="matrix(33.3333,0,0,33.3333,278.921,281.886)">
                        <path d="M0.086,-0.2C0.086,-0.125 0.083,-0.054 0.074,-0L0.075,0.003C0.075,0.003 0.117,-0 0.152,-0C0.186,-0 0.228,0.003 0.228,0.003L0.23,-0C0.222,-0.057 0.218,-0.125 0.218,-0.2L0.218,-0.5C0.218,-0.575 0.222,-0.627 0.23,-0.688C0.23,-0.695 0.225,-0.698 0.219,-0.698C0.194,-0.688 0.117,-0.668 0.076,-0.665L0.074,-0.662C0.082,-0.619 0.086,-0.55 0.086,-0.474L0.086,-0.2Z" style="fill-rule:nonzero;stroke:black;stroke-width:0.04px;stroke-linecap:butt;stroke-miterlimit:2;"/>
                    </g>
                    <g transform="matrix(33.3333,0,0,33.3333,289.054,281.886)">
                        <path d="M0.041,-0.205C0.041,-0.072 0.134,0.01 0.283,0.01C0.436,0.01 0.525,-0.076 0.525,-0.214C0.525,-0.34 0.454,-0.439 0.285,-0.439C0.142,-0.439 0.041,-0.36 0.041,-0.205ZM0.278,-0.389C0.363,-0.389 0.383,-0.326 0.383,-0.187C0.383,-0.072 0.342,-0.04 0.297,-0.04C0.193,-0.04 0.183,-0.151 0.183,-0.228C0.183,-0.315 0.192,-0.389 0.278,-0.389Z" style="fill-rule:nonzero;stroke:black;stroke-width:0.04px;stroke-linecap:butt;stroke-miterlimit:2;"/>
                    </g>
                    <g transform="matrix(33.3333,0,0,33.3333,307.687,281.886)">
                        <path d="M0.201,0.004C0.21,0.001 0.245,0.001 0.254,0.001C0.263,0.001 0.292,0.001 0.3,0.004C0.336,-0.078 0.373,-0.16 0.411,-0.243C0.444,-0.161 0.475,-0.079 0.504,0.003C0.513,-0 0.547,-0 0.556,-0C0.565,-0 0.592,-0 0.6,0.003C0.661,-0.139 0.727,-0.289 0.793,-0.432C0.785,-0.429 0.753,-0.429 0.744,-0.429C0.735,-0.429 0.708,-0.429 0.7,-0.432C0.667,-0.327 0.619,-0.204 0.575,-0.11L0.571,-0.11C0.537,-0.217 0.508,-0.321 0.483,-0.432C0.471,-0.43 0.427,-0.429 0.414,-0.429C0.4,-0.429 0.345,-0.43 0.331,-0.432C0.348,-0.394 0.364,-0.357 0.379,-0.319C0.35,-0.241 0.316,-0.161 0.288,-0.1L0.282,-0.1C0.239,-0.211 0.202,-0.32 0.17,-0.431C0.158,-0.428 0.119,-0.428 0.106,-0.428C0.092,-0.428 0.032,-0.428 0.018,-0.431C0.084,-0.283 0.146,-0.142 0.201,0.004Z" style="fill-rule:nonzero;stroke:black;stroke-width:0.04px;stroke-linecap:butt;stroke-miterlimit:2;"/>
                    </g>
                    <g transform="matrix(33.3333,0,0,33.3333,334.454,281.886)">
                        <path d="M0.448,-0.107C0.402,-0.07 0.353,-0.066 0.311,-0.066C0.262,-0.066 0.226,-0.079 0.202,-0.105C0.18,-0.129 0.169,-0.164 0.169,-0.21L0.269,-0.21C0.369,-0.21 0.454,-0.208 0.454,-0.208L0.46,-0.214C0.46,-0.339 0.425,-0.439 0.271,-0.439C0.216,-0.439 0.156,-0.422 0.117,-0.389C0.068,-0.349 0.035,-0.289 0.035,-0.206C0.035,-0.147 0.057,-0.085 0.098,-0.042C0.132,-0.007 0.191,0.01 0.266,0.01C0.338,0.01 0.41,-0.013 0.464,-0.076C0.464,-0.089 0.458,-0.107 0.448,-0.107ZM0.173,-0.255C0.177,-0.304 0.189,-0.339 0.204,-0.359C0.216,-0.376 0.236,-0.389 0.264,-0.389C0.305,-0.389 0.329,-0.343 0.329,-0.255L0.173,-0.255Z" style="fill-rule:nonzero;stroke:black;stroke-width:0.04px;stroke-linecap:butt;stroke-miterlimit:2;"/>
                    </g>
                    <g transform="matrix(33.3333,0,0,33.3333,351.387,281.886)">
                        <path d="M0.225,-0.349L0.221,-0.352C0.221,-0.375 0.22,-0.417 0.218,-0.425C0.217,-0.432 0.215,-0.435 0.209,-0.435C0.18,-0.43 0.115,-0.43 0.08,-0.432L0.078,-0.429C0.086,-0.386 0.089,-0.31 0.089,-0.235L0.089,-0.18C0.089,-0.105 0.087,-0.054 0.079,-0L0.08,0.003C0.08,0.003 0.112,-0 0.147,-0C0.181,-0 0.229,0.003 0.229,0.003L0.231,-0C0.223,-0.057 0.221,-0.104 0.221,-0.18L0.221,-0.253C0.221,-0.33 0.29,-0.342 0.305,-0.342C0.324,-0.342 0.345,-0.337 0.363,-0.323L0.381,-0.325L0.401,-0.428L0.397,-0.432C0.38,-0.437 0.364,-0.439 0.346,-0.439C0.299,-0.439 0.251,-0.388 0.225,-0.349Z" style="fill-rule:nonzero;stroke:black;stroke-width:0.04px;stroke-linecap:butt;stroke-miterlimit:2;"/>
                    </g>
                </g>
            </g>
        </g>
        <g transform="matrix(1,0,0,1,954.308,-61.2724)">
            <g transform="matrix(2.44181,0,0,2.44181,-374.746,-74.0195)">
                <g transform="matrix(1,0,0,1,88.8194,-159.708)">
                    <path d="M248.248,488.23L314.596,521.978L314.596,589.475L248.248,623.223L181.9,589.475L181.9,521.978L248.248,488.23Z" style="fill:rgb(235,235,235);fill-opacity:0;stroke:black;stroke-width:0.94px;"/>
                </g>
                <g transform="matrix(1,0,0,1,-17.8244,-141.734)">
                    <path d="M354.9,537.765L355.064,604.967" style="fill:none;stroke:black;stroke-width:0.94px;"/>
                </g>
                <g transform="matrix(1,0,0,1,-42.3704,1.86073)">
                    <path d="M445.602,360.692L379.254,394.441L312.906,360.692" style="fill:rgb(235,235,235);fill-opacity:0;stroke:black;stroke-width:0.94px;"/>
                </g>
            </g>
            <g transform="matrix(0.892488,-0.451071,0.0124819,1.11415,204.141,808.138)">
                <g transform="matrix(2.80163,0,0,1.8502,-365.492,-262.258)">
                    <rect x="234.744" y="272.367" width="50.292" height="20.623" style="fill:white;stroke:black;stroke-width:1.22px;"/>
                </g>
                <g transform="matrix(1,0,0,1,61.2921,-10.7853)">
                    <g transform="matrix(33.3333,0,0,33.3333,237.721,281.886)">
                        <path d="M0.222,-0.379L0.26,-0.379C0.284,-0.379 0.319,-0.378 0.332,-0.377C0.334,-0.392 0.338,-0.409 0.344,-0.424L0.339,-0.432C0.32,-0.43 0.292,-0.429 0.269,-0.429L0.222,-0.429L0.222,-0.439C0.222,-0.465 0.215,-0.513 0.215,-0.535C0.215,-0.59 0.245,-0.629 0.299,-0.629C0.328,-0.629 0.355,-0.608 0.363,-0.579L0.393,-0.58C0.396,-0.608 0.407,-0.661 0.416,-0.681L0.415,-0.684C0.407,-0.689 0.371,-0.698 0.34,-0.698C0.264,-0.698 0.204,-0.673 0.162,-0.629C0.118,-0.583 0.093,-0.52 0.093,-0.459L0.093,-0.429C0.073,-0.429 0.051,-0.43 0.039,-0.432C0.034,-0.415 0.027,-0.399 0.017,-0.384L0.022,-0.377C0.039,-0.378 0.07,-0.379 0.093,-0.379L0.093,-0.2C0.093,-0.125 0.093,-0.051 0.086,-0L0.087,0.003C0.087,0.003 0.127,-0 0.162,-0C0.196,-0 0.231,0.003 0.231,0.003L0.233,-0C0.226,-0.058 0.226,-0.125 0.225,-0.2L0.222,-0.379Z" style="fill-rule:nonzero;stroke:black;stroke-width:0.04px;stroke-linecap:butt;stroke-miterlimit:2;"/>
                    </g>
                    <g transform="matrix(33.3333,0,0,33.3333,249.921,281.886)">
                        <path d="M0.041,-0.205C0.041,-0.072 0.134,0.01 0.283,0.01C0.436,0.01 0.525,-0.076 0.525,-0.214C0.525,-0.34 0.454,-0.439 0.285,-0.439C0.142,-0.439 0.041,-0.36 0.041,-0.205ZM0.278,-0.389C0.363,-0.389 0.383,-0.326 0.383,-0.187C0.383,-0.072 0.342,-0.04 0.297,-0.04C0.193,-0.04 0.183,-0.151 0.183,-0.228C0.183,-0.315 0.192,-0.389 0.278,-0.389Z" style="fill-rule:nonzero;stroke:black;stroke-width:0.04px;stroke-linecap:butt;stroke-miterlimit:2;"/>
                    </g>
                    <g transform="matrix(33.3333,0,0,33.3333,268.787,281.886)">
                        <path d="M0.086,-0.2C0.086,-0.125 0.083,-0.054 0.074,-0L0.075,0.003C0.075,0.003 0.117,-0 0.152,-0C0.186,-0 0.228,0.003 0.228,0.003L0.23,-0C0.222,-0.057 0.218,-0.125 0.218,-0.2L0.218,-0.5C0.218,-0.575 0.222,-0.627 0.23,-0.688C0.23,-0.695 0.225,-0.698 0.219,-0.698C0.194,-0.688 0.117,-0.668 0.076,-0.665L0.074,-0.662C0.082,-0.619 0.086,-0.55 0.086,-0.474L0.086,-0.2Z" style="fill-rule:nonzero;stroke:black;stroke-width:0.04px;stroke-linecap:butt;stroke-miterlimit:2;"/>
                    </g>
                    <g transform="matrix(33.3333,0,0,33.3333,278.921,281.886)">
                        <path d="M0.086,-0.2C0.086,-0.125 0.083,-0.054 0.074,-0L0.075,0.003C0.075,0.003 0.117,-0 0.152,-0C0.186,-0 0.228,0.003 0.228,0.003L0.23,-0C0.222,-0.057 0.218,-0.125 0.218,-0.2L0.218,-0.5C0.218,-0.575 0.222,-0.627 0.23,-0.688C0.23,-0.695 0.225,-0.698 0.219,-0.698C0.194,-0.688 0.117,-0.668 0.076,-0.665L0.074,-0.662C0.082,-0.619 0.086,-0.55 0.086,-0.474L0.086,-0.2Z" style="fill-rule:nonzero;stroke:black;stroke-width:0.04px;stroke-linecap:butt;stroke-miterlimit:2;"/>
                    </g>
                    <g transform="matrix(33.3333,0,0,33.3333,289.054,281.886)">
                        <path d="M0.041,-0.205C0.041,-0.072 0.134,0.01 0.283,0.01C0.436,0.01 0.525,-0.076 0.525,-0.214C0.525,-0.34 0.454,-0.439 0.285,-0.439C0.142,-0.439 0.041,-0.36 0.041,-0.205ZM0.278,-0.389C0.363,-0.389 0.383,-0.326 0.383,-0.187C0.383,-0.072 0.342,-0.04 0.297,-0.04C0.193,-0.04 0.183,-0.151 0.183,-0.228C0.183,-0.315 0.192,-0.389 0.278,-0.389Z" style="fill-rule:nonzero;stroke:black;stroke-width:0.04px;stroke-linecap:butt;stroke-miterlimit:2;"/>
                    </g>
                    <g transform="matrix(33.3333,0,0,33.3333,307.687,281.886)">
                        <path d="M0.201,0.004C0.21,0.001 0.245,0.001 0.254,0.001C0.263,0.001 0.292,0.001 0.3,0.004C0.336,-0.078 0.373,-0.16 0.411,-0.243C0.444,-0.161 0.475,-0.079 0.504,0.003C0.513,-0 0.547,-0 0.556,-0C0.565,-0 0.592,-0 0.6,0.003C0.661,-0.139 0.727,-0.289 0.793,-0.432C0.785,-0.429 0.753,-0.429 0.744,-0.429C0.735,-0.429 0.708,-0.429 0.7,-0.432C0.667,-0.327 0.619,-0.204 0.575,-0.11L0.571,-0.11C0.537,-0.217 0.508,-0.321 0.483,-0.432C0.471,-0.43 0.427,-0.429 0.414,-0.429C0.4,-0.429 0.345,-0.43 0.331,-0.432C0.348,-0.394 0.364,-0.357 0.379,-0.319C0.35,-0.241 0.316,-0.161 0.288,-0.1L0.282,-0.1C0.239,-0.211 0.202,-0.32 0.17,-0.431C0.158,-0.428 0.119,-0.428 0.106,-0.428C0.092,-0.428 0.032,-0.428 0.018,-0.431C0.084,-0.283 0.146,-0.142 0.201,0.004Z" style="fill-rule:nonzero;stroke:black;stroke-width:0.04px;stroke-linecap:butt;stroke-miterlimit:2;"/>
                    </g>
                    <g transform="matrix(33.3333,0,0,33.3333,334.454,281.886)">
                        <path d="M0.448,-0.107C0.402,-0.07 0.353,-0.066 0.311,-0.066C0.262,-0.066 0.226,-0.079 0.202,-0.105C0.18,-0.129 0.169,-0.164 0.169,-0.21L0.269,-0.21C0.369,-0.21 0.454,-0.208 0.454,-0.208L0.46,-0.214C0.46,-0.339 0.425,-0.439 0.271,-0.439C0.216,-0.439 0.156,-0.422 0.117,-0.389C0.068,-0.349 0.035,-0.289 0.035,-0.206C0.035,-0.147 0.057,-0.085 0.098,-0.042C0.132,-0.007 0.191,0.01 0.266,0.01C0.338,0.01 0.41,-0.013 0.464,-0.076C0.464,-0.089 0.458,-0.107 0.448,-0.107ZM0.173,-0.255C0.177,-0.304 0.189,-0.339 0.204,-0.359C0.216,-0.376 0.236,-0.389 0.264,-0.389C0.305,-0.389 0.329,-0.343 0.329,-0.255L0.173,-0.255Z" style="fill-rule:nonzero;stroke:black;stroke-width:0.04px;stroke-linecap:butt;stroke-miterlimit:2;"/>
                    </g>
                    <g transform="matrix(33.3333,0,0,33.3333,351.387,281.886)">
                        <path d="M0.225,-0.349L0.221,-0.352C0.221,-0.375 0.22,-0.417 0.218,-0.425C0.217,-0.432 0.215,-0.435 0.209,-0.435C0.18,-0.43 0.115,-0.43 0.08,-0.432L0.078,-0.429C0.086,-0.386 0.089,-0.31 0.089,-0.235L0.089,-0.18C0.089,-0.105 0.087,-0.054 0.079,-0L0.08,0.003C0.08,0.003 0.112,-0 0.147,-0C0.181,-0 0.229,0.003 0.229,0.003L0.231,-0C0.223,-0.057 0.221,-0.104 0.221,-0.18L0.221,-0.253C0.221,-0.33 0.29,-0.342 0.305,-0.342C0.324,-0.342 0.345,-0.337 0.363,-0.323L0.381,-0.325L0.401,-0.428L0.397,-0.432C0.38,-0.437 0.364,-0.439 0.346,-0.439C0.299,-0.439 0.251,-0.388 0.225,-0.349Z" style="fill-rule:nonzero;stroke:black;stroke-width:0.04px;stroke-linecap:butt;stroke-miterlimit:2;"/>
                    </g>
                </g>
            </g>
        </g>
        <g transform="matrix(1,0,0,1,-19.1723,-49.7432)">
            <g transform="matrix(67.4345,0,0,67.4345,516.949,1109.48)">
                <path d="M0.19,-0.2L0.19,-0.317C0.238,-0.317 0.344,-0.314 0.413,-0.307L0.416,-0.31C0.414,-0.319 0.413,-0.333 0.413,-0.342C0.413,-0.351 0.414,-0.365 0.416,-0.374L0.413,-0.377C0.354,-0.372 0.308,-0.367 0.19,-0.367L0.19,-0.445C0.19,-0.462 0.191,-0.565 0.198,-0.589C0.332,-0.589 0.47,-0.577 0.47,-0.577L0.472,-0.581C0.471,-0.589 0.47,-0.598 0.47,-0.607C0.47,-0.615 0.471,-0.631 0.472,-0.645L0.47,-0.648C0.454,-0.646 0.431,-0.645 0.41,-0.645L0.147,-0.645C0.113,-0.645 0.096,-0.648 0.096,-0.648L0.094,-0.645C0.102,-0.588 0.104,-0.52 0.104,-0.445L0.104,-0.2C0.104,-0.125 0.102,-0.054 0.094,-0L0.095,0.003C0.095,0.003 0.112,-0 0.147,-0L0.42,-0C0.441,-0 0.464,0.001 0.48,0.003L0.482,-0C0.481,-0.014 0.48,-0.021 0.48,-0.031C0.48,-0.041 0.481,-0.056 0.482,-0.064L0.48,-0.068C0.48,-0.068 0.332,-0.056 0.198,-0.056C0.191,-0.08 0.19,-0.183 0.19,-0.2Z" style="fill-rule:nonzero;stroke:black;stroke-width:0.01px;stroke-linecap:butt;stroke-miterlimit:2;"/>
            </g>
            <g transform="matrix(67.4345,0,0,67.4345,553.229,1109.48)">
                <path d="M0.162,-0.352L0.162,-0.425C0.162,-0.433 0.161,-0.435 0.156,-0.435C0.134,-0.431 0.098,-0.43 0.075,-0.432L0.073,-0.429C0.08,-0.386 0.082,-0.31 0.082,-0.235L0.082,0.032C0.082,0.106 0.08,0.178 0.073,0.232L0.075,0.235C0.087,0.233 0.11,0.232 0.122,0.232C0.134,0.232 0.157,0.233 0.169,0.235L0.171,0.232C0.164,0.175 0.162,0.107 0.162,0.032L0.162,-0.012C0.188,0.002 0.225,0.01 0.261,0.01C0.393,0.01 0.473,-0.09 0.473,-0.231C0.473,-0.337 0.411,-0.439 0.299,-0.439C0.26,-0.439 0.21,-0.419 0.164,-0.349L0.162,-0.352ZM0.162,-0.294C0.184,-0.347 0.243,-0.393 0.282,-0.393C0.35,-0.393 0.385,-0.331 0.385,-0.218C0.385,-0.136 0.362,-0.03 0.255,-0.03C0.239,-0.03 0.197,-0.034 0.162,-0.075L0.162,-0.294Z" style="fill-rule:nonzero;stroke:black;stroke-width:0.01px;stroke-linecap:butt;stroke-miterlimit:2;"/>
            </g>
            <g transform="matrix(67.4345,0,0,67.4345,588.969,1109.48)">
                <path d="M0.038,-0.205C0.038,-0.085 0.117,0.01 0.25,0.01C0.382,0.01 0.462,-0.083 0.462,-0.214C0.462,-0.35 0.389,-0.439 0.254,-0.439C0.123,-0.439 0.038,-0.347 0.038,-0.205ZM0.247,-0.399C0.353,-0.399 0.374,-0.317 0.374,-0.196C0.374,-0.101 0.326,-0.03 0.259,-0.03C0.153,-0.03 0.126,-0.145 0.126,-0.222C0.126,-0.309 0.153,-0.399 0.247,-0.399Z" style="fill-rule:nonzero;stroke:black;stroke-width:0.01px;stroke-linecap:butt;stroke-miterlimit:2;"/>
            </g>
            <g transform="matrix(67.4345,0,0,67.4345,623.158,1109.48)">
                <path d="M0.25,-0.399C0.289,-0.399 0.324,-0.371 0.35,-0.325L0.363,-0.326L0.386,-0.408L0.384,-0.411C0.353,-0.427 0.301,-0.439 0.251,-0.439C0.147,-0.439 0.038,-0.354 0.038,-0.218C0.038,-0.079 0.117,0.01 0.239,0.01C0.299,0.01 0.346,-0.01 0.386,-0.061L0.367,-0.082L0.363,-0.082C0.325,-0.048 0.293,-0.04 0.256,-0.04C0.183,-0.04 0.126,-0.106 0.126,-0.223C0.126,-0.333 0.184,-0.399 0.25,-0.399Z" style="fill-rule:nonzero;stroke:black;stroke-width:0.01px;stroke-linecap:butt;stroke-miterlimit:2;"/>
            </g>
            <g transform="matrix(67.4345,0,0,67.4345,652.087,1109.48)">
                <path d="M0.17,-0.352L0.17,-0.501C0.17,-0.575 0.174,-0.627 0.179,-0.688C0.179,-0.695 0.176,-0.698 0.17,-0.698C0.145,-0.688 0.124,-0.681 0.083,-0.678L0.081,-0.675C0.089,-0.632 0.09,-0.557 0.09,-0.481L0.09,-0.18C0.09,-0.106 0.089,-0.056 0.081,-0L0.083,0.003C0.095,0.001 0.118,-0 0.13,-0C0.142,-0 0.165,0.001 0.177,0.003L0.179,-0C0.172,-0.057 0.17,-0.104 0.17,-0.18L0.17,-0.297C0.221,-0.357 0.28,-0.379 0.315,-0.379C0.366,-0.379 0.387,-0.359 0.387,-0.278L0.387,-0.18C0.387,-0.105 0.386,-0.054 0.378,-0L0.38,0.003C0.392,0.001 0.415,-0 0.427,-0C0.439,-0 0.462,0.001 0.474,0.003L0.476,-0C0.468,-0.057 0.467,-0.104 0.467,-0.18C0.467,-0.212 0.469,-0.249 0.469,-0.281C0.469,-0.385 0.435,-0.439 0.345,-0.439C0.307,-0.439 0.236,-0.424 0.172,-0.349L0.17,-0.352Z" style="fill-rule:nonzero;stroke:black;stroke-width:0.01px;stroke-linecap:butt;stroke-miterlimit:2;"/>
            </g>
            <g transform="matrix(67.4345,0,0,67.4345,705.968,1109.48)">
                <path d="M0.286,-0.189L0.286,-0.443C0.286,-0.551 0.292,-0.591 0.294,-0.605C0.294,-0.61 0.291,-0.61 0.287,-0.61C0.222,-0.589 0.146,-0.55 0.068,-0.526L0.074,-0.497C0.119,-0.502 0.168,-0.513 0.188,-0.513C0.206,-0.513 0.206,-0.473 0.206,-0.437L0.206,-0.189C0.206,-0.111 0.205,-0.057 0.198,-0L0.199,0.003C0.199,0.003 0.227,-0 0.245,-0C0.265,-0 0.293,0.003 0.293,0.003L0.295,-0C0.288,-0.06 0.286,-0.11 0.286,-0.189Z" style="fill-rule:nonzero;stroke:black;stroke-width:0.01px;stroke-linecap:butt;stroke-miterlimit:2;"/>
            </g>
        </g>
        <g transform="matrix(1,0,0,1,950.883,-49.7432)">
            <g transform="matrix(67.4345,0,0,67.4345,516.949,1109.48)">
                <path d="M0.19,-0.2L0.19,-0.317C0.238,-0.317 0.344,-0.314 0.413,-0.307L0.416,-0.31C0.414,-0.319 0.413,-0.333 0.413,-0.342C0.413,-0.351 0.414,-0.365 0.416,-0.374L0.413,-0.377C0.354,-0.372 0.308,-0.367 0.19,-0.367L0.19,-0.445C0.19,-0.462 0.191,-0.565 0.198,-0.589C0.332,-0.589 0.47,-0.577 0.47,-0.577L0.472,-0.581C0.471,-0.589 0.47,-0.598 0.47,-0.607C0.47,-0.615 0.471,-0.631 0.472,-0.645L0.47,-0.648C0.454,-0.646 0.431,-0.645 0.41,-0.645L0.147,-0.645C0.113,-0.645 0.096,-0.648 0.096,-0.648L0.094,-0.645C0.102,-0.588 0.104,-0.52 0.104,-0.445L0.104,-0.2C0.104,-0.125 0.102,-0.054 0.094,-0L0.095,0.003C0.095,0.003 0.112,-0 0.147,-0L0.42,-0C0.441,-0 0.464,0.001 0.48,0.003L0.482,-0C0.481,-0.014 0.48,-0.021 0.48,-0.031C0.48,-0.041 0.481,-0.056 0.482,-0.064L0.48,-0.068C0.48,-0.068 0.332,-0.056 0.198,-0.056C0.191,-0.08 0.19,-0.183 0.19,-0.2Z" style="fill-rule:nonzero;stroke:black;stroke-width:0.01px;stroke-linecap:butt;stroke-miterlimit:2;"/>
            </g>
            <g transform="matrix(67.4345,0,0,67.4345,553.229,1109.48)">
                <path d="M0.162,-0.352L0.162,-0.425C0.162,-0.433 0.161,-0.435 0.156,-0.435C0.134,-0.431 0.098,-0.43 0.075,-0.432L0.073,-0.429C0.08,-0.386 0.082,-0.31 0.082,-0.235L0.082,0.032C0.082,0.106 0.08,0.178 0.073,0.232L0.075,0.235C0.087,0.233 0.11,0.232 0.122,0.232C0.134,0.232 0.157,0.233 0.169,0.235L0.171,0.232C0.164,0.175 0.162,0.107 0.162,0.032L0.162,-0.012C0.188,0.002 0.225,0.01 0.261,0.01C0.393,0.01 0.473,-0.09 0.473,-0.231C0.473,-0.337 0.411,-0.439 0.299,-0.439C0.26,-0.439 0.21,-0.419 0.164,-0.349L0.162,-0.352ZM0.162,-0.294C0.184,-0.347 0.243,-0.393 0.282,-0.393C0.35,-0.393 0.385,-0.331 0.385,-0.218C0.385,-0.136 0.362,-0.03 0.255,-0.03C0.239,-0.03 0.197,-0.034 0.162,-0.075L0.162,-0.294Z" style="fill-rule:nonzero;stroke:black;stroke-width:0.01px;stroke-linecap:butt;stroke-miterlimit:2;"/>
            </g>
            <g transform="matrix(67.4345,0,0,67.4345,588.969,1109.48)">
                <path d="M0.038,-0.205C0.038,-0.085 0.117,0.01 0.25,0.01C0.382,0.01 0.462,-0.083 0.462,-0.214C0.462,-0.35 0.389,-0.439 0.254,-0.439C0.123,-0.439 0.038,-0.347 0.038,-0.205ZM0.247,-0.399C0.353,-0.399 0.374,-0.317 0.374,-0.196C0.374,-0.101 0.326,-0.03 0.259,-0.03C0.153,-0.03 0.126,-0.145 0.126,-0.222C0.126,-0.309 0.153,-0.399 0.247,-0.399Z" style="fill-rule:nonzero;stroke:black;stroke-width:0.01px;stroke-linecap:butt;stroke-miterlimit:2;"/>
            </g>
            <g transform="matrix(67.4345,0,0,67.4345,623.158,1109.48)">
                <path d="M0.25,-0.399C0.289,-0.399 0.324,-0.371 0.35,-0.325L0.363,-0.326L0.386,-0.408L0.384,-0.411C0.353,-0.427 0.301,-0.439 0.251,-0.439C0.147,-0.439 0.038,-0.354 0.038,-0.218C0.038,-0.079 0.117,0.01 0.239,0.01C0.299,0.01 0.346,-0.01 0.386,-0.061L0.367,-0.082L0.363,-0.082C0.325,-0.048 0.293,-0.04 0.256,-0.04C0.183,-0.04 0.126,-0.106 0.126,-0.223C0.126,-0.333 0.184,-0.399 0.25,-0.399Z" style="fill-rule:nonzero;stroke:black;stroke-width:0.01px;stroke-linecap:butt;stroke-miterlimit:2;"/>
            </g>
            <g transform="matrix(67.4345,0,0,67.4345,652.087,1109.48)">
                <path d="M0.17,-0.352L0.17,-0.501C0.17,-0.575 0.174,-0.627 0.179,-0.688C0.179,-0.695 0.176,-0.698 0.17,-0.698C0.145,-0.688 0.124,-0.681 0.083,-0.678L0.081,-0.675C0.089,-0.632 0.09,-0.557 0.09,-0.481L0.09,-0.18C0.09,-0.106 0.089,-0.056 0.081,-0L0.083,0.003C0.095,0.001 0.118,-0 0.13,-0C0.142,-0 0.165,0.001 0.177,0.003L0.179,-0C0.172,-0.057 0.17,-0.104 0.17,-0.18L0.17,-0.297C0.221,-0.357 0.28,-0.379 0.315,-0.379C0.366,-0.379 0.387,-0.359 0.387,-0.278L0.387,-0.18C0.387,-0.105 0.386,-0.054 0.378,-0L0.38,0.003C0.392,0.001 0.415,-0 0.427,-0C0.439,-0 0.462,0.001 0.474,0.003L0.476,-0C0.468,-0.057 0.467,-0.104 0.467,-0.18C0.467,-0.212 0.469,-0.249 0.469,-0.281C0.469,-0.385 0.435,-0.439 0.345,-0.439C0.307,-0.439 0.236,-0.424 0.172,-0.349L0.17,-0.352Z" style="fill-rule:nonzero;stroke:black;stroke-width:0.01px;stroke-linecap:butt;stroke-miterlimit:2;"/>
            </g>
            <g transform="matrix(67.4345,0,0,67.4345,705.968,1109.48)">
                <path d="M0.222,-0.553C0.274,-0.553 0.328,-0.505 0.328,-0.435C0.328,-0.393 0.316,-0.34 0.29,-0.301C0.218,-0.194 0.104,-0.094 0.054,-0.047C0.053,-0.043 0.053,-0.039 0.053,-0.034C0.053,-0.019 0.058,-0.004 0.063,0.005C0.137,0.003 0.179,-0 0.252,-0C0.324,-0 0.354,0.002 0.426,0.005C0.424,-0.005 0.423,-0.017 0.423,-0.028C0.423,-0.044 0.424,-0.06 0.428,-0.075C0.371,-0.07 0.341,-0.067 0.245,-0.067C0.21,-0.067 0.19,-0.067 0.163,-0.065C0.162,-0.067 0.162,-0.068 0.162,-0.07C0.162,-0.079 0.172,-0.09 0.179,-0.097C0.228,-0.144 0.275,-0.189 0.341,-0.278C0.378,-0.328 0.414,-0.392 0.414,-0.449C0.414,-0.544 0.35,-0.61 0.238,-0.61C0.147,-0.61 0.089,-0.559 0.066,-0.529L0.088,-0.46L0.101,-0.459C0.115,-0.489 0.12,-0.51 0.145,-0.53C0.165,-0.546 0.194,-0.553 0.222,-0.553Z" style="fill-rule:nonzero;stroke:black;stroke-width:0.01px;stroke-linecap:butt;stroke-miterlimit:2;"/>
            </g>
        </g>
    </g>
</svg>
