<?xml version="1.0" encoding="UTF-8" standalone="no"?>
<!DOCTYPE svg PUBLIC "-//W3C//DTD SVG 1.1//EN" "http://www.w3.org/Graphics/SVG/1.1/DTD/svg11.dtd">
<svg width="100%" height="100%" viewBox="0 0 862 649" version="1.1" xmlns="http://www.w3.org/2000/svg" xmlns:xlink="http://www.w3.org/1999/xlink" xml:space="preserve" xmlns:serif="http://www.serif.com/" style="fill-rule:evenodd;clip-rule:evenodd;stroke-linecap:round;stroke-linejoin:round;stroke-miterlimit:1.5;">
    <g transform="matrix(1,0,0,1,1.14583,-1526.33)">
        <g transform="matrix(1,0,0,1,-285.459,1199.08)">
            <g transform="matrix(2.44181,0,0,2.44181,-375.136,-473.757)">
                <g transform="matrix(1,0,0,1,88.8194,-159.708)">
                    <path d="M248.248,488.23L314.596,521.978L314.596,589.475L248.248,623.223L181.9,589.475L181.9,521.978L248.248,488.23Z" style="fill:rgb(235,235,235);fill-opacity:0;stroke:black;stroke-width:0.94px;"/>
                </g>
                <g transform="matrix(1,0,0,1,-17.8244,-141.734)">
                    <path d="M354.9,537.765L355.064,604.967" style="fill:none;stroke:black;stroke-width:0.94px;"/>
                </g>
                <g transform="matrix(1,0,0,1,-42.3704,1.86073)">
                    <path d="M445.602,360.692L379.254,394.441L312.906,360.692" style="fill:rgb(235,235,235);fill-opacity:0;stroke:black;stroke-width:0.94px;"/>
                </g>
            </g>
            <g transform="matrix(0.892488,-0.451071,0.0124819,1.11415,203.361,405.805)">
                <g transform="matrix(2.80163,0,0,1.8502,-365.492,-262.258)">
                    <rect x="234.744" y="272.367" width="50.292" height="20.623" style="stroke:black;stroke-width:1.22px;"/>
                </g>
                <g transform="matrix(1,0,0,1,58.3696,-10.9025)">
                    <g transform="matrix(33.3333,0,0,33.3333,237.721,281.886)">
                        <path d="M0.247,-0.21L0.247,-0.445C0.247,-0.52 0.249,-0.592 0.257,-0.645L0.256,-0.648C0.256,-0.648 0.208,-0.645 0.173,-0.645C0.139,-0.645 0.094,-0.648 0.094,-0.648L0.092,-0.645C0.1,-0.588 0.103,-0.52 0.103,-0.445L0.103,-0.2C0.103,-0.125 0.101,-0.054 0.093,-0L0.094,0.003C0.094,0.003 0.143,-0 0.177,-0L0.481,-0C0.502,-0 0.525,0.001 0.541,0.003L0.543,-0C0.542,-0.014 0.541,-0.032 0.541,-0.042C0.541,-0.052 0.542,-0.091 0.543,-0.099L0.541,-0.103C0.541,-0.103 0.389,-0.081 0.255,-0.081C0.248,-0.105 0.247,-0.193 0.247,-0.21Z" style="fill:rgb(235,235,235);fill-rule:nonzero;stroke:black;stroke-width:0.04px;stroke-linecap:butt;stroke-miterlimit:2;"/>
                    </g>
                    <g transform="matrix(33.3333,0,0,33.3333,257.321,281.886)">
                        <path d="M0.24,-0.2L0.24,-0.311C0.288,-0.311 0.408,-0.308 0.477,-0.301L0.48,-0.304C0.478,-0.313 0.477,-0.333 0.477,-0.342C0.477,-0.351 0.478,-0.37 0.48,-0.379L0.477,-0.382C0.418,-0.377 0.358,-0.372 0.24,-0.372L0.24,-0.445C0.24,-0.462 0.241,-0.553 0.248,-0.577C0.382,-0.577 0.534,-0.565 0.534,-0.565L0.536,-0.569C0.535,-0.577 0.534,-0.601 0.534,-0.61C0.534,-0.618 0.535,-0.631 0.536,-0.645L0.534,-0.648C0.518,-0.646 0.495,-0.645 0.474,-0.645L0.17,-0.645C0.136,-0.645 0.086,-0.648 0.086,-0.648L0.084,-0.645C0.092,-0.588 0.096,-0.52 0.096,-0.445L0.096,-0.2C0.096,-0.125 0.092,-0.054 0.084,-0L0.085,0.003C0.085,0.003 0.135,-0 0.17,-0L0.484,-0C0.505,-0 0.528,0.001 0.544,0.003L0.546,-0C0.545,-0.013 0.544,-0.026 0.544,-0.036C0.544,-0.046 0.545,-0.083 0.546,-0.091L0.544,-0.095C0.544,-0.095 0.382,-0.073 0.248,-0.073C0.241,-0.097 0.24,-0.183 0.24,-0.2Z" style="fill:rgb(235,235,235);fill-rule:nonzero;stroke:black;stroke-width:0.04px;stroke-linecap:butt;stroke-miterlimit:2;"/>
                    </g>
                    <g transform="matrix(33.3333,0,0,33.3333,277.121,281.886)">
                        <path d="M0.2,-0.219C0.238,-0.22 0.297,-0.221 0.333,-0.221C0.365,-0.221 0.4,-0.22 0.433,-0.22C0.479,-0.094 0.501,-0.019 0.507,0.003C0.524,-0 0.571,-0 0.588,-0C0.605,-0 0.662,-0 0.679,0.003C0.629,-0.098 0.491,-0.434 0.405,-0.653L0.315,-0.653C0.219,-0.431 0.121,-0.218 0.02,0.003C0.032,-0 0.065,-0 0.076,-0C0.087,-0 0.109,-0 0.121,0.003C0.137,-0.056 0.166,-0.135 0.2,-0.219ZM0.412,-0.275C0.383,-0.275 0.352,-0.274 0.328,-0.274C0.299,-0.274 0.255,-0.275 0.224,-0.276L0.317,-0.494L0.323,-0.494C0.359,-0.412 0.387,-0.339 0.412,-0.275Z" style="fill:rgb(235,235,235);fill-rule:nonzero;stroke:black;stroke-width:0.04px;stroke-linecap:butt;stroke-miterlimit:2;"/>
                    </g>
                    <g transform="matrix(33.3333,0,0,33.3333,300.487,281.886)">
                        <path d="M0.175,-0.645C0.141,-0.645 0.091,-0.648 0.091,-0.648L0.089,-0.645C0.097,-0.588 0.101,-0.52 0.101,-0.445L0.101,-0.2C0.101,-0.125 0.097,-0.054 0.089,-0L0.09,0.003C0.09,0.003 0.14,-0 0.175,-0C0.253,-0 0.287,0.002 0.374,0.002C0.515,0.002 0.709,-0.072 0.709,-0.318C0.709,-0.515 0.548,-0.648 0.356,-0.648C0.285,-0.648 0.246,-0.645 0.175,-0.645ZM0.245,-0.101L0.245,-0.545C0.245,-0.58 0.269,-0.595 0.318,-0.595C0.534,-0.595 0.548,-0.448 0.548,-0.294C0.548,-0.092 0.484,-0.051 0.343,-0.051C0.267,-0.051 0.245,-0.069 0.245,-0.101Z" style="fill:rgb(235,235,235);fill-rule:nonzero;stroke:black;stroke-width:0.04px;stroke-linecap:butt;stroke-miterlimit:2;"/>
                    </g>
                    <g transform="matrix(33.3333,0,0,33.3333,325.854,281.886)">
                        <path d="M0.24,-0.2L0.24,-0.311C0.288,-0.311 0.408,-0.308 0.477,-0.301L0.48,-0.304C0.478,-0.313 0.477,-0.333 0.477,-0.342C0.477,-0.351 0.478,-0.37 0.48,-0.379L0.477,-0.382C0.418,-0.377 0.358,-0.372 0.24,-0.372L0.24,-0.445C0.24,-0.462 0.241,-0.553 0.248,-0.577C0.382,-0.577 0.534,-0.565 0.534,-0.565L0.536,-0.569C0.535,-0.577 0.534,-0.601 0.534,-0.61C0.534,-0.618 0.535,-0.631 0.536,-0.645L0.534,-0.648C0.518,-0.646 0.495,-0.645 0.474,-0.645L0.17,-0.645C0.136,-0.645 0.086,-0.648 0.086,-0.648L0.084,-0.645C0.092,-0.588 0.096,-0.52 0.096,-0.445L0.096,-0.2C0.096,-0.125 0.092,-0.054 0.084,-0L0.085,0.003C0.085,0.003 0.135,-0 0.17,-0L0.484,-0C0.505,-0 0.528,0.001 0.544,0.003L0.546,-0C0.545,-0.013 0.544,-0.026 0.544,-0.036C0.544,-0.046 0.545,-0.083 0.546,-0.091L0.544,-0.095C0.544,-0.095 0.382,-0.073 0.248,-0.073C0.241,-0.097 0.24,-0.183 0.24,-0.2Z" style="fill:rgb(235,235,235);fill-rule:nonzero;stroke:black;stroke-width:0.04px;stroke-linecap:butt;stroke-miterlimit:2;"/>
                    </g>
                    <g transform="matrix(33.3333,0,0,33.3333,345.654,281.886)">
                        <path d="M0.245,-0.296C0.263,-0.296 0.282,-0.296 0.302,-0.297C0.33,-0.262 0.357,-0.215 0.384,-0.176C0.434,-0.104 0.478,-0.031 0.489,0.003C0.508,-0 0.548,-0 0.567,-0C0.587,-0 0.64,-0 0.66,0.003L0.662,-0C0.611,-0.058 0.507,-0.231 0.444,-0.315C0.529,-0.336 0.597,-0.383 0.597,-0.483C0.597,-0.548 0.573,-0.592 0.532,-0.618C0.486,-0.648 0.419,-0.652 0.353,-0.652C0.328,-0.652 0.207,-0.645 0.177,-0.645C0.143,-0.645 0.093,-0.648 0.093,-0.648L0.091,-0.645C0.099,-0.588 0.103,-0.52 0.103,-0.445L0.103,-0.2C0.103,-0.125 0.099,-0.054 0.091,-0L0.092,0.003C0.092,0.003 0.138,-0 0.173,-0C0.207,-0 0.253,0.003 0.253,0.003L0.255,-0C0.247,-0.057 0.245,-0.125 0.245,-0.2L0.245,-0.296ZM0.334,-0.602C0.395,-0.602 0.442,-0.6 0.442,-0.482C0.442,-0.357 0.396,-0.352 0.299,-0.352L0.245,-0.352L0.245,-0.553C0.245,-0.582 0.263,-0.602 0.334,-0.602Z" style="fill:rgb(235,235,235);fill-rule:nonzero;stroke:black;stroke-width:0.04px;stroke-linecap:butt;stroke-miterlimit:2;"/>
                    </g>
                </g>
            </g>
        </g>
        <g transform="matrix(1,0,0,1,-150.652,1199.14)">
            <g transform="matrix(2.44181,0,0,2.44181,25.0826,-473.848)">
                <g transform="matrix(1,0,0,1,88.8194,-159.708)">
                    <path d="M248.248,488.23L314.596,521.978L314.596,589.475L248.248,623.223L181.9,589.475L181.9,521.978L248.248,488.23Z" style="fill:rgb(235,235,235);fill-opacity:0;stroke:black;stroke-width:0.94px;"/>
                </g>
                <g transform="matrix(1,0,0,1,-17.8244,-141.734)">
                    <path d="M354.9,537.765L355.064,604.967" style="fill:none;stroke:black;stroke-width:0.94px;"/>
                </g>
                <g transform="matrix(1,0,0,1,-42.3704,1.86073)">
                    <path d="M445.602,360.692L379.254,394.441L312.906,360.692" style="fill:rgb(235,235,235);fill-opacity:0;stroke:black;stroke-width:0.94px;"/>
                </g>
            </g>
            <g transform="matrix(0.892488,-0.451071,0.0124819,1.11415,603.97,408.309)">
                <g transform="matrix(2.80163,0,0,1.8502,-365.492,-262.258)">
                    <rect x="234.744" y="272.367" width="50.292" height="20.623" style="fill:white;stroke:black;stroke-width:1.22px;"/>
                </g>
                <g transform="matrix(1,0,0,1,61.2921,-10.7853)">
                    <g transform="matrix(33.3333,0,0,33.3333,237.721,281.886)">
                        <path d="M0.222,-0.379L0.26,-0.379C0.284,-0.379 0.319,-0.378 0.332,-0.377C0.334,-0.392 0.338,-0.409 0.344,-0.424L0.339,-0.432C0.32,-0.43 0.292,-0.429 0.269,-0.429L0.222,-0.429L0.222,-0.439C0.222,-0.465 0.215,-0.513 0.215,-0.535C0.215,-0.59 0.245,-0.629 0.299,-0.629C0.328,-0.629 0.355,-0.608 0.363,-0.579L0.393,-0.58C0.396,-0.608 0.407,-0.661 0.416,-0.681L0.415,-0.684C0.407,-0.689 0.371,-0.698 0.34,-0.698C0.264,-0.698 0.204,-0.673 0.162,-0.629C0.118,-0.583 0.093,-0.52 0.093,-0.459L0.093,-0.429C0.073,-0.429 0.051,-0.43 0.039,-0.432C0.034,-0.415 0.027,-0.399 0.017,-0.384L0.022,-0.377C0.039,-0.378 0.07,-0.379 0.093,-0.379L0.093,-0.2C0.093,-0.125 0.093,-0.051 0.086,-0L0.087,0.003C0.087,0.003 0.127,-0 0.162,-0C0.196,-0 0.231,0.003 0.231,0.003L0.233,-0C0.226,-0.058 0.226,-0.125 0.225,-0.2L0.222,-0.379Z" style="fill-rule:nonzero;stroke:black;stroke-width:0.04px;stroke-linecap:butt;stroke-miterlimit:2;"/>
                    </g>
                    <g transform="matrix(33.3333,0,0,33.3333,249.921,281.886)">
                        <path d="M0.041,-0.205C0.041,-0.072 0.134,0.01 0.283,0.01C0.436,0.01 0.525,-0.076 0.525,-0.214C0.525,-0.34 0.454,-0.439 0.285,-0.439C0.142,-0.439 0.041,-0.36 0.041,-0.205ZM0.278,-0.389C0.363,-0.389 0.383,-0.326 0.383,-0.187C0.383,-0.072 0.342,-0.04 0.297,-0.04C0.193,-0.04 0.183,-0.151 0.183,-0.228C0.183,-0.315 0.192,-0.389 0.278,-0.389Z" style="fill-rule:nonzero;stroke:black;stroke-width:0.04px;stroke-linecap:butt;stroke-miterlimit:2;"/>
                    </g>
                    <g transform="matrix(33.3333,0,0,33.3333,268.787,281.886)">
                        <path d="M0.086,-0.2C0.086,-0.125 0.083,-0.054 0.074,-0L0.075,0.003C0.075,0.003 0.117,-0 0.152,-0C0.186,-0 0.228,0.003 0.228,0.003L0.23,-0C0.222,-0.057 0.218,-0.125 0.218,-0.2L0.218,-0.5C0.218,-0.575 0.222,-0.627 0.23,-0.688C0.23,-0.695 0.225,-0.698 0.219,-0.698C0.194,-0.688 0.117,-0.668 0.076,-0.665L0.074,-0.662C0.082,-0.619 0.086,-0.55 0.086,-0.474L0.086,-0.2Z" style="fill-rule:nonzero;stroke:black;stroke-width:0.04px;stroke-linecap:butt;stroke-miterlimit:2;"/>
                    </g>
                    <g transform="matrix(33.3333,0,0,33.3333,278.921,281.886)">
                        <path d="M0.086,-0.2C0.086,-0.125 0.083,-0.054 0.074,-0L0.075,0.003C0.075,0.003 0.117,-0 0.152,-0C0.186,-0 0.228,0.003 0.228,0.003L0.23,-0C0.222,-0.057 0.218,-0.125 0.218,-0.2L0.218,-0.5C0.218,-0.575 0.222,-0.627 0.23,-0.688C0.23,-0.695 0.225,-0.698 0.219,-0.698C0.194,-0.688 0.117,-0.668 0.076,-0.665L0.074,-0.662C0.082,-0.619 0.086,-0.55 0.086,-0.474L0.086,-0.2Z" style="fill-rule:nonzero;stroke:black;stroke-width:0.04px;stroke-linecap:butt;stroke-miterlimit:2;"/>
                    </g>
                    <g transform="matrix(33.3333,0,0,33.3333,289.054,281.886)">
                        <path d="M0.041,-0.205C0.041,-0.072 0.134,0.01 0.283,0.01C0.436,0.01 0.525,-0.076 0.525,-0.214C0.525,-0.34 0.454,-0.439 0.285,-0.439C0.142,-0.439 0.041,-0.36 0.041,-0.205ZM0.278,-0.389C0.363,-0.389 0.383,-0.326 0.383,-0.187C0.383,-0.072 0.342,-0.04 0.297,-0.04C0.193,-0.04 0.183,-0.151 0.183,-0.228C0.183,-0.315 0.192,-0.389 0.278,-0.389Z" style="fill-rule:nonzero;stroke:black;stroke-width:0.04px;stroke-linecap:butt;stroke-miterlimit:2;"/>
                    </g>
                    <g transform="matrix(33.3333,0,0,33.3333,307.687,281.886)">
                        <path d="M0.201,0.004C0.21,0.001 0.245,0.001 0.254,0.001C0.263,0.001 0.292,0.001 0.3,0.004C0.336,-0.078 0.373,-0.16 0.411,-0.243C0.444,-0.161 0.475,-0.079 0.504,0.003C0.513,-0 0.547,-0 0.556,-0C0.565,-0 0.592,-0 0.6,0.003C0.661,-0.139 0.727,-0.289 0.793,-0.432C0.785,-0.429 0.753,-0.429 0.744,-0.429C0.735,-0.429 0.708,-0.429 0.7,-0.432C0.667,-0.327 0.619,-0.204 0.575,-0.11L0.571,-0.11C0.537,-0.217 0.508,-0.321 0.483,-0.432C0.471,-0.43 0.427,-0.429 0.414,-0.429C0.4,-0.429 0.345,-0.43 0.331,-0.432C0.348,-0.394 0.364,-0.357 0.379,-0.319C0.35,-0.241 0.316,-0.161 0.288,-0.1L0.282,-0.1C0.239,-0.211 0.202,-0.32 0.17,-0.431C0.158,-0.428 0.119,-0.428 0.106,-0.428C0.092,-0.428 0.032,-0.428 0.018,-0.431C0.084,-0.283 0.146,-0.142 0.201,0.004Z" style="fill-rule:nonzero;stroke:black;stroke-width:0.04px;stroke-linecap:butt;stroke-miterlimit:2;"/>
                    </g>
                    <g transform="matrix(33.3333,0,0,33.3333,334.454,281.886)">
                        <path d="M0.448,-0.107C0.402,-0.07 0.353,-0.066 0.311,-0.066C0.262,-0.066 0.226,-0.079 0.202,-0.105C0.18,-0.129 0.169,-0.164 0.169,-0.21L0.269,-0.21C0.369,-0.21 0.454,-0.208 0.454,-0.208L0.46,-0.214C0.46,-0.339 0.425,-0.439 0.271,-0.439C0.216,-0.439 0.156,-0.422 0.117,-0.389C0.068,-0.349 0.035,-0.289 0.035,-0.206C0.035,-0.147 0.057,-0.085 0.098,-0.042C0.132,-0.007 0.191,0.01 0.266,0.01C0.338,0.01 0.41,-0.013 0.464,-0.076C0.464,-0.089 0.458,-0.107 0.448,-0.107ZM0.173,-0.255C0.177,-0.304 0.189,-0.339 0.204,-0.359C0.216,-0.376 0.236,-0.389 0.264,-0.389C0.305,-0.389 0.329,-0.343 0.329,-0.255L0.173,-0.255Z" style="fill-rule:nonzero;stroke:black;stroke-width:0.04px;stroke-linecap:butt;stroke-miterlimit:2;"/>
                    </g>
                    <g transform="matrix(33.3333,0,0,33.3333,351.387,281.886)">
                        <path d="M0.225,-0.349L0.221,-0.352C0.221,-0.375 0.22,-0.417 0.218,-0.425C0.217,-0.432 0.215,-0.435 0.209,-0.435C0.18,-0.43 0.115,-0.43 0.08,-0.432L0.078,-0.429C0.086,-0.386 0.089,-0.31 0.089,-0.235L0.089,-0.18C0.089,-0.105 0.087,-0.054 0.079,-0L0.08,0.003C0.08,0.003 0.112,-0 0.147,-0C0.181,-0 0.229,0.003 0.229,0.003L0.231,-0C0.223,-0.057 0.221,-0.104 0.221,-0.18L0.221,-0.253C0.221,-0.33 0.29,-0.342 0.305,-0.342C0.324,-0.342 0.345,-0.337 0.363,-0.323L0.381,-0.325L0.401,-0.428L0.397,-0.432C0.38,-0.437 0.364,-0.439 0.346,-0.439C0.299,-0.439 0.251,-0.388 0.225,-0.349Z" style="fill-rule:nonzero;stroke:black;stroke-width:0.04px;stroke-linecap:butt;stroke-miterlimit:2;"/>
                    </g>
                </g>
            </g>
        </g>
        <g transform="matrix(1,0,0,1,-383.436,1516.05)">
            <g transform="matrix(2.44181,0,0,2.44181,25.0826,-473.848)">
                <g transform="matrix(1,0,0,1,88.8194,-159.708)">
                    <path d="M248.248,488.23L314.596,521.978L314.596,589.475L248.248,623.223L181.9,589.475L181.9,521.978L248.248,488.23Z" style="fill:rgb(235,235,235);fill-opacity:0;stroke:black;stroke-width:0.94px;"/>
                </g>
                <g transform="matrix(1,0,0,1,-17.8244,-141.734)">
                    <path d="M354.9,537.765L355.064,604.967" style="fill:none;stroke:black;stroke-width:0.94px;"/>
                </g>
                <g transform="matrix(1,0,0,1,-42.3704,1.86073)">
                    <path d="M445.602,360.692L379.254,394.441L312.906,360.692" style="fill:rgb(235,235,235);fill-opacity:0;stroke:black;stroke-width:0.94px;"/>
                </g>
            </g>
            <g transform="matrix(0.892488,-0.451071,0.0124819,1.11415,603.97,408.309)">
                <g transform="matrix(2.80163,0,0,1.8502,-365.492,-262.258)">
                    <rect x="234.744" y="272.367" width="50.292" height="20.623" style="fill:white;stroke:black;stroke-width:1.22px;"/>
                </g>
                <g transform="matrix(1,0,0,1,61.2921,-10.7853)">
                    <g transform="matrix(33.3333,0,0,33.3333,237.721,281.886)">
                        <path d="M0.222,-0.379L0.26,-0.379C0.284,-0.379 0.319,-0.378 0.332,-0.377C0.334,-0.392 0.338,-0.409 0.344,-0.424L0.339,-0.432C0.32,-0.43 0.292,-0.429 0.269,-0.429L0.222,-0.429L0.222,-0.439C0.222,-0.465 0.215,-0.513 0.215,-0.535C0.215,-0.59 0.245,-0.629 0.299,-0.629C0.328,-0.629 0.355,-0.608 0.363,-0.579L0.393,-0.58C0.396,-0.608 0.407,-0.661 0.416,-0.681L0.415,-0.684C0.407,-0.689 0.371,-0.698 0.34,-0.698C0.264,-0.698 0.204,-0.673 0.162,-0.629C0.118,-0.583 0.093,-0.52 0.093,-0.459L0.093,-0.429C0.073,-0.429 0.051,-0.43 0.039,-0.432C0.034,-0.415 0.027,-0.399 0.017,-0.384L0.022,-0.377C0.039,-0.378 0.07,-0.379 0.093,-0.379L0.093,-0.2C0.093,-0.125 0.093,-0.051 0.086,-0L0.087,0.003C0.087,0.003 0.127,-0 0.162,-0C0.196,-0 0.231,0.003 0.231,0.003L0.233,-0C0.226,-0.058 0.226,-0.125 0.225,-0.2L0.222,-0.379Z" style="fill-rule:nonzero;stroke:black;stroke-width:0.04px;stroke-linecap:butt;stroke-miterlimit:2;"/>
                    </g>
                    <g transform="matrix(33.3333,0,0,33.3333,249.921,281.886)">
                        <path d="M0.041,-0.205C0.041,-0.072 0.134,0.01 0.283,0.01C0.436,0.01 0.525,-0.076 0.525,-0.214C0.525,-0.34 0.454,-0.439 0.285,-0.439C0.142,-0.439 0.041,-0.36 0.041,-0.205ZM0.278,-0.389C0.363,-0.389 0.383,-0.326 0.383,-0.187C0.383,-0.072 0.342,-0.04 0.297,-0.04C0.193,-0.04 0.183,-0.151 0.183,-0.228C0.183,-0.315 0.192,-0.389 0.278,-0.389Z" style="fill-rule:nonzero;stroke:black;stroke-width:0.04px;stroke-linecap:butt;stroke-miterlimit:2;"/>
                    </g>
                    <g transform="matrix(33.3333,0,0,33.3333,268.787,281.886)">
                        <path d="M0.086,-0.2C0.086,-0.125 0.083,-0.054 0.074,-0L0.075,0.003C0.075,0.003 0.117,-0 0.152,-0C0.186,-0 0.228,0.003 0.228,0.003L0.23,-0C0.222,-0.057 0.218,-0.125 0.218,-0.2L0.218,-0.5C0.218,-0.575 0.222,-0.627 0.23,-0.688C0.23,-0.695 0.225,-0.698 0.219,-0.698C0.194,-0.688 0.117,-0.668 0.076,-0.665L0.074,-0.662C0.082,-0.619 0.086,-0.55 0.086,-0.474L0.086,-0.2Z" style="fill-rule:nonzero;stroke:black;stroke-width:0.04px;stroke-linecap:butt;stroke-miterlimit:2;"/>
                    </g>
                    <g transform="matrix(33.3333,0,0,33.3333,278.921,281.886)">
                        <path d="M0.086,-0.2C0.086,-0.125 0.083,-0.054 0.074,-0L0.075,0.003C0.075,0.003 0.117,-0 0.152,-0C0.186,-0 0.228,0.003 0.228,0.003L0.23,-0C0.222,-0.057 0.218,-0.125 0.218,-0.2L0.218,-0.5C0.218,-0.575 0.222,-0.627 0.23,-0.688C0.23,-0.695 0.225,-0.698 0.219,-0.698C0.194,-0.688 0.117,-0.668 0.076,-0.665L0.074,-0.662C0.082,-0.619 0.086,-0.55 0.086,-0.474L0.086,-0.2Z" style="fill-rule:nonzero;stroke:black;stroke-width:0.04px;stroke-linecap:butt;stroke-miterlimit:2;"/>
                    </g>
                    <g transform="matrix(33.3333,0,0,33.3333,289.054,281.886)">
                        <path d="M0.041,-0.205C0.041,-0.072 0.134,0.01 0.283,0.01C0.436,0.01 0.525,-0.076 0.525,-0.214C0.525,-0.34 0.454,-0.439 0.285,-0.439C0.142,-0.439 0.041,-0.36 0.041,-0.205ZM0.278,-0.389C0.363,-0.389 0.383,-0.326 0.383,-0.187C0.383,-0.072 0.342,-0.04 0.297,-0.04C0.193,-0.04 0.183,-0.151 0.183,-0.228C0.183,-0.315 0.192,-0.389 0.278,-0.389Z" style="fill-rule:nonzero;stroke:black;stroke-width:0.04px;stroke-linecap:butt;stroke-miterlimit:2;"/>
                    </g>
                    <g transform="matrix(33.3333,0,0,33.3333,307.687,281.886)">
                        <path d="M0.201,0.004C0.21,0.001 0.245,0.001 0.254,0.001C0.263,0.001 0.292,0.001 0.3,0.004C0.336,-0.078 0.373,-0.16 0.411,-0.243C0.444,-0.161 0.475,-0.079 0.504,0.003C0.513,-0 0.547,-0 0.556,-0C0.565,-0 0.592,-0 0.6,0.003C0.661,-0.139 0.727,-0.289 0.793,-0.432C0.785,-0.429 0.753,-0.429 0.744,-0.429C0.735,-0.429 0.708,-0.429 0.7,-0.432C0.667,-0.327 0.619,-0.204 0.575,-0.11L0.571,-0.11C0.537,-0.217 0.508,-0.321 0.483,-0.432C0.471,-0.43 0.427,-0.429 0.414,-0.429C0.4,-0.429 0.345,-0.43 0.331,-0.432C0.348,-0.394 0.364,-0.357 0.379,-0.319C0.35,-0.241 0.316,-0.161 0.288,-0.1L0.282,-0.1C0.239,-0.211 0.202,-0.32 0.17,-0.431C0.158,-0.428 0.119,-0.428 0.106,-0.428C0.092,-0.428 0.032,-0.428 0.018,-0.431C0.084,-0.283 0.146,-0.142 0.201,0.004Z" style="fill-rule:nonzero;stroke:black;stroke-width:0.04px;stroke-linecap:butt;stroke-miterlimit:2;"/>
                    </g>
                    <g transform="matrix(33.3333,0,0,33.3333,334.454,281.886)">
                        <path d="M0.448,-0.107C0.402,-0.07 0.353,-0.066 0.311,-0.066C0.262,-0.066 0.226,-0.079 0.202,-0.105C0.18,-0.129 0.169,-0.164 0.169,-0.21L0.269,-0.21C0.369,-0.21 0.454,-0.208 0.454,-0.208L0.46,-0.214C0.46,-0.339 0.425,-0.439 0.271,-0.439C0.216,-0.439 0.156,-0.422 0.117,-0.389C0.068,-0.349 0.035,-0.289 0.035,-0.206C0.035,-0.147 0.057,-0.085 0.098,-0.042C0.132,-0.007 0.191,0.01 0.266,0.01C0.338,0.01 0.41,-0.013 0.464,-0.076C0.464,-0.089 0.458,-0.107 0.448,-0.107ZM0.173,-0.255C0.177,-0.304 0.189,-0.339 0.204,-0.359C0.216,-0.376 0.236,-0.389 0.264,-0.389C0.305,-0.389 0.329,-0.343 0.329,-0.255L0.173,-0.255Z" style="fill-rule:nonzero;stroke:black;stroke-width:0.04px;stroke-linecap:butt;stroke-miterlimit:2;"/>
                    </g>
                    <g transform="matrix(33.3333,0,0,33.3333,351.387,281.886)">
                        <path d="M0.225,-0.349L0.221,-0.352C0.221,-0.375 0.22,-0.417 0.218,-0.425C0.217,-0.432 0.215,-0.435 0.209,-0.435C0.18,-0.43 0.115,-0.43 0.08,-0.432L0.078,-0.429C0.086,-0.386 0.089,-0.31 0.089,-0.235L0.089,-0.18C0.089,-0.105 0.087,-0.054 0.079,-0L0.08,0.003C0.08,0.003 0.112,-0 0.147,-0C0.181,-0 0.229,0.003 0.229,0.003L0.231,-0C0.223,-0.057 0.221,-0.104 0.221,-0.18L0.221,-0.253C0.221,-0.33 0.29,-0.342 0.305,-0.342C0.324,-0.342 0.345,-0.337 0.363,-0.323L0.381,-0.325L0.401,-0.428L0.397,-0.432C0.38,-0.437 0.364,-0.439 0.346,-0.439C0.299,-0.439 0.251,-0.388 0.225,-0.349Z" style="fill-rule:nonzero;stroke:black;stroke-width:0.04px;stroke-linecap:butt;stroke-miterlimit:2;"/>
                    </g>
                </g>
            </g>
        </g>
        <g transform="matrix(0.389512,0.171822,-0.542172,0.97397,866.885,249.073)">
            <g transform="matrix(2.06118,-0.363621,1.14738,0.824311,-323.664,1368.49)">
                <path d="M382.869,348.073L385.385,357.464L375.994,359.98" style="fill:none;stroke:black;stroke-width:2.29px;stroke-linejoin:miter;stroke-miterlimit:10;"/>
                <path d="M256.409,282.999C256.409,282.999 371.329,349.348 385.385,357.464" style="fill:none;stroke:black;stroke-width:2.29px;"/>
            </g>
        </g>
        <g transform="matrix(0.330957,0.0661766,-0.0219497,0.997808,159.138,261.444)">
            <g transform="matrix(3.00831,-0.199517,0.0661766,0.997808,-398.479,1294.1)">
                <path d="M526.773,161.129L533.648,168.004L526.773,174.879" style="fill:none;stroke:black;stroke-width:2.29px;stroke-linejoin:miter;stroke-miterlimit:10;"/>
                <path d="M327.842,168.004L533.648,168.004" style="fill:none;stroke:black;stroke-width:2.29px;"/>
            </g>
        </g>
        <g transform="matrix(1,0,0,1,-285.459,1199.08)">
            <g transform="matrix(2.44181,0,0,2.44181,-375.136,-473.757)">
                <g transform="matrix(1,0,0,1,88.8194,-159.708)">
                    <path d="M248.248,488.23L314.596,521.978L314.596,589.475L248.248,623.223L181.9,589.475L181.9,521.978L248.248,488.23Z" style="fill:rgb(235,235,235);fill-opacity:0;stroke:black;stroke-width:0.94px;"/>
                </g>
                <g transform="matrix(1,0,0,1,-17.8244,-141.734)">
                    <path d="M354.9,537.765L355.064,604.967" style="fill:none;stroke:black;stroke-width:0.94px;"/>
                </g>
                <g transform="matrix(1,0,0,1,-42.3704,1.86073)">
                    <path d="M445.602,360.692L379.254,394.441L312.906,360.692" style="fill:rgb(235,235,235);fill-opacity:0;stroke:black;stroke-width:0.94px;"/>
                </g>
            </g>
            <g transform="matrix(0.892488,-0.451071,0.0124819,1.11415,203.361,405.805)">
                <g transform="matrix(2.80163,0,0,1.8502,-365.492,-262.258)">
                    <rect x="234.744" y="272.367" width="50.292" height="20.623" style="stroke:black;stroke-width:1.22px;"/>
                </g>
                <g transform="matrix(1,0,0,1,58.3696,-10.9025)">
                    <g transform="matrix(33.3333,0,0,33.3333,237.721,281.886)">
                        <path d="M0.247,-0.21L0.247,-0.445C0.247,-0.52 0.249,-0.592 0.257,-0.645L0.256,-0.648C0.256,-0.648 0.208,-0.645 0.173,-0.645C0.139,-0.645 0.094,-0.648 0.094,-0.648L0.092,-0.645C0.1,-0.588 0.103,-0.52 0.103,-0.445L0.103,-0.2C0.103,-0.125 0.101,-0.054 0.093,-0L0.094,0.003C0.094,0.003 0.143,-0 0.177,-0L0.481,-0C0.502,-0 0.525,0.001 0.541,0.003L0.543,-0C0.542,-0.014 0.541,-0.032 0.541,-0.042C0.541,-0.052 0.542,-0.091 0.543,-0.099L0.541,-0.103C0.541,-0.103 0.389,-0.081 0.255,-0.081C0.248,-0.105 0.247,-0.193 0.247,-0.21Z" style="fill:rgb(235,235,235);fill-rule:nonzero;stroke:black;stroke-width:0.04px;stroke-linecap:butt;stroke-miterlimit:2;"/>
                    </g>
                    <g transform="matrix(33.3333,0,0,33.3333,257.321,281.886)">
                        <path d="M0.24,-0.2L0.24,-0.311C0.288,-0.311 0.408,-0.308 0.477,-0.301L0.48,-0.304C0.478,-0.313 0.477,-0.333 0.477,-0.342C0.477,-0.351 0.478,-0.37 0.48,-0.379L0.477,-0.382C0.418,-0.377 0.358,-0.372 0.24,-0.372L0.24,-0.445C0.24,-0.462 0.241,-0.553 0.248,-0.577C0.382,-0.577 0.534,-0.565 0.534,-0.565L0.536,-0.569C0.535,-0.577 0.534,-0.601 0.534,-0.61C0.534,-0.618 0.535,-0.631 0.536,-0.645L0.534,-0.648C0.518,-0.646 0.495,-0.645 0.474,-0.645L0.17,-0.645C0.136,-0.645 0.086,-0.648 0.086,-0.648L0.084,-0.645C0.092,-0.588 0.096,-0.52 0.096,-0.445L0.096,-0.2C0.096,-0.125 0.092,-0.054 0.084,-0L0.085,0.003C0.085,0.003 0.135,-0 0.17,-0L0.484,-0C0.505,-0 0.528,0.001 0.544,0.003L0.546,-0C0.545,-0.013 0.544,-0.026 0.544,-0.036C0.544,-0.046 0.545,-0.083 0.546,-0.091L0.544,-0.095C0.544,-0.095 0.382,-0.073 0.248,-0.073C0.241,-0.097 0.24,-0.183 0.24,-0.2Z" style="fill:rgb(235,235,235);fill-rule:nonzero;stroke:black;stroke-width:0.04px;stroke-linecap:butt;stroke-miterlimit:2;"/>
                    </g>
                    <g transform="matrix(33.3333,0,0,33.3333,277.121,281.886)">
                        <path d="M0.2,-0.219C0.238,-0.22 0.297,-0.221 0.333,-0.221C0.365,-0.221 0.4,-0.22 0.433,-0.22C0.479,-0.094 0.501,-0.019 0.507,0.003C0.524,-0 0.571,-0 0.588,-0C0.605,-0 0.662,-0 0.679,0.003C0.629,-0.098 0.491,-0.434 0.405,-0.653L0.315,-0.653C0.219,-0.431 0.121,-0.218 0.02,0.003C0.032,-0 0.065,-0 0.076,-0C0.087,-0 0.109,-0 0.121,0.003C0.137,-0.056 0.166,-0.135 0.2,-0.219ZM0.412,-0.275C0.383,-0.275 0.352,-0.274 0.328,-0.274C0.299,-0.274 0.255,-0.275 0.224,-0.276L0.317,-0.494L0.323,-0.494C0.359,-0.412 0.387,-0.339 0.412,-0.275Z" style="fill:rgb(235,235,235);fill-rule:nonzero;stroke:black;stroke-width:0.04px;stroke-linecap:butt;stroke-miterlimit:2;"/>
                    </g>
                    <g transform="matrix(33.3333,0,0,33.3333,300.487,281.886)">
                        <path d="M0.175,-0.645C0.141,-0.645 0.091,-0.648 0.091,-0.648L0.089,-0.645C0.097,-0.588 0.101,-0.52 0.101,-0.445L0.101,-0.2C0.101,-0.125 0.097,-0.054 0.089,-0L0.09,0.003C0.09,0.003 0.14,-0 0.175,-0C0.253,-0 0.287,0.002 0.374,0.002C0.515,0.002 0.709,-0.072 0.709,-0.318C0.709,-0.515 0.548,-0.648 0.356,-0.648C0.285,-0.648 0.246,-0.645 0.175,-0.645ZM0.245,-0.101L0.245,-0.545C0.245,-0.58 0.269,-0.595 0.318,-0.595C0.534,-0.595 0.548,-0.448 0.548,-0.294C0.548,-0.092 0.484,-0.051 0.343,-0.051C0.267,-0.051 0.245,-0.069 0.245,-0.101Z" style="fill:rgb(235,235,235);fill-rule:nonzero;stroke:black;stroke-width:0.04px;stroke-linecap:butt;stroke-miterlimit:2;"/>
                    </g>
                    <g transform="matrix(33.3333,0,0,33.3333,325.854,281.886)">
                        <path d="M0.24,-0.2L0.24,-0.311C0.288,-0.311 0.408,-0.308 0.477,-0.301L0.48,-0.304C0.478,-0.313 0.477,-0.333 0.477,-0.342C0.477,-0.351 0.478,-0.37 0.48,-0.379L0.477,-0.382C0.418,-0.377 0.358,-0.372 0.24,-0.372L0.24,-0.445C0.24,-0.462 0.241,-0.553 0.248,-0.577C0.382,-0.577 0.534,-0.565 0.534,-0.565L0.536,-0.569C0.535,-0.577 0.534,-0.601 0.534,-0.61C0.534,-0.618 0.535,-0.631 0.536,-0.645L0.534,-0.648C0.518,-0.646 0.495,-0.645 0.474,-0.645L0.17,-0.645C0.136,-0.645 0.086,-0.648 0.086,-0.648L0.084,-0.645C0.092,-0.588 0.096,-0.52 0.096,-0.445L0.096,-0.2C0.096,-0.125 0.092,-0.054 0.084,-0L0.085,0.003C0.085,0.003 0.135,-0 0.17,-0L0.484,-0C0.505,-0 0.528,0.001 0.544,0.003L0.546,-0C0.545,-0.013 0.544,-0.026 0.544,-0.036C0.544,-0.046 0.545,-0.083 0.546,-0.091L0.544,-0.095C0.544,-0.095 0.382,-0.073 0.248,-0.073C0.241,-0.097 0.24,-0.183 0.24,-0.2Z" style="fill:rgb(235,235,235);fill-rule:nonzero;stroke:black;stroke-width:0.04px;stroke-linecap:butt;stroke-miterlimit:2;"/>
                    </g>
                    <g transform="matrix(33.3333,0,0,33.3333,345.654,281.886)">
                        <path d="M0.245,-0.296C0.263,-0.296 0.282,-0.296 0.302,-0.297C0.33,-0.262 0.357,-0.215 0.384,-0.176C0.434,-0.104 0.478,-0.031 0.489,0.003C0.508,-0 0.548,-0 0.567,-0C0.587,-0 0.64,-0 0.66,0.003L0.662,-0C0.611,-0.058 0.507,-0.231 0.444,-0.315C0.529,-0.336 0.597,-0.383 0.597,-0.483C0.597,-0.548 0.573,-0.592 0.532,-0.618C0.486,-0.648 0.419,-0.652 0.353,-0.652C0.328,-0.652 0.207,-0.645 0.177,-0.645C0.143,-0.645 0.093,-0.648 0.093,-0.648L0.091,-0.645C0.099,-0.588 0.103,-0.52 0.103,-0.445L0.103,-0.2C0.103,-0.125 0.099,-0.054 0.091,-0L0.092,0.003C0.092,0.003 0.138,-0 0.173,-0C0.207,-0 0.253,0.003 0.253,0.003L0.255,-0C0.247,-0.057 0.245,-0.125 0.245,-0.2L0.245,-0.296ZM0.334,-0.602C0.395,-0.602 0.442,-0.6 0.442,-0.482C0.442,-0.357 0.396,-0.352 0.299,-0.352L0.245,-0.352L0.245,-0.553C0.245,-0.582 0.263,-0.602 0.334,-0.602Z" style="fill:rgb(235,235,235);fill-rule:nonzero;stroke:black;stroke-width:0.04px;stroke-linecap:butt;stroke-miterlimit:2;"/>
                    </g>
                </g>
            </g>
        </g>
        <g transform="matrix(1,0,0,1,-150.652,1199.14)">
            <g transform="matrix(2.44181,0,0,2.44181,25.0826,-473.848)">
                <g transform="matrix(1,0,0,1,88.8194,-159.708)">
                    <path d="M248.248,488.23L314.596,521.978L314.596,589.475L248.248,623.223L181.9,589.475L181.9,521.978L248.248,488.23Z" style="fill:rgb(235,235,235);fill-opacity:0;stroke:black;stroke-width:0.94px;"/>
                </g>
                <g transform="matrix(1,0,0,1,-17.8244,-141.734)">
                    <path d="M354.9,537.765L355.064,604.967" style="fill:none;stroke:black;stroke-width:0.94px;"/>
                </g>
                <g transform="matrix(1,0,0,1,-42.3704,1.86073)">
                    <path d="M445.602,360.692L379.254,394.441L312.906,360.692" style="fill:rgb(235,235,235);fill-opacity:0;stroke:black;stroke-width:0.94px;"/>
                </g>
            </g>
            <g transform="matrix(0.892488,-0.451071,0.0124819,1.11415,603.97,408.309)">
                <g transform="matrix(2.80163,0,0,1.8502,-365.492,-262.258)">
                    <rect x="234.744" y="272.367" width="50.292" height="20.623" style="fill:white;stroke:black;stroke-width:1.22px;"/>
                </g>
                <g transform="matrix(1,0,0,1,61.2921,-10.7853)">
                    <g transform="matrix(33.3333,0,0,33.3333,237.721,281.886)">
                        <path d="M0.222,-0.379L0.26,-0.379C0.284,-0.379 0.319,-0.378 0.332,-0.377C0.334,-0.392 0.338,-0.409 0.344,-0.424L0.339,-0.432C0.32,-0.43 0.292,-0.429 0.269,-0.429L0.222,-0.429L0.222,-0.439C0.222,-0.465 0.215,-0.513 0.215,-0.535C0.215,-0.59 0.245,-0.629 0.299,-0.629C0.328,-0.629 0.355,-0.608 0.363,-0.579L0.393,-0.58C0.396,-0.608 0.407,-0.661 0.416,-0.681L0.415,-0.684C0.407,-0.689 0.371,-0.698 0.34,-0.698C0.264,-0.698 0.204,-0.673 0.162,-0.629C0.118,-0.583 0.093,-0.52 0.093,-0.459L0.093,-0.429C0.073,-0.429 0.051,-0.43 0.039,-0.432C0.034,-0.415 0.027,-0.399 0.017,-0.384L0.022,-0.377C0.039,-0.378 0.07,-0.379 0.093,-0.379L0.093,-0.2C0.093,-0.125 0.093,-0.051 0.086,-0L0.087,0.003C0.087,0.003 0.127,-0 0.162,-0C0.196,-0 0.231,0.003 0.231,0.003L0.233,-0C0.226,-0.058 0.226,-0.125 0.225,-0.2L0.222,-0.379Z" style="fill-rule:nonzero;stroke:black;stroke-width:0.04px;stroke-linecap:butt;stroke-miterlimit:2;"/>
                    </g>
                    <g transform="matrix(33.3333,0,0,33.3333,249.921,281.886)">
                        <path d="M0.041,-0.205C0.041,-0.072 0.134,0.01 0.283,0.01C0.436,0.01 0.525,-0.076 0.525,-0.214C0.525,-0.34 0.454,-0.439 0.285,-0.439C0.142,-0.439 0.041,-0.36 0.041,-0.205ZM0.278,-0.389C0.363,-0.389 0.383,-0.326 0.383,-0.187C0.383,-0.072 0.342,-0.04 0.297,-0.04C0.193,-0.04 0.183,-0.151 0.183,-0.228C0.183,-0.315 0.192,-0.389 0.278,-0.389Z" style="fill-rule:nonzero;stroke:black;stroke-width:0.04px;stroke-linecap:butt;stroke-miterlimit:2;"/>
                    </g>
                    <g transform="matrix(33.3333,0,0,33.3333,268.787,281.886)">
                        <path d="M0.086,-0.2C0.086,-0.125 0.083,-0.054 0.074,-0L0.075,0.003C0.075,0.003 0.117,-0 0.152,-0C0.186,-0 0.228,0.003 0.228,0.003L0.23,-0C0.222,-0.057 0.218,-0.125 0.218,-0.2L0.218,-0.5C0.218,-0.575 0.222,-0.627 0.23,-0.688C0.23,-0.695 0.225,-0.698 0.219,-0.698C0.194,-0.688 0.117,-0.668 0.076,-0.665L0.074,-0.662C0.082,-0.619 0.086,-0.55 0.086,-0.474L0.086,-0.2Z" style="fill-rule:nonzero;stroke:black;stroke-width:0.04px;stroke-linecap:butt;stroke-miterlimit:2;"/>
                    </g>
                    <g transform="matrix(33.3333,0,0,33.3333,278.921,281.886)">
                        <path d="M0.086,-0.2C0.086,-0.125 0.083,-0.054 0.074,-0L0.075,0.003C0.075,0.003 0.117,-0 0.152,-0C0.186,-0 0.228,0.003 0.228,0.003L0.23,-0C0.222,-0.057 0.218,-0.125 0.218,-0.2L0.218,-0.5C0.218,-0.575 0.222,-0.627 0.23,-0.688C0.23,-0.695 0.225,-0.698 0.219,-0.698C0.194,-0.688 0.117,-0.668 0.076,-0.665L0.074,-0.662C0.082,-0.619 0.086,-0.55 0.086,-0.474L0.086,-0.2Z" style="fill-rule:nonzero;stroke:black;stroke-width:0.04px;stroke-linecap:butt;stroke-miterlimit:2;"/>
                    </g>
                    <g transform="matrix(33.3333,0,0,33.3333,289.054,281.886)">
                        <path d="M0.041,-0.205C0.041,-0.072 0.134,0.01 0.283,0.01C0.436,0.01 0.525,-0.076 0.525,-0.214C0.525,-0.34 0.454,-0.439 0.285,-0.439C0.142,-0.439 0.041,-0.36 0.041,-0.205ZM0.278,-0.389C0.363,-0.389 0.383,-0.326 0.383,-0.187C0.383,-0.072 0.342,-0.04 0.297,-0.04C0.193,-0.04 0.183,-0.151 0.183,-0.228C0.183,-0.315 0.192,-0.389 0.278,-0.389Z" style="fill-rule:nonzero;stroke:black;stroke-width:0.04px;stroke-linecap:butt;stroke-miterlimit:2;"/>
                    </g>
                    <g transform="matrix(33.3333,0,0,33.3333,307.687,281.886)">
                        <path d="M0.201,0.004C0.21,0.001 0.245,0.001 0.254,0.001C0.263,0.001 0.292,0.001 0.3,0.004C0.336,-0.078 0.373,-0.16 0.411,-0.243C0.444,-0.161 0.475,-0.079 0.504,0.003C0.513,-0 0.547,-0 0.556,-0C0.565,-0 0.592,-0 0.6,0.003C0.661,-0.139 0.727,-0.289 0.793,-0.432C0.785,-0.429 0.753,-0.429 0.744,-0.429C0.735,-0.429 0.708,-0.429 0.7,-0.432C0.667,-0.327 0.619,-0.204 0.575,-0.11L0.571,-0.11C0.537,-0.217 0.508,-0.321 0.483,-0.432C0.471,-0.43 0.427,-0.429 0.414,-0.429C0.4,-0.429 0.345,-0.43 0.331,-0.432C0.348,-0.394 0.364,-0.357 0.379,-0.319C0.35,-0.241 0.316,-0.161 0.288,-0.1L0.282,-0.1C0.239,-0.211 0.202,-0.32 0.17,-0.431C0.158,-0.428 0.119,-0.428 0.106,-0.428C0.092,-0.428 0.032,-0.428 0.018,-0.431C0.084,-0.283 0.146,-0.142 0.201,0.004Z" style="fill-rule:nonzero;stroke:black;stroke-width:0.04px;stroke-linecap:butt;stroke-miterlimit:2;"/>
                    </g>
                    <g transform="matrix(33.3333,0,0,33.3333,334.454,281.886)">
                        <path d="M0.448,-0.107C0.402,-0.07 0.353,-0.066 0.311,-0.066C0.262,-0.066 0.226,-0.079 0.202,-0.105C0.18,-0.129 0.169,-0.164 0.169,-0.21L0.269,-0.21C0.369,-0.21 0.454,-0.208 0.454,-0.208L0.46,-0.214C0.46,-0.339 0.425,-0.439 0.271,-0.439C0.216,-0.439 0.156,-0.422 0.117,-0.389C0.068,-0.349 0.035,-0.289 0.035,-0.206C0.035,-0.147 0.057,-0.085 0.098,-0.042C0.132,-0.007 0.191,0.01 0.266,0.01C0.338,0.01 0.41,-0.013 0.464,-0.076C0.464,-0.089 0.458,-0.107 0.448,-0.107ZM0.173,-0.255C0.177,-0.304 0.189,-0.339 0.204,-0.359C0.216,-0.376 0.236,-0.389 0.264,-0.389C0.305,-0.389 0.329,-0.343 0.329,-0.255L0.173,-0.255Z" style="fill-rule:nonzero;stroke:black;stroke-width:0.04px;stroke-linecap:butt;stroke-miterlimit:2;"/>
                    </g>
                    <g transform="matrix(33.3333,0,0,33.3333,351.387,281.886)">
                        <path d="M0.225,-0.349L0.221,-0.352C0.221,-0.375 0.22,-0.417 0.218,-0.425C0.217,-0.432 0.215,-0.435 0.209,-0.435C0.18,-0.43 0.115,-0.43 0.08,-0.432L0.078,-0.429C0.086,-0.386 0.089,-0.31 0.089,-0.235L0.089,-0.18C0.089,-0.105 0.087,-0.054 0.079,-0L0.08,0.003C0.08,0.003 0.112,-0 0.147,-0C0.181,-0 0.229,0.003 0.229,0.003L0.231,-0C0.223,-0.057 0.221,-0.104 0.221,-0.18L0.221,-0.253C0.221,-0.33 0.29,-0.342 0.305,-0.342C0.324,-0.342 0.345,-0.337 0.363,-0.323L0.381,-0.325L0.401,-0.428L0.397,-0.432C0.38,-0.437 0.364,-0.439 0.346,-0.439C0.299,-0.439 0.251,-0.388 0.225,-0.349Z" style="fill-rule:nonzero;stroke:black;stroke-width:0.04px;stroke-linecap:butt;stroke-miterlimit:2;"/>
                    </g>
                </g>
            </g>
        </g>
        <g transform="matrix(1,0,0,1,-383.436,1516.05)">
            <g transform="matrix(2.44181,0,0,2.44181,25.0826,-473.848)">
                <g transform="matrix(1,0,0,1,88.8194,-159.708)">
                    <path d="M248.248,488.23L314.596,521.978L314.596,589.475L248.248,623.223L181.9,589.475L181.9,521.978L248.248,488.23Z" style="fill:rgb(235,235,235);fill-opacity:0;stroke:black;stroke-width:0.94px;"/>
                </g>
                <g transform="matrix(1,0,0,1,-17.8244,-141.734)">
                    <path d="M354.9,537.765L355.064,604.967" style="fill:none;stroke:black;stroke-width:0.94px;"/>
                </g>
                <g transform="matrix(1,0,0,1,-42.3704,1.86073)">
                    <path d="M445.602,360.692L379.254,394.441L312.906,360.692" style="fill:rgb(235,235,235);fill-opacity:0;stroke:black;stroke-width:0.94px;"/>
                </g>
            </g>
            <g transform="matrix(0.892488,-0.451071,0.0124819,1.11415,603.97,408.309)">
                <g transform="matrix(2.80163,0,0,1.8502,-365.492,-262.258)">
                    <rect x="234.744" y="272.367" width="50.292" height="20.623" style="fill:white;stroke:black;stroke-width:1.22px;"/>
                </g>
                <g transform="matrix(1,0,0,1,61.2921,-10.7853)">
                    <g transform="matrix(33.3333,0,0,33.3333,237.721,281.886)">
                        <path d="M0.222,-0.379L0.26,-0.379C0.284,-0.379 0.319,-0.378 0.332,-0.377C0.334,-0.392 0.338,-0.409 0.344,-0.424L0.339,-0.432C0.32,-0.43 0.292,-0.429 0.269,-0.429L0.222,-0.429L0.222,-0.439C0.222,-0.465 0.215,-0.513 0.215,-0.535C0.215,-0.59 0.245,-0.629 0.299,-0.629C0.328,-0.629 0.355,-0.608 0.363,-0.579L0.393,-0.58C0.396,-0.608 0.407,-0.661 0.416,-0.681L0.415,-0.684C0.407,-0.689 0.371,-0.698 0.34,-0.698C0.264,-0.698 0.204,-0.673 0.162,-0.629C0.118,-0.583 0.093,-0.52 0.093,-0.459L0.093,-0.429C0.073,-0.429 0.051,-0.43 0.039,-0.432C0.034,-0.415 0.027,-0.399 0.017,-0.384L0.022,-0.377C0.039,-0.378 0.07,-0.379 0.093,-0.379L0.093,-0.2C0.093,-0.125 0.093,-0.051 0.086,-0L0.087,0.003C0.087,0.003 0.127,-0 0.162,-0C0.196,-0 0.231,0.003 0.231,0.003L0.233,-0C0.226,-0.058 0.226,-0.125 0.225,-0.2L0.222,-0.379Z" style="fill-rule:nonzero;stroke:black;stroke-width:0.04px;stroke-linecap:butt;stroke-miterlimit:2;"/>
                    </g>
                    <g transform="matrix(33.3333,0,0,33.3333,249.921,281.886)">
                        <path d="M0.041,-0.205C0.041,-0.072 0.134,0.01 0.283,0.01C0.436,0.01 0.525,-0.076 0.525,-0.214C0.525,-0.34 0.454,-0.439 0.285,-0.439C0.142,-0.439 0.041,-0.36 0.041,-0.205ZM0.278,-0.389C0.363,-0.389 0.383,-0.326 0.383,-0.187C0.383,-0.072 0.342,-0.04 0.297,-0.04C0.193,-0.04 0.183,-0.151 0.183,-0.228C0.183,-0.315 0.192,-0.389 0.278,-0.389Z" style="fill-rule:nonzero;stroke:black;stroke-width:0.04px;stroke-linecap:butt;stroke-miterlimit:2;"/>
                    </g>
                    <g transform="matrix(33.3333,0,0,33.3333,268.787,281.886)">
                        <path d="M0.086,-0.2C0.086,-0.125 0.083,-0.054 0.074,-0L0.075,0.003C0.075,0.003 0.117,-0 0.152,-0C0.186,-0 0.228,0.003 0.228,0.003L0.23,-0C0.222,-0.057 0.218,-0.125 0.218,-0.2L0.218,-0.5C0.218,-0.575 0.222,-0.627 0.23,-0.688C0.23,-0.695 0.225,-0.698 0.219,-0.698C0.194,-0.688 0.117,-0.668 0.076,-0.665L0.074,-0.662C0.082,-0.619 0.086,-0.55 0.086,-0.474L0.086,-0.2Z" style="fill-rule:nonzero;stroke:black;stroke-width:0.04px;stroke-linecap:butt;stroke-miterlimit:2;"/>
                    </g>
                    <g transform="matrix(33.3333,0,0,33.3333,278.921,281.886)">
                        <path d="M0.086,-0.2C0.086,-0.125 0.083,-0.054 0.074,-0L0.075,0.003C0.075,0.003 0.117,-0 0.152,-0C0.186,-0 0.228,0.003 0.228,0.003L0.23,-0C0.222,-0.057 0.218,-0.125 0.218,-0.2L0.218,-0.5C0.218,-0.575 0.222,-0.627 0.23,-0.688C0.23,-0.695 0.225,-0.698 0.219,-0.698C0.194,-0.688 0.117,-0.668 0.076,-0.665L0.074,-0.662C0.082,-0.619 0.086,-0.55 0.086,-0.474L0.086,-0.2Z" style="fill-rule:nonzero;stroke:black;stroke-width:0.04px;stroke-linecap:butt;stroke-miterlimit:2;"/>
                    </g>
                    <g transform="matrix(33.3333,0,0,33.3333,289.054,281.886)">
                        <path d="M0.041,-0.205C0.041,-0.072 0.134,0.01 0.283,0.01C0.436,0.01 0.525,-0.076 0.525,-0.214C0.525,-0.34 0.454,-0.439 0.285,-0.439C0.142,-0.439 0.041,-0.36 0.041,-0.205ZM0.278,-0.389C0.363,-0.389 0.383,-0.326 0.383,-0.187C0.383,-0.072 0.342,-0.04 0.297,-0.04C0.193,-0.04 0.183,-0.151 0.183,-0.228C0.183,-0.315 0.192,-0.389 0.278,-0.389Z" style="fill-rule:nonzero;stroke:black;stroke-width:0.04px;stroke-linecap:butt;stroke-miterlimit:2;"/>
                    </g>
                    <g transform="matrix(33.3333,0,0,33.3333,307.687,281.886)">
                        <path d="M0.201,0.004C0.21,0.001 0.245,0.001 0.254,0.001C0.263,0.001 0.292,0.001 0.3,0.004C0.336,-0.078 0.373,-0.16 0.411,-0.243C0.444,-0.161 0.475,-0.079 0.504,0.003C0.513,-0 0.547,-0 0.556,-0C0.565,-0 0.592,-0 0.6,0.003C0.661,-0.139 0.727,-0.289 0.793,-0.432C0.785,-0.429 0.753,-0.429 0.744,-0.429C0.735,-0.429 0.708,-0.429 0.7,-0.432C0.667,-0.327 0.619,-0.204 0.575,-0.11L0.571,-0.11C0.537,-0.217 0.508,-0.321 0.483,-0.432C0.471,-0.43 0.427,-0.429 0.414,-0.429C0.4,-0.429 0.345,-0.43 0.331,-0.432C0.348,-0.394 0.364,-0.357 0.379,-0.319C0.35,-0.241 0.316,-0.161 0.288,-0.1L0.282,-0.1C0.239,-0.211 0.202,-0.32 0.17,-0.431C0.158,-0.428 0.119,-0.428 0.106,-0.428C0.092,-0.428 0.032,-0.428 0.018,-0.431C0.084,-0.283 0.146,-0.142 0.201,0.004Z" style="fill-rule:nonzero;stroke:black;stroke-width:0.04px;stroke-linecap:butt;stroke-miterlimit:2;"/>
                    </g>
                    <g transform="matrix(33.3333,0,0,33.3333,334.454,281.886)">
                        <path d="M0.448,-0.107C0.402,-0.07 0.353,-0.066 0.311,-0.066C0.262,-0.066 0.226,-0.079 0.202,-0.105C0.18,-0.129 0.169,-0.164 0.169,-0.21L0.269,-0.21C0.369,-0.21 0.454,-0.208 0.454,-0.208L0.46,-0.214C0.46,-0.339 0.425,-0.439 0.271,-0.439C0.216,-0.439 0.156,-0.422 0.117,-0.389C0.068,-0.349 0.035,-0.289 0.035,-0.206C0.035,-0.147 0.057,-0.085 0.098,-0.042C0.132,-0.007 0.191,0.01 0.266,0.01C0.338,0.01 0.41,-0.013 0.464,-0.076C0.464,-0.089 0.458,-0.107 0.448,-0.107ZM0.173,-0.255C0.177,-0.304 0.189,-0.339 0.204,-0.359C0.216,-0.376 0.236,-0.389 0.264,-0.389C0.305,-0.389 0.329,-0.343 0.329,-0.255L0.173,-0.255Z" style="fill-rule:nonzero;stroke:black;stroke-width:0.04px;stroke-linecap:butt;stroke-miterlimit:2;"/>
                    </g>
                    <g transform="matrix(33.3333,0,0,33.3333,351.387,281.886)">
                        <path d="M0.225,-0.349L0.221,-0.352C0.221,-0.375 0.22,-0.417 0.218,-0.425C0.217,-0.432 0.215,-0.435 0.209,-0.435C0.18,-0.43 0.115,-0.43 0.08,-0.432L0.078,-0.429C0.086,-0.386 0.089,-0.31 0.089,-0.235L0.089,-0.18C0.089,-0.105 0.087,-0.054 0.079,-0L0.08,0.003C0.08,0.003 0.112,-0 0.147,-0C0.181,-0 0.229,0.003 0.229,0.003L0.231,-0C0.223,-0.057 0.221,-0.104 0.221,-0.18L0.221,-0.253C0.221,-0.33 0.29,-0.342 0.305,-0.342C0.324,-0.342 0.345,-0.337 0.363,-0.323L0.381,-0.325L0.401,-0.428L0.397,-0.432C0.38,-0.437 0.364,-0.439 0.346,-0.439C0.299,-0.439 0.251,-0.388 0.225,-0.349Z" style="fill-rule:nonzero;stroke:black;stroke-width:0.04px;stroke-linecap:butt;stroke-miterlimit:2;"/>
                    </g>
                </g>
            </g>
        </g>
        <g transform="matrix(1,0,0,1,-522.351,-346.274)">
            <g transform="matrix(1,0,0,1,-134.848,42.8433)">
                <g transform="matrix(1.26453,0,0,1,-247.257,785.399)">
                    <rect x="979.449" y="1272.55" width="41.462" height="59.496" style="fill:white;stroke:black;stroke-width:2.01px;"/>
                </g>
                <g transform="matrix(1,0,0,1,132.812,-43.5024)">
                    <g transform="matrix(1,0,0,1,-125.41,841.395)">
                        <g transform="matrix(41.6667,0,0,41.6667,990.212,1301.51)">
                            <path d="M0.747,-0.329C0.747,-0.527 0.61,-0.658 0.397,-0.658C0.194,-0.658 0.052,-0.506 0.052,-0.31C0.052,-0.122 0.2,0.01 0.398,0.01C0.612,0.01 0.747,-0.129 0.747,-0.329ZM0.384,-0.603C0.525,-0.603 0.586,-0.518 0.586,-0.31C0.586,-0.131 0.532,-0.045 0.418,-0.045C0.298,-0.045 0.213,-0.135 0.213,-0.327C0.213,-0.537 0.288,-0.603 0.384,-0.603Z" style="fill-rule:nonzero;stroke:black;stroke-width:0.02px;stroke-linecap:butt;stroke-miterlimit:2;"/>
                        </g>
                    </g>
                    <g transform="matrix(1,0,0,1,-78.9274,37.1954)">
                        <g transform="matrix(20.8333,0,0,20.8333,975.197,2109.66)">
                            <path d="M0.286,-0.189L0.286,-0.443C0.286,-0.551 0.292,-0.591 0.294,-0.605C0.294,-0.61 0.291,-0.61 0.287,-0.61C0.222,-0.589 0.146,-0.55 0.068,-0.526L0.074,-0.497C0.119,-0.502 0.168,-0.513 0.188,-0.513C0.206,-0.513 0.206,-0.473 0.206,-0.437L0.206,-0.189C0.206,-0.111 0.205,-0.057 0.198,-0L0.199,0.003C0.199,0.003 0.227,-0 0.245,-0C0.265,-0 0.293,0.003 0.293,0.003L0.295,-0C0.288,-0.06 0.286,-0.11 0.286,-0.189Z" style="fill-rule:nonzero;stroke:black;stroke-width:0.05px;stroke-linecap:butt;stroke-miterlimit:2;"/>
                        </g>
                    </g>
                </g>
            </g>
            <g transform="matrix(1,0,0,1,-72.6345,28.086)">
                <g transform="matrix(1,0,0,1,11.3514,-43.2264)">
                    <path d="M968.637,2165.5C968.637,2164.14 969.743,2163.03 971.105,2163.03C972.468,2163.03 973.573,2164.14 973.573,2165.5C974.255,2164.32 975.765,2163.92 976.945,2164.6C978.125,2165.28 978.529,2166.79 977.848,2167.97C979.028,2167.29 980.539,2167.69 981.22,2168.87C981.901,2170.05 981.496,2171.56 980.316,2172.24C981.679,2172.24 982.784,2173.35 982.784,2174.71C982.784,2176.08 981.679,2177.18 980.316,2177.18C981.496,2177.86 981.901,2179.37 981.22,2180.55C980.539,2181.73 979.028,2182.14 977.848,2181.46C978.529,2182.64 978.125,2184.15 976.945,2184.83C975.765,2185.51 974.255,2185.1 973.573,2183.93C973.573,2185.29 972.468,2186.39 971.105,2186.39C969.743,2186.39 968.637,2185.29 968.637,2183.93C967.956,2185.1 966.445,2185.51 965.266,2184.83C964.086,2184.15 963.681,2182.64 964.362,2181.46C963.183,2182.14 961.672,2181.73 960.991,2180.55C960.31,2179.37 960.715,2177.86 961.894,2177.18C960.532,2177.18 959.426,2176.08 959.426,2174.71C959.426,2173.35 960.532,2172.24 961.894,2172.24C960.715,2171.56 960.31,2170.05 960.991,2168.87C961.672,2167.69 963.183,2167.29 964.362,2167.97C963.681,2166.79 964.086,2165.28 965.266,2164.6C966.445,2163.92 967.956,2164.32 968.637,2165.5Z" style="fill:white;stroke:black;stroke-width:2.29px;"/>
                </g>
                <g>
                    <g transform="matrix(0.994131,0.108182,-0.108182,0.994131,237.634,-92.4362)">
                        <path d="M973.634,2138.56L967.886,2149.33L972.761,2147.69" style="fill:none;stroke:black;stroke-width:2.29px;"/>
                    </g>
                    <g transform="matrix(-0.60398,-0.797,-0.797,0.60398,3272.35,1625.89)">
                        <path d="M973.634,2138.56L967.886,2149.33L972.761,2147.69" style="fill:none;stroke:black;stroke-width:2.29px;"/>
                    </g>
                </g>
                <g transform="matrix(0.443215,-0.896416,0.896416,0.443215,-1364.39,2068.19)">
                    <g transform="matrix(0.994131,0.108182,-0.108182,0.994131,237.634,-92.4362)">
                        <path d="M973.634,2138.56L967.886,2149.33L972.761,2147.69" style="fill:none;stroke:black;stroke-width:2.29px;"/>
                    </g>
                    <g transform="matrix(-0.60398,-0.797,-0.797,0.60398,3272.35,1625.89)">
                        <path d="M973.634,2138.56L967.886,2149.33L972.761,2147.69" style="fill:none;stroke:black;stroke-width:2.29px;"/>
                    </g>
                </g>
            </g>
        </g>
        <g transform="matrix(1,0,0,1,-245.062,-501.321)">
            <g transform="matrix(1,0,0,1,-339.806,197.306)">
                <g transform="matrix(1.26453,0,0,1,-247.257,785.399)">
                    <rect x="979.449" y="1272.55" width="41.462" height="59.496" style="fill:white;stroke:black;stroke-width:2.01px;"/>
                </g>
                <g transform="matrix(1,0,0,1,130.426,-43.5024)">
                    <g transform="matrix(1,0,0,1,-125.41,841.395)">
                        <g transform="matrix(41.6667,0,0,41.6667,990.212,1301.51)">
                            <path d="M0.747,-0.329C0.747,-0.527 0.61,-0.658 0.397,-0.658C0.194,-0.658 0.052,-0.506 0.052,-0.31C0.052,-0.122 0.2,0.01 0.398,0.01C0.612,0.01 0.747,-0.129 0.747,-0.329ZM0.384,-0.603C0.525,-0.603 0.586,-0.518 0.586,-0.31C0.586,-0.131 0.532,-0.045 0.418,-0.045C0.298,-0.045 0.213,-0.135 0.213,-0.327C0.213,-0.537 0.288,-0.603 0.384,-0.603Z" style="fill-rule:nonzero;stroke:black;stroke-width:0.02px;stroke-linecap:butt;stroke-miterlimit:2;"/>
                        </g>
                    </g>
                    <g transform="matrix(1,0,0,1,-76.9274,37.1954)">
                        <g transform="matrix(20.8333,0,0,20.8333,975.197,2109.66)">
                            <path d="M0.222,-0.553C0.274,-0.553 0.328,-0.505 0.328,-0.435C0.328,-0.393 0.316,-0.34 0.29,-0.301C0.218,-0.194 0.104,-0.094 0.054,-0.047C0.053,-0.043 0.053,-0.039 0.053,-0.034C0.053,-0.019 0.058,-0.004 0.063,0.005C0.137,0.003 0.179,-0 0.252,-0C0.324,-0 0.354,0.002 0.426,0.005C0.424,-0.005 0.423,-0.017 0.423,-0.028C0.423,-0.044 0.424,-0.06 0.428,-0.075C0.371,-0.07 0.341,-0.067 0.245,-0.067C0.21,-0.067 0.19,-0.067 0.163,-0.065C0.162,-0.067 0.162,-0.068 0.162,-0.07C0.162,-0.079 0.172,-0.09 0.179,-0.097C0.228,-0.144 0.275,-0.189 0.341,-0.278C0.378,-0.328 0.414,-0.392 0.414,-0.449C0.414,-0.544 0.35,-0.61 0.238,-0.61C0.147,-0.61 0.089,-0.559 0.066,-0.529L0.088,-0.46L0.101,-0.459C0.115,-0.489 0.12,-0.51 0.145,-0.53C0.165,-0.546 0.194,-0.553 0.222,-0.553Z" style="fill-rule:nonzero;stroke:black;stroke-width:0.05px;stroke-linecap:butt;stroke-miterlimit:2;"/>
                        </g>
                    </g>
                </g>
            </g>
            <g transform="matrix(1,0,0,1,-278.46,183.716)">
                <g transform="matrix(1,0,0,1,11.3514,-43.2264)">
                    <path d="M968.637,2165.5C968.637,2164.14 969.743,2163.03 971.105,2163.03C972.468,2163.03 973.573,2164.14 973.573,2165.5C974.255,2164.32 975.765,2163.92 976.945,2164.6C978.125,2165.28 978.529,2166.79 977.848,2167.97C979.028,2167.29 980.539,2167.69 981.22,2168.87C981.901,2170.05 981.496,2171.56 980.316,2172.24C981.679,2172.24 982.784,2173.35 982.784,2174.71C982.784,2176.08 981.679,2177.18 980.316,2177.18C981.496,2177.86 981.901,2179.37 981.22,2180.55C980.539,2181.73 979.028,2182.14 977.848,2181.46C978.529,2182.64 978.125,2184.15 976.945,2184.83C975.765,2185.51 974.255,2185.1 973.573,2183.93C973.573,2185.29 972.468,2186.39 971.105,2186.39C969.743,2186.39 968.637,2185.29 968.637,2183.93C967.956,2185.1 966.445,2185.51 965.266,2184.83C964.086,2184.15 963.681,2182.64 964.362,2181.46C963.183,2182.14 961.672,2181.73 960.991,2180.55C960.31,2179.37 960.715,2177.86 961.894,2177.18C960.532,2177.18 959.426,2176.08 959.426,2174.71C959.426,2173.35 960.532,2172.24 961.894,2172.24C960.715,2171.56 960.31,2170.05 960.991,2168.87C961.672,2167.69 963.183,2167.29 964.362,2167.97C963.681,2166.79 964.086,2165.28 965.266,2164.6C966.445,2163.92 967.956,2164.32 968.637,2165.5Z" style="fill:white;stroke:black;stroke-width:2.29px;"/>
                </g>
                <g>
                    <g transform="matrix(0.994131,0.108182,-0.108182,0.994131,237.634,-92.4362)">
                        <path d="M973.634,2138.56L967.886,2149.33L972.761,2147.69" style="fill:none;stroke:black;stroke-width:2.29px;"/>
                    </g>
                    <g transform="matrix(-0.60398,-0.797,-0.797,0.60398,3272.35,1625.89)">
                        <path d="M973.634,2138.56L967.886,2149.33L972.761,2147.69" style="fill:none;stroke:black;stroke-width:2.29px;"/>
                    </g>
                </g>
                <g transform="matrix(0.443215,-0.896416,0.896416,0.443215,-1364.39,2068.19)">
                    <g transform="matrix(0.994131,0.108182,-0.108182,0.994131,237.634,-92.4362)">
                        <path d="M973.634,2138.56L967.886,2149.33L972.761,2147.69" style="fill:none;stroke:black;stroke-width:2.29px;"/>
                    </g>
                    <g transform="matrix(-0.60398,-0.797,-0.797,0.60398,3272.35,1625.89)">
                        <path d="M973.634,2138.56L967.886,2149.33L972.761,2147.69" style="fill:none;stroke:black;stroke-width:2.29px;"/>
                    </g>
                </g>
            </g>
        </g>
        <g transform="matrix(1,0,0,1,-496.715,-498.342)">
            <g transform="matrix(1,0,0,1,-134.848,42.8433)">
                <g transform="matrix(1.26453,0,0,1,-247.257,785.399)">
                    <rect x="979.449" y="1272.55" width="41.462" height="59.496" style="fill:white;stroke:black;stroke-width:2.01px;"/>
                </g>
                <g transform="matrix(1,0,0,1,132.812,-43.5024)">
                    <g transform="matrix(1,0,0,1,-125.41,841.395)">
                        <g transform="matrix(41.6667,0,0,41.6667,990.212,1301.51)">
                            <path d="M0.747,-0.329C0.747,-0.527 0.61,-0.658 0.397,-0.658C0.194,-0.658 0.052,-0.506 0.052,-0.31C0.052,-0.122 0.2,0.01 0.398,0.01C0.612,0.01 0.747,-0.129 0.747,-0.329ZM0.384,-0.603C0.525,-0.603 0.586,-0.518 0.586,-0.31C0.586,-0.131 0.532,-0.045 0.418,-0.045C0.298,-0.045 0.213,-0.135 0.213,-0.327C0.213,-0.537 0.288,-0.603 0.384,-0.603Z" style="fill-rule:nonzero;stroke:black;stroke-width:0.02px;stroke-linecap:butt;stroke-miterlimit:2;"/>
                        </g>
                    </g>
                    <g transform="matrix(1,0,0,1,-78.9274,37.1954)">
                        <g transform="matrix(20.8333,0,0,20.8333,975.197,2109.66)">
                            <path d="M0.286,-0.189L0.286,-0.443C0.286,-0.551 0.292,-0.591 0.294,-0.605C0.294,-0.61 0.291,-0.61 0.287,-0.61C0.222,-0.589 0.146,-0.55 0.068,-0.526L0.074,-0.497C0.119,-0.502 0.168,-0.513 0.188,-0.513C0.206,-0.513 0.206,-0.473 0.206,-0.437L0.206,-0.189C0.206,-0.111 0.205,-0.057 0.198,-0L0.199,0.003C0.199,0.003 0.227,-0 0.245,-0C0.265,-0 0.293,0.003 0.293,0.003L0.295,-0C0.288,-0.06 0.286,-0.11 0.286,-0.189Z" style="fill-rule:nonzero;stroke:black;stroke-width:0.05px;stroke-linecap:butt;stroke-miterlimit:2;"/>
                        </g>
                    </g>
                </g>
            </g>
            <g transform="matrix(1,0,0,1,-72.6345,28.086)">
                <g transform="matrix(1,0,0,1,11.3514,-43.2264)">
                    <path d="M968.637,2165.5C968.637,2164.14 969.743,2163.03 971.105,2163.03C972.468,2163.03 973.573,2164.14 973.573,2165.5C974.255,2164.32 975.765,2163.92 976.945,2164.6C978.125,2165.28 978.529,2166.79 977.848,2167.97C979.028,2167.29 980.539,2167.69 981.22,2168.87C981.901,2170.05 981.496,2171.56 980.316,2172.24C981.679,2172.24 982.784,2173.35 982.784,2174.71C982.784,2176.08 981.679,2177.18 980.316,2177.18C981.496,2177.86 981.901,2179.37 981.22,2180.55C980.539,2181.73 979.028,2182.14 977.848,2181.46C978.529,2182.64 978.125,2184.15 976.945,2184.83C975.765,2185.51 974.255,2185.1 973.573,2183.93C973.573,2185.29 972.468,2186.39 971.105,2186.39C969.743,2186.39 968.637,2185.29 968.637,2183.93C967.956,2185.1 966.445,2185.51 965.266,2184.83C964.086,2184.15 963.681,2182.64 964.362,2181.46C963.183,2182.14 961.672,2181.73 960.991,2180.55C960.31,2179.37 960.715,2177.86 961.894,2177.18C960.532,2177.18 959.426,2176.08 959.426,2174.71C959.426,2173.35 960.532,2172.24 961.894,2172.24C960.715,2171.56 960.31,2170.05 960.991,2168.87C961.672,2167.69 963.183,2167.29 964.362,2167.97C963.681,2166.79 964.086,2165.28 965.266,2164.6C966.445,2163.92 967.956,2164.32 968.637,2165.5Z" style="fill:white;stroke:black;stroke-width:2.29px;"/>
                </g>
                <g>
                    <g transform="matrix(0.994131,0.108182,-0.108182,0.994131,237.634,-92.4362)">
                        <path d="M973.634,2138.56L967.886,2149.33L972.761,2147.69" style="fill:none;stroke:black;stroke-width:2.29px;"/>
                    </g>
                    <g transform="matrix(-0.60398,-0.797,-0.797,0.60398,3272.35,1625.89)">
                        <path d="M973.634,2138.56L967.886,2149.33L972.761,2147.69" style="fill:none;stroke:black;stroke-width:2.29px;"/>
                    </g>
                </g>
                <g transform="matrix(0.443215,-0.896416,0.896416,0.443215,-1364.39,2068.19)">
                    <g transform="matrix(0.994131,0.108182,-0.108182,0.994131,237.634,-92.4362)">
                        <path d="M973.634,2138.56L967.886,2149.33L972.761,2147.69" style="fill:none;stroke:black;stroke-width:2.29px;"/>
                    </g>
                    <g transform="matrix(-0.60398,-0.797,-0.797,0.60398,3272.35,1625.89)">
                        <path d="M973.634,2138.56L967.886,2149.33L972.761,2147.69" style="fill:none;stroke:black;stroke-width:2.29px;"/>
                    </g>
                </g>
            </g>
        </g>
        <g transform="matrix(1,0,0,1,-219.426,-653.389)">
            <g transform="matrix(1,0,0,1,-339.806,197.306)">
                <g transform="matrix(1.26453,0,0,1,-247.257,785.399)">
                    <rect x="979.449" y="1272.55" width="41.462" height="59.496" style="fill:white;stroke:black;stroke-width:2.01px;"/>
                </g>
                <g transform="matrix(1,0,0,1,130.426,-43.5024)">
                    <g transform="matrix(1,0,0,1,-125.41,841.395)">
                        <g transform="matrix(41.6667,0,0,41.6667,990.212,1301.51)">
                            <path d="M0.747,-0.329C0.747,-0.527 0.61,-0.658 0.397,-0.658C0.194,-0.658 0.052,-0.506 0.052,-0.31C0.052,-0.122 0.2,0.01 0.398,0.01C0.612,0.01 0.747,-0.129 0.747,-0.329ZM0.384,-0.603C0.525,-0.603 0.586,-0.518 0.586,-0.31C0.586,-0.131 0.532,-0.045 0.418,-0.045C0.298,-0.045 0.213,-0.135 0.213,-0.327C0.213,-0.537 0.288,-0.603 0.384,-0.603Z" style="fill-rule:nonzero;stroke:black;stroke-width:0.02px;stroke-linecap:butt;stroke-miterlimit:2;"/>
                        </g>
                    </g>
                    <g transform="matrix(1,0,0,1,-76.9274,37.1954)">
                        <g transform="matrix(20.8333,0,0,20.8333,975.197,2109.66)">
                            <path d="M0.222,-0.553C0.274,-0.553 0.328,-0.505 0.328,-0.435C0.328,-0.393 0.316,-0.34 0.29,-0.301C0.218,-0.194 0.104,-0.094 0.054,-0.047C0.053,-0.043 0.053,-0.039 0.053,-0.034C0.053,-0.019 0.058,-0.004 0.063,0.005C0.137,0.003 0.179,-0 0.252,-0C0.324,-0 0.354,0.002 0.426,0.005C0.424,-0.005 0.423,-0.017 0.423,-0.028C0.423,-0.044 0.424,-0.06 0.428,-0.075C0.371,-0.07 0.341,-0.067 0.245,-0.067C0.21,-0.067 0.19,-0.067 0.163,-0.065C0.162,-0.067 0.162,-0.068 0.162,-0.07C0.162,-0.079 0.172,-0.09 0.179,-0.097C0.228,-0.144 0.275,-0.189 0.341,-0.278C0.378,-0.328 0.414,-0.392 0.414,-0.449C0.414,-0.544 0.35,-0.61 0.238,-0.61C0.147,-0.61 0.089,-0.559 0.066,-0.529L0.088,-0.46L0.101,-0.459C0.115,-0.489 0.12,-0.51 0.145,-0.53C0.165,-0.546 0.194,-0.553 0.222,-0.553Z" style="fill-rule:nonzero;stroke:black;stroke-width:0.05px;stroke-linecap:butt;stroke-miterlimit:2;"/>
                        </g>
                    </g>
                </g>
            </g>
            <g transform="matrix(1,0,0,1,-278.46,183.716)">
                <g transform="matrix(1,0,0,1,11.3514,-43.2264)">
                    <path d="M968.637,2165.5C968.637,2164.14 969.743,2163.03 971.105,2163.03C972.468,2163.03 973.573,2164.14 973.573,2165.5C974.255,2164.32 975.765,2163.92 976.945,2164.6C978.125,2165.28 978.529,2166.79 977.848,2167.97C979.028,2167.29 980.539,2167.69 981.22,2168.87C981.901,2170.05 981.496,2171.56 980.316,2172.24C981.679,2172.24 982.784,2173.35 982.784,2174.71C982.784,2176.08 981.679,2177.18 980.316,2177.18C981.496,2177.86 981.901,2179.37 981.22,2180.55C980.539,2181.73 979.028,2182.14 977.848,2181.46C978.529,2182.64 978.125,2184.15 976.945,2184.83C975.765,2185.51 974.255,2185.1 973.573,2183.93C973.573,2185.29 972.468,2186.39 971.105,2186.39C969.743,2186.39 968.637,2185.29 968.637,2183.93C967.956,2185.1 966.445,2185.51 965.266,2184.83C964.086,2184.15 963.681,2182.64 964.362,2181.46C963.183,2182.14 961.672,2181.73 960.991,2180.55C960.31,2179.37 960.715,2177.86 961.894,2177.18C960.532,2177.18 959.426,2176.08 959.426,2174.71C959.426,2173.35 960.532,2172.24 961.894,2172.24C960.715,2171.56 960.31,2170.05 960.991,2168.87C961.672,2167.69 963.183,2167.29 964.362,2167.97C963.681,2166.79 964.086,2165.28 965.266,2164.6C966.445,2163.92 967.956,2164.32 968.637,2165.5Z" style="fill:white;stroke:black;stroke-width:2.29px;"/>
                </g>
                <g>
                    <g transform="matrix(0.994131,0.108182,-0.108182,0.994131,237.634,-92.4362)">
                        <path d="M973.634,2138.56L967.886,2149.33L972.761,2147.69" style="fill:none;stroke:black;stroke-width:2.29px;"/>
                    </g>
                    <g transform="matrix(-0.60398,-0.797,-0.797,0.60398,3272.35,1625.89)">
                        <path d="M973.634,2138.56L967.886,2149.33L972.761,2147.69" style="fill:none;stroke:black;stroke-width:2.29px;"/>
                    </g>
                </g>
                <g transform="matrix(0.443215,-0.896416,0.896416,0.443215,-1364.39,2068.19)">
                    <g transform="matrix(0.994131,0.108182,-0.108182,0.994131,237.634,-92.4362)">
                        <path d="M973.634,2138.56L967.886,2149.33L972.761,2147.69" style="fill:none;stroke:black;stroke-width:2.29px;"/>
                    </g>
                    <g transform="matrix(-0.60398,-0.797,-0.797,0.60398,3272.35,1625.89)">
                        <path d="M973.634,2138.56L967.886,2149.33L972.761,2147.69" style="fill:none;stroke:black;stroke-width:2.29px;"/>
                    </g>
                </g>
            </g>
        </g>
    </g>
</svg>
