<?xml version="1.0" encoding="UTF-8" standalone="no"?>
<!DOCTYPE svg PUBLIC "-//W3C//DTD SVG 1.1//EN" "http://www.w3.org/Graphics/SVG/1.1/DTD/svg11.dtd">
<svg width="100%" height="100%" viewBox="0 0 716 672" version="1.1" xmlns="http://www.w3.org/2000/svg" xmlns:xlink="http://www.w3.org/1999/xlink" xml:space="preserve" xmlns:serif="http://www.serif.com/" style="fill-rule:evenodd;clip-rule:evenodd;stroke-linecap:round;stroke-linejoin:round;stroke-miterlimit:1.5;">
    <g transform="matrix(1,0,0,1,-1318.72,-2244.3)">
        <g transform="matrix(1,0,0,1,634.187,1917.1)">
            <g transform="matrix(2.44181,0,0,2.44181,25.0826,-473.848)">
                <g transform="matrix(1,0,0,1,88.8194,-159.708)">
                    <path d="M248.248,488.23L314.596,521.978L314.596,589.475L248.248,623.223L181.9,589.475L181.9,521.978L248.248,488.23Z" style="fill:rgb(235,235,235);fill-opacity:0;stroke:black;stroke-width:0.94px;"/>
                </g>
                <g transform="matrix(1,0,0,1,-17.8244,-141.734)">
                    <path d="M354.9,537.765L355.064,604.967" style="fill:none;stroke:black;stroke-width:0.94px;"/>
                </g>
                <g transform="matrix(1,0,0,1,-42.3704,1.86073)">
                    <path d="M445.602,360.692L379.254,394.441L312.906,360.692" style="fill:rgb(235,235,235);fill-opacity:0;stroke:black;stroke-width:0.94px;"/>
                </g>
            </g>
            <g transform="matrix(0.892488,-0.451071,0.0124819,1.11415,603.97,408.309)">
                <g transform="matrix(2.80163,0,0,1.8502,-365.492,-262.258)">
                    <rect x="234.744" y="272.367" width="50.292" height="20.623" style="fill:white;stroke:black;stroke-width:1.22px;"/>
                </g>
                <g transform="matrix(1,0,0,1,61.2921,-10.7853)">
                    <g transform="matrix(33.3333,0,0,33.3333,237.721,281.886)">
                        <path d="M0.222,-0.379L0.26,-0.379C0.284,-0.379 0.319,-0.378 0.332,-0.377C0.334,-0.392 0.338,-0.409 0.344,-0.424L0.339,-0.432C0.32,-0.43 0.292,-0.429 0.269,-0.429L0.222,-0.429L0.222,-0.439C0.222,-0.465 0.215,-0.513 0.215,-0.535C0.215,-0.59 0.245,-0.629 0.299,-0.629C0.328,-0.629 0.355,-0.608 0.363,-0.579L0.393,-0.58C0.396,-0.608 0.407,-0.661 0.416,-0.681L0.415,-0.684C0.407,-0.689 0.371,-0.698 0.34,-0.698C0.264,-0.698 0.204,-0.673 0.162,-0.629C0.118,-0.583 0.093,-0.52 0.093,-0.459L0.093,-0.429C0.073,-0.429 0.051,-0.43 0.039,-0.432C0.034,-0.415 0.027,-0.399 0.017,-0.384L0.022,-0.377C0.039,-0.378 0.07,-0.379 0.093,-0.379L0.093,-0.2C0.093,-0.125 0.093,-0.051 0.086,-0L0.087,0.003C0.087,0.003 0.127,-0 0.162,-0C0.196,-0 0.231,0.003 0.231,0.003L0.233,-0C0.226,-0.058 0.226,-0.125 0.225,-0.2L0.222,-0.379Z" style="fill-rule:nonzero;stroke:black;stroke-width:0.04px;stroke-linecap:butt;stroke-miterlimit:2;"/>
                    </g>
                    <g transform="matrix(33.3333,0,0,33.3333,249.921,281.886)">
                        <path d="M0.041,-0.205C0.041,-0.072 0.134,0.01 0.283,0.01C0.436,0.01 0.525,-0.076 0.525,-0.214C0.525,-0.34 0.454,-0.439 0.285,-0.439C0.142,-0.439 0.041,-0.36 0.041,-0.205ZM0.278,-0.389C0.363,-0.389 0.383,-0.326 0.383,-0.187C0.383,-0.072 0.342,-0.04 0.297,-0.04C0.193,-0.04 0.183,-0.151 0.183,-0.228C0.183,-0.315 0.192,-0.389 0.278,-0.389Z" style="fill-rule:nonzero;stroke:black;stroke-width:0.04px;stroke-linecap:butt;stroke-miterlimit:2;"/>
                    </g>
                    <g transform="matrix(33.3333,0,0,33.3333,268.787,281.886)">
                        <path d="M0.086,-0.2C0.086,-0.125 0.083,-0.054 0.074,-0L0.075,0.003C0.075,0.003 0.117,-0 0.152,-0C0.186,-0 0.228,0.003 0.228,0.003L0.23,-0C0.222,-0.057 0.218,-0.125 0.218,-0.2L0.218,-0.5C0.218,-0.575 0.222,-0.627 0.23,-0.688C0.23,-0.695 0.225,-0.698 0.219,-0.698C0.194,-0.688 0.117,-0.668 0.076,-0.665L0.074,-0.662C0.082,-0.619 0.086,-0.55 0.086,-0.474L0.086,-0.2Z" style="fill-rule:nonzero;stroke:black;stroke-width:0.04px;stroke-linecap:butt;stroke-miterlimit:2;"/>
                    </g>
                    <g transform="matrix(33.3333,0,0,33.3333,278.921,281.886)">
                        <path d="M0.086,-0.2C0.086,-0.125 0.083,-0.054 0.074,-0L0.075,0.003C0.075,0.003 0.117,-0 0.152,-0C0.186,-0 0.228,0.003 0.228,0.003L0.23,-0C0.222,-0.057 0.218,-0.125 0.218,-0.2L0.218,-0.5C0.218,-0.575 0.222,-0.627 0.23,-0.688C0.23,-0.695 0.225,-0.698 0.219,-0.698C0.194,-0.688 0.117,-0.668 0.076,-0.665L0.074,-0.662C0.082,-0.619 0.086,-0.55 0.086,-0.474L0.086,-0.2Z" style="fill-rule:nonzero;stroke:black;stroke-width:0.04px;stroke-linecap:butt;stroke-miterlimit:2;"/>
                    </g>
                    <g transform="matrix(33.3333,0,0,33.3333,289.054,281.886)">
                        <path d="M0.041,-0.205C0.041,-0.072 0.134,0.01 0.283,0.01C0.436,0.01 0.525,-0.076 0.525,-0.214C0.525,-0.34 0.454,-0.439 0.285,-0.439C0.142,-0.439 0.041,-0.36 0.041,-0.205ZM0.278,-0.389C0.363,-0.389 0.383,-0.326 0.383,-0.187C0.383,-0.072 0.342,-0.04 0.297,-0.04C0.193,-0.04 0.183,-0.151 0.183,-0.228C0.183,-0.315 0.192,-0.389 0.278,-0.389Z" style="fill-rule:nonzero;stroke:black;stroke-width:0.04px;stroke-linecap:butt;stroke-miterlimit:2;"/>
                    </g>
                    <g transform="matrix(33.3333,0,0,33.3333,307.687,281.886)">
                        <path d="M0.201,0.004C0.21,0.001 0.245,0.001 0.254,0.001C0.263,0.001 0.292,0.001 0.3,0.004C0.336,-0.078 0.373,-0.16 0.411,-0.243C0.444,-0.161 0.475,-0.079 0.504,0.003C0.513,-0 0.547,-0 0.556,-0C0.565,-0 0.592,-0 0.6,0.003C0.661,-0.139 0.727,-0.289 0.793,-0.432C0.785,-0.429 0.753,-0.429 0.744,-0.429C0.735,-0.429 0.708,-0.429 0.7,-0.432C0.667,-0.327 0.619,-0.204 0.575,-0.11L0.571,-0.11C0.537,-0.217 0.508,-0.321 0.483,-0.432C0.471,-0.43 0.427,-0.429 0.414,-0.429C0.4,-0.429 0.345,-0.43 0.331,-0.432C0.348,-0.394 0.364,-0.357 0.379,-0.319C0.35,-0.241 0.316,-0.161 0.288,-0.1L0.282,-0.1C0.239,-0.211 0.202,-0.32 0.17,-0.431C0.158,-0.428 0.119,-0.428 0.106,-0.428C0.092,-0.428 0.032,-0.428 0.018,-0.431C0.084,-0.283 0.146,-0.142 0.201,0.004Z" style="fill-rule:nonzero;stroke:black;stroke-width:0.04px;stroke-linecap:butt;stroke-miterlimit:2;"/>
                    </g>
                    <g transform="matrix(33.3333,0,0,33.3333,334.454,281.886)">
                        <path d="M0.448,-0.107C0.402,-0.07 0.353,-0.066 0.311,-0.066C0.262,-0.066 0.226,-0.079 0.202,-0.105C0.18,-0.129 0.169,-0.164 0.169,-0.21L0.269,-0.21C0.369,-0.21 0.454,-0.208 0.454,-0.208L0.46,-0.214C0.46,-0.339 0.425,-0.439 0.271,-0.439C0.216,-0.439 0.156,-0.422 0.117,-0.389C0.068,-0.349 0.035,-0.289 0.035,-0.206C0.035,-0.147 0.057,-0.085 0.098,-0.042C0.132,-0.007 0.191,0.01 0.266,0.01C0.338,0.01 0.41,-0.013 0.464,-0.076C0.464,-0.089 0.458,-0.107 0.448,-0.107ZM0.173,-0.255C0.177,-0.304 0.189,-0.339 0.204,-0.359C0.216,-0.376 0.236,-0.389 0.264,-0.389C0.305,-0.389 0.329,-0.343 0.329,-0.255L0.173,-0.255Z" style="fill-rule:nonzero;stroke:black;stroke-width:0.04px;stroke-linecap:butt;stroke-miterlimit:2;"/>
                    </g>
                    <g transform="matrix(33.3333,0,0,33.3333,351.387,281.886)">
                        <path d="M0.225,-0.349L0.221,-0.352C0.221,-0.375 0.22,-0.417 0.218,-0.425C0.217,-0.432 0.215,-0.435 0.209,-0.435C0.18,-0.43 0.115,-0.43 0.08,-0.432L0.078,-0.429C0.086,-0.386 0.089,-0.31 0.089,-0.235L0.089,-0.18C0.089,-0.105 0.087,-0.054 0.079,-0L0.08,0.003C0.08,0.003 0.112,-0 0.147,-0C0.181,-0 0.229,0.003 0.229,0.003L0.231,-0C0.223,-0.057 0.221,-0.104 0.221,-0.18L0.221,-0.253C0.221,-0.33 0.29,-0.342 0.305,-0.342C0.324,-0.342 0.345,-0.337 0.363,-0.323L0.381,-0.325L0.401,-0.428L0.397,-0.432C0.38,-0.437 0.364,-0.439 0.346,-0.439C0.299,-0.439 0.251,-0.388 0.225,-0.349Z" style="fill-rule:nonzero;stroke:black;stroke-width:0.04px;stroke-linecap:butt;stroke-miterlimit:2;"/>
                    </g>
                </g>
            </g>
        </g>
        <g transform="matrix(1,0,0,1,635.007,2256.88)">
            <g transform="matrix(2.44181,0,0,2.44181,25.0826,-473.848)">
                <g transform="matrix(1,0,0,1,88.8194,-159.708)">
                    <path d="M248.248,488.23L314.596,521.978L314.596,589.475L248.248,623.223L181.9,589.475L181.9,521.978L248.248,488.23Z" style="fill:rgb(235,235,235);fill-opacity:0;stroke:black;stroke-width:0.94px;"/>
                </g>
                <g transform="matrix(1,0,0,1,-17.8244,-141.734)">
                    <path d="M354.9,537.765L355.064,604.967" style="fill:none;stroke:black;stroke-width:0.94px;"/>
                </g>
                <g transform="matrix(1,0,0,1,-42.3704,1.86073)">
                    <path d="M445.602,360.692L379.254,394.441L312.906,360.692" style="fill:rgb(235,235,235);fill-opacity:0;stroke:black;stroke-width:0.94px;"/>
                </g>
            </g>
            <g transform="matrix(0.892488,-0.451071,0.0124819,1.11415,603.97,408.309)">
                <g transform="matrix(2.80163,0,0,1.8502,-365.492,-262.258)">
                    <rect x="234.744" y="272.367" width="50.292" height="20.623" style="fill:white;stroke:black;stroke-width:1.22px;"/>
                </g>
                <g transform="matrix(1,0,0,1,61.2921,-10.7853)">
                    <g transform="matrix(33.3333,0,0,33.3333,237.721,281.886)">
                        <path d="M0.222,-0.379L0.26,-0.379C0.284,-0.379 0.319,-0.378 0.332,-0.377C0.334,-0.392 0.338,-0.409 0.344,-0.424L0.339,-0.432C0.32,-0.43 0.292,-0.429 0.269,-0.429L0.222,-0.429L0.222,-0.439C0.222,-0.465 0.215,-0.513 0.215,-0.535C0.215,-0.59 0.245,-0.629 0.299,-0.629C0.328,-0.629 0.355,-0.608 0.363,-0.579L0.393,-0.58C0.396,-0.608 0.407,-0.661 0.416,-0.681L0.415,-0.684C0.407,-0.689 0.371,-0.698 0.34,-0.698C0.264,-0.698 0.204,-0.673 0.162,-0.629C0.118,-0.583 0.093,-0.52 0.093,-0.459L0.093,-0.429C0.073,-0.429 0.051,-0.43 0.039,-0.432C0.034,-0.415 0.027,-0.399 0.017,-0.384L0.022,-0.377C0.039,-0.378 0.07,-0.379 0.093,-0.379L0.093,-0.2C0.093,-0.125 0.093,-0.051 0.086,-0L0.087,0.003C0.087,0.003 0.127,-0 0.162,-0C0.196,-0 0.231,0.003 0.231,0.003L0.233,-0C0.226,-0.058 0.226,-0.125 0.225,-0.2L0.222,-0.379Z" style="fill-rule:nonzero;stroke:black;stroke-width:0.04px;stroke-linecap:butt;stroke-miterlimit:2;"/>
                    </g>
                    <g transform="matrix(33.3333,0,0,33.3333,249.921,281.886)">
                        <path d="M0.041,-0.205C0.041,-0.072 0.134,0.01 0.283,0.01C0.436,0.01 0.525,-0.076 0.525,-0.214C0.525,-0.34 0.454,-0.439 0.285,-0.439C0.142,-0.439 0.041,-0.36 0.041,-0.205ZM0.278,-0.389C0.363,-0.389 0.383,-0.326 0.383,-0.187C0.383,-0.072 0.342,-0.04 0.297,-0.04C0.193,-0.04 0.183,-0.151 0.183,-0.228C0.183,-0.315 0.192,-0.389 0.278,-0.389Z" style="fill-rule:nonzero;stroke:black;stroke-width:0.04px;stroke-linecap:butt;stroke-miterlimit:2;"/>
                    </g>
                    <g transform="matrix(33.3333,0,0,33.3333,268.787,281.886)">
                        <path d="M0.086,-0.2C0.086,-0.125 0.083,-0.054 0.074,-0L0.075,0.003C0.075,0.003 0.117,-0 0.152,-0C0.186,-0 0.228,0.003 0.228,0.003L0.23,-0C0.222,-0.057 0.218,-0.125 0.218,-0.2L0.218,-0.5C0.218,-0.575 0.222,-0.627 0.23,-0.688C0.23,-0.695 0.225,-0.698 0.219,-0.698C0.194,-0.688 0.117,-0.668 0.076,-0.665L0.074,-0.662C0.082,-0.619 0.086,-0.55 0.086,-0.474L0.086,-0.2Z" style="fill-rule:nonzero;stroke:black;stroke-width:0.04px;stroke-linecap:butt;stroke-miterlimit:2;"/>
                    </g>
                    <g transform="matrix(33.3333,0,0,33.3333,278.921,281.886)">
                        <path d="M0.086,-0.2C0.086,-0.125 0.083,-0.054 0.074,-0L0.075,0.003C0.075,0.003 0.117,-0 0.152,-0C0.186,-0 0.228,0.003 0.228,0.003L0.23,-0C0.222,-0.057 0.218,-0.125 0.218,-0.2L0.218,-0.5C0.218,-0.575 0.222,-0.627 0.23,-0.688C0.23,-0.695 0.225,-0.698 0.219,-0.698C0.194,-0.688 0.117,-0.668 0.076,-0.665L0.074,-0.662C0.082,-0.619 0.086,-0.55 0.086,-0.474L0.086,-0.2Z" style="fill-rule:nonzero;stroke:black;stroke-width:0.04px;stroke-linecap:butt;stroke-miterlimit:2;"/>
                    </g>
                    <g transform="matrix(33.3333,0,0,33.3333,289.054,281.886)">
                        <path d="M0.041,-0.205C0.041,-0.072 0.134,0.01 0.283,0.01C0.436,0.01 0.525,-0.076 0.525,-0.214C0.525,-0.34 0.454,-0.439 0.285,-0.439C0.142,-0.439 0.041,-0.36 0.041,-0.205ZM0.278,-0.389C0.363,-0.389 0.383,-0.326 0.383,-0.187C0.383,-0.072 0.342,-0.04 0.297,-0.04C0.193,-0.04 0.183,-0.151 0.183,-0.228C0.183,-0.315 0.192,-0.389 0.278,-0.389Z" style="fill-rule:nonzero;stroke:black;stroke-width:0.04px;stroke-linecap:butt;stroke-miterlimit:2;"/>
                    </g>
                    <g transform="matrix(33.3333,0,0,33.3333,307.687,281.886)">
                        <path d="M0.201,0.004C0.21,0.001 0.245,0.001 0.254,0.001C0.263,0.001 0.292,0.001 0.3,0.004C0.336,-0.078 0.373,-0.16 0.411,-0.243C0.444,-0.161 0.475,-0.079 0.504,0.003C0.513,-0 0.547,-0 0.556,-0C0.565,-0 0.592,-0 0.6,0.003C0.661,-0.139 0.727,-0.289 0.793,-0.432C0.785,-0.429 0.753,-0.429 0.744,-0.429C0.735,-0.429 0.708,-0.429 0.7,-0.432C0.667,-0.327 0.619,-0.204 0.575,-0.11L0.571,-0.11C0.537,-0.217 0.508,-0.321 0.483,-0.432C0.471,-0.43 0.427,-0.429 0.414,-0.429C0.4,-0.429 0.345,-0.43 0.331,-0.432C0.348,-0.394 0.364,-0.357 0.379,-0.319C0.35,-0.241 0.316,-0.161 0.288,-0.1L0.282,-0.1C0.239,-0.211 0.202,-0.32 0.17,-0.431C0.158,-0.428 0.119,-0.428 0.106,-0.428C0.092,-0.428 0.032,-0.428 0.018,-0.431C0.084,-0.283 0.146,-0.142 0.201,0.004Z" style="fill-rule:nonzero;stroke:black;stroke-width:0.04px;stroke-linecap:butt;stroke-miterlimit:2;"/>
                    </g>
                    <g transform="matrix(33.3333,0,0,33.3333,334.454,281.886)">
                        <path d="M0.448,-0.107C0.402,-0.07 0.353,-0.066 0.311,-0.066C0.262,-0.066 0.226,-0.079 0.202,-0.105C0.18,-0.129 0.169,-0.164 0.169,-0.21L0.269,-0.21C0.369,-0.21 0.454,-0.208 0.454,-0.208L0.46,-0.214C0.46,-0.339 0.425,-0.439 0.271,-0.439C0.216,-0.439 0.156,-0.422 0.117,-0.389C0.068,-0.349 0.035,-0.289 0.035,-0.206C0.035,-0.147 0.057,-0.085 0.098,-0.042C0.132,-0.007 0.191,0.01 0.266,0.01C0.338,0.01 0.41,-0.013 0.464,-0.076C0.464,-0.089 0.458,-0.107 0.448,-0.107ZM0.173,-0.255C0.177,-0.304 0.189,-0.339 0.204,-0.359C0.216,-0.376 0.236,-0.389 0.264,-0.389C0.305,-0.389 0.329,-0.343 0.329,-0.255L0.173,-0.255Z" style="fill-rule:nonzero;stroke:black;stroke-width:0.04px;stroke-linecap:butt;stroke-miterlimit:2;"/>
                    </g>
                    <g transform="matrix(33.3333,0,0,33.3333,351.387,281.886)">
                        <path d="M0.225,-0.349L0.221,-0.352C0.221,-0.375 0.22,-0.417 0.218,-0.425C0.217,-0.432 0.215,-0.435 0.209,-0.435C0.18,-0.43 0.115,-0.43 0.08,-0.432L0.078,-0.429C0.086,-0.386 0.089,-0.31 0.089,-0.235L0.089,-0.18C0.089,-0.105 0.087,-0.054 0.079,-0L0.08,0.003C0.08,0.003 0.112,-0 0.147,-0C0.181,-0 0.229,0.003 0.229,0.003L0.231,-0C0.223,-0.057 0.221,-0.104 0.221,-0.18L0.221,-0.253C0.221,-0.33 0.29,-0.342 0.305,-0.342C0.324,-0.342 0.345,-0.337 0.363,-0.323L0.381,-0.325L0.401,-0.428L0.397,-0.432C0.38,-0.437 0.364,-0.439 0.346,-0.439C0.299,-0.439 0.251,-0.388 0.225,-0.349Z" style="fill-rule:nonzero;stroke:black;stroke-width:0.04px;stroke-linecap:butt;stroke-miterlimit:2;"/>
                    </g>
                </g>
            </g>
        </g>
        <g transform="matrix(1,0,0,1,-10.0084,0)">
            <g transform="matrix(1,0,0,1,1221.03,-88.484)">
                <g transform="matrix(1,0,0,1,-291.799,300.629)">
                    <g transform="matrix(1,0,0,1,-134.848,42.8433)">
                        <g transform="matrix(1.26453,0,0,1,-247.257,785.399)">
                            <rect x="979.449" y="1272.55" width="41.462" height="59.496" style="fill:white;stroke:black;stroke-width:2.01px;"/>
                        </g>
                        <g transform="matrix(1,0,0,1,11.6045,799.71)">
                            <g transform="matrix(41.6667,0,0,41.6667,990.212,1301.51)">
                                <path d="M0.245,-0.296C0.263,-0.296 0.282,-0.296 0.302,-0.297C0.33,-0.262 0.357,-0.215 0.384,-0.176C0.434,-0.104 0.478,-0.031 0.489,0.003C0.508,-0 0.548,-0 0.567,-0C0.587,-0 0.64,-0 0.66,0.003L0.662,-0C0.611,-0.058 0.507,-0.231 0.444,-0.315C0.529,-0.336 0.597,-0.383 0.597,-0.483C0.597,-0.548 0.573,-0.592 0.532,-0.618C0.486,-0.648 0.419,-0.652 0.353,-0.652C0.328,-0.652 0.207,-0.645 0.177,-0.645C0.143,-0.645 0.093,-0.648 0.093,-0.648L0.091,-0.645C0.099,-0.588 0.103,-0.52 0.103,-0.445L0.103,-0.2C0.103,-0.125 0.099,-0.054 0.091,-0L0.092,0.003C0.092,0.003 0.138,-0 0.173,-0C0.207,-0 0.253,0.003 0.253,0.003L0.255,-0C0.247,-0.057 0.245,-0.125 0.245,-0.2L0.245,-0.296ZM0.334,-0.602C0.395,-0.602 0.442,-0.6 0.442,-0.482C0.442,-0.357 0.396,-0.352 0.299,-0.352L0.245,-0.352L0.245,-0.553C0.245,-0.582 0.263,-0.602 0.334,-0.602Z" style="fill-rule:nonzero;stroke:black;stroke-width:0.02px;stroke-linecap:butt;stroke-miterlimit:2;"/>
                            </g>
                        </g>
                    </g>
                    <g transform="matrix(1,0,0,1,-72.6345,28.086)">
                        <g transform="matrix(1,0,0,1,11.3514,-43.2264)">
                            <path d="M968.637,2165.5C968.637,2164.14 969.743,2163.03 971.105,2163.03C972.468,2163.03 973.573,2164.14 973.573,2165.5C974.255,2164.32 975.765,2163.92 976.945,2164.6C978.125,2165.28 978.529,2166.79 977.848,2167.97C979.028,2167.29 980.539,2167.69 981.22,2168.87C981.901,2170.05 981.496,2171.56 980.316,2172.24C981.679,2172.24 982.784,2173.35 982.784,2174.71C982.784,2176.08 981.679,2177.18 980.316,2177.18C981.496,2177.86 981.901,2179.37 981.22,2180.55C980.539,2181.73 979.028,2182.14 977.848,2181.46C978.529,2182.64 978.125,2184.15 976.945,2184.83C975.765,2185.51 974.255,2185.1 973.573,2183.93C973.573,2185.29 972.468,2186.39 971.105,2186.39C969.743,2186.39 968.637,2185.29 968.637,2183.93C967.956,2185.1 966.445,2185.51 965.266,2184.83C964.086,2184.15 963.681,2182.64 964.362,2181.46C963.183,2182.14 961.672,2181.73 960.991,2180.55C960.31,2179.37 960.715,2177.86 961.894,2177.18C960.532,2177.18 959.426,2176.08 959.426,2174.71C959.426,2173.35 960.532,2172.24 961.894,2172.24C960.715,2171.56 960.31,2170.05 960.991,2168.87C961.672,2167.69 963.183,2167.29 964.362,2167.97C963.681,2166.79 964.086,2165.28 965.266,2164.6C966.445,2163.92 967.956,2164.32 968.637,2165.5Z" style="fill:white;stroke:black;stroke-width:2.29px;"/>
                        </g>
                        <g>
                            <g transform="matrix(0.994131,0.108182,-0.108182,0.994131,237.634,-92.4362)">
                                <path d="M973.634,2138.56L967.886,2149.33L972.761,2147.69" style="fill:none;stroke:black;stroke-width:2.29px;"/>
                            </g>
                            <g transform="matrix(-0.60398,-0.797,-0.797,0.60398,3272.35,1625.89)">
                                <path d="M973.634,2138.56L967.886,2149.33L972.761,2147.69" style="fill:none;stroke:black;stroke-width:2.29px;"/>
                            </g>
                        </g>
                        <g transform="matrix(0.443215,-0.896416,0.896416,0.443215,-1364.39,2068.19)">
                            <g transform="matrix(0.994131,0.108182,-0.108182,0.994131,237.634,-92.4362)">
                                <path d="M973.634,2138.56L967.886,2149.33L972.761,2147.69" style="fill:none;stroke:black;stroke-width:2.29px;"/>
                            </g>
                            <g transform="matrix(-0.60398,-0.797,-0.797,0.60398,3272.35,1625.89)">
                                <path d="M973.634,2138.56L967.886,2149.33L972.761,2147.69" style="fill:none;stroke:black;stroke-width:2.29px;"/>
                            </g>
                        </g>
                    </g>
                </g>
                <g transform="matrix(1,0,0,1,-397.233,328.848)">
                    <g transform="matrix(1,0,0,1,11.3514,-43.2264)">
                        <path d="M968.637,2165.5C968.637,2164.14 969.743,2163.03 971.105,2163.03C972.468,2163.03 973.573,2164.14 973.573,2165.5C974.255,2164.32 975.765,2163.92 976.945,2164.6C978.125,2165.28 978.529,2166.79 977.848,2167.97C979.028,2167.29 980.539,2167.69 981.22,2168.87C981.901,2170.05 981.496,2171.56 980.316,2172.24C981.679,2172.24 982.784,2173.35 982.784,2174.71C982.784,2176.08 981.679,2177.18 980.316,2177.18C981.496,2177.86 981.901,2179.37 981.22,2180.55C980.539,2181.73 979.028,2182.14 977.848,2181.46C978.529,2182.64 978.125,2184.15 976.945,2184.83C975.765,2185.51 974.255,2185.1 973.573,2183.93C973.573,2185.29 972.468,2186.39 971.105,2186.39C969.743,2186.39 968.637,2185.29 968.637,2183.93C967.956,2185.1 966.445,2185.51 965.266,2184.83C964.086,2184.15 963.681,2182.64 964.362,2181.46C963.183,2182.14 961.672,2181.73 960.991,2180.55C960.31,2179.37 960.715,2177.86 961.894,2177.18C960.532,2177.18 959.426,2176.08 959.426,2174.71C959.426,2173.35 960.532,2172.24 961.894,2172.24C960.715,2171.56 960.31,2170.05 960.991,2168.87C961.672,2167.69 963.183,2167.29 964.362,2167.97C963.681,2166.79 964.086,2165.28 965.266,2164.6C966.445,2163.92 967.956,2164.32 968.637,2165.5Z" style="fill:white;stroke:black;stroke-width:2.29px;"/>
                    </g>
                    <g>
                        <g transform="matrix(0.994131,0.108182,-0.108182,0.994131,237.634,-92.4362)">
                            <path d="M973.634,2138.56L967.886,2149.33L972.761,2147.69" style="fill:none;stroke:black;stroke-width:2.29px;"/>
                        </g>
                        <g transform="matrix(-0.60398,-0.797,-0.797,0.60398,3272.35,1625.89)">
                            <path d="M973.634,2138.56L967.886,2149.33L972.761,2147.69" style="fill:none;stroke:black;stroke-width:2.29px;"/>
                        </g>
                    </g>
                    <g transform="matrix(0.443215,-0.896416,0.896416,0.443215,-1364.39,2068.19)">
                        <g transform="matrix(0.994131,0.108182,-0.108182,0.994131,237.634,-92.4362)">
                            <path d="M973.634,2138.56L967.886,2149.33L972.761,2147.69" style="fill:none;stroke:black;stroke-width:2.29px;"/>
                        </g>
                        <g transform="matrix(-0.60398,-0.797,-0.797,0.60398,3272.35,1625.89)">
                            <path d="M973.634,2138.56L967.886,2149.33L972.761,2147.69" style="fill:none;stroke:black;stroke-width:2.29px;"/>
                        </g>
                    </g>
                </g>
            </g>
            <g transform="matrix(1.10867,0,0,1.14743,-198.102,-336.205)">
                <rect x="1750.78" y="2278.74" width="108.52" height="106.499" style="fill:none;stroke:black;stroke-width:2.03px;stroke-linejoin:miter;stroke-miterlimit:5;"/>
            </g>
            <g transform="matrix(1,0,0,1,-20.2745,15.6609)">
                <g transform="matrix(20.8333,0,0,20.8333,1768.91,2282.21)">
                    <path d="M0.227,-0.445L0.227,-0.2C0.227,-0.125 0.225,-0.054 0.217,-0L0.219,0.003C0.231,0.001 0.258,-0 0.27,-0C0.282,-0 0.309,0.001 0.321,0.003L0.323,-0C0.315,-0.057 0.313,-0.125 0.313,-0.2L0.313,-0.445C0.313,-0.462 0.314,-0.565 0.321,-0.589C0.455,-0.589 0.523,-0.575 0.523,-0.575L0.525,-0.579C0.523,-0.594 0.523,-0.617 0.525,-0.645L0.523,-0.648C0.507,-0.646 0.484,-0.645 0.463,-0.645L0.077,-0.645C0.056,-0.645 0.033,-0.646 0.017,-0.648L0.015,-0.645C0.017,-0.617 0.017,-0.594 0.015,-0.579L0.017,-0.575C0.017,-0.575 0.085,-0.589 0.219,-0.589C0.226,-0.565 0.227,-0.462 0.227,-0.445Z" style="fill-rule:nonzero;stroke:black;stroke-width:0.05px;stroke-linecap:butt;stroke-miterlimit:2;"/>
                </g>
                <g transform="matrix(20.8333,0,0,20.8333,1779.45,2282.21)">
                    <path d="M0.185,-0.207L0.028,0.003C0.038,0.001 0.054,-0 0.064,-0C0.074,-0 0.098,0.001 0.108,0.003C0.146,-0.054 0.176,-0.109 0.216,-0.165C0.256,-0.109 0.286,-0.054 0.322,0.003C0.337,0.001 0.357,-0 0.373,-0C0.388,-0 0.415,0.001 0.43,0.003C0.37,-0.075 0.321,-0.152 0.267,-0.23L0.431,-0.432C0.418,-0.43 0.396,-0.429 0.386,-0.429C0.375,-0.429 0.36,-0.43 0.349,-0.432C0.311,-0.376 0.279,-0.323 0.237,-0.269C0.197,-0.323 0.17,-0.376 0.136,-0.432C0.119,-0.43 0.099,-0.429 0.082,-0.429C0.066,-0.429 0.04,-0.43 0.024,-0.432L0.185,-0.207Z" style="fill-rule:nonzero;stroke:black;stroke-width:0.05px;stroke-linecap:butt;stroke-miterlimit:2;"/>
                </g>
            </g>
        </g>
        <g transform="matrix(1,0,0,1,138.351,2.10938)">
            <g transform="matrix(0.61547,0,0,0.61547,614.669,921.395)">
                <path d="M2079.89,2340.46L2079.89,2494.5C2079.89,2506.85 2069.87,2516.88 2057.51,2516.88L1938.93,2516.88C1926.58,2516.88 1916.55,2506.85 1916.55,2494.5L1916.55,2340.46C1916.55,2328.11 1926.58,2318.08 1938.93,2318.08L2057.51,2318.08C2069.87,2318.08 2079.89,2328.11 2079.89,2340.46Z" style="fill:white;stroke:black;stroke-width:3.72px;"/>
            </g>
            <g transform="matrix(1,0,0,1,-187.544,26.3892)">
                <g transform="matrix(1.11545,0,0,0.566895,-240.451,1026.47)">
                    <rect x="2002.33" y="2346.65" width="69.937" height="6.786" style="stroke:black;stroke-width:2.59px;stroke-linejoin:miter;stroke-miterlimit:5;"/>
                </g>
                <g transform="matrix(0.655214,0,0,0.587398,681.098,1026.61)">
                    <rect x="2002.33" y="2346.65" width="69.937" height="6.786" style="stroke:black;stroke-width:3.68px;stroke-linejoin:miter;stroke-miterlimit:5;"/>
                </g>
                <g transform="matrix(1,0,0,1,-1.89217,-146.451)">
                    <g transform="matrix(20.8333,0,0,20.8333,1993.53,2524.71)">
                        <path d="M0.286,-0.189L0.286,-0.443C0.286,-0.551 0.292,-0.591 0.294,-0.605C0.294,-0.61 0.291,-0.61 0.287,-0.61C0.222,-0.589 0.146,-0.55 0.068,-0.526L0.074,-0.497C0.119,-0.502 0.168,-0.513 0.188,-0.513C0.206,-0.513 0.206,-0.473 0.206,-0.437L0.206,-0.189C0.206,-0.111 0.205,-0.057 0.198,-0L0.199,0.003C0.199,0.003 0.227,-0 0.245,-0C0.265,-0 0.293,0.003 0.293,0.003L0.295,-0C0.288,-0.06 0.286,-0.11 0.286,-0.189Z" style="fill-rule:nonzero;stroke:black;stroke-width:0.05px;stroke-linecap:butt;stroke-miterlimit:2;"/>
                    </g>
                    <g transform="matrix(20.8333,0,0,20.8333,2003.22,2524.71)">
                        <path d="M0.228,0.01C0.305,0.01 0.421,-0.075 0.421,-0.309C0.421,-0.465 0.364,-0.542 0.328,-0.575C0.301,-0.6 0.269,-0.61 0.233,-0.61C0.133,-0.61 0.039,-0.486 0.039,-0.289C0.039,-0.127 0.104,0.01 0.228,0.01ZM0.233,-0.571C0.25,-0.571 0.266,-0.565 0.277,-0.555C0.308,-0.529 0.335,-0.451 0.335,-0.317C0.335,-0.225 0.332,-0.173 0.318,-0.122C0.296,-0.039 0.247,-0.029 0.229,-0.029C0.136,-0.029 0.125,-0.2 0.125,-0.287C0.125,-0.534 0.187,-0.571 0.233,-0.571Z" style="fill-rule:nonzero;stroke:black;stroke-width:0.05px;stroke-linecap:butt;stroke-miterlimit:2;"/>
                    </g>
                    <g transform="matrix(20.8333,0,0,20.8333,2012.9,2524.71)">
                        <path d="M0.228,0.01C0.305,0.01 0.421,-0.075 0.421,-0.309C0.421,-0.465 0.364,-0.542 0.328,-0.575C0.301,-0.6 0.269,-0.61 0.233,-0.61C0.133,-0.61 0.039,-0.486 0.039,-0.289C0.039,-0.127 0.104,0.01 0.228,0.01ZM0.233,-0.571C0.25,-0.571 0.266,-0.565 0.277,-0.555C0.308,-0.529 0.335,-0.451 0.335,-0.317C0.335,-0.225 0.332,-0.173 0.318,-0.122C0.296,-0.039 0.247,-0.029 0.229,-0.029C0.136,-0.029 0.125,-0.2 0.125,-0.287C0.125,-0.534 0.187,-0.571 0.233,-0.571Z" style="fill-rule:nonzero;stroke:black;stroke-width:0.05px;stroke-linecap:butt;stroke-miterlimit:2;"/>
                    </g>
                    <g transform="matrix(20.8333,0,0,20.8333,2022.59,2524.71)">
                        <path d="M0.228,0.01C0.305,0.01 0.421,-0.075 0.421,-0.309C0.421,-0.465 0.364,-0.542 0.328,-0.575C0.301,-0.6 0.269,-0.61 0.233,-0.61C0.133,-0.61 0.039,-0.486 0.039,-0.289C0.039,-0.127 0.104,0.01 0.228,0.01ZM0.233,-0.571C0.25,-0.571 0.266,-0.565 0.277,-0.555C0.308,-0.529 0.335,-0.451 0.335,-0.317C0.335,-0.225 0.332,-0.173 0.318,-0.122C0.296,-0.039 0.247,-0.029 0.229,-0.029C0.136,-0.029 0.125,-0.2 0.125,-0.287C0.125,-0.534 0.187,-0.571 0.233,-0.571Z" style="fill-rule:nonzero;stroke:black;stroke-width:0.05px;stroke-linecap:butt;stroke-miterlimit:2;"/>
                    </g>
                    <g transform="matrix(20.8333,0,0,20.8333,2032.28,2524.71)">
                        <path d="M0.286,-0.189L0.286,-0.443C0.286,-0.551 0.292,-0.591 0.294,-0.605C0.294,-0.61 0.291,-0.61 0.287,-0.61C0.222,-0.589 0.146,-0.55 0.068,-0.526L0.074,-0.497C0.119,-0.502 0.168,-0.513 0.188,-0.513C0.206,-0.513 0.206,-0.473 0.206,-0.437L0.206,-0.189C0.206,-0.111 0.205,-0.057 0.198,-0L0.199,0.003C0.199,0.003 0.227,-0 0.245,-0C0.265,-0 0.293,0.003 0.293,0.003L0.295,-0C0.288,-0.06 0.286,-0.11 0.286,-0.189Z" style="fill-rule:nonzero;stroke:black;stroke-width:0.05px;stroke-linecap:butt;stroke-miterlimit:2;"/>
                    </g>
                    <g transform="matrix(20.8333,0,0,20.8333,2041.97,2524.71)">
                        <path d="M0.286,-0.189L0.286,-0.443C0.286,-0.551 0.292,-0.591 0.294,-0.605C0.294,-0.61 0.291,-0.61 0.287,-0.61C0.222,-0.589 0.146,-0.55 0.068,-0.526L0.074,-0.497C0.119,-0.502 0.168,-0.513 0.188,-0.513C0.206,-0.513 0.206,-0.473 0.206,-0.437L0.206,-0.189C0.206,-0.111 0.205,-0.057 0.198,-0L0.199,0.003C0.199,0.003 0.227,-0 0.245,-0C0.265,-0 0.293,0.003 0.293,0.003L0.295,-0C0.288,-0.06 0.286,-0.11 0.286,-0.189Z" style="fill-rule:nonzero;stroke:black;stroke-width:0.05px;stroke-linecap:butt;stroke-miterlimit:2;"/>
                    </g>
                    <g transform="matrix(20.8333,0,0,20.8333,2051.65,2524.71)">
                        <path d="M0.228,0.01C0.305,0.01 0.421,-0.075 0.421,-0.309C0.421,-0.465 0.364,-0.542 0.328,-0.575C0.301,-0.6 0.269,-0.61 0.233,-0.61C0.133,-0.61 0.039,-0.486 0.039,-0.289C0.039,-0.127 0.104,0.01 0.228,0.01ZM0.233,-0.571C0.25,-0.571 0.266,-0.565 0.277,-0.555C0.308,-0.529 0.335,-0.451 0.335,-0.317C0.335,-0.225 0.332,-0.173 0.318,-0.122C0.296,-0.039 0.247,-0.029 0.229,-0.029C0.136,-0.029 0.125,-0.2 0.125,-0.287C0.125,-0.534 0.187,-0.571 0.233,-0.571Z" style="fill-rule:nonzero;stroke:black;stroke-width:0.05px;stroke-linecap:butt;stroke-miterlimit:2;"/>
                    </g>
                    <g transform="matrix(20.8333,0,0,20.8333,2061.34,2524.71)">
                        <path d="M0.286,-0.189L0.286,-0.443C0.286,-0.551 0.292,-0.591 0.294,-0.605C0.294,-0.61 0.291,-0.61 0.287,-0.61C0.222,-0.589 0.146,-0.55 0.068,-0.526L0.074,-0.497C0.119,-0.502 0.168,-0.513 0.188,-0.513C0.206,-0.513 0.206,-0.473 0.206,-0.437L0.206,-0.189C0.206,-0.111 0.205,-0.057 0.198,-0L0.199,0.003C0.199,0.003 0.227,-0 0.245,-0C0.265,-0 0.293,0.003 0.293,0.003L0.295,-0C0.288,-0.06 0.286,-0.11 0.286,-0.189Z" style="fill-rule:nonzero;stroke:black;stroke-width:0.05px;stroke-linecap:butt;stroke-miterlimit:2;"/>
                    </g>
                </g>
                <g transform="matrix(1,0,0,1,-1.28801,-127.139)">
                    <g transform="matrix(20.8333,0,0,20.8333,1993.53,2524.71)">
                        <path d="M0.228,0.01C0.305,0.01 0.421,-0.075 0.421,-0.309C0.421,-0.465 0.364,-0.542 0.328,-0.575C0.301,-0.6 0.269,-0.61 0.233,-0.61C0.133,-0.61 0.039,-0.486 0.039,-0.289C0.039,-0.127 0.104,0.01 0.228,0.01ZM0.233,-0.571C0.25,-0.571 0.266,-0.565 0.277,-0.555C0.308,-0.529 0.335,-0.451 0.335,-0.317C0.335,-0.225 0.332,-0.173 0.318,-0.122C0.296,-0.039 0.247,-0.029 0.229,-0.029C0.136,-0.029 0.125,-0.2 0.125,-0.287C0.125,-0.534 0.187,-0.571 0.233,-0.571Z" style="fill-rule:nonzero;stroke:black;stroke-width:0.05px;stroke-linecap:butt;stroke-miterlimit:2;"/>
                    </g>
                    <g transform="matrix(20.8333,0,0,20.8333,2003.22,2524.71)">
                        <path d="M0.228,0.01C0.305,0.01 0.421,-0.075 0.421,-0.309C0.421,-0.465 0.364,-0.542 0.328,-0.575C0.301,-0.6 0.269,-0.61 0.233,-0.61C0.133,-0.61 0.039,-0.486 0.039,-0.289C0.039,-0.127 0.104,0.01 0.228,0.01ZM0.233,-0.571C0.25,-0.571 0.266,-0.565 0.277,-0.555C0.308,-0.529 0.335,-0.451 0.335,-0.317C0.335,-0.225 0.332,-0.173 0.318,-0.122C0.296,-0.039 0.247,-0.029 0.229,-0.029C0.136,-0.029 0.125,-0.2 0.125,-0.287C0.125,-0.534 0.187,-0.571 0.233,-0.571Z" style="fill-rule:nonzero;stroke:black;stroke-width:0.05px;stroke-linecap:butt;stroke-miterlimit:2;"/>
                    </g>
                    <g transform="matrix(20.8333,0,0,20.8333,2012.9,2524.71)">
                        <path d="M0.286,-0.189L0.286,-0.443C0.286,-0.551 0.292,-0.591 0.294,-0.605C0.294,-0.61 0.291,-0.61 0.287,-0.61C0.222,-0.589 0.146,-0.55 0.068,-0.526L0.074,-0.497C0.119,-0.502 0.168,-0.513 0.188,-0.513C0.206,-0.513 0.206,-0.473 0.206,-0.437L0.206,-0.189C0.206,-0.111 0.205,-0.057 0.198,-0L0.199,0.003C0.199,0.003 0.227,-0 0.245,-0C0.265,-0 0.293,0.003 0.293,0.003L0.295,-0C0.288,-0.06 0.286,-0.11 0.286,-0.189Z" style="fill-rule:nonzero;stroke:black;stroke-width:0.05px;stroke-linecap:butt;stroke-miterlimit:2;"/>
                    </g>
                    <g transform="matrix(20.8333,0,0,20.8333,2022.59,2524.71)">
                        <path d="M0.228,0.01C0.305,0.01 0.421,-0.075 0.421,-0.309C0.421,-0.465 0.364,-0.542 0.328,-0.575C0.301,-0.6 0.269,-0.61 0.233,-0.61C0.133,-0.61 0.039,-0.486 0.039,-0.289C0.039,-0.127 0.104,0.01 0.228,0.01ZM0.233,-0.571C0.25,-0.571 0.266,-0.565 0.277,-0.555C0.308,-0.529 0.335,-0.451 0.335,-0.317C0.335,-0.225 0.332,-0.173 0.318,-0.122C0.296,-0.039 0.247,-0.029 0.229,-0.029C0.136,-0.029 0.125,-0.2 0.125,-0.287C0.125,-0.534 0.187,-0.571 0.233,-0.571Z" style="fill-rule:nonzero;stroke:black;stroke-width:0.05px;stroke-linecap:butt;stroke-miterlimit:2;"/>
                    </g>
                    <g transform="matrix(20.8333,0,0,20.8333,2032.28,2524.71)">
                        <path d="M0.228,0.01C0.305,0.01 0.421,-0.075 0.421,-0.309C0.421,-0.465 0.364,-0.542 0.328,-0.575C0.301,-0.6 0.269,-0.61 0.233,-0.61C0.133,-0.61 0.039,-0.486 0.039,-0.289C0.039,-0.127 0.104,0.01 0.228,0.01ZM0.233,-0.571C0.25,-0.571 0.266,-0.565 0.277,-0.555C0.308,-0.529 0.335,-0.451 0.335,-0.317C0.335,-0.225 0.332,-0.173 0.318,-0.122C0.296,-0.039 0.247,-0.029 0.229,-0.029C0.136,-0.029 0.125,-0.2 0.125,-0.287C0.125,-0.534 0.187,-0.571 0.233,-0.571Z" style="fill-rule:nonzero;stroke:black;stroke-width:0.05px;stroke-linecap:butt;stroke-miterlimit:2;"/>
                    </g>
                    <g transform="matrix(20.8333,0,0,20.8333,2041.97,2524.71)">
                        <path d="M0.286,-0.189L0.286,-0.443C0.286,-0.551 0.292,-0.591 0.294,-0.605C0.294,-0.61 0.291,-0.61 0.287,-0.61C0.222,-0.589 0.146,-0.55 0.068,-0.526L0.074,-0.497C0.119,-0.502 0.168,-0.513 0.188,-0.513C0.206,-0.513 0.206,-0.473 0.206,-0.437L0.206,-0.189C0.206,-0.111 0.205,-0.057 0.198,-0L0.199,0.003C0.199,0.003 0.227,-0 0.245,-0C0.265,-0 0.293,0.003 0.293,0.003L0.295,-0C0.288,-0.06 0.286,-0.11 0.286,-0.189Z" style="fill-rule:nonzero;stroke:black;stroke-width:0.05px;stroke-linecap:butt;stroke-miterlimit:2;"/>
                    </g>
                    <g transform="matrix(20.8333,0,0,20.8333,2051.65,2524.71)">
                        <path d="M0.228,0.01C0.305,0.01 0.421,-0.075 0.421,-0.309C0.421,-0.465 0.364,-0.542 0.328,-0.575C0.301,-0.6 0.269,-0.61 0.233,-0.61C0.133,-0.61 0.039,-0.486 0.039,-0.289C0.039,-0.127 0.104,0.01 0.228,0.01ZM0.233,-0.571C0.25,-0.571 0.266,-0.565 0.277,-0.555C0.308,-0.529 0.335,-0.451 0.335,-0.317C0.335,-0.225 0.332,-0.173 0.318,-0.122C0.296,-0.039 0.247,-0.029 0.229,-0.029C0.136,-0.029 0.125,-0.2 0.125,-0.287C0.125,-0.534 0.187,-0.571 0.233,-0.571Z" style="fill-rule:nonzero;stroke:black;stroke-width:0.05px;stroke-linecap:butt;stroke-miterlimit:2;"/>
                    </g>
                    <g transform="matrix(20.8333,0,0,20.8333,2061.34,2524.71)">
                        <path d="M0.228,0.01C0.305,0.01 0.421,-0.075 0.421,-0.309C0.421,-0.465 0.364,-0.542 0.328,-0.575C0.301,-0.6 0.269,-0.61 0.233,-0.61C0.133,-0.61 0.039,-0.486 0.039,-0.289C0.039,-0.127 0.104,0.01 0.228,0.01ZM0.233,-0.571C0.25,-0.571 0.266,-0.565 0.277,-0.555C0.308,-0.529 0.335,-0.451 0.335,-0.317C0.335,-0.225 0.332,-0.173 0.318,-0.122C0.296,-0.039 0.247,-0.029 0.229,-0.029C0.136,-0.029 0.125,-0.2 0.125,-0.287C0.125,-0.534 0.187,-0.571 0.233,-0.571Z" style="fill-rule:nonzero;stroke:black;stroke-width:0.05px;stroke-linecap:butt;stroke-miterlimit:2;"/>
                    </g>
                </g>
            </g>
        </g>
        <g transform="matrix(1,-0,-0,1,1318.72,2244.3)">
            <path d="M605.569,157.373L612.444,164.248L605.569,171.123" style="fill:none;stroke:black;stroke-width:2.29px;stroke-linejoin:miter;stroke-miterlimit:10;"/>
            <path d="M325.783,164.248L612.444,164.248" style="fill:none;stroke:black;stroke-width:2.29px;stroke-linejoin:miter;stroke-miterlimit:5;"/>
        </g>
        <g transform="matrix(1,0,0,1,24.9048,-8.78781)">
            <g transform="matrix(1.41301,0,0,1.41301,-709.78,-1096.13)">
                <circle cx="1691.65" cy="2657.95" r="18.023" style="fill:none;stroke:black;stroke-width:1.62px;stroke-linejoin:miter;stroke-miterlimit:5;"/>
            </g>
            <g transform="matrix(1,0,0,1,-18.4144,-4.62719)">
                <g transform="matrix(1,0,0,0.577188,0,1127.12)">
                    <path d="M1699.05,2665.76L1699.05,2644.2" style="fill:none;stroke:black;stroke-width:2.81px;stroke-linejoin:miter;stroke-miterlimit:5;"/>
                </g>
                <g transform="matrix(0.576391,0,0,1,719.733,0)">
                    <path d="M1699.05,2665.76L1711.92,2665.76" style="fill:none;stroke:black;stroke-width:2.81px;stroke-linejoin:miter;stroke-miterlimit:5;"/>
                </g>
            </g>
            <g transform="matrix(1,0,0,1,-18.6505,-3.52824)">
                <path d="M1699.18,2642.01L1699.22,2644.41" style="fill:none;stroke:black;stroke-width:2.29px;stroke-linejoin:miter;stroke-miterlimit:5;"/>
            </g>
            <g transform="matrix(1,0,0,1,-18.6505,-3.52824)">
                <path d="M1699.18,2642.01L1699.22,2644.41" style="fill:none;stroke:black;stroke-width:2.29px;stroke-linejoin:miter;stroke-miterlimit:5;"/>
            </g>
            <g transform="matrix(6.12323e-17,-1,1,6.12323e-17,-982.851,4358.78)">
                <path d="M1699.18,2642.01L1699.22,2644.41" style="fill:none;stroke:black;stroke-width:2.29px;stroke-linejoin:miter;stroke-miterlimit:5;"/>
            </g>
            <g transform="matrix(6.12323e-17,-1,1,6.12323e-17,-942.9,4358.78)">
                <path d="M1699.18,2642.01L1699.22,2644.41" style="fill:none;stroke:black;stroke-width:2.29px;stroke-linejoin:miter;stroke-miterlimit:5;"/>
            </g>
            <g transform="matrix(1,0,0,1,-18.6505,36.2347)">
                <path d="M1699.18,2642.01L1699.22,2644.41" style="fill:none;stroke:black;stroke-width:2.29px;stroke-linejoin:miter;stroke-miterlimit:5;"/>
            </g>
        </g>
        <g transform="matrix(0.931875,0,0,0.931875,114.853,178.123)">
            <circle cx="1706.88" cy="2653.43" r="32.082" style="fill:none;stroke:black;stroke-width:2.46px;stroke-linejoin:miter;stroke-miterlimit:5;"/>
        </g>
    </g>
</svg>
