<?xml version="1.0" encoding="UTF-8" standalone="no"?>
<!DOCTYPE svg PUBLIC "-//W3C//DTD SVG 1.1//EN" "http://www.w3.org/Graphics/SVG/1.1/DTD/svg11.dtd">
<svg width="100%" height="100%" viewBox="0 0 366 373" version="1.1" xmlns="http://www.w3.org/2000/svg" xmlns:xlink="http://www.w3.org/1999/xlink" xml:space="preserve" xmlns:serif="http://www.serif.com/" style="fill-rule:evenodd;clip-rule:evenodd;stroke-linecap:round;stroke-linejoin:round;">
    <g transform="matrix(1,0,0,1,-911.856,-218.675)">
        <g transform="matrix(1,0,0,1,831.951,-559.596)">
            <path d="M365.943,780.271C366.754,784.092 367.565,787.917 368.177,791.775C369.713,801.455 370.344,811.47 371.411,821.197C371.65,823.374 371.841,825.557 372.045,827.738C372.065,827.947 372.142,826.969 372.256,827.145C372.433,827.418 372.364,827.802 372.292,828.119C372.182,828.602 371.876,826.937 372.232,827.467C372.571,827.972 372.317,829.883 372.416,829.283C372.782,827.069 372.932,824.819 373.384,822.621C374.484,817.272 375.951,812.003 377.067,806.657C377.221,805.917 377.09,803.644 377.19,804.393C377.494,806.666 377.429,808.977 377.683,811.256C377.835,812.617 378.361,812.386 378.668,813.729C379.88,819.035 381.161,824.368 382.102,829.727C382.185,830.198 381.917,828.779 381.943,828.302C382.131,824.874 382.545,821.462 382.744,818.035C383.375,807.199 383.087,807.269 384.29,796.467C384.582,793.84 384.664,791.193 384.965,788.567C385.239,786.181 383.753,781.037 386.117,781.456C386.225,781.475 385.891,781.695 385.891,781.695" style="fill:none;fill-rule:nonzero;stroke:black;stroke-width:4px;"/>
        </g>
        <g transform="matrix(1,0,0,1,831.951,-559.596)">
            <path d="M398.462,781.553C398.462,781.553 396.658,780.751 395.713,780.825C393.973,780.962 392.703,782.274 392.18,783.859C389.992,790.493 391.402,798.326 391.507,805.129C391.612,811.91 391.412,818.694 391.604,825.473C391.646,826.96 392.449,830.737 394.21,830.699C403.949,830.489 399.689,811.677 399.87,808.398C400.059,804.985 400.902,801.631 401.112,798.219C401.342,794.492 401.652,790.653 400.786,787.021C400.552,786.039 400.029,785.138 399.826,784.149C399.739,783.724 399.837,783.276 399.929,782.852" style="fill:none;fill-rule:nonzero;stroke:black;stroke-width:4px;"/>
        </g>
        <g transform="matrix(1,0,0,1,831.951,-559.596)">
            <path d="M406.243,782.088C406.239,781.946 406.229,781.555 406.315,781.668C406.954,782.51 406.644,783.768 406.616,784.825C406.55,787.312 406.303,789.793 406.277,792.28C406.214,798.348 406.07,804.514 406.021,810.588C405.974,816.325 406.108,822.062 406.242,827.797" style="fill:none;fill-rule:nonzero;stroke:black;stroke-width:4px;"/>
        </g>
        <g transform="matrix(1,0,0,1,831.951,-559.596)">
            <path d="M407.575,781.454C407.575,781.454 407.689,781.876 407.808,781.803C408.164,781.584 408.331,781.046 408.741,780.963C408.964,780.918 408.886,781.496 409.11,781.539C409.927,781.694 411.948,781.584 411.99,781.771C412.439,783.793 413.096,785.796 413.212,787.864C413.252,788.569 414.04,800.102 412.147,803.731C411.401,805.161 410.042,806.176 409.037,807.438C408.816,807.715 407.909,807.335 408.002,807.677C408.58,809.799 409.616,811.781 410.166,813.911C411.149,817.717 411.943,821.664 412.851,825.533C413.213,827.074 413.474,828.637 413.734,830.198" style="fill:none;fill-rule:nonzero;stroke:black;stroke-width:4px;"/>
        </g>
        <g transform="matrix(1,0,0,1,831.951,-559.596)">
            <path d="M418.459,781.615C418.716,782.256 418.983,782.924 419.004,783.614C419.089,786.37 418.742,789.126 418.774,791.884C418.842,797.664 419.506,803.426 419.602,809.205C419.712,815.844 419.747,822.484 419.709,829.124C419.706,829.615 419.548,828.156 419.495,827.668" style="fill:none;fill-rule:nonzero;stroke:black;stroke-width:4px;"/>
        </g>
        <g transform="matrix(1,0,0,1,831.951,-559.596)">
            <path d="M419.679,781.187C419.679,781.187 419.893,780.805 420.08,780.791C421.129,780.711 421.049,781.334 422.079,781.041C422.201,781.006 422.191,780.652 422.293,780.727C424.489,782.356 426.233,785.09 426.651,787.92C427.691,794.963 427.82,802.683 428.099,809.81C428.336,815.867 428.531,820.825 427.679,826.568C427.586,827.198 427.55,827.894 427.179,828.411C426.056,829.979 424.15,829.47 423.437,829.517C422.805,829.559 421.542,829.636 421.542,829.636" style="fill:none;fill-rule:nonzero;stroke:black;stroke-width:4px;"/>
        </g>
        <g transform="matrix(1,0,0,1,831.951,-559.596)">
            <path d="M441.419,783.312C441.419,783.312 441.294,782.055 440.805,781.882C439.812,781.53 438.672,780.834 437.707,781.257C436.706,781.695 436.285,782.936 435.758,783.893C433.276,788.403 434.234,795.062 435.133,800.127C435.898,804.44 438.798,805.379 440.371,808.624C443.368,814.805 444.247,821.687 441.984,828.188C441.79,828.745 439.391,829.912 438.623,829.524C437.508,828.96 436.563,827.202 436.005,826.526C435.681,826.134 435.483,825.649 435.29,825.178" style="fill:none;fill-rule:nonzero;stroke:black;stroke-width:4px;"/>
        </g>
        <g transform="matrix(1,0,0,1,831.951,-559.596)">
            <path d="M162.883,783.332C162.883,783.332 162.448,784.536 162.455,785.162C162.568,795.611 162.856,806.058 162.934,816.508C162.973,821.678 162.958,826.85 162.804,832.018C162.781,832.79 162.601,830.487 162.541,829.717" style="fill:none;fill-rule:nonzero;stroke:black;stroke-width:4px;"/>
        </g>
        <g transform="matrix(1,0,0,1,831.951,-559.596)">
            <path d="M164.205,782.992C164.824,782.888 165.457,782.781 166.081,782.841C166.39,782.871 166.606,783.242 166.916,783.253C167.532,783.275 168.147,782.763 168.738,782.938C171.579,783.78 171.881,787.215 171.849,789.597C171.763,795.963 173.608,802.805 171.169,808.686C170.533,810.219 169.632,811.586 167.785,810.821C167.485,810.697 167.359,810.271 167.045,810.189C166.814,810.129 166.619,810.46 166.381,810.454C165.871,810.442 165.394,810.152 164.884,810.137C164.71,810.132 164.556,810.276 164.429,810.396" style="fill:none;fill-rule:nonzero;stroke:black;stroke-width:4px;"/>
        </g>
        <g transform="matrix(1,0,0,1,831.951,-559.596)">
            <path d="M184.16,782.141C184.369,788.46 184.579,794.782 184.554,801.105C184.529,807.395 184,813.677 184.011,819.967C184.017,823.429 184.469,826.877 184.605,830.337C184.613,830.542 184.556,831.102 184.443,830.931C184.129,830.455 184.023,829.864 183.923,829.303" style="fill:none;fill-rule:nonzero;stroke:black;stroke-width:4px;"/>
        </g>
        <g transform="matrix(1,0,0,1,831.951,-559.596)">
            <path d="M178.69,782.87C178.79,782.86 178.968,782.843 178.982,782.942C179.002,783.078 178.885,783.311 178.75,783.283C178.626,783.257 178.876,783.028 178.828,782.91C178.79,782.816 178.612,783.187 178.713,783.192C178.858,783.2 178.91,782.916 179.055,782.922C180.182,782.966 180.165,782.943 181.302,782.923C181.684,782.916 182.034,783.246 182.414,783.202C183.429,783.084 184.368,782.541 185.385,782.448C185.816,782.409 186.199,782.772 186.63,782.817C186.954,782.851 187.293,782.793 187.598,782.678C187.679,782.647 187.578,782.408 187.663,782.426C188.726,782.656 188.713,782.465 189.8,782.36C190.128,782.328 190.424,782.663 190.751,782.627C190.874,782.613 190.697,782.382 190.707,782.259C190.715,782.163 190.68,782.487 190.758,782.544C190.823,782.592 190.845,782.311 190.765,782.302C190.637,782.287 190.525,782.412 190.439,782.507" style="fill:none;fill-rule:nonzero;stroke:black;stroke-width:4px;"/>
        </g>
        <g transform="matrix(1,0,0,1,831.951,-559.596)">
            <path d="M176.959,783.14C177.181,783.015 177.427,782.877 177.681,782.89C177.991,782.906 178.282,783.068 178.553,783.22" style="fill:none;fill-rule:nonzero;stroke:black;stroke-width:4px;"/>
        </g>
        <g transform="matrix(1,0,0,1,831.951,-559.596)">
            <path d="M206.481,783.502C206.333,782.906 206.156,782.191 205.636,781.866C203.759,780.692 199.882,781.499 199.271,783.177C197.497,788.046 197.646,793.346 197.617,798.378C197.608,799.987 197.662,802.455 198.7,803.932C200.278,806.177 201.195,805.245 202.398,807.609C205.351,813.411 206.054,823.372 202.91,829.421C202.399,830.404 199.079,831.579 198.068,830.917C197.435,830.502 196.709,830.151 196.26,829.542C195.784,828.897 195.587,828.077 195.399,827.298" style="fill:none;fill-rule:nonzero;stroke:black;stroke-width:4px;"/>
        </g>
        <g transform="matrix(1,0,0,1,831.951,-559.596)">
            <path d="M90.355,785.087C90.319,785.26 90.211,785.774 90.276,785.61C90.731,784.459 89.433,783.112 88.544,782.944C87.717,782.787 85.749,784.093 85.482,784.968C82.311,795.368 82.37,807.213 82.195,818.064C82.146,821.133 81.303,826.53 82.744,829.227C83.678,830.975 85.836,832.68 87.886,831.401C88.764,830.853 90.205,828.597 90.336,828.464C90.559,828.239 90.466,827.523 90.466,827.523" style="fill:none;fill-rule:nonzero;stroke:black;stroke-width:4px;"/>
        </g>
        <g transform="matrix(1,0,0,1,831.951,-559.596)">
            <path d="M104.532,783.855C104.532,783.855 103.81,782.393 103.121,782.337C101.371,782.194 98.622,784.057 98.233,785.868C97.278,790.31 98.018,797.244 97.945,801.488C97.788,810.533 97.126,819.571 97.19,828.617C97.201,830.169 99.048,832.187 100.383,832.631C105.108,834.202 106.274,828.677 106.413,825.234C106.641,819.573 106.578,813.821 106.921,808.125C107.215,803.252 107.96,798.201 107.874,793.281C107.846,791.652 107.677,790.024 107.454,788.41C107.181,786.436 106.637,786.723 105.806,784.979C105.716,784.79 105.946,784.568 106.096,784.422" style="fill:none;fill-rule:nonzero;stroke:black;stroke-width:4px;"/>
        </g>
        <g transform="matrix(1,0,0,1,831.951,-559.596)">
            <path d="M114.93,783.199C114.655,783.097 114.378,782.994 114.09,782.938C113.968,782.914 114.416,782.977 114.425,783.101C114.588,785.443 114.637,787.795 114.591,790.143C114.57,791.228 114.258,792.293 114.223,793.378C114.006,800.084 113.458,807.714 113.414,814.339C113.382,819.168 113.549,823.997 113.73,828.822C113.755,829.494 114.042,831.488 114.033,830.816C114.018,829.739 113.865,828.668 113.713,827.602" style="fill:none;fill-rule:nonzero;stroke:black;stroke-width:4px;"/>
        </g>
        <g transform="matrix(1,0,0,1,831.951,-559.596)">
            <path d="M116.122,783.424C116.776,786.652 117.433,789.892 117.74,793.171C118.942,805.996 118.607,805.946 120.472,818.706C121.038,822.581 121.457,826.049 122.467,829.886C122.617,830.457 122.375,828.708 122.294,828.123" style="fill:none;fill-rule:nonzero;stroke:black;stroke-width:4px;"/>
        </g>
        <g transform="matrix(1,0,0,1,831.951,-559.596)">
            <path d="M125.638,783.226C125.324,786.787 125.009,790.35 124.873,793.922C124.519,803.2 123.922,812.47 123.77,821.753C123.715,825.132 125.272,828.674 124.209,831.882C123.994,832.529 124.019,830.526 124.028,829.844" style="fill:none;fill-rule:nonzero;stroke:black;stroke-width:4px;"/>
        </g>
        <g transform="matrix(1,0,0,1,831.951,-559.596)">
            <path d="M138.74,783.162C138.74,783.162 137.466,782.37 136.811,782.536C134.734,783.061 134.146,783.183 133.348,785.351C131.505,790.359 132.023,795.954 131.826,801.287C131.549,808.769 131.448,816.258 131.412,823.746C131.401,826.022 130.661,828.816 132.155,830.533C132.987,831.489 135.095,831.821 136.045,830.959C136.693,830.371 137.565,828.819 137.565,828.819" style="fill:none;fill-rule:nonzero;stroke:black;stroke-width:4px;"/>
        </g>
        <g transform="matrix(1,0,0,1,831.951,-559.596)">
            <path d="M147.086,783.044C147.086,783.044 146.974,795.774 146.948,802.139C146.921,808.716 147.123,815.291 147.115,821.868C147.108,827.052 146.574,826.918 146.618,832.089C146.62,832.302 146.524,832.686 146.735,832.717C146.934,832.747 146.71,832.296 146.8,832.116C146.998,831.721 147.683,832.051 148.121,831.994C149.797,831.775 153.178,831.637 153.178,831.637" style="fill:none;fill-rule:nonzero;stroke:black;stroke-width:4px;"/>
        </g>
        <g transform="matrix(1,0,0,1,831.951,-559.596)">
            <path d="M147.961,806.247C147.783,806.353 147.573,806.478 147.512,806.676C147.468,806.818 147.558,807.064 147.706,807.078C147.841,807.09 147.745,806.706 147.881,806.71C148.303,806.722 148.659,807.096 149.081,807.118C149.719,807.151 149.507,806.571 150.149,806.541C150.454,806.527 150.728,806.794 151.033,806.779C151.227,806.769 151.333,806.456 151.526,806.471C151.691,806.484 151.69,806.866 151.854,806.844C152.098,806.811 152.181,806.456 152.404,806.353C152.479,806.319 152.378,806.681 152.387,806.599C152.399,806.494 152.406,806.389 152.412,806.284" style="fill:none;fill-rule:nonzero;stroke:black;stroke-width:4px;"/>
        </g>
        <g transform="matrix(1,0,0,1,831.951,-559.596)">
            <path d="M147.11,783.887C147.083,783.981 147.02,784.201 147.115,784.18C147.974,783.989 148.735,783.35 149.615,783.329C151.51,783.283 151.551,784.123 153.316,783.439C153.463,783.382 153.157,783.713 153.05,783.829" style="fill:none;fill-rule:nonzero;stroke:black;stroke-width:4px;"/>
        </g>
        <g transform="matrix(1,0,0,1,831.951,-559.596)">
            <path d="M158.416,948.215C158.534,948.203 158.652,948.192 158.77,948.18" style="fill:none;fill-rule:nonzero;stroke:black;stroke-width:2.5px;"/>
        </g>
        <g transform="matrix(1,0,0,1,831.951,-559.596)">
            <path d="M156.775,947.839C157.479,947.881 158.197,947.923 158.89,947.794C159.052,947.764 159.02,947.432 159.18,947.392C159.285,947.366 159.25,947.787 159.301,947.692C159.371,947.56 159.36,947.139 159.257,947.247C159.019,947.496 158.919,947.856 158.827,948.188" style="fill:none;fill-rule:nonzero;stroke:black;stroke-width:2.5px;"/>
        </g>
        <g transform="matrix(1,0,0,1,831.951,-559.596)">
            <path d="M122.487,953.181C122.022,954.983 121.556,956.786 121.191,958.611C119.574,966.688 118.058,974.785 116.542,982.881" style="fill:none;fill-rule:nonzero;stroke:black;stroke-width:2.5px;"/>
        </g>
        <g transform="matrix(1,0,0,1,831.951,-559.596)">
            <path d="M154.616,948.805C155.919,959.162 157.222,969.519 158.618,979.864C158.733,980.719 158.936,981.562 159.149,982.398C159.176,982.505 159.275,982.764 159.334,982.671C159.443,982.498 159.558,981.992 159.364,982.058C159.16,982.127 159.402,982.859 159.263,982.695C159.023,982.411 159.004,981.985 158.988,981.613" style="fill:none;fill-rule:nonzero;stroke:black;stroke-width:2.5px;"/>
        </g>
        <g transform="matrix(1,0,0,1,831.951,-559.596)">
            <path d="M159.9,857.962C159.92,858.093 159.964,858.388 159.835,858.355C159.454,858.257 159.237,857.795 158.857,857.693C156.979,857.187 157.007,857.6 155.044,857.876C154.682,857.927 154.304,857.537 153.965,857.675C151.451,858.701 148.197,862.031 147.525,864.607C146.085,870.131 143.776,879.796 147.592,885.437C147.666,885.547 147.813,885.15 147.925,885.221C149.387,886.154 149.016,886.708 150.753,887.06C151.423,887.196 152.133,887.043 152.8,887.194C153.49,887.35 154.075,887.878 154.777,887.969C155.081,888.008 155.293,887.566 155.6,887.556C156.142,887.539 156.65,887.935 157.19,887.893C157.393,887.877 157.374,887.493 157.557,887.403C157.798,887.285 158.129,887.46 158.357,887.32C160.148,886.22 159.834,885.92 161.39,884.504C161.61,884.304 162.014,884.386 162.216,884.168C165.461,880.66 167.027,875.464 167.742,870.754C168.243,867.453 167.785,862.727 164.939,860.426C164.725,860.253 164.34,860.451 164.125,860.279C162.532,859.002 162.393,859.373 160.556,858.582C160.293,858.469 160.174,858.139 160.076,857.87" style="fill:none;fill-rule:nonzero;stroke:black;stroke-width:2.5px;"/>
        </g>
        <g transform="matrix(1,0,0,1,831.951,-559.596)">
            <path d="M155.619,889.111C155.619,889.111 155.007,890.291 154.856,890.931C154.493,892.471 154.278,894.043 154.044,895.608C153.286,900.672 152.411,905.723 151.878,910.815C151.072,918.517 150.551,926.247 150.03,933.974" style="fill:none;fill-rule:nonzero;stroke:black;stroke-width:2.5px;"/>
        </g>
        <g transform="matrix(1,0,0,1,831.951,-559.596)">
            <path d="M155.071,889.203C153.561,892.301 152.049,895.403 150.731,898.588C148.8,903.256 147.55,908.192 145.544,912.828C145.422,913.11 145.129,913.463 144.828,913.406C136.011,911.736 136.124,911.437 127.28,910.049C125.795,909.816 124.408,909.106 122.918,908.906C121.142,908.667 121.119,909.056 119.443,908.503C119.292,908.453 119.6,908.955 119.6,908.955" style="fill:none;fill-rule:nonzero;stroke:black;stroke-width:2.5px;"/>
        </g>
        <g transform="matrix(1,0,0,1,831.951,-559.596)">
            <path d="M155.494,889.066C156.057,891.713 156.622,894.372 156.873,897.066C156.996,898.387 156.567,899.711 156.611,901.037C156.708,903.954 157.222,906.848 157.297,909.765C157.31,910.277 157.358,911.079 156.872,911.243C156.398,911.403 156.153,910.519 155.701,910.305C155.074,910.009 154.313,910.064 153.698,909.744C152.662,909.206 151.848,908.297 150.81,907.763C150.506,907.607 150.104,907.857 149.786,907.733C149.294,907.541 148.952,907.067 148.471,906.85C147.551,906.436 146.505,906.325 145.613,905.853C144.616,905.324 143.865,904.395 142.862,903.878C141.957,903.411 140.871,903.383 139.956,902.935C138.364,902.156 136.937,901.072 135.384,900.218C134.728,899.857 134.685,900.258 133.941,899.963C131.322,898.925 131.333,899.005 128.517,898.559C128.432,898.545 128.558,898.335 128.644,898.333C128.77,898.331 128.852,898.491 128.91,898.603" style="fill:none;fill-rule:nonzero;stroke:black;stroke-width:2.5px;"/>
        </g>
        <g transform="matrix(1,0,0,1,831.951,-559.596)">
            <path d="M163.709,906.124C161.982,914.713 160.254,923.302 158.701,931.924C158.174,934.847 157.823,937.8 157.472,940.75" style="fill:none;fill-rule:nonzero;stroke:black;stroke-width:2.5px;"/>
        </g>
        <g transform="matrix(1,0,0,1,831.951,-559.596)">
            <path d="M163.944,904.223C165.014,903.953 166.429,903.595 167.254,904.329C167.966,904.963 167.438,906.249 167.278,907.189C167.002,908.807 166.255,910.318 165.959,911.932C164.701,918.787 163.645,925.679 162.325,932.523C161.381,937.418 160.565,942.336 159.75,947.254" style="fill:none;fill-rule:nonzero;stroke:black;stroke-width:2.5px;"/>
        </g>
        <g transform="matrix(1,0,0,1,831.951,-559.596)">
            <path d="M125.565,886.486C125.369,886.774 125.161,887.08 125.105,887.424C124.4,891.774 123.879,896.152 123.291,900.519C123.276,900.632 123.275,900.218 123.386,900.189C123.852,900.065 124.355,900.035 124.831,900.11C125.506,900.217 126.111,900.618 126.785,900.726C126.942,900.751 127.088,900.602 127.199,900.488" style="fill:none;fill-rule:nonzero;stroke:black;stroke-width:2.5px;"/>
        </g>
        <g transform="matrix(1,0,0,1,831.951,-559.596)">
            <path d="M125.852,884.888C126.672,885.414 127.503,885.948 128.414,886.293C130.192,886.966 130.25,886.751 131.968,887.602C132.432,887.832 133.148,887.574 133.477,887.974C133.674,888.214 132.955,888.35 132.807,888.623C132.427,889.324 132.133,890.077 131.92,890.846C131.431,892.608 131.068,894.403 130.705,896.195" style="fill:none;fill-rule:nonzero;stroke:black;stroke-width:2.5px;"/>
        </g>
        <g transform="matrix(1,0,0,1,831.951,-559.596)">
            <path d="M129.747,899.543C129.538,899.727 129.318,899.92 129.197,900.171C129.075,900.423 128.934,900.74 129.046,900.997C129.117,901.16 129.303,900.741 129.375,900.579" style="fill:none;fill-rule:nonzero;stroke:black;stroke-width:2.5px;"/>
        </g>
        <g transform="matrix(1,0,0,1,831.951,-559.596)">
            <path d="M125.137,890.299C125.849,890.013 126.694,889.675 127.412,889.945C127.922,890.137 127.642,891.148 128.114,891.42C128.529,891.66 129.055,891.103 129.53,891.167C129.825,891.207 130.05,891.479 130.24,891.708" style="fill:none;fill-rule:nonzero;stroke:black;stroke-width:2.5px;"/>
        </g>
        <g transform="matrix(1,0,0,1,831.951,-559.596)">
            <path d="M81.989,915.747C84.943,915.487 87.901,915.226 90.866,915.167C91.679,915.151 92.468,915.545 93.281,915.522C103.05,915.247 113.027,914.732 122.571,914.477C122.983,914.466 123.689,914.418 123.759,914.825C124.032,916.413 123.741,918.064 123.461,919.651" style="fill:none;fill-rule:nonzero;stroke:black;stroke-width:2.5px;"/>
        </g>
        <g transform="matrix(1,0,0,1,831.951,-559.596)">
            <path d="M82.522,920.773C84.341,920.564 86.167,920.354 87.998,920.353C90.085,920.352 92.158,920.797 94.244,920.765C101.311,920.656 108.229,920.127 115.212,919.937C116.242,919.909 117.274,919.924 118.304,919.884C119.67,919.831 121.039,919.921 122.403,920.01" style="fill:none;fill-rule:nonzero;stroke:black;stroke-width:2.5px;"/>
        </g>
        <g transform="matrix(1,0,0,1,831.951,-559.596)">
            <path d="M90.204,908.697C90.247,908.589 90.352,908.323 90.416,908.42C90.722,908.886 90.565,909.681 91.04,909.972C92.52,910.879 95.751,911.437 97.62,911.393C98.546,911.371 99.451,911.039 100.377,911.041C102.436,911.045 102.381,911.684 104.363,911.303C104.573,911.263 104.662,910.917 104.876,910.918C105.597,910.923 106.281,911.332 107.002,911.321C107.223,911.318 107.276,910.883 107.497,910.879C108.159,910.868 108.779,911.268 109.441,911.281C109.631,911.285 109.695,910.928 109.885,910.925C110.499,910.915 110.326,911.48 110.975,911.339C111.218,911.286 111.351,910.963 111.597,910.929C111.723,910.912 111.718,911.229 111.844,911.218C112.85,911.134 114.176,910.914 114.828,910.092C115.271,909.534 115.568,908.87 115.859,908.219" style="fill:none;fill-rule:nonzero;stroke:black;stroke-width:2.5px;"/>
        </g>
        <g transform="matrix(1,0,0,1,831.951,-559.596)">
            <path d="M92.75,908.994C92.662,908.989 92.485,908.979 92.505,908.893C92.636,908.334 92.894,907.809 93.147,907.294" style="fill:none;fill-rule:nonzero;stroke:black;stroke-width:2.5px;"/>
        </g>
        <g transform="matrix(1,0,0,1,831.951,-559.596)">
            <path d="M95.012,906.595C95.451,906.455 95.891,906.316 96.33,906.176" style="fill:none;fill-rule:nonzero;stroke:black;stroke-width:2.5px;"/>
        </g>
        <g transform="matrix(1,0,0,1,831.951,-559.596)">
            <path d="M97.296,909.085C97.193,909.094 97.002,909.112 96.996,909.009C96.963,908.391 96.935,907.726 97.193,907.164C97.414,906.683 97.901,906.36 98.343,906.068" style="fill:none;fill-rule:nonzero;stroke:black;stroke-width:2.5px;"/>
        </g>
        <g transform="matrix(1,0,0,1,831.951,-559.596)">
            <path d="M100.689,908.854C100.794,908.295 100.922,907.617 101.394,907.3C102.209,906.753 103.25,906.614 104.223,906.484" style="fill:none;fill-rule:nonzero;stroke:black;stroke-width:2.5px;"/>
        </g>
        <g transform="matrix(1,0,0,1,831.951,-559.596)">
            <path d="M100.31,906.757C100.398,906.773 100.485,906.788 100.573,906.804" style="fill:none;fill-rule:nonzero;stroke:black;stroke-width:2.5px;"/>
        </g>
        <g transform="matrix(1,0,0,1,831.951,-559.596)">
            <path d="M105.264,908.651C105.534,908.836 105.804,909.021 106.074,909.206" style="fill:none;fill-rule:nonzero;stroke:black;stroke-width:2.5px;"/>
        </g>
        <g transform="matrix(1,0,0,1,831.951,-559.596)">
            <path d="M106.999,906.779C107.782,906.699 108.639,906.61 109.355,906.938C109.982,907.225 110.377,907.892 110.729,908.486" style="fill:none;fill-rule:nonzero;stroke:black;stroke-width:2.5px;"/>
        </g>
        <g transform="matrix(1,0,0,1,831.951,-559.596)">
            <path d="M115.956,948.61C115.956,948.61 117.817,948.278 118.756,948.17C121.964,947.802 125.181,947.513 128.404,947.315C130.409,947.192 132.821,947.802 134.889,947.758C136.803,947.717 138.687,947.229 140.6,947.159C143.372,947.058 146.333,947.762 149.125,947.793C150.728,947.811 152.307,947.363 153.909,947.313C154.511,947.294 155.091,947.608 155.693,947.59C155.922,947.583 156.117,947.397 156.283,947.24" style="fill:none;fill-rule:nonzero;stroke:black;stroke-width:2.5px;"/>
        </g>
        <g transform="matrix(1,0,0,1,831.951,-559.596)">
            <path d="M115.176,943.711C115.183,944.96 115.19,946.215 115.344,947.455C115.356,947.553 115.546,947.494 115.641,947.465" style="fill:none;fill-rule:nonzero;stroke:black;stroke-width:2.5px;"/>
        </g>
        <g transform="matrix(1,0,0,1,831.951,-559.596)">
            <path d="M115.902,942.626C116.41,942.501 116.929,942.374 117.452,942.375C118.448,942.377 119.432,942.656 120.428,942.637C121.787,942.611 123.123,942.367 124.526,942.381C131.072,942.448 137.896,942.549 144.142,942.327C147.241,942.217 150.344,942.393 153.445,942.361C154.479,942.35 155.519,942.343 156.544,942.2C156.674,942.182 156.922,941.89 156.791,941.895C156.608,941.902 156.461,942.07 156.341,942.208" style="fill:none;fill-rule:nonzero;stroke:black;stroke-width:2.5px;"/>
        </g>
        <g transform="matrix(1,0,0,1,831.951,-559.596)">
            <path d="M123.69,948.383C123.563,948.371 123.393,948.355 123.315,948.455C123.261,948.524 123.574,948.456 123.564,948.544C123.393,950.023 123.093,951.485 122.795,952.944" style="fill:none;fill-rule:nonzero;stroke:black;stroke-width:2.5px;"/>
        </g>
        <g transform="matrix(1,0,0,1,831.951,-559.596)">
            <path d="M149.482,933.619C149.418,934.669 149.353,935.718 149.289,936.768" style="fill:none;fill-rule:nonzero;stroke:black;stroke-width:2.5px;"/>
        </g>
        <g transform="matrix(1,0,0,1,831.951,-559.596)">
            <path d="M115.234,938.999C115.234,938.999 115.642,938.597 115.906,938.578C117.441,938.467 118.99,938.729 120.523,938.59C127.192,937.987 132.715,937.233 139.331,936.622C141.828,936.391 144.254,936.799 146.751,936.735C147.531,936.715 148.54,935.7 149.05,936.291C149.151,936.409 148.837,936.532 148.692,936.589" style="fill:none;fill-rule:nonzero;stroke:black;stroke-width:2.5px;"/>
        </g>
        <g transform="matrix(1,0,0,1,831.951,-559.596)">
            <path d="M113.65,938.877C113.006,940.207 112.356,941.55 111.496,942.751C105.504,951.119 102.343,953.99 97.651,961.546C96.206,963.873 94.973,966.326 93.553,968.669C92.467,970.462 91.347,972.237 90.136,973.948C89.853,974.348 89.352,974.566 89.089,974.979C88.981,975.149 88.908,975.656 89.096,975.584C89.407,975.465 89.547,975.073 89.659,974.76" style="fill:none;fill-rule:nonzero;stroke:black;stroke-width:2.5px;"/>
        </g>
        <g transform="matrix(1,0,0,1,831.951,-559.596)">
            <path d="M114.041,939.394C112.544,942.329 111.047,945.266 109.678,948.262C107.381,953.289 105.456,958.206 103.276,963.305C100.453,969.907 100.492,969.849 98.099,976.577C98.047,976.724 98.06,976.016 97.954,976.131C97.788,976.311 97.855,977.102 97.841,976.857C97.82,976.478 97.876,976.097 97.931,975.721" style="fill:none;fill-rule:nonzero;stroke:black;stroke-width:2.5px;"/>
        </g>
        <g transform="matrix(1,0,0,1,831.951,-559.596)">
            <path d="M374.271,907.221C373.995,906.979 373.713,906.733 373.387,906.564C372.978,906.353 372.543,906.175 372.09,906.093C370.838,905.866 369.672,906.41 368.39,907.565C366.384,909.372 365.605,915.383 365.443,917.125C365.044,921.408 364.812,926.872 365.777,931.308C365.903,931.886 366.196,932.441 366.578,932.893C367.3,933.749 367.455,933.395 368.562,933.637C368.835,933.697 368.974,934.038 369.236,934.137C369.824,934.36 370.174,933.29 370.709,932.961C370.806,932.901 370.864,933.21 370.974,933.178C371.234,933.102 371.439,932.889 371.626,932.693" style="fill:none;fill-rule:nonzero;stroke:black;stroke-width:4px;"/>
        </g>
        <g transform="matrix(1,0,0,1,831.951,-559.596)">
            <path d="M376.314,885.26C375.723,895.174 375.133,905.089 374.799,915.015C374.603,920.837 374.665,926.667 374.727,932.492" style="fill:none;fill-rule:nonzero;stroke:black;stroke-width:4px;"/>
        </g>
        <g transform="matrix(1,0,0,1,831.951,-559.596)">
            <path d="M381.923,907.085C381.969,912.693 382.015,918.302 381.917,923.909C381.882,925.879 381.561,927.838 381.524,929.808C381.506,930.79 381.629,931.771 381.752,932.745" style="fill:none;fill-rule:nonzero;stroke:black;stroke-width:4px;"/>
        </g>
        <g transform="matrix(1,0,0,1,831.951,-559.596)">
            <path d="M381.978,899.219C382.04,899.232 382.102,899.244 382.164,899.257" style="fill:none;fill-rule:nonzero;stroke:black;stroke-width:4px;"/>
        </g>
        <g transform="matrix(1,0,0,1,831.951,-559.596)">
            <path d="M387.913,906.38C387.841,909.204 387.77,912.029 387.814,914.854C387.858,917.661 388.18,920.461 388.179,923.269C388.177,926.759 387.76,930.242 387.805,933.732C387.816,934.584 388.164,932.064 388.281,931.219" style="fill:none;fill-rule:nonzero;stroke:black;stroke-width:4px;"/>
        </g>
        <g transform="matrix(1,0,0,1,831.951,-559.596)">
            <path d="M389.728,910.57C389.728,910.57 390.795,909.811 391.3,909.396C391.812,908.975 392.106,908.322 392.631,907.918C392.807,907.783 393.094,907.958 393.294,907.861C394.823,907.122 396.087,905.703 397.277,908.09C397.954,909.447 396.938,913.291 396.888,913.835C396.659,916.349 396.488,918.871 396.444,921.395C396.374,925.391 396.46,929.388 396.546,933.383" style="fill:none;fill-rule:nonzero;stroke:black;stroke-width:4px;"/>
        </g>
        <g transform="matrix(1,0,0,1,831.951,-559.596)">
            <path d="M402.648,918.055C402.611,918.17 402.512,918.475 402.619,918.418C403.041,918.194 403.291,917.716 403.712,917.491C404.178,917.241 404.76,917.269 405.228,917.022C406.028,916.599 406.681,915.932 407.476,915.499C409.467,914.414 412.12,913.342 412.553,910.705C413.124,907.229 408.916,905.031 406.18,905.887C403.6,906.694 403.248,908.578 402.898,911.169C401.902,918.55 402.076,922.638 402.806,929.871C402.837,930.177 403.26,933.12 404.007,933.675C404.457,934.009 405.066,934.162 405.625,934.131C406.539,934.08 406.094,933.292 406.964,933.119C408.213,932.87 408.178,932.914 409.33,932.38C409.478,932.312 409.6,932.762 409.728,932.662C410.136,932.344 410.443,931.91 410.741,931.487" style="fill:none;fill-rule:nonzero;stroke:black;stroke-width:4px;"/>
        </g>
        <g transform="matrix(1,0,0,1,831.951,-559.596)">
            <path d="M390.094,959.589C389.762,959.009 389.372,958.327 388.74,958.113C388.043,957.877 387.201,958.047 386.548,958.387C385.632,958.863 384.597,960.479 384.163,961.464C382.142,966.049 381.742,971.948 381.643,976.783C381.586,979.59 381.463,982.533 382.428,985.17C382.985,986.692 385.398,986.273 386.021,985.755C386.701,985.189 387.319,984.543 387.868,983.85C388.315,983.286 388.655,982.643 388.992,982.007" style="fill:none;fill-rule:nonzero;stroke:black;stroke-width:4px;"/>
        </g>
        <g transform="matrix(1,0,0,1,831.951,-559.596)">
            <path d="M389.958,960.179C389.849,960.622 389.737,961.073 389.738,961.529C389.745,965.634 389.996,969.738 389.98,973.843C389.972,975.879 389.631,977.907 389.667,979.942C389.699,981.787 389.942,983.625 390.184,985.455" style="fill:none;fill-rule:nonzero;stroke:black;stroke-width:4px;"/>
        </g>
        <g transform="matrix(1,0,0,1,831.951,-559.596)">
            <path d="M398.101,949.747C397.925,952.482 397.75,955.22 397.695,957.96C397.645,960.452 397.859,962.946 397.788,965.438C397.599,972.061 395.615,979.446 398.289,985.735C398.484,986.195 399.037,986.782 399.506,986.609C400.45,986.261 401.833,984.687 401.833,984.687" style="fill:none;fill-rule:nonzero;stroke:black;stroke-width:4px;"/>
        </g>
        <g transform="matrix(1,0,0,1,831.951,-559.596)">
            <path d="M395.009,958.332C395.037,958.09 395.066,957.844 395.037,957.603C395.019,957.45 394.943,957.911 394.977,958.062C395.002,958.173 394.953,957.742 395.066,957.733C395.702,957.685 396.334,957.955 396.97,957.912C397.223,957.895 397.391,957.558 397.645,957.558C399.131,957.556 399.031,957.943 400.438,958.451C400.524,958.482 400.529,958.24 400.62,958.247C401.015,958.276 401.374,958.52 401.769,958.549C401.841,958.554 401.853,958.364 401.788,958.332C401.674,958.275 401.528,958.327 401.408,958.37" style="fill:none;fill-rule:nonzero;stroke:black;stroke-width:4px;"/>
        </g>
        <g transform="matrix(1,0,0,1,831.951,-559.596)">
            <path d="M367.111,970.375C367.073,970.491 366.974,970.796 367.082,970.739C367.504,970.516 367.754,970.037 368.175,969.812C368.641,969.562 369.223,969.59 369.691,969.343C370.491,968.92 371.144,968.253 371.939,967.82C373.929,966.735 376.583,965.663 377.016,963.026C377.586,959.55 373.379,957.352 370.643,958.208C368.063,959.015 367.711,960.899 367.361,963.49C366.365,970.871 366.539,974.959 367.269,982.192C367.3,982.498 367.723,985.441 368.47,985.996C368.92,986.33 369.529,986.483 370.088,986.452C371.002,986.401 370.557,985.613 371.427,985.44C372.676,985.191 372.64,985.234 373.793,984.7C373.941,984.632 374.063,985.083 374.191,984.983C374.599,984.665 374.906,984.231 375.204,983.808" style="fill:none;fill-rule:nonzero;stroke:black;stroke-width:4px;"/>
        </g>
        <g transform="matrix(1,0,0,1,831.951,-559.596)">
            <path d="M358.139,911.694C358.139,911.694 353.216,910.16 351.008,908.872C346.281,906.116 343.153,903.609 337.387,900.71C323.337,893.647 307.336,889.756 291.592,888.332C280.249,887.306 270.736,888.729 259.946,889.783C243.093,891.429 228.266,894.15 212.256,899.466C205.611,901.672 200.398,905.684 194.271,909.146C192.52,910.136 191.22,912.358 189.21,912.434C187.098,912.514 184.193,916.22 182.634,917.421C182.416,917.589 182.1,917.603 181.889,917.78C181.571,918.046 181.209,919.294 181.367,918.91C181.521,918.536 181.571,918.125 181.619,917.724" style="fill:none;fill-rule:nonzero;stroke:black;stroke-width:4px;"/>
        </g>
        <g transform="matrix(1,0,0,1,831.951,-559.596)">
            <path d="M191.033,904.69C191.08,904.533 191.169,904.233 191.321,904.293C191.473,904.354 191.363,904.653 191.259,904.78C189.937,906.398 188.396,907.83 187.095,909.465C184.292,912.985 184.31,912.959 181.451,916.424C181.212,916.714 181.234,917.16 181.013,917.464C180.675,917.929 180.143,918.229 179.804,918.693C179.72,918.808 179.942,919.101 179.801,919.121C179.66,919.141 179.579,918.798 179.69,918.709C179.792,918.627 179.854,919.046 179.97,918.985C181.209,918.338 182.253,917.353 183.5,916.72C186.459,915.219 189.233,914.611 192.498,914.057C193.547,913.879 194.627,913.93 195.675,913.743C195.78,913.724 195.722,913.481 195.827,913.462C196.05,913.422 196.319,913.45 196.493,913.595C196.597,913.681 196.522,914.126 196.473,914C196.197,913.295 196.727,913.621 197.286,913.505C197.418,913.477 197.532,913.067 197.553,913.2C197.587,913.417 197.524,913.708 197.336,913.822C197.211,913.898 197.08,913.658 197.01,913.53" style="fill:none;fill-rule:nonzero;stroke:black;stroke-width:4px;"/>
        </g>
        <g transform="matrix(1,0,0,1,831.951,-559.596)">
            <path d="M176.494,961.121C176.494,961.121 179.512,964.389 181.31,965.673C184.804,968.169 187.172,969.646 191.162,971.879C199.521,976.557 207.798,979.719 216.907,982.591C240.515,990.036 269.669,992.578 295.347,991.037C308.727,990.234 323.453,985.544 335.783,979.942C339.794,978.12 345.004,976.136 348.278,973.389C350.02,971.928 354.267,970.124 354.267,970.124" style="fill:none;fill-rule:nonzero;stroke:black;stroke-width:4px;"/>
        </g>
        <g transform="matrix(1,0,0,1,831.951,-559.596)">
            <path d="M175.547,961.296C175.563,961.21 175.605,960.99 175.661,961.058C176.269,961.787 176.64,962.703 177.295,963.39C177.545,963.652 178.027,963.572 178.293,963.817C179.518,964.947 179.105,965.209 180.077,966.562C180.211,966.749 180.529,966.721 180.682,966.892C181.818,968.166 182.933,969.467 183.913,970.865C184.158,971.214 184.068,971.733 184.318,972.079C184.591,972.455 185.148,972.558 185.415,972.939C186.352,974.276 186.025,975.66 187.899,976.098C188.117,976.149 187.914,975.637 187.831,975.429" style="fill:none;fill-rule:nonzero;stroke:black;stroke-width:4px;"/>
        </g>
        <g transform="matrix(1,0,0,1,831.951,-559.596)">
            <path d="M176.609,960.966C176.707,960.96 176.846,960.952 176.894,961.037C177.432,961.995 177.556,961.865 178.564,962.223C178.995,962.376 178.924,962.449 179.345,962.62C179.45,962.663 179.451,962.293 179.55,962.348C181.082,963.2 180.988,963.287 182.544,964.051C183.61,964.574 184.595,965.248 185.634,965.823C185.901,965.971 185.907,965.686 186.181,965.791C186.303,965.837 186.262,966.089 186.388,966.122C186.478,966.146 186.449,965.851 186.536,965.885C186.789,965.985 186.89,966.34 187.148,966.424C188.168,966.757 189.231,966.956 190.292,967.113C190.545,967.151 190.807,966.93 191.052,967.003C191.48,967.131 191.781,967.549 192.207,967.685C192.333,967.725 192.418,967.454 192.547,967.482C192.911,967.56 193.18,967.923 193.549,967.973C194.396,968.088 195.26,968.036 196.112,967.967C196.197,967.96 196.234,967.671 196.253,967.754C196.29,967.918 196.281,968.121 196.176,968.251C196.107,968.337 196.222,967.952 196.115,967.925C195.667,967.811 195.191,967.847 194.73,967.882" style="fill:none;fill-rule:nonzero;stroke:black;stroke-width:4px;"/>
        </g>
        <g transform="matrix(1,0,0,1,831.951,-559.596)">
            <path d="M381.417,1059.21C381.199,1058.34 380.972,1057.44 380.478,1056.69C379.216,1054.78 376.87,1054.63 375.013,1055.71C370.85,1058.13 370.034,1064.74 369.666,1068.92C369.347,1072.54 369.352,1077.38 369.741,1081.03C369.868,1082.22 370.46,1085.06 371.313,1086.18C372.518,1087.77 375.647,1088.84 377.234,1087.06C377.599,1086.65 377.874,1086.16 378.096,1085.66C378.472,1084.81 378.745,1083.92 379.018,1083.04" style="fill:none;fill-rule:nonzero;stroke:black;stroke-width:4px;"/>
        </g>
        <g transform="matrix(1,0,0,1,831.951,-559.596)">
            <path d="M380.948,1058.73C381.012,1059.47 381.077,1060.22 381.039,1060.96C380.901,1063.69 380.535,1066.4 380.421,1069.13C380.284,1072.41 380.138,1075.7 380.007,1078.98C379.597,1089.23 379.801,1099.51 379.22,1109.75C379.206,1109.99 378.612,1113.06 377.801,1113.65C373.096,1117.06 369.532,1109.35 369.256,1105.86C369.052,1103.28 370.372,1100.72 371.295,1099.73C371.95,1099.03 372.528,1098.25 373.104,1097.48" style="fill:none;fill-rule:nonzero;stroke:black;stroke-width:4px;"/>
        </g>
        <g transform="matrix(1,0,0,1,831.951,-559.596)">
            <path d="M394.029,1055.58C393.815,1055.33 393.59,1055.06 393.295,1054.9C392.312,1054.38 391.43,1054.46 390.393,1054.88C387.874,1055.91 387.089,1058.82 386.537,1061.19C384.985,1067.86 385.06,1075.79 386.617,1082.48C387.274,1085.3 388.647,1085.42 389.082,1085.78C389.392,1086.04 389.478,1086.52 389.811,1086.74C390.111,1086.94 390.538,1086.95 390.89,1086.87C390.992,1086.85 390.929,1086.52 391.015,1086.58C391.257,1086.75 390.904,1087.5 391.712,1087.09C394.181,1085.85 394.685,1084.7 395.66,1082.02C398.127,1075.23 398.285,1068.54 397.373,1061.41C397.232,1060.31 396.976,1059.18 396.454,1058.2C396.082,1057.5 395.408,1056.99 394.774,1056.51" style="fill:none;fill-rule:nonzero;stroke:black;stroke-width:4px;"/>
        </g>
        <g transform="matrix(1,0,0,1,831.951,-559.596)">
            <path d="M183.021,1030.03C183.021,1030.03 187.991,1028.73 190.501,1028.19C197.137,1026.75 196.929,1026.98 203.645,1026.05C214.136,1024.6 224.351,1023.82 234.736,1023.93C263.344,1024.22 292.452,1032.66 318.342,1044.97C330.458,1050.73 341.038,1056.33 352.793,1063.19C354.485,1064.18 355.493,1066.35 357.385,1066.86C357.701,1066.94 357.327,1066.19 357.182,1065.9" style="fill:none;fill-rule:nonzero;stroke:black;stroke-width:4px;"/>
        </g>
        <g transform="matrix(1,0,0,1,831.951,-559.596)">
            <path d="M344.977,1052.46C344.957,1052.35 344.918,1052.12 344.81,1052.16C344.529,1052.26 344.779,1052.83 345,1053.03C346.836,1054.68 347.079,1054.41 348.595,1056.33C349.469,1057.44 350.186,1058.67 351.09,1059.75C351.295,1060 351.697,1060.03 351.892,1060.28C352.324,1060.84 352.474,1061.59 352.926,1062.14C354.777,1064.38 355.023,1064.11 356.742,1066.4C356.786,1066.46 356.746,1066.16 356.682,1066.19C356.345,1066.37 356.334,1066.31 356.004,1066.09C354.196,1064.9 354.032,1065.37 351.998,1064.59C351.858,1064.54 351.987,1064.2 351.841,1064.17C351.539,1064.11 351.242,1064.38 350.934,1064.36C350.838,1064.35 350.904,1064.12 350.81,1064.1C349.84,1063.89 348.83,1063.92 347.862,1063.71C347.421,1063.61 347.061,1063.26 346.619,1063.17C346.296,1063.1 345.955,1063.32 345.632,1063.25C345.355,1063.19 345.176,1062.89 344.904,1062.81C342.054,1061.95 341.985,1062.49 339.036,1061.92C338.934,1061.9 338.92,1061.65 339.017,1061.61C339.11,1061.58 338.99,1061.89 339.089,1061.9C339.289,1061.92 339.482,1061.79 339.647,1061.67" style="fill:none;fill-rule:nonzero;stroke:black;stroke-width:4px;"/>
        </g>
        <g transform="matrix(1,0,0,1,831.951,-559.596)">
            <path d="M185.985,1129.88C186.808,1130.23 187.651,1130.58 188.536,1130.7C197.909,1131.94 197.749,1131.42 207.354,1131.99C224.902,1133.03 241.533,1132.51 258.487,1129.26C278.442,1125.44 299.259,1118.45 317.909,1109.85C325.107,1106.53 333.285,1102.55 340.115,1098.66C341.778,1097.71 351.609,1092.05 351.853,1091.98C353.399,1091.52 353.424,1090.21 354.818,1089.81C355.788,1089.53 353.098,1090.89 352.159,1091.26C346.082,1093.67 346.092,1092.97 339.714,1094.47C337.485,1094.99 333.006,1095.95 333.006,1095.95" style="fill:none;fill-rule:nonzero;stroke:black;stroke-width:4px;"/>
        </g>
        <g transform="matrix(1,0,0,1,831.951,-559.596)">
            <path d="M353.154,1090.71C351.176,1092.17 349.193,1093.64 347.355,1095.28C346.958,1095.63 346.841,1096.22 346.508,1096.63C346.005,1097.25 345.456,1097.85 344.859,1098.38C344.7,1098.52 344.396,1098.46 344.272,1098.63C342.338,1101.32 342.444,1101.36 340.457,1104.05C340.293,1104.27 340.387,1104.67 340.157,1104.82C339.98,1104.94 340.151,1104.38 340.245,1104.19C340.319,1104.04 340.483,1103.94 340.629,1103.86" style="fill:none;fill-rule:nonzero;stroke:black;stroke-width:4px;"/>
        </g>
        <g transform="matrix(1,0,0,1,831.951,-559.596)">
            <path d="M145.601,1098.63C145.542,1098.52 145.419,1098.28 145.544,1098.25C145.688,1098.22 145.861,1098.42 145.851,1098.57C145.835,1098.81 145.49,1098.95 145.482,1099.19C145.445,1100.26 145.746,1101.31 145.718,1102.38C145.697,1103.15 145.323,1103.89 145.336,1104.66C145.357,1105.95 145.726,1107.21 145.82,1108.5C145.839,1108.76 145.645,1109.01 145.671,1109.27C145.689,1109.45 145.949,1109.55 145.945,1109.73C145.916,1111.02 145.591,1112.29 145.575,1113.58C145.564,1114.42 145.833,1115.25 145.865,1116.09C145.898,1116.96 145.833,1117.83 145.769,1118.69" style="fill:none;fill-rule:nonzero;stroke:black;stroke-width:2px;"/>
        </g>
        <g transform="matrix(1,0,0,1,831.951,-559.596)">
            <path d="M145.964,1130.61C145.964,1130.61 145.791,1133.02 145.815,1134.23C145.828,1134.89 146.099,1135.53 146.084,1136.19C146.061,1137.17 145.759,1138.13 145.701,1139.11C145.572,1141.29 146.026,1141.25 146.005,1143.44C146.001,1143.89 145.709,1144.31 145.689,1144.76C145.654,1145.56 145.871,1146.35 145.841,1147.15C145.837,1147.25 145.584,1147.21 145.592,1147.31C145.639,1147.89 146.343,1148.68 145.875,1149.03C145.815,1149.07 145.693,1148.94 145.721,1148.87C145.756,1148.78 145.97,1148.86 145.98,1148.77C145.994,1148.64 145.867,1148.53 145.769,1148.44" style="fill:none;fill-rule:nonzero;stroke:black;stroke-width:2px;"/>
        </g>
        <g transform="matrix(1,0,0,1,831.951,-559.596)">
            <path d="M158.82,1098.83C158.761,1098.72 158.637,1098.48 158.763,1098.45C158.91,1098.42 159.08,1098.63 159.07,1098.78C159.054,1099.02 158.709,1099.16 158.701,1099.4C158.664,1100.47 158.966,1101.52 158.937,1102.59C158.916,1103.36 158.542,1104.09 158.555,1104.86C158.577,1106.15 158.945,1107.42 159.039,1108.71C159.058,1108.97 158.864,1109.21 158.89,1109.47C158.908,1109.65 159.168,1109.76 159.164,1109.94C159.135,1111.23 158.81,1112.5 158.794,1113.79C158.783,1114.63 159.031,1115.45 159.084,1116.29C159.112,1116.73 159.073,1117.17 159.035,1117.61" style="fill:none;fill-rule:nonzero;stroke:black;stroke-width:2px;"/>
        </g>
        <g transform="matrix(1,0,0,1,831.951,-559.596)">
            <path d="M159.03,1129.43C158.956,1129.84 158.88,1130.25 158.928,1130.66C158.94,1130.76 159.108,1130.76 159.193,1130.82C159.199,1130.82 159.194,1130.83 159.192,1130.84" style="fill:none;fill-rule:nonzero;stroke:black;stroke-width:2px;"/>
        </g>
        <g transform="matrix(1,0,0,1,831.951,-559.596)">
            <path d="M158.929,1142.38C158.918,1142.48 158.906,1142.59 158.93,1142.69C159.006,1143.01 159.227,1143.31 159.224,1143.64C159.22,1144.1 158.928,1144.52 158.908,1144.97C158.873,1145.77 159.089,1146.56 159.059,1147.36C159.055,1147.46 158.803,1147.42 158.811,1147.52C158.85,1148 159.106,1148.43 159.184,1148.9C159.203,1149.01 159.186,1149.16 159.094,1149.23C159.036,1149.27 158.912,1149.15 158.94,1149.08C158.975,1149 159.188,1149.07 159.198,1148.98C159.212,1148.85 159.085,1148.74 158.988,1148.65" style="fill:none;fill-rule:nonzero;stroke:black;stroke-width:2px;"/>
        </g>
        <g transform="matrix(1,0,0,1,831.951,-559.596)">
            <path d="M132.935,1099.3C132.935,1099.3 133.086,1101.8 133.053,1103.05C132.991,1105.36 132.772,1107.63 133.005,1109.94C133.388,1113.74 132.956,1118.32 132.997,1122.24C133.049,1127.27 133.534,1131.94 133.419,1136.85C133.352,1139.71 133.147,1142.67 133.024,1145.43C132.986,1146.28 132.858,1147.13 132.927,1147.98C132.974,1148.56 133.678,1149.36 133.21,1149.7C133.049,1149.82 133.103,1149.11 133.103,1149.11" style="fill:none;fill-rule:nonzero;stroke:black;stroke-width:2px;"/>
        </g>
        <g transform="matrix(1,0,0,1,831.951,-559.596)">
            <path d="M121.343,1111.45C121.343,1111.45 123.106,1112.05 124.013,1112C127.169,1111.82 129.706,1111.63 133.103,1111.67C142.463,1111.79 152.332,1110.51 161.94,1110.46C164.388,1110.45 166.836,1110.54 169.284,1110.61C170.931,1110.65 170.856,1111.3 172.5,1110.89C172.78,1110.82 171.787,1111.38 171.787,1111.38" style="fill:none;fill-rule:nonzero;stroke:black;stroke-width:2px;"/>
        </g>
        <g transform="matrix(1,0,0,1,831.951,-559.596)">
            <path d="M120.588,1124.62C120.588,1124.62 120.554,1124.96 120.677,1124.98C121.532,1125.09 122.397,1125.22 123.258,1125.17C124.001,1125.13 124.699,1124.74 125.443,1124.71C125.983,1124.69 126.499,1124.99 127.04,1125C128.81,1125.03 130.578,1124.82 132.348,1124.84C132.425,1124.84 132.345,1125.06 132.422,1125.06C135.008,1124.98 137.59,1124.8 140.171,1124.61" style="fill:none;fill-rule:nonzero;stroke:black;stroke-width:2px;"/>
        </g>
        <g transform="matrix(1,0,0,1,831.951,-559.596)">
            <path d="M151.766,1124.05C152.13,1124.06 152.495,1124.07 152.859,1124.07C153.084,1124.07 153.309,1124.05 153.534,1124.04" style="fill:none;fill-rule:nonzero;stroke:black;stroke-width:2px;"/>
        </g>
        <g transform="matrix(1,0,0,1,831.951,-559.596)">
            <path d="M165.335,1123.93C166.396,1123.83 167.465,1123.73 168.529,1123.78C170.165,1123.87 170.142,1124.45 171.745,1124.06C171.814,1124.04 171.676,1123.81 171.646,1123.87C171.6,1123.97 171.755,1124.12 171.681,1124.2C171.516,1124.38 171.264,1124.47 171.032,1124.55" style="fill:none;fill-rule:nonzero;stroke:black;stroke-width:2px;"/>
        </g>
        <g transform="matrix(1,0,0,1,831.951,-559.596)">
            <path d="M121.109,1137.26C121.109,1137.26 122.872,1137.85 123.779,1137.8C125.714,1137.69 125.66,1137.59 127.561,1137.63C132.845,1137.73 139.394,1137.41 144.417,1137.03C145.485,1136.95 146.526,1136.61 147.596,1136.57C149.378,1136.5 151.165,1136.6 152.946,1136.69" style="fill:none;fill-rule:nonzero;stroke:black;stroke-width:2px;"/>
        </g>
        <g transform="matrix(1,0,0,1,831.951,-559.596)">
            <path d="M164.968,1136.6C166.325,1136.48 167.689,1136.36 169.05,1136.41C170.692,1136.47 170.675,1137.08 172.266,1136.69C172.335,1136.67 172.197,1136.43 172.167,1136.5C172.121,1136.6 172.276,1136.75 172.202,1136.83C172.037,1137.01 171.785,1137.1 171.552,1137.18" style="fill:none;fill-rule:nonzero;stroke:black;stroke-width:2px;"/>
        </g>
        <g transform="matrix(1,0,0,1,831.951,-559.596)">
            <path d="M134.48,1109.93C134.408,1109.49 134.312,1108.9 133.904,1108.71C132.863,1108.23 131.539,1109.56 131.092,1110.17C130.262,1111.31 131.328,1113.43 132.739,1113.5C132.797,1113.5 134.955,1113.2 135.067,1112.45C135.321,1110.75 135.371,1108.17 132.931,1108.13C130.954,1108.1 131.099,1109.23 131.204,1110.69C131.252,1111.36 131.562,1112.48 132.08,1113.02C132.861,1113.84 133.682,1113.4 134.637,1112.85C135.904,1112.12 136.563,1110.14 135.132,1109.21C134.365,1108.71 134.306,1108.9 133.399,1108.84C132.181,1108.76 132.099,1108.25 131.056,1108.91C130.756,1109.1 130.629,1109.5 130.535,1109.84C130.183,1111.12 129.922,1113.56 131.639,1114.15C133.218,1114.69 133.646,1114.6 134.951,1113.58C135.309,1113.3 135.679,1112.97 135.84,1112.55C136.022,1112.07 136.436,1109.52 135.612,1108.99C134.766,1108.44 133.673,1108.35 132.665,1108.31C131.868,1108.28 131.219,1109.48 131.004,1109.99C130.465,1111.26 130.789,1112.53 131.907,1113.39C132.305,1113.69 132.776,1114.02 133.278,1114.01C133.705,1114.01 134.064,1113.64 134.383,1113.36C134.814,1112.98 135.295,1112.57 135.497,1112.03C135.955,1110.8 135.181,1109.56 134.526,1108.64C134.367,1108.42 134.15,1108.18 133.881,1108.13C133.201,1108 132.469,1107.91 131.802,1108.1C129.953,1108.62 130.39,1111.46 130.64,1112.56C130.727,1112.94 131.007,1113.3 131.335,1113.51C131.884,1113.87 132.516,1114.18 133.171,1114.22C133.686,1114.25 134.255,1114.07 134.641,1113.73C136.045,1112.48 136.494,1110.49 135.303,1108.93C134.703,1108.15 133.591,1107.88 132.675,1107.94C132.351,1107.96 131.943,1107.96 131.743,1108.22C131.188,1108.93 130.784,1109.77 130.554,1110.64C130.444,1111.06 130.616,1111.51 130.768,1111.91" style="fill:none;fill-rule:nonzero;stroke:black;stroke-width:2px;"/>
        </g>
        <g transform="matrix(1,0,0,1,831.951,-559.596)">
            <path d="M147.075,1108.88C146.988,1108.63 146.895,1108.37 146.704,1108.19C146.497,1108 146.219,1107.78 145.939,1107.82C145.403,1107.9 144.775,1108.09 144.48,1108.54C144.135,1109.07 142.63,1112.52 144.379,1113.12C144.707,1113.23 145.088,1113.28 145.419,1113.17C146.378,1112.86 147.567,1112.72 148.165,1111.91C148.831,1111.01 147.879,1109.23 147.115,1108.68C146.787,1108.44 146.368,1108.23 145.969,1108.29C144.502,1108.52 144.187,1109.42 143.911,1110.68C143.729,1111.51 143.917,1112.69 144.85,1113.11C146.032,1113.64 147.476,1112.4 148.157,1111.77C148.328,1111.61 148.477,1111.37 148.464,1111.14C148.414,1110.22 147.505,1108.79 146.777,1108.38C146.148,1108.03 145.365,1107.87 144.653,1107.98C144.269,1108.04 144.004,1108.48 143.865,1108.84C143.336,1110.21 143.285,1112.29 144.717,1113.25C145.331,1113.66 146.147,1114.18 146.833,1113.91C148.178,1113.37 149.703,1111.45 149.11,1109.84C148.858,1109.15 148.333,1108.59 147.817,1108.07C147.527,1107.78 147.144,1107.55 146.742,1107.47C146.237,1107.37 145.689,1107.38 145.197,1107.54C144.414,1107.79 143.834,1108.69 143.703,1109.45C143.478,1110.75 143.548,1112.41 144.887,1113.14C146.115,1113.81 148.016,1113.4 148.476,1111.91C148.776,1110.94 147.774,1108.92 147.396,1108.36C146.918,1107.65 145.033,1108.31 144.86,1108.36C144.441,1108.49 143.94,1108.61 143.7,1108.98C143.282,1109.62 142.764,1111.47 143.25,1112.37C143.486,1112.81 143.89,1113.16 144.314,1113.42C144.997,1113.84 145.887,1113.56 146.528,1113.28C147.535,1112.84 148.173,1112.35 148.611,1111.29C148.704,1111.07 148.66,1110.79 148.569,1110.56C148.302,1109.9 147.656,1108.87 146.947,1108.51C146.73,1108.4 146.435,1108.55 146.218,1108.44C146.134,1108.4 146.219,1108.24 146.265,1108.16" style="fill:none;fill-rule:nonzero;stroke:black;stroke-width:2px;"/>
        </g>
        <g transform="matrix(1,0,0,1,831.951,-559.596)">
            <path d="M134.942,1122.85C134.84,1122.62 134.721,1122.36 134.495,1122.26C133.72,1121.92 132.803,1121.92 132.103,1122.43C131.257,1123.04 130.559,1123.95 130.379,1125.01C130.31,1125.41 130.247,1125.92 130.511,1126.23C131.617,1127.54 132.883,1127.91 134.403,1127.18C134.467,1127.15 135.876,1125.97 135.658,1125.38C135.302,1124.42 134.85,1123.46 134.19,1122.68C133.929,1122.37 132.397,1121.4 131.853,1122.26C131.384,1123 131.117,1123.88 130.975,1124.75C130.826,1125.66 131.732,1126.48 132.451,1126.76C133.922,1127.33 135.305,1125.77 135.946,1124.71C136.069,1124.51 136.125,1124.25 136.095,1124.01C135.956,1122.93 135.217,1122.56 134.219,1122.15C133.796,1121.98 133.323,1121.9 132.867,1121.92C131.831,1121.98 131.276,1122.6 130.894,1123.54C130.743,1123.91 130.646,1124.36 130.784,1124.74C131.258,1126.04 132.725,1127.53 134.24,1127.01C134.721,1126.85 135.167,1126.55 135.533,1126.2C135.749,1125.99 137.096,1124.53 136.699,1123.77C135.85,1122.14 134.737,1120.69 132.818,1120.69C131.978,1120.69 131.134,1121.07 130.502,1121.6C130.323,1121.75 130.222,1121.99 130.156,1122.21C129.753,1123.57 129.553,1124.58 130.469,1125.88C130.954,1126.57 131.66,1127.09 132.373,1127.54C132.782,1127.8 133.287,1128.03 133.762,1127.95C135.222,1127.69 135.845,1126.93 136.129,1125.63C136.207,1125.28 136.233,1124.88 136.093,1124.54C135.438,1122.97 135.198,1123.13 133.677,1122.37C133.588,1122.33 133.67,1122.08 133.571,1122.09C132.839,1122.18 131.272,1122.58 130.879,1123.47C130.695,1123.89 130.765,1124.39 130.834,1124.84C130.891,1125.21 130.902,1125.75 131.249,1125.89C131.927,1126.17 132.727,1126.05 133.452,1125.93" style="fill:none;fill-rule:nonzero;stroke:black;stroke-width:2px;"/>
        </g>
        <g transform="matrix(1,0,0,1,831.951,-559.596)">
            <path d="M147.922,1120.92C147.646,1120.79 147.354,1120.65 147.154,1120.42C147.087,1120.34 147.332,1120.14 147.23,1120.12C146.788,1120.04 146.82,1120.53 146.444,1120.31C146.29,1120.22 146.313,1119.9 146.137,1119.87C145.822,1119.81 145.519,1120.09 145.199,1120.08C144.292,1120.05 144.187,1119.66 143.527,1120.26C142.671,1121.04 141.791,1122.14 141.617,1123.35C141.558,1123.76 141.779,1124.18 141.726,1124.59C141.655,1125.14 141.229,1125 141.307,1125.54C141.407,1126.24 141.407,1126.25 141.891,1126.75C142.39,1127.27 142.64,1128.04 143.237,1128.44C143.535,1128.64 143.958,1128.33 144.313,1128.38C144.637,1128.43 144.904,1128.72 145.231,1128.73C145.42,1128.74 145.53,1128.44 145.719,1128.44C145.816,1128.44 145.649,1128.68 145.734,1128.73C145.924,1128.83 146.167,1128.84 146.377,1128.79C147.838,1128.45 148.68,1127.99 149.459,1126.57C150.363,1124.92 150.569,1123.99 149.776,1122.42C149.45,1121.78 149.224,1122.09 148.587,1121.77C148.435,1121.69 148.447,1121.43 148.3,1121.35C148.235,1121.31 148.199,1121.6 148.164,1121.53C147.958,1121.14 147.846,1120.7 147.735,1120.27" style="fill:none;fill-rule:nonzero;stroke:black;stroke-width:2px;"/>
        </g>
        <g transform="matrix(1,0,0,1,831.951,-559.596)">
            <path d="M159.983,1131.73C159.993,1131.83 160.017,1132.04 159.926,1132.01C159.765,1131.96 159.765,1131.68 159.613,1131.61C159.542,1131.58 159.495,1131.83 159.439,1131.77C158.856,1131.19 158.656,1131.16 156.643,1132.36C155.935,1132.78 155.408,1133.49 154.998,1134.21C154.567,1134.96 154.18,1135.81 154.173,1136.68C154.155,1138.91 155.913,1140.75 157.999,1141.14C158.268,1141.19 158.473,1140.82 158.746,1140.8C159.288,1140.76 159.279,1140.8 159.813,1140.72C160.121,1140.67 160.111,1141 160.38,1140.82C161.915,1139.81 161.587,1139.52 162.63,1138.02C163.488,1136.79 163.735,1136.81 163.567,1135.31C163.343,1133.31 162.571,1132.72 160.966,1132.37C160.397,1132.25 159.809,1132.23 159.227,1132.21" style="fill:none;fill-rule:nonzero;stroke:black;stroke-width:2px;"/>
        </g>
        <g transform="matrix(1,0,0,1,831.951,-559.596)">
            <path d="M159.38,1117.97C158.661,1118.09 157.922,1118.21 157.264,1118.52C156.426,1118.92 155.215,1120.92 155.038,1121.49C154.612,1122.85 154.563,1124.75 155.529,1125.92C155.626,1126.04 155.741,1126.17 155.892,1126.2C155.968,1126.21 155.972,1125.93 156.007,1126C156.158,1126.3 156.107,1126.68 156.28,1126.96C156.327,1127.04 156.4,1126.74 156.48,1126.78C156.95,1127.02 156.939,1127 157.404,1127.21C157.513,1127.26 157.409,1127.51 157.52,1127.55C157.69,1127.62 157.897,1127.41 158.066,1127.48C158.256,1127.56 158.263,1127.97 158.469,1127.95C159.043,1127.9 159.525,1127.48 160.079,1127.32C160.224,1127.28 160.401,1127.28 160.529,1127.36C160.587,1127.4 160.385,1127.58 160.447,1127.55C161.136,1127.21 161.878,1126.93 162.45,1126.42C164.077,1124.97 164.748,1122.29 163.691,1120.29C163.593,1120.11 163.225,1120.34 163.07,1120.2C162.915,1120.06 163.092,1119.71 162.918,1119.59C162.722,1119.46 162.427,1119.71 162.21,1119.62C161.519,1119.32 161.013,1118.62 160.28,1118.44C159.804,1118.33 159.347,1118.78 158.858,1118.81C158.325,1118.85 157.789,1118.74 157.264,1118.64" style="fill:none;fill-rule:nonzero;stroke:black;stroke-width:2px;"/>
        </g>
        <g transform="matrix(1,0,0,1,831.951,-559.596)">
            <path d="M146.548,1106.92C146.518,1107.04 146.464,1107.25 146.347,1107.22C146.186,1107.18 146.238,1106.85 146.081,1106.8C145.925,1106.75 145.785,1106.99 145.621,1106.98C145.485,1106.97 145.416,1106.72 145.283,1106.75C144.095,1107.03 143.363,1107.51 142.758,1108.55C141.724,1110.33 141.81,1112.05 143.029,1113.75C143.265,1114.08 143.649,1114.32 144.043,1114.42C144.312,1114.49 144.565,1114.16 144.84,1114.19C145.585,1114.26 145.506,1114.74 146.217,1114.55C148.424,1113.95 149.79,1111.79 149.187,1109.48C149.014,1108.82 148.522,1108.2 147.936,1107.85C147.312,1107.47 146.518,1107.44 145.789,1107.42" style="fill:none;fill-rule:nonzero;stroke:black;stroke-width:2px;"/>
        </g>
        <g transform="matrix(1,0,0,1,831.951,-559.596)">
            <path d="M133.097,1107.92C133.197,1107.94 133.435,1108 133.403,1107.9C133.353,1107.75 133.164,1107.63 133.003,1107.63C132.55,1107.62 132.119,1107.87 131.666,1107.87C131.438,1107.87 131.244,1107.62 131.018,1107.65C130.834,1107.67 130.687,1107.84 130.587,1108C130.112,1108.74 129.595,1109.48 129.314,1110.32C129.125,1110.88 128.759,1112.88 129.486,1113.59C129.949,1114.04 130.578,1114.3 131.169,1114.56C131.545,1114.73 131.952,1114.87 132.364,1114.88C132.784,1114.9 133.206,1114.78 133.605,1114.65C135.272,1114.09 135.906,1112.73 136.189,1111.05C136.252,1110.67 136.114,1109.27 135.827,1108.85C135.107,1107.8 134.124,1106.94 132.677,1107.28C132.268,1107.38 132.051,1107.87 131.884,1108.26" style="fill:none;fill-rule:nonzero;stroke:black;stroke-width:2px;"/>
        </g>
        <g transform="matrix(1,0,0,1,831.951,-559.596)">
            <path d="M133.392,1121.3C133.625,1121.35 133.882,1121.41 134.11,1121.34C134.224,1121.3 133.913,1121.18 133.794,1121.17C133.52,1121.15 133.243,1121.3 132.973,1121.25C131.847,1121.04 131.717,1120.78 130.886,1121.55C130.209,1122.18 129.714,1123.88 129.705,1124.59C129.698,1125.08 130.11,1125.49 130.208,1125.97C130.332,1126.57 129.903,1127.06 130.553,1127.41C130.883,1127.59 131.251,1127.72 131.624,1127.77C131.695,1127.78 131.607,1127.52 131.665,1127.56C131.81,1127.66 131.789,1127.95 131.956,1128.01C132.116,1128.07 132.276,1127.82 132.443,1127.85C132.711,1127.91 132.881,1128.28 133.154,1128.26C133.445,1128.24 133.585,1127.84 133.86,1127.74C134.379,1127.55 134.451,1127.87 134.926,1127.57C135.278,1127.35 135.732,1127.15 135.884,1126.76C136.169,1126.03 136.161,1125.21 136.153,1124.43" style="fill:none;fill-rule:nonzero;stroke:black;stroke-width:2px;"/>
        </g>
        <g transform="matrix(1,0,0,1,831.951,-559.596)">
            <path d="M159.557,1107.23C159.491,1107.29 159.418,1107.36 159.394,1107.44C159.375,1107.51 159.577,1107.35 159.54,1107.29C159.396,1107.06 159.22,1106.75 158.949,1106.73C157.667,1106.65 156.846,1107.37 156.358,1108.47C156.176,1108.88 156.155,1109.36 156.182,1109.81C156.237,1110.72 156.455,1111.99 157.267,1112.62C157.695,1112.95 159.03,1112.96 159.42,1112.76C160.039,1112.43 160.576,1111.94 161.009,1111.39C161.806,1110.38 162.144,1108.35 161.029,1107.41C160.276,1106.78 158.684,1106.08 157.927,1107.4C157.484,1108.17 157.547,1109.15 157.533,1110.04C157.53,1110.25 157.982,1111.28 158.464,1111.12C159.081,1110.92 159.739,1110.61 160.106,1110.07C161.103,1108.62 158.465,1106.79 157.649,1108.61C157.42,1109.12 157.414,1109.72 157.463,1110.28C157.488,1110.57 157.635,1110.87 157.864,1111.04C158.635,1111.62 159.403,1111.23 159.899,1110.49C160.287,1109.91 160.443,1108.29 160.074,1107.68C159.334,1106.46 158.477,1106.68 157.469,1107.25C157.16,1107.43 156.834,1107.67 156.711,1108C156.402,1108.84 156.173,1109.74 156.222,1110.63C156.279,1111.67 157.196,1113.09 158.47,1112.95C159.5,1112.84 160.649,1111.73 161.029,1110.78C161.231,1110.28 161.531,1109.69 161.35,1109.18C161.188,1108.72 161.25,1110.2 160.962,1110.59C160.467,1111.27 159.831,1111.88 159.089,1112.27C158.463,1112.6 157.71,1112.73 157.006,1112.67C156.436,1112.62 155.926,1112.27 155.442,1111.96C155.372,1111.92 155.56,1111.76 155.632,1111.8C156.826,1112.49 156.675,1112.88 158.048,1112.95C158.12,1112.95 158.026,1112.75 158.098,1112.74C158.397,1112.71 158.709,1112.98 158.988,1112.87C160.742,1112.19 162.345,1110.24 161.78,1108.25C161.326,1106.65 160.75,1106.27 159.163,1105.58C158.829,1105.43 158.422,1105.33 158.079,1105.45C156.488,1106.01 155.464,1106.95 155.164,1108.67C155.044,1109.36 155.242,1110.07 155.399,1110.75C155.484,1111.12 155.619,1111.5 155.88,1111.77C156.952,1112.88 158.766,1113.18 160.11,1112.45C160.542,1112.22 160.876,1111.83 161.19,1111.45C161.402,1111.2 161.598,1110.9 161.668,1110.58C161.794,1110 161.451,1109.3 161.764,1108.79C161.983,1108.43 162.045,1109.6 162.013,1110.02C161.984,1110.41 161.875,1110.84 161.589,1111.1C161.134,1111.51 160.524,1111.75 159.931,1111.91C159.675,1111.98 159.376,1111.91 159.145,1111.78C158.972,1111.68 158.889,1111.47 158.818,1111.28" style="fill:none;fill-rule:nonzero;stroke:black;stroke-width:2px;"/>
        </g>
        <g transform="matrix(1,0,0,1,831.951,-559.596)">
            <path d="M156.275,1111.54C156.28,1111.54 156.285,1111.55 156.29,1111.55" style="fill:none;fill-rule:nonzero;stroke:black;stroke-width:2px;"/>
        </g>
        <g transform="matrix(1,0,0,1,831.951,-559.596)">
            <path d="M155.882,1109.21C155.745,1109.55 155.591,1109.93 155.67,1110.29C155.751,1110.66 156.016,1110.99 156.323,1111.21C156.527,1111.36 156.045,1110.78 156.008,1110.53C155.981,1110.35 156.308,1110.08 156.142,1110.01C155.928,1109.92 155.564,1110.11 155.535,1110.34C155.454,1110.98 156.181,1112.22 156.724,1112.55C156.853,1112.63 157.026,1112.46 157.135,1112.36" style="fill:none;fill-rule:nonzero;stroke:black;stroke-width:2px;"/>
        </g>
        <g transform="matrix(1,0,0,1,831.951,-559.596)">
            <path d="M159.369,1112.72C159.286,1112.82 159.179,1112.94 159.207,1113.07C159.228,1113.16 159.383,1113.23 159.473,1113.19C160.019,1112.96 160.55,1112.68 161.019,1112.32C161.178,1112.2 161.102,1111.82 161.3,1111.79C161.461,1111.77 161.436,1112.12 161.383,1112.27C161.302,1112.51 161.176,1112.82 160.93,1112.87C160.36,1112.99 159.772,1112.67 159.192,1112.71C159.068,1112.72 159.325,1112.96 159.448,1112.98C159.864,1113.04 160.323,1113.1 160.707,1112.93C161.198,1112.71 161.576,1112.28 161.931,1111.88" style="fill:none;fill-rule:nonzero;stroke:black;stroke-width:2px;"/>
        </g>
        <g transform="matrix(1,0,0,1,831.951,-559.596)">
            <path d="M148.754,1003.15C148.85,1003.13 148.964,1003.1 149.05,1003.15C149.125,1003.19 148.947,1002.91 148.878,1002.96C148.159,1003.49 146.933,1004.11 146.302,1004.85C144.455,1007 143.504,1009.07 142.649,1011.62C142.063,1013.37 142.454,1013.4 142.312,1015.23C142.123,1017.67 141.892,1018.67 142.701,1021.13C142.724,1021.2 142.875,1021.06 142.918,1021.12C143.098,1021.36 143.849,1022.15 143.661,1021.85C143.626,1021.8 143.586,1021.99 143.62,1022.04C143.813,1022.35 144.039,1022.64 144.31,1022.89C144.896,1023.42 145.956,1024.04 146.732,1024.26C146.931,1024.32 147.14,1024.04 147.336,1024.11C147.638,1024.22 147.854,1024.51 148.161,1024.6C148.686,1024.75 150.177,1023.95 150.748,1023.83C150.87,1023.8 151.748,1023.87 151.892,1023.8C152.167,1023.67 152.966,1023.32 153.239,1023.11C153.505,1022.91 153.635,1022.31 153.953,1022.41C154.419,1022.56 155.413,1021.2 155.927,1021.1C156.044,1021.08 156.15,1021.31 156.251,1021.25C156.918,1020.83 156.753,1020.36 157.501,1020C159.038,1019.27 160.868,1015.84 161.401,1013.98C161.71,1012.9 162.562,1009.8 162.225,1008.32C161.955,1007.13 161.533,1005.96 160.923,1004.91C160.684,1004.5 160.107,1004.4 159.763,1004.07C159.631,1003.94 159.676,1003.68 159.531,1003.57C158.737,1002.95 157.898,1002.9 157.064,1002.4C156.937,1002.32 157.024,1002.06 156.892,1001.99C156.804,1001.95 156.801,1002.19 156.706,1002.22C156.662,1002.23 155.659,1002.18 155.378,1002.21C155.313,1002.22 155.217,1002.4 155.121,1002.39C154.778,1002.35 154.459,1002.19 154.129,1002.09C154.071,1002.07 154.218,1001.91 154.157,1001.91C153.168,1001.85 151.531,1002.17 151.31,1002.17C150.857,1002.16 150.402,1002.24 149.952,1002.19C149.875,1002.18 149.97,1001.91 149.911,1001.96C149.481,1002.33 149.178,1002.82 148.761,1003.2C148.295,1003.62 147.781,1003.99 147.269,1004.36" style="fill:none;fill-rule:nonzero;stroke:black;stroke-width:2.5px;"/>
        </g>
        <g transform="matrix(1,0,0,1,831.951,-559.596)">
            <path d="M147.983,1024.99C147.983,1024.99 148.312,1025.25 148.292,1025.42C148.19,1026.31 148.094,1027.19 147.981,1028.08C147.752,1029.87 147.891,1029.85 147.815,1031.65C147.743,1033.37 147.286,1034.88 147.029,1036.57C146.71,1038.67 146.288,1045.06 146.158,1046.59C146.061,1047.73 146.053,1048.88 146.044,1050.02" style="fill:none;fill-rule:nonzero;stroke:black;stroke-width:2.5px;"/>
        </g>
        <g transform="matrix(1,0,0,1,831.951,-559.596)">
            <path d="M145.691,1050.81C145.691,1050.81 145.323,1053.08 145.337,1054.22C145.366,1056.61 145.531,1058.99 145.665,1061.37C145.812,1063.99 146.532,1066.59 146.804,1069.16C147.154,1072.47 146.742,1072.44 147.183,1075.72C147.276,1076.41 147.767,1077.02 147.813,1077.72C147.897,1079 147.582,1081.74 148.357,1083.01C148.398,1083.08 148.448,1082.71 148.443,1082.79C148.433,1082.95 148.483,1083.34 148.341,1083.26C148.128,1083.15 148.092,1082.83 148.065,1082.59" style="fill:none;fill-rule:nonzero;stroke:black;stroke-width:2.5px;"/>
        </g>
        <g transform="matrix(1,0,0,1,831.951,-559.596)">
            <path d="M144.73,1051.1C144.789,1051.04 144.866,1050.96 144.95,1050.97C145.504,1051.05 144.829,1052.1 144.589,1052.61C143.922,1054.02 143.188,1055.39 142.43,1056.75C141.72,1058.03 140.826,1059.19 140.09,1060.45C139.79,1060.96 139.671,1061.58 139.326,1062.06C138.786,1062.82 137.986,1063.37 137.462,1064.14C136.809,1065.1 136.476,1066.24 135.915,1067.26C135.87,1067.34 136.058,1066.97 136.099,1067.05C136.16,1067.17 135.936,1067.34 136.009,1067.45C136.064,1067.54 136.101,1067.15 136.194,1067.2C136.419,1067.31 136.46,1067.65 136.674,1067.78C136.744,1067.82 136.729,1067.53 136.802,1067.57C137.226,1067.79 137.283,1068.3 138.054,1068.65C139.022,1069.09 139.143,1068.76 139.965,1069.14C142.475,1070.32 143.195,1070.91 146.309,1071.59C146.744,1071.68 147.275,1071.33 147.646,1071.58C148.458,1072.12 150.287,1072.8 150.715,1073.4C150.734,1073.43 152.503,1073.85 152.636,1073.92C152.737,1073.97 152.702,1074.17 152.631,1074.26C152.607,1074.29 152.63,1074.13 152.597,1074.15C152.459,1074.23 152.288,1074.23 152.129,1074.24" style="fill:none;fill-rule:nonzero;stroke:black;stroke-width:2.5px;"/>
        </g>
        <g transform="matrix(1,0,0,1,831.951,-559.596)">
            <path d="M145.817,1048.74C145.288,1049.93 144.759,1051.11 144.23,1052.3" style="fill:none;fill-rule:nonzero;stroke:black;stroke-width:2.5px;"/>
        </g>
        <g transform="matrix(1,0,0,1,831.951,-559.596)">
            <path d="M148.036,1025.58C148.036,1025.58 147.872,1027.12 147.581,1027.82C146.928,1029.4 146.253,1030.98 145.418,1032.47C144.961,1033.29 144.211,1033.91 143.724,1034.71C142.77,1036.27 142.138,1037.91 141.168,1039.49C139.737,1041.83 139.434,1041.55 137.942,1043.82C136.642,1045.8 135.378,1047.81 133.993,1049.7C133.914,1049.81 134.259,1049.4 134.259,1049.4" style="fill:none;fill-rule:nonzero;stroke:black;stroke-width:2.5px;"/>
        </g>
        <g transform="matrix(1,0,0,1,831.951,-559.596)">
            <path d="M149.182,1025.28C149.006,1025.34 148.784,1025.42 148.626,1025.32C148.525,1025.26 148.897,1025 148.921,1025.12C149.176,1026.37 149.131,1027.67 149.361,1028.92C149.51,1029.74 149.797,1030.52 150.076,1031.3C151.857,1036.28 153.641,1041.27 155.849,1046.1C156.302,1047.09 156.834,1048.27 157.399,1048.98C157.476,1049.08 158.777,1050.33 158.804,1050.39C159.103,1051.1 158.863,1051.16 159.332,1051.74C159.387,1051.81 159.075,1051.69 159.075,1051.69" style="fill:none;fill-rule:nonzero;stroke:black;stroke-width:2.5px;"/>
        </g>
        <g transform="matrix(1,0,0,1,831.951,-559.596)">
            <path d="M147.579,1082.45C147.645,1082.42 147.761,1082.38 147.791,1082.44C147.851,1082.57 147.809,1082.73 147.773,1082.87" style="fill:none;fill-rule:nonzero;stroke:black;stroke-width:2.5px;"/>
        </g>
        <g transform="matrix(1,0,0,1,831.951,-559.596)">
            <path d="M147.827,1081.67C147.817,1081.58 147.791,1081.33 147.853,1081.4C147.929,1081.48 147.826,1081.64 147.884,1081.73C148.212,1082.26 148.183,1082.28 148.282,1082.89C148.467,1084.03 148.622,1085.18 148.777,1086.33" style="fill:none;fill-rule:nonzero;stroke:black;stroke-width:2.5px;"/>
        </g>
    </g>
</svg>
