<?xml version="1.0" encoding="UTF-8" standalone="no"?>
<!DOCTYPE svg PUBLIC "-//W3C//DTD SVG 1.1//EN" "http://www.w3.org/Graphics/SVG/1.1/DTD/svg11.dtd">
<svg width="100%" height="100%" viewBox="0 0 389 296" version="1.1" xmlns="http://www.w3.org/2000/svg" xmlns:xlink="http://www.w3.org/1999/xlink" xml:space="preserve" xmlns:serif="http://www.serif.com/" style="fill-rule:evenodd;clip-rule:evenodd;stroke-linecap:round;stroke-linejoin:round;">
    <g transform="matrix(1,0,0,1,-844.724,-1045.02)">
        <g>
            <path d="M1150.42,1129.85C1150.41,1130.13 1150.39,1130.52 1150.13,1130.64C1149.95,1130.72 1149.97,1130.25 1149.8,1130.14C1149.52,1129.97 1149.18,1129.84 1148.86,1129.85C1148.74,1129.85 1148.8,1130.23 1148.7,1130.17C1148.18,1129.85 1148.4,1129.49 1148.05,1129.47C1147.67,1129.45 1147.31,1129.8 1146.94,1129.72C1146.29,1129.58 1145.7,1128.54 1145.13,1128.88C1144.97,1128.98 1145.11,1129.36 1144.92,1129.42C1144.49,1129.56 1144.14,1128.88 1143.69,1128.86C1142.12,1128.77 1142.2,1129.14 1140.6,1129.25C1140.49,1129.26 1140.55,1128.93 1140.44,1128.96C1138.53,1129.5 1136.05,1130.97 1134.46,1132.58C1130.6,1136.52 1130.18,1141.27 1129.88,1146.47C1129.81,1147.78 1129.67,1149.58 1130.38,1150.89C1130.44,1150.99 1130.61,1150.59 1130.64,1150.69C1131.09,1151.91 1131.03,1153.27 1131.49,1154.48C1131.54,1154.61 1131.84,1154.41 1131.92,1154.53C1133.05,1156.31 1132.44,1156.75 1134.16,1157.98C1135.65,1159.05 1137.84,1159.71 1139.63,1160C1139.88,1160.04 1140.14,1159.7 1140.36,1159.82C1140.68,1159.99 1140.8,1160.43 1141.12,1160.59C1141.28,1160.67 1141.5,1160.38 1141.65,1160.47C1141.79,1160.55 1141.57,1160.9 1141.73,1160.95C1141.87,1160.99 1141.7,1160.55 1141.85,1160.53C1142.28,1160.46 1142.71,1160.78 1143.14,1160.71C1143.28,1160.69 1143.12,1160.33 1143.25,1160.31C1143.38,1160.29 1143.28,1160.69 1143.41,1160.67C1143.6,1160.64 1143.61,1160.26 1143.8,1160.24C1143.97,1160.23 1143.84,1160.67 1144.01,1160.72C1144.44,1160.84 1144.92,1160.66 1145.36,1160.78C1145.48,1160.81 1145.35,1161.13 1145.46,1161.12C1145.64,1161.11 1145.66,1160.74 1145.83,1160.75C1145.96,1160.76 1145.77,1161.14 1145.9,1161.14C1146.05,1161.13 1145.99,1160.82 1146.12,1160.74C1146.23,1160.67 1146.34,1160.95 1146.47,1160.94C1147.53,1160.88 1147.31,1160.43 1148.34,1160.12C1148.64,1160.03 1148.98,1160.49 1149.27,1160.36C1149.5,1160.26 1149.5,1159.84 1149.74,1159.79C1150.05,1159.73 1150.35,1160.2 1150.64,1160.08C1152.46,1159.33 1152.85,1157.77 1153.91,1156.47C1155.3,1154.76 1155.9,1155.31 1156.77,1153.34C1158.69,1148.97 1158.29,1145.91 1157.84,1141.53C1157.6,1139.1 1157.93,1137.76 1156.4,1135.36C1155.44,1133.86 1154.93,1134.42 1153.8,1133.05C1153.56,1132.76 1153.64,1132.26 1153.37,1131.99C1153.26,1131.88 1153.08,1132.23 1152.92,1132.18C1152.1,1131.9 1152.29,1131.65 1151.52,1131.3C1151.39,1131.24 1151.31,1131.59 1151.18,1131.53C1150.96,1131.43 1150.9,1131.1 1150.68,1131C1150.48,1130.91 1150.23,1130.97 1150.02,1131.02" style="fill:none;fill-rule:nonzero;stroke:black;stroke-width:4px;"/>
        </g>
        <g>
            <path d="M1200.53,1126.19C1200.51,1126.33 1200.48,1126.58 1200.34,1126.57C1199.58,1126.52 1200.61,1125.83 1200.55,1126.03C1200.19,1127.15 1199.43,1128.12 1199.05,1129.12C1197.74,1132.59 1196.74,1136.52 1196.03,1140.17C1195.54,1142.7 1195.32,1145.28 1195.21,1147.86C1195.08,1151.1 1196,1158.96 1196.3,1160.34C1196.49,1161.19 1196.49,1162.08 1196.68,1162.93C1196.71,1163.07 1196.94,1163.11 1196.97,1163.25C1197.42,1165.06 1197.6,1164.94 1198.44,1166.58C1198.66,1167.02 1198.12,1167.12 1198.6,1167.46C1198.72,1167.55 1198.63,1166.88 1198.53,1167C1198.37,1167.2 1198.33,1168.02 1198.37,1167.76C1198.41,1167.43 1198.31,1167 1198.56,1166.78C1198.78,1166.59 1198.81,1167.81 1198.42,1167.72C1198.16,1167.66 1198.39,1166.91 1198.39,1166.91" style="fill:none;fill-rule:nonzero;stroke:black;stroke-width:4px;"/>
        </g>
        <g>
            <path d="M1217.31,1142.77C1217.26,1142.91 1217.13,1143.25 1217.29,1143.23C1217.46,1143.21 1217.29,1142.99 1217.49,1143C1217.96,1143.02 1217.68,1142.01 1217.46,1141.59C1217.4,1141.46 1217.12,1141.69 1217.04,1141.58C1216.95,1141.46 1217.2,1141.27 1217.13,1141.14C1217.06,1141.03 1216.82,1141.18 1216.73,1141.08C1216.6,1140.9 1216.73,1140.59 1216.57,1140.43C1216.49,1140.35 1216.4,1140.81 1216.37,1140.7C1216.24,1140.25 1216.46,1139.71 1216.24,1139.3C1216.14,1139.13 1216.07,1139.81 1215.88,1139.77C1215.67,1139.73 1215.88,1139.28 1215.69,1139.18C1214.83,1138.73 1212.91,1139.13 1212.31,1139.62C1211.41,1140.37 1210.75,1141.4 1210.21,1142.44C1207.84,1147.04 1207.48,1153.89 1207.45,1158.75C1207.45,1159.13 1207.79,1159.44 1207.85,1159.82C1207.89,1160.02 1207.69,1160.23 1207.76,1160.42C1207.8,1160.55 1208.05,1160.47 1208.13,1160.58C1208.26,1160.77 1208.15,1161.08 1208.31,1161.25C1208.39,1161.33 1208.53,1160.97 1208.6,1161.06C1208.76,1161.28 1208.6,1161.63 1208.76,1161.85C1208.84,1161.95 1208.85,1161.38 1208.92,1161.49C1209.1,1161.76 1208.98,1162.16 1209.15,1162.44C1209.64,1163.29 1210.4,1162.43 1210.72,1162.34C1211.06,1162.24 1211.49,1162.53 1211.78,1162.32C1212.22,1162 1212.29,1161.35 1212.64,1160.93C1213.33,1160.09 1213.88,1159.51 1214.38,1158.54C1214.96,1157.39 1215.43,1156.19 1215.9,1154.99" style="fill:none;fill-rule:nonzero;stroke:black;stroke-width:4px;"/>
        </g>
        <g>
            <path d="M1216.85,1142.88C1217.01,1142.93 1217.23,1143.01 1217.36,1142.9C1217.46,1142.82 1217.32,1142.4 1217.28,1142.52C1217.19,1142.77 1216.97,1143.31 1217.23,1143.3C1217.57,1143.29 1217.69,1142.79 1217.87,1142.5C1217.96,1142.35 1217.45,1143.05 1217.48,1142.87C1217.64,1142.1 1218.93,1140.57 1218.14,1140.6C1216.83,1140.65 1218.19,1143.23 1218.14,1144.55C1218.11,1145.23 1217.77,1145.88 1217.73,1146.56C1217.58,1149.01 1217.55,1151.46 1217.57,1153.91C1217.57,1154.25 1217.82,1154.56 1217.8,1154.9C1217.78,1155.33 1217.44,1155.72 1217.45,1156.15C1217.47,1156.7 1217.9,1157.18 1217.89,1157.73C1217.89,1158.82 1217.55,1159.89 1217.43,1160.98C1217.43,1161.07 1217.64,1160.83 1217.69,1160.9C1217.98,1161.36 1217.72,1161.44 1218.07,1161.9C1218.17,1162.02 1217.94,1161.54 1217.79,1161.54C1217.65,1161.54 1218.02,1161.76 1218.01,1161.9C1218,1162.37 1217.79,1162.35 1217.95,1162.76C1218.04,1162.97 1217.75,1163.25 1217.88,1163.42C1217.99,1163.55 1218.16,1163.14 1218.13,1162.98C1218.11,1162.87 1217.86,1163.19 1217.82,1163.09C1217.77,1162.95 1218,1162.84 1218.01,1162.7C1218.03,1162.6 1217.89,1162.85 1217.84,1162.94" style="fill:none;fill-rule:nonzero;stroke:black;stroke-width:4px;"/>
        </g>
        <g>
            <path d="M1224.56,1125.13C1224.92,1125.16 1225.38,1125.19 1225.61,1124.93C1225.73,1124.79 1225.11,1124.77 1225.17,1124.6C1225.27,1124.35 1225.17,1123.83 1225.44,1123.83C1225.7,1123.83 1225.29,1124.34 1225.32,1124.6C1225.34,1124.74 1225.57,1124.14 1225.6,1124.28C1226.23,1127.65 1227.89,1131.01 1228.99,1134.27C1229.98,1137.23 1230.26,1140.03 1230.61,1143.03C1230.62,1143.14 1230.76,1142.63 1230.78,1142.74C1231.53,1145.9 1231.68,1148.09 1231.69,1151.73C1231.7,1155.32 1230.9,1159.69 1230.19,1162.3C1229.87,1163.5 1229.78,1164.74 1229.46,1165.94C1229.11,1167.28 1228.64,1168.58 1228.18,1169.88" style="fill:none;fill-rule:nonzero;stroke:black;stroke-width:4px;"/>
        </g>
        <g>
            <path d="M1150.42,1232.85C1150.41,1233.13 1150.39,1233.52 1150.13,1233.64C1149.95,1233.72 1149.97,1233.25 1149.8,1233.14C1149.52,1232.97 1149.18,1232.84 1148.86,1232.85C1148.74,1232.85 1148.8,1233.23 1148.7,1233.17C1148.18,1232.85 1148.4,1232.49 1148.05,1232.47C1147.67,1232.45 1147.31,1232.8 1146.94,1232.72C1146.29,1232.58 1145.7,1231.54 1145.13,1231.88C1144.97,1231.98 1145.11,1232.36 1144.92,1232.42C1144.49,1232.56 1144.14,1231.88 1143.69,1231.86C1142.12,1231.77 1142.2,1232.14 1140.6,1232.25C1140.49,1232.26 1140.55,1231.93 1140.44,1231.96C1138.53,1232.5 1136.05,1233.97 1134.46,1235.58C1130.6,1239.52 1130.18,1244.27 1129.88,1249.47C1129.81,1250.78 1129.67,1252.58 1130.38,1253.89C1130.44,1253.99 1130.61,1253.59 1130.64,1253.69C1131.09,1254.91 1131.03,1256.27 1131.49,1257.48C1131.54,1257.61 1131.84,1257.41 1131.92,1257.53C1133.05,1259.31 1132.44,1259.75 1134.16,1260.98C1135.65,1262.05 1137.84,1262.71 1139.63,1263C1139.88,1263.04 1140.14,1262.7 1140.36,1262.82C1140.68,1262.99 1140.8,1263.43 1141.12,1263.59C1141.28,1263.67 1141.5,1263.38 1141.65,1263.47C1141.79,1263.55 1141.57,1263.9 1141.73,1263.95C1141.87,1263.99 1141.7,1263.55 1141.85,1263.53C1142.28,1263.46 1142.71,1263.78 1143.14,1263.71C1143.28,1263.69 1143.12,1263.33 1143.25,1263.31C1143.38,1263.29 1143.28,1263.69 1143.41,1263.67C1143.6,1263.64 1143.61,1263.26 1143.8,1263.24C1143.97,1263.23 1143.84,1263.67 1144.01,1263.72C1144.44,1263.84 1144.92,1263.66 1145.36,1263.78C1145.48,1263.81 1145.35,1264.13 1145.46,1264.12C1145.64,1264.11 1145.66,1263.74 1145.83,1263.75C1145.96,1263.76 1145.77,1264.14 1145.9,1264.14C1146.05,1264.13 1145.99,1263.82 1146.12,1263.74C1146.23,1263.67 1146.34,1263.95 1146.47,1263.94C1147.53,1263.88 1147.31,1263.43 1148.34,1263.12C1148.64,1263.03 1148.98,1263.49 1149.27,1263.36C1149.5,1263.26 1149.5,1262.84 1149.74,1262.79C1150.05,1262.73 1150.35,1263.2 1150.64,1263.08C1152.46,1262.33 1152.85,1260.77 1153.91,1259.47C1155.3,1257.76 1155.9,1258.31 1156.77,1256.34C1158.69,1251.97 1158.29,1248.91 1157.84,1244.53C1157.6,1242.1 1157.93,1240.76 1156.4,1238.36C1155.44,1236.86 1154.93,1237.42 1153.8,1236.05C1153.56,1235.76 1153.64,1235.26 1153.37,1234.99C1153.26,1234.88 1153.08,1235.23 1152.92,1235.18C1152.1,1234.9 1152.29,1234.65 1151.52,1234.3C1151.39,1234.24 1151.31,1234.59 1151.18,1234.53C1150.96,1234.43 1150.9,1234.1 1150.68,1234C1150.48,1233.91 1150.23,1233.97 1150.02,1234.02" style="fill:none;fill-rule:nonzero;stroke:black;stroke-width:4px;"/>
        </g>
        <g>
            <path d="M1145.27,1167.97C1145.27,1167.97 1145.21,1169.58 1145.24,1170.38C1145.34,1173.79 1145.14,1177.21 1145.26,1180.62C1145.57,1189.56 1146.21,1197.49 1146.32,1206.16C1146.38,1210.96 1146.13,1215.75 1146.16,1220.55C1146.17,1221.84 1146.23,1222.9 1146.15,1223.83C1146.14,1223.99 1146.67,1224.01 1146.55,1224.11C1146.25,1224.34 1145.98,1223.13 1145.98,1223.13" style="fill:none;fill-rule:nonzero;stroke:black;stroke-width:4px;"/>
        </g>
        <g>
            <path d="M1144.55,1167.58C1144.52,1167.73 1144.46,1168.03 1144.61,1168.03C1144.76,1168.03 1144.66,1167.45 1144.57,1167.58C1144.35,1167.93 1144.19,1168.34 1144.14,1168.76C1144,1169.8 1144.14,1170.86 1143.99,1171.9C1143.77,1173.42 1143.26,1174.9 1143.02,1176.42C1142.32,1180.88 1142.82,1180.93 1141.56,1185.26C1140.98,1187.3 1140.89,1187.24 1140.44,1189.29C1140.41,1189.45 1140.39,1188.97 1140.38,1188.81" style="fill:none;fill-rule:nonzero;stroke:black;stroke-width:4px;"/>
        </g>
        <g>
            <path d="M1145.37,1168.29C1145.71,1171.2 1146.04,1174.12 1146.57,1177C1147.2,1180.39 1147.82,1180.18 1148.82,1183.49C1149.24,1184.89 1149.29,1186.39 1149.73,1187.79C1149.89,1188.29 1150.17,1189.45 1150.59,1189.12C1151.05,1188.76 1150.54,1187.89 1150.24,1187.39" style="fill:none;fill-rule:nonzero;stroke:black;stroke-width:4px;"/>
        </g>
        <g>
            <path d="M943.301,1128.52C943.288,1128.8 943.27,1129.2 943.014,1129.32C942.832,1129.41 942.845,1128.93 942.674,1128.82C942.395,1128.65 942.062,1128.51 941.733,1128.52C941.612,1128.52 941.683,1128.91 941.579,1128.85C941.049,1128.53 941.278,1128.17 940.923,1128.15C940.547,1128.13 940.189,1128.48 939.821,1128.4C939.172,1128.26 938.582,1127.21 938.014,1127.56C937.849,1127.66 937.987,1128.04 937.803,1128.1C937.37,1128.24 937.019,1127.56 936.566,1127.53C934.981,1127.44 935.079,1127.82 933.474,1127.93C933.365,1127.94 933.424,1127.61 933.318,1127.64C931.392,1128.15 928.907,1129.67 927.344,1131.26C923.477,1135.2 923.058,1139.94 922.758,1145.15C922.683,1146.46 922.556,1148.25 923.264,1149.56C923.315,1149.65 923.487,1149.27 923.523,1149.37C923.959,1150.59 923.911,1151.95 924.371,1153.16C924.421,1153.29 924.718,1153.09 924.794,1153.21C925.932,1155 925.325,1155.42 927.04,1156.65C928.503,1157.7 930.726,1158.4 932.508,1158.68C932.757,1158.72 933.02,1158.38 933.242,1158.5C933.559,1158.67 933.677,1159.11 933.998,1159.27C934.161,1159.35 934.375,1159.06 934.532,1159.15C934.671,1159.23 934.449,1159.58 934.604,1159.63C934.743,1159.67 934.583,1159.23 934.727,1159.21C935.156,1159.14 935.591,1159.46 936.021,1159.39C936.161,1159.37 935.992,1159 936.132,1158.98C936.265,1158.96 936.156,1159.37 936.289,1159.35C936.483,1159.33 936.481,1158.93 936.675,1158.91C936.852,1158.89 936.712,1159.35 936.883,1159.4C937.319,1159.52 937.804,1159.34 938.241,1159.46C938.355,1159.49 938.223,1159.81 938.341,1159.8C938.514,1159.79 938.534,1159.42 938.708,1159.43C938.84,1159.44 938.649,1159.83 938.781,1159.82C938.932,1159.82 938.87,1159.5 938.997,1159.42C939.11,1159.35 939.214,1159.63 939.348,1159.62C940.409,1159.56 940.198,1159.12 941.214,1158.8C941.521,1158.7 941.854,1159.17 942.149,1159.04C942.375,1158.94 942.38,1158.52 942.622,1158.47C942.929,1158.41 943.226,1158.88 943.515,1158.76C945.333,1158.01 945.736,1156.45 946.791,1155.15C948.146,1153.48 948.761,1154.04 949.648,1152.02C951.571,1147.65 951.165,1144.59 950.722,1140.21C950.477,1137.79 950.811,1136.44 949.278,1134.04C948.32,1132.54 947.806,1133.1 946.68,1131.73C946.438,1131.44 946.523,1130.94 946.252,1130.67C946.136,1130.56 945.955,1130.91 945.801,1130.86C944.979,1130.58 945.171,1130.33 944.395,1129.98C944.272,1129.92 944.183,1130.27 944.061,1130.21C943.838,1130.11 943.782,1129.77 943.556,1129.67C943.355,1129.58 943.11,1129.64 942.897,1129.7" style="fill:none;fill-rule:nonzero;stroke:black;stroke-width:4px;"/>
        </g>
        <g>
            <path d="M943.528,1232.74C943.514,1233.02 943.494,1233.41 943.241,1233.53C943.062,1233.62 943.07,1233.14 942.901,1233.04C942.621,1232.87 942.29,1232.73 941.961,1232.74C941.84,1232.74 941.91,1233.13 941.806,1233.07C941.278,1232.75 941.51,1232.39 941.151,1232.37C940.776,1232.35 940.416,1232.69 940.049,1232.61C939.401,1232.47 938.808,1231.44 938.241,1231.78C938.076,1231.88 938.215,1232.27 938.03,1232.32C937.595,1232.45 937.246,1231.78 936.793,1231.75C935.226,1231.66 935.312,1232.04 933.702,1232.15C933.59,1232.16 933.655,1231.82 933.546,1231.85C932.908,1232.02 933.117,1232.29 932.503,1232.55C930.203,1233.54 929.266,1233.75 927.571,1235.47C923.702,1239.4 923.282,1244.16 922.985,1249.36C922.91,1250.67 922.776,1252.47 923.491,1253.78C923.543,1253.88 923.714,1253.48 923.751,1253.58C924.194,1254.8 924.139,1256.16 924.599,1257.37C924.649,1257.5 924.946,1257.3 925.022,1257.42C926.172,1259.22 925.561,1259.65 927.268,1260.87C928.795,1261.96 930.921,1262.6 932.736,1262.89C932.985,1262.93 933.248,1262.59 933.47,1262.71C933.789,1262.88 933.902,1263.33 934.225,1263.49C934.389,1263.57 934.6,1263.27 934.759,1263.36C934.899,1263.44 934.68,1263.79 934.832,1263.84C934.966,1263.89 934.814,1263.45 934.955,1263.43C935.709,1263.31 935.658,1263.33 936.36,1263.2C936.489,1263.18 936.386,1263.58 936.516,1263.56C936.707,1263.54 936.71,1263.14 936.903,1263.13C937.08,1263.12 936.94,1263.57 937.111,1263.62C937.547,1263.74 938.031,1263.55 938.468,1263.67C938.582,1263.7 938.451,1264.02 938.569,1264.01C938.742,1264 938.762,1263.63 938.935,1263.64C939.07,1263.65 938.873,1264.04 939.009,1264.04C939.16,1264.04 939.099,1263.73 939.224,1263.64C939.335,1263.56 939.441,1263.85 939.576,1263.84C940.631,1263.77 940.413,1263.33 941.442,1263.02C941.75,1262.93 942.08,1263.38 942.376,1263.26C942.604,1263.16 942.608,1262.74 942.85,1262.69C943.157,1262.63 943.454,1263.1 943.743,1262.98C945.558,1262.23 945.959,1260.67 947.018,1259.37C948.379,1257.7 948.988,1258.25 949.876,1256.23C951.795,1251.86 951.393,1248.81 950.95,1244.43C950.705,1242 951.037,1240.66 949.505,1238.26C948.544,1236.75 948.033,1237.31 946.908,1235.94C946.666,1235.65 946.753,1235.15 946.48,1234.88C946.362,1234.77 946.184,1235.13 946.028,1235.08C945.192,1234.8 945.394,1234.53 944.623,1234.2C944.498,1234.15 944.411,1234.49 944.288,1234.43C944.065,1234.33 944.009,1233.99 943.784,1233.89C943.583,1233.8 943.339,1233.86 943.125,1233.91" style="fill:none;fill-rule:nonzero;stroke:black;stroke-width:4px;"/>
        </g>
        <g>
            <path d="M903.023,1227.98C903.378,1228.01 903.833,1228.04 904.071,1227.78C904.317,1227.51 903.537,1226.69 903.905,1226.69C904.162,1226.69 903.746,1227.2 903.784,1227.45C903.805,1227.59 904.033,1226.99 904.059,1227.13C904.689,1230.5 906.345,1233.86 907.444,1237.12C908.441,1240.08 908.723,1242.88 909.067,1245.88C909.08,1245.99 909.216,1245.48 909.242,1245.59C909.993,1248.75 910.137,1250.93 910.146,1254.58C910.155,1258.17 909.357,1262.54 908.653,1265.15C908.33,1266.35 908.239,1267.6 907.92,1268.8C907.566,1270.13 907.1,1271.43 906.636,1272.73" style="fill:none;fill-rule:nonzero;stroke:black;stroke-width:4px;"/>
        </g>
        <g>
            <path d="M878.987,1229.04C878.97,1229.18 878.94,1229.43 878.799,1229.42C878.043,1229.37 879.065,1228.69 879.004,1228.88C878.649,1230 877.89,1230.97 877.51,1231.97C876.197,1235.44 875.201,1239.37 874.491,1243.02C873.998,1245.55 873.776,1248.13 873.67,1250.71C873.537,1253.95 874.457,1261.82 874.764,1263.19C874.954,1264.04 874.948,1264.93 875.142,1265.78C875.174,1265.92 875.396,1265.97 875.431,1266.11C875.874,1267.91 876.059,1267.79 876.902,1269.43C877.125,1269.87 876.584,1269.97 877.057,1270.31C877.183,1270.4 877.086,1269.73 876.991,1269.85C876.832,1270.06 876.787,1270.87 876.825,1270.61C876.874,1270.28 876.773,1269.85 877.024,1269.63C877.248,1269.43 877.261,1270.67 876.881,1270.58C876.615,1270.52 876.851,1269.76 876.851,1269.76" style="fill:none;fill-rule:nonzero;stroke:black;stroke-width:4px;"/>
        </g>
        <g>
            <path d="M888.329,1222.78C888.279,1228.17 888.228,1233.56 888.342,1238.94C888.485,1245.68 888.248,1252.69 888.033,1259.55C887.939,1262.54 887.999,1265.54 888.058,1268.53" style="fill:none;fill-rule:nonzero;stroke:black;stroke-width:4px;"/>
        </g>
        <g>
            <path d="M888.884,1243.75C888.918,1243.46 888.985,1242.89 889.264,1242.97C889.558,1243.05 889.228,1243.61 889.363,1243.88C889.442,1244.04 889.326,1243.48 889.451,1243.35C889.584,1243.21 889.871,1243.35 890.007,1243.22C890.199,1243.03 890.118,1242.64 890.333,1242.48C890.461,1242.38 890.227,1242.86 890.35,1242.96C890.55,1243.13 890.795,1242.5 891.039,1242.59C891.101,1242.61 891.06,1242.84 891.096,1242.78C891.296,1242.47 891.224,1241.97 891.534,1241.77C891.71,1241.66 891.613,1242.23 891.79,1242.34C891.914,1242.42 892.045,1242.19 892.188,1242.16C892.445,1242.11 892.727,1242.5 892.947,1242.36C893.041,1242.3 892.993,1242.36 893.058,1242.38C893.218,1242.44 893.102,1241.72 893.171,1241.88C893.551,1242.74 893.54,1243.15 894.043,1243.52C894.164,1243.61 894.065,1243.6 894.095,1243.7C894.134,1243.83 894.03,1243.27 894.157,1243.31C894.397,1243.38 894.418,1243.82 894.664,1243.86C894.814,1243.88 894.686,1243.27 894.748,1243.41C897.266,1249.08 896.238,1249.29 896.785,1255.46C897.263,1260.85 897.671,1260.83 896.881,1266.14C896.812,1266.6 896.372,1266.93 896.209,1267.37C896.123,1267.6 896.298,1267.91 896.15,1268.11C896.03,1268.27 896.277,1267.41 896.104,1267.51C895.667,1267.77 895.551,1268.39 895.152,1268.7C895.039,1268.79 894.958,1268.44 894.815,1268.43C894.707,1268.42 894.742,1268.85 894.713,1268.74C894.67,1268.58 894.919,1268.19 894.766,1268.25C894.594,1268.32 894.687,1268.95 894.61,1268.78C894.557,1268.66 894.629,1268.59 894.528,1268.65C894.434,1268.7 894.465,1268.33 894.366,1268.37C894.135,1268.47 894.086,1268.82 893.867,1268.94C893.692,1269.04 893.428,1268.88 893.265,1269C893.163,1269.08 893.389,1269.4 893.263,1269.38C893.106,1269.36 893.128,1268.85 893.023,1268.97C892.847,1269.17 893.165,1269.87 892.925,1269.76C892.616,1269.61 892.853,1269.03 892.622,1268.78C892.242,1268.37 891.572,1268.3 891.196,1267.88C891.044,1267.71 891.361,1267.36 891.197,1267.2C891.064,1267.07 890.829,1267.5 890.681,1267.39C890.171,1267.02 889.982,1266.3 889.469,1265.93C889.339,1265.84 889.335,1266.48 889.235,1266.35C889.097,1266.18 889.36,1265.89 889.276,1265.69C889.224,1265.56 889.147,1265.94 889.119,1266.07" style="fill:none;fill-rule:nonzero;stroke:black;stroke-width:4px;"/>
        </g>
        <g>
            <path d="M936.633,1165.59C936.633,1165.59 936.578,1167.2 936.602,1168.01C936.704,1171.42 936.505,1174.83 936.623,1178.24C936.933,1187.18 937.58,1195.11 937.686,1203.79C937.744,1208.58 937.491,1213.38 937.527,1218.17C937.537,1219.48 937.6,1220.53 937.52,1221.46C937.506,1221.62 938.038,1221.63 937.911,1221.73C937.609,1221.96 937.343,1220.75 937.343,1220.75" style="fill:none;fill-rule:nonzero;stroke:black;stroke-width:4px;"/>
        </g>
        <g>
            <path d="M935.915,1165.2C935.885,1165.35 935.823,1165.65 935.974,1165.65C936.124,1165.65 936.022,1165.07 935.94,1165.2C935.712,1165.55 935.558,1165.96 935.501,1166.38C935.36,1167.42 935.503,1168.48 935.352,1169.52C935.13,1171.05 934.627,1172.52 934.388,1174.04C933.687,1178.5 934.183,1178.55 932.93,1182.89C932.349,1184.9 932.26,1184.84 931.809,1186.92C931.774,1187.08 931.752,1186.6 931.744,1186.43" style="fill:none;fill-rule:nonzero;stroke:black;stroke-width:4px;"/>
        </g>
        <g>
            <path d="M936.739,1165.91C937.071,1168.82 937.404,1171.74 937.936,1174.62C938.565,1178.03 939.188,1177.81 940.182,1181.11C940.605,1182.51 940.654,1184.01 941.094,1185.41C941.252,1185.91 941.539,1187.07 941.953,1186.74C942.415,1186.38 941.902,1185.52 941.601,1185.01" style="fill:none;fill-rule:nonzero;stroke:black;stroke-width:4px;"/>
        </g>
        <g>
            <path d="M961.656,1133.33C961.656,1133.33 964.908,1130.61 966.752,1129.59C969.884,1127.86 973.956,1126.15 977.394,1124.93C990.446,1120.29 1003.55,1115.02 1017.59,1112.39C1044.02,1107.45 1067.77,1112.75 1093.38,1117.49C1102.21,1119.13 1109.86,1122.9 1116.62,1126.08C1119.95,1127.64 1126.61,1130.78 1126.61,1130.78" style="fill:none;fill-rule:nonzero;stroke:black;stroke-width:4px;"/>
        </g>
        <g>
            <path d="M1126.1,1129.39C1126.26,1129.48 1126.43,1129.59 1126.61,1129.57C1126.68,1129.56 1126.61,1129.3 1126.55,1129.35C1126.41,1129.47 1126.47,1129.77 1126.3,1129.83C1126.17,1129.88 1126.42,1129.54 1126.36,1129.42C1125.95,1128.71 1125.5,1128.02 1124.93,1127.44C1124.84,1127.35 1124.69,1127.66 1124.58,1127.59C1123.73,1127.04 1123.06,1126.24 1122.22,1125.67C1122.15,1125.62 1122.11,1125.91 1122.04,1125.86C1121.46,1125.48 1121.79,1125.09 1121.13,1124.98C1121.03,1124.96 1120.99,1125.26 1120.91,1125.2C1120.74,1125.09 1120.81,1124.78 1120.65,1124.66C1119.87,1124.06 1118.93,1123.7 1118.15,1123.09C1117.71,1122.74 1117.46,1122.19 1117.04,1121.82C1116.93,1121.73 1116.73,1121.85 1116.62,1121.76C1115.33,1120.75 1114.18,1119.54 1112.87,1118.55C1112.54,1118.3 1112.07,1118.29 1111.73,1118.06C1110.97,1117.56 1110.34,1116.87 1109.58,1116.37C1109.51,1116.32 1109.59,1116.7 1109.53,1116.63C1109.45,1116.53 1109.58,1116.35 1109.49,1116.26C1109.41,1116.18 1109.23,1116.33 1109.14,1116.25C1108.7,1115.84 1108.43,1115.27 1108,1114.85C1107.87,1114.73 1107.63,1114.81 1107.51,1114.69C1107.48,1114.66 1107.58,1114.67 1107.54,1114.66C1107.41,1114.62 1107.43,1114.37 1107.3,1114.34C1107.11,1114.29 1106.9,1114.5 1106.71,1114.44C1106.59,1114.4 1106.52,1113.99 1106.55,1114.11C1106.6,1114.36 1106.63,1114.63 1106.8,1114.82C1106.87,1114.9 1106.81,1114.56 1106.91,1114.52C1106.98,1114.49 1107.01,1114.65 1107.03,1114.73" style="fill:none;fill-rule:nonzero;stroke:black;stroke-width:4px;"/>
        </g>
        <g>
            <path d="M1126.44,1129.94C1126.42,1130.02 1126.37,1130.17 1126.3,1130.13C1125.88,1129.9 1126.11,1129.58 1125.62,1129.53C1125.3,1129.5 1125,1129.74 1124.68,1129.73C1123.71,1129.7 1122.37,1128.89 1120.84,1128.7C1120.29,1128.63 1120.34,1128.86 1119.57,1128.79C1119.31,1128.77 1119.17,1128.4 1118.92,1128.4C1118.5,1128.4 1118.14,1128.78 1117.73,1128.79C1117.52,1128.8 1117.42,1128.48 1117.21,1128.45C1117.13,1128.44 1117.26,1128.72 1117.17,1128.7C1116.02,1128.44 1116.05,1128.5 1114.91,1128.27C1114.54,1128.19 1114.27,1127.81 1113.89,1127.76C1113.47,1127.71 1113.06,1128 1112.63,1127.98C1111.08,1127.9 1109.55,1127.48 1108,1127.45C1107.56,1127.44 1107.19,1127.8 1106.76,1127.85C1106.65,1127.86 1106.63,1127.58 1106.53,1127.61C1106.41,1127.64 1106.52,1128 1106.41,1127.95C1106.22,1127.87 1106.27,1127.5 1106.07,1127.42C1105.86,1127.34 1105.62,1127.61 1105.4,1127.56C1104.5,1127.36 1104.54,1127.41 1103.57,1127.35C1103.46,1127.34 1103.6,1126.96 1103.51,1127.03C1103.34,1127.18 1103.41,1127.56 1103.2,1127.66C1103.07,1127.72 1103.14,1127.37 1103.1,1127.23C1103.08,1127.14 1103.25,1127.48 1103.16,1127.51C1103.05,1127.55 1102.99,1127.27 1102.88,1127.3C1102.79,1127.33 1102.93,1127.57 1103.02,1127.55C1103.35,1127.48 1103.64,1127.28 1103.91,1127.08" style="fill:none;fill-rule:nonzero;stroke:black;stroke-width:4px;"/>
        </g>
        <g>
            <path d="M961.293,1256.05C961.293,1256.05 967.709,1259.34 971.11,1260.49C980.825,1263.79 994.31,1267.76 1005.25,1268.8C1009.61,1269.22 1014.97,1268.83 1019.76,1268.96C1024.49,1269.09 1030.37,1270.89 1035.28,1270.83C1045.38,1270.71 1054.78,1270.84 1064.45,1269.7C1070.32,1269.01 1077.96,1269.86 1083.19,1268.43C1087.73,1267.19 1092.04,1265.72 1096.28,1264.91C1098.76,1264.44 1105.39,1264.12 1107.36,1263.02C1110.62,1261.19 1114.12,1260.6 1116.14,1259.85C1117.51,1259.35 1119.87,1257.48 1121.28,1257.56C1121.9,1257.6 1119.61,1258.35 1119.61,1258.35" style="fill:none;fill-rule:nonzero;stroke:black;stroke-width:4px;"/>
        </g>
        <g>
            <path d="M961.739,1256.4C961.716,1256.22 961.679,1255.94 961.844,1255.87C961.98,1255.81 961.918,1256.21 962.059,1256.26C962.161,1256.29 962.158,1255.99 962.265,1256.01C963.015,1256.12 963.707,1256.51 964.459,1256.61C965.194,1256.71 965.951,1256.47 966.683,1256.59C966.931,1256.63 967.026,1257 967.271,1257.06C967.512,1257.12 967.751,1256.85 967.994,1256.89C969.238,1257.12 969.155,1257.48 970.424,1257.35C970.56,1257.34 970.445,1256.98 970.582,1256.97C970.741,1256.96 970.74,1257.35 971.057,1257.45C971.197,1257.5 971.309,1257.21 971.45,1257.25C971.633,1257.3 971.654,1257.62 971.837,1257.67C973.412,1258.13 974.09,1257.92 975.121,1258.23C975.231,1258.26 975.103,1258.55 975.217,1258.56C975.388,1258.57 975.472,1258.25 975.642,1258.27C975.764,1258.28 975.638,1258.6 975.76,1258.62C975.923,1258.64 976.002,1258.33 976.167,1258.34C977.562,1258.4 978.975,1258.34 980.347,1258.6C982.619,1259.03 982.485,1259.53 984.786,1259.57C985.326,1259.58 986.656,1259.1 987.09,1259.16C987.743,1259.25 989.672,1259.79 990.129,1259.8C990.272,1259.8 990.312,1259.5 990.454,1259.52C990.573,1259.54 990.451,1259.85 990.57,1259.86C990.702,1259.87 990.704,1259.52 990.83,1259.56C990.97,1259.6 991.064,1260.08 990.956,1259.98C990.76,1259.8 990.79,1259.4 990.545,1259.3C990.312,1259.2 990.032,1259.38 989.817,1259.51" style="fill:none;fill-rule:nonzero;stroke:black;stroke-width:4px;"/>
        </g>
        <g>
            <path d="M961.034,1256.48C961.007,1256.69 960.955,1257.11 961.17,1257.11C961.571,1257.11 961.497,1257.17 961.816,1257.45C961.94,1257.56 961.927,1256.96 962.074,1257.03C962.812,1257.4 963.344,1258.09 964.026,1258.55C964.526,1258.89 964.626,1258.47 965.15,1258.78C966.732,1259.73 968.165,1260.91 969.749,1261.85C970.007,1262 970.387,1261.86 970.631,1262.04C972.569,1263.44 972.516,1263.43 974.499,1264.76C974.651,1264.86 974.51,1265.2 974.675,1265.28C974.798,1265.34 974.806,1264.99 974.941,1264.97C975.103,1264.95 975.256,1265.07 975.398,1265.15C976.524,1265.8 978.37,1267.13 979.557,1267.68C979.7,1267.75 979.631,1267.2 979.777,1267.26C979.997,1267.35 979.89,1267.77 980.091,1267.9C980.196,1267.97 980.169,1267.49 980.266,1267.57C980.443,1267.71 980.322,1268.06 980.484,1268.22C981.741,1269.47 982.035,1268.93 983.507,1269.84C983.633,1269.92 983.53,1270.17 983.65,1270.26C983.696,1270.29 985.426,1270.78 985.926,1271.01C986.913,1271.45 986.488,1272.01 987.518,1272.29C987.685,1272.34 987.456,1271.61 987.418,1271.78C987.366,1272.01 987.468,1272.25 987.473,1272.49C987.476,1272.61 987.52,1272.2 987.425,1272.12C987.36,1272.07 987.304,1272.32 987.227,1272.28C987.028,1272.19 986.89,1271.99 986.764,1271.81" style="fill:none;fill-rule:nonzero;stroke:black;stroke-width:4px;"/>
        </g>
        <g>
            <path d="M1173.3,1120.63C1173.48,1120.75 1173.68,1120.89 1173.9,1120.9C1174.07,1120.91 1173.88,1120.51 1173.74,1120.4C1173.62,1120.3 1173.94,1120.69 1173.94,1120.85C1173.96,1123.81 1174.06,1127.37 1173.84,1130.67C1173.33,1138.62 1173.89,1146.53 1173.99,1154.51C1174.05,1158.61 1172.83,1164.97 1173.82,1167.33C1173.82,1167.34 1173.84,1167.37 1173.83,1167.36C1173.42,1167.12 1173.7,1165.94 1173.7,1165.94" style="fill:none;fill-rule:nonzero;stroke:black;stroke-width:4px;"/>
        </g>
        <g>
            <path d="M1173.97,1119.35C1174.13,1119.15 1174.3,1118.95 1174.47,1118.76C1174.53,1118.69 1174.21,1118.95 1174.3,1118.98C1174.41,1119.02 1174.52,1118.71 1174.59,1118.8C1174.7,1118.94 1174.39,1119.34 1174.57,1119.32C1175.15,1119.27 1175.62,1118.76 1176.19,1118.66C1176.49,1118.61 1176.77,1118.87 1177.07,1118.87C1177.36,1118.87 1177.63,1118.61 1177.92,1118.64C1178.06,1118.66 1178.02,1119 1178.17,1118.99C1178.84,1118.93 1178.81,1118.82 1179.51,1118.87C1179.62,1118.88 1179.63,1118.57 1179.74,1118.61C1179.87,1118.65 1179.75,1119.02 1179.89,1119C1180.05,1118.98 1179.93,1118.6 1180.08,1118.56C1180.2,1118.53 1180.01,1118.85 1180.1,1118.94C1180.29,1119.13 1180.55,1119.3 1180.83,1119.32C1181.18,1119.34 1181.5,1119.02 1181.85,1119.05C1181.98,1119.06 1181.81,1119.39 1181.93,1119.41C1182.06,1119.43 1182.08,1119.12 1182.21,1119.11C1182.31,1119.1 1182.18,1119.39 1182.27,1119.39C1182.38,1119.39 1182.38,1119.03 1182.46,1119.11C1182.56,1119.2 1182.26,1119.49 1182.39,1119.5C1182.55,1119.51 1182.54,1119.17 1182.69,1119.13C1183.43,1118.92 1184.2,1118.84 1184.96,1118.77C1185.14,1118.75 1185.35,1118.76 1185.49,1118.87C1185.58,1118.94 1185.41,1119.24 1185.53,1119.22C1186.21,1119.13 1186.81,1118.7 1187.49,1118.62C1187.61,1118.61 1187.52,1118.89 1187.46,1119C1187.42,1119.07 1187.32,1118.77 1187.4,1118.77C1187.52,1118.77 1187.54,1119.01 1187.66,1119C1187.75,1119 1187.66,1118.72 1187.74,1118.75C1187.84,1118.79 1187.83,1119.14 1187.79,1119.05C1187.71,1118.84 1187.66,1118.62 1187.61,1118.4" style="fill:none;fill-rule:nonzero;stroke:black;stroke-width:4px;"/>
        </g>
        <g>
            <path d="M1174.1,1143.45C1174.21,1143.53 1174.42,1143.66 1174.5,1143.55C1174.6,1143.4 1174.35,1142.86 1174.38,1143.03C1174.47,1143.51 1174.58,1143.45 1175.06,1143.55C1175.26,1143.59 1175.2,1144.03 1175.41,1144.05C1175.57,1144.06 1175.45,1143.69 1175.58,1143.59C1175.87,1143.37 1176.22,1143.18 1176.58,1143.17C1176.75,1143.16 1176.77,1143.61 1176.93,1143.55C1177.13,1143.47 1177,1143.1 1177.14,1142.95C1177.24,1142.85 1177.05,1143.24 1177.12,1143.35C1177.17,1143.43 1177.16,1143.01 1177.23,1143.08C1177.47,1143.35 1177.48,1143.32 1177.77,1143.53C1177.87,1143.6 1177.7,1143.95 1177.82,1143.91C1178,1143.85 1177.95,1143.5 1178.13,1143.42C1178.23,1143.38 1178.21,1143.74 1178.31,1143.7C1178.43,1143.65 1178.24,1143.35 1178.36,1143.33C1178.48,1143.31 1178.4,1143.71 1178.52,1143.67C1178.73,1143.59 1178.72,1143.2 1178.94,1143.12C1179.32,1142.98 1179.75,1143.18 1180.13,1143.08C1180.25,1143.05 1180.18,1142.76 1180.3,1142.76C1180.5,1142.76 1180.59,1143.1 1180.78,1143.09C1180.93,1143.08 1180.9,1142.77 1181.05,1142.72C1181.13,1142.69 1180.94,1142.95 1181.02,1143C1181.29,1143.17 1181.62,1143.32 1181.93,1143.27C1182.11,1143.24 1182.01,1142.81 1182.19,1142.8C1182.35,1142.8 1182.16,1143.17 1182.29,1143.26C1182.4,1143.33 1182.58,1143 1182.66,1143.11C1182.75,1143.23 1182.49,1143.69 1182.5,1143.54C1182.51,1143.24 1182.63,1142.95 1182.69,1142.66C1182.72,1142.51 1182.73,1143.06 1182.58,1143.11C1182.46,1143.15 1182.41,1142.9 1182.38,1142.77" style="fill:none;fill-rule:nonzero;stroke:black;stroke-width:4px;"/>
        </g>
        <g>
            <path d="M861.359,1225.95C861.359,1225.95 861.807,1226.35 861.766,1226.2C861.436,1224.97 860.494,1222.98 859.401,1222.12C859.254,1222 859.331,1222.64 859.144,1222.62C858.655,1222.58 858.307,1222.03 857.818,1221.98C857.648,1221.96 857.929,1222.57 857.778,1222.49C857.519,1222.36 857.609,1221.84 857.339,1221.73C855.004,1220.77 851.236,1222.91 849.751,1224.63C849.121,1225.36 847.775,1227.17 848.312,1228.37C848.349,1228.45 848.073,1228.36 848.05,1228.45C847.799,1229.39 847.721,1230.38 847.449,1231.31C847.417,1231.42 847.32,1230.89 847.308,1231C847.096,1233.04 846.949,1235.08 846.844,1237.13C846.602,1241.86 847.184,1246.54 847.113,1251.23C846.997,1258.86 846.32,1258.75 847.078,1266.25C847.103,1266.5 847.189,1266.79 847.402,1266.92C847.532,1267 847.435,1266.32 847.449,1266.47C847.606,1268.15 847.357,1268.19 848.461,1269.83C848.615,1270.06 848.266,1269.03 848.54,1269.01C848.873,1268.99 848.93,1269.55 849.165,1269.79C849.293,1269.92 849.541,1269.88 849.687,1270.02C850.059,1270.39 850.169,1271.02 850.62,1271.28C850.805,1271.39 850.875,1270.86 851.089,1270.84C851.761,1270.79 852.15,1271.7 852.765,1271.97C853.429,1272.27 854.513,1272.06 854.878,1271.43C854.978,1271.26 854.688,1270.9 854.874,1270.83C855.057,1270.76 855.209,1271.06 855.403,1271.09C856.663,1271.28 856.578,1271.24 857.204,1271.22C857.358,1271.22 857.247,1271.74 857.375,1271.65C860.796,1269.33 860.955,1264.35 860.925,1258.48C860.902,1254 861.28,1254.04 860.794,1250.39C860.767,1250.18 860.864,1251.08 860.672,1251C860.309,1250.85 860.327,1250.22 859.972,1250.06C859.86,1250.01 858.088,1250.93 856.828,1251.24C856.111,1251.42 855.379,1250.61 854.661,1250.78C854.377,1250.85 854.291,1251.21 854.253,1250.91C854.179,1250.33 853.136,1252.28 853.136,1252.28" style="fill:none;fill-rule:nonzero;stroke:black;stroke-width:4px;"/>
        </g>
        <g>
            <path d="M1050.85,1292.34C1051.14,1292.6 1050.76,1291.56 1050.59,1291.22C1050.11,1290.27 1049.6,1289.31 1048.89,1288.51C1048.77,1288.37 1048.83,1289.03 1048.64,1289.01C1048.15,1288.97 1047.8,1288.42 1047.31,1288.37C1047.14,1288.35 1047.42,1288.96 1047.27,1288.88C1047.01,1288.75 1047.11,1288.2 1046.83,1288.12C1043.49,1287.11 1039.18,1289.41 1038.09,1292.71C1035.39,1300.85 1036.63,1309.23 1036.61,1317.62C1036.6,1320.13 1036.27,1322.64 1036.26,1325.15C1036.26,1327.65 1036.38,1330.15 1036.57,1332.64C1036.59,1332.89 1036.68,1333.18 1036.89,1333.31C1037.03,1333.39 1036.92,1332.71 1036.94,1332.86C1037.13,1334.03 1036.86,1335.32 1037.95,1336.22C1038.17,1336.39 1037.76,1335.36 1038.03,1335.4C1039.21,1335.59 1039.27,1337.18 1040.11,1337.67C1040.3,1337.78 1040.38,1337.18 1040.58,1337.23C1041.8,1337.53 1043.18,1339.42 1044.37,1337.82C1044.49,1337.66 1044.2,1337.33 1044.37,1337.22C1045.19,1336.68 1046.38,1338.01 1047.29,1337.63C1049.02,1336.91 1050.03,1332.72 1050.26,1331.76C1050.59,1330.32 1050.81,1328.84 1050.86,1327.35C1050.96,1324.44 1051.09,1321.51 1050.72,1318.63C1050.3,1315.33 1043.86,1316.98 1042.63,1318.67" style="fill:none;fill-rule:nonzero;stroke:black;stroke-width:4px;"/>
        </g>
        <g>
            <path d="M902.785,1135.96C902.733,1136.1 902.612,1136.44 902.765,1136.42C902.966,1136.4 902.788,1136.18 902.972,1136.19C903.442,1136.21 903.161,1135.2 902.943,1134.78C902.877,1134.65 902.601,1134.88 902.515,1134.77C902.425,1134.65 902.681,1134.46 902.604,1134.33C902.536,1134.22 902.294,1134.37 902.213,1134.27C902.075,1134.09 902.203,1133.78 902.049,1133.62C901.972,1133.54 901.884,1134 901.852,1133.89C901.718,1133.44 901.934,1132.9 901.713,1132.49C901.62,1132.32 901.546,1133 901.354,1132.96C901.153,1132.91 901.355,1132.47 901.173,1132.37C900.314,1131.92 898.383,1132.31 897.792,1132.8C896.886,1133.55 896.231,1134.59 895.692,1135.63C893.314,1140.23 892.962,1147.08 892.931,1151.94C892.929,1152.32 893.264,1152.63 893.332,1153.01C893.368,1153.21 893.165,1153.42 893.234,1153.61C893.28,1153.74 893.531,1153.66 893.606,1153.77C893.735,1153.96 893.629,1154.27 893.791,1154.44C893.871,1154.52 894.007,1154.16 894.076,1154.25C894.237,1154.46 894.082,1154.82 894.241,1155.03C894.317,1155.13 894.328,1154.57 894.397,1154.68C894.572,1154.95 894.462,1155.35 894.624,1155.63C895.114,1156.48 895.865,1155.62 896.197,1155.53C896.537,1155.43 896.972,1155.72 897.257,1155.51C897.695,1155.19 897.768,1154.54 898.114,1154.12C898.806,1153.28 899.357,1152.7 899.854,1151.73C900.442,1150.59 900.909,1149.38 901.375,1148.18" style="fill:none;fill-rule:nonzero;stroke:black;stroke-width:4px;"/>
        </g>
        <g>
            <path d="M902.332,1136.07C902.492,1136.12 902.71,1136.2 902.839,1136.09C902.938,1136.01 902.794,1135.59 902.753,1135.71C902.67,1135.96 902.445,1136.5 902.705,1136.49C903.047,1136.48 903.173,1135.98 903.349,1135.69C903.441,1135.54 902.927,1136.23 902.963,1136.06C903.124,1135.29 904.407,1133.76 903.62,1133.79C902.304,1133.84 903.665,1136.42 903.617,1137.74C903.592,1138.42 903.245,1139.07 903.203,1139.75C903.053,1142.2 903.023,1144.65 903.044,1147.1C903.047,1147.44 903.293,1147.75 903.276,1148.09C903.255,1148.52 902.918,1148.91 902.933,1149.34C902.952,1149.89 903.375,1150.37 903.373,1150.92C903.368,1152.01 903.029,1153.08 902.913,1154.17C902.904,1154.26 903.119,1154.02 903.167,1154.09C903.474,1154.57 903.214,1154.63 903.553,1155.08C903.644,1155.2 903.418,1154.71 903.27,1154.73C903.131,1154.75 903.495,1154.95 903.491,1155.09C903.478,1155.56 903.268,1155.54 903.433,1155.95C903.515,1156.15 903.225,1156.44 903.362,1156.61C903.466,1156.74 903.637,1156.34 903.606,1156.17C903.586,1156.06 903.34,1156.38 903.299,1156.28C903.244,1156.15 903.474,1156.03 903.492,1155.89C903.504,1155.79 903.366,1156.04 903.318,1156.13" style="fill:none;fill-rule:nonzero;stroke:black;stroke-width:4px;"/>
        </g>
        <g>
            <path d="M1174.19,1219.68C1174.14,1225.06 1174.09,1230.45 1174.2,1235.83C1174.35,1242.58 1174.11,1249.59 1173.89,1256.45C1173.8,1259.44 1173.86,1262.44 1173.92,1265.43" style="fill:none;fill-rule:nonzero;stroke:black;stroke-width:4px;"/>
        </g>
        <g>
            <path d="M1174.75,1240.64C1174.78,1240.35 1174.85,1239.78 1175.12,1239.86C1175.42,1239.94 1175.09,1240.5 1175.22,1240.77C1175.3,1240.93 1175.19,1240.37 1175.31,1240.24C1175.44,1240.1 1175.73,1240.24 1175.87,1240.11C1176.06,1239.92 1175.98,1239.53 1176.19,1239.37C1176.33,1239.27 1176.09,1239.75 1176.21,1239.86C1176.41,1240.03 1176.65,1239.4 1176.9,1239.49C1176.96,1239.51 1176.92,1239.74 1176.96,1239.68C1177.16,1239.37 1177.09,1238.87 1177.4,1238.67C1177.57,1238.56 1177.48,1239.12 1177.65,1239.23C1177.92,1239.39 1178.24,1238.98 1178.52,1238.99C1178.65,1239 1178.7,1239.33 1178.81,1239.26C1178.9,1239.2 1178.86,1239.25 1178.92,1239.27C1179.08,1239.33 1178.96,1238.61 1179.03,1238.77C1179.42,1239.67 1179.4,1240.01 1179.9,1240.41C1180,1240.49 1179.92,1240.49 1179.96,1240.59C1180,1240.71 1179.89,1240.16 1180.02,1240.2C1180.26,1240.27 1180.28,1240.71 1180.53,1240.76C1180.67,1240.79 1180.55,1240.17 1180.61,1240.31C1183.13,1245.97 1182.1,1246.18 1182.65,1252.36C1183.12,1257.74 1183.53,1257.73 1182.74,1263.03C1182.67,1263.49 1182.23,1263.82 1182.07,1264.26C1181.98,1264.5 1182.16,1264.81 1182.01,1265.01C1181.89,1265.17 1182.14,1264.3 1181.96,1264.4C1181.53,1264.65 1181.41,1265.27 1181.01,1265.59C1180.9,1265.68 1180.82,1265.34 1180.68,1265.32C1180.57,1265.31 1180.6,1265.74 1180.57,1265.63C1180.53,1265.47 1180.78,1265.07 1180.63,1265.14C1180.46,1265.22 1180.55,1265.85 1180.47,1265.68C1180.42,1265.56 1180.49,1265.5 1180.39,1265.55C1180.29,1265.6 1180.33,1265.22 1180.23,1265.26C1179.99,1265.36 1179.95,1265.71 1179.73,1265.84C1179.55,1265.94 1179.29,1265.78 1179.13,1265.9C1179.03,1265.97 1179.25,1266.29 1179.12,1266.27C1178.97,1266.24 1178.99,1265.74 1178.88,1265.86C1178.71,1266.06 1179.03,1266.76 1178.79,1266.65C1178.48,1266.5 1178.71,1265.92 1178.48,1265.67C1178.1,1265.26 1177.43,1265.19 1177.06,1264.78C1176.9,1264.61 1177.22,1264.26 1177.06,1264.1C1176.92,1263.97 1176.69,1264.4 1176.54,1264.29C1176.03,1263.91 1175.85,1263.19 1175.33,1262.82C1175.2,1262.73 1175.2,1263.38 1175.1,1263.25C1174.96,1263.08 1175.22,1262.79 1175.14,1262.58C1175.08,1262.45 1175.01,1262.83 1174.98,1262.97" style="fill:none;fill-rule:nonzero;stroke:black;stroke-width:4px;"/>
        </g>
        <g>
            <path d="M1040.6,1049.24C1040.78,1049.37 1040.97,1049.5 1041.19,1049.52C1041.36,1049.53 1041.17,1049.13 1041.04,1049.02C1040.91,1048.92 1041.23,1049.31 1041.23,1049.47C1041.25,1052.42 1041.35,1055.99 1041.14,1059.29C1040.62,1067.24 1041.18,1075.15 1041.29,1083.13C1041.34,1087.22 1040.11,1093.57 1041.11,1095.94C1041.11,1095.95 1041.13,1095.99 1041.12,1095.98C1040.71,1095.74 1040.99,1094.56 1040.99,1094.56" style="fill:none;fill-rule:nonzero;stroke:black;stroke-width:4px;"/>
        </g>
        <g>
            <path d="M1041.26,1047.97C1041.43,1047.77 1041.59,1047.57 1041.77,1047.38C1041.83,1047.31 1041.5,1047.57 1041.59,1047.6C1041.7,1047.64 1041.82,1047.33 1041.89,1047.42C1041.99,1047.56 1041.69,1047.95 1041.86,1047.94C1042.44,1047.89 1042.91,1047.38 1043.49,1047.28C1043.78,1047.23 1044.06,1047.49 1044.36,1047.49C1044.65,1047.49 1044.92,1047.23 1045.21,1047.26C1045.35,1047.28 1045.32,1047.62 1045.46,1047.61C1046.14,1047.55 1046.1,1047.44 1046.8,1047.49C1046.92,1047.5 1046.92,1047.19 1047.03,1047.23C1047.16,1047.28 1047.04,1047.64 1047.18,1047.62C1047.34,1047.6 1047.22,1047.22 1047.37,1047.18C1047.5,1047.15 1047.3,1047.47 1047.39,1047.56C1047.58,1047.76 1047.85,1047.92 1048.12,1047.94C1048.47,1047.96 1048.79,1047.63 1049.15,1047.66C1049.27,1047.67 1049.1,1048.01 1049.22,1048.03C1049.36,1048.06 1049.37,1047.74 1049.51,1047.73C1049.6,1047.72 1049.47,1048.01 1049.57,1048.01C1049.68,1048.01 1049.67,1047.65 1049.76,1047.73C1049.85,1047.82 1049.55,1048.11 1049.68,1048.12C1049.84,1048.13 1049.83,1047.79 1049.99,1047.75C1050.72,1047.54 1051.49,1047.46 1052.25,1047.39C1052.43,1047.37 1052.64,1047.38 1052.79,1047.49C1052.88,1047.56 1052.71,1047.86 1052.82,1047.84C1053.5,1047.76 1054.1,1047.32 1054.78,1047.24C1054.91,1047.23 1054.82,1047.51 1054.75,1047.62C1054.71,1047.69 1054.61,1047.38 1054.69,1047.38C1054.81,1047.38 1054.83,1047.62 1054.95,1047.62C1055.04,1047.62 1054.96,1047.34 1055.04,1047.37C1055.13,1047.41 1055.12,1047.76 1055.08,1047.67C1055,1047.46 1054.95,1047.24 1054.9,1047.02" style="fill:none;fill-rule:nonzero;stroke:black;stroke-width:4px;"/>
        </g>
        <g>
            <path d="M1041.39,1072.06C1041.51,1072.14 1041.71,1072.28 1041.79,1072.17C1041.89,1072.02 1041.64,1071.47 1041.67,1071.65C1041.77,1072.13 1041.87,1072.08 1042.35,1072.17C1042.55,1072.21 1042.5,1072.65 1042.7,1072.66C1042.87,1072.67 1042.74,1072.3 1042.87,1072.2C1043.16,1071.99 1043.52,1071.8 1043.88,1071.79C1044.05,1071.79 1044.07,1072.23 1044.22,1072.17C1044.42,1072.09 1044.29,1071.72 1044.44,1071.57C1044.53,1071.47 1044.34,1071.86 1044.41,1071.97C1044.47,1072.05 1044.46,1071.63 1044.52,1071.7C1044.77,1071.97 1044.77,1071.94 1045.06,1072.15C1045.17,1072.22 1044.99,1072.57 1045.11,1072.53C1045.3,1072.47 1045.24,1072.12 1045.42,1072.04C1045.52,1072 1045.5,1072.36 1045.61,1072.32C1045.72,1072.28 1045.53,1071.97 1045.65,1071.95C1045.78,1071.93 1045.69,1072.33 1045.81,1072.29C1046.03,1072.21 1046.02,1071.82 1046.24,1071.74C1046.61,1071.6 1047.04,1071.79 1047.43,1071.69C1047.54,1071.66 1047.48,1071.38 1047.59,1071.38C1047.79,1071.39 1047.88,1071.72 1048.08,1071.71C1048.23,1071.7 1048.2,1071.39 1048.34,1071.34C1048.43,1071.31 1048.23,1071.57 1048.31,1071.62C1048.58,1071.79 1048.91,1071.94 1049.22,1071.89C1049.4,1071.86 1049.31,1071.42 1049.49,1071.42C1049.64,1071.42 1049.45,1071.79 1049.58,1071.88C1049.69,1071.95 1049.87,1071.62 1049.95,1071.73C1050.04,1071.85 1049.78,1072.31 1049.79,1072.16C1049.81,1071.86 1049.92,1071.57 1049.98,1071.28C1050.01,1071.13 1050.02,1071.68 1049.88,1071.73C1049.75,1071.78 1049.7,1071.52 1049.68,1071.39" style="fill:none;fill-rule:nonzero;stroke:black;stroke-width:4px;"/>
        </g>
    </g>
</svg>
