<?xml version="1.0" encoding="UTF-8" standalone="no"?>
<!DOCTYPE svg PUBLIC "-//W3C//DTD SVG 1.1//EN" "http://www.w3.org/Graphics/SVG/1.1/DTD/svg11.dtd">
<svg width="100%" height="100%" viewBox="0 0 459 94" version="1.1" xmlns="http://www.w3.org/2000/svg" xmlns:xlink="http://www.w3.org/1999/xlink" xml:space="preserve" xmlns:serif="http://www.serif.com/" style="fill-rule:evenodd;clip-rule:evenodd;stroke-linecap:round;stroke-linejoin:round;">
    <g transform="matrix(1,0,0,1,-717.02,-724.726)">
        <g>
            <path d="M835.637,741.236L835.681,741.739L835.819,741.429L836.059,741.831L839.591,741.903L841.883,741.567L845.997,742.331L850.62,741.77L854.096,742.137L857.509,741.524L864.462,741.378L867.957,741.678L874.579,741.6L874.841,741.866L880.387,741.365L881.644,741.599L881.91,741.339L883.61,741.689L897.32,741.626L899.945,741.906L905.38,741.429L908.824,741.879L913.209,741.683L914.382,741.887L914.568,742.182L916.087,741.927L922.299,742.15L925.816,741.889L928.684,741.904L928.97,742.13L931.988,741.925L932.289,742.167L933.151,741.892L937.167,741.812L946.199,742.118L949.576,741.827L959.311,742.033L962.463,741.885L962.664,741.515L963.363,741.943L967.63,742.094L967.977,742.328L969.736,742.072L970.088,742.367L970.703,742.108L970.958,742.389L976.298,741.851L978.911,742.198L982.095,741.88L983.245,741.938L983.357,742.204L987.351,741.79L989.969,742.111L994.145,741.498L994.473,741.789L995.827,741.921L998.785,741.804L998.94,742.207L999.376,741.719L999.456,741.984L999.902,741.715L1002.03,741.767L1002.2,741.361L1002.59,741.791L1004.14,741.782L1004.3,742.026L1005.82,741.543L1008.05,741.571L1008.19,741.322L1008.4,741.594L1010.64,741.507L1013.37,741.925L1014.73,741.679L1015.02,741.87L1015.75,741.421L1017.1,741.943L1018.74,741.909L1018.76,742.336L1018.86,742.024L1019.2,741.925L1019.25,742.187L1019.55,741.868L1020.38,741.649L1020.54,741.85L1020.68,741.565L1021.1,741.945L1021.5,741.853L1021.42,742.164L1021.38,741.864L1020.72,741.877" style="fill:none;fill-rule:nonzero;stroke:black;stroke-width:4px;"/>
        </g>
        <g>
            <path d="M837.111,814.68L837.155,815.183L837.293,814.873L837.532,815.275L841.064,815.347L843.357,815.011L847.471,815.775L852.094,815.213L855.57,815.581L858.983,814.968L865.936,814.822L869.43,815.122L876.053,815.044L876.315,815.31L881.86,814.809L883.118,815.043L883.384,814.783L885.083,815.133L898.794,815.07L901.419,815.35L906.854,814.873L910.297,815.323L914.683,815.127L915.855,815.331L916.042,815.626L917.56,815.37L923.773,815.593L927.29,815.332L930.158,815.348L930.444,815.574L933.462,815.368L933.762,815.611L934.625,815.336L938.641,815.256L947.673,815.562L951.049,815.271L960.785,815.477L963.937,815.328L964.137,814.959L964.837,815.387L969.104,815.538L969.451,815.772L971.21,815.516L971.562,815.811L972.177,815.552L972.432,815.833L977.772,815.295L980.385,815.642L983.569,815.324L984.719,815.382L984.83,815.648L988.825,815.234L991.443,815.555L995.618,814.942L995.946,815.233L997.301,815.365L1000.26,815.248L1000.41,815.65L1000.85,815.163L1000.93,815.427L1001.38,815.159L1003.5,815.211L1003.67,814.805L1004.06,815.235L1005.62,815.226L1005.78,815.47L1007.29,814.987L1009.53,815.015L1009.66,814.765L1009.88,815.038L1012.12,814.951L1014.84,815.369L1016.2,815.123L1016.5,815.314L1017.22,814.865L1018.58,815.387L1020.21,815.353L1020.24,815.78L1020.33,815.468L1020.68,815.369L1020.73,815.631L1021.02,815.312L1021.86,815.093L1022.01,815.294L1022.15,815.009L1022.58,815.389L1022.97,815.297L1022.89,815.607L1022.85,815.308L1022.2,815.321" style="fill:none;fill-rule:nonzero;stroke:black;stroke-width:4px;"/>
        </g>
        <g>
            <path d="M834.938,741.515L834.606,741.864L834.831,741.962L834.528,741.916L834.551,741.525L834.439,741.947L834.176,741.938L834.52,742.16L834.38,741.979L833.963,742.264L834.116,742.423L833.613,742.441L833.069,742.932L832.941,742.733L832.447,743.74L832.227,743.62L831.18,746.122L830.757,746.358L830.819,746.767L830.558,746.71L829.238,748.753L828.309,752.461L827.163,754.404L826.929,757.059L826.312,758.199L825.91,760.529L825.622,760.61L825.693,761.306L825.391,761.331L825.633,761.91L825.289,763.975L825.554,764.115L825.226,764.7L825.015,767.997L824.801,768.218L824.788,767.978L824.953,768.658L824.628,768.795L825.009,769.843L824.822,771.485L825.039,771.704L824.716,772.295L824.975,772.398L824.534,772.795L824.732,773.873L824.661,774.898L824.394,774.887L824.741,778.267L824.498,778.712L824.73,778.92L824.502,779.736L824.64,782.601L824.4,782.535L825.138,786.417L825.008,790.889L825.596,792.411L825.59,795.774L825.9,796.004L825.949,797.324L826.504,798.073L826.258,798.356L826.716,800.164L826.448,800.655L826.737,800.954L826.509,801.007L826.938,801.522L826.951,802.364L827.179,802.752L827.289,802.542L827.11,802.747L827.44,803.128L827.497,804.228L827.843,804.409L827.61,805.236L828.069,806.559L827.741,806.645L828.345,806.862L828.478,807.648L828.657,807.345L828.619,808.19L828.897,807.951L828.983,809.247L829.393,809.593L829.197,810.175L829.523,809.843L829.257,810.17L829.937,810.568L830.235,811.431L830.434,811.085L830.311,811.763L830.48,811.497L830.735,812.929L831.062,812.959L830.922,813.446L831.056,813.104L831.037,813.643L831.541,813.467L831.878,814.067L832.013,813.798L832.379,814.885L832.758,814.884L832.711,815.264L832.857,815.043L832.784,815.351L833.254,815.039L833.763,815.152L833.638,815.314L833.745,814.955L833.898,815.316L833.949,815.109L834.444,815.535L834.594,815.375L834.488,815.678L836.074,814.651L836.812,814.754L837.03,814.253L837.659,814.091L837.449,814.015L838.054,813.564L837.89,813.379L838.474,813.061L838.759,813.291L838.779,812.501L839.273,812.349L839.109,812.178L839.601,811.264L839.336,811.028L839.913,810.612L839.931,810.027L840.325,809.348L840.54,809.183L840.592,809.399L840.434,809.091L841.021,808.314L840.891,807.733L841.474,807.271L843.629,799.658L843.934,797.005L844.341,795.913L844.62,795.964L844.371,795.906L844.467,795.368L844.247,795.416L844.708,794.833L844.89,792.688L845.279,792.237L845.217,791.742L845.483,791.757L845.277,791.63L845.569,791.325L845.614,790.148L845.294,789.861L845.665,789.527L845.663,788.308L845.987,786.995L846.246,786.986L846.147,784.233L846.665,781.535L846.386,780.325L846.629,778.472L846.511,778.81L846.23,778.163L846.486,773.661L846.252,773.465L846.236,768.829L845.875,766.38L846.157,764.522L845.875,763.791L846.072,761.712L845.855,761.599L846.103,760.943L845.637,758.843L845.86,758.741L845.471,758.057L845.637,756.176L845.235,755.083L845.416,754.822L845.194,754.639L845.397,754.673L844.972,754.294L844.914,753.149L844.512,752.684L844.645,751.57L841.273,745.067L841.272,745.456L841.141,745.002L841.231,745.356L840.856,745.063L840.742,745.366L840.732,745.039L840.693,745.356L839.668,743.734L839.604,744.046L839.317,743.565L839.388,743.868L838.826,743.49L838.6,743.729L838.292,743.081L838.39,743.352L837.958,742.968L837.971,743.218L837.342,742.896L837.263,742.488L836.617,742.609L835.541,741.923" style="fill:none;fill-rule:nonzero;stroke:black;stroke-width:4px;"/>
        </g>
        <g>
            <path d="M1022.01,742.23L1021.68,742.58L1021.9,742.678L1021.6,742.631L1021.62,742.241L1021.51,742.663L1021.34,742.657" style="fill:none;fill-rule:nonzero;stroke:black;stroke-width:4px;"/>
        </g>
        <g>
            <path d="M1018.12,814.136L1018.11,814.359L1018.61,814.183L1018.95,814.783L1019.08,814.514L1019.45,815.601L1019.83,815.6L1019.78,815.98L1019.93,815.759L1019.85,816.067L1020.32,815.755L1020.83,815.868L1020.71,816.03L1020.82,815.671L1020.97,816.032L1021.02,815.825L1021.51,816.251L1021.67,816.091L1021.56,816.394L1023.14,815.367L1023.88,815.47L1024.1,814.968L1024.73,814.807L1024.52,814.731L1025.12,814.279L1024.96,814.095L1025.54,813.777L1025.83,814.007L1025.85,813.217L1026.34,813.065L1026.18,812.893L1026.67,811.98L1026.41,811.743L1026.98,811.328L1027,810.743L1027.4,810.064L1027.61,809.899L1027.66,810.115L1027.5,809.807L1028.09,809.03L1027.96,808.448L1028.54,807.987L1030.7,800.374L1031,797.72L1031.41,796.628L1031.69,796.68L1031.44,796.622L1031.54,796.084L1031.32,796.132L1031.78,795.549L1031.96,793.404L1032.35,792.953L1032.29,792.457L1032.55,792.472L1032.35,792.346L1032.64,792.041L1032.68,790.864L1032.36,790.577L1032.74,790.243L1032.73,789.024L1033.06,787.711L1033.32,787.702L1033.22,784.949L1033.74,782.251L1033.46,781.041L1033.7,779.188L1033.58,779.526L1033.3,778.879L1033.56,774.377L1033.32,774.18L1033.31,769.544L1032.94,767.096L1033.23,765.238L1032.94,764.507L1033.14,762.428L1032.92,762.315L1033.17,761.659L1032.71,759.559L1032.93,759.456L1032.54,758.773L1032.71,756.892L1032.31,755.799L1032.49,755.538L1032.27,755.355L1032.47,755.389L1032.04,755.01L1031.99,753.865L1031.58,753.399L1031.71,752.286L1028.34,745.783L1028.34,746.172L1028.21,745.718L1028.3,746.072L1027.93,745.779L1027.81,746.082L1027.8,745.755L1027.76,746.072L1026.74,744.45L1026.67,744.762L1026.39,744.281L1026.46,744.584L1025.9,744.206L1025.67,744.444L1025.36,743.797L1025.46,744.068L1025.03,743.684L1025.04,743.933L1024.41,743.612L1024.33,743.204L1023.69,743.325L1022.61,742.639" style="fill:none;fill-rule:nonzero;stroke:black;stroke-width:4px;"/>
        </g>
        <g>
            <path d="M905.768,774.839L906.068,774.326L906.454,776.256L906.138,783.758L906.25,795.135L906.111,796.719L905.879,796.628L906.348,797.084L906.384,798.128L906.532,797.847L906.686,798.524L907.475,798.437L907.656,798.834L908.045,798.722L907.986,798.475L908.069,798.847L908.82,799.135L908.838,798.87L908.944,799.186L908.923,798.715L909.382,798.721L909.42,798.428L909.579,798.604L909.48,798.147L910.277,798.821L910.287,798.383L910.546,798.486L911.083,797.985" style="fill:none;fill-rule:nonzero;stroke:black;stroke-width:4px;"/>
        </g>
        <g>
            <path d="M906.462,765.792L906.725,766.06L906.415,766.091L906.675,765.971L906.601,765.541L906.573,766.125L906.775,765.891L906.55,766.2L906.771,766.146L906.378,766.344L906.358,766.092" style="fill:none;fill-rule:nonzero;stroke:black;stroke-width:4px;"/>
        </g>
        <g>
            <path d="M901.875,776.6L902.036,776.911L902.224,776.093L902.2,776.383L902.188,776.126L902.297,776.388L902.529,776.252L902.87,775.609L904.728,774.8L905.092,774.207L904.797,774.853" style="fill:none;fill-rule:nonzero;stroke:black;stroke-width:4px;"/>
        </g>
        <g>
            <path d="M915.972,774.709L915.97,775.557L915.905,774.865L916.061,775.003L916.232,774.403L916.078,775.272L915.918,775.112L916.198,775.434L916.367,782.018L916.027,785.846L916.519,789.621L916.183,793.914L916.462,797.404L916.005,798.271L916.099,798.578L916.244,798.299L916.284,798.901L916.068,798.096" style="fill:none;fill-rule:nonzero;stroke:black;stroke-width:4px;"/>
        </g>
        <g>
            <path d="M917.492,778.714L918.793,776.823L918.962,776.981L919.047,776.618L919.055,776.976L919.414,776.12L920.873,774.68L922.122,774.354L922.829,773.633L922.916,773.98L923.379,773.938L923.411,774.322L923.666,773.928L923.653,774.145L924.004,773.9L924.372,774.122L924.525,773.872L924.546,774.222L924.816,773.943L925.721,775.36L926.468,777.911L926.498,779.339L926.176,779.844L925.785,788.85L926.048,789.985L925.781,793.902L926.175,798.669" style="fill:none;fill-rule:nonzero;stroke:black;stroke-width:4px;"/>
        </g>
        <g>
            <path d="M941.014,777.408L941.113,776.746L941.032,777.051L940.849,776.196L940.59,775.778L940.527,775.992L940.36,775.161L938.512,773.922L937.381,773.65L936.493,773.908L936.397,774.191L936.333,773.923L936.148,774.102L936.289,773.801L935.625,773.863L935.496,774.223L934.864,773.784L934.067,774.358L934.11,773.914L932.906,775.826L931.803,779.282L931.408,783.449L931.682,784.592L931.465,787.71L932.007,793.697L931.796,795.308L932.36,798.238L933.035,799.092L932.922,798.83L933.526,799.173L933.518,798.893L933.96,799.364L934.52,799.13L934.585,799.409L934.925,799.154L935.01,799.486L935.005,799.178L935.027,799.466L935.069,799.168L935.049,799.413L935.172,799.117L936.216,798.799L936.455,798.222L936.58,798.494L936.644,798.19L936.724,798.484L937.066,798.053L937.471,798.172L938.191,797.153L937.993,796.622" style="fill:none;fill-rule:nonzero;stroke:black;stroke-width:4px;"/>
        </g>
        <g>
            <path d="M941.751,750.895L941.311,751.185L941.69,751.062L941.888,755.494L941.089,763.028L941.274,770.003L940.858,773.141L940.928,776.933L940.151,790.159L940.307,794.832L940.796,797.513L940.812,797.122L940.961,797.719L941.354,797.534L941.414,797.774L941.458,797.492L941.977,798.902L941.939,798.414L942.254,798.527L942.29,798.218L942.671,798.742L943.109,798.183L943.091,798.438L943.408,798.424L943.788,798.017L943.879,798.45L943.998,797.901L943.889,798.169L943.764,797.875L944.009,797.758" style="fill:none;fill-rule:nonzero;stroke:black;stroke-width:4px;"/>
        </g>
        <g>
            <path d="M950.094,785.717L949.88,785.958L950.164,785.826L950.076,786.111L951.335,784.715L951.634,784.82L951.784,784.344L952.681,783.838L954.779,781.027L955.658,780.365L956.052,779.262L956.601,778.723L957.201,777.459L957.565,775.414L957.272,775.315L957.326,774.507L957.28,774.882L956.688,773.316L956.414,773.37L956.39,772.955L956.236,773.217L956.218,772.846L955.988,773.165L954.64,772.577L953.079,772.791L953.026,773.056L952.644,772.867L951.882,773.292L951.871,773.07L950.777,774.543L950.514,774.47L950.219,775.583L950.012,775.864L949.954,775.637L948.959,785.779L948.905,790.638L948.982,793.086L949.704,795.017L949.656,795.823L949.971,796.708L950.48,796.758L950.626,797.15L950.67,796.807L950.986,797.733L951.422,797.694L951.683,798.021L951.746,797.796L952.166,798.262L952.268,798.007L952.42,798.277L952.844,797.996L953.086,798.186L953.586,797.893L953.545,798.105L953.713,797.833L954.145,797.886L954.255,798.209L955.872,796.159L955.958,796.398L956.53,795.871L956.585,796.077L957.117,794.974" style="fill:none;fill-rule:nonzero;stroke:black;stroke-width:4px;"/>
        </g>
        <g>
            <path d="M964.251,774.582L964.138,774.947L964.494,774.803L964.637,773.993L965.895,772.424L966.195,772.682L967.169,771.899L967.081,772.244L967.453,771.994L967.999,773.155L968.292,775.033L968.809,775.819L970.627,784.021L971.27,791.875L972.01,794.775L972.162,796.965L973.02,798.47L973.21,798.189L973.748,798.75L973.836,798.429L974.278,798.383L974.283,797.812L974.336,798.703L974.531,798.362L974.784,798.519L975.071,797.868L975.173,798.167L976.09,797.307L976.114,797.792L975.944,797.536L975.783,797.743" style="fill:none;fill-rule:nonzero;stroke:black;stroke-width:4px;"/>
        </g>
        <g>
            <path d="M975.247,773.059L975.558,772.234L975.014,773.34L974.876,773.169L973.668,776.664L972.719,778.128L971.283,782.013L969.919,784.309L969.136,787.096L967.628,789.96L967.016,792.392L965.747,794.37L964.777,797.284L964.5,797.561L964.493,797.34L964.367,798.199L963.321,799.781" style="fill:none;fill-rule:nonzero;stroke:black;stroke-width:4px;"/>
        </g>
        <g>
            <path d="M720.243,756.145C719.267,756.63 719.932,759.451 719.786,760.956C719.362,765.357 719.158,765.272 719.129,769.757C719.076,777.764 718.953,785.772 719.067,793.778C719.113,797.073 719.533,800.354 719.611,803.648C719.64,804.873 719.478,806.095 719.386,807.317C719.374,807.475 719.372,807.001 719.371,806.843" style="fill:none;fill-rule:nonzero;stroke:black;stroke-width:4px;"/>
        </g>
        <g>
            <path d="M772.082,755.944C771.863,758.63 771.644,761.325 771.71,764.019C771.752,765.708 772.3,767.354 772.403,769.04C773.155,781.337 772.304,781.284 772.492,793.598C772.542,796.898 772.998,800.181 773.107,803.479C773.148,804.728 772.305,806.115 772.886,807.222C773.017,807.471 773.129,807.729 773.24,807.987" style="fill:none;fill-rule:nonzero;stroke:black;stroke-width:4px;"/>
        </g>
        <g>
            <path d="M719.329,755.436C719.271,756.325 724.589,755 725.86,754.978C729.823,754.909 729.758,755.348 733.693,755.033C741.469,754.41 749.475,754.104 757.288,754.24C761.574,754.315 761.492,754.455 765.74,754.343C767.381,754.3 769.023,754.475 770.656,754.65" style="fill:none;fill-rule:nonzero;stroke:black;stroke-width:4px;"/>
        </g>
        <g>
            <path d="M720.439,808.123C721.478,808.103 722.521,808.083 723.557,808.16C724.958,808.264 726.336,808.66 727.74,808.664C730.623,808.672 733.494,808.282 736.376,808.194C744.275,807.952 751.581,808.935 759.983,807.926C761.607,807.731 763.173,807.131 764.805,807.022C765.99,806.943 767.19,807.118 768.35,807.368C768.485,807.397 768.184,807.808 768.319,807.78C769.907,807.449 769.869,806.751 771.253,807.508C771.412,807.595 771.166,807.152 771.078,806.993" style="fill:none;fill-rule:nonzero;stroke:black;stroke-width:4px;"/>
        </g>
        <g>
            <path d="M732.353,755.439C732.937,757.139 732.462,757.085 732.494,758.9C732.588,764.359 732.636,769.819 732.767,775.278C732.903,780.96 733.35,786.631 733.552,792.311C733.68,795.932 733.719,799.555 733.755,803.178C733.768,804.526 733.734,805.874 733.7,807.222" style="fill:none;fill-rule:nonzero;stroke:black;stroke-width:2px;"/>
        </g>
        <g>
            <path d="M719.705,768.56C720.573,768.59 721.443,768.62 722.31,768.685C725.318,768.909 728.313,769.473 731.329,769.427C746.058,769.203 745.856,767.45 760.638,766.811C762.789,766.718 764.917,767.339 767.07,767.421C768.152,767.462 769.236,767.321 770.309,767.181" style="fill:none;fill-rule:nonzero;stroke:black;stroke-width:2px;"/>
        </g>
        <g>
            <path d="M720.568,780.402C721.48,780.386 722.391,780.37 723.303,780.34C725.415,780.272 727.528,780.206 729.64,780.108C734.953,779.862 740.261,779.492 745.576,779.307C750.806,779.125 756.247,778.834 761.482,778.956C763.834,779.011 767.667,779.973 770.105,779.21" style="fill:none;fill-rule:nonzero;stroke:black;stroke-width:2px;"/>
        </g>
        <g>
            <path d="M721.404,790.966C721.747,790.76 722.126,790.533 722.526,790.539C723.51,790.554 724.455,791.073 725.438,791.026C730.534,790.784 730.433,790.452 735.505,790.713C737.707,790.826 739.918,791.05 742.118,790.893C747.635,790.5 747.366,789.26 752.87,789.214C757.969,789.171 757.879,789.578 762.909,789.472C764.446,789.439 765.986,789.484 767.522,789.562C768.886,789.631 770.247,789.771 771.607,789.911" style="fill:none;fill-rule:nonzero;stroke:black;stroke-width:2px;"/>
        </g>
        <g>
            <path d="M723.532,759.079C723.455,759.149 723.348,759.237 723.367,759.362C723.398,759.562 723.587,759.052 723.669,759.243C723.73,759.385 723.749,759.545 723.821,759.682C724,760.027 724.406,760.162 724.587,760.518C724.674,760.689 724.534,760.933 724.641,761.092C724.955,761.558 725.664,762.104 725.953,762.592C726.153,762.931 726.258,763.318 726.402,763.685C726.587,764.157 726.634,764.733 727,765.084C727.394,765.462 727.277,764.974 727.189,764.807" style="fill:none;fill-rule:nonzero;stroke:black;stroke-width:2px;"/>
        </g>
        <g>
            <path d="M727.992,760.021C728.218,759.988 728.56,759.94 728.745,759.777C728.818,759.713 728.516,759.708 728.507,759.612C728.497,759.506 728.582,759.412 728.624,759.314C728.644,759.266 728.694,759.142 728.644,759.158C728.547,759.189 728.435,759.215 728.37,759.293C728.238,759.451 728.641,759.638 728.526,759.791C728.515,759.805 728.248,759.789 728.242,759.795C727.955,760.074 727.706,760.389 727.456,760.702C727.207,761.015 726.963,761.333 726.747,761.67C726.665,761.797 725.927,763.227 725.835,763.349C725.291,764.068 724.509,764.494 724.308,765.426C724.287,765.521 724.485,765.249 724.57,765.297C724.677,765.357 724.499,765.899 724.36,765.444" style="fill:none;fill-rule:nonzero;stroke:black;stroke-width:2px;"/>
        </g>
        <g>
            <path d="M722.749,772.335C722.817,772.251 722.984,772.037 723.135,772.068C723.235,772.089 723.007,772.281 723.062,772.367C723.176,772.544 723.495,772.524 723.596,772.722C723.973,773.466 723.951,774.482 724.479,775.146C724.566,775.255 724.676,775.348 724.796,775.419C724.913,775.489 724.915,774.99 725.024,775.069C725.088,775.116 724.902,775.479 724.907,775.478C725.983,775.325 726.09,774.392 726.775,773.758C726.829,773.708 726.858,773.987 726.909,773.934C727.683,773.139 728.888,771.627 729.578,770.762" style="fill:none;fill-rule:nonzero;stroke:black;stroke-width:2px;"/>
        </g>
        <g>
            <path d="M724.61,775.733C724.824,775.658 724.844,775.765 724.796,775.987C724.727,776.314 724.495,776.618 724.531,776.963C724.547,777.12 724.615,777.291 724.703,777.419C724.834,777.61 725.186,777.487 725.141,777.812C725.134,777.86 725.118,777.907 725.096,777.95C725.049,778.039 724.993,778.124 724.934,778.205" style="fill:none;fill-rule:nonzero;stroke:black;stroke-width:2px;"/>
        </g>
        <g>
            <path d="M723.291,781.519C723.171,781.525 722.937,781.534 722.846,781.646C722.782,781.724 722.926,781.844 722.983,781.833C723.262,781.779 723.518,781.617 723.802,781.588C724.631,781.506 724.624,781.727 725.451,781.612C726.051,781.528 726.451,781.342 727.052,781.381C727.121,781.385 727.196,781.426 727.229,781.486C727.452,781.895 727.03,782.405 726.821,782.821C726.049,784.361 724.188,784.658 723.324,786.12C722.802,787.002 722.618,787.188 723.242,787.807C723.34,787.904 723.446,788.024 723.583,788.044C724.208,788.135 724.843,788.134 725.474,788.131C726.107,788.127 726.739,788.07 727.371,788.023" style="fill:none;fill-rule:nonzero;stroke:black;stroke-width:2px;"/>
        </g>
        <g>
            <path d="M743.613,761.233C743.807,761.205 744.001,761.176 744.196,761.148" style="fill:none;fill-rule:nonzero;stroke:black;stroke-width:2px;"/>
        </g>
        <g>
            <path d="M748.562,761.068C748.568,761.093 748.574,761.118 748.581,761.142C748.589,761.169 748.599,761.195 748.609,761.221C748.623,761.255 748.655,761.304 748.699,761.284C748.716,761.276 748.731,761.266 748.746,761.254C748.822,761.194 748.86,761.096 748.89,761.007C748.903,760.97 748.912,760.932 748.923,760.894" style="fill:none;fill-rule:nonzero;stroke:black;stroke-width:2px;"/>
        </g>
        <g>
            <path d="M754.186,760.62C754.225,760.631 754.265,760.643 754.304,760.654" style="fill:none;fill-rule:nonzero;stroke:black;stroke-width:2px;"/>
        </g>
        <g>
            <path d="M743.247,773.322C743.235,773.272 743.222,773.221 743.207,773.171C743.19,773.115 743.171,773.06 743.149,773.005C743.132,772.962 743.057,772.817 742.993,772.896C742.98,772.913 742.966,772.93 742.959,772.95C742.951,772.969 742.949,772.991 742.949,773.011C742.951,773.112 743.019,773.214 743.063,773.296C743.087,773.342 743.111,773.387 743.136,773.433C743.138,773.437 743.138,773.446 743.142,773.445C743.147,773.445 743.14,773.437 743.139,773.433C743.133,773.408 743.125,773.383 743.12,773.358C743.111,773.31 743.08,773.16 743.185,773.18C743.206,773.184 743.227,773.19 743.246,773.199C743.283,773.216 743.329,773.253 743.361,773.278" style="fill:none;fill-rule:nonzero;stroke:black;stroke-width:2px;"/>
        </g>
        <g>
            <path d="M747.684,773.075C747.741,773.127 747.797,773.178 747.854,773.23" style="fill:none;fill-rule:nonzero;stroke:black;stroke-width:2px;"/>
        </g>
        <g>
            <path d="M754.283,772.065C754.317,772.04 754.351,772.014 754.385,771.989" style="fill:none;fill-rule:nonzero;stroke:black;stroke-width:2px;"/>
        </g>
        <g>
            <path d="M742.054,785.022C741.99,785.055 741.908,785.094 741.87,785.159C741.864,785.169 741.859,785.18 741.856,785.191C741.853,785.202 741.853,785.214 741.853,785.225C741.853,785.24 741.864,785.253 741.879,785.252C741.925,785.251 741.968,785.225 742.006,785.204C742.026,785.193 742.045,785.181 742.064,785.169" style="fill:none;fill-rule:nonzero;stroke:black;stroke-width:2px;"/>
        </g>
        <g>
            <path d="M748.395,783.993C748.34,783.994 748.286,783.996 748.231,783.997" style="fill:none;fill-rule:nonzero;stroke:black;stroke-width:2px;"/>
        </g>
        <g>
            <path d="M754.699,783.268C754.85,783.226 755.056,783.158 755.207,783.238C755.272,783.273 755.27,783.372 755.282,783.43C755.288,783.462 755.289,783.58 755.36,783.561C755.467,783.533 755.36,783.347 755.34,783.307C755.311,783.251 755.265,783.215 755.271,783.278C755.278,783.336 755.286,783.394 755.295,783.451" style="fill:none;fill-rule:nonzero;stroke:black;stroke-width:2px;"/>
        </g>
        <g>
            <path d="M781.422,779.063L781.576,779.661L781.761,779.417L784.788,779.7L788.174,779.091L789.12,779.471L791.165,779.51L791.633,779.79L792.16,779.61L792.342,779.924L792.662,779.616L793.992,779.456L796.022,779.671L796.143,779.454L796.563,779.7L797.412,779.419L799.465,779.617L799.689,779.924L800.534,779.619L800.843,779.868L801.144,779.622L804.257,779.479L804.398,779.211L804.695,779.476L806.315,779.325L807.679,779.668L810.323,779.217L812.771,779.708L813.504,779.359L815.321,779.789L815.286,779.536L816.074,779.365L817.115,779.441L817.118,779.124L817.069,779.655L816.788,779.201" style="fill:none;fill-rule:nonzero;stroke:black;stroke-width:4px;"/>
        </g>
        <g>
            <path d="M804.619,774.454L804.081,774.378L804.04,774.621L804.437,774.534L804.618,775.025L806.025,775.995L809.234,776.485L811.753,777.748L812.897,777.896L813.385,778.354L815.662,778.801L815.998,779.132L816.585,778.962L816.498,779.152L817.082,779.375L817.447,779.215L817.562,779.525L816.698,779.25L814.59,780.148L814.106,780.634L813.755,780.498L813.616,780.832L810.597,781.051L808.469,782.089L806.671,783.67L806.327,783.396L806.333,783.658L806.178,783.416L806.084,783.715L805.353,783.648L805.197,784.184L804.818,783.944L804.708,784.301L803.799,784.381L803.543,784.732L803.008,784.67L803.128,784.833L803.805,784.275" style="fill:none;fill-rule:nonzero;stroke:black;stroke-width:4px;"/>
        </g>
        <g>
            <path d="M1045.27,779.183L1045.42,779.781L1045.61,779.536L1048.64,779.82L1052.02,779.211L1052.97,779.59L1055.01,779.63L1055.48,779.91L1056.01,779.73L1056.19,780.043L1056.51,779.736L1057.84,779.575L1059.87,779.791L1059.99,779.573L1060.41,779.82L1061.26,779.539L1063.31,779.737L1063.54,780.044L1064.38,779.738L1064.69,779.988L1064.99,779.741L1068.11,779.599L1068.25,779.331L1068.54,779.596L1070.16,779.445L1071.53,779.788L1074.17,779.337L1076.62,779.828L1077.35,779.478L1079.17,779.908L1079.13,779.656L1079.92,779.484L1080.96,779.56L1080.97,779.243L1080.92,779.774L1080.64,779.32" style="fill:none;fill-rule:nonzero;stroke:black;stroke-width:4px;"/>
        </g>
        <g>
            <path d="M1068.47,774.574L1067.93,774.498L1067.89,774.74L1068.29,774.654L1068.47,775.145L1069.87,776.115L1073.08,776.604L1075.6,777.868L1076.75,778.015L1077.23,778.474L1079.51,778.921L1079.85,779.252L1080.43,779.082L1080.35,779.272L1080.93,779.494L1081.3,779.335L1081.41,779.645L1080.55,779.369L1078.44,780.268L1077.95,780.754L1077.6,780.617L1077.46,780.952L1074.45,781.171L1072.32,782.209L1070.52,783.789L1070.18,783.516L1070.18,783.777L1070.03,783.536L1069.93,783.835L1069.2,783.768L1069.05,784.304L1068.67,784.063L1068.56,784.42L1067.65,784.501L1067.39,784.852L1066.86,784.79L1066.98,784.952L1067.65,784.394" style="fill:none;fill-rule:nonzero;stroke:black;stroke-width:4px;"/>
        </g>
        <g>
            <path d="M1133.16,726.108L1133.45,725.915L1133.71,726.239L1133.64,725.726L1133.38,725.747" style="fill:none;fill-rule:nonzero;stroke:black;stroke-width:2px;"/>
        </g>
        <g>
            <path d="M1132.83,733.309L1132.18,733.409L1132.23,733.662L1132.91,732.99L1133.07,733.394L1134.03,732.755L1134.43,733.226L1134.49,732.928L1134.44,734.135L1134.79,735.218L1134.68,740.069L1134.87,739.363L1134.91,739.634L1135.7,739.163L1136.05,739.481L1136.77,738.579L1136.77,738.812L1136.84,738.543L1137.16,738.73L1137.19,738.332L1137,739.072" style="fill:none;fill-rule:nonzero;stroke:black;stroke-width:2px;"/>
        </g>
        <g>
            <path d="M1095.54,770.484C1095.54,770.484 1098.37,771.244 1099.81,771.123C1104.42,770.735 1110.14,769.932 1115.3,770.09C1123.17,770.33 1131.27,770.521 1139.89,770.246C1142.13,770.175 1145.23,770.262 1146.97,770.15C1147.47,770.118 1148.97,769.312 1149.59,769.444C1150.47,769.632 1151.5,770.155 1152.35,770.101C1156.06,769.866 1162.53,769.025 1165.4,769.45C1167.53,769.764 1171.84,769.512 1171.84,769.512" style="fill:none;fill-rule:nonzero;stroke:black;stroke-width:2px;"/>
        </g>
        <g>
            <path d="M1095.82,789.629C1095.82,789.629 1098.65,790.388 1100.09,790.267C1104.69,789.879 1110.42,789.077 1115.58,789.235C1123.45,789.475 1131.55,789.667 1140.17,789.391C1142.4,789.319 1145.51,789.409 1147.25,789.294C1147.75,789.261 1149.25,788.457 1149.87,788.588C1150.75,788.776 1151.77,789.299 1152.63,789.245C1156.33,789.009 1162.81,788.169 1165.68,788.594C1167.81,788.908 1172.12,788.656 1172.12,788.656" style="fill:none;fill-rule:nonzero;stroke:black;stroke-width:2px;"/>
        </g>
        <g>
            <path d="M1095.2,771.263C1095.23,771.132 1095.31,770.759 1095.35,770.887C1095.72,772.069 1095.74,774.166 1095.7,775.272C1095.64,777.114 1095.38,778.949 1095.37,780.792C1095.35,783.759 1095.46,786.727 1095.58,789.692" style="fill:none;fill-rule:nonzero;stroke:black;stroke-width:2px;"/>
        </g>
        <g>
            <path d="M1111.14,771.056C1111.17,774.972 1111.19,778.889 1111.28,782.804C1111.32,784.743 1111.35,786.687 1111.53,788.618C1111.55,788.852 1111.83,788.179 1111.76,787.953C1111.73,787.823 1111.48,788.1 1111.37,788.034C1111.28,787.986 1111.34,787.83 1111.38,787.739" style="fill:none;fill-rule:nonzero;stroke:black;stroke-width:2px;"/>
        </g>
        <g>
            <path d="M1126.51,771.359C1126.73,772.856 1126.95,774.361 1126.97,775.873C1126.99,777.197 1126.58,778.51 1126.64,779.832C1126.78,782.475 1127.33,785.082 1127.57,787.717C1127.62,788.257 1127.68,788.82 1127.54,789.345C1127.46,789.641 1127.4,788.747 1127.38,788.442" style="fill:none;fill-rule:nonzero;stroke:black;stroke-width:2px;"/>
        </g>
        <g>
            <path d="M1141.38,771.204C1141.38,771.318 1141.4,771.61 1141.48,771.531C1141.62,771.394 1141.6,770.762 1141.64,770.957C1141.81,771.841 1141.86,772.747 1141.89,773.647C1141.94,775.189 1141.77,776.735 1141.87,778.275C1142.08,781.751 1143.43,785.332 1142.55,788.7C1142.51,788.854 1142.47,788.389 1142.46,788.231" style="fill:none;fill-rule:nonzero;stroke:black;stroke-width:2px;"/>
        </g>
        <g>
            <path d="M1157.8,770.706C1157.59,774.253 1157.38,777.806 1157.41,781.36C1157.42,783.225 1157.68,785.082 1157.94,786.929" style="fill:none;fill-rule:nonzero;stroke:black;stroke-width:2px;"/>
        </g>
        <g>
            <path d="M1133.18,748.216L1133.57,762.964L1133.9,764.898L1132.74,759.56L1131.92,758.034L1131.77,756.805L1131.78,757.47L1131.5,757.097L1131.61,756.701L1132.31,760.555L1133.66,764.721L1133.98,760.595L1134.73,758.36L1134.93,758.109L1135.01,758.531L1135.08,757.21" style="fill:none;fill-rule:nonzero;stroke:black;stroke-width:2px;"/>
        </g>
        <g>
            <path d="M1165.66,779.669C1165.69,779.849 1165.75,780.146 1165.93,780.147C1166.1,780.148 1166.09,779.838 1166.08,779.672" style="fill:none;fill-rule:nonzero;stroke:black;stroke-width:2px;"/>
        </g>
        <g>
            <path d="M1169.42,779.063C1169.4,779.219 1169.37,779.399 1169.45,779.536C1169.49,779.606 1169.55,779.405 1169.57,779.327" style="fill:none;fill-rule:nonzero;stroke:black;stroke-width:2px;"/>
        </g>
        <g>
            <path d="M1174.05,778.693C1173.93,778.631 1173.78,778.548 1173.66,778.613C1173.58,778.659 1173.66,778.807 1173.71,778.888" style="fill:none;fill-rule:nonzero;stroke:black;stroke-width:2px;"/>
        </g>
    </g>
</svg>
