<?xml version="1.0" encoding="UTF-8" standalone="no"?>
<!DOCTYPE svg PUBLIC "-//W3C//DTD SVG 1.1//EN" "http://www.w3.org/Graphics/SVG/1.1/DTD/svg11.dtd">
<svg width="100%" height="100%" viewBox="0 0 685 420" version="1.1" xmlns="http://www.w3.org/2000/svg" xmlns:xlink="http://www.w3.org/1999/xlink" xml:space="preserve" xmlns:serif="http://www.serif.com/" style="fill-rule:evenodd;clip-rule:evenodd;stroke-linecap:round;stroke-linejoin:round;">
    <g transform="matrix(1,0,0,1,-59.3321,-234.831)">
        <g>
            <path d="M644.324,542.922C645.726,542.169 647.138,541.412 648.421,540.47C649.672,539.552 650.886,538.55 651.892,537.368C655.677,532.919 656.456,533.15 656.658,529.342C656.67,529.12 656.643,529.795 656.561,530.001C656.509,530.13 656.694,529.539 656.562,529.583C656.38,529.643 656.329,529.902 656.291,530.09" style="fill:none;fill-rule:nonzero;stroke:black;stroke-width:2px;"/>
        </g>
        <g>
            <path d="M659.871,497.7C659.871,497.7 659.601,499.118 659.603,499.835C659.606,501.651 659.931,503.457 659.937,505.273C659.952,509.905 659.813,514.535 659.721,519.166C659.713,519.56 659.541,519.94 659.538,520.334C659.528,521.535 659.605,522.736 659.682,523.935" style="fill:none;fill-rule:nonzero;stroke:black;stroke-width:2.75px;"/>
        </g>
        <g>
            <path d="M660.851,497.833C660.752,497.834 660.553,497.836 660.57,497.934C660.811,499.273 661.306,500.555 661.579,501.888C661.95,503.699 662.464,505.479 662.821,507.293C663.16,509.017 661.757,512.213 663.487,512.523C665.139,512.819 664.065,509.207 664.569,507.606C665.665,504.126 667.552,500.333 669.2,497.073C669.298,496.878 668.985,497.47 668.972,497.689C668.828,500.156 668.703,502.627 668.733,505.098C668.796,510.345 669.632,515.56 669.77,520.805C669.808,522.273 669.685,523.741 669.63,525.208C669.622,525.415 669.486,524.819 669.439,524.618" style="fill:none;fill-rule:nonzero;stroke:black;stroke-width:2.75px;"/>
        </g>
        <g>
            <path d="M673.79,496.61C674.325,500.998 674.861,505.394 675.079,509.81C675.255,513.394 675.736,520.244 674.896,525.114C674.874,525.241 674.795,524.784 674.911,524.729C674.955,524.708 674.942,524.77 675.006,524.722C675.152,524.613 676.268,525.248 676.618,525.271C677.2,525.309 678.157,525.13 678.7,524.861C678.796,524.813 679.075,524.934 678.991,525C678.901,525.071 678.79,524.871 678.735,524.771" style="fill:none;fill-rule:nonzero;stroke:black;stroke-width:2.75px;"/>
        </g>
        <g>
            <path d="M675.523,511.567C675.453,511.529 675.352,511.474 675.359,511.395C675.364,511.335 675.5,511.444 675.538,511.398C675.576,511.351 675.509,511.163 675.5,511.222C675.49,511.287 675.475,511.44 675.535,511.415C675.605,511.386 675.503,511.162 675.573,511.191C675.664,511.228 675.584,511.423 675.671,511.47C676.302,511.812 677.81,511.685 678.247,511.597C678.393,511.567 678.391,511.2 678.531,511.25C678.671,511.3 678.376,511.513 678.255,511.6" style="fill:none;fill-rule:nonzero;stroke:black;stroke-width:2.75px;"/>
        </g>
        <g>
            <path d="M673.884,496.683C673.943,496.572 674.008,496.449 674.117,496.385C674.183,496.346 674.017,496.522 674.027,496.598C674.071,496.933 674.334,496.595 674.413,496.602C674.468,496.607 674.393,496.777 674.448,496.766C674.99,496.655 675.478,496.258 676.031,496.27C676.414,496.278 676.661,496.75 677.037,496.822C677.369,496.886 677.701,496.629 678.038,496.656C678.128,496.663 678.172,496.832 678.128,496.911C678.087,496.987 677.959,496.969 677.873,496.957" style="fill:none;fill-rule:nonzero;stroke:black;stroke-width:2.75px;"/>
        </g>
        <g>
            <path d="M683.374,498.478C683.374,498.478 682.983,498.828 682.999,499.058C683.05,499.793 683.294,500.511 683.308,501.248C683.512,511.579 682.95,511.565 684.02,521.833C684.14,522.987 685.986,524.303 687.057,524.269C687.787,524.246 687.66,524.037 688.116,523.479C689.431,521.873 689.86,518.829 689.804,516.68C689.683,511.983 689.682,507.284 689.667,502.586C689.662,500.924 689.67,499.817 688.761,498.384C688.499,497.97 686.042,495.684 685.378,495.932C684.806,496.146 683.483,496.614 683.429,497.344C683.383,497.971 683.491,498.604 683.598,499.224" style="fill:none;fill-rule:nonzero;stroke:black;stroke-width:2.75px;"/>
        </g>
        <g>
            <path d="M693.439,497.362C693.371,498.793 693.302,500.229 693.371,501.66C693.432,502.94 693.761,504.198 693.83,505.478C694.15,511.447 694,517.485 693.919,523.461C693.919,523.528 693.942,523.211 693.975,523.269C694.592,524.332 694.113,522.792 695.24,519.164C696.93,513.723 696.875,513.751 698.312,508.223C698.403,507.876 698.173,508.931 698.173,509.289C698.175,510.116 698.202,510.947 698.32,511.766C698.703,514.443 699.816,516.07 700.672,518.85C700.913,519.634 700.9,520.478 701.091,521.276C701.296,522.135 701.752,524.687 701.86,523.811C702.217,520.931 701.78,518.006 701.856,515.105C701.995,509.76 702.1,509.808 702.139,504.458C702.155,502.092 702.244,499.726 702.332,497.361" style="fill:none;fill-rule:nonzero;stroke:black;stroke-width:2.75px;"/>
        </g>
        <g>
            <path d="M685.58,597.197C685.404,596.743 685.208,596.24 684.816,595.952C684.301,595.573 683.644,595.232 683.009,595.307C681.799,595.45 680.586,597.4 680.42,598.354C679.717,602.401 680.198,610.909 680.118,614.28C680.019,618.477 679.61,622.664 679.507,626.861C679.445,629.389 680.92,632.344 679.516,634.447C679.395,634.628 679.334,634.044 679.312,633.828" style="fill:none;fill-rule:nonzero;stroke:black;stroke-width:4px;"/>
        </g>
        <g>
            <path d="M675.11,615.054C676.123,615.182 677.156,615.313 678.171,615.194C679.113,615.084 679.96,614.533 680.895,614.378C681.958,614.202 683.045,614.204 684.122,614.207" style="fill:none;fill-rule:nonzero;stroke:black;stroke-width:4px;"/>
        </g>
        <g>
            <path d="M691.34,594.715C691.249,595.689 691.158,596.667 691.17,597.645C691.201,600.22 691.507,602.789 691.467,605.364C691.344,613.383 691.02,621.398 690.787,629.414C690.728,631.422 690.538,633.425 690.348,635.425" style="fill:none;fill-rule:nonzero;stroke:black;stroke-width:4px;"/>
        </g>
        <g>
            <path d="M698.858,612.898C698.798,612.851 698.647,612.733 698.647,612.809C698.63,616.52 698.839,620.23 698.809,623.941C698.788,626.537 698.43,629.128 698.494,631.724C698.525,633.021 699.008,635.918 701.096,635.633C708.362,634.642 706.962,623.027 707.236,618.822C707.341,617.212 707.25,615.595 707.221,613.982C707.213,613.579 707.164,612.766 706.835,612.421C706.765,612.348 706.771,612.616 706.773,612.717" style="fill:none;fill-rule:nonzero;stroke:black;stroke-width:4px;"/>
        </g>
        <g>
            <path d="M719.706,595.626C719.706,595.626 719,594.4 718.382,594.287C717.794,594.18 717.161,594.314 716.607,594.538C715.842,594.847 715.632,596.58 715.573,596.986C715.333,598.664 715.106,600.349 715.025,602.042C714.509,612.722 714.146,623.409 713.783,634.096" style="fill:none;fill-rule:nonzero;stroke:black;stroke-width:4px;"/>
        </g>
        <g>
            <path d="M729.496,595.84C729.496,595.84 729.115,594.935 728.755,594.626C727.854,593.85 727.056,593.569 726.039,594.382C725.774,594.594 725.661,594.976 725.629,595.314C724.334,609.023 724.946,608.975 724.697,622.693C724.627,626.513 724.372,630.328 724.116,634.14" style="fill:none;fill-rule:nonzero;stroke:black;stroke-width:4px;"/>
        </g>
        <g>
            <path d="M712.46,612.964C712.311,613.044 712.129,613.141 711.968,613.088C711.867,613.055 712.108,612.866 712.213,612.883C712.294,612.896 712.148,613.096 712.223,613.128C712.828,613.385 713.07,612.888 713.644,612.812C714.758,612.665 715.884,612.602 717.007,612.594C717.208,612.593 717.38,612.806 717.58,612.784C718.86,612.646 720.104,612.25 721.385,612.121C721.832,612.076 722.278,612.311 722.725,612.264C723.412,612.192 724.054,611.87 724.737,611.768C726.55,611.498 726.514,611.916 728.329,612.136C728.637,612.173 728.949,612.043 729.236,611.924" style="fill:none;fill-rule:nonzero;stroke:black;stroke-width:4px;"/>
        </g>
        <g>
            <path d="M735.536,612.763C735.36,613.88 735.183,615.001 735.122,616.13C734.848,621.154 734.401,627.406 734.921,632.753C735.103,634.62 736.361,635.321 738.145,635.168C738.826,635.109 739.512,634.968 740.144,634.705C740.36,634.615 740.48,634.366 740.582,634.154" style="fill:none;fill-rule:nonzero;stroke:black;stroke-width:4px;"/>
        </g>
        <g>
            <path d="M742.309,611.304C742.309,611.304 741.807,613.742 741.815,614.977C741.859,621.232 742.094,627.486 742.077,633.742C742.071,635.8 741.772,637.849 741.747,639.907C741.669,646.444 742.796,646.807 739.345,652.354C739.294,652.436 739.31,652.069 739.216,652.094C738.757,652.216 738.407,652.64 737.94,652.727C736.104,653.071 733.624,649.812 733.051,648.555C732.724,647.839 732.512,646.42 732.73,645.606C732.883,645.037 734.283,644.758 734.283,644.758" style="fill:none;fill-rule:nonzero;stroke:black;stroke-width:4px;"/>
        </g>
        <g>
            <path d="M532.362,469.811C532.362,469.811 530.658,466.851 529.4,467.221C526.638,468.033 525.113,470.006 524.383,472.768C522.213,480.981 523.348,500.832 523.349,501.437C523.359,506.291 523.993,511.211 525.138,515.925C525.415,517.065 527.493,517.98 528.228,517.97C532.712,517.911 533.514,514.324 534.109,510.766C535.454,502.719 534.645,502.736 534.742,494.118C534.766,492.001 535.087,489.893 535.067,487.776C535.03,483.894 534.805,480.015 534.572,476.14C534.494,474.847 533.756,472.341 533.756,472.341" style="fill:none;fill-rule:nonzero;stroke:black;stroke-width:4px;"/>
        </g>
        <g>
            <path d="M541.182,467.67C541.182,467.67 541.187,468.943 541.221,469.578C541.379,472.535 541.435,475.498 541.448,478.459C541.508,492.546 541.557,492.47 542.227,506.607C542.367,509.553 542.41,512.504 542.419,515.454C542.42,515.87 542.323,517.105 542.259,516.693C542.093,515.618 542.099,514.52 542.106,513.432" style="fill:none;fill-rule:nonzero;stroke:black;stroke-width:4px;"/>
        </g>
        <g>
            <path d="M542.342,467.821C542.891,467.528 543.551,467.177 544.149,467.35C544.907,467.569 545.431,468.287 545.966,468.868C548.128,471.216 549.136,474.648 549.181,477.764C549.237,481.574 547.967,485.093 546.57,488.586C546.041,489.909 545.344,491.163 544.617,492.388C544.474,492.629 543.554,492.751 543.815,492.646C545.319,492.042 546.94,493.2 547.928,494.169C551.149,497.329 550.763,504.503 550.901,508.149C551.016,511.167 550.405,513.692 549.158,515.258C547.975,516.744 546.793,517.525 545.245,517.704C544.815,517.754 543.994,517.354 543.994,517.354" style="fill:none;fill-rule:nonzero;stroke:black;stroke-width:4px;"/>
        </g>
        <g>
            <path d="M554.209,468.767C554.098,468.497 553.987,468.227 553.881,467.955C553.758,467.639 554.56,467.932 554.899,467.934C555.524,467.937 556.131,468.171 556.755,468.19C557.733,468.219 558.711,468.012 559.687,468.077C560.534,468.133 561.34,468.511 562.188,468.551C562.607,468.571 563.396,467.834 563.411,468.253C563.463,469.696 562.491,471.012 562.328,472.446C561.979,475.51 561.916,478.603 561.883,481.686C561.77,492.232 564.241,502.606 562.93,513.21C562.764,514.555 561.471,516.505 560.655,517.376C560.558,517.48 560.599,517.035 560.463,516.996C560.285,516.945 558.168,517.946 557.43,517.68C556.918,517.495 556.523,517.059 556.157,516.655" style="fill:none;fill-rule:nonzero;stroke:black;stroke-width:4px;"/>
        </g>
        <g>
            <path d="M570.175,468.02C570.151,467.715 570.081,466.828 569.992,467.121C568.197,473.047 570.501,479.495 570.614,485.686C570.682,489.427 570.319,493.167 570.361,496.909C570.423,502.496 571.586,510.804 570.53,516.712C570.501,516.877 570.579,516.379 570.63,516.22C570.721,515.934 571.007,516.802 571.307,516.816C572.144,516.854 571.967,516.266 572.866,516.355C574.716,516.539 575.462,515.63 577.886,516.056C578.11,516.095 578.652,516.803 578.71,516.816C578.938,516.865 578.807,516.123 578.807,516.123" style="fill:none;fill-rule:nonzero;stroke:black;stroke-width:4px;"/>
        </g>
        <g>
            <path d="M570.687,468.152C570.667,468.041 570.638,467.877 570.734,467.818C570.815,467.768 570.693,468.041 570.766,468.103C570.82,468.149 570.761,467.895 570.832,467.901C571.527,467.961 571.509,467.971 572.188,468.005C573.902,468.091 573.888,467.972 575.596,467.935C575.876,467.929 576.093,468.285 576.372,468.257C577.516,468.14 578.595,467.614 579.741,467.511C579.894,467.497 579.721,467.826 579.649,467.962" style="fill:none;fill-rule:nonzero;stroke:black;stroke-width:4px;"/>
        </g>
        <g>
            <path d="M571.168,492.21C571.56,492.048 571.969,491.879 572.393,491.867C572.851,491.854 573.285,492.198 573.739,492.139C575.268,491.94 575.234,491.77 576.786,491.682C577.032,491.668 577.162,491.271 577.408,491.284C577.555,491.292 577.357,491.654 577.489,491.719C577.601,491.774 577.553,491.47 577.534,491.346" style="fill:none;fill-rule:nonzero;stroke:black;stroke-width:4px;"/>
        </g>
        <g>
            <path d="M591.964,468.075C591.964,468.075 590.817,466.906 590.106,466.995C587.772,467.286 586.28,468.803 586.144,471.136C585.586,480.691 586.346,480.642 586.109,490.237C586.088,491.099 585.086,501.807 585.448,505.951C585.638,508.129 585.898,510.301 586.222,512.463C586.27,512.785 586.51,514.828 587.217,515.361C588.983,516.692 590.356,516.691 591.451,515.983C592.436,515.346 593.535,513.147 593.535,513.147" style="fill:none;fill-rule:nonzero;stroke:black;stroke-width:4px;"/>
        </g>
        <g>
            <path d="M605.996,467.507C605.996,467.507 606.24,474.478 606.208,477.965C606.074,492.154 605.441,492.034 605.756,506.124C605.827,509.31 607.395,512.676 606.3,515.669C606.235,515.848 606.166,515.309 606.142,515.12" style="fill:none;fill-rule:nonzero;stroke:black;stroke-width:4px;"/>
        </g>
        <g>
            <path d="M599.668,467.915C600.865,467.958 602.07,468 603.26,467.872C603.928,467.8 604.532,467.401 605.199,467.318C605.334,467.301 605.364,467.583 605.499,467.593C606.525,467.668 606.431,467.182 607.476,467.123C607.725,467.109 607.932,467.414 608.18,467.382C608.747,467.308 609.235,466.903 609.801,466.82C611.296,466.6 611.24,467.095 612.735,467.245C612.895,467.261 612.993,466.994 613.153,467.006C613.315,467.019 613.372,467.294 613.534,467.307C613.696,467.32 613.801,467.084 613.964,467.073C614.103,467.063 614.364,467.112 614.343,467.25C614.321,467.386 614.064,467.313 613.932,467.276" style="fill:none;fill-rule:nonzero;stroke:black;stroke-width:4px;"/>
        </g>
        <g>
            <path d="M424.778,366.283L425.239,366.087L425.485,366.949L425.571,366.351L425.582,367.038L425.682,366.169L425.623,366.454L425.824,366.08L426.003,366.461L425.9,365.772L426.004,366.833L426.109,366.446L426.425,366.652L426.244,366.404L426.185,367.084L426.406,367.722L427.343,368.209L428.758,370.028L429.389,371.43L429.977,371.575L430.158,372.136L431.892,373.805L433.465,376.339L433.688,375.992L434.139,377.351L434.378,376.908L434.803,377.888L435.015,377.82L435.584,378.969L438.017,381.973L439.331,382.953L439.716,383.665L439.758,383.432L441.135,385.686L441.933,386.236L442.673,387.599L444.417,389.322L444.658,390.162L444.965,390.093L445.333,390.956L445.843,390.966L450.805,396.304L451.51,397.004L451.792,396.88L452.261,397.754L452.559,397.294L453.415,398.748L453.886,398.451L454.14,399.421L454.475,398.779L454.939,400.234L456.286,401.226L457.625,403.257L458.427,403.759L458.585,404.312L458.935,404.288L460.323,405.936L462.325,407.353L462.653,407.297L466.821,413.014L468.738,414.459L469.094,415.579L469.427,415.34L469.913,416.175L470.665,416.513L471.005,417.348L472.911,418.634L474.076,420.205L474.513,420.308L474.973,421.235L475.775,422.013L476.248,421.881L476.704,422.894L476.93,422.445L477.895,424.472L478.255,424.402L478.643,425.325L480.069,427.004L483.658,430.341L485.255,432.87L486.567,433.531L487.441,434.499L489.149,436.869L490.873,438.59L491.307,439.873L491.471,439.547L491.908,439.732L492.224,440.398L492.738,440.428L493.816,441.304L495.768,443.334L496.913,444.115L497.104,443.887L497.468,444.625L497.641,444.098L499.001,446.447L499.495,446.096L501.967,449.633L502.082,449.357L502.598,450.201L503.444,450.489L503.94,451.518L504.059,451.272L504.46,451.369L504.596,451.728L505.181,451.838L505.029,452.012L504.638,451.634L504.702,451.368L504.755,451.88L505.182,452.132L505.62,453.78L505.696,453.375L505.516,453.239L505.589,453.815L505.681,453.285L505.733,453.621L505.769,453.347L506.538,454.065L506.858,455.152L506.978,454.657L507.404,455.333L507.538,454.744L507.636,455.359L507.628,454.793L507.656,455.895L509.266,457.473L509.138,457.863L509.181,457.318L509.011,457.87L508.883,457.588L509.004,457.933L509.065,457.443L508.305,457.139" style="fill:none;fill-rule:nonzero;stroke:black;stroke-width:4px;"/>
        </g>
        <g>
            <path d="M425.119,366.51L425.062,367.148L425.204,366.914L428.976,373.882L434.558,382.811L437.553,389.275L438.306,391.978L437.992,391.727" style="fill:none;fill-rule:nonzero;stroke:black;stroke-width:4px;"/>
        </g>
        <g>
            <path d="M426.239,365.451L428.885,368.559L430.444,369.76L433.32,372.802L433.96,373.847L436.319,375.692L438.26,378.094L442.389,381.209L442.772,381.119L442.918,381.384L443.003,381.168L444.413,382.389L446.342,383.148L446.267,382.956L446.921,383.054L446.874,383.303L447.43,383.473L447.038,383.37" style="fill:none;fill-rule:nonzero;stroke:black;stroke-width:4px;"/>
        </g>
        <g>
            <path d="M392.302,494.659L395.617,494.979L399.801,494.634L400.466,494.327L402.726,494.638" style="fill:none;fill-rule:nonzero;stroke:black;stroke-width:4px;"/>
        </g>
        <g>
            <path d="M366.922,495.118L368.359,495.2L368.889,494.828L370.276,495.104L370.868,494.673L371.916,495.033L376.769,495.007L377.187,495.131" style="fill:none;fill-rule:nonzero;stroke:black;stroke-width:4px;"/>
        </g>
        <g>
            <path d="M316.696,494.837L321.321,495.174L322.166,494.958L322.618,495.243L323.763,494.937L324.344,495.324L324.901,494.961L327.551,494.706" style="fill:none;fill-rule:nonzero;stroke:black;stroke-width:4px;"/>
        </g>
        <g>
            <path d="M341.884,495.078L342.136,494.896L345.492,495.178L345.932,495.531L346.618,495.253L347.867,495.17L348.338,495.42L352.017,494.998L353.789,495.18" style="fill:none;fill-rule:nonzero;stroke:black;stroke-width:4px;"/>
        </g>
        <g>
            <path d="M416.304,495.266L416.978,495.105L417.824,495.385L418.137,494.926L418.492,495.228L418.671,494.919L418.914,495.266L419.135,495.081L422.033,495.628L427.322,495.645L428.488,495.49" style="fill:none;fill-rule:nonzero;stroke:black;stroke-width:4px;"/>
        </g>
        <g>
            <path d="M469.005,495.454L470.61,495.413L471.029,495.617L473.409,495.303L473.751,495.515L475.826,495.242L476.015,494.976L476.034,495.191L476.176,494.888L477.054,495.293L477.348,495.022L477.984,495.304L483.599,495.541L483.806,495.888L484.125,495.539L484.409,495.874L484.448,495.197L484.273,495.593L484.298,495.258L483.299,495.829" style="fill:none;fill-rule:nonzero;stroke:black;stroke-width:4px;"/>
        </g>
        <g>
            <path d="M442.426,495.506L444.648,495.822L445.265,495.497L447.507,495.936L450.321,495.73L450.429,496.046L450.98,495.553L451.416,495.58L451.465,495.868L452.208,495.587L455.482,495.606" style="fill:none;fill-rule:nonzero;stroke:black;stroke-width:4px;"/>
        </g>
        <g>
            <path d="M61.677,470.365C61.677,470.365 61.346,473.461 61.336,475.015C61.313,478.578 61.401,482.142 61.393,485.705C61.38,491.055 61.322,496.405 61.431,501.754C61.548,507.49 62.828,513.445 61.911,519.029C61.813,519.628 64.761,518.564 65.234,518.418C65.438,518.355 65.96,518.804 66.238,518.818C66.668,518.84 69.03,517.804 69.696,517.97C69.879,518.015 69.645,518.367 69.734,518.533C69.883,518.809 69.319,517.69 69.319,517.69" style="fill:none;fill-rule:nonzero;stroke:black;stroke-width:4px;"/>
        </g>
        <g>
            <path d="M62.617,469.855C62.489,469.966 62.336,470.098 62.317,470.267C62.302,470.395 62.473,469.985 62.6,470.004C62.766,470.029 62.787,470.341 62.953,470.362C63.315,470.409 63.672,470.146 64.034,470.189C64.287,470.219 64.443,470.563 64.698,470.568C64.965,470.573 65.152,470.244 65.418,470.216C65.722,470.184 66.011,470.406 66.317,470.399C66.951,470.384 67.591,470.317 68.203,470.152C68.302,470.125 68.201,469.864 68.303,469.862C68.528,469.857 68.695,470.144 68.92,470.136C69.036,470.132 69.005,469.758 69.093,469.834C69.265,469.982 69.096,470.417 69.315,470.476C69.509,470.528 69.476,469.962 69.675,469.991C69.871,470.019 69.926,470.369 69.858,470.555C69.801,470.712 69.677,470.269 69.632,470.109" style="fill:none;fill-rule:nonzero;stroke:black;stroke-width:4px;"/>
        </g>
        <g>
            <path d="M62.104,493.344C62.166,493.273 62.271,493.154 62.21,493.082C62.152,493.013 62.045,493.238 62.083,493.319C62.154,493.47 62.307,493.602 62.47,493.636C62.564,493.656 62.259,493.413 62.347,493.374C62.589,493.267 62.894,493.435 63.141,493.339C63.511,493.195 63.745,492.766 64.132,492.677C64.73,492.54 65.364,492.763 65.973,492.688C66.109,492.671 66.142,492.418 66.279,492.412C66.606,492.397 66.91,492.638 67.238,492.63C67.385,492.627 67.456,492.39 67.603,492.381C67.701,492.375 67.708,492.606 67.805,492.594C67.896,492.583 67.821,492.349 67.912,492.342C68.13,492.324 68.32,492.526 68.538,492.535C68.693,492.542 68.951,492.54 68.979,492.387C69.014,492.197 68.803,492.028 68.652,491.907" style="fill:none;fill-rule:nonzero;stroke:black;stroke-width:4px;"/>
        </g>
        <g>
            <path d="M77.577,469.976C78.16,472.003 78.744,474.033 79.223,476.087C79.708,478.165 80.13,480.26 80.469,482.367C81.769,490.453 83.71,498.559 85.178,506.624C85.676,509.362 86.759,512.764 87.458,515.457C87.671,516.276 88.876,518.273 88.111,517.911C87.619,517.678 87.685,516.866 87.729,516.324" style="fill:none;fill-rule:nonzero;stroke:black;stroke-width:4px;"/>
        </g>
        <g>
            <path d="M88.744,469.065C88.744,469.065 88.267,470.693 88.06,471.516C87.444,473.96 87.105,476.469 86.494,478.914C84.318,487.618 82.345,495.708 80.718,504.626C79.984,508.648 79.144,512.652 78.202,516.63C78.092,517.094 77.698,517.454 77.57,517.914C77.446,518.357 77.391,519.735 77.352,519.277C77.328,518.995 77.411,518.71 77.491,518.438" style="fill:none;fill-rule:nonzero;stroke:black;stroke-width:4px;"/>
        </g>
        <g>
            <path d="M95.51,469.993C95.553,474.066 95.596,478.142 95.465,482.214C95.17,491.407 95.159,491.297 95.155,500.401C95.153,505.848 95.025,511.294 94.898,516.74" style="fill:none;fill-rule:nonzero;stroke:black;stroke-width:4px;"/>
        </g>
        <g>
            <path d="M96.131,469.756C96.163,469.544 96.203,469.279 96.385,469.165C96.498,469.094 96.44,469.429 96.439,469.563C96.438,469.666 96.288,469.296 96.384,469.259C96.633,469.163 96.928,469.348 97.185,469.275C97.457,469.198 97.624,468.804 97.905,468.829C98.121,468.848 98.069,469.276 98.264,469.37C98.491,469.48 98.779,469.438 99.022,469.37C99.095,469.35 98.998,469.107 99.063,469.146C99.426,469.367 99.644,469.794 100.025,469.981C100.679,470.303 100.869,469.794 101.297,470.336C102.767,472.198 102.688,475.672 102.742,477.526C102.885,482.417 104.105,487.579 102.506,492.204C102.464,492.324 102.496,491.739 102.411,491.834C102.067,492.221 101.946,492.766 101.638,493.182C101.567,493.278 101.798,492.826 101.678,492.825C101.421,492.823 101.164,492.985 100.993,493.176C100.507,493.719 100.692,493.87 99.997,494.157C99.746,494.261 99.701,494.702 99.433,494.746C99.242,494.777 99.24,494.299 99.047,494.312C98.826,494.327 98.822,494.808 98.601,494.803C98.168,494.793 97.836,494.367 97.413,494.274C96.772,494.133 96.923,494.437 96.797,494.843C96.762,494.954 96.736,494.617 96.727,494.501" style="fill:none;fill-rule:nonzero;stroke:black;stroke-width:4px;"/>
        </g>
        <g>
            <path d="M108.403,469.066C108.689,475.001 108.974,480.939 109.035,486.881C109.131,496.281 108.359,496.166 108.066,505.605C107.951,509.298 108.033,512.995 108.115,516.688" style="fill:none;fill-rule:nonzero;stroke:black;stroke-width:4px;"/>
        </g>
        <g>
            <path d="M109.596,470.199C109.559,470.004 109.52,469.802 109.548,469.606C109.584,469.358 110.018,469.852 110.267,469.825C110.622,469.786 110.877,469.388 111.233,469.364C111.935,469.318 114.02,470.146 114.495,470.68C117.093,473.606 116.39,481.357 116.344,484.556C116.282,488.859 115.926,490.848 113.277,494.172C112.768,494.811 111.031,494.92 110.751,495.091C110.645,495.156 110.815,494.62 110.863,494.735C111.282,495.734 111.457,496.826 111.893,497.818C112.49,499.177 112.496,499.109 112.927,500.485C113.421,502.06 114.675,503.332 115.138,504.916C115.707,506.864 115.708,508.945 116.233,510.906C116.917,513.46 117.952,515.907 118.757,518.425C118.824,518.636 119.066,519.103 118.846,519.083C118.546,519.056 118.388,518.661 118.276,518.381" style="fill:none;fill-rule:nonzero;stroke:black;stroke-width:4px;"/>
        </g>
        <g>
            <path d="M123.996,470.194C124.232,471.434 124.47,472.682 124.52,473.943C124.555,474.817 124.244,475.679 124.247,476.554C124.264,481.061 124.673,485.565 124.584,490.071C124.399,499.488 124.251,509.175 123.746,518.612C123.737,518.786 123.834,518.259 123.952,518.13C124.337,517.708 125.073,518.344 125.634,518.449C126.671,518.643 128.792,518.236 128.792,518.236" style="fill:none;fill-rule:nonzero;stroke:black;stroke-width:4px;"/>
        </g>
        <g>
            <path d="M124.512,470.292C124.569,470.13 124.69,469.788 124.83,469.887C125.014,470.017 124.671,470.502 124.889,470.56C125.582,470.746 125.387,470.103 126.084,469.969C126.534,469.882 127.006,469.874 127.458,469.95C127.544,469.964 127.416,470.207 127.503,470.207C128.298,470.206 128.286,470.158 129.066,470.261C129.15,470.272 129.122,470.008 129.198,470.045C129.4,470.145 129.422,470.559 129.647,470.549C130.048,470.531 130.321,470.087 130.707,469.977C130.819,469.945 130.888,470.168 131.005,470.161C131.072,470.157 130.985,469.902 131.02,469.959C131.113,470.11 131.018,470.428 131.192,470.464C131.388,470.505 131.553,470.259 131.665,470.092" style="fill:none;fill-rule:nonzero;stroke:black;stroke-width:4px;"/>
        </g>
        <g>
            <path d="M125.753,493.635C125.631,493.638 125.455,493.643 125.407,493.755C125.35,493.89 125.377,494.201 125.522,494.179C125.701,494.152 125.607,493.765 125.775,493.7C126.632,493.368 126.652,493.72 127.562,493.679C127.679,493.674 127.694,493.448 127.81,493.429C128.204,493.365 128.613,493.514 129.006,493.445C129.091,493.43 129.016,493.182 129.099,493.204C129.238,493.241 129.226,493.522 129.369,493.542C129.49,493.559 129.503,493.282 129.625,493.279C130.465,493.259 130.322,493.776 131.169,493.845C131.381,493.862 131.538,493.535 131.747,493.575C131.87,493.599 131.743,494.071 131.711,493.95C131.622,493.616 131.597,493.268 131.573,492.923" style="fill:none;fill-rule:nonzero;stroke:black;stroke-width:4px;"/>
        </g>
        <g>
            <path d="M146.234,471.58C146.234,471.58 145.588,470.076 144.894,469.925C143.975,469.725 142.409,470.262 141.993,471.16C140.272,474.876 140.951,483.58 141.239,486.716C141.598,490.63 145.593,492.408 146.54,495.979C147.936,501.244 147.481,507.552 146.609,512.865C146.327,514.586 143.761,518.694 142.802,518.82C141.718,518.962 139.853,518.234 139.125,517.298C138.608,516.633 138.059,515.007 138.059,515.007" style="fill:none;fill-rule:nonzero;stroke:black;stroke-width:4px;"/>
        </g>
        <g>
            <path d="M160.407,471.021C160.407,471.021 159.585,470.036 159.001,469.928C158.24,469.787 156.441,470.13 155.944,470.937C152.876,475.915 153.524,482.711 154.326,488.224C154.504,489.45 155.176,491.298 156.032,492.305C156.256,492.568 156.835,492.326 157.02,492.617C157.838,493.903 158.622,495.214 159.325,496.567C161.53,500.808 160.81,509.609 160.207,513.308C159.936,514.971 157.599,518.624 155.878,518.866C154.861,519.009 153.625,518.176 153.281,517.208C152.877,516.071 152.525,513.668 152.525,513.668" style="fill:none;fill-rule:nonzero;stroke:black;stroke-width:4px;"/>
        </g>
        <g>
            <path d="M169.577,469.668C169.382,470.365 169.184,471.075 169.158,471.798C169.095,473.582 169.335,475.365 169.313,477.15C169.277,480.102 168.923,483.049 168.984,486C169.07,490.201 169.859,496.487 169.833,501.288C169.813,505.03 169.491,508.768 169.516,512.51C169.527,514.152 169.873,515.777 169.939,517.417C169.952,517.739 169.928,518.638 169.753,518.367C169.455,517.907 169.479,517.289 169.501,516.741" style="fill:none;fill-rule:nonzero;stroke:black;stroke-width:4px;"/>
        </g>
        <g>
            <path d="M185.567,471.07C185.567,471.07 182.983,469.687 181.604,469.212C180.497,468.831 178.468,470.247 177.885,471.876C175.962,477.25 177.472,483.676 177.55,488.905C177.62,493.629 177.551,498.354 177.625,503.078C177.636,503.754 175.965,514.604 178.455,518.599C178.552,518.754 178.463,518.201 178.586,518.066C178.855,517.771 178.878,518.969 179.269,519.051C179.866,519.176 179.793,519.134 180.348,519.283C182.933,519.978 185.066,515.835 185.285,513.109C185.753,507.286 185.006,501.638 185.385,495.803C185.833,488.914 186.378,489.021 186.545,482.129C186.597,480.003 186.706,477.861 186.459,475.749C186.335,474.685 185.881,473.678 185.442,472.701" style="fill:none;fill-rule:nonzero;stroke:black;stroke-width:4px;"/>
        </g>
        <g>
            <path d="M193.14,470.049C193.14,470.049 192.71,474.519 192.791,476.757C192.873,479.01 193.253,481.246 193.313,483.5C193.467,489.266 193.495,495.035 193.623,500.801C193.748,506.405 194.088,512.03 193.638,517.617C193.604,518.038 193.498,516.783 193.462,516.362" style="fill:none;fill-rule:nonzero;stroke:black;stroke-width:4px;"/>
        </g>
        <g>
            <path d="M193.735,469.711C194.084,471.515 194.435,473.325 194.972,475.082C196.126,478.858 196.701,478.577 197.398,482.508C198.787,490.348 200.605,498.147 202.061,505.928C202.889,510.352 204.138,513.838 204.364,518.203C204.399,518.89 204.057,516.862 203.943,516.184" style="fill:none;fill-rule:nonzero;stroke:black;stroke-width:4px;"/>
        </g>
        <g>
            <path d="M203.616,469.977C203.755,469.917 204.06,469.787 204.068,469.938C204.102,470.558 203.746,471.148 203.714,471.768C203.575,474.491 203.542,477.219 203.557,479.945C203.594,486.688 203.414,493.709 203.54,500.507C203.62,504.792 203.993,509.067 204.161,513.35C204.177,513.749 204.305,514.208 204.091,514.545C203.964,514.745 203.858,514.121 203.819,513.887" style="fill:none;fill-rule:nonzero;stroke:black;stroke-width:4px;"/>
        </g>
        <g>
            <path d="M94.748,544.866C95.031,546.147 95.315,547.427 95.598,548.708" style="fill:none;fill-rule:nonzero;stroke:black;stroke-width:4px;"/>
        </g>
        <g>
            <path d="M99.699,543.569C99.584,543.613 99.424,543.674 99.331,543.594C99.266,543.537 99.477,543.312 99.499,543.396C99.988,545.217 100.374,547.066 100.76,548.912" style="fill:none;fill-rule:nonzero;stroke:black;stroke-width:4px;"/>
        </g>
        <g>
            <path d="M119.432,548.786C119.294,548.424 119.153,548.052 118.917,547.745C118.868,547.681 118.854,548.006 118.792,547.953C117.901,547.192 118.283,546.723 117.067,546.474C116.913,546.442 116.89,546.792 116.733,546.808C113.701,547.122 113.595,546.56 110.884,548.065C110.806,548.108 110.809,547.754 110.761,547.829C106.366,554.65 106.915,563.328 107.677,571.13C108.083,575.289 108.759,577.824 113.15,578.971C115.323,579.538 117.071,577.597 118.396,576.369C118.473,576.298 118.646,576.561 118.695,576.468C118.984,575.915 119.132,575.295 119.276,574.688" style="fill:none;fill-rule:nonzero;stroke:black;stroke-width:4px;"/>
        </g>
        <g>
            <path d="M139.087,549.519C138.654,548.95 138.217,548.375 137.69,547.892C137.222,547.463 136.696,547.083 136.126,546.803C134.099,545.808 130.876,545.703 129.595,547.424C125.696,552.664 126.569,561.587 126.211,566.877C126.088,568.692 126.036,570.519 126.154,572.335C126.199,573.026 126.649,576.491 127.911,576.926C127.99,576.953 127.958,576.658 128.028,576.704C128.292,576.877 128.405,577.481 128.7,577.37C128.789,577.336 128.712,577.064 128.799,577.102C128.993,577.186 128.995,577.603 129.206,577.588C131.092,577.454 131.617,576.467 133.001,575.405C133.085,575.341 133.139,575.726 133.208,575.646C133.872,574.871 133.321,574.323 134.332,574.154C135.166,574.014 135.996,572.239 135.996,572.239" style="fill:none;fill-rule:nonzero;stroke:black;stroke-width:4px;"/>
        </g>
        <g>
            <path d="M139.073,549.778C138.859,550.732 138.642,551.7 138.634,552.677C138.617,554.712 139.058,556.738 139,558.772C138.94,560.856 137.164,570.28 138.405,575.136C138.677,576.199 138.927,576.837 139.614,577.324C140.271,577.79 140.869,576.836 140.906,576.833C141.06,576.822 141.104,577.178 141.254,577.139C141.543,577.064 142.057,576.741 142.057,576.741" style="fill:none;fill-rule:nonzero;stroke:black;stroke-width:4px;"/>
        </g>
        <g>
            <path d="M149.323,540.265C149.323,540.265 149.672,546.225 149.567,549.204C149.22,559.032 148.239,565.782 148.912,575.296C149.002,576.574 149.931,577.903 150.91,578.123C151.87,578.339 153.784,577.019 154.429,576.492C154.824,576.17 155.093,575.712 155.351,575.273" style="fill:none;fill-rule:nonzero;stroke:black;stroke-width:4px;"/>
        </g>
        <g>
            <path d="M145.644,547.158C145.27,547.066 144.865,546.967 144.58,546.707C144.484,546.62 144.671,546.357 144.797,546.385C145.114,546.454 145.285,546.872 145.604,546.93C145.922,546.987 146.226,546.663 146.547,546.7C146.941,546.746 147.247,547.121 147.641,547.167C147.836,547.19 147.963,546.894 148.159,546.888C148.535,546.876 148.888,547.134 149.264,547.117C149.409,547.111 149.442,546.823 149.587,546.825C150.235,546.833 150.217,546.792 150.881,546.777C151.319,546.767 151.718,547.119 152.155,547.094C152.32,547.085 152.29,546.755 152.441,546.689C152.948,546.467 152.97,546.929 153.491,546.747C153.897,546.605 153.808,546.269 154.218,546.421C154.35,546.47 154.351,546.753 154.492,546.744C154.644,546.734 154.629,546.431 154.774,546.384C154.857,546.357 154.818,546.558 154.801,546.643" style="fill:none;fill-rule:nonzero;stroke:black;stroke-width:4px;"/>
        </g>
        <g>
            <path d="M164.365,540.457C163.85,541.901 163.334,543.345 162.819,544.789" style="fill:none;fill-rule:nonzero;stroke:black;stroke-width:4px;"/>
        </g>
        <g>
            <path d="M170.378,540.143C169.686,542.226 168.995,544.31 168.303,546.393" style="fill:none;fill-rule:nonzero;stroke:black;stroke-width:4px;"/>
        </g>
        <g>
            <path d="M214.388,450.646L213.818,450.681L214.205,450.44L214.184,451.142L214.298,450.652L214.428,451.169L214.465,450.495L214.857,450.5L216.244,448.339L217.514,447.335L219.901,444.4L220.125,443.692L220.582,443.615L220.929,442.795L221.539,442.671L222.427,441.261L223.859,440.534L226.529,437.617L226.821,437.807L227.342,437.033L227.655,437.288L227.758,436.848L229.457,435.242L229.84,435.421L232,432.907L234.44,430.995L236.098,429.004L236.904,428.67L237.584,427.645L238.19,427.456L240.32,423.93L242.689,421.93L242.806,421.276L242.964,421.467L243.368,421.232L243.58,420.527L243.896,420.731L244.247,419.944L244.668,420.052L244.894,419.106L244.991,419.405L245.357,419.366L245.677,418.71L246.123,418.746L246.393,418.2L249.347,416.017L250.755,414.353L251.031,414.733L251.45,413.745L251.633,413.941L254.479,410.335L259.301,406.621L260.925,404.521L262.551,403.636L263.729,402.414L264.449,402.107L265.462,400.746L265.85,400.768L266.909,398.683L271.975,393.777L272.784,392.421L273.163,392.393L273.45,391.504L273.833,391.806L274.039,390.896L274.382,391.259L275.613,390.38L284.391,381.925L284.657,382.342L286.768,378.664L288.684,377.41L290.873,374.83L291.143,374.975L291.535,373.983L291.673,374.385L291.831,373.85L291.866,374.222L292.167,373.317L293.329,371.782L295.526,369.983L295.864,369.33L295.968,369.555L296.125,369.12L296.247,369.348L296.322,368.883L296.577,369.177L296.885,368.638L296.661,369.079L296.586,368.791L296.494,369.897L296.463,369.376L296.378,369.651L296.264,369.125L296,369.225" style="fill:none;fill-rule:nonzero;stroke:black;stroke-width:4px;"/>
        </g>
        <g>
            <path d="M224.528,431.393L224.241,431.08L224.58,431.395L224.333,432.088L224.518,432.553L224.546,432.114L224.403,432.428L224.338,432.175L224.417,432.633L224.267,432.304L224.018,433.101L223.52,433.536L222.915,435.438L219.926,440.029L219.638,439.785L219.061,441.298L218.868,440.94L218.82,441.772L218.082,443.342L217.498,443.784L217.457,444.361L217.074,444.483L216.585,445.354L216.58,446.003L216.359,445.867L216.03,446.511L215.631,446.53L214.368,449.015L213.647,449.344L211.715,452.79L211.748,452.234L212.048,452.742L212.243,452.379L212.304,452.737L212.184,452.288L212.309,453.1L212.23,452.215L212.429,452.482L214.147,451.169L215.621,449.608L215.766,449.829L215.972,449.253L216.129,449.518L216.779,448.468L217.618,448.343L218.58,447.622L218.811,447.775L218.901,447L219.145,447.466L219.413,446.736L219.713,447.258L219.727,446.704L220.26,446.924L220.502,446.288L220.605,446.642L221.151,446.633L221.609,446.029L222.244,445.969L222.458,445.635L222.529,445.881L222.921,445.273L223.097,445.582L223.584,444.58L224.571,443.662L226.525,443.302L226.676,442.966L226.72,443.211L226.92,442.878L227.189,443.022L227.445,442.543L227.991,443.197L228.305,442.357L228.448,442.583L229.008,441.919L229.347,442.256L230.452,441.126L232.914,439.881L233.229,439.106L233.428,439.792L234.132,438.965L234.241,439.272L234.129,439.037L233.977,439.393L233.917,438.896L233.884,439.835L233.676,440.185L233.558,439.773L233.251,440.096" style="fill:none;fill-rule:nonzero;stroke:black;stroke-width:4px;"/>
        </g>
        <g>
            <path d="M289.286,496.271L291.604,495.898L291.979,496.149L293.811,495.861L294.164,496.163L295.073,495.792L296.448,495.895L299.61,495.198L302.856,495.326" style="fill:none;fill-rule:nonzero;stroke:black;stroke-width:4px;"/>
        </g>
        <g>
            <path d="M241.507,495.861L242.188,495.879L242.299,495.526L241.988,495.929L242.344,495.921L242.349,496.194L242.261,495.936L242.811,496.04L242.963,496.35L245.879,495.984L253.245,496.903L258.991,496.586L259.896,496.939L271.506,497.255L275.799,497.044" style="fill:none;fill-rule:nonzero;stroke:black;stroke-width:4px;"/>
        </g>
        <g>
            <path d="M240.526,496.166L239.754,496.785L240.028,496.469L240.107,496.699L242.287,495.931L246.735,495.713L250.002,494.777L250.13,494.973L250.267,494.657L251.727,494.151L255.457,493.711L258.145,492.45L260.377,491.873L260.554,492.06L261.082,491.635L260.223,492.169" style="fill:none;fill-rule:nonzero;stroke:black;stroke-width:4px;"/>
        </g>
        <g>
            <path d="M239.594,497.658L243.974,498.389L246.843,498.324L249.43,499.228L254.744,499.733L256.268,500.364L256.53,500.18L259.068,500.744L261.896,502.16L261.289,502.126" style="fill:none;fill-rule:nonzero;stroke:black;stroke-width:4px;"/>
        </g>
        <g>
            <path d="M336.046,238.892C335.844,238.848 335.316,238.735 335.425,238.911C335.971,239.799 336.716,240.563 337.498,241.252C338.761,242.365 341.454,243.681 343.034,243.82C345.048,243.998 349.766,243.239 351.841,242.499C353.246,241.997 354.51,241.158 355.89,240.59C356.002,240.544 356.13,240.742 356.239,240.69C356.766,240.439 357.237,240.08 357.702,239.727" style="fill:none;fill-rule:nonzero;stroke:black;stroke-width:4px;"/>
        </g>
        <g>
            <path d="M334.121,238.334C333.806,239.168 333.486,240.013 333.343,240.893C332.861,243.848 332.702,246.848 332.251,249.808C332.053,251.109 331.439,252.347 331.399,253.662C331.261,258.146 332.283,264.721 337.204,266.619C340.257,267.797 341.569,266.947 344.398,266.255C346.767,265.676 346.876,266.088 349.035,264.875C353.525,262.353 356.457,256.36 357.886,251.711C358.603,249.376 359.149,246.983 359.537,244.572C359.706,243.525 359.626,242.449 359.548,241.392" style="fill:none;fill-rule:nonzero;stroke:black;stroke-width:4px;"/>
        </g>
        <g>
            <path d="M333.945,236.884C333.885,237.449 333.824,238.019 333.679,238.568C333.634,238.739 333.571,238.202 333.64,238.04C333.909,237.406 334.325,236.844 334.664,236.244C334.7,236.18 334.49,236.387 334.548,236.433C334.688,236.546 334.975,236.418 335.069,236.571C335.392,237.099 335.412,237.77 335.702,238.317C335.933,238.752 336.373,239.911 336.612,239.481C336.887,238.987 335.497,237.555 335.914,237.936C336.377,238.359 336.578,239.017 336.761,239.617" style="fill:none;fill-rule:nonzero;stroke:black;stroke-width:2px;"/>
        </g>
        <g>
            <path d="M357.663,240.085C357.53,240.099 357.185,240.135 357.266,240.029C357.766,239.372 358.392,238.814 359.029,238.289C359.132,238.204 358.825,238.771 358.913,238.671C359.112,238.444 359.349,237.591 359.377,237.892C359.467,238.853 358.673,239.914 359.11,240.774C359.459,241.461 359.094,239.008 359.706,238.539C360.185,238.172 359.355,239.831 359.666,240.348C360.491,241.717 360.183,238.529 360.177,238.86C360.165,239.485 359.581,240.743 360.206,240.736C360.842,240.729 360.229,239.417 360.528,238.856C360.743,238.453 360.545,239.773 360.478,240.225" style="fill:none;fill-rule:nonzero;stroke:black;stroke-width:2px;"/>
        </g>
        <g>
            <path d="M342.697,269.278C342.658,269.313 342.619,269.348 342.58,269.383" style="fill:none;fill-rule:nonzero;stroke:black;stroke-width:2px;"/>
        </g>
        <g>
            <path d="M342.141,268.318C341.772,271.362 341.402,274.413 340.79,277.418C339.429,284.104 337.499,290.962 335.081,297.364C334.72,298.319 334.327,299.3 333.675,300.086C333.355,300.471 333.86,299.096 334.033,298.626" style="fill:none;fill-rule:nonzero;stroke:black;stroke-width:4px;"/>
        </g>
        <g>
            <path d="M343.652,269.214C343.562,269.99 343.47,270.773 343.506,271.553C343.515,271.747 343.88,287.119 345.201,292.25C345.909,294.999 346.751,297.715 347.67,300.401C347.773,300.701 347.692,299.766 347.665,299.45" style="fill:none;fill-rule:nonzero;stroke:black;stroke-width:4px;"/>
        </g>
        <g>
            <path d="M344.012,268.601C343.924,268.647 343.766,268.729 343.717,268.642C343.672,268.561 343.861,268.449 343.947,268.485C344.081,268.541 344.053,268.82 344.196,268.842C344.909,268.95 345.644,268.764 346.36,268.852C346.6,268.882 346.81,269.042 347.002,269.188" style="fill:none;fill-rule:nonzero;stroke:black;stroke-width:4px;"/>
        </g>
        <g>
            <path d="M346.773,267.654C346.686,267.688 346.599,267.721 346.512,267.755" style="fill:none;fill-rule:nonzero;stroke:black;stroke-width:4px;"/>
        </g>
        <g>
            <path d="M346.383,268.939C346.993,269.415 347.614,269.9 348.317,270.222C349.626,270.822 353.719,271.52 355.044,271.587C360.927,271.886 366.874,271.449 372.745,271.527C376.644,271.579 376.853,270.697 380.199,272.692C384.978,275.541 385.456,282.431 386.068,287.228C386.314,289.157 386.225,291.128 386.588,293.038C386.848,294.406 387.408,295.703 387.924,296.996C387.949,297.058 387.789,296.847 387.789,296.847" style="fill:none;fill-rule:nonzero;stroke:black;stroke-width:4px;"/>
        </g>
        <g>
            <path d="M381.041,274.282C381.041,274.282 381.235,276.227 381.133,277.192C380.897,279.42 380.522,281.655 379.824,283.784C378.552,287.663 376.629,291.302 375.248,295.143C374.879,296.169 374.733,297.267 374.589,298.348" style="fill:none;fill-rule:nonzero;stroke:black;stroke-width:4px;"/>
        </g>
        <g>
            <path d="M379.626,271.464C379.626,271.464 380.231,271.563 380.525,271.646C381.112,271.812 381.588,272.287 382.184,272.42C383.214,272.65 384.294,272.892 385.335,272.719C388.757,272.151 391.109,270.9 393.524,268.528C396.521,265.584 397.237,261.704 397.297,257.639C397.349,254.131 396,248.389 398.047,244.754C399.244,242.629 402.188,241.272 404.578,241.47C404.878,241.495 404.991,241.938 405.271,242.051C405.624,242.194 406.022,242.2 406.403,242.207" style="fill:none;fill-rule:nonzero;stroke:black;stroke-width:4px;"/>
        </g>
        <g>
            <path d="M358.303,238.799C358.498,238.794 358.718,238.788 358.873,238.671C359.533,238.173 359.899,236.779 360.698,236.992C361.376,237.173 360.413,238.374 360.388,239.076C360.358,239.932 360.152,242.408 360.533,241.641C361.187,240.323 361.06,238.745 361.275,237.29C361.379,236.584 360.931,238.68 360.866,239.391C360.736,240.816 360.831,242.256 360.691,243.68C360.653,244.066 360.491,244.432 360.334,244.786" style="fill:none;fill-rule:nonzero;stroke:black;stroke-width:2px;"/>
        </g>
        <g>
            <path d="M360.58,237.108C360.576,236.977 360.572,236.822 360.658,236.724C360.755,236.613 360.94,236.477 361.067,236.552C361.18,236.619 360.928,236.868 361.034,236.946C361.125,237.013 361.264,236.559 361.214,236.66C361.065,236.957 360.901,237.247 360.738,237.537" style="fill:none;fill-rule:nonzero;stroke:black;stroke-width:2px;"/>
        </g>
        <g>
            <path d="M333.793,238.124C334.088,237.434 334.509,236.451 334.017,235.885C333.765,235.595 333.811,236.585 333.643,236.244C333.337,235.623 333.201,238.772 333.5,238.442C334.066,237.818 333.689,236.164 334.531,236.136C335.331,236.11 335.368,237.58 335.388,238.38" style="fill:none;fill-rule:nonzero;stroke:black;stroke-width:2px;"/>
        </g>
        <g>
            <path d="M336.463,238.682C336.576,238.606 336.734,238.499 336.855,238.562C337.241,238.762 337.552,239.087 337.853,239.401" style="fill:none;fill-rule:nonzero;stroke:black;stroke-width:2px;"/>
        </g>
        <g>
            <path d="M390.154,315.302C390.154,315.302 389.72,316.506 389.727,317.132C389.841,327.582 390.128,338.029 390.206,348.479C390.244,353.649 390.229,358.821 390.075,363.989C390.052,364.761 389.873,362.457 389.813,361.687" style="fill:none;fill-rule:nonzero;stroke:black;stroke-width:4px;"/>
        </g>
        <g>
            <path d="M391.476,314.962C392.095,314.858 392.728,314.751 393.352,314.811C393.661,314.841 393.877,315.213 394.188,315.224C394.804,315.246 395.418,314.733 396.009,314.908C398.852,315.749 399.152,319.184 399.12,321.567C399.034,327.933 400.88,334.775 398.441,340.656C397.806,342.186 396.903,343.557 395.057,342.792C394.757,342.668 394.631,342.241 394.317,342.159C394.086,342.099 393.891,342.43 393.653,342.424C393.143,342.412 392.666,342.122 392.156,342.107C391.982,342.102 391.828,342.246 391.701,342.366" style="fill:none;fill-rule:nonzero;stroke:black;stroke-width:4px;"/>
        </g>
        <g>
            <path d="M411.432,314.111C411.641,320.43 411.851,326.752 411.826,333.075C411.801,339.365 411.271,345.647 411.282,351.937C411.288,355.399 411.74,358.847 411.877,362.307C411.885,362.512 411.828,363.072 411.715,362.901C411.401,362.426 411.295,361.834 411.194,361.273" style="fill:none;fill-rule:nonzero;stroke:black;stroke-width:4px;"/>
        </g>
        <g>
            <path d="M405.961,314.84L406.253,314.912L406.021,315.253L406.099,314.88L405.984,315.162L406.327,314.892L407.297,315.213L408.573,314.893L409.686,315.172L412.657,314.418L413.902,314.787L414.87,314.648L414.935,314.396L415.68,314.823L417.072,314.331L418.023,314.598L417.979,314.229L418.03,314.515L418.037,314.272L417.71,314.477" style="fill:none;fill-rule:nonzero;stroke:black;stroke-width:4px;"/>
        </g>
        <g>
            <path d="M404.231,315.111C404.453,314.986 404.699,314.847 404.953,314.86C405.263,314.875 405.554,315.038 405.825,315.19" style="fill:none;fill-rule:nonzero;stroke:black;stroke-width:4px;"/>
        </g>
        <g>
            <path d="M317.627,317.057C317.591,317.23 317.484,317.744 317.548,317.58C317.999,316.428 316.705,315.082 315.815,314.914C314.988,314.757 313.02,316.063 312.753,316.938C309.585,327.339 309.64,339.183 309.467,350.034C309.418,353.104 308.574,358.5 310.016,361.197C310.951,362.946 313.106,364.651 315.157,363.371C316.036,362.822 317.476,360.566 317.607,360.434C317.83,360.209 317.738,359.493 317.738,359.493" style="fill:none;fill-rule:nonzero;stroke:black;stroke-width:4px;"/>
        </g>
        <g>
            <path d="M331.804,315.825C331.804,315.825 331.082,314.363 330.393,314.307C328.644,314.164 325.894,316.026 325.504,317.838C324.55,322.277 325.289,329.218 325.216,333.458C325.059,342.503 324.398,351.541 324.462,360.588C324.473,362.139 326.321,364.159 327.655,364.602C332.379,366.173 333.547,360.645 333.685,357.204C333.912,351.543 333.849,345.791 334.192,340.095C334.486,335.219 335.231,330.173 335.145,325.251C335.117,323.622 334.949,321.994 334.726,320.38C334.453,318.406 333.91,318.694 333.078,316.949C332.988,316.76 333.217,316.538 333.367,316.392" style="fill:none;fill-rule:nonzero;stroke:black;stroke-width:4px;"/>
        </g>
        <g>
            <path d="M342.202,315.169C341.927,315.067 341.65,314.963 341.362,314.908C341.24,314.885 341.688,314.948 341.697,315.072C341.86,317.414 341.908,319.766 341.862,322.114C341.841,323.199 341.53,324.264 341.495,325.348C341.278,332.055 340.729,339.682 340.685,346.309C340.653,351.138 340.819,355.967 341.001,360.792C341.026,361.464 341.314,363.458 341.305,362.786C341.291,361.71 341.138,360.638 340.985,359.573" style="fill:none;fill-rule:nonzero;stroke:black;stroke-width:4px;"/>
        </g>
        <g>
            <path d="M343.394,315.394C344.048,318.622 344.704,321.862 345.011,325.141C346.213,337.965 345.878,337.915 347.744,350.676C348.31,354.55 348.727,358.02 349.738,361.856C349.888,362.427 349.647,360.678 349.566,360.093" style="fill:none;fill-rule:nonzero;stroke:black;stroke-width:4px;"/>
        </g>
        <g>
            <path d="M352.91,315.196C352.596,318.757 352.282,322.321 352.145,325.893C351.79,335.17 351.192,344.44 351.041,353.723C350.986,357.102 352.542,360.644 351.48,363.852C351.266,364.499 351.291,362.497 351.3,361.815" style="fill:none;fill-rule:nonzero;stroke:black;stroke-width:4px;"/>
        </g>
        <g>
            <path d="M366.011,315.132C366.011,315.132 364.738,314.34 364.083,314.506C362.005,315.032 361.418,315.151 360.62,317.321C358.778,322.329 359.296,327.924 359.098,333.257C358.821,340.739 358.72,348.228 358.684,355.716C358.673,357.992 357.933,360.786 359.427,362.503C360.26,363.461 362.365,363.791 363.316,362.929C363.964,362.341 364.837,360.789 364.837,360.789" style="fill:none;fill-rule:nonzero;stroke:black;stroke-width:4px;"/>
        </g>
        <g>
            <path d="M374.357,315.014C374.357,315.014 374.246,327.744 374.219,334.109C374.192,340.686 374.394,347.262 374.386,353.839C374.379,359.022 373.845,358.888 373.889,364.059C373.891,364.272 373.795,364.656 374.006,364.687C374.205,364.716 373.981,364.266 374.072,364.086C374.271,363.691 374.955,364.022 375.393,363.965C377.069,363.746 380.45,363.607 380.45,363.607" style="fill:none;fill-rule:nonzero;stroke:black;stroke-width:4px;"/>
        </g>
        <g>
            <path d="M375.232,338.217C375.054,338.323 374.844,338.448 374.784,338.646C374.741,338.788 374.83,339.034 374.978,339.048C375.113,339.061 375.017,338.677 375.152,338.681C375.575,338.693 375.931,339.066 376.353,339.088C376.996,339.121 376.783,338.541 377.421,338.511C377.726,338.497 377.999,338.765 378.304,338.75C378.498,338.74 378.604,338.426 378.798,338.441C378.963,338.454 378.962,338.836 379.126,338.814C379.37,338.781 379.453,338.426 379.676,338.323C379.751,338.289 379.649,338.651 379.658,338.569C379.67,338.464 379.677,338.359 379.684,338.254" style="fill:none;fill-rule:nonzero;stroke:black;stroke-width:4px;"/>
        </g>
        <g>
            <path d="M374.382,315.857C374.355,315.951 374.291,316.171 374.386,316.15C375.245,315.959 376.006,315.32 376.886,315.299C378.781,315.253 378.823,316.092 380.588,315.409C380.735,315.352 380.429,315.683 380.322,315.799" style="fill:none;fill-rule:nonzero;stroke:black;stroke-width:4px;"/>
        </g>
        <g>
            <path d="M593.291,536.048C593.207,537.887 593.123,539.732 593.231,541.57C593.599,547.833 593.69,547.789 593.56,554.034C593.548,554.601 593.865,555.132 593.913,555.697C593.948,556.109 593.876,556.526 593.805,556.933" style="fill:none;fill-rule:nonzero;stroke:black;stroke-width:4px;"/>
        </g>
        <g>
            <path d="M594.379,534.058C594.379,534.058 597.073,536.165 598.347,537.304C599.447,538.287 600.299,539.541 601.463,540.448C603.95,542.387 608.199,544.255 611.161,544.696C611.771,544.787 612.349,544.291 612.965,544.293C614.396,544.298 615.841,544.841 617.252,544.745C622.37,544.396 627.337,540.498 630.92,537.483C632.559,536.104 632.444,536.127 634.02,534.739C634.524,534.294 635.623,533.513 635.623,533.513" style="fill:none;fill-rule:nonzero;stroke:black;stroke-width:4px;"/>
        </g>
        <g>
            <path d="M634.798,533.822C634.613,534.134 634.418,534.463 634.367,534.822C634.23,535.776 634.157,536.751 634.239,537.711C634.742,543.596 634.561,543.574 634.828,549.456C634.903,551.115 635.142,552.772 635.524,554.388C635.678,555.036 636.055,555.617 636.418,556.175" style="fill:none;fill-rule:nonzero;stroke:black;stroke-width:4px;"/>
        </g>
        <g>
            <path d="M594.048,559.277C593.907,559.232 593.702,559.165 593.605,559.277C593.529,559.365 593.679,559.587 593.794,559.571C593.9,559.557 593.837,559.352 593.805,559.25" style="fill:none;fill-rule:nonzero;stroke:black;stroke-width:4px;"/>
        </g>
        <g>
            <path d="M593.663,556.936C593.627,560.501 593.592,564.069 593.735,567.632C593.859,570.718 594.574,573.793 594.795,576.858C595.001,579.712 595.036,582.577 595.071,585.438" style="fill:none;fill-rule:nonzero;stroke:black;stroke-width:4px;"/>
        </g>
        <g>
            <path d="M604.745,552.585C604.913,552.442 605.099,552.284 605.318,552.25C605.414,552.235 605.254,552.438 605.194,552.515" style="fill:none;fill-rule:nonzero;stroke:black;stroke-width:4px;"/>
        </g>
        <g>
            <path d="M623.066,552.051C623.039,552.041 623.012,552.032 622.986,552.022" style="fill:none;fill-rule:nonzero;stroke:black;stroke-width:4px;"/>
        </g>
        <g>
            <path d="M612.812,555.976C612.593,556.085 612.305,556.227 612.091,556.11C611.944,556.03 612.017,555.723 612.141,555.611C612.225,555.536 612.229,555.872 612.342,555.884C612.652,555.917 612.954,555.712 613.265,555.729C613.343,555.733 613.296,555.972 613.367,555.94C613.586,555.84 613.651,555.44 613.891,555.444C614.411,555.452 614.052,556.161 614.558,556.058C614.769,556.015 614.912,555.785 615.123,555.746C615.201,555.731 615.211,555.96 615.281,555.923C615.353,555.885 615.181,555.633 615.247,555.681C615.61,555.942 615.507,556.193 615.944,556.116C616.076,556.093 616.242,556.078 616.317,555.967C616.378,555.877 616.153,555.643 616.262,555.645C616.662,555.653 616.616,556.144 616.927,555.89C617.012,555.821 616.941,555.461 616.969,555.566C617.002,555.691 616.847,555.867 616.944,555.952C617.04,556.037 617.21,555.939 617.321,555.875" style="fill:none;fill-rule:nonzero;stroke:black;stroke-width:2px;"/>
        </g>
        <g>
            <path d="M612.465,555.886C613.039,555.924 613.666,555.965 614.143,556.286C614.656,556.631 614.97,557.22 615.26,557.765" style="fill:none;fill-rule:nonzero;stroke:black;stroke-width:2px;"/>
        </g>
        <g>
            <path d="M616.536,556.036C616.501,555.943 616.413,555.71 616.362,555.795C615.891,556.565 615.539,557.404 615.19,558.237" style="fill:none;fill-rule:nonzero;stroke:black;stroke-width:2px;"/>
        </g>
        <g>
            <path d="M614.862,556.756C614.918,557.264 614.975,557.779 614.93,558.289C614.92,558.407 614.641,558.663 614.706,558.564C614.798,558.423 614.906,558.292 615.014,558.162" style="fill:none;fill-rule:nonzero;stroke:black;stroke-width:2px;"/>
        </g>
        <g>
            <path d="M614.911,558.271C614.955,558.718 615,559.164 615.044,559.611" style="fill:none;fill-rule:nonzero;stroke:black;stroke-width:2px;"/>
        </g>
        <g>
            <path d="M617.392,555.256C617.702,555.478 618.045,555.724 618.425,555.748C618.567,555.757 618.566,555.397 618.445,555.322C618.339,555.257 618.282,555.522 618.255,555.643" style="fill:none;fill-rule:nonzero;stroke:black;stroke-width:2px;"/>
        </g>
        <g>
            <path d="M634.927,534.43C634.851,535.911 634.775,537.394 634.588,538.865C634.568,539.026 634.432,539.156 634.314,539.268" style="fill:none;fill-rule:nonzero;stroke:black;stroke-width:2px;"/>
        </g>
        <g>
            <path d="M635.788,533.979C635.732,533.905 635.608,533.738 635.561,533.818C635.431,534.041 635.461,534.326 635.435,534.583C635.271,536.182 633.851,540.518 634.992,539.385C635.58,538.801 635.055,539.721 635.327,540.494C638.319,548.995 636.165,533.212 636.117,533.367C635.684,534.761 635.542,536.235 635.399,537.688C635.298,538.713 635.342,539.749 635.386,540.778" style="fill:none;fill-rule:nonzero;stroke:black;stroke-width:2px;"/>
        </g>
        <g>
            <path d="M635.613,553.523C635.493,554.205 635.373,554.886 635.253,555.568" style="fill:none;fill-rule:nonzero;stroke:black;stroke-width:2px;"/>
        </g>
        <g>
            <path d="M593.408,533.739C593.273,533.435 592.942,532.688 592.769,532.972C592.553,533.327 593.098,533.746 593.153,534.158C593.236,534.776 593.215,536.652 593.18,536.029C593.138,535.289 593.55,534.418 593.133,533.805C592.729,533.212 593.427,535.303 593.131,535.957C593.066,536.102 592.977,533.342 592.456,533.269C592.163,533.228 592.286,533.1 592.212,532.816C592.145,532.557 592.241,533.364 592.356,533.606C592.491,533.89 592.719,534.122 592.939,534.346" style="fill:none;fill-rule:nonzero;stroke:black;stroke-width:2px;"/>
        </g>
        <g>
            <path d="M634.79,552.411C634.994,554.21 635.198,556.011 635.506,557.795C636.293,562.357 636.569,566.84 638.335,571.202C640.06,575.461 644.724,577.516 647.707,580.501C652.896,585.694 657.731,590.668 660.301,597.775C661.725,601.714 662.226,606.736 661.258,610.833C660.899,612.351 659.056,614.962 659.056,614.962" style="fill:none;fill-rule:nonzero;stroke:black;stroke-width:4px;"/>
        </g>
        <g>
            <path d="M595,582C597.175,593.805 599.349,605.609 601.524,617.414" style="fill:none;fill-rule:nonzero;stroke:black;stroke-width:4px;"/>
        </g>
        <g>
            <path d="M634.166,587.482C633.142,593.182 632.118,598.883 630.927,604.55C630.309,607.491 629.534,610.398 628.74,613.297C628.21,615.233 627.583,617.142 626.956,619.049" style="fill:none;fill-rule:nonzero;stroke:black;stroke-width:4px;"/>
        </g>
        <g>
            <path d="M608.564,588.449C608.439,588.574 608.29,588.724 608.287,588.9C608.256,590.703 608.279,592.512 608.463,594.306C609.06,600.112 609.99,605.88 610.628,611.682C610.876,613.941 610.999,616.212 611.121,618.481" style="fill:none;fill-rule:nonzero;stroke:black;stroke-width:4px;"/>
        </g>
        <g>
            <path d="M622.935,588.954C622.835,588.945 622.638,588.929 622.643,589.029C622.682,589.915 623.075,590.77 623.055,591.656C622.868,599.922 622.588,604.444 620.975,611.974C620.579,613.82 620.038,615.632 619.499,617.441" style="fill:none;fill-rule:nonzero;stroke:black;stroke-width:4px;"/>
        </g>
        <g>
            <path d="M611.434,618.051C611.433,617.99 611.431,617.929 611.43,617.868" style="fill:none;fill-rule:nonzero;stroke:black;stroke-width:2px;"/>
        </g>
        <g>
            <path d="M611.481,616.14C611.699,616.792 611.917,617.445 612.135,618.097" style="fill:none;fill-rule:nonzero;stroke:black;stroke-width:2px;"/>
        </g>
        <g>
            <path d="M619.536,617.206C619.52,617.268 619.504,617.33 619.488,617.392" style="fill:none;fill-rule:nonzero;stroke:black;stroke-width:2px;"/>
        </g>
        <g>
            <path d="M601.432,617.212C601.611,617.881 601.789,618.549 601.968,619.218" style="fill:none;fill-rule:nonzero;stroke:black;stroke-width:2px;"/>
        </g>
        <g>
            <path d="M601.322,617.9C601.417,618.51 601.512,619.126 601.501,619.743C601.498,619.909 601.341,620.346 601.28,620.191C601.058,619.627 601.178,618.969 600.973,618.399C600.786,617.879 600.854,620.447 601.225,620.038C601.697,619.517 601.056,618.553 601.393,617.936C601.578,617.599 601.727,618.641 601.781,619.022" style="fill:none;fill-rule:nonzero;stroke:black;stroke-width:2px;"/>
        </g>
        <g>
            <path d="M601.783,617.275C601.872,617.171 602.1,616.905 602.119,617.04C602.22,617.761 602.137,618.5 602.056,619.224" style="fill:none;fill-rule:nonzero;stroke:black;stroke-width:2px;"/>
        </g>
        <g>
            <path d="M601.906,618.768C601.958,619.111 602.014,619.477 601.914,619.809C601.797,620.198 601.534,620.531 601.282,620.849" style="fill:none;fill-rule:nonzero;stroke:black;stroke-width:2px;"/>
        </g>
        <g>
            <path d="M602.132,618.032C602.221,617.906 602.41,617.639 602.505,617.76C602.722,618.039 602.713,618.444 602.727,618.798C602.741,619.142 602.722,619.504 602.586,619.82C602.527,619.957 602.339,620.003 602.194,620.038" style="fill:none;fill-rule:nonzero;stroke:black;stroke-width:2px;"/>
        </g>
        <g>
            <path d="M602.256,619.525C601.941,619.845 601.621,620.171 601.389,620.555C601.214,620.846 601.133,621.187 601.055,621.518" style="fill:none;fill-rule:nonzero;stroke:black;stroke-width:2px;"/>
        </g>
        <g>
            <path d="M601.505,620.208C601.396,620.246 601.249,620.298 601.224,620.411C601.076,621.088 601.042,621.787 601.008,622.479" style="fill:none;fill-rule:nonzero;stroke:black;stroke-width:2px;"/>
        </g>
        <g>
            <path d="M601.383,620.66C601.129,620.975 600.855,621.315 600.776,621.712C600.605,622.565 600.378,623.494 600.651,624.32C600.779,624.708 601.449,624.548 601.788,624.776C602.282,625.109 602.316,625.01 602.918,625.062C603.034,625.072 602.913,625.421 603.026,625.394C603.941,625.173 603.599,624.81 603.892,624.227C603.959,624.094 603.823,624.518 603.817,624.666C603.813,624.757 603.974,624.379 603.885,624.4C603.398,624.516 602.999,624.925 602.502,624.98C602.131,625.021 601.253,624.462 601.054,624.136C600.38,623.033 600.418,622.362 600.868,621.092C600.953,620.851 601.153,620.627 601.389,620.53C601.645,620.425 601.947,620.485 602.219,620.539" style="fill:none;fill-rule:nonzero;stroke:black;stroke-width:2px;"/>
        </g>
        <g>
            <path d="M604.64,623.964C604.631,624.167 604.621,624.387 604.709,624.571C604.856,624.878 605.02,625.231 605.323,625.387C605.713,625.588 606.208,625.688 606.629,625.562C607.227,625.384 607.726,624.947 608.191,624.531C608.342,624.396 608.556,623.819 608.415,623.965C607.27,625.151 607.297,625.655 605.702,625.232C605.279,625.12 604.857,624.841 604.641,624.46C604.405,624.043 604.013,622.855 604.457,623.034C605.165,623.319 605.088,624.561 605.765,624.913C606.36,625.222 607.102,624.706 607.771,624.756C607.935,624.768 607.969,625.111 608.131,625.091C608.514,625.045 608.838,624.2 608.898,623.966C608.921,623.875 608.942,623.705 608.85,623.689C608.756,623.673 608.719,623.839 608.699,623.932" style="fill:none;fill-rule:nonzero;stroke:black;stroke-width:2px;"/>
        </g>
        <g>
            <path d="M612.109,619.839C612.047,619.885 611.93,619.971 611.978,620.032C612.206,620.322 612.67,620.411 612.821,620.747C613.129,621.433 613.417,622.213 613.289,622.954C613.152,623.752 611.555,624.46 610.886,624.382C610.414,624.327 609.395,623.292 609.631,623.705C609.963,624.285 610.563,624.766 611.207,624.943C611.727,625.086 613.457,624.395 613.708,623.763C613.992,623.047 613.96,622.237 613.969,621.467C613.977,620.748 612.391,619.727 612.33,619.655C612.07,619.348 611.917,618.96 611.769,618.585" style="fill:none;fill-rule:nonzero;stroke:black;stroke-width:2px;"/>
        </g>
        <g>
            <path d="M612.148,617.99C612.366,618.478 612.584,618.967 612.802,619.455" style="fill:none;fill-rule:nonzero;stroke:black;stroke-width:2px;"/>
        </g>
        <g>
            <path d="M618.501,618.186C618.404,618.564 618.306,618.943 618.209,619.321" style="fill:none;fill-rule:nonzero;stroke:black;stroke-width:2px;"/>
        </g>
        <g>
            <path d="M620.03,616.914C619.906,617.419 619.781,617.932 619.547,618.396C619.281,618.924 618.911,619.394 618.546,619.859" style="fill:none;fill-rule:nonzero;stroke:black;stroke-width:2px;"/>
        </g>
        <g>
            <path d="M620.072,617.321C620.05,617.757 620.025,618.251 619.753,618.592C619.395,619.04 618.694,619.103 618.308,619.529C617.954,619.921 617.923,620.526 617.614,620.955C617.542,621.056 617.283,620.891 617.244,621.009C616.985,621.798 616.184,623.584 617.36,624.269C618.331,624.834 619.288,624.668 620.236,624.167C620.369,624.096 620.259,623.808 620.395,623.743C620.49,623.698 620.459,624.056 620.556,624.015C620.783,623.918 621.25,623.316 621.052,623.464C619.712,624.462 619.662,624.609 618.009,624.329C617.814,624.296 617.61,624.176 617.513,624.003C616.986,623.061 616.9,622.462 617.31,621.503C617.472,621.126 617.681,620.753 617.974,620.466C618.107,620.336 618.328,620.329 618.514,620.323" style="fill:none;fill-rule:nonzero;stroke:black;stroke-width:2px;"/>
        </g>
        <g>
            <path d="M621.036,622.845C620.859,622.983 620.668,623.132 620.577,623.337C620.505,623.5 620.529,623.702 620.581,623.873C620.726,624.343 621.085,625.26 621.729,625.375C622.229,625.464 622.825,625.556 623.25,625.278C623.687,624.992 623.685,624.321 623.99,623.897C624.03,623.841 624.187,623.991 624.139,624.04C623.681,624.508 623.278,625.231 622.626,625.291C621.977,625.351 621.389,624.789 620.918,624.338" style="fill:none;fill-rule:nonzero;stroke:black;stroke-width:2px;"/>
        </g>
        <g>
            <path d="M627.722,618.6C627.826,618.579 628.027,618.539 628.038,618.645C628.101,619.256 627.757,619.89 627.916,620.483C628.398,622.283 629.493,622.147 628.858,623.909C628.399,625.18 627.93,624.468 626.6,624.553C626.35,624.569 626.174,624.89 625.925,624.879C625.713,624.87 625.624,624.525 625.414,624.5C625.3,624.486 625.136,624.754 625.242,624.798C625.503,624.907 624.904,624.309 625.137,624.477C625.556,624.78 625.965,625.31 626.48,625.256C627.83,625.114 629.053,623.212 628.363,622C628.074,621.491 627.506,621.164 627.26,620.632C626.983,620.035 626.948,619.353 626.838,618.705C626.799,618.474 626.756,617.924 627.083,617.78C627.153,617.749 627.159,618.041 627.202,617.977C627.417,617.656 627.541,617.28 627.662,616.913" style="fill:none;fill-rule:nonzero;stroke:black;stroke-width:2px;"/>
        </g>
        <g>
            <path d="M627.935,615.53C627.991,616.749 628.048,617.969 628.104,619.188" style="fill:none;fill-rule:nonzero;stroke:black;stroke-width:2px;"/>
        </g>
        <g>
            <path d="M628.594,618.516C628.5,618.504 628.363,618.487 628.314,618.568C628.243,618.684 628.3,618.839 628.315,618.974C628.37,619.468 628.385,619.973 628.521,620.451C628.549,620.548 628.684,620.582 628.782,620.606" style="fill:none;fill-rule:nonzero;stroke:black;stroke-width:2px;"/>
        </g>
        <g>
            <path d="M628.304,621.186C628.342,621.194 628.38,621.203 628.418,621.211" style="fill:none;fill-rule:nonzero;stroke:black;stroke-width:2px;"/>
        </g>
        <g>
            <path d="M633.443,622.616C633.824,622.73 634.224,622.85 634.621,622.816C635.005,622.783 635.323,622.437 635.708,622.421C636.369,622.394 637.013,622.733 637.672,622.692C639.14,622.601 640.594,622.352 642.058,622.208C642.978,622.118 642.791,621.633 645.717,620.855C646.185,620.731 646.689,620.95 647.17,620.887C647.261,620.875 647.214,620.643 647.306,620.647C647.39,620.651 647.279,620.929 647.357,620.896C648.548,620.391 648.539,620.462 649.759,620.1C650.035,620.018 650.157,619.64 650.434,619.562C650.782,619.465 651.166,619.689 651.518,619.608C651.91,619.517 652.277,619.31 652.595,619.063C652.667,619.007 652.478,618.794 652.57,618.79C652.67,618.785 652.611,619.023 652.705,619.058C653.144,619.222 654.322,618.524 654.42,618.45C654.658,618.271 654.704,617.889 654.962,617.741C655.074,617.676 654.85,618.103 654.977,618.13C655.157,618.168 655.267,617.866 655.449,617.845C655.526,617.836 655.444,618.118 655.504,618.069C655.847,617.788 656.042,617.352 656.389,617.076C656.456,617.022 656.343,617.329 656.43,617.332C656.593,617.338 656.696,617.083 656.86,617.094C656.949,617.1 656.838,617.433 656.894,617.362C657.277,616.88 657.44,616.23 657.883,615.803C657.994,615.696 657.958,616.325 658.075,616.225C658.228,616.095 657.991,615.798 658.092,615.625C658.235,615.383 658.499,615.229 658.743,615.088" style="fill:none;fill-rule:nonzero;stroke:black;stroke-width:4px;"/>
        </g>
        <g>
            <path d="M632.422,614.815C632.332,614.923 632.07,615.236 632.194,615.17C632.781,614.855 633.131,614.584 633.39,614.312C633.44,614.259 633.381,614.534 633.452,614.521C633.601,614.495 633.656,614.236 633.808,614.238C634.103,614.242 633.924,613.97 634.218,613.915C634.408,613.88 634.387,614.388 634.579,614.367C634.84,614.338 634.877,613.81 635.141,613.812C635.413,613.814 635.46,614.382 635.732,614.376C636.025,614.37 636.1,613.859 636.383,613.785C637.006,613.623 637.683,613.84 638.312,613.705C638.693,613.623 638.962,613.241 639.341,613.149C640.057,612.976 639.955,612.836 640.692,612.565C640.819,612.518 640.766,612.949 640.899,612.917C641.255,612.832 641.448,612.376 641.806,612.3C642.518,612.149 642.506,612.888 643.112,612.522C643.791,612.111 643.708,612.069 644.385,611.739C644.616,611.626 644.67,611.262 644.913,611.178C645.861,610.85 645.975,611.272 646.782,610.714C647.316,610.345 647.663,609.747 648.198,609.38C648.501,609.172 648.48,609.841 648.759,609.6C650.016,608.517 649.681,608.122 651.239,607.463C651.341,607.42 651.26,607.853 651.339,607.777C651.47,607.651 651.867,606.561 652.379,606.507C652.501,606.494 652.601,606.748 652.705,606.681C653.175,606.38 653.391,605.719 653.914,605.522C654.127,605.442 654.017,605.981 653.971,606.204" style="fill:none;fill-rule:nonzero;stroke:black;stroke-width:2px;"/>
        </g>
        <g>
            <path d="M631.989,614.901C631.913,615.059 631.823,615.247 631.875,615.414C631.912,615.533 632.009,615.201 632.045,615.081" style="fill:none;fill-rule:nonzero;stroke:black;stroke-width:2px;"/>
        </g>
        <g>
            <path d="M632.023,614.962C632.424,614.817 632.834,614.669 633.258,614.624C633.391,614.61 633.507,614.859 633.622,614.791C634.18,614.461 634.472,613.674 635.105,613.531C635.884,613.355 635.359,614.712 636.096,614.37C636.655,614.11 637.063,613.549 637.654,613.375C637.86,613.315 637.969,613.837 638.17,613.761C638.8,613.523 639.195,612.863 639.798,612.565C639.959,612.485 640.151,612.754 640.322,612.697C640.731,612.56 641.004,612.112 641.426,612.022C641.57,611.991 641.483,612.472 641.62,612.419C642.203,612.192 642.601,611.627 643.161,611.348C644.225,610.817 644.228,610.899 645.266,610.283C645.9,609.907 646.549,609.545 647.237,609.278C647.307,609.251 647.234,609.537 647.295,609.495C648.687,608.548 648.704,608.643 650.184,607.811C650.551,607.605 650.732,607.145 651.1,606.94C651.371,606.788 651.358,607.29 651.61,607.094C652.004,606.787 652.294,606.35 652.713,606.078C652.79,606.028 652.839,606.312 652.756,606.351C652.171,606.626 651.477,606.628 650.905,606.929C649.388,607.726 648.029,608.797 646.529,609.625C646.445,609.671 646.37,609.45 646.281,609.482C645.692,609.692 645.196,610.128 644.599,610.314C644.342,610.394 644.047,610.163 643.795,610.257C643.049,610.536 642.437,611.106 641.696,611.399C641.497,611.478 641.249,611.248 641.057,611.341C640.422,611.646 639.953,612.235 639.319,612.541C639.201,612.598 639.109,612.33 638.978,612.343C638.464,612.395 637.994,612.72 637.477,612.729C637.304,612.732 637.26,612.324 637.095,612.377C636.407,612.6 635.884,613.184 635.216,613.462C634.341,613.827 634.288,613.202 633.391,613.493C632.889,613.656 632.545,614.171 632.038,614.319C631.839,614.377 631.666,613.973 631.475,614.053C631.323,614.116 631.463,614.384 631.493,614.546C631.51,614.643 631.415,614.274 631.511,614.251C631.804,614.182 632.119,614.259 632.412,614.33" style="fill:none;fill-rule:nonzero;stroke:black;stroke-width:2px;"/>
        </g>
        <g>
            <path d="M634.073,614.554C634.712,614.614 635.362,614.676 635.998,614.589C636.918,614.463 637.821,614.215 638.702,613.922C640.316,613.384 641.837,612.576 643.47,612.099C643.779,612.009 644.124,612.367 644.423,612.25C645.301,611.908 645.997,611.208 646.839,610.785C647.113,610.648 647.474,610.745 647.736,610.586C648.771,609.959 649.646,609.092 650.677,608.459C650.88,608.335 651.189,608.487 651.382,608.347C652.056,607.856 652.539,607.138 653.197,606.625C653.261,606.575 653.283,606.905 653.323,606.834C653.39,606.714 653.432,606.356 653.311,606.422C653.117,606.529 653.2,606.914 653,607.011C652.86,607.08 652.7,606.889 652.599,606.77" style="fill:none;fill-rule:nonzero;stroke:black;stroke-width:2px;"/>
        </g>
        <g>
            <path d="M631.758,621.957C631.646,622.036 631.503,622.135 631.371,622.097C631.208,622.049 631.177,621.766 631.009,621.738C630.856,621.713 630.758,622.003 630.606,621.971C630.478,621.944 630.537,621.7 630.436,621.617C630.383,621.573 630.415,621.755 630.427,621.823" style="fill:none;fill-rule:nonzero;stroke:black;stroke-width:2px;"/>
        </g>
        <g>
            <path d="M630.995,615.399C630.894,615.517 630.779,615.654 630.626,615.683C630.537,615.7 630.384,615.597 630.414,615.511C630.496,615.282 630.7,615.111 630.886,614.955" style="fill:none;fill-rule:nonzero;stroke:black;stroke-width:2px;"/>
        </g>
        <g>
            <path d="M631.476,622.987C631.405,622.836 631.303,622.623 631.137,622.62C630.781,622.613 630.481,622.929 630.127,622.962C630.044,622.97 630.072,622.761 630.14,622.713C630.199,622.671 630.103,622.919 630.175,622.928C630.863,623.01 631.592,623.169 632.254,622.964C632.718,622.82 631.302,622.752 630.817,622.729" style="fill:none;fill-rule:nonzero;stroke:black;stroke-width:2px;"/>
        </g>
        <g>
            <path d="M635.578,548.732C635.436,549.288 635.292,549.853 635.28,550.426C635.225,552.961 635.272,555.498 635.379,558.031C635.408,558.737 635.548,559.436 635.687,560.129" style="fill:none;fill-rule:nonzero;stroke:black;stroke-width:2px;"/>
        </g>
        <g>
            <path d="M636.254,554.64C636.5,556.17 636.761,557.8 636.327,559.288C635.993,560.435 636.968,556.331 635.938,555.726C634.987,555.167 636.246,557.989 635.896,559.035C635.597,559.931 635.732,557.146 635.779,556.202" style="fill:none;fill-rule:nonzero;stroke:black;stroke-width:2px;"/>
        </g>
        <g>
            <path d="M634.209,548.584C634.139,549.703 634.07,550.824 634.095,551.945C634.131,553.504 634.262,555.061 634.391,556.615C634.401,556.733 634.4,556.91 634.512,556.95C634.601,556.981 634.665,556.805 634.663,556.711C634.642,555.688 634.543,554.667 634.445,553.648" style="fill:none;fill-rule:nonzero;stroke:black;stroke-width:2px;"/>
        </g>
        <g>
            <path d="M633.755,547.942C634.072,551.424 634.389,554.906 634.706,558.388" style="fill:none;fill-rule:nonzero;stroke:black;stroke-width:2px;"/>
        </g>
        <g>
            <path d="M593.136,542.53C593.013,542.807 592.884,543.096 592.871,543.399C592.759,545.998 592.677,548.603 592.761,551.203C592.824,553.142 593.198,555.06 593.31,556.996C593.321,557.188 593.284,557.658 593.128,557.545C592.908,557.386 592.979,557.018 592.966,556.747C592.733,551.915 593.125,551.95 593.257,547.1C593.306,545.32 593.899,540.136 593.167,541.759C592.276,543.735 592.749,546.08 592.74,548.247C592.726,551.614 593.026,554.975 593.097,558.341C593.1,558.484 593.008,558.882 592.962,558.747C591.121,553.387 592.38,546.483 592.828,540.998C592.864,540.554 592.581,541.869 592.596,542.315C592.821,549.039 593.325,555.751 593.546,562.475C593.562,562.967 593.306,564.423 593.308,563.931C593.311,563.091 593.431,562.254 593.55,561.422" style="fill:none;fill-rule:nonzero;stroke:black;stroke-width:2px;"/>
        </g>
        <g>
            <path d="M635.301,545.01C635.147,545.289 634.984,545.585 634.964,545.903C634.87,547.43 634.915,548.964 634.964,550.493C635.097,554.571 635.427,558.642 635.512,562.722C635.533,563.714 635.284,560.751 635.157,559.767C635.108,559.388 635.249,561.288 635.278,560.907C635.43,558.912 635.478,556.91 635.527,554.91" style="fill:none;fill-rule:nonzero;stroke:black;stroke-width:2px;"/>
        </g>
        <g>
            <path d="M593.073,533.425C592.944,533.397 592.776,533.36 592.722,533.239C592.623,533.018 592.746,532.287 592.664,532.515C592.523,532.904 592.856,534.014 592.537,533.75C592.187,533.461 592.661,532.815 592.509,532.387C592.42,532.138 592.322,533.423 592.327,533.159C592.336,532.632 592.475,532.115 592.523,531.59C592.534,531.466 592.339,531.877 592.438,531.953C592.652,532.117 593.028,531.946 593.226,532.128C593.547,532.424 593.556,533.575 593.869,533.27C594.236,532.912 593.1,531.812 593.609,531.754C594.186,531.688 594.162,532.806 594.601,533.186C594.793,533.352 594.326,532.209 594.411,532.448C594.509,532.725 594.575,533.013 594.641,533.299" style="fill:none;fill-rule:nonzero;stroke:black;stroke-width:2px;"/>
        </g>
        <g>
            <path d="M592.414,533.11C592.575,534.055 592.763,535.156 592.278,535.983C591.865,536.687 592.02,532.735 592.163,533.538C592.327,534.46 592.335,535.406 592.342,536.343" style="fill:none;fill-rule:nonzero;stroke:black;stroke-width:2px;"/>
        </g>
        <g>
            <path d="M634.387,534.554C634.386,534.552 634.386,534.551 634.385,534.549" style="fill:none;fill-rule:nonzero;stroke:black;stroke-width:2px;"/>
        </g>
        <g>
            <path d="M634.39,534.718C634.103,535.559 633.816,536.401 633.529,537.242" style="fill:none;fill-rule:nonzero;stroke:black;stroke-width:2px;"/>
        </g>
        <g>
            <path d="M633.749,535.359C633.095,536.071 632.441,536.784 631.763,537.473C631.698,537.539 631.573,537.695 631.526,537.616C631.461,537.506 631.548,537.346 631.629,537.248C631.939,536.874 632.54,536.698 632.672,536.231C632.782,535.845 632.013,536.689 631.713,536.955C631.401,537.231 631.075,537.505 630.842,537.85C630.699,538.062 630.655,538.329 630.613,538.581" style="fill:none;fill-rule:nonzero;stroke:black;stroke-width:2px;"/>
        </g>
        <g>
            <path d="M614.612,557.436C614.496,557.386 614.237,557.274 614.235,557.4C614.229,557.787 614.421,558.159 614.597,558.503" style="fill:none;fill-rule:nonzero;stroke:black;stroke-width:2px;"/>
        </g>
        <g>
            <path d="M615.505,557.263C615.471,557.812 615.438,558.36 615.405,558.909" style="fill:none;fill-rule:nonzero;stroke:black;stroke-width:2px;"/>
        </g>
        <g>
            <path d="M615.921,557.121C615.87,557.546 615.82,557.97 615.769,558.395" style="fill:none;fill-rule:nonzero;stroke:black;stroke-width:2px;"/>
        </g>
        <g>
            <path d="M615.569,557.962C615.619,558.101 615.669,558.239 615.719,558.378" style="fill:none;fill-rule:nonzero;stroke:black;stroke-width:2px;"/>
        </g>
        <g>
            <path d="M615.198,621.901C615.468,621.841 615.753,621.779 616.025,621.831C616.099,621.845 616.06,622.048 615.985,622.053C615.645,622.076 615.301,621.808 614.972,621.901C614.827,621.942 614.789,622.285 614.924,622.352C615.25,622.513 615.463,621.682 615.754,622.298C615.796,622.386 615.636,622.589 615.567,622.521C615.447,622.402 615.513,622.188 615.477,622.023C615.457,621.935 615.501,622.202 615.515,622.291" style="fill:none;fill-rule:nonzero;stroke:black;stroke-width:2px;"/>
        </g>
    </g>
</svg>
