<?xml version="1.0" encoding="UTF-8" standalone="no"?><!DOCTYPE svg PUBLIC "-//W3C//DTD SVG 1.1//EN" "http://www.w3.org/Graphics/SVG/1.1/DTD/svg11.dtd"><svg width="100%" height="100%" viewBox="0 0 211 96" version="1.1" xmlns="http://www.w3.org/2000/svg" xmlns:xlink="http://www.w3.org/1999/xlink" xml:space="preserve" xmlns:serif="http://www.serif.com/" style="fill-rule:evenodd;clip-rule:evenodd;stroke-linecap:round;stroke-miterlimit:10;"><g id="Aggregate"><path id="Arrow" d="M149.936,48.029l1.65,1.65l-1.65,1.65" style="fill:none;stroke:#000;stroke-width:0.55px;"/><path d="M86.696,49.679l64.89,-0" style="fill:none;stroke:#000;stroke-width:0.55px;stroke-linejoin:round;stroke-miterlimit:1.5;"/><path id="Arrow1" serif:id="Arrow" d="M88.886,55.743l-1.65,-1.65l1.65,-1.65" style="fill:none;stroke:#000;stroke-width:0.55px;"/><path d="M151.48,54.093l-64.244,-0" style="fill:none;stroke:#000;stroke-width:0.55px;stroke-linejoin:round;stroke-miterlimit:1.5;"/><path d="M102.763,27.053c0.12,0.39 0.41,0.58 0.78,0.58c0.25,-0 0.56,-0.06 0.8,-0.31l-0.08,-0.25c-0.11,0.04 -0.19,0.05 -0.27,0.05c-0.1,-0 -0.23,-0.01 -0.29,-0.07c-0.1,-0.09 -0.17,-0.34 -0.17,-0.78c-0,-0.29 0.03,-1.4 0.03,-1.51c-0,-1.35 -0.89,-1.62 -1.65,-1.62c-0.76,-0 -1.22,0.37 -1.47,0.58l-0.03,0.04l0.17,0.67l0.13,0.01c0.28,-0.45 0.62,-0.85 1.1,-0.85c0.36,-0 0.96,0.05 0.96,1.18c-0,0.07 -0.04,0.11 -0.07,0.12l-0.93,0.21c-1.02,0.23 -1.66,0.77 -1.66,1.45c-0,0.74 0.51,1.08 1.25,1.08c0.55,-0 0.83,-0.13 1.36,-0.58l0.04,-0Zm-0,-1.77l-0.04,1.19c-0,0.13 -0.06,0.2 -0.14,0.26c-0.28,0.21 -0.62,0.39 -0.92,0.39c-0.45,-0 -0.74,-0.3 -0.74,-0.61c-0,-0.45 0.21,-0.79 0.99,-1l0.85,-0.23Z" style="fill-rule:nonzero;stroke:#000;stroke-width:0.24px;stroke-linecap:butt;stroke-linejoin:round;stroke-miterlimit:2;"/><path d="M108.373,24.683c-0,-0.69 -0.27,-1.01 -0.5,-1.16c0.3,0.02 0.63,0.06 1.04,0.1l0.03,-0.03c-0.02,-0.09 -0.03,-0.17 -0.03,-0.26c-0,-0.09 0.01,-0.17 0.03,-0.26l-0.03,-0.03c-0.48,0.04 -0.83,0.15 -1.58,0.19c-0.18,-0.06 -0.39,-0.09 -0.61,-0.09c-0.79,-0 -1.7,0.53 -1.7,1.52c-0,0.75 0.43,1.09 0.71,1.25c-0.29,0.2 -0.64,0.49 -0.64,0.83c-0,0.41 0.24,0.77 0.78,0.86c-0.28,0.12 -0.59,0.31 -0.85,0.51c-0.12,0.19 -0.23,0.47 -0.23,0.66c-0,0.79 0.86,1.13 1.92,1.13c1.56,-0 2.49,-0.65 2.49,-1.59c-0,-0.44 -0.14,-0.75 -0.42,-0.99c-0.37,-0.32 -1.06,-0.33 -1.41,-0.33c-0.17,-0 -0.57,0.02 -0.8,0.05c-0.14,0.01 -0.24,0.02 -0.29,0.02c-0.28,-0 -0.58,-0.04 -0.58,-0.47c-0,-0.2 0.05,-0.37 0.27,-0.56c0.13,0.07 0.44,0.14 0.74,0.14c1.04,-0 1.66,-0.7 1.66,-1.49Zm-2.89,3.89c-0,-0.33 0.3,-0.7 0.65,-0.89c0.3,-0 0.75,-0.03 0.89,-0.03c0.48,-0 0.79,0.01 1.06,0.17c0.29,0.17 0.39,0.46 0.39,0.72c-0,0.61 -0.82,0.93 -1.68,0.93c-0.65,-0 -1.31,-0.22 -1.31,-0.9Zm2.11,-3.88c-0,0.61 -0.25,1.08 -0.85,1.08c-0.72,-0 -0.94,-0.47 -0.94,-1.16c-0,-0.66 0.3,-1.09 0.88,-1.09c0.65,-0 0.91,0.46 0.91,1.17Z" style="fill-rule:nonzero;stroke:#000;stroke-width:0.24px;stroke-linecap:butt;stroke-linejoin:round;stroke-miterlimit:2;"/><path d="M113.363,24.683c-0,-0.69 -0.27,-1.01 -0.5,-1.16c0.3,0.02 0.63,0.06 1.04,0.1l0.03,-0.03c-0.02,-0.09 -0.03,-0.17 -0.03,-0.26c-0,-0.09 0.01,-0.17 0.03,-0.26l-0.03,-0.03c-0.48,0.04 -0.83,0.15 -1.58,0.19c-0.18,-0.06 -0.39,-0.09 -0.61,-0.09c-0.79,-0 -1.7,0.53 -1.7,1.52c-0,0.75 0.43,1.09 0.71,1.25c-0.29,0.2 -0.64,0.49 -0.64,0.83c-0,0.41 0.24,0.77 0.78,0.86c-0.28,0.12 -0.59,0.31 -0.85,0.51c-0.12,0.19 -0.23,0.47 -0.23,0.66c-0,0.79 0.86,1.13 1.92,1.13c1.56,-0 2.49,-0.65 2.49,-1.59c-0,-0.44 -0.14,-0.75 -0.42,-0.99c-0.37,-0.32 -1.06,-0.33 -1.41,-0.33c-0.17,-0 -0.57,0.02 -0.8,0.05c-0.14,0.01 -0.24,0.02 -0.29,0.02c-0.28,-0 -0.58,-0.04 -0.58,-0.47c-0,-0.2 0.05,-0.37 0.27,-0.56c0.13,0.07 0.44,0.14 0.74,0.14c1.04,-0 1.66,-0.7 1.66,-1.49Zm-2.89,3.89c-0,-0.33 0.3,-0.7 0.65,-0.89c0.3,-0 0.75,-0.03 0.89,-0.03c0.48,-0 0.79,0.01 1.06,0.17c0.29,0.17 0.39,0.46 0.39,0.72c-0,0.61 -0.82,0.93 -1.68,0.93c-0.65,-0 -1.31,-0.22 -1.31,-0.9Zm2.11,-3.88c-0,0.61 -0.25,1.08 -0.85,1.08c-0.72,-0 -0.94,-0.47 -0.94,-1.16c-0,-0.66 0.3,-1.09 0.88,-1.09c0.65,-0 0.91,0.46 0.91,1.17Z" style="fill-rule:nonzero;stroke:#000;stroke-width:0.24px;stroke-linecap:butt;stroke-linejoin:round;stroke-miterlimit:2;"/><path d="M116.123,24.193l-0,-0.91c-0,-0.08 -0.01,-0.1 -0.06,-0.1c-0.22,0.04 -0.58,0.05 -0.81,0.03l-0.02,0.03c0.07,0.43 0.09,1.19 0.09,1.94l-0,0.55c-0,0.75 -0.01,1.26 -0.09,1.8l0.02,0.03c0.12,-0.02 0.35,-0.03 0.47,-0.03c0.12,-0 0.35,0.01 0.47,0.03l0.02,-0.03c-0.07,-0.57 -0.09,-1.04 -0.09,-1.8l-0,-0.52c-0,-0.42 0.13,-0.66 0.34,-0.99c0.15,-0.22 0.37,-0.35 0.56,-0.35c0.2,-0 0.39,0.02 0.52,0.14l0.08,-0.02l0.2,-0.74l-0.04,-0.04c-0.17,-0.05 -0.18,-0.07 -0.36,-0.07c-0.54,-0 -0.83,0.31 -1.27,1.07l-0.03,-0.02Z" style="fill-rule:nonzero;stroke:#000;stroke-width:0.24px;stroke-linecap:butt;stroke-linejoin:round;stroke-miterlimit:2;"/><path d="M121.843,26.493c-0.35,0.38 -0.82,0.55 -1.37,0.55c-0.34,-0 -0.81,-0.13 -1.09,-0.57c-0.18,-0.28 -0.24,-0.69 -0.24,-1.27l2.72,-0c0.11,-0 0.18,-0.06 0.18,-0.17c-0,-0.84 -0.41,-1.89 -1.73,-1.89c-1.03,-0 -2.05,0.83 -2.05,2.3c-0,0.57 0.12,1.13 0.45,1.53c0.34,0.41 0.92,0.66 1.59,0.66c0.72,-0 1.36,-0.37 1.74,-0.89l-0.2,-0.25Zm-2.67,-1.69c0.17,-1.04 0.83,-1.26 1.14,-1.26c0.4,-0 0.84,0.37 0.84,1.12c-0,0.09 -0.04,0.14 -0.14,0.14l-1.84,-0Z" style="fill-rule:nonzero;stroke:#000;stroke-width:0.24px;stroke-linecap:butt;stroke-linejoin:round;stroke-miterlimit:2;"/><path d="M126.353,24.683c-0,-0.69 -0.27,-1.01 -0.5,-1.16c0.3,0.02 0.63,0.06 1.04,0.1l0.03,-0.03c-0.02,-0.09 -0.03,-0.17 -0.03,-0.26c-0,-0.09 0.01,-0.17 0.03,-0.26l-0.03,-0.03c-0.48,0.04 -0.83,0.15 -1.58,0.19c-0.18,-0.06 -0.39,-0.09 -0.61,-0.09c-0.79,-0 -1.7,0.53 -1.7,1.52c-0,0.75 0.43,1.09 0.71,1.25c-0.29,0.2 -0.64,0.49 -0.64,0.83c-0,0.41 0.24,0.77 0.78,0.86c-0.28,0.12 -0.59,0.31 -0.85,0.51c-0.12,0.19 -0.23,0.47 -0.23,0.66c-0,0.79 0.86,1.13 1.92,1.13c1.56,-0 2.49,-0.65 2.49,-1.59c-0,-0.44 -0.14,-0.75 -0.42,-0.99c-0.37,-0.32 -1.06,-0.33 -1.41,-0.33c-0.17,-0 -0.57,0.02 -0.8,0.05c-0.14,0.01 -0.24,0.02 -0.29,0.02c-0.28,-0 -0.58,-0.04 -0.58,-0.47c-0,-0.2 0.05,-0.37 0.27,-0.56c0.13,0.07 0.44,0.14 0.74,0.14c1.04,-0 1.66,-0.7 1.66,-1.49Zm-2.89,3.89c-0,-0.33 0.3,-0.7 0.65,-0.89c0.3,-0 0.75,-0.03 0.89,-0.03c0.48,-0 0.79,0.01 1.06,0.17c0.29,0.17 0.39,0.46 0.39,0.72c-0,0.61 -0.82,0.93 -1.68,0.93c-0.65,-0 -1.31,-0.22 -1.31,-0.9Zm2.11,-3.88c-0,0.61 -0.25,1.08 -0.85,1.08c-0.72,-0 -0.94,-0.47 -0.94,-1.16c-0,-0.66 0.3,-1.09 0.88,-1.09c0.65,-0 0.91,0.46 0.91,1.17Z" style="fill-rule:nonzero;stroke:#000;stroke-width:0.24px;stroke-linecap:butt;stroke-linejoin:round;stroke-miterlimit:2;"/><path d="M130.543,27.053c0.12,0.39 0.41,0.58 0.78,0.58c0.25,-0 0.56,-0.06 0.8,-0.31l-0.08,-0.25c-0.11,0.04 -0.19,0.05 -0.27,0.05c-0.1,-0 -0.23,-0.01 -0.29,-0.07c-0.1,-0.09 -0.17,-0.34 -0.17,-0.78c-0,-0.29 0.03,-1.4 0.03,-1.51c-0,-1.35 -0.89,-1.62 -1.65,-1.62c-0.76,-0 -1.22,0.37 -1.47,0.58l-0.03,0.04l0.17,0.67l0.13,0.01c0.28,-0.45 0.62,-0.85 1.1,-0.85c0.36,-0 0.96,0.05 0.96,1.18c-0,0.07 -0.04,0.11 -0.07,0.12l-0.93,0.21c-1.02,0.23 -1.66,0.77 -1.66,1.45c-0,0.74 0.51,1.08 1.25,1.08c0.55,-0 0.83,-0.13 1.36,-0.58l0.04,-0Zm-0,-1.77l-0.04,1.19c-0,0.13 -0.06,0.2 -0.14,0.26c-0.28,0.21 -0.62,0.39 -0.92,0.39c-0.45,-0 -0.74,-0.3 -0.74,-0.61c-0,-0.45 0.21,-0.79 0.99,-1l0.85,-0.23Z" style="fill-rule:nonzero;stroke:#000;stroke-width:0.24px;stroke-linecap:butt;stroke-linejoin:round;stroke-miterlimit:2;"/><path d="M133.203,23.243c-0.2,-0 -0.42,-0 -0.54,-0.02c-0.07,0.16 -0.12,0.26 -0.22,0.41l0.05,0.07c0.17,-0.01 0.48,-0.02 0.71,-0.02l-0,1.37c-0,0.6 -0.03,1.32 -0.03,1.62c-0,0.65 0.42,0.96 0.88,0.96c0.42,-0 0.74,-0.1 1.16,-0.37l-0.12,-0.25c-0.31,0.11 -0.54,0.12 -0.79,0.08c-0.24,-0.04 -0.33,-0.28 -0.33,-0.82c-0,-0.3 0.03,-0.73 0.03,-1.33l-0,-1.26l0.38,-0c0.24,-0 0.59,0.01 0.72,0.02c0.03,-0.16 0.06,-0.26 0.12,-0.41l-0.05,-0.07c-0.18,0.01 -0.47,0.02 -0.7,0.02l-0.47,-0c-0,-0.75 0.01,-0.88 0.05,-1.46c-0,-0.07 -0.03,-0.1 -0.09,-0.1c-0.25,0.1 -0.37,0.2 -0.7,0.25l-0.02,0.03c-0.02,0.35 -0.04,0.7 -0.04,1.28Z" style="fill-rule:nonzero;stroke:#000;stroke-width:0.24px;stroke-linecap:butt;stroke-linejoin:round;stroke-miterlimit:2;"/><path d="M139.573,26.493c-0.35,0.38 -0.82,0.55 -1.37,0.55c-0.34,-0 -0.81,-0.13 -1.09,-0.57c-0.18,-0.28 -0.24,-0.69 -0.24,-1.27l2.72,-0c0.11,-0 0.18,-0.06 0.18,-0.17c-0,-0.84 -0.41,-1.89 -1.73,-1.89c-1.03,-0 -2.05,0.83 -2.05,2.3c-0,0.57 0.12,1.13 0.45,1.53c0.34,0.41 0.92,0.66 1.59,0.66c0.72,-0 1.36,-0.37 1.74,-0.89l-0.2,-0.25Zm-2.67,-1.69c0.17,-1.04 0.83,-1.26 1.14,-1.26c0.4,-0 0.84,0.37 0.84,1.12c-0,0.09 -0.04,0.14 -0.14,0.14l-1.84,-0Z" style="fill-rule:nonzero;stroke:#000;stroke-width:0.24px;stroke-linecap:butt;stroke-linejoin:round;stroke-miterlimit:2;"/><g id="Node"><path d="M41.655,1.657l39.748,22.972l-39.748,22.972l-39.748,-22.972l39.748,-22.972Z" style="fill:#fff;fill-opacity:0;stroke:#000;stroke-width:0.65px;stroke-miterlimit:5;"/><path d="M41.695,47.601l0.597,46.462l39.581,-23.024l-0.094,-46.239" style="fill:none;stroke:#000;stroke-width:0.65px;stroke-miterlimit:5;"/><path d="M41.844,94.15l-40.179,-23.139l-0.008,-46.284" style="fill:none;stroke:#000;stroke-width:0.65px;stroke-miterlimit:5;"/><g><path d="M77.445,47.113l-0.008,10.532l-29.417,16.677l0.008,-10.532l29.417,-16.677Z" style="fill:#fff;fill-opacity:0;stroke:#000;stroke-width:0.55px;stroke-linejoin:round;stroke-miterlimit:1.5;"/><path d="M59.291,63.728l0,-1.021c0.001,-0.966 -0.339,-1.168 -0.966,-0.813c-0.355,0.201 -0.773,0.723 -1.093,1.447l-0.028,-0.012c0,-0.211 -0.006,-0.594 -0.02,-0.659c-0.007,-0.061 -0.021,-0.081 -0.063,-0.057c-0.202,0.161 -0.654,0.417 -0.898,0.537l-0.014,0.035c0.056,0.364 0.076,1.052 0.076,1.742l-0.001,0.506c-0,0.69 -0.015,1.167 -0.078,1.699l0.014,0.02c0,-0 0.327,-0.213 0.571,-0.351c0.237,-0.134 0.431,-0.217 0.431,-0.217l0.021,-0.04c-0.034,-0.504 -0.041,-0.933 -0.04,-1.632l0.001,-0.939c0.264,-0.609 0.557,-1.051 0.807,-1.193c0.188,-0.107 0.362,-0.021 0.362,0.65l-0.001,0.819c-0,0.69 -0.001,1.168 -0.043,1.68l0.014,0.019c-0,0 0.223,-0.153 0.466,-0.291c0.237,-0.135 0.543,-0.281 0.543,-0.281l0.014,-0.035c-0.062,-0.489 -0.076,-0.914 -0.075,-1.613Z" style="fill-rule:nonzero;stroke:#000;stroke-width:0.24px;stroke-linecap:butt;stroke-linejoin:round;stroke-miterlimit:2;"/><path d="M60.189,62.989c-0.001,1.224 0.645,1.611 1.682,1.024c1.065,-0.604 1.685,-1.746 1.686,-3.016c0.001,-1.159 -0.492,-1.79 -1.669,-1.123c-0.995,0.564 -1.698,1.689 -1.699,3.115Zm1.65,-2.628c0.592,-0.335 0.731,0.166 0.73,1.445c-0.001,1.058 -0.287,1.514 -0.6,1.691c-0.724,0.411 -0.793,-0.571 -0.792,-1.28c0.001,-0.8 0.064,-1.516 0.662,-1.856Z" style="fill-rule:nonzero;stroke:#000;stroke-width:0.24px;stroke-linecap:butt;stroke-linejoin:round;stroke-miterlimit:2;"/><path d="M66.486,60.808l0.014,-0.008l0.034,0.477c0,0.019 0.021,0.016 0.063,-0.008c0.09,-0.069 0.341,-0.221 0.445,-0.28c0.084,-0.047 0.39,-0.212 0.48,-0.245l0.014,-0.035c-0.055,-0.364 -0.131,-1.001 -0.131,-1.691l0.003,-2.834c0,-0.681 0.028,-1.184 0.085,-1.777c-0,-0.065 -0.035,-0.072 -0.077,-0.049c-0.174,0.191 -0.71,0.679 -0.995,0.868l-0.014,0.036c0.055,0.364 0.082,0.983 0.082,1.682l-0.001,0.736c-0.132,-0.174 -0.452,-0.158 -0.654,-0.043c-0.466,0.264 -0.716,0.526 -1.037,1.011c-0.432,0.658 -0.599,1.425 -0.6,2.087c-0.001,1.132 0.521,1.664 1.293,1.226c0.439,-0.249 0.808,-0.623 0.996,-1.153Zm0,-0.727c-0.167,0.684 -0.39,1.003 -0.675,1.165c-0.376,0.213 -0.626,-0.087 -0.625,-1.237c0.001,-1.242 0.307,-1.719 0.641,-1.908c0.327,-0.186 0.591,-0.023 0.661,0.416l-0.002,1.564Z" style="fill-rule:nonzero;stroke:#000;stroke-width:0.24px;stroke-linecap:butt;stroke-linejoin:round;stroke-miterlimit:2;"/><path d="M71.121,57.693c-0.32,0.522 -0.661,0.752 -0.954,0.917c-0.341,0.194 -0.591,0.216 -0.758,0.072c-0.153,-0.134 -0.229,-0.413 -0.229,-0.836l0.696,-0.395c0.696,-0.394 1.288,-0.711 1.288,-0.711l0.041,-0.079c0.001,-1.15 -0.241,-1.932 -1.313,-1.324c-0.383,0.217 -0.801,0.61 -1.072,1.067c-0.342,0.561 -0.572,1.244 -0.572,2.007c-0.001,0.543 0.152,1.027 0.437,1.261c0.236,0.187 0.647,0.111 1.169,-0.185c0.501,-0.284 1.002,-0.78 1.378,-1.572c0,-0.12 -0.041,-0.262 -0.111,-0.222Zm-1.913,-0.277c0.029,-0.467 0.112,-0.836 0.217,-1.079c0.084,-0.204 0.223,-0.402 0.418,-0.513c0.285,-0.162 0.452,0.167 0.451,0.977l-1.086,0.615Z" style="fill-rule:nonzero;stroke:#000;stroke-width:0.24px;stroke-linecap:butt;stroke-linejoin:round;stroke-miterlimit:2;"/></g></g><g id="Raw-response" serif:id="Raw response"><rect x="113.454" y="57.031" width="12.583" height="14.279" style="fill:#fff;fill-opacity:0;stroke:#000;stroke-width:0.55px;stroke-linejoin:round;stroke-miterlimit:1.5;"/><path d="M118.251,65.23c0.38,-0.01 0.97,-0.02 1.33,-0.02c0.32,0 0.67,0.01 1,0.01c0.46,1.26 0.68,2.01 0.74,2.23c0.17,-0.03 0.64,-0.03 0.81,-0.03c0.17,0 0.74,0 0.91,0.03c-0.5,-1.01 -1.88,-4.37 -2.74,-6.56l-0.9,0c-0.96,2.22 -1.94,4.35 -2.95,6.56c0.12,-0.03 0.45,-0.03 0.56,-0.03c0.11,0 0.33,0 0.45,0.03c0.16,-0.59 0.45,-1.38 0.79,-2.22Zm2.12,-0.56c-0.29,0 -0.6,0.01 -0.84,0.01c-0.29,0 -0.73,-0.01 -1.04,-0.02l0.93,-2.18l0.06,0c0.36,0.82 0.64,1.55 0.89,2.19Z" style="fill-rule:nonzero;stroke:#000;stroke-width:0.24px;stroke-linecap:butt;stroke-linejoin:round;stroke-miterlimit:2;"/></g><g id="Transformed-response" serif:id="Transformed response"><rect x="96.405" y="32.307" width="12.583" height="14.279" style="fill:#fff;fill-opacity:0;stroke:#000;stroke-width:0.55px;stroke-linejoin:round;stroke-miterlimit:1.5;"/><path d="M101.979,38.77l0,2.36c0,0.75 -0.02,1.46 -0.1,2l0.01,0.03c0,0 0.46,-0.03 0.81,-0.03c0.34,0 0.8,0.03 0.8,0.03l0.02,-0.03c-0.08,-0.57 -0.1,-1.25 -0.1,-2l0,-2.36c0,-0.17 0.01,-1.07 0.08,-1.31c1.34,0 2.04,0.22 2.04,0.22l0.02,-0.04c-0.02,-0.15 -0.02,-0.68 0,-0.96l-0.02,-0.03c-0.16,0.02 -0.39,0.03 -0.6,0.03l-4.48,0c-0.21,0 -0.44,-0.01 -0.6,-0.03l-0.02,0.03c0.02,0.28 0.02,0.81 0,0.96l0.02,0.04c0,0 0.7,-0.22 2.04,-0.22c0.07,0.24 0.08,1.14 0.08,1.31Z" style="fill-rule:nonzero;stroke:#000;stroke-width:0.24px;stroke-linecap:butt;stroke-linejoin:round;stroke-miterlimit:2;"/></g><g id="Transformed-response1" serif:id="Transformed response"><rect x="130.504" y="32.307" width="12.583" height="14.279" style="fill:#fff;fill-opacity:0;stroke:#000;stroke-width:0.55px;stroke-linejoin:round;stroke-miterlimit:1.5;"/><path d="M136.078,38.77l-0,2.36c-0,0.75 -0.02,1.46 -0.1,2l0.01,0.03c-0,0 0.46,-0.03 0.81,-0.03c0.34,0 0.8,0.03 0.8,0.03l0.02,-0.03c-0.08,-0.57 -0.1,-1.25 -0.1,-2l-0,-2.36c-0,-0.17 0.01,-1.07 0.08,-1.31c1.34,0 2.04,0.22 2.04,0.22l0.02,-0.04c-0.02,-0.15 -0.02,-0.68 -0,-0.96l-0.02,-0.03c-0.16,0.02 -0.39,0.03 -0.6,0.03l-4.48,0c-0.21,0 -0.44,-0.01 -0.6,-0.03l-0.02,0.03c0.02,0.28 0.02,0.81 -0,0.96l0.02,0.04c-0,0 0.7,-0.22 2.04,-0.22c0.07,0.24 0.08,1.14 0.08,1.31Z" style="fill-rule:nonzero;stroke:#000;stroke-width:0.24px;stroke-linecap:butt;stroke-linejoin:round;stroke-miterlimit:2;"/></g><g id="Transformed-response2" serif:id="Transformed response"><rect x="113.454" y="32.307" width="12.583" height="14.279" style="fill:#fff;fill-opacity:0;stroke:#000;stroke-width:0.55px;stroke-linejoin:round;stroke-miterlimit:1.5;"/><path d="M119.029,38.77l-0,2.36c-0,0.75 -0.02,1.46 -0.1,2l0.01,0.03c-0,0 0.46,-0.03 0.81,-0.03c0.34,0 0.8,0.03 0.8,0.03l0.02,-0.03c-0.08,-0.57 -0.1,-1.25 -0.1,-2l-0,-2.36c-0,-0.17 0.01,-1.07 0.08,-1.31c1.34,0 2.04,0.22 2.04,0.22l0.02,-0.04c-0.02,-0.15 -0.02,-0.68 -0,-0.96l-0.02,-0.03c-0.16,0.02 -0.39,0.03 -0.6,0.03l-4.48,0c-0.21,0 -0.44,-0.01 -0.6,-0.03l-0.02,0.03c0.02,0.28 0.02,0.81 -0,0.96l0.02,0.04c-0,0 0.7,-0.22 2.04,-0.22c0.07,0.24 0.08,1.14 0.08,1.31Z" style="fill-rule:nonzero;stroke:#000;stroke-width:0.24px;stroke-linecap:butt;stroke-linejoin:round;stroke-miterlimit:2;"/></g><g id="Canister"><path d="M209.158,29.31l-0,0.089" style="fill:none;stroke:#000;stroke-width:0.65px;stroke-miterlimit:5;"/><path d="M209.083,30.222l-0,45.753c0.007,0.158 0.01,0.316 0.01,0.475c-0,9.472 -11.946,17.163 -26.661,17.163c-14.714,-0 -26.66,-7.691 -26.66,-17.163c-0,-0.143 0.003,-0.285 0.008,-0.426l0,-45.89" style="fill:#fff;fill-opacity:0;stroke:#000;stroke-width:0.65px;stroke-miterlimit:5;"/><ellipse cx="182.434" cy="29.751" rx="26.665" ry="17.386" style="fill:#fff;fill-opacity:0;stroke:#000;stroke-width:0.65px;stroke-miterlimit:5;"/><path d="M168.816,61.588c0.39,-0 0.74,0.28 1,0.74l0.13,-0.01l0.23,-0.82l-0.02,-0.03c-0.31,-0.16 -0.83,-0.28 -1.33,-0.28c-1.04,-0 -2.13,0.85 -2.13,2.21c0,1.39 0.79,2.28 2.01,2.28c0.6,-0 1.07,-0.2 1.47,-0.71l-0.19,-0.21l-0.04,-0c-0.38,0.34 -0.7,0.42 -1.07,0.42c-0.73,-0 -1.3,-0.66 -1.3,-1.83c0,-1.1 0.58,-1.76 1.24,-1.76Z" style="fill-rule:nonzero;stroke:#000;stroke-width:0.24px;stroke-linecap:butt;stroke-linejoin:round;stroke-miterlimit:2;"/><path d="M173.706,65.098c0.12,0.39 0.41,0.58 0.78,0.58c0.25,-0 0.56,-0.06 0.8,-0.31l-0.08,-0.25c-0.11,0.04 -0.19,0.05 -0.27,0.05c-0.1,-0 -0.23,-0.01 -0.29,-0.07c-0.1,-0.09 -0.17,-0.34 -0.17,-0.78c0,-0.29 0.03,-1.4 0.03,-1.51c0,-1.35 -0.89,-1.62 -1.65,-1.62c-0.76,-0 -1.22,0.37 -1.47,0.58l-0.03,0.04l0.17,0.67l0.13,0.01c0.28,-0.45 0.62,-0.85 1.1,-0.85c0.36,-0 0.96,0.05 0.96,1.18c0,0.07 -0.04,0.11 -0.07,0.12l-0.93,0.21c-1.02,0.23 -1.66,0.77 -1.66,1.45c0,0.74 0.51,1.08 1.25,1.08c0.55,-0 0.83,-0.13 1.36,-0.58l0.04,-0Zm0,-1.77l-0.04,1.19c0,0.13 -0.06,0.2 -0.14,0.26c-0.28,0.21 -0.62,0.39 -0.92,0.39c-0.45,-0 -0.74,-0.3 -0.74,-0.61c0,-0.45 0.21,-0.79 0.99,-1l0.85,-0.23Z" style="fill-rule:nonzero;stroke:#000;stroke-width:0.24px;stroke-linecap:butt;stroke-linejoin:round;stroke-miterlimit:2;"/><path d="M180.016,63.778c0,-0.32 0.02,-0.69 0.02,-1.01c0,-1.04 -0.34,-1.58 -1.24,-1.58c-0.38,-0 -1.09,0.15 -1.73,0.9l-0.02,-0.03l0,-0.73c0,-0.08 -0.01,-0.1 -0.06,-0.1c-0.22,0.04 -0.58,0.05 -0.81,0.03l-0.02,0.03c0.07,0.43 0.09,1.19 0.09,1.94l0,0.55c0,0.75 -0.01,1.26 -0.09,1.8l0.02,0.03c0.12,-0.02 0.35,-0.03 0.47,-0.03c0.12,-0 0.35,0.01 0.47,0.03l0.02,-0.03c-0.08,-0.57 -0.09,-1.04 -0.09,-1.8l0,-1.17c0.51,-0.6 1.09,-0.82 1.45,-0.82c0.51,-0 0.72,0.2 0.72,1.01l0,0.98c0,0.75 -0.02,1.26 -0.09,1.8l0.02,0.03c0.12,-0.02 0.35,-0.03 0.47,-0.03c0.12,-0 0.35,0.01 0.47,0.03l0.02,-0.03c-0.08,-0.57 -0.09,-1.04 -0.09,-1.8Z" style="fill-rule:nonzero;stroke:#000;stroke-width:0.24px;stroke-linecap:butt;stroke-linejoin:round;stroke-miterlimit:2;"/><path d="M181.706,63.228l0,0.55c0,0.75 -0.02,1.26 -0.09,1.8l0.02,0.03c0.12,-0.02 0.35,-0.03 0.47,-0.03c0.12,-0 0.35,0.01 0.47,0.03l0.02,-0.03c-0.07,-0.57 -0.09,-1.04 -0.09,-1.8l0,-0.71c0,-0.75 0.03,-1.11 0.09,-1.72c0,-0.09 -0.01,-0.1 -0.09,-0.1c-0.23,0.02 -0.66,0.03 -0.87,0.01l-0.02,0.03c0.06,0.43 0.09,1.19 0.09,1.94Zm-0.1,-3.62c0,0.27 0.24,0.51 0.51,0.51c0.27,-0 0.51,-0.24 0.51,-0.51c0,-0.27 -0.24,-0.51 -0.51,-0.51c-0.27,-0 -0.51,0.24 -0.51,0.51Z" style="fill-rule:nonzero;stroke:#000;stroke-width:0.24px;stroke-linecap:butt;stroke-linejoin:round;stroke-miterlimit:2;"/><path d="M183.906,64.568l-0.17,0.84c0.57,0.2 1.13,0.27 1.51,0.27c1.38,-0 1.7,-0.82 1.7,-1.37c0,-0.82 -0.65,-1.14 -1.36,-1.31c-0.38,-0.09 -0.93,-0.28 -0.93,-0.78c0,-0.41 0.33,-0.63 0.76,-0.63c0.52,-0 0.84,0.41 1.07,0.68l0.14,-0.01l0.2,-0.74l-0.02,-0.03c-0.29,-0.15 -0.84,-0.3 -1.35,-0.3c-0.74,-0 -1.51,0.39 -1.51,1.22c0,0.8 0.6,1.06 1.2,1.23c0.58,0.16 1.01,0.32 1.01,0.81c0,0.53 -0.39,0.83 -0.92,0.83c-0.48,-0 -0.9,-0.33 -1.18,-0.72l-0.15,0.01Z" style="fill-rule:nonzero;stroke:#000;stroke-width:0.24px;stroke-linecap:butt;stroke-linejoin:round;stroke-miterlimit:2;"/><path d="M188.316,61.288c-0.2,-0 -0.42,-0 -0.54,-0.02c-0.07,0.16 -0.12,0.26 -0.22,0.41l0.05,0.07c0.17,-0.01 0.48,-0.02 0.71,-0.02l0,1.37c0,0.6 -0.03,1.32 -0.03,1.62c0,0.65 0.42,0.96 0.88,0.96c0.42,-0 0.74,-0.1 1.16,-0.37l-0.12,-0.25c-0.31,0.11 -0.54,0.12 -0.79,0.08c-0.24,-0.04 -0.33,-0.28 -0.33,-0.82c0,-0.3 0.03,-0.73 0.03,-1.33l0,-1.26l0.38,-0c0.24,-0 0.59,0.01 0.72,0.02c0.03,-0.16 0.06,-0.26 0.12,-0.41l-0.05,-0.07c-0.18,0.01 -0.47,0.02 -0.7,0.02l-0.47,-0c0,-0.75 0.01,-0.88 0.05,-1.46c0,-0.07 -0.03,-0.1 -0.09,-0.1c-0.25,0.1 -0.37,0.2 -0.7,0.25l-0.02,0.03c-0.02,0.35 -0.04,0.7 -0.04,1.28Z" style="fill-rule:nonzero;stroke:#000;stroke-width:0.24px;stroke-linecap:butt;stroke-linejoin:round;stroke-miterlimit:2;"/><path d="M194.686,64.538c-0.35,0.38 -0.82,0.55 -1.37,0.55c-0.34,-0 -0.81,-0.13 -1.09,-0.57c-0.18,-0.28 -0.24,-0.69 -0.24,-1.27l2.72,-0c0.11,-0 0.18,-0.06 0.18,-0.17c0,-0.84 -0.41,-1.89 -1.73,-1.89c-1.03,-0 -2.05,0.83 -2.05,2.3c0,0.57 0.12,1.13 0.45,1.53c0.34,0.41 0.92,0.66 1.59,0.66c0.72,-0 1.36,-0.37 1.74,-0.89l-0.2,-0.25Zm-2.67,-1.69c0.17,-1.04 0.83,-1.26 1.14,-1.26c0.4,-0 0.84,0.37 0.84,1.12c0,0.09 -0.04,0.14 -0.14,0.14l-1.84,-0Z" style="fill-rule:nonzero;stroke:#000;stroke-width:0.24px;stroke-linecap:butt;stroke-linejoin:round;stroke-miterlimit:2;"/><path d="M196.966,62.238l0,-0.91c0,-0.08 -0.01,-0.1 -0.06,-0.1c-0.22,0.04 -0.58,0.05 -0.81,0.03l-0.02,0.03c0.07,0.43 0.09,1.19 0.09,1.94l0,0.55c0,0.75 -0.01,1.26 -0.09,1.8l0.02,0.03c0.12,-0.02 0.35,-0.03 0.47,-0.03c0.12,-0 0.35,0.01 0.47,0.03l0.02,-0.03c-0.07,-0.57 -0.09,-1.04 -0.09,-1.8l0,-0.52c0,-0.42 0.13,-0.66 0.34,-0.99c0.15,-0.22 0.37,-0.35 0.56,-0.35c0.2,-0 0.39,0.02 0.52,0.14l0.08,-0.02l0.2,-0.74l-0.04,-0.04c-0.17,-0.05 -0.18,-0.07 -0.36,-0.07c-0.54,-0 -0.83,0.31 -1.27,1.07l-0.03,-0.02Z" style="fill-rule:nonzero;stroke:#000;stroke-width:0.24px;stroke-linecap:butt;stroke-linejoin:round;stroke-miterlimit:2;"/></g></g></svg>