<?xml version="1.0" encoding="UTF-8" standalone="no"?><!DOCTYPE svg PUBLIC "-//W3C//DTD SVG 1.1//EN" "http://www.w3.org/Graphics/SVG/1.1/DTD/svg11.dtd"><svg width="100%" height="100%" viewBox="0 0 232 197" version="1.1" xmlns="http://www.w3.org/2000/svg" xmlns:xlink="http://www.w3.org/1999/xlink" xml:space="preserve" xmlns:serif="http://www.serif.com/" style="fill-rule:evenodd;clip-rule:evenodd;stroke-linecap:round;stroke-miterlimit:5;"><g id="Aggregated-consensus" serif:id="Aggregated consensus"><g id="Node"><path d="M161.97,1.657l39.748,22.972l-39.748,22.972l-39.748,-22.972l39.748,-22.972Z" style="fill:#fff;fill-opacity:0;stroke:#000;stroke-width:0.65px;"/><path d="M162.01,47.601l0.597,46.462l39.581,-23.024l-0.094,-46.239" style="fill:none;stroke:#000;stroke-width:0.65px;"/><path d="M162.159,94.15l-40.179,-23.139l-0.008,-46.284" style="fill:none;stroke:#000;stroke-width:0.65px;"/><g><path d="M197.76,47.113l-0.008,10.532l-29.417,16.677l0.008,-10.532l29.417,-16.677Z" style="fill:#fff;fill-opacity:0;stroke:#000;stroke-width:0.55px;stroke-linejoin:round;stroke-miterlimit:1.5;"/><path d="M179.606,63.728l0,-1.021c0.001,-0.966 -0.339,-1.168 -0.966,-0.813c-0.355,0.201 -0.773,0.723 -1.093,1.447l-0.028,-0.012c0,-0.211 -0.006,-0.594 -0.02,-0.659c-0.007,-0.061 -0.021,-0.081 -0.063,-0.057c-0.202,0.161 -0.654,0.417 -0.898,0.537l-0.014,0.035c0.056,0.364 0.076,1.052 0.076,1.742l-0.001,0.506c-0,0.69 -0.015,1.167 -0.078,1.699l0.014,0.02c0,-0 0.327,-0.213 0.571,-0.351c0.237,-0.134 0.431,-0.217 0.431,-0.217l0.021,-0.04c-0.034,-0.504 -0.041,-0.933 -0.04,-1.632l0.001,-0.939c0.264,-0.609 0.557,-1.051 0.807,-1.193c0.188,-0.107 0.362,-0.021 0.362,0.65l-0.001,0.819c-0.001,0.69 -0.001,1.168 -0.043,1.68l0.014,0.019c-0,0 0.223,-0.153 0.466,-0.291c0.237,-0.135 0.543,-0.281 0.543,-0.281l0.014,-0.035c-0.062,-0.489 -0.076,-0.914 -0.075,-1.613Z" style="fill-rule:nonzero;stroke:#000;stroke-width:0.24px;stroke-linecap:butt;stroke-linejoin:round;stroke-miterlimit:2;"/><path d="M180.504,62.989c-0.001,1.224 0.645,1.611 1.682,1.024c1.065,-0.604 1.685,-1.746 1.686,-3.016c0.001,-1.159 -0.492,-1.79 -1.669,-1.123c-0.995,0.564 -1.698,1.689 -1.699,3.115Zm1.65,-2.628c0.592,-0.335 0.731,0.166 0.73,1.445c-0.001,1.058 -0.287,1.514 -0.6,1.691c-0.724,0.411 -0.793,-0.571 -0.792,-1.28c0.001,-0.8 0.064,-1.516 0.662,-1.856Z" style="fill-rule:nonzero;stroke:#000;stroke-width:0.24px;stroke-linecap:butt;stroke-linejoin:round;stroke-miterlimit:2;"/><path d="M186.801,60.808l0.014,-0.008l0.034,0.477c0,0.019 0.021,0.016 0.063,-0.008c0.09,-0.069 0.341,-0.221 0.445,-0.28c0.084,-0.047 0.39,-0.212 0.48,-0.245l0.014,-0.035c-0.055,-0.364 -0.131,-1.001 -0.131,-1.691l0.003,-2.834c0,-0.681 0.028,-1.184 0.085,-1.777c-0,-0.065 -0.035,-0.072 -0.077,-0.049c-0.174,0.191 -0.71,0.679 -0.995,0.868l-0.014,0.036c0.055,0.364 0.082,0.983 0.082,1.682l-0.001,0.736c-0.132,-0.174 -0.452,-0.158 -0.654,-0.043c-0.466,0.264 -0.717,0.526 -1.037,1.011c-0.432,0.658 -0.599,1.425 -0.6,2.087c-0.001,1.132 0.521,1.664 1.293,1.226c0.439,-0.249 0.808,-0.623 0.996,-1.153Zm0,-0.727c-0.167,0.684 -0.39,1.003 -0.675,1.165c-0.376,0.213 -0.626,-0.087 -0.625,-1.237c0.001,-1.242 0.307,-1.719 0.641,-1.908c0.327,-0.186 0.591,-0.023 0.661,0.416l-0.002,1.564Z" style="fill-rule:nonzero;stroke:#000;stroke-width:0.24px;stroke-linecap:butt;stroke-linejoin:round;stroke-miterlimit:2;"/><path d="M191.436,57.693c-0.32,0.522 -0.661,0.752 -0.954,0.917c-0.341,0.194 -0.591,0.216 -0.758,0.072c-0.153,-0.134 -0.229,-0.413 -0.229,-0.836l0.696,-0.395c0.696,-0.394 1.288,-0.711 1.288,-0.711l0.041,-0.079c0.001,-1.15 -0.242,-1.932 -1.313,-1.324c-0.383,0.217 -0.801,0.61 -1.072,1.067c-0.342,0.561 -0.572,1.244 -0.572,2.007c-0.001,0.543 0.152,1.027 0.437,1.261c0.236,0.187 0.647,0.111 1.169,-0.185c0.501,-0.284 1.002,-0.78 1.378,-1.572c0,-0.12 -0.041,-0.262 -0.111,-0.222Zm-1.913,-0.277c0.029,-0.467 0.112,-0.836 0.217,-1.079c0.084,-0.204 0.223,-0.402 0.418,-0.513c0.285,-0.162 0.452,0.167 0.451,0.977l-1.086,0.615Z" style="fill-rule:nonzero;stroke:#000;stroke-width:0.24px;stroke-linecap:butt;stroke-linejoin:round;stroke-miterlimit:2;"/></g></g><g id="Node1" serif:id="Node"><path d="M41.655,71.121l39.748,22.972l-39.748,22.971l-39.748,-22.971l39.748,-22.972Z" style="fill:#fff;fill-opacity:0;stroke:#000;stroke-width:0.65px;"/><path d="M41.695,117.064l0.597,46.463l39.581,-23.024l-0.094,-46.24" style="fill:none;stroke:#000;stroke-width:0.65px;"/><path d="M41.844,163.614l-40.179,-23.139l-0.008,-46.284" style="fill:none;stroke:#000;stroke-width:0.65px;"/><g><path d="M77.445,116.577l-0.008,10.532l-29.417,16.677l0.008,-10.532l29.417,-16.677Z" style="fill:#fff;fill-opacity:0;stroke:#000;stroke-width:0.55px;stroke-linejoin:round;stroke-miterlimit:1.5;"/><path d="M59.291,133.192l0,-1.021c0.001,-0.966 -0.339,-1.168 -0.966,-0.813c-0.355,0.201 -0.773,0.723 -1.093,1.447l-0.028,-0.012c0,-0.211 -0.006,-0.594 -0.02,-0.659c-0.007,-0.061 -0.021,-0.081 -0.063,-0.057c-0.202,0.16 -0.654,0.417 -0.898,0.537l-0.014,0.035c0.056,0.364 0.076,1.052 0.076,1.742l-0.001,0.506c-0,0.69 -0.015,1.167 -0.078,1.699l0.014,0.02c0,-0 0.327,-0.213 0.571,-0.351c0.237,-0.135 0.431,-0.217 0.431,-0.217l0.021,-0.04c-0.034,-0.505 -0.041,-0.933 -0.04,-1.632l0.001,-0.939c0.264,-0.61 0.557,-1.051 0.807,-1.193c0.188,-0.107 0.362,-0.022 0.362,0.65l-0.001,0.819c-0,0.69 -0.001,1.168 -0.043,1.68l0.014,0.019c-0,0 0.223,-0.153 0.466,-0.292c0.237,-0.134 0.543,-0.28 0.543,-0.28l0.014,-0.035c-0.062,-0.489 -0.076,-0.914 -0.075,-1.613Z" style="fill-rule:nonzero;stroke:#000;stroke-width:0.24px;stroke-linecap:butt;stroke-linejoin:round;stroke-miterlimit:2;"/><path d="M60.189,132.453c-0.001,1.224 0.645,1.611 1.682,1.023c1.065,-0.603 1.685,-1.746 1.686,-3.015c0.001,-1.159 -0.492,-1.79 -1.669,-1.123c-0.995,0.564 -1.698,1.689 -1.699,3.115Zm1.65,-2.628c0.592,-0.335 0.731,0.166 0.73,1.444c-0.001,1.058 -0.287,1.515 -0.6,1.692c-0.724,0.411 -0.793,-0.571 -0.792,-1.28c0.001,-0.8 0.064,-1.516 0.662,-1.856Z" style="fill-rule:nonzero;stroke:#000;stroke-width:0.24px;stroke-linecap:butt;stroke-linejoin:round;stroke-miterlimit:2;"/><path d="M66.486,130.272l0.014,-0.008l0.034,0.477c0,0.018 0.021,0.016 0.063,-0.008c0.09,-0.07 0.341,-0.221 0.445,-0.28c0.084,-0.047 0.39,-0.212 0.48,-0.245l0.014,-0.035c-0.055,-0.364 -0.131,-1.002 -0.131,-1.692l0.003,-2.833c0,-0.681 0.028,-1.185 0.085,-1.777c-0,-0.065 -0.035,-0.073 -0.077,-0.049c-0.174,0.191 -0.71,0.679 -0.995,0.868l-0.014,0.035c0.055,0.364 0.082,0.983 0.082,1.683l-0.001,0.736c-0.132,-0.174 -0.452,-0.158 -0.654,-0.043c-0.466,0.264 -0.716,0.526 -1.037,1.011c-0.432,0.658 -0.599,1.425 -0.6,2.087c-0.001,1.132 0.521,1.664 1.293,1.226c0.439,-0.249 0.808,-0.623 0.996,-1.153Zm0,-0.727c-0.167,0.683 -0.39,1.003 -0.675,1.165c-0.376,0.213 -0.626,-0.087 -0.625,-1.237c0.001,-1.242 0.307,-1.719 0.641,-1.908c0.327,-0.186 0.591,-0.023 0.661,0.416l-0.002,1.564Z" style="fill-rule:nonzero;stroke:#000;stroke-width:0.24px;stroke-linecap:butt;stroke-linejoin:round;stroke-miterlimit:2;"/><path d="M71.121,127.157c-0.32,0.521 -0.661,0.752 -0.954,0.917c-0.341,0.194 -0.591,0.216 -0.758,0.072c-0.153,-0.134 -0.229,-0.413 -0.229,-0.836l0.696,-0.395c0.696,-0.394 1.288,-0.711 1.288,-0.711l0.041,-0.079c0.001,-1.15 -0.241,-1.932 -1.313,-1.325c-0.383,0.217 -0.801,0.611 -1.072,1.068c-0.342,0.561 -0.572,1.244 -0.572,2.007c-0.001,0.543 0.152,1.027 0.437,1.26c0.236,0.188 0.647,0.112 1.169,-0.184c0.501,-0.284 1.002,-0.78 1.378,-1.572c0,-0.12 -0.041,-0.262 -0.111,-0.222Zm-1.913,-0.277c0.029,-0.467 0.112,-0.836 0.217,-1.079c0.084,-0.204 0.223,-0.403 0.418,-0.513c0.285,-0.162 0.452,0.167 0.451,0.976l-1.086,0.616Z" style="fill-rule:nonzero;stroke:#000;stroke-width:0.24px;stroke-linecap:butt;stroke-linejoin:round;stroke-miterlimit:2;"/></g></g><g id="Node2" serif:id="Node"><path d="M159.287,95.785l39.748,22.972l-39.748,22.972l-39.748,-22.972l39.748,-22.972Z" style="fill:#fff;fill-opacity:0;stroke:#000;stroke-width:0.65px;"/><path d="M159.327,141.729l0.597,46.462l39.581,-23.024l-0.094,-46.239" style="fill:none;stroke:#000;stroke-width:0.65px;"/><path d="M159.476,188.278l-40.179,-23.139l-0.008,-46.284" style="fill:none;stroke:#000;stroke-width:0.65px;"/><g><path d="M195.078,141.241l-0.009,10.532l-29.417,16.677l0.008,-10.531l29.418,-16.678Z" style="fill:#fff;fill-opacity:0;stroke:#000;stroke-width:0.55px;stroke-linejoin:round;stroke-miterlimit:1.5;"/><path d="M176.923,157.856l0.001,-1.021c0,-0.966 -0.34,-1.168 -0.967,-0.813c-0.355,0.201 -0.772,0.723 -1.093,1.447l-0.028,-0.012c0,-0.211 -0.006,-0.594 -0.02,-0.659c-0.007,-0.061 -0.021,-0.08 -0.063,-0.057c-0.201,0.161 -0.654,0.417 -0.897,0.537l-0.014,0.035c0.055,0.364 0.075,1.052 0.075,1.742l-0.001,0.506c-0,0.69 -0.014,1.167 -0.077,1.699l0.013,0.02c0,-0 0.328,-0.213 0.571,-0.351c0.237,-0.134 0.432,-0.217 0.432,-0.217l0.02,-0.04c-0.034,-0.504 -0.041,-0.933 -0.04,-1.632l0.001,-0.938c0.265,-0.61 0.557,-1.052 0.808,-1.194c0.188,-0.107 0.361,-0.021 0.361,0.65l-0.001,0.819c-0,0.69 -0.001,1.169 -0.043,1.68l0.014,0.02c0,-0 0.223,-0.154 0.466,-0.292c0.237,-0.135 0.543,-0.281 0.543,-0.281l0.014,-0.035c-0.062,-0.489 -0.076,-0.913 -0.075,-1.613Z" style="fill-rule:nonzero;stroke:#000;stroke-width:0.24px;stroke-linecap:butt;stroke-linejoin:round;stroke-miterlimit:2;"/><path d="M177.821,157.117c-0.001,1.224 0.645,1.611 1.682,1.024c1.065,-0.604 1.685,-1.746 1.686,-3.016c0.001,-1.159 -0.492,-1.79 -1.668,-1.123c-0.996,0.564 -1.699,1.689 -1.7,3.115Zm1.651,-2.628c0.591,-0.335 0.73,0.166 0.729,1.445c-0.001,1.058 -0.287,1.514 -0.6,1.691c-0.724,0.411 -0.792,-0.571 -0.792,-1.28c0.001,-0.8 0.064,-1.516 0.663,-1.856Z" style="fill-rule:nonzero;stroke:#000;stroke-width:0.24px;stroke-linecap:butt;stroke-linejoin:round;stroke-miterlimit:2;"/><path d="M184.118,154.936l0.014,-0.008l0.034,0.477c0,0.019 0.021,0.016 0.063,-0.008c0.09,-0.069 0.341,-0.221 0.445,-0.28c0.084,-0.047 0.39,-0.212 0.481,-0.244l0.013,-0.036c-0.055,-0.364 -0.131,-1.001 -0.13,-1.691l0.002,-2.834c0,-0.681 0.029,-1.184 0.085,-1.777c-0,-0.065 -0.035,-0.072 -0.077,-0.049c-0.174,0.191 -0.71,0.679 -0.995,0.868l-0.014,0.036c0.055,0.364 0.083,0.983 0.082,1.682l-0.001,0.736c-0.132,-0.174 -0.452,-0.158 -0.653,-0.043c-0.467,0.264 -0.717,0.526 -1.038,1.011c-0.431,0.658 -0.599,1.425 -0.6,2.087c-0,1.132 0.521,1.664 1.293,1.226c0.439,-0.249 0.808,-0.623 0.996,-1.153Zm0.001,-0.727c-0.168,0.684 -0.391,1.003 -0.676,1.165c-0.376,0.213 -0.626,-0.087 -0.625,-1.237c0.001,-1.242 0.307,-1.719 0.641,-1.908c0.327,-0.186 0.592,-0.023 0.661,0.416l-0.001,1.564Z" style="fill-rule:nonzero;stroke:#000;stroke-width:0.24px;stroke-linecap:butt;stroke-linejoin:round;stroke-miterlimit:2;"/><path d="M188.753,151.821c-0.32,0.522 -0.661,0.752 -0.953,0.917c-0.341,0.194 -0.592,0.216 -0.759,0.072c-0.153,-0.134 -0.229,-0.413 -0.229,-0.836l0.696,-0.395c0.696,-0.394 1.288,-0.711 1.288,-0.711l0.042,-0.079c0.001,-1.15 -0.242,-1.932 -1.314,-1.324c-0.383,0.217 -0.801,0.61 -1.072,1.067c-0.341,0.562 -0.572,1.244 -0.572,2.007c-0.001,0.543 0.152,1.027 0.437,1.261c0.236,0.188 0.647,0.111 1.169,-0.185c0.501,-0.284 1.002,-0.78 1.378,-1.572c0.001,-0.12 -0.041,-0.262 -0.111,-0.222Zm-1.912,-0.277c0.028,-0.467 0.112,-0.836 0.216,-1.079c0.084,-0.204 0.223,-0.402 0.418,-0.513c0.285,-0.162 0.452,0.167 0.451,0.977l-1.085,0.615Z" style="fill-rule:nonzero;stroke:#000;stroke-width:0.24px;stroke-linecap:butt;stroke-linejoin:round;stroke-miterlimit:2;"/></g></g><g id="Certified-A" serif:id="Certified A"><g><path d="M81.98,54.673c-0,-0.327 0.265,-0.593 0.592,-0.593c0.327,0 0.593,0.266 0.593,0.593c0.163,-0.283 0.526,-0.381 0.809,-0.217c0.283,0.163 0.38,0.526 0.217,0.809c0.283,-0.163 0.645,-0.066 0.809,0.217c0.163,0.283 0.066,0.646 -0.217,0.809c0.327,0 0.592,0.265 0.592,0.592c0,0.327 -0.265,0.593 -0.592,0.593c0.283,0.163 0.38,0.526 0.217,0.809c-0.164,0.283 -0.526,0.38 -0.809,0.217c0.163,0.283 0.066,0.645 -0.217,0.809c-0.283,0.163 -0.646,0.066 -0.809,-0.217c-0,0.327 -0.266,0.592 -0.593,0.592c-0.327,0 -0.592,-0.265 -0.592,-0.592c-0.164,0.283 -0.526,0.38 -0.809,0.217c-0.283,-0.164 -0.381,-0.526 -0.217,-0.809c-0.283,0.163 -0.646,0.066 -0.809,-0.217c-0.164,-0.283 -0.067,-0.646 0.217,-0.809c-0.327,-0 -0.593,-0.266 -0.593,-0.593c0,-0.327 0.266,-0.592 0.593,-0.592c-0.284,-0.163 -0.381,-0.526 -0.217,-0.809c0.163,-0.283 0.526,-0.38 0.809,-0.217c-0.164,-0.283 -0.066,-0.646 0.217,-0.809c0.283,-0.164 0.645,-0.066 0.809,0.217Z" style="fill:#fff;fill-opacity:0;stroke:#000;stroke-width:0.55px;stroke-linejoin:round;stroke-miterlimit:1.5;"/><g><path d="M80.591,58.664l-1.652,2.42l1.206,-0.265" style="fill:none;stroke:#000;stroke-width:0.55px;stroke-linejoin:round;stroke-miterlimit:1.5;"/><path d="M81.95,59.3l-1.226,2.66l-0.394,-1.17" style="fill:none;stroke:#000;stroke-width:0.55px;stroke-linejoin:round;stroke-miterlimit:1.5;"/></g><g><path d="M83.121,59.622l1.437,2.553l0.298,-1.198" style="fill:none;stroke:#000;stroke-width:0.55px;stroke-linejoin:round;stroke-miterlimit:1.5;"/><path d="M84.293,58.685l1.842,2.279l-1.223,-0.166" style="fill:none;stroke:#000;stroke-width:0.55px;stroke-linejoin:round;stroke-miterlimit:1.5;"/></g></g><path d="M79.96,57.118l-10.034,-0l0,-14.279l12.584,-0l-0,11.349c-0.214,0.089 -0.364,0.301 -0.364,0.547c-0.164,-0.284 -0.526,-0.381 -0.81,-0.217c-0.283,0.163 -0.38,0.526 -0.216,0.809c-0.284,-0.164 -0.646,-0.066 -0.81,0.217c-0.163,0.283 -0.066,0.645 0.217,0.809c-0.327,-0 -0.592,0.265 -0.592,0.592c-0,0.06 0.009,0.118 0.025,0.173Z" style="fill:#fff;fill-opacity:0;stroke:#000;stroke-width:0.55px;stroke-linejoin:round;stroke-miterlimit:1.5;"/><path d="M74.723,51.038c0.38,-0.01 0.97,-0.02 1.33,-0.02c0.32,0 0.67,0.01 1,0.01c0.46,1.26 0.68,2.01 0.74,2.23c0.17,-0.03 0.64,-0.03 0.81,-0.03c0.17,0 0.74,0 0.91,0.03c-0.5,-1.01 -1.88,-4.37 -2.74,-6.56l-0.9,0c-0.96,2.22 -1.94,4.35 -2.95,6.56c0.12,-0.03 0.45,-0.03 0.56,-0.03c0.11,0 0.33,0 0.45,0.03c0.16,-0.59 0.45,-1.38 0.79,-2.22Zm2.12,-0.56c-0.29,0 -0.6,0.01 -0.84,0.01c-0.29,0 -0.73,-0.01 -1.04,-0.02l0.93,-2.18l0.06,0c0.36,0.82 0.64,1.55 0.89,2.19Z" style="fill-rule:nonzero;stroke:#000;stroke-width:0.24px;stroke-linecap:butt;stroke-linejoin:round;stroke-miterlimit:2;"/></g><g id="Certified-A1" serif:id="Certified A"><g><path d="M79.465,189.057c0,-0.327 0.265,-0.592 0.592,-0.592c0.327,-0 0.593,0.265 0.593,0.592c0.163,-0.283 0.526,-0.38 0.809,-0.217c0.283,0.164 0.38,0.526 0.217,0.809c0.283,-0.163 0.645,-0.066 0.809,0.217c0.163,0.283 0.066,0.646 -0.217,0.809c0.327,0 0.592,0.266 0.592,0.593c0,0.327 -0.265,0.592 -0.592,0.592c0.283,0.164 0.38,0.526 0.217,0.809c-0.164,0.283 -0.526,0.381 -0.809,0.217c0.163,0.283 0.066,0.646 -0.217,0.809c-0.283,0.164 -0.646,0.067 -0.809,-0.217c-0,0.327 -0.266,0.593 -0.593,0.593c-0.327,-0 -0.592,-0.266 -0.592,-0.593c-0.163,0.284 -0.526,0.381 -0.809,0.217c-0.283,-0.163 -0.38,-0.526 -0.217,-0.809c-0.283,0.164 -0.646,0.066 -0.809,-0.217c-0.164,-0.283 -0.066,-0.645 0.217,-0.809c-0.327,0 -0.593,-0.265 -0.593,-0.592c0,-0.327 0.266,-0.593 0.593,-0.593c-0.283,-0.163 -0.381,-0.526 -0.217,-0.809c0.163,-0.283 0.526,-0.38 0.809,-0.217c-0.163,-0.283 -0.066,-0.645 0.217,-0.809c0.283,-0.163 0.646,-0.066 0.809,0.217Z" style="fill:#fff;fill-opacity:0;stroke:#000;stroke-width:0.55px;stroke-linejoin:round;stroke-miterlimit:1.5;"/><g><path d="M78.076,193.048l-1.651,2.42l1.205,-0.264" style="fill:none;stroke:#000;stroke-width:0.55px;stroke-linejoin:round;stroke-miterlimit:1.5;"/><path d="M79.435,193.684l-1.226,2.661l-0.394,-1.17" style="fill:none;stroke:#000;stroke-width:0.55px;stroke-linejoin:round;stroke-miterlimit:1.5;"/></g><g><path d="M80.606,194.006l1.437,2.553l0.298,-1.198" style="fill:none;stroke:#000;stroke-width:0.55px;stroke-linejoin:round;stroke-miterlimit:1.5;"/><path d="M81.779,193.07l1.841,2.278l-1.223,-0.166" style="fill:none;stroke:#000;stroke-width:0.55px;stroke-linejoin:round;stroke-miterlimit:1.5;"/></g></g><path d="M77.446,191.502l-10.035,0l0,-14.279l12.584,-0l-0,11.349c-0.214,0.09 -0.364,0.301 -0.364,0.547c-0.164,-0.283 -0.526,-0.38 -0.809,-0.217c-0.284,0.164 -0.381,0.526 -0.217,0.809c-0.283,-0.163 -0.646,-0.066 -0.809,0.217c-0.164,0.283 -0.067,0.646 0.216,0.809c-0.327,0 -0.592,0.266 -0.592,0.593c0,0.06 0.009,0.117 0.026,0.172Z" style="fill:#fff;fill-opacity:0;stroke:#000;stroke-width:0.55px;stroke-linejoin:round;stroke-miterlimit:1.5;"/><path d="M72.208,185.422c0.38,-0.01 0.97,-0.02 1.33,-0.02c0.32,0 0.67,0.01 1,0.01c0.46,1.26 0.68,2.01 0.74,2.23c0.17,-0.03 0.64,-0.03 0.81,-0.03c0.17,0 0.74,0 0.91,0.03c-0.5,-1.01 -1.88,-4.37 -2.74,-6.56l-0.9,0c-0.96,2.22 -1.94,4.35 -2.95,6.56c0.12,-0.03 0.45,-0.03 0.56,-0.03c0.11,0 0.33,0 0.45,0.03c0.16,-0.59 0.45,-1.38 0.79,-2.22Zm2.12,-0.56c-0.29,0 -0.6,0.01 -0.84,0.01c-0.29,0 -0.73,-0.01 -1.04,-0.02l0.93,-2.18l0.06,0c0.36,0.82 0.64,1.55 0.89,2.19Z" style="fill-rule:nonzero;stroke:#000;stroke-width:0.24px;stroke-linecap:butt;stroke-linejoin:round;stroke-miterlimit:2;"/></g><g id="Certified-A2" serif:id="Certified A"><g><path d="M227.084,103.829c-0,-0.327 0.265,-0.592 0.592,-0.592c0.327,0 0.592,0.265 0.592,0.592c0.164,-0.283 0.526,-0.38 0.81,-0.216c0.283,0.163 0.38,0.526 0.216,0.809c0.284,-0.164 0.646,-0.067 0.81,0.217c0.163,0.283 0.066,0.645 -0.217,0.809c0.327,-0 0.592,0.265 0.592,0.592c0,0.327 -0.265,0.592 -0.592,0.592c0.283,0.164 0.38,0.526 0.217,0.81c-0.164,0.283 -0.526,0.38 -0.81,0.216c0.164,0.283 0.067,0.646 -0.216,0.81c-0.284,0.163 -0.646,0.066 -0.81,-0.217c0,0.327 -0.265,0.592 -0.592,0.592c-0.327,0 -0.592,-0.265 -0.592,-0.592c-0.164,0.283 -0.526,0.38 -0.809,0.217c-0.284,-0.164 -0.381,-0.527 -0.217,-0.81c-0.283,0.164 -0.646,0.067 -0.809,-0.216c-0.164,-0.284 -0.067,-0.646 0.216,-0.81c-0.326,0 -0.592,-0.265 -0.592,-0.592c0,-0.327 0.266,-0.592 0.592,-0.592c-0.283,-0.164 -0.38,-0.526 -0.216,-0.809c0.163,-0.284 0.526,-0.381 0.809,-0.217c-0.164,-0.283 -0.067,-0.646 0.217,-0.809c0.283,-0.164 0.645,-0.067 0.809,0.216Z" style="fill:#fff;fill-opacity:0;stroke:#000;stroke-width:0.55px;stroke-linejoin:round;stroke-miterlimit:1.5;"/><g><path d="M225.694,107.82l-1.651,2.42l1.206,-0.264" style="fill:none;stroke:#000;stroke-width:0.55px;stroke-linejoin:round;stroke-miterlimit:1.5;"/><path d="M227.054,108.457l-1.227,2.66l-0.393,-1.17" style="fill:none;stroke:#000;stroke-width:0.55px;stroke-linejoin:round;stroke-miterlimit:1.5;"/></g><g><path d="M228.224,108.779l1.438,2.552l0.298,-1.198" style="fill:none;stroke:#000;stroke-width:0.55px;stroke-linejoin:round;stroke-miterlimit:1.5;"/><path d="M229.397,107.842l1.842,2.279l-1.223,-0.166" style="fill:none;stroke:#000;stroke-width:0.55px;stroke-linejoin:round;stroke-miterlimit:1.5;"/></g></g><path d="M225.064,106.274l-10.034,0l0,-14.279l12.583,0l0,11.35c-0.213,0.089 -0.364,0.3 -0.364,0.546c-0.163,-0.283 -0.526,-0.38 -0.809,-0.217c-0.283,0.164 -0.38,0.526 -0.217,0.81c-0.283,-0.164 -0.645,-0.067 -0.809,0.216c-0.163,0.284 -0.066,0.646 0.217,0.81c-0.327,-0 -0.592,0.265 -0.592,0.592c-0,0.06 0.009,0.118 0.025,0.172Z" style="fill:#fff;fill-opacity:0;stroke:#000;stroke-width:0.55px;stroke-linejoin:round;stroke-miterlimit:1.5;"/><path d="M219.827,100.195c0.38,-0.01 0.97,-0.02 1.33,-0.02c0.32,-0 0.67,0.01 1,0.01c0.46,1.26 0.68,2.01 0.74,2.23c0.17,-0.03 0.64,-0.03 0.81,-0.03c0.17,-0 0.74,-0 0.91,0.03c-0.5,-1.01 -1.88,-4.37 -2.74,-6.56l-0.9,-0c-0.96,2.22 -1.94,4.35 -2.95,6.56c0.12,-0.03 0.45,-0.03 0.56,-0.03c0.11,-0 0.33,-0 0.45,0.03c0.16,-0.59 0.45,-1.38 0.79,-2.22Zm2.12,-0.56c-0.29,-0 -0.6,0.01 -0.84,0.01c-0.29,-0 -0.73,-0.01 -1.04,-0.02l0.93,-2.18l0.06,-0c0.36,0.82 0.64,1.55 0.89,2.19Z" style="fill-rule:nonzero;stroke:#000;stroke-width:0.24px;stroke-linecap:butt;stroke-linejoin:round;stroke-miterlimit:2;"/></g><path d="M107.957,166.821l2.208,1.653l-1.653,2.207" style="fill:none;stroke:#000;stroke-width:0.65px;stroke-miterlimit:10;"/><path d="M69.122,156.314c13.018,9.805 26.664,14.158 41.043,12.16" style="fill:none;stroke:#000;stroke-width:0.65px;"/><path d="M65.177,166.876l-0.158,-2.753l2.753,-0.158" style="fill:none;stroke:#000;stroke-width:0.65px;stroke-miterlimit:10;"/><path d="M105.902,176.894c-14.777,2.143 -28.465,-1.779 -40.883,-12.771" style="fill:none;stroke:#000;stroke-width:0.65px;"/><path d="M77.972,82.885l-2.758,-0.037l0.038,-2.758" style="fill:none;stroke:#000;stroke-width:0.65px;stroke-miterlimit:10;"/><path d="M115.552,68.522c-16.294,-0.265 -29.889,4.247 -40.338,14.326" style="fill:none;stroke:#000;stroke-width:0.65px;"/><path d="M106.921,58.28l1.848,2.046l-2.046,1.849" style="fill:none;stroke:#000;stroke-width:0.65px;stroke-miterlimit:10;"/><path d="M68.903,75.986c10.175,-10.929 23.301,-16.447 39.866,-15.66" style="fill:none;stroke:#000;stroke-width:0.65px;"/><path d="M192.668,88.531l-0.769,-2.648l2.648,-0.77" style="fill:none;stroke:#000;stroke-width:0.65px;stroke-miterlimit:10;"/><path d="M194.355,109.497c4.908,-4.025 7.808,-8.487 7.125,-12.955c-0.554,-3.625 -3.467,-7.255 -9.581,-10.659" style="fill:none;stroke:#000;stroke-width:0.65px;"/><path d="M205.276,109.287l-2.731,-0.38l0.38,-2.732" style="fill:none;stroke:#000;stroke-width:0.65px;stroke-miterlimit:10;"/><path d="M201.576,85.184c5.436,3.277 8.949,7.275 8.916,11.795c-0.027,3.667 -2.387,7.679 -7.947,11.928" style="fill:none;stroke:#000;stroke-width:0.65px;"/></g></svg>