<?xml version="1.0" encoding="UTF-8" standalone="no"?><!DOCTYPE svg PUBLIC "-//W3C//DTD SVG 1.1//EN" "http://www.w3.org/Graphics/SVG/1.1/DTD/svg11.dtd"><svg width="100%" height="100%" viewBox="0 0 233 198" version="1.1" xmlns="http://www.w3.org/2000/svg" xmlns:xlink="http://www.w3.org/1999/xlink" xml:space="preserve" xmlns:serif="http://www.serif.com/" style="fill-rule:evenodd;clip-rule:evenodd;stroke-linecap:round;stroke-miterlimit:5;"><g id="Multi-consensus" serif:id="Multi consensus"><g id="Node-box" serif:id="Node box"><path d="M161.541,1.657l39.748,22.972l-39.748,22.972l-39.748,-22.972l39.748,-22.972Z" style="fill:#fff;fill-opacity:0;stroke:#000;stroke-width:0.65px;"/><path d="M161.581,47.601l0.598,46.462l39.58,-23.024l-0.094,-46.239" style="fill:none;stroke:#000;stroke-width:0.65px;"/><path d="M161.73,94.15l-40.178,-23.139l-0.008,-46.284" style="fill:none;stroke:#000;stroke-width:0.65px;"/><path d="M197.332,47.113l-0.008,10.532l-29.418,16.677l0.009,-10.532l29.417,-16.677Z" style="fill:#fff;fill-opacity:0;stroke:#000;stroke-width:0.55px;stroke-linejoin:round;stroke-miterlimit:1.5;"/><path d="M179.177,63.728l0.001,-1.021c0.001,-0.966 -0.34,-1.168 -0.966,-0.813c-0.355,0.201 -0.773,0.723 -1.094,1.447l-0.027,-0.012c-0,-0.211 -0.007,-0.594 -0.021,-0.659c-0.007,-0.061 -0.021,-0.081 -0.062,-0.057c-0.202,0.161 -0.655,0.417 -0.898,0.537l-0.014,0.035c0.055,0.364 0.076,1.052 0.075,1.742l-0,0.506c-0.001,0.69 -0.015,1.167 -0.078,1.699l0.014,0.02c-0,-0 0.327,-0.213 0.57,-0.351c0.237,-0.134 0.432,-0.217 0.432,-0.217l0.021,-0.04c-0.035,-0.504 -0.041,-0.933 -0.041,-1.632l0.001,-0.939c0.265,-0.609 0.557,-1.051 0.808,-1.193c0.188,-0.107 0.362,-0.021 0.361,0.65l-0.001,0.819c-0,0.69 -0,1.168 -0.043,1.68l0.014,0.019c0,0 0.223,-0.153 0.467,-0.291c0.236,-0.135 0.542,-0.281 0.542,-0.281l0.014,-0.035c-0.062,-0.489 -0.075,-0.914 -0.075,-1.613Z" style="fill-rule:nonzero;stroke:#000;stroke-width:0.24px;stroke-linecap:butt;stroke-linejoin:round;stroke-miterlimit:2;"/><path d="M180.075,62.989c-0.001,1.224 0.646,1.611 1.683,1.024c1.064,-0.604 1.684,-1.746 1.685,-3.016c0.001,-1.159 -0.492,-1.79 -1.668,-1.123c-0.995,0.564 -1.699,1.689 -1.7,3.115Zm1.651,-2.628c0.591,-0.335 0.73,0.166 0.729,1.445c-0.001,1.058 -0.286,1.514 -0.6,1.691c-0.723,0.411 -0.792,-0.571 -0.792,-1.28c0.001,-0.8 0.064,-1.516 0.663,-1.856Z" style="fill-rule:nonzero;stroke:#000;stroke-width:0.24px;stroke-linecap:butt;stroke-linejoin:round;stroke-miterlimit:2;"/><path d="M186.372,60.808l0.014,-0.008l0.035,0.477c-0,0.019 0.02,0.016 0.062,-0.008c0.091,-0.069 0.341,-0.221 0.446,-0.28c0.083,-0.047 0.389,-0.212 0.48,-0.245l0.014,-0.035c-0.056,-0.364 -0.132,-1.001 -0.131,-1.691l0.002,-2.834c0.001,-0.681 0.029,-1.184 0.085,-1.777c0,-0.065 -0.035,-0.072 -0.076,-0.049c-0.175,0.191 -0.711,0.679 -0.996,0.868l-0.014,0.036c0.056,0.364 0.083,0.983 0.082,1.682l-0,0.736c-0.132,-0.174 -0.452,-0.158 -0.654,-0.043c-0.466,0.264 -0.717,0.526 -1.037,1.011c-0.432,0.658 -0.6,1.425 -0.6,2.087c-0.001,1.132 0.52,1.664 1.293,1.226c0.438,-0.249 0.807,-0.623 0.995,-1.153Zm0.001,-0.727c-0.168,0.684 -0.391,1.003 -0.676,1.165c-0.376,0.213 -0.626,-0.087 -0.625,-1.237c0.001,-1.242 0.307,-1.719 0.642,-1.908c0.327,-0.186 0.591,-0.023 0.66,0.416l-0.001,1.564Z" style="fill-rule:nonzero;stroke:#000;stroke-width:0.24px;stroke-linecap:butt;stroke-linejoin:round;stroke-miterlimit:2;"/><path d="M191.008,57.693c-0.321,0.522 -0.662,0.752 -0.954,0.917c-0.341,0.194 -0.592,0.216 -0.758,0.072c-0.153,-0.134 -0.23,-0.413 -0.229,-0.836l0.696,-0.395c0.696,-0.394 1.287,-0.711 1.287,-0.711l0.042,-0.079c0.001,-1.15 -0.242,-1.932 -1.314,-1.324c-0.383,0.217 -0.8,0.61 -1.072,1.067c-0.341,0.561 -0.571,1.244 -0.572,2.007c-0,0.543 0.152,1.027 0.437,1.261c0.237,0.187 0.647,0.111 1.169,-0.185c0.501,-0.284 1.002,-0.78 1.379,-1.572c-0,-0.12 -0.042,-0.262 -0.111,-0.222Zm-1.913,-0.277c0.028,-0.467 0.112,-0.836 0.216,-1.079c0.084,-0.204 0.223,-0.402 0.418,-0.513c0.285,-0.162 0.452,0.167 0.452,0.977l-1.086,0.615Z" style="fill-rule:nonzero;stroke:#000;stroke-width:0.24px;stroke-linecap:butt;stroke-linejoin:round;stroke-miterlimit:2;"/></g><g id="Node-box1" serif:id="Node box"><path d="M41.655,71.309l39.748,22.972l-39.748,22.972l-39.748,-22.972l39.748,-22.972Z" style="fill:#fff;fill-opacity:0;stroke:#000;stroke-width:0.65px;"/><path d="M41.695,117.253l0.597,46.462l39.581,-23.023l-0.094,-46.24" style="fill:none;stroke:#000;stroke-width:0.65px;"/><path d="M41.844,163.803l-40.179,-23.14l-0.008,-46.284" style="fill:none;stroke:#000;stroke-width:0.65px;"/><path d="M77.445,116.766l-0.008,10.531l-29.417,16.678l0.008,-10.532l29.417,-16.677Z" style="fill:#fff;fill-opacity:0;stroke:#000;stroke-width:0.55px;stroke-linejoin:round;stroke-miterlimit:1.5;"/><path d="M59.291,133.381l0,-1.022c0.001,-0.966 -0.339,-1.168 -0.966,-0.813c-0.355,0.201 -0.773,0.723 -1.093,1.448l-0.028,-0.012c0,-0.212 -0.006,-0.594 -0.02,-0.66c-0.007,-0.061 -0.021,-0.08 -0.063,-0.057c-0.202,0.161 -0.654,0.417 -0.898,0.537l-0.014,0.035c0.056,0.365 0.076,1.052 0.076,1.742l-0.001,0.506c-0,0.69 -0.015,1.167 -0.078,1.699l0.014,0.02c0,0 0.327,-0.213 0.571,-0.351c0.237,-0.134 0.431,-0.217 0.431,-0.217l0.021,-0.039c-0.034,-0.505 -0.041,-0.934 -0.04,-1.633l0.001,-0.938c0.264,-0.61 0.557,-1.052 0.807,-1.194c0.188,-0.106 0.362,-0.021 0.362,0.65l-0.001,0.819c-0,0.69 -0.001,1.169 -0.043,1.68l0.014,0.02c-0,-0 0.223,-0.154 0.466,-0.292c0.237,-0.134 0.543,-0.28 0.543,-0.28l0.014,-0.036c-0.062,-0.489 -0.076,-0.913 -0.075,-1.612Z" style="fill-rule:nonzero;stroke:#000;stroke-width:0.24px;stroke-linecap:butt;stroke-linejoin:round;stroke-miterlimit:2;"/><path d="M60.189,132.642c-0.001,1.223 0.645,1.611 1.682,1.023c1.065,-0.604 1.685,-1.746 1.686,-3.016c0.001,-1.159 -0.492,-1.79 -1.669,-1.123c-0.995,0.564 -1.698,1.69 -1.699,3.116Zm1.65,-2.628c0.592,-0.336 0.731,0.165 0.73,1.444c-0.001,1.058 -0.287,1.514 -0.6,1.692c-0.724,0.41 -0.793,-0.572 -0.792,-1.28c0.001,-0.801 0.064,-1.517 0.662,-1.856Z" style="fill-rule:nonzero;stroke:#000;stroke-width:0.24px;stroke-linecap:butt;stroke-linejoin:round;stroke-miterlimit:2;"/><path d="M66.486,130.46l0.014,-0.008l0.034,0.477c0,0.019 0.021,0.016 0.063,-0.008c0.09,-0.069 0.341,-0.22 0.445,-0.28c0.084,-0.047 0.39,-0.211 0.48,-0.244l0.014,-0.036c-0.055,-0.364 -0.131,-1.001 -0.131,-1.691l0.003,-2.834c0,-0.681 0.028,-1.184 0.085,-1.777c-0,-0.064 -0.035,-0.072 -0.077,-0.049c-0.174,0.191 -0.71,0.679 -0.995,0.868l-0.014,0.036c0.055,0.364 0.082,0.983 0.082,1.682l-0.001,0.736c-0.132,-0.173 -0.452,-0.157 -0.654,-0.043c-0.466,0.264 -0.716,0.526 -1.037,1.011c-0.432,0.659 -0.599,1.425 -0.6,2.087c-0.001,1.132 0.521,1.664 1.293,1.226c0.439,-0.248 0.808,-0.623 0.996,-1.153Zm0,-0.727c-0.167,0.684 -0.39,1.003 -0.675,1.165c-0.376,0.213 -0.626,-0.086 -0.625,-1.236c0.001,-1.242 0.307,-1.72 0.641,-1.909c0.327,-0.186 0.591,-0.023 0.661,0.416l-0.002,1.564Z" style="fill-rule:nonzero;stroke:#000;stroke-width:0.24px;stroke-linecap:butt;stroke-linejoin:round;stroke-miterlimit:2;"/><path d="M71.121,127.345c-0.32,0.522 -0.661,0.752 -0.954,0.918c-0.341,0.193 -0.591,0.215 -0.758,0.071c-0.153,-0.134 -0.229,-0.413 -0.229,-0.836l0.696,-0.394c0.696,-0.395 1.288,-0.712 1.288,-0.712l0.041,-0.079c0.001,-1.15 -0.241,-1.932 -1.313,-1.324c-0.383,0.217 -0.801,0.61 -1.072,1.067c-0.342,0.562 -0.572,1.244 -0.572,2.008c-0.001,0.542 0.152,1.026 0.437,1.26c0.236,0.188 0.647,0.111 1.169,-0.185c0.501,-0.284 1.002,-0.779 1.378,-1.572c0,-0.12 -0.041,-0.262 -0.111,-0.222Zm-1.913,-0.277c0.029,-0.466 0.112,-0.836 0.217,-1.079c0.084,-0.204 0.223,-0.402 0.418,-0.513c0.285,-0.161 0.452,0.167 0.451,0.977l-1.086,0.615Z" style="fill-rule:nonzero;stroke:#000;stroke-width:0.24px;stroke-linecap:butt;stroke-linejoin:round;stroke-miterlimit:2;"/></g><g id="Node-box2" serif:id="Node box"><path d="M159.047,95.894l39.748,22.972l-39.748,22.972l-39.748,-22.972l39.748,-22.972Z" style="fill:#fff;fill-opacity:0;stroke:#000;stroke-width:0.65px;"/><path d="M159.087,141.838l0.598,46.462l39.58,-23.024l-0.094,-46.239" style="fill:none;stroke:#000;stroke-width:0.65px;"/><path d="M159.236,188.387l-40.178,-23.139l-0.008,-46.284" style="fill:none;stroke:#000;stroke-width:0.65px;"/><path d="M194.838,141.35l-0.009,10.532l-29.417,16.677l0.009,-10.532l29.417,-16.677Z" style="fill:#fff;fill-opacity:0;stroke:#000;stroke-width:0.55px;stroke-linejoin:round;stroke-miterlimit:1.5;"/><path d="M176.683,157.965l0.001,-1.021c0.001,-0.966 -0.34,-1.168 -0.966,-0.813c-0.355,0.201 -0.773,0.723 -1.094,1.447l-0.028,-0.012c0.001,-0.211 -0.006,-0.594 -0.02,-0.659c-0.007,-0.061 -0.021,-0.081 -0.062,-0.057c-0.202,0.161 -0.655,0.417 -0.898,0.537l-0.014,0.035c0.055,0.364 0.075,1.052 0.075,1.742l-0,0.506c-0.001,0.69 -0.015,1.167 -0.078,1.699l0.014,0.02c-0,-0 0.327,-0.213 0.57,-0.351c0.237,-0.134 0.432,-0.217 0.432,-0.217l0.021,-0.04c-0.035,-0.504 -0.041,-0.933 -0.041,-1.632l0.001,-0.939c0.265,-0.609 0.557,-1.051 0.808,-1.193c0.188,-0.107 0.362,-0.021 0.361,0.65l-0.001,0.819c-0,0.69 -0.001,1.168 -0.043,1.68l0.014,0.019c0,0 0.223,-0.153 0.467,-0.291c0.236,-0.135 0.542,-0.281 0.542,-0.281l0.014,-0.035c-0.062,-0.489 -0.076,-0.914 -0.075,-1.613Z" style="fill-rule:nonzero;stroke:#000;stroke-width:0.24px;stroke-linecap:butt;stroke-linejoin:round;stroke-miterlimit:2;"/><path d="M177.581,157.226c-0.001,1.224 0.646,1.611 1.683,1.024c1.064,-0.604 1.684,-1.746 1.685,-3.016c0.001,-1.159 -0.492,-1.79 -1.668,-1.123c-0.995,0.564 -1.699,1.689 -1.7,3.115Zm1.651,-2.628c0.591,-0.335 0.73,0.166 0.729,1.445c-0.001,1.058 -0.286,1.514 -0.6,1.691c-0.723,0.411 -0.792,-0.571 -0.792,-1.28c0.001,-0.8 0.064,-1.516 0.663,-1.856Z" style="fill-rule:nonzero;stroke:#000;stroke-width:0.24px;stroke-linecap:butt;stroke-linejoin:round;stroke-miterlimit:2;"/><path d="M183.878,155.045l0.014,-0.008l0.034,0.477c0,0.019 0.021,0.016 0.063,-0.008c0.091,-0.069 0.341,-0.221 0.446,-0.28c0.083,-0.047 0.389,-0.212 0.48,-0.245l0.014,-0.035c-0.056,-0.364 -0.132,-1.001 -0.131,-1.691l0.002,-2.834c0.001,-0.681 0.029,-1.184 0.085,-1.777c-0,-0.065 -0.035,-0.072 -0.077,-0.049c-0.174,0.191 -0.71,0.679 -0.995,0.868l-0.014,0.036c0.055,0.364 0.083,0.983 0.082,1.682l-0,0.736c-0.132,-0.174 -0.452,-0.158 -0.654,-0.043c-0.467,0.264 -0.717,0.526 -1.038,1.011c-0.431,0.658 -0.599,1.425 -0.599,2.087c-0.001,1.132 0.52,1.664 1.292,1.226c0.439,-0.249 0.808,-0.623 0.996,-1.153Zm0.001,-0.727c-0.168,0.684 -0.391,1.003 -0.676,1.165c-0.376,0.213 -0.626,-0.087 -0.625,-1.237c0.001,-1.242 0.307,-1.719 0.641,-1.908c0.328,-0.186 0.592,-0.023 0.661,0.416l-0.001,1.564Z" style="fill-rule:nonzero;stroke:#000;stroke-width:0.24px;stroke-linecap:butt;stroke-linejoin:round;stroke-miterlimit:2;"/><path d="M188.514,151.93c-0.321,0.522 -0.662,0.752 -0.954,0.917c-0.341,0.194 -0.592,0.216 -0.759,0.072c-0.152,-0.134 -0.229,-0.413 -0.228,-0.836l0.696,-0.395c0.695,-0.394 1.287,-0.711 1.287,-0.711l0.042,-0.079c0.001,-1.15 -0.242,-1.932 -1.314,-1.324c-0.383,0.217 -0.8,0.61 -1.072,1.067c-0.341,0.561 -0.571,1.244 -0.572,2.007c-0,0.543 0.152,1.027 0.437,1.261c0.237,0.187 0.647,0.111 1.169,-0.185c0.501,-0.284 1.002,-0.78 1.379,-1.572c-0,-0.12 -0.042,-0.262 -0.111,-0.222Zm-1.913,-0.277c0.028,-0.467 0.112,-0.836 0.216,-1.079c0.084,-0.204 0.223,-0.402 0.418,-0.513c0.285,-0.162 0.452,0.167 0.451,0.977l-1.085,0.615Z" style="fill-rule:nonzero;stroke:#000;stroke-width:0.24px;stroke-linecap:butt;stroke-linejoin:round;stroke-miterlimit:2;"/></g><g id="Certified-T2" serif:id="Certified T2"><g><path d="M227.671,106.937c0,-0.327 0.266,-0.592 0.593,-0.592c0.327,-0 0.592,0.265 0.592,0.592c0.163,-0.283 0.526,-0.38 0.809,-0.217c0.283,0.164 0.38,0.526 0.217,0.809c0.283,-0.163 0.646,-0.066 0.809,0.217c0.164,0.283 0.066,0.646 -0.217,0.809c0.327,0 0.593,0.266 0.593,0.593c-0,0.327 -0.266,0.592 -0.593,0.592c0.283,0.163 0.381,0.526 0.217,0.809c-0.163,0.283 -0.526,0.38 -0.809,0.217c0.163,0.283 0.066,0.646 -0.217,0.809c-0.283,0.164 -0.646,0.066 -0.809,-0.217c0,0.327 -0.265,0.593 -0.592,0.593c-0.327,-0 -0.593,-0.266 -0.593,-0.593c-0.163,0.283 -0.526,0.381 -0.809,0.217c-0.283,-0.163 -0.38,-0.526 -0.217,-0.809c-0.283,0.163 -0.645,0.066 -0.809,-0.217c-0.163,-0.283 -0.066,-0.646 0.217,-0.809c-0.327,-0 -0.592,-0.265 -0.592,-0.592c-0,-0.327 0.265,-0.593 0.592,-0.593c-0.283,-0.163 -0.38,-0.526 -0.217,-0.809c0.164,-0.283 0.526,-0.38 0.809,-0.217c-0.163,-0.283 -0.066,-0.645 0.217,-0.809c0.283,-0.163 0.646,-0.066 0.809,0.217Z" style="fill:#fff;fill-opacity:0;stroke:#000;stroke-width:0.55px;stroke-linejoin:round;stroke-miterlimit:1.5;"/><g><path d="M226.282,110.928l-1.651,2.42l1.206,-0.264" style="fill:none;stroke:#000;stroke-width:0.55px;stroke-linejoin:round;stroke-miterlimit:1.5;"/><path d="M227.642,111.564l-1.227,2.661l-0.393,-1.17" style="fill:none;stroke:#000;stroke-width:0.55px;stroke-linejoin:round;stroke-miterlimit:1.5;"/></g><g><path d="M228.812,111.886l1.438,2.553l0.297,-1.198" style="fill:none;stroke:#000;stroke-width:0.55px;stroke-linejoin:round;stroke-miterlimit:1.5;"/><path d="M229.985,110.949l1.841,2.279l-1.223,-0.166" style="fill:none;stroke:#000;stroke-width:0.55px;stroke-linejoin:round;stroke-miterlimit:1.5;"/></g></g><path d="M225.652,109.382l-10.034,-0l-0,-14.279l12.583,-0l0,11.349c-0.214,0.09 -0.364,0.301 -0.364,0.547c-0.163,-0.283 -0.526,-0.38 -0.809,-0.217c-0.283,0.163 -0.38,0.526 -0.217,0.809c-0.283,-0.163 -0.646,-0.066 -0.809,0.217c-0.164,0.283 -0.066,0.646 0.217,0.809c-0.327,0 -0.593,0.266 -0.593,0.592c0,0.06 0.009,0.118 0.026,0.173Z" style="fill:#fff;fill-opacity:0;stroke:#000;stroke-width:0.55px;stroke-linejoin:round;stroke-miterlimit:1.5;"/><path d="M221.03,100.325l0,2.36c0,0.75 -0.02,1.46 -0.1,2l0.01,0.03c0,0 0.46,-0.03 0.81,-0.03c0.34,0 0.8,0.03 0.8,0.03l0.02,-0.03c-0.08,-0.57 -0.1,-1.25 -0.1,-2l0,-2.36c0,-0.17 0.01,-1.07 0.08,-1.31c1.34,0 2.04,0.22 2.04,0.22l0.02,-0.04c-0.02,-0.15 -0.02,-0.68 0,-0.96l-0.02,-0.03c-0.16,0.02 -0.39,0.03 -0.6,0.03l-4.48,0c-0.21,0 -0.44,-0.01 -0.6,-0.03l-0.02,0.03c0.02,0.28 0.02,0.81 0,0.96l0.02,0.04c0,0 0.7,-0.22 2.04,-0.22c0.07,0.24 0.08,1.14 0.08,1.31Z" style="fill-rule:nonzero;stroke:#000;stroke-width:0.24px;stroke-linecap:butt;stroke-linejoin:round;stroke-miterlimit:2;"/><path d="M224.965,103.107c0.242,0 0.494,0.224 0.494,0.551c0,0.196 -0.056,0.443 -0.177,0.625c-0.336,0.499 -0.868,0.965 -1.101,1.184c-0.004,0.019 -0.004,0.038 -0.004,0.061c-0,0.07 0.023,0.14 0.046,0.182c0.345,-0.009 0.541,-0.023 0.882,-0.023c0.336,-0 0.475,0.009 0.811,0.023c-0.009,-0.047 -0.014,-0.103 -0.014,-0.154c0,-0.075 0.005,-0.149 0.024,-0.219c-0.266,0.023 -0.406,0.037 -0.854,0.037c-0.163,0 -0.256,0 -0.382,0.009c-0.005,-0.009 -0.005,-0.014 -0.005,-0.023c-0,-0.042 0.047,-0.093 0.079,-0.126c0.229,-0.219 0.448,-0.429 0.756,-0.844c0.172,-0.233 0.34,-0.532 0.34,-0.797c0,-0.444 -0.298,-0.751 -0.821,-0.751c-0.424,-0 -0.694,0.237 -0.802,0.377l0.103,0.322l0.06,0.005c0.066,-0.14 0.089,-0.238 0.206,-0.331c0.093,-0.075 0.228,-0.108 0.359,-0.108Z" style="fill-rule:nonzero;stroke:#000;stroke-width:0.24px;stroke-linecap:butt;stroke-linejoin:round;stroke-miterlimit:2;"/></g><g id="Certified-T21" serif:id="Certified T2"><g><path d="M79.445,189.917c-0,-0.327 0.265,-0.592 0.592,-0.592c0.327,-0 0.593,0.265 0.593,0.592c0.163,-0.283 0.526,-0.38 0.809,-0.217c0.283,0.164 0.38,0.526 0.217,0.809c0.283,-0.163 0.645,-0.066 0.809,0.217c0.163,0.283 0.066,0.646 -0.217,0.809c0.327,0 0.592,0.266 0.592,0.593c0,0.327 -0.265,0.592 -0.592,0.592c0.283,0.164 0.38,0.526 0.217,0.809c-0.164,0.283 -0.526,0.381 -0.809,0.217c0.163,0.283 0.066,0.646 -0.217,0.809c-0.283,0.164 -0.646,0.067 -0.809,-0.217c-0,0.327 -0.266,0.593 -0.593,0.593c-0.327,-0 -0.592,-0.266 -0.592,-0.593c-0.164,0.284 -0.526,0.381 -0.809,0.217c-0.283,-0.163 -0.38,-0.526 -0.217,-0.809c-0.283,0.164 -0.646,0.066 -0.809,-0.217c-0.164,-0.283 -0.066,-0.645 0.217,-0.809c-0.327,0 -0.593,-0.265 -0.593,-0.592c0,-0.327 0.266,-0.593 0.593,-0.593c-0.283,-0.163 -0.381,-0.526 -0.217,-0.809c0.163,-0.283 0.526,-0.38 0.809,-0.217c-0.163,-0.283 -0.066,-0.645 0.217,-0.809c0.283,-0.163 0.645,-0.066 0.809,0.217Z" style="fill:#fff;fill-opacity:0;stroke:#000;stroke-width:0.55px;stroke-linejoin:round;stroke-miterlimit:1.5;"/><g><path d="M78.056,193.908l-1.652,2.42l1.206,-0.264" style="fill:none;stroke:#000;stroke-width:0.55px;stroke-linejoin:round;stroke-miterlimit:1.5;"/><path d="M79.415,194.544l-1.226,2.661l-0.394,-1.17" style="fill:none;stroke:#000;stroke-width:0.55px;stroke-linejoin:round;stroke-miterlimit:1.5;"/></g><g><path d="M80.586,194.866l1.437,2.553l0.298,-1.198" style="fill:none;stroke:#000;stroke-width:0.55px;stroke-linejoin:round;stroke-miterlimit:1.5;"/><path d="M81.759,193.93l1.841,2.278l-1.223,-0.166" style="fill:none;stroke:#000;stroke-width:0.55px;stroke-linejoin:round;stroke-miterlimit:1.5;"/></g></g><path d="M77.426,192.362l-10.035,0l0,-14.279l12.584,-0l-0,11.349c-0.214,0.09 -0.364,0.301 -0.364,0.547c-0.164,-0.283 -0.526,-0.38 -0.81,-0.217c-0.283,0.164 -0.38,0.526 -0.216,0.809c-0.283,-0.163 -0.646,-0.066 -0.809,0.217c-0.164,0.283 -0.067,0.646 0.216,0.809c-0.327,0 -0.592,0.266 -0.592,0.593c-0,0.06 0.009,0.118 0.026,0.172Z" style="fill:#fff;fill-opacity:0;stroke:#000;stroke-width:0.55px;stroke-linejoin:round;stroke-miterlimit:1.5;"/><path d="M72.804,183.305l-0,2.36c-0,0.75 -0.02,1.46 -0.1,2l0.01,0.03c-0,0 0.46,-0.03 0.81,-0.03c0.34,0 0.8,0.03 0.8,0.03l0.02,-0.03c-0.08,-0.57 -0.1,-1.25 -0.1,-2l-0,-2.36c-0,-0.17 0.01,-1.07 0.08,-1.31c1.34,0 2.04,0.22 2.04,0.22l0.02,-0.04c-0.02,-0.15 -0.02,-0.68 -0,-0.96l-0.02,-0.03c-0.16,0.02 -0.39,0.03 -0.6,0.03l-4.48,0c-0.21,0 -0.44,-0.01 -0.6,-0.03l-0.02,0.03c0.02,0.28 0.02,0.81 -0,0.96l0.02,0.04c-0,0 0.7,-0.22 2.04,-0.22c0.07,0.24 0.08,1.14 0.08,1.31Z" style="fill-rule:nonzero;stroke:#000;stroke-width:0.24px;stroke-linecap:butt;stroke-linejoin:round;stroke-miterlimit:2;"/><path d="M76.678,188.532c-0.369,-0 -0.42,-0.14 -0.546,-0.411l-0.07,0.005l-0.102,0.35l0.014,0.014c0.121,0.102 0.321,0.223 0.694,0.223c0.397,0 1.022,-0.27 1.022,-0.886c-0,-0.368 -0.285,-0.629 -0.644,-0.662l0,-0.023c0.243,-0.056 0.551,-0.327 0.551,-0.714c-0,-0.336 -0.29,-0.606 -0.751,-0.606c-0.359,-0 -0.621,0.158 -0.737,0.261l-0.014,0.014l0.098,0.298l0.07,0.005c0.112,-0.261 0.261,-0.396 0.541,-0.396c0.182,-0 0.387,0.191 0.387,0.494c-0,0.205 -0.07,0.355 -0.177,0.457c-0.094,0.089 -0.229,0.131 -0.387,0.131c-0.056,-0 -0.108,-0.005 -0.173,-0.014l-0,0.205c0.056,-0.009 0.154,-0.009 0.196,-0.009c0.149,-0 0.326,0.042 0.457,0.149c0.121,0.102 0.182,0.266 0.182,0.448c-0,0.564 -0.443,0.667 -0.611,0.667Z" style="fill-rule:nonzero;stroke:#000;stroke-width:0.24px;stroke-linecap:butt;stroke-linejoin:round;stroke-miterlimit:2;"/></g><g id="Certified-T1" serif:id="Certified T1"><g><path d="M81.74,54.782c0,-0.327 0.266,-0.593 0.592,-0.593c0.327,0 0.593,0.266 0.593,0.593c0.163,-0.283 0.526,-0.381 0.809,-0.217c0.283,0.163 0.38,0.526 0.217,0.809c0.283,-0.163 0.645,-0.066 0.809,0.217c0.163,0.283 0.066,0.645 -0.217,0.809c0.327,-0 0.592,0.265 0.592,0.592c0,0.327 -0.265,0.593 -0.592,0.593c0.283,0.163 0.38,0.526 0.217,0.809c-0.164,0.283 -0.526,0.38 -0.809,0.217c0.163,0.283 0.066,0.645 -0.217,0.809c-0.283,0.163 -0.646,0.066 -0.809,-0.217c-0,0.327 -0.266,0.592 -0.593,0.592c-0.326,0 -0.592,-0.265 -0.592,-0.592c-0.163,0.283 -0.526,0.38 -0.809,0.217c-0.283,-0.164 -0.38,-0.526 -0.217,-0.809c-0.283,0.163 -0.646,0.066 -0.809,-0.217c-0.164,-0.283 -0.066,-0.646 0.217,-0.809c-0.327,-0 -0.593,-0.266 -0.593,-0.593c0,-0.327 0.266,-0.592 0.593,-0.592c-0.283,-0.164 -0.381,-0.526 -0.217,-0.809c0.163,-0.283 0.526,-0.38 0.809,-0.217c-0.163,-0.283 -0.066,-0.646 0.217,-0.809c0.283,-0.164 0.646,-0.066 0.809,0.217Z" style="fill:#fff;fill-opacity:0;stroke:#000;stroke-width:0.55px;stroke-linejoin:round;stroke-miterlimit:1.5;"/><g><path d="M80.351,58.773l-1.651,2.42l1.205,-0.265" style="fill:none;stroke:#000;stroke-width:0.55px;stroke-linejoin:round;stroke-miterlimit:1.5;"/><path d="M81.71,59.409l-1.226,2.66l-0.394,-1.17" style="fill:none;stroke:#000;stroke-width:0.55px;stroke-linejoin:round;stroke-miterlimit:1.5;"/></g><g><path d="M82.881,59.731l1.437,2.553l0.298,-1.198" style="fill:none;stroke:#000;stroke-width:0.55px;stroke-linejoin:round;stroke-miterlimit:1.5;"/><path d="M84.054,58.794l1.841,2.279l-1.223,-0.166" style="fill:none;stroke:#000;stroke-width:0.55px;stroke-linejoin:round;stroke-miterlimit:1.5;"/></g></g><path d="M79.721,57.227l-10.034,-0l-0,-14.28l12.583,0l-0,11.35c-0.214,0.089 -0.364,0.3 -0.364,0.546c-0.164,-0.283 -0.526,-0.38 -0.809,-0.216c-0.284,0.163 -0.381,0.526 -0.217,0.809c-0.283,-0.164 -0.646,-0.066 -0.809,0.217c-0.164,0.283 -0.067,0.645 0.216,0.809c-0.326,-0 -0.592,0.265 -0.592,0.592c0,0.06 0.009,0.118 0.026,0.173Z" style="fill:#fff;fill-opacity:0;stroke:#000;stroke-width:0.55px;stroke-linejoin:round;stroke-miterlimit:1.5;"/><path d="M75.099,48.17l-0,2.36c-0,0.75 -0.02,1.46 -0.1,2l0.01,0.03c-0,-0 0.46,-0.03 0.81,-0.03c0.34,-0 0.8,0.03 0.8,0.03l0.02,-0.03c-0.08,-0.57 -0.1,-1.25 -0.1,-2l-0,-2.36c-0,-0.17 0.01,-1.07 0.08,-1.31c1.34,-0 2.04,0.22 2.04,0.22l0.02,-0.04c-0.02,-0.15 -0.02,-0.68 -0,-0.96l-0.02,-0.03c-0.16,0.02 -0.39,0.03 -0.6,0.03l-4.48,-0c-0.21,-0 -0.44,-0.01 -0.6,-0.03l-0.02,0.03c0.02,0.28 0.02,0.81 -0,0.96l0.02,0.04c-0,-0 0.7,-0.22 2.04,-0.22c0.07,0.24 0.08,1.14 0.08,1.31Z" style="fill-rule:nonzero;stroke:#000;stroke-width:0.24px;stroke-linecap:butt;stroke-linejoin:round;stroke-miterlimit:2;"/><path d="M79.092,52.65l0,-1.185c0,-0.504 0.028,-0.69 0.037,-0.755c0,-0.024 -0.014,-0.024 -0.032,-0.024c-0.303,0.098 -0.658,0.28 -1.022,0.392l0.028,0.135c0.21,-0.023 0.439,-0.074 0.532,-0.074c0.084,-0 0.084,0.186 0.084,0.354l-0,1.157c-0,0.364 -0.005,0.615 -0.037,0.881l0.004,0.014c0,0 0.131,-0.014 0.215,-0.014c0.093,0 0.224,0.014 0.224,0.014l0.009,-0.014c-0.033,-0.28 -0.042,-0.513 -0.042,-0.881Z" style="fill-rule:nonzero;stroke:#000;stroke-width:0.24px;stroke-linecap:butt;stroke-linejoin:round;stroke-miterlimit:2;"/></g><path d="M107.718,166.93l2.207,1.653l-1.653,2.207" style="fill:none;stroke:#000;stroke-width:0.65px;stroke-miterlimit:10;"/><path d="M68.882,156.423c13.018,9.805 26.664,14.158 41.043,12.16" style="fill:none;stroke:#000;stroke-width:0.65px;"/><path d="M64.937,166.985l-0.158,-2.753l2.753,-0.159" style="fill:none;stroke:#000;stroke-width:0.65px;stroke-miterlimit:10;"/><path d="M105.662,177.003c-14.777,2.143 -28.465,-1.779 -40.883,-12.771" style="fill:none;stroke:#000;stroke-width:0.65px;"/><path d="M77.732,82.994l-2.757,-0.037l0.037,-2.758" style="fill:none;stroke:#000;stroke-width:0.65px;stroke-miterlimit:10;"/><path d="M115.313,68.631c-16.295,-0.265 -29.89,4.247 -40.338,14.326" style="fill:none;stroke:#000;stroke-width:0.65px;"/><path d="M106.681,58.389l1.849,2.046l-2.047,1.849" style="fill:none;stroke:#000;stroke-width:0.65px;stroke-miterlimit:10;"/><path d="M68.663,76.095c10.175,-10.929 23.301,-16.447 39.867,-15.66" style="fill:none;stroke:#000;stroke-width:0.65px;"/><path d="M192.428,88.64l-0.769,-2.648l2.648,-0.77" style="fill:none;stroke:#000;stroke-width:0.65px;stroke-miterlimit:10;"/><path d="M194.115,109.606c4.908,-4.025 7.809,-8.487 7.125,-12.955c-0.554,-3.626 -3.467,-7.255 -9.581,-10.659" style="fill:none;stroke:#000;stroke-width:0.65px;"/><path d="M205.036,109.396l-2.731,-0.381l0.38,-2.731" style="fill:none;stroke:#000;stroke-width:0.65px;stroke-miterlimit:10;"/><path d="M201.336,85.293c5.436,3.277 8.949,7.275 8.916,11.795c-0.027,3.667 -2.387,7.678 -7.947,11.927" style="fill:none;stroke:#000;stroke-width:0.65px;"/></g></svg>