<?xml version="1.0" encoding="UTF-8" standalone="no"?><!DOCTYPE svg PUBLIC "-//W3C//DTD SVG 1.1//EN" "http://www.w3.org/Graphics/SVG/1.1/DTD/svg11.dtd"><svg width="100%" height="100%" viewBox="0 0 219 96" version="1.1" xmlns="http://www.w3.org/2000/svg" xmlns:xlink="http://www.w3.org/1999/xlink" xml:space="preserve" xmlns:serif="http://www.serif.com/" style="fill-rule:evenodd;clip-rule:evenodd;stroke-linecap:round;stroke-miterlimit:10;"><g id="Observe-data-source" serif:id="Observe data source"><path d="M140.869,48.029l1.65,1.65l-1.65,1.65" style="fill:none;stroke:#000;stroke-width:0.55px;"/><path d="M86.842,49.679l55.677,-0" style="fill:none;stroke:#000;stroke-width:0.55px;stroke-linejoin:round;stroke-miterlimit:1.5;"/><path d="M88.26,55.743l-1.65,-1.65l1.65,-1.65" style="fill:none;stroke:#000;stroke-width:0.55px;"/><path d="M141.285,54.093l-54.675,-0" style="fill:none;stroke:#000;stroke-width:0.55px;stroke-linejoin:round;stroke-miterlimit:1.5;"/><path d="M152.391,56.506c-0.361,0.065 -0.734,0.099 -1.114,0.099c-3.449,-0 -6.249,-2.788 -6.249,-6.222c0,-3.434 2.8,-6.222 6.249,-6.222c0.457,-0 0.903,0.049 1.332,0.142c-0.099,-0.64 -0.151,-1.295 -0.151,-1.962c0,-7.016 5.697,-12.712 12.713,-12.712c2.674,-0 5.157,0.828 7.205,2.241c1.593,-3.132 4.846,-5.28 8.597,-5.28c4.816,0 8.812,3.541 9.525,8.159c0.727,-0.256 1.51,-0.395 2.324,-0.395c3.554,-0 6.494,2.647 6.956,6.075c1.167,-0.866 2.612,-1.378 4.176,-1.378c3.873,-0 7.018,3.144 7.018,7.018c-0,0.126 -0.003,0.251 -0.01,0.375c0.547,-0.197 1.137,-0.304 1.752,-0.304c2.865,0 5.192,2.327 5.192,5.192c-0,2.865 -2.327,5.192 -5.192,5.192c-0.146,-0 -0.291,-0.006 -0.434,-0.018l-59.889,-0Z" style="fill:#fff;fill-opacity:0;stroke:#000;stroke-width:0.65px;stroke-linejoin:round;stroke-miterlimit:1.5;"/><g transform="matrix(0.24,0,0,0.24,-246.883,-367.743)"><g transform="matrix(41.6667,0,0,41.6667,1732.84,1705.77)"><path d="M0.361,-0.058l0.002,0l0.005,0.058c0,0.002 0.003,0.003 0.009,0.003c0.013,-0.002 0.02,-0.003 0.035,-0.003c0.012,-0 0.031,0.001 0.044,0.003l0.002,-0.003c-0.008,-0.043 -0.017,-0.117 -0.017,-0.192l0,-0.308c0,-0.074 0.004,-0.126 0.009,-0.188c0,-0.007 -0.003,-0.01 -0.009,-0.01c-0.025,0.01 -0.046,0.017 -0.087,0.02l-0.002,0.003c0.008,0.043 0.009,0.117 0.009,0.193l0,0.065c-0.023,-0.013 -0.064,-0.022 -0.084,-0.022c-0.13,-0 -0.226,0.09 -0.226,0.226c0,0.123 0.073,0.223 0.181,0.223c0.048,-0 0.093,-0.022 0.129,-0.068Zm0,-0.055c-0.036,0.046 -0.082,0.071 -0.123,0.071c-0.054,-0 -0.1,-0.054 -0.1,-0.179c0,-0.15 0.08,-0.178 0.128,-0.178c0.047,-0 0.071,0.02 0.095,0.058l0,0.228Z" style="fill-rule:nonzero;stroke:#000;stroke-width:0.02px;stroke-linecap:butt;stroke-linejoin:round;stroke-miterlimit:2;"/></g><g transform="matrix(41.6667,0,0,41.6667,1754.92,1705.77)"><path d="M0.31,-0.048c0.012,0.039 0.041,0.058 0.078,0.058c0.025,-0 0.056,-0.006 0.08,-0.031l-0.008,-0.025c-0.011,0.004 -0.019,0.005 -0.027,0.005c-0.01,0 -0.023,-0.001 -0.029,-0.007c-0.01,-0.009 -0.017,-0.034 -0.017,-0.078c0,-0.029 0.003,-0.14 0.003,-0.151c0,-0.135 -0.089,-0.162 -0.165,-0.162c-0.076,0 -0.122,0.037 -0.147,0.058l-0.003,0.004l0.017,0.067l0.013,0.001c0.028,-0.045 0.062,-0.085 0.11,-0.085c0.036,0 0.096,0.005 0.096,0.118c0,0.007 -0.004,0.011 -0.007,0.012l-0.093,0.021c-0.102,0.023 -0.166,0.077 -0.166,0.145c0,0.074 0.051,0.108 0.125,0.108c0.055,0 0.083,-0.013 0.136,-0.058l0.004,0Zm0,-0.177l-0.004,0.119c0,0.013 -0.006,0.02 -0.014,0.026c-0.028,0.021 -0.062,0.039 -0.092,0.039c-0.045,0 -0.074,-0.03 -0.074,-0.061c0,-0.045 0.021,-0.079 0.099,-0.1l0.085,-0.023Z" style="fill-rule:nonzero;stroke:#000;stroke-width:0.02px;stroke-linecap:butt;stroke-linejoin:round;stroke-miterlimit:2;"/></g><g transform="matrix(41.6667,0,0,41.6667,1774.97,1705.77)"><path d="M0.095,-0.429c-0.02,0 -0.042,0 -0.054,-0.002c-0.007,0.016 -0.012,0.026 -0.022,0.041l0.005,0.007c0.017,-0.001 0.048,-0.002 0.071,-0.002l-0,0.137c-0,0.06 -0.003,0.132 -0.003,0.162c-0,0.065 0.042,0.096 0.088,0.096c0.042,-0 0.074,-0.01 0.116,-0.037l-0.012,-0.025c-0.031,0.011 -0.054,0.012 -0.079,0.008c-0.024,-0.004 -0.033,-0.028 -0.033,-0.082c0,-0.03 0.003,-0.073 0.003,-0.133l0,-0.126l0.038,0c0.024,0 0.059,0.001 0.072,0.002c0.003,-0.016 0.006,-0.026 0.012,-0.041l-0.005,-0.007c-0.018,0.001 -0.047,0.002 -0.07,0.002l-0.047,0c0,-0.075 0.001,-0.088 0.005,-0.146c0,-0.007 -0.003,-0.01 -0.009,-0.01c-0.025,0.01 -0.037,0.02 -0.07,0.025l-0.002,0.003c-0.002,0.035 -0.004,0.07 -0.004,0.128Z" style="fill-rule:nonzero;stroke:#000;stroke-width:0.02px;stroke-linecap:butt;stroke-linejoin:round;stroke-miterlimit:2;"/></g><g transform="matrix(41.6667,0,0,41.6667,1789.13,1705.77)"><path d="M0.31,-0.048c0.012,0.039 0.041,0.058 0.078,0.058c0.025,-0 0.056,-0.006 0.08,-0.031l-0.008,-0.025c-0.011,0.004 -0.019,0.005 -0.027,0.005c-0.01,0 -0.023,-0.001 -0.029,-0.007c-0.01,-0.009 -0.017,-0.034 -0.017,-0.078c0,-0.029 0.003,-0.14 0.003,-0.151c0,-0.135 -0.089,-0.162 -0.165,-0.162c-0.076,0 -0.122,0.037 -0.147,0.058l-0.003,0.004l0.017,0.067l0.013,0.001c0.028,-0.045 0.062,-0.085 0.11,-0.085c0.036,0 0.096,0.005 0.096,0.118c0,0.007 -0.004,0.011 -0.007,0.012l-0.093,0.021c-0.102,0.023 -0.166,0.077 -0.166,0.145c0,0.074 0.051,0.108 0.125,0.108c0.055,0 0.083,-0.013 0.136,-0.058l0.004,0Zm0,-0.177l-0.004,0.119c0,0.013 -0.006,0.02 -0.014,0.026c-0.028,0.021 -0.062,0.039 -0.092,0.039c-0.045,0 -0.074,-0.03 -0.074,-0.061c0,-0.045 0.021,-0.079 0.099,-0.1l0.085,-0.023Z" style="fill-rule:nonzero;stroke:#000;stroke-width:0.02px;stroke-linecap:butt;stroke-linejoin:round;stroke-miterlimit:2;"/></g><g transform="matrix(41.6667,0,0,41.6667,1715.55,1747.44)"><path d="M0.05,-0.101l-0.017,0.084c0.057,0.02 0.113,0.027 0.151,0.027c0.138,0 0.17,-0.082 0.17,-0.137c0,-0.082 -0.065,-0.114 -0.136,-0.131c-0.038,-0.009 -0.093,-0.028 -0.093,-0.078c0,-0.041 0.033,-0.063 0.076,-0.063c0.052,0 0.084,0.041 0.107,0.068l0.014,-0.001l0.02,-0.074l-0.002,-0.003c-0.029,-0.015 -0.084,-0.03 -0.135,-0.03c-0.074,0 -0.151,0.039 -0.151,0.122c0,0.08 0.06,0.106 0.12,0.123c0.058,0.016 0.101,0.032 0.101,0.081c0,0.053 -0.039,0.083 -0.092,0.083c-0.048,0 -0.09,-0.033 -0.118,-0.072l-0.015,0.001Z" style="fill-rule:nonzero;stroke:#000;stroke-width:0.02px;stroke-linecap:butt;stroke-linejoin:round;stroke-miterlimit:2;"/></g><g transform="matrix(41.6667,0,0,41.6667,1732.05,1747.44)"><path d="M0.038,-0.205c0,0.12 0.079,0.215 0.212,0.215c0.132,0 0.212,-0.093 0.212,-0.224c0,-0.136 -0.073,-0.225 -0.208,-0.225c-0.131,0 -0.216,0.092 -0.216,0.234Zm0.209,-0.194c0.106,0 0.127,0.082 0.127,0.203c0,0.095 -0.048,0.166 -0.115,0.166c-0.106,0 -0.133,-0.115 -0.133,-0.192c0,-0.087 0.027,-0.177 0.121,-0.177Z" style="fill-rule:nonzero;stroke:#000;stroke-width:0.02px;stroke-linecap:butt;stroke-linejoin:round;stroke-miterlimit:2;"/></g><g transform="matrix(41.6667,0,0,41.6667,1752.88,1747.44)"><path d="M0.365,-0.092l0.004,0.003l0.005,0.089c0,0.002 0.001,0.003 0.004,0.003c0.013,-0.002 0.025,-0.003 0.04,-0.003c0.012,-0 0.031,0.001 0.044,0.003l0.002,-0.003c-0.008,-0.043 -0.017,-0.117 -0.017,-0.192l0,-0.057c0,-0.075 0.001,-0.127 0.009,-0.18l-0.002,-0.003c-0.012,0.002 -0.035,0.003 -0.047,0.003c-0.012,0 -0.035,-0.001 -0.047,-0.003l-0.002,0.003c0.008,0.057 0.009,0.104 0.009,0.18l0,0.098c-0.03,0.051 -0.088,0.105 -0.137,0.105c-0.034,0 -0.067,-0.011 -0.067,-0.104l0,-0.099c0,-0.075 0.001,-0.127 0.009,-0.18l-0.002,-0.003c-0.012,0.002 -0.035,0.003 -0.047,0.003c-0.012,0 -0.035,-0.001 -0.047,-0.003l-0.002,0.003c0.008,0.057 0.009,0.104 0.009,0.18l0,0.12c0,0.069 0.032,0.139 0.131,0.139c0.062,0 0.118,-0.051 0.151,-0.102Z" style="fill-rule:nonzero;stroke:#000;stroke-width:0.02px;stroke-linecap:butt;stroke-linejoin:round;stroke-miterlimit:2;"/></g><g transform="matrix(41.6667,0,0,41.6667,1775.26,1747.44)"><path d="M0.167,-0.334l0,-0.091c0,-0.008 -0.001,-0.01 -0.006,-0.01c-0.022,0.004 -0.058,0.005 -0.081,0.003l-0.002,0.003c0.007,0.043 0.009,0.119 0.009,0.194l0,0.055c0,0.075 -0.001,0.126 -0.009,0.18l0.002,0.003c0.012,-0.002 0.035,-0.003 0.047,-0.003c0.012,0 0.035,0.001 0.047,0.003l0.002,-0.003c-0.007,-0.057 -0.009,-0.104 -0.009,-0.18l0,-0.052c0,-0.042 0.013,-0.066 0.034,-0.099c0.015,-0.022 0.037,-0.035 0.056,-0.035c0.02,0 0.039,0.002 0.052,0.014l0.008,-0.002l0.02,-0.074l-0.004,-0.004c-0.017,-0.005 -0.018,-0.007 -0.036,-0.007c-0.054,0 -0.083,0.031 -0.127,0.107l-0.003,-0.002Z" style="fill-rule:nonzero;stroke:#000;stroke-width:0.02px;stroke-linecap:butt;stroke-linejoin:round;stroke-miterlimit:2;"/></g><g transform="matrix(41.6667,0,0,41.6667,1789.72,1747.44)"><path d="M0.25,-0.399c0.039,0 0.074,0.028 0.1,0.074l0.013,-0.001l0.023,-0.082l-0.002,-0.003c-0.031,-0.016 -0.083,-0.028 -0.133,-0.028c-0.104,0 -0.213,0.085 -0.213,0.221c-0,0.139 0.079,0.228 0.201,0.228c0.06,0 0.107,-0.02 0.147,-0.071l-0.019,-0.021l-0.004,0c-0.038,0.034 -0.07,0.042 -0.107,0.042c-0.073,0 -0.13,-0.066 -0.13,-0.183c0,-0.11 0.058,-0.176 0.124,-0.176Z" style="fill-rule:nonzero;stroke:#000;stroke-width:0.02px;stroke-linecap:butt;stroke-linejoin:round;stroke-miterlimit:2;"/></g><g transform="matrix(41.6667,0,0,41.6667,1807.59,1747.44)"><path d="M0.392,-0.104c-0.035,0.038 -0.082,0.055 -0.137,0.055c-0.034,0 -0.081,-0.013 -0.109,-0.057c-0.018,-0.028 -0.024,-0.069 -0.024,-0.127l0.272,0c0.011,0 0.018,-0.006 0.018,-0.017c0,-0.084 -0.041,-0.189 -0.173,-0.189c-0.103,0 -0.205,0.083 -0.205,0.23c0,0.057 0.012,0.113 0.045,0.153c0.034,0.041 0.092,0.066 0.159,0.066c0.072,-0 0.136,-0.037 0.174,-0.089l-0.02,-0.025Zm-0.267,-0.169c0.017,-0.104 0.083,-0.126 0.114,-0.126c0.04,0 0.084,0.037 0.084,0.112c0,0.009 -0.004,0.014 -0.014,0.014l-0.184,0Z" style="fill-rule:nonzero;stroke:#000;stroke-width:0.02px;stroke-linecap:butt;stroke-linejoin:round;stroke-miterlimit:2;"/></g></g><path d="M101.953,41.35l-0,-0.91c-0,-0.08 -0.01,-0.1 -0.06,-0.1c-0.22,0.04 -0.58,0.05 -0.81,0.03l-0.02,0.03c0.07,0.43 0.09,1.19 0.09,1.94l-0,0.55c-0,0.75 -0.01,1.26 -0.09,1.8l0.02,0.03c0.12,-0.02 0.35,-0.03 0.47,-0.03c0.12,-0 0.35,0.01 0.47,0.03l0.02,-0.03c-0.07,-0.57 -0.09,-1.04 -0.09,-1.8l-0,-0.52c-0,-0.42 0.13,-0.66 0.34,-0.99c0.15,-0.22 0.37,-0.35 0.56,-0.35c0.2,-0 0.39,0.02 0.52,0.14l0.08,-0.02l0.2,-0.74l-0.04,-0.04c-0.17,-0.05 -0.18,-0.07 -0.36,-0.07c-0.54,-0 -0.83,0.31 -1.27,1.07l-0.03,-0.02Z" style="fill-rule:nonzero;stroke:#000;stroke-width:0.24px;stroke-linecap:butt;stroke-linejoin:round;stroke-miterlimit:2;"/><path d="M107.673,43.65c-0.35,0.38 -0.82,0.55 -1.37,0.55c-0.34,-0 -0.81,-0.13 -1.09,-0.57c-0.18,-0.28 -0.24,-0.69 -0.24,-1.27l2.72,-0c0.11,-0 0.18,-0.06 0.18,-0.17c-0,-0.84 -0.41,-1.89 -1.73,-1.89c-1.03,-0 -2.05,0.83 -2.05,2.3c-0,0.57 0.12,1.13 0.45,1.53c0.34,0.41 0.92,0.66 1.59,0.66c0.72,-0 1.36,-0.37 1.74,-0.89l-0.2,-0.25Zm-2.67,-1.69c0.17,-1.04 0.83,-1.26 1.14,-1.26c0.4,-0 0.84,0.37 0.84,1.12c-0,0.09 -0.04,0.14 -0.14,0.14l-1.84,-0Z" style="fill-rule:nonzero;stroke:#000;stroke-width:0.24px;stroke-linecap:butt;stroke-linejoin:round;stroke-miterlimit:2;"/><path d="M112.013,40.37c-0.18,-0.03 -0.75,-0.07 -1.09,-0.07c-1.16,-0 -2.08,0.91 -2.08,2.23c-0,1.04 0.55,2.26 1.93,2.26c0.57,-0 1.03,-0.2 1.18,-0.33l-0,0.55c-0,0.74 -0,1.46 -0.09,2l0.02,0.03c-0,-0 0.12,-0.03 0.47,-0.03c0.34,-0 0.47,0.03 0.47,0.03l0.02,-0.03c-0.08,-0.57 -0.09,-1.25 -0.09,-2l-0,-2.67c-0,-0.75 0.02,-1.51 0.09,-1.94l-0.02,-0.03c-0.23,0.02 -0.63,0.03 -0.81,-0Zm-0.09,0.56c-0,-0 0.03,0.42 0.03,1.42l-0,1.68c-0.26,0.2 -0.75,0.32 -0.94,0.32c-0.58,-0 -1.29,-0.42 -1.29,-1.93c-0,-1.04 0.52,-1.72 1.26,-1.72c0.44,-0 0.72,0.05 0.94,0.23Z" style="fill-rule:nonzero;stroke:#000;stroke-width:0.24px;stroke-linecap:butt;stroke-linejoin:round;stroke-miterlimit:2;"/><path d="M117.223,43.77l0.04,0.03l0.05,0.89c-0,0.02 0.01,0.03 0.04,0.03c0.13,-0.02 0.25,-0.03 0.4,-0.03c0.12,-0 0.31,0.01 0.44,0.03l0.02,-0.03c-0.08,-0.43 -0.17,-1.17 -0.17,-1.92l-0,-0.57c-0,-0.75 0.01,-1.27 0.09,-1.8l-0.02,-0.03c-0.12,0.02 -0.35,0.03 -0.47,0.03c-0.12,-0 -0.35,-0.01 -0.47,-0.03l-0.02,0.03c0.08,0.57 0.09,1.04 0.09,1.8l-0,0.98c-0.3,0.51 -0.88,1.05 -1.37,1.05c-0.34,-0 -0.67,-0.11 -0.67,-1.04l-0,-0.99c-0,-0.75 0.01,-1.27 0.09,-1.8l-0.02,-0.03c-0.12,0.02 -0.35,0.03 -0.47,0.03c-0.12,-0 -0.35,-0.01 -0.47,-0.03l-0.02,0.03c0.08,0.57 0.09,1.04 0.09,1.8l-0,1.2c-0,0.69 0.32,1.39 1.31,1.39c0.62,-0 1.18,-0.51 1.51,-1.02Z" style="fill-rule:nonzero;stroke:#000;stroke-width:0.24px;stroke-linecap:butt;stroke-linejoin:round;stroke-miterlimit:2;"/><path d="M122.863,43.65c-0.35,0.38 -0.82,0.55 -1.37,0.55c-0.34,-0 -0.81,-0.13 -1.09,-0.57c-0.18,-0.28 -0.24,-0.69 -0.24,-1.27l2.72,-0c0.11,-0 0.18,-0.06 0.18,-0.17c-0,-0.84 -0.41,-1.89 -1.73,-1.89c-1.03,-0 -2.05,0.83 -2.05,2.3c-0,0.57 0.12,1.13 0.45,1.53c0.34,0.41 0.92,0.66 1.59,0.66c0.72,-0 1.36,-0.37 1.74,-0.89l-0.2,-0.25Zm-2.67,-1.69c0.17,-1.04 0.83,-1.26 1.14,-1.26c0.4,-0 0.84,0.37 0.84,1.12c-0,0.09 -0.04,0.14 -0.14,0.14l-1.84,-0Z" style="fill-rule:nonzero;stroke:#000;stroke-width:0.24px;stroke-linecap:butt;stroke-linejoin:round;stroke-miterlimit:2;"/><path d="M123.973,43.68l-0.17,0.84c0.57,0.2 1.13,0.27 1.51,0.27c1.38,-0 1.7,-0.82 1.7,-1.37c-0,-0.82 -0.65,-1.14 -1.36,-1.31c-0.38,-0.09 -0.93,-0.28 -0.93,-0.78c-0,-0.41 0.33,-0.63 0.76,-0.63c0.52,-0 0.84,0.41 1.07,0.68l0.14,-0.01l0.2,-0.74l-0.02,-0.03c-0.29,-0.15 -0.84,-0.3 -1.35,-0.3c-0.74,-0 -1.51,0.39 -1.51,1.22c-0,0.8 0.6,1.06 1.2,1.23c0.58,0.16 1.01,0.32 1.01,0.81c-0,0.53 -0.39,0.83 -0.92,0.83c-0.48,-0 -0.9,-0.33 -1.18,-0.72l-0.15,0.01Z" style="fill-rule:nonzero;stroke:#000;stroke-width:0.24px;stroke-linecap:butt;stroke-linejoin:round;stroke-miterlimit:2;"/><path d="M128.383,40.4c-0.2,-0 -0.42,-0 -0.54,-0.02c-0.07,0.16 -0.12,0.26 -0.22,0.41l0.05,0.07c0.17,-0.01 0.48,-0.02 0.71,-0.02l-0,1.37c-0,0.6 -0.03,1.32 -0.03,1.62c-0,0.65 0.42,0.96 0.88,0.96c0.42,-0 0.74,-0.1 1.16,-0.37l-0.12,-0.25c-0.31,0.11 -0.54,0.12 -0.79,0.08c-0.24,-0.04 -0.33,-0.28 -0.33,-0.82c-0,-0.3 0.03,-0.73 0.03,-1.33l-0,-1.26l0.38,-0c0.24,-0 0.59,0.01 0.72,0.02c0.03,-0.16 0.06,-0.26 0.12,-0.41l-0.05,-0.07c-0.18,0.01 -0.47,0.02 -0.7,0.02l-0.47,-0c-0,-0.75 0.01,-0.88 0.05,-1.46c-0,-0.07 -0.03,-0.1 -0.09,-0.1c-0.25,0.1 -0.37,0.2 -0.7,0.25l-0.02,0.03c-0.02,0.35 -0.04,0.7 -0.04,1.28Z" style="fill-rule:nonzero;stroke:#000;stroke-width:0.24px;stroke-linecap:butt;stroke-linejoin:round;stroke-miterlimit:2;"/><path d="M41.655,1.657l39.748,22.972l-39.748,22.972l-39.748,-22.972l39.748,-22.972Z" style="fill:#fff;fill-opacity:0;stroke:#000;stroke-width:0.65px;stroke-miterlimit:5;"/><path d="M41.695,47.601l0.597,46.462l39.581,-23.024l-0.094,-46.239" style="fill:none;stroke:#000;stroke-width:0.65px;stroke-miterlimit:5;"/><path d="M41.844,94.15l-40.179,-23.139l-0.008,-46.284" style="fill:none;stroke:#000;stroke-width:0.65px;stroke-miterlimit:5;"/><path d="M77.445,47.113l-0.008,10.532l-29.417,16.677l0.008,-10.532l29.417,-16.677Z" style="fill:#fff;fill-opacity:0;stroke:#000;stroke-width:0.55px;stroke-linejoin:round;stroke-miterlimit:1.5;"/><path d="M59.291,63.728l0,-1.021c0.001,-0.966 -0.339,-1.168 -0.966,-0.813c-0.355,0.201 -0.773,0.723 -1.093,1.447l-0.028,-0.012c0,-0.211 -0.006,-0.594 -0.02,-0.659c-0.007,-0.061 -0.021,-0.081 -0.063,-0.057c-0.202,0.161 -0.654,0.417 -0.898,0.537l-0.014,0.035c0.056,0.364 0.076,1.052 0.076,1.742l-0.001,0.506c-0,0.69 -0.015,1.167 -0.078,1.699l0.014,0.02c0,-0 0.327,-0.213 0.571,-0.351c0.237,-0.134 0.431,-0.217 0.431,-0.217l0.021,-0.04c-0.034,-0.504 -0.041,-0.933 -0.04,-1.632l0.001,-0.939c0.264,-0.609 0.557,-1.051 0.807,-1.193c0.188,-0.107 0.362,-0.021 0.362,0.65l-0.001,0.819c-0,0.69 -0.001,1.168 -0.043,1.68l0.014,0.019c-0,0 0.223,-0.153 0.466,-0.291c0.237,-0.135 0.543,-0.281 0.543,-0.281l0.014,-0.035c-0.062,-0.489 -0.076,-0.914 -0.075,-1.613Z" style="fill-rule:nonzero;stroke:#000;stroke-width:0.24px;stroke-linecap:butt;stroke-linejoin:round;stroke-miterlimit:2;"/><path d="M60.189,62.989c-0.001,1.224 0.645,1.611 1.682,1.024c1.065,-0.604 1.685,-1.746 1.686,-3.016c0.001,-1.159 -0.492,-1.79 -1.669,-1.123c-0.995,0.564 -1.698,1.689 -1.699,3.115Zm1.65,-2.628c0.592,-0.335 0.731,0.166 0.73,1.445c-0.001,1.058 -0.287,1.514 -0.6,1.691c-0.724,0.411 -0.793,-0.571 -0.792,-1.28c0.001,-0.8 0.064,-1.516 0.662,-1.856Z" style="fill-rule:nonzero;stroke:#000;stroke-width:0.24px;stroke-linecap:butt;stroke-linejoin:round;stroke-miterlimit:2;"/><path d="M66.486,60.808l0.014,-0.008l0.034,0.477c0,0.019 0.021,0.016 0.063,-0.008c0.09,-0.069 0.341,-0.221 0.445,-0.28c0.084,-0.047 0.39,-0.212 0.48,-0.245l0.014,-0.035c-0.055,-0.364 -0.131,-1.001 -0.131,-1.691l0.003,-2.834c0,-0.681 0.028,-1.184 0.085,-1.777c-0,-0.065 -0.035,-0.072 -0.077,-0.049c-0.174,0.191 -0.71,0.679 -0.995,0.868l-0.014,0.036c0.055,0.364 0.082,0.983 0.082,1.682l-0.001,0.736c-0.132,-0.174 -0.452,-0.158 -0.654,-0.043c-0.466,0.264 -0.716,0.526 -1.037,1.011c-0.432,0.658 -0.599,1.425 -0.6,2.087c-0.001,1.132 0.521,1.664 1.293,1.226c0.439,-0.249 0.808,-0.623 0.996,-1.153Zm0,-0.727c-0.167,0.684 -0.39,1.003 -0.675,1.165c-0.376,0.213 -0.626,-0.087 -0.625,-1.237c0.001,-1.242 0.307,-1.719 0.641,-1.908c0.327,-0.186 0.591,-0.023 0.661,0.416l-0.002,1.564Z" style="fill-rule:nonzero;stroke:#000;stroke-width:0.24px;stroke-linecap:butt;stroke-linejoin:round;stroke-miterlimit:2;"/><path d="M71.121,57.693c-0.32,0.522 -0.661,0.752 -0.954,0.917c-0.341,0.194 -0.591,0.216 -0.758,0.072c-0.153,-0.134 -0.229,-0.413 -0.229,-0.836l0.696,-0.395c0.696,-0.394 1.288,-0.711 1.288,-0.711l0.041,-0.079c0.001,-1.15 -0.241,-1.932 -1.313,-1.324c-0.383,0.217 -0.801,0.61 -1.072,1.067c-0.342,0.561 -0.572,1.244 -0.572,2.007c-0.001,0.543 0.152,1.027 0.437,1.261c0.236,0.187 0.647,0.111 1.169,-0.185c0.501,-0.284 1.002,-0.78 1.378,-1.572c0,-0.12 -0.041,-0.262 -0.111,-0.222Zm-1.913,-0.277c0.029,-0.467 0.112,-0.836 0.217,-1.079c0.084,-0.204 0.223,-0.402 0.418,-0.513c0.285,-0.162 0.452,0.167 0.451,0.977l-1.086,0.615Z" style="fill-rule:nonzero;stroke:#000;stroke-width:0.24px;stroke-linecap:butt;stroke-linejoin:round;stroke-miterlimit:2;"/><rect x="109.444" y="56.812" width="12.583" height="14.279" style="fill:#fff;fill-opacity:0;stroke:#000;stroke-width:0.55px;stroke-linejoin:round;stroke-miterlimit:1.5;"/><path d="M114.872,63.956c0.18,0 0.37,0 0.57,-0.01c0.28,0.35 0.55,0.82 0.82,1.21c0.5,0.72 0.94,1.45 1.05,1.79c0.19,-0.03 0.59,-0.03 0.78,-0.03c0.2,0 0.73,0 0.93,0.03l0.02,-0.03c-0.51,-0.58 -1.55,-2.31 -2.18,-3.15c0.85,-0.21 1.53,-0.68 1.53,-1.68c0,-0.65 -0.24,-1.09 -0.65,-1.35c-0.46,-0.3 -1.13,-0.34 -1.79,-0.34c-0.25,0 -1.46,0.07 -1.76,0.07c-0.34,0 -0.84,-0.03 -0.84,-0.03l-0.02,0.03c0.08,0.57 0.12,1.25 0.12,2l0,2.45c0,0.75 -0.04,1.46 -0.12,2l0.01,0.03c0,0 0.46,-0.03 0.81,-0.03c0.34,0 0.8,0.03 0.8,0.03l0.02,-0.03c-0.08,-0.57 -0.1,-1.25 -0.1,-2l0,-0.96Zm0.89,-3.06c0.61,0 1.08,0.02 1.08,1.2c0,1.25 -0.46,1.3 -1.43,1.3l-0.54,0l0,-2.01c0,-0.29 0.18,-0.49 0.89,-0.49Z" style="fill-rule:nonzero;stroke:#000;stroke-width:0.24px;stroke-linecap:butt;stroke-linejoin:round;stroke-miterlimit:2;"/></g></svg>