<?xml version="1.0" encoding="UTF-8" standalone="no"?>
<!DOCTYPE svg PUBLIC "-//W3C//DTD SVG 1.1//EN" "http://www.w3.org/Graphics/SVG/1.1/DTD/svg11.dtd">
<svg width="100%" height="100%" viewBox="0 0 1324 241" version="1.1" xmlns="http://www.w3.org/2000/svg" xmlns:xlink="http://www.w3.org/1999/xlink" xml:space="preserve" xmlns:serif="http://www.serif.com/" style="fill-rule:evenodd;clip-rule:evenodd;stroke-linecap:round;stroke-linejoin:round;stroke-miterlimit:1.5;">
    <g transform="matrix(1,0,0,1,-470.358,-942.799)">
        <g id="Planning" transform="matrix(1,0,0,1,-70.8661,0)">
            <g id="Path" transform="matrix(1,0,0,1,35.4992,-47.2441)">
                <g transform="matrix(0.294118,0,0,0.294118,807.318,900.417)">
                    <path d="M1275.59,591.046C1329.56,600.607 1323.02,401.733 1370.08,401.575" style="fill:none;stroke:black;stroke-width:14.17px;"/>
                </g>
                <g transform="matrix(0.294118,0,0,0.294118,807.318,900.417)">
                    <path d="M1133.86,496.063C1168.47,497.234 1176.36,598.964 1228.35,590.551" style="fill:none;stroke:black;stroke-width:14.17px;"/>
                </g>
                <g transform="matrix(0.294118,0,0,0.294118,807.318,900.417)">
                    <path d="M992.126,354.331C1036.9,360.492 1042.2,495.498 1086.61,496.063" style="fill:none;stroke:black;stroke-width:14.17px;"/>
                </g>
                <g transform="matrix(0.294118,0,0,0.294118,974.062,872.626)">
                    <circle cx="826.772" cy="496.063" r="23.622" style="fill:rgb(235,235,235);fill-opacity:0;stroke:black;stroke-width:14.17px;"/>
                </g>
                <g transform="matrix(0.294118,0,0,0.294118,807.318,914.312)">
                    <circle cx="826.772" cy="496.063" r="23.622" style="fill:rgb(235,235,235);fill-opacity:0;stroke:black;stroke-width:14.17px;"/>
                </g>
                <g transform="matrix(0.294118,0,0,0.294118,849.004,858.731)">
                    <circle cx="826.772" cy="496.063" r="23.622" style="fill:rgb(235,235,235);fill-opacity:0;stroke:black;stroke-width:14.17px;"/>
                </g>
                <g transform="matrix(0.294118,0,0,0.294118,890.69,900.417)">
                    <circle cx="826.772" cy="496.063" r="23.622" style="fill:rgb(235,235,235);fill-opacity:0;stroke:black;stroke-width:14.17px;"/>
                </g>
                <g transform="matrix(0.294118,0,0,0.294118,932.376,928.208)">
                    <circle cx="826.772" cy="496.063" r="23.622" style="fill:rgb(235,235,235);fill-opacity:0;stroke:black;stroke-width:14.17px;"/>
                </g>
                <g transform="matrix(0.294118,0,0,0.294118,807.318,900.417)">
                    <path d="M708.661,472.441C753.107,472.284 774.894,536.02 803.15,543.307" style="fill:none;stroke:black;stroke-width:14.17px;"/>
                </g>
                <g transform="matrix(0.294118,0,0,0.294118,807.318,900.417)">
                    <path d="M944.882,354.331C889.551,374.059 923.357,519.225 850.394,543.307" style="fill:none;stroke:black;stroke-width:14.17px;"/>
                </g>
                <g transform="matrix(0.294118,0,0,0.294118,807.318,900.417)">
                    <path d="M1417.32,401.575C1443.93,401.317 1474.27,478.302 1511.81,472.441" style="fill:none;stroke:black;stroke-width:14.17px;"/>
                </g>
            </g>
            <g transform="matrix(0.7,0,0,1,212.598,661.417)">
                <path d="M472.441,472.441L708.661,472.441" style="fill:none;stroke:black;stroke-width:4.83px;"/>
            </g>
            <g transform="matrix(1,0,0,1,73.7052,693.542)">
                <g transform="matrix(54.1667,0,0,54.1667,488.891,416.694)">
                    <path d="M0.09,-0.235L0.09,-0.18C0.09,-0.105 0.088,-0.054 0.081,-0L0.083,0.003C0.095,0.001 0.118,-0 0.13,-0C0.142,-0 0.165,0.001 0.177,0.003L0.179,-0C0.172,-0.057 0.17,-0.104 0.17,-0.18L0.17,-0.251C0.17,-0.326 0.173,-0.362 0.179,-0.423C0.179,-0.432 0.178,-0.433 0.17,-0.433C0.147,-0.431 0.104,-0.43 0.083,-0.432L0.081,-0.429C0.087,-0.386 0.09,-0.31 0.09,-0.235ZM0.08,-0.597C0.08,-0.57 0.104,-0.546 0.131,-0.546C0.158,-0.546 0.182,-0.57 0.182,-0.597C0.182,-0.624 0.158,-0.648 0.131,-0.648C0.104,-0.648 0.08,-0.624 0.08,-0.597Z" style="fill-rule:nonzero;"/>
                </g>
                <g transform="matrix(54.1667,0,0,54.1667,502.974,416.694)">
                    <path d="M0.46,-0.18C0.46,-0.212 0.462,-0.249 0.462,-0.281C0.462,-0.385 0.428,-0.439 0.338,-0.439C0.3,-0.439 0.229,-0.424 0.165,-0.349L0.163,-0.352L0.163,-0.425C0.163,-0.433 0.162,-0.435 0.157,-0.435C0.135,-0.431 0.099,-0.43 0.076,-0.432L0.074,-0.429C0.081,-0.386 0.083,-0.31 0.083,-0.235L0.083,-0.18C0.083,-0.105 0.082,-0.054 0.074,-0L0.076,0.003C0.088,0.001 0.111,-0 0.123,-0C0.135,-0 0.158,0.001 0.17,0.003L0.172,-0C0.164,-0.057 0.163,-0.104 0.163,-0.18L0.163,-0.297C0.214,-0.357 0.272,-0.379 0.308,-0.379C0.359,-0.379 0.38,-0.359 0.38,-0.278L0.38,-0.18C0.38,-0.105 0.378,-0.054 0.371,-0L0.373,0.003C0.385,0.001 0.408,-0 0.42,-0C0.432,-0 0.455,0.001 0.467,0.003L0.469,-0C0.461,-0.057 0.46,-0.104 0.46,-0.18Z" style="fill-rule:nonzero;"/>
                </g>
                <g transform="matrix(54.1667,0,0,54.1667,532.17,416.694)">
                    <path d="M0.162,-0.352L0.162,-0.425C0.162,-0.433 0.161,-0.435 0.156,-0.435C0.134,-0.431 0.098,-0.43 0.075,-0.432L0.073,-0.429C0.08,-0.386 0.082,-0.31 0.082,-0.235L0.082,0.032C0.082,0.106 0.08,0.178 0.073,0.232L0.075,0.235C0.087,0.233 0.11,0.232 0.122,0.232C0.134,0.232 0.157,0.233 0.169,0.235L0.171,0.232C0.164,0.175 0.162,0.107 0.162,0.032L0.162,-0.012C0.188,0.002 0.225,0.01 0.261,0.01C0.393,0.01 0.473,-0.09 0.473,-0.231C0.473,-0.337 0.411,-0.439 0.299,-0.439C0.26,-0.439 0.21,-0.419 0.164,-0.349L0.162,-0.352ZM0.162,-0.294C0.184,-0.347 0.243,-0.393 0.282,-0.393C0.35,-0.393 0.385,-0.331 0.385,-0.218C0.385,-0.136 0.362,-0.03 0.255,-0.03C0.239,-0.03 0.197,-0.034 0.162,-0.075L0.162,-0.294Z" style="fill-rule:nonzero;"/>
                </g>
                <g transform="matrix(54.1667,0,0,54.1667,560.499,416.694)">
                    <path d="M0.365,-0.092L0.369,-0.089L0.374,-0C0.374,0.002 0.375,0.003 0.378,0.003C0.391,0.001 0.403,-0 0.418,-0C0.43,-0 0.449,0.001 0.462,0.003L0.464,-0C0.456,-0.043 0.447,-0.117 0.447,-0.192L0.447,-0.249C0.447,-0.324 0.448,-0.376 0.456,-0.429L0.454,-0.432C0.442,-0.43 0.419,-0.429 0.407,-0.429C0.395,-0.429 0.372,-0.43 0.36,-0.432L0.358,-0.429C0.366,-0.372 0.367,-0.325 0.367,-0.249L0.367,-0.151C0.337,-0.1 0.279,-0.046 0.23,-0.046C0.196,-0.046 0.163,-0.057 0.163,-0.15L0.163,-0.249C0.163,-0.324 0.164,-0.376 0.172,-0.429L0.17,-0.432C0.158,-0.43 0.135,-0.429 0.123,-0.429C0.111,-0.429 0.088,-0.43 0.076,-0.432L0.074,-0.429C0.082,-0.372 0.083,-0.325 0.083,-0.249L0.083,-0.129C0.083,-0.06 0.115,0.01 0.214,0.01C0.276,0.01 0.332,-0.041 0.365,-0.092Z" style="fill-rule:nonzero;"/>
                </g>
                <g transform="matrix(54.1667,0,0,54.1667,589.586,416.694)">
                    <path d="M0.095,-0.429C0.075,-0.429 0.053,-0.429 0.041,-0.431C0.034,-0.415 0.029,-0.405 0.019,-0.39L0.024,-0.383C0.041,-0.384 0.072,-0.385 0.095,-0.385L0.095,-0.248C0.095,-0.188 0.092,-0.116 0.092,-0.086C0.092,-0.021 0.134,0.01 0.18,0.01C0.222,0.01 0.254,-0 0.296,-0.027L0.284,-0.052C0.253,-0.041 0.23,-0.04 0.205,-0.044C0.181,-0.048 0.172,-0.072 0.172,-0.126C0.172,-0.156 0.175,-0.199 0.175,-0.259L0.175,-0.385L0.213,-0.385C0.237,-0.385 0.272,-0.384 0.285,-0.383C0.288,-0.399 0.291,-0.409 0.297,-0.424L0.292,-0.431C0.274,-0.43 0.245,-0.429 0.222,-0.429L0.175,-0.429C0.175,-0.504 0.176,-0.517 0.18,-0.575C0.18,-0.582 0.177,-0.585 0.171,-0.585C0.146,-0.575 0.134,-0.565 0.101,-0.56L0.099,-0.557C0.097,-0.522 0.095,-0.487 0.095,-0.429Z" style="fill-rule:nonzero;"/>
                </g>
                <g transform="matrix(54.1667,0,0,54.1667,608.003,416.694)">
                    <path d="M0.05,-0.101L0.033,-0.017C0.09,0.003 0.146,0.01 0.184,0.01C0.322,0.01 0.354,-0.072 0.354,-0.127C0.354,-0.209 0.289,-0.241 0.218,-0.258C0.18,-0.267 0.125,-0.286 0.125,-0.336C0.125,-0.377 0.158,-0.399 0.201,-0.399C0.253,-0.399 0.285,-0.358 0.308,-0.331L0.322,-0.332L0.342,-0.406L0.34,-0.409C0.311,-0.424 0.256,-0.439 0.205,-0.439C0.131,-0.439 0.054,-0.4 0.054,-0.317C0.054,-0.237 0.114,-0.211 0.174,-0.194C0.232,-0.178 0.275,-0.162 0.275,-0.113C0.275,-0.06 0.236,-0.03 0.183,-0.03C0.135,-0.03 0.093,-0.063 0.065,-0.102L0.05,-0.101Z" style="fill-rule:nonzero;"/>
                </g>
            </g>
            <g id="Outputs-arrow" serif:id="Outputs arrow" transform="matrix(1,0,0,1,-72.8661,-0.678532)">
                <g transform="matrix(0.9,0,0,1,1277.59,662.096)">
                    <g transform="matrix(1.11111,-0,-0,1,-737.223,281.381)">
                        <path d="M1282.55,184.81L1301.3,191.06L1282.55,197.31L1282.55,184.81Z"/>
                        <path d="M1088.7,191.06L1286.3,191.06" style="fill:none;stroke:black;stroke-width:4.17px;"/>
                    </g>
                </g>
                <g transform="matrix(1,0,0,1,1235.46,694.22)">
                    <g transform="matrix(54.1667,0,0,54.1667,488.891,416.694)">
                        <path d="M0.038,-0.205C0.038,-0.085 0.117,0.01 0.25,0.01C0.382,0.01 0.462,-0.083 0.462,-0.214C0.462,-0.35 0.389,-0.439 0.254,-0.439C0.123,-0.439 0.038,-0.347 0.038,-0.205ZM0.247,-0.399C0.353,-0.399 0.374,-0.317 0.374,-0.196C0.374,-0.101 0.326,-0.03 0.259,-0.03C0.153,-0.03 0.126,-0.145 0.126,-0.222C0.126,-0.309 0.153,-0.399 0.247,-0.399Z" style="fill-rule:nonzero;"/>
                    </g>
                    <g transform="matrix(54.1667,0,0,54.1667,515.974,416.694)">
                        <path d="M0.365,-0.092L0.369,-0.089L0.374,-0C0.374,0.002 0.375,0.003 0.378,0.003C0.391,0.001 0.403,-0 0.418,-0C0.43,-0 0.449,0.001 0.462,0.003L0.464,-0C0.456,-0.043 0.447,-0.117 0.447,-0.192L0.447,-0.249C0.447,-0.324 0.448,-0.376 0.456,-0.429L0.454,-0.432C0.442,-0.43 0.419,-0.429 0.407,-0.429C0.395,-0.429 0.372,-0.43 0.36,-0.432L0.358,-0.429C0.366,-0.372 0.367,-0.325 0.367,-0.249L0.367,-0.151C0.337,-0.1 0.279,-0.046 0.23,-0.046C0.196,-0.046 0.163,-0.057 0.163,-0.15L0.163,-0.249C0.163,-0.324 0.164,-0.376 0.172,-0.429L0.17,-0.432C0.158,-0.43 0.135,-0.429 0.123,-0.429C0.111,-0.429 0.088,-0.43 0.076,-0.432L0.074,-0.429C0.082,-0.372 0.083,-0.325 0.083,-0.249L0.083,-0.129C0.083,-0.06 0.115,0.01 0.214,0.01C0.276,0.01 0.332,-0.041 0.365,-0.092Z" style="fill-rule:nonzero;"/>
                    </g>
                    <g transform="matrix(54.1667,0,0,54.1667,545.061,416.694)">
                        <path d="M0.095,-0.429C0.075,-0.429 0.053,-0.429 0.041,-0.431C0.034,-0.415 0.029,-0.405 0.019,-0.39L0.024,-0.383C0.041,-0.384 0.072,-0.385 0.095,-0.385L0.095,-0.248C0.095,-0.188 0.092,-0.116 0.092,-0.086C0.092,-0.021 0.134,0.01 0.18,0.01C0.222,0.01 0.254,-0 0.296,-0.027L0.284,-0.052C0.253,-0.041 0.23,-0.04 0.205,-0.044C0.181,-0.048 0.172,-0.072 0.172,-0.126C0.172,-0.156 0.175,-0.199 0.175,-0.259L0.175,-0.385L0.213,-0.385C0.237,-0.385 0.272,-0.384 0.285,-0.383C0.288,-0.399 0.291,-0.409 0.297,-0.424L0.292,-0.431C0.274,-0.43 0.245,-0.429 0.222,-0.429L0.175,-0.429C0.175,-0.504 0.176,-0.517 0.18,-0.575C0.18,-0.582 0.177,-0.585 0.171,-0.585C0.146,-0.575 0.134,-0.565 0.101,-0.56L0.099,-0.557C0.097,-0.522 0.095,-0.487 0.095,-0.429Z" style="fill-rule:nonzero;"/>
                    </g>
                    <g transform="matrix(54.1667,0,0,54.1667,563.478,416.694)">
                        <path d="M0.162,-0.352L0.162,-0.425C0.162,-0.433 0.161,-0.435 0.156,-0.435C0.134,-0.431 0.098,-0.43 0.075,-0.432L0.073,-0.429C0.08,-0.386 0.082,-0.31 0.082,-0.235L0.082,0.032C0.082,0.106 0.08,0.178 0.073,0.232L0.075,0.235C0.087,0.233 0.11,0.232 0.122,0.232C0.134,0.232 0.157,0.233 0.169,0.235L0.171,0.232C0.164,0.175 0.162,0.107 0.162,0.032L0.162,-0.012C0.188,0.002 0.225,0.01 0.261,0.01C0.393,0.01 0.473,-0.09 0.473,-0.231C0.473,-0.337 0.411,-0.439 0.299,-0.439C0.26,-0.439 0.21,-0.419 0.164,-0.349L0.162,-0.352ZM0.162,-0.294C0.184,-0.347 0.243,-0.393 0.282,-0.393C0.35,-0.393 0.385,-0.331 0.385,-0.218C0.385,-0.136 0.362,-0.03 0.255,-0.03C0.239,-0.03 0.197,-0.034 0.162,-0.075L0.162,-0.294Z" style="fill-rule:nonzero;"/>
                    </g>
                    <g transform="matrix(54.1667,0,0,54.1667,591.807,416.694)">
                        <path d="M0.365,-0.092L0.369,-0.089L0.374,-0C0.374,0.002 0.375,0.003 0.378,0.003C0.391,0.001 0.403,-0 0.418,-0C0.43,-0 0.449,0.001 0.462,0.003L0.464,-0C0.456,-0.043 0.447,-0.117 0.447,-0.192L0.447,-0.249C0.447,-0.324 0.448,-0.376 0.456,-0.429L0.454,-0.432C0.442,-0.43 0.419,-0.429 0.407,-0.429C0.395,-0.429 0.372,-0.43 0.36,-0.432L0.358,-0.429C0.366,-0.372 0.367,-0.325 0.367,-0.249L0.367,-0.151C0.337,-0.1 0.279,-0.046 0.23,-0.046C0.196,-0.046 0.163,-0.057 0.163,-0.15L0.163,-0.249C0.163,-0.324 0.164,-0.376 0.172,-0.429L0.17,-0.432C0.158,-0.43 0.135,-0.429 0.123,-0.429C0.111,-0.429 0.088,-0.43 0.076,-0.432L0.074,-0.429C0.082,-0.372 0.083,-0.325 0.083,-0.249L0.083,-0.129C0.083,-0.06 0.115,0.01 0.214,0.01C0.276,0.01 0.332,-0.041 0.365,-0.092Z" style="fill-rule:nonzero;"/>
                    </g>
                    <g transform="matrix(54.1667,0,0,54.1667,620.895,416.694)">
                        <path d="M0.095,-0.429C0.075,-0.429 0.053,-0.429 0.041,-0.431C0.034,-0.415 0.029,-0.405 0.019,-0.39L0.024,-0.383C0.041,-0.384 0.072,-0.385 0.095,-0.385L0.095,-0.248C0.095,-0.188 0.092,-0.116 0.092,-0.086C0.092,-0.021 0.134,0.01 0.18,0.01C0.222,0.01 0.254,-0 0.296,-0.027L0.284,-0.052C0.253,-0.041 0.23,-0.04 0.205,-0.044C0.181,-0.048 0.172,-0.072 0.172,-0.126C0.172,-0.156 0.175,-0.199 0.175,-0.259L0.175,-0.385L0.213,-0.385C0.237,-0.385 0.272,-0.384 0.285,-0.383C0.288,-0.399 0.291,-0.409 0.297,-0.424L0.292,-0.431C0.274,-0.43 0.245,-0.429 0.222,-0.429L0.175,-0.429C0.175,-0.504 0.176,-0.517 0.18,-0.575C0.18,-0.582 0.177,-0.585 0.171,-0.585C0.146,-0.575 0.134,-0.565 0.101,-0.56L0.099,-0.557C0.097,-0.522 0.095,-0.487 0.095,-0.429Z" style="fill-rule:nonzero;"/>
                    </g>
                    <g transform="matrix(54.1667,0,0,54.1667,639.311,416.694)">
                        <path d="M0.05,-0.101L0.033,-0.017C0.09,0.003 0.146,0.01 0.184,0.01C0.322,0.01 0.354,-0.072 0.354,-0.127C0.354,-0.209 0.289,-0.241 0.218,-0.258C0.18,-0.267 0.125,-0.286 0.125,-0.336C0.125,-0.377 0.158,-0.399 0.201,-0.399C0.253,-0.399 0.285,-0.358 0.308,-0.331L0.322,-0.332L0.342,-0.406L0.34,-0.409C0.311,-0.424 0.256,-0.439 0.205,-0.439C0.131,-0.439 0.054,-0.4 0.054,-0.317C0.054,-0.237 0.114,-0.211 0.174,-0.194C0.232,-0.178 0.275,-0.162 0.275,-0.113C0.275,-0.06 0.236,-0.03 0.183,-0.03C0.135,-0.03 0.093,-0.063 0.065,-0.102L0.05,-0.101Z" style="fill-rule:nonzero;"/>
                    </g>
                </g>
            </g>
            <g id="Planner-box" serif:id="Planner box" transform="matrix(1,0,0,1,47.2441,-6.94766)">
                <g transform="matrix(0.9,0,0,1,94.4882,-134.785)">
                    <rect x="708.661" y="1086.61" width="236.22" height="94.488" style="fill:rgb(235,235,235);fill-opacity:0;stroke:black;stroke-width:4.38px;"/>
                </g>
                <g transform="matrix(1,0,0,1,-14.2592,20.5576)">
                    <g transform="matrix(54.1667,0,0,54.1667,765.073,997.149)">
                        <path d="M0.104,-0.445L0.104,-0.2C0.104,-0.125 0.102,-0.054 0.094,-0L0.096,0.003C0.108,0.001 0.135,-0 0.147,-0C0.159,-0 0.186,0.001 0.198,0.003L0.2,-0C0.192,-0.057 0.19,-0.125 0.19,-0.2L0.19,-0.286C0.212,-0.279 0.239,-0.276 0.274,-0.276C0.456,-0.276 0.519,-0.391 0.519,-0.476C0.519,-0.55 0.472,-0.652 0.287,-0.652C0.261,-0.652 0.177,-0.645 0.147,-0.645C0.135,-0.645 0.108,-0.646 0.096,-0.648L0.094,-0.645C0.102,-0.588 0.104,-0.52 0.104,-0.445ZM0.19,-0.565C0.19,-0.594 0.208,-0.609 0.28,-0.609C0.349,-0.609 0.422,-0.59 0.422,-0.471C0.422,-0.356 0.366,-0.319 0.269,-0.319C0.244,-0.319 0.203,-0.322 0.19,-0.329L0.19,-0.565Z" style="fill-rule:nonzero;"/>
                    </g>
                    <g transform="matrix(54.1667,0,0,54.1667,796.002,997.149)">
                        <path d="M0.09,-0.2C0.09,-0.126 0.089,-0.054 0.081,-0L0.083,0.003C0.095,0.001 0.118,-0 0.13,-0C0.142,-0 0.165,0.001 0.177,0.003L0.179,-0C0.171,-0.057 0.17,-0.125 0.17,-0.2L0.17,-0.5C0.17,-0.575 0.174,-0.625 0.179,-0.688C0.179,-0.695 0.176,-0.698 0.17,-0.698C0.145,-0.688 0.124,-0.681 0.083,-0.678L0.081,-0.675C0.089,-0.632 0.09,-0.558 0.09,-0.482L0.09,-0.2Z" style="fill-rule:nonzero;"/>
                    </g>
                    <g transform="matrix(54.1667,0,0,54.1667,809.652,997.149)">
                        <path d="M0.31,-0.048C0.322,-0.009 0.351,0.01 0.388,0.01C0.413,0.01 0.444,0.004 0.468,-0.021L0.46,-0.046C0.449,-0.042 0.441,-0.041 0.433,-0.041C0.423,-0.041 0.41,-0.042 0.404,-0.048C0.394,-0.057 0.387,-0.082 0.387,-0.126C0.387,-0.155 0.39,-0.266 0.39,-0.277C0.39,-0.412 0.301,-0.439 0.225,-0.439C0.149,-0.439 0.103,-0.402 0.078,-0.381L0.075,-0.377L0.092,-0.31L0.105,-0.309C0.133,-0.354 0.167,-0.394 0.215,-0.394C0.251,-0.394 0.311,-0.389 0.311,-0.276C0.311,-0.269 0.307,-0.265 0.304,-0.264L0.211,-0.243C0.109,-0.22 0.045,-0.166 0.045,-0.098C0.045,-0.024 0.096,0.01 0.17,0.01C0.225,0.01 0.253,-0.003 0.306,-0.048L0.31,-0.048ZM0.31,-0.225L0.306,-0.106C0.306,-0.093 0.3,-0.086 0.292,-0.08C0.264,-0.059 0.23,-0.041 0.2,-0.041C0.155,-0.041 0.126,-0.071 0.126,-0.102C0.126,-0.147 0.147,-0.181 0.225,-0.202L0.31,-0.225Z" style="fill-rule:nonzero;"/>
                    </g>
                    <g transform="matrix(54.1667,0,0,54.1667,835.706,997.149)">
                        <path d="M0.46,-0.18C0.46,-0.212 0.462,-0.249 0.462,-0.281C0.462,-0.385 0.428,-0.439 0.338,-0.439C0.3,-0.439 0.229,-0.424 0.165,-0.349L0.163,-0.352L0.163,-0.425C0.163,-0.433 0.162,-0.435 0.157,-0.435C0.135,-0.431 0.099,-0.43 0.076,-0.432L0.074,-0.429C0.081,-0.386 0.083,-0.31 0.083,-0.235L0.083,-0.18C0.083,-0.105 0.082,-0.054 0.074,-0L0.076,0.003C0.088,0.001 0.111,-0 0.123,-0C0.135,-0 0.158,0.001 0.17,0.003L0.172,-0C0.164,-0.057 0.163,-0.104 0.163,-0.18L0.163,-0.297C0.214,-0.357 0.272,-0.379 0.308,-0.379C0.359,-0.379 0.38,-0.359 0.38,-0.278L0.38,-0.18C0.38,-0.105 0.378,-0.054 0.371,-0L0.373,0.003C0.385,0.001 0.408,-0 0.42,-0C0.432,-0 0.455,0.001 0.467,0.003L0.469,-0C0.461,-0.057 0.46,-0.104 0.46,-0.18Z" style="fill-rule:nonzero;"/>
                    </g>
                    <g transform="matrix(54.1667,0,0,54.1667,864.902,997.149)">
                        <path d="M0.46,-0.18C0.46,-0.212 0.462,-0.249 0.462,-0.281C0.462,-0.385 0.428,-0.439 0.338,-0.439C0.3,-0.439 0.229,-0.424 0.165,-0.349L0.163,-0.352L0.163,-0.425C0.163,-0.433 0.162,-0.435 0.157,-0.435C0.135,-0.431 0.099,-0.43 0.076,-0.432L0.074,-0.429C0.081,-0.386 0.083,-0.31 0.083,-0.235L0.083,-0.18C0.083,-0.105 0.082,-0.054 0.074,-0L0.076,0.003C0.088,0.001 0.111,-0 0.123,-0C0.135,-0 0.158,0.001 0.17,0.003L0.172,-0C0.164,-0.057 0.163,-0.104 0.163,-0.18L0.163,-0.297C0.214,-0.357 0.272,-0.379 0.308,-0.379C0.359,-0.379 0.38,-0.359 0.38,-0.278L0.38,-0.18C0.38,-0.105 0.378,-0.054 0.371,-0L0.373,0.003C0.385,0.001 0.408,-0 0.42,-0C0.432,-0 0.455,0.001 0.467,0.003L0.469,-0C0.461,-0.057 0.46,-0.104 0.46,-0.18Z" style="fill-rule:nonzero;"/>
                    </g>
                    <g transform="matrix(54.1667,0,0,54.1667,894.098,997.149)">
                        <path d="M0.392,-0.104C0.357,-0.066 0.31,-0.049 0.255,-0.049C0.221,-0.049 0.174,-0.062 0.146,-0.106C0.128,-0.134 0.122,-0.175 0.122,-0.233L0.394,-0.233C0.405,-0.233 0.412,-0.239 0.412,-0.25C0.412,-0.334 0.371,-0.439 0.239,-0.439C0.136,-0.439 0.034,-0.356 0.034,-0.209C0.034,-0.152 0.046,-0.096 0.079,-0.056C0.113,-0.015 0.171,0.01 0.238,0.01C0.31,0.01 0.374,-0.027 0.412,-0.079L0.392,-0.104ZM0.125,-0.273C0.142,-0.377 0.208,-0.399 0.239,-0.399C0.279,-0.399 0.323,-0.362 0.323,-0.287C0.323,-0.278 0.319,-0.273 0.309,-0.273L0.125,-0.273Z" style="fill-rule:nonzero;"/>
                    </g>
                    <g transform="matrix(54.1667,0,0,54.1667,918.636,997.149)">
                        <path d="M0.167,-0.334L0.167,-0.425C0.167,-0.433 0.166,-0.435 0.161,-0.435C0.139,-0.431 0.103,-0.43 0.08,-0.432L0.078,-0.429C0.085,-0.386 0.087,-0.31 0.087,-0.235L0.087,-0.18C0.087,-0.105 0.086,-0.054 0.078,-0L0.08,0.003C0.092,0.001 0.115,-0 0.127,-0C0.139,-0 0.162,0.001 0.174,0.003L0.176,-0C0.169,-0.057 0.167,-0.104 0.167,-0.18L0.167,-0.232C0.167,-0.274 0.18,-0.298 0.201,-0.331C0.216,-0.353 0.238,-0.366 0.257,-0.366C0.277,-0.366 0.296,-0.364 0.309,-0.352L0.317,-0.354L0.337,-0.428L0.333,-0.432C0.316,-0.437 0.315,-0.439 0.297,-0.439C0.243,-0.439 0.214,-0.408 0.17,-0.332L0.167,-0.334Z" style="fill-rule:nonzero;"/>
                    </g>
                </g>
            </g>
            <g id="Executor-box" serif:id="Executor box" transform="matrix(1,0,0,1,661.417,134.785)">
                <g transform="matrix(1,0,0,1,23.622,-134.785)">
                    <rect x="708.661" y="1086.61" width="236.22" height="94.488" style="fill:rgb(235,235,235);fill-opacity:0;stroke:black;stroke-width:4.17px;"/>
                </g>
                <g transform="matrix(1,0,0,1,-14.9745,19.2035)">
                    <g transform="matrix(54.1667,0,0,54.1667,765.073,997.149)">
                        <path d="M0.19,-0.2L0.19,-0.317C0.238,-0.317 0.344,-0.314 0.413,-0.307L0.416,-0.31C0.414,-0.319 0.413,-0.333 0.413,-0.342C0.413,-0.351 0.414,-0.365 0.416,-0.374L0.413,-0.377C0.354,-0.372 0.308,-0.367 0.19,-0.367L0.19,-0.445C0.19,-0.462 0.191,-0.565 0.198,-0.589C0.332,-0.589 0.47,-0.577 0.47,-0.577L0.472,-0.581C0.471,-0.589 0.47,-0.598 0.47,-0.607C0.47,-0.615 0.471,-0.631 0.472,-0.645L0.47,-0.648C0.454,-0.646 0.431,-0.645 0.41,-0.645L0.147,-0.645C0.113,-0.645 0.096,-0.648 0.096,-0.648L0.094,-0.645C0.102,-0.588 0.104,-0.52 0.104,-0.445L0.104,-0.2C0.104,-0.125 0.102,-0.054 0.094,-0L0.095,0.003C0.095,0.003 0.112,-0 0.147,-0L0.42,-0C0.441,-0 0.464,0.001 0.48,0.003L0.482,-0C0.481,-0.014 0.48,-0.021 0.48,-0.031C0.48,-0.041 0.481,-0.056 0.482,-0.064L0.48,-0.068C0.48,-0.068 0.332,-0.056 0.198,-0.056C0.191,-0.08 0.19,-0.183 0.19,-0.2Z" style="fill-rule:nonzero;"/>
                    </g>
                    <g transform="matrix(54.1667,0,0,54.1667,794.215,997.149)">
                        <path d="M0.185,-0.207L0.028,0.003C0.038,0.001 0.054,-0 0.064,-0C0.074,-0 0.098,0.001 0.108,0.003C0.146,-0.054 0.176,-0.109 0.216,-0.165C0.256,-0.109 0.286,-0.054 0.322,0.003C0.337,0.001 0.357,-0 0.373,-0C0.388,-0 0.415,0.001 0.43,0.003C0.37,-0.075 0.321,-0.152 0.267,-0.23L0.431,-0.432C0.418,-0.43 0.396,-0.429 0.386,-0.429C0.375,-0.429 0.36,-0.43 0.349,-0.432C0.311,-0.376 0.279,-0.323 0.237,-0.269C0.197,-0.323 0.17,-0.376 0.136,-0.432C0.119,-0.43 0.099,-0.429 0.082,-0.429C0.066,-0.429 0.04,-0.43 0.024,-0.432L0.185,-0.207Z" style="fill-rule:nonzero;"/>
                    </g>
                    <g transform="matrix(54.1667,0,0,54.1667,818.861,997.149)">
                        <path d="M0.392,-0.104C0.357,-0.066 0.31,-0.049 0.255,-0.049C0.221,-0.049 0.174,-0.062 0.146,-0.106C0.128,-0.134 0.122,-0.175 0.122,-0.233L0.394,-0.233C0.405,-0.233 0.412,-0.239 0.412,-0.25C0.412,-0.334 0.371,-0.439 0.239,-0.439C0.136,-0.439 0.034,-0.356 0.034,-0.209C0.034,-0.152 0.046,-0.096 0.079,-0.056C0.113,-0.015 0.171,0.01 0.238,0.01C0.31,0.01 0.374,-0.027 0.412,-0.079L0.392,-0.104ZM0.125,-0.273C0.142,-0.377 0.208,-0.399 0.239,-0.399C0.279,-0.399 0.323,-0.362 0.323,-0.287C0.323,-0.278 0.319,-0.273 0.309,-0.273L0.125,-0.273Z" style="fill-rule:nonzero;"/>
                    </g>
                    <g transform="matrix(54.1667,0,0,54.1667,843.777,997.149)">
                        <path d="M0.25,-0.399C0.289,-0.399 0.324,-0.371 0.35,-0.325L0.363,-0.326L0.386,-0.408L0.384,-0.411C0.353,-0.427 0.301,-0.439 0.251,-0.439C0.147,-0.439 0.038,-0.354 0.038,-0.218C0.038,-0.079 0.117,0.01 0.239,0.01C0.299,0.01 0.346,-0.01 0.386,-0.061L0.367,-0.082L0.363,-0.082C0.325,-0.048 0.293,-0.04 0.256,-0.04C0.183,-0.04 0.126,-0.106 0.126,-0.223C0.126,-0.333 0.184,-0.399 0.25,-0.399Z" style="fill-rule:nonzero;"/>
                    </g>
                    <g transform="matrix(54.1667,0,0,54.1667,867.015,997.149)">
                        <path d="M0.365,-0.092L0.369,-0.089L0.374,-0C0.374,0.002 0.375,0.003 0.378,0.003C0.391,0.001 0.403,-0 0.418,-0C0.43,-0 0.449,0.001 0.462,0.003L0.464,-0C0.456,-0.043 0.447,-0.117 0.447,-0.192L0.447,-0.249C0.447,-0.324 0.448,-0.376 0.456,-0.429L0.454,-0.432C0.442,-0.43 0.419,-0.429 0.407,-0.429C0.395,-0.429 0.372,-0.43 0.36,-0.432L0.358,-0.429C0.366,-0.372 0.367,-0.325 0.367,-0.249L0.367,-0.151C0.337,-0.1 0.279,-0.046 0.23,-0.046C0.196,-0.046 0.163,-0.057 0.163,-0.15L0.163,-0.249C0.163,-0.324 0.164,-0.376 0.172,-0.429L0.17,-0.432C0.158,-0.43 0.135,-0.429 0.123,-0.429C0.111,-0.429 0.088,-0.43 0.076,-0.432L0.074,-0.429C0.082,-0.372 0.083,-0.325 0.083,-0.249L0.083,-0.129C0.083,-0.06 0.115,0.01 0.214,0.01C0.276,0.01 0.332,-0.041 0.365,-0.092Z" style="fill-rule:nonzero;"/>
                    </g>
                    <g transform="matrix(54.1667,0,0,54.1667,896.102,997.149)">
                        <path d="M0.095,-0.429C0.075,-0.429 0.053,-0.429 0.041,-0.431C0.034,-0.415 0.029,-0.405 0.019,-0.39L0.024,-0.383C0.041,-0.384 0.072,-0.385 0.095,-0.385L0.095,-0.248C0.095,-0.188 0.092,-0.116 0.092,-0.086C0.092,-0.021 0.134,0.01 0.18,0.01C0.222,0.01 0.254,-0 0.296,-0.027L0.284,-0.052C0.253,-0.041 0.23,-0.04 0.205,-0.044C0.181,-0.048 0.172,-0.072 0.172,-0.126C0.172,-0.156 0.175,-0.199 0.175,-0.259L0.175,-0.385L0.213,-0.385C0.237,-0.385 0.272,-0.384 0.285,-0.383C0.288,-0.399 0.291,-0.409 0.297,-0.424L0.292,-0.431C0.274,-0.43 0.245,-0.429 0.222,-0.429L0.175,-0.429C0.175,-0.504 0.176,-0.517 0.18,-0.575C0.18,-0.582 0.177,-0.585 0.171,-0.585C0.146,-0.575 0.134,-0.565 0.101,-0.56L0.099,-0.557C0.097,-0.522 0.095,-0.487 0.095,-0.429Z" style="fill-rule:nonzero;"/>
                    </g>
                    <g transform="matrix(54.1667,0,0,54.1667,914.519,997.149)">
                        <path d="M0.038,-0.205C0.038,-0.085 0.117,0.01 0.25,0.01C0.382,0.01 0.462,-0.083 0.462,-0.214C0.462,-0.35 0.389,-0.439 0.254,-0.439C0.123,-0.439 0.038,-0.347 0.038,-0.205ZM0.247,-0.399C0.353,-0.399 0.374,-0.317 0.374,-0.196C0.374,-0.101 0.326,-0.03 0.259,-0.03C0.153,-0.03 0.126,-0.145 0.126,-0.222C0.126,-0.309 0.153,-0.399 0.247,-0.399Z" style="fill-rule:nonzero;"/>
                    </g>
                    <g transform="matrix(54.1667,0,0,54.1667,941.602,997.149)">
                        <path d="M0.167,-0.334L0.167,-0.425C0.167,-0.433 0.166,-0.435 0.161,-0.435C0.139,-0.431 0.103,-0.43 0.08,-0.432L0.078,-0.429C0.085,-0.386 0.087,-0.31 0.087,-0.235L0.087,-0.18C0.087,-0.105 0.086,-0.054 0.078,-0L0.08,0.003C0.092,0.001 0.115,-0 0.127,-0C0.139,-0 0.162,0.001 0.174,0.003L0.176,-0C0.169,-0.057 0.167,-0.104 0.167,-0.18L0.167,-0.232C0.167,-0.274 0.18,-0.298 0.201,-0.331C0.216,-0.353 0.238,-0.366 0.257,-0.366C0.277,-0.366 0.296,-0.364 0.309,-0.352L0.317,-0.354L0.337,-0.428L0.333,-0.432C0.316,-0.437 0.315,-0.439 0.297,-0.439C0.243,-0.439 0.214,-0.408 0.17,-0.332L0.167,-0.334Z" style="fill-rule:nonzero;"/>
                    </g>
                </g>
            </g>
            <g transform="matrix(1.5,0,0,0.999029,-354.331,1.10044)">
                <g transform="matrix(0.666667,-0,-0,1.00097,597.036,942.613)">
                    <path d="M219.683,42.84L238.304,49.465L219.432,55.338L219.683,42.84Z"/>
                    <path d="M167.438,191.06C227.779,191.803 170.668,58.481 223.307,49.164" style="fill:none;stroke:black;stroke-width:4.17px;"/>
                </g>
            </g>
            <g transform="matrix(1.5,0,0,-0.999029,242.727,2124.21)">
                <path d="M708.661,1133.86C752.677,1133.91 703.588,996.961 755.906,991.309" style="fill:none;stroke:black;stroke-width:3.27px;"/>
            </g>
            <g transform="matrix(0.500026,0.00357402,0.00357402,0.999974,480.68,-3.26724)">
                <g transform="matrix(1.99995,-0.00714804,-0.00714804,1.00005,114.322,945.681)">
                    <path d="M479.352,43.212L498.146,49.327L479.441,55.711L479.352,43.212Z"/>
                    <path d="M450.902,49.665C450.902,49.665 469.311,49.534 483.147,49.435" style="fill:none;stroke:black;stroke-width:4.17px;"/>
                </g>
            </g>
            <g transform="matrix(0.937418,-2.56346e-07,-2.56346e-07,1,44.4124,0.000181919)">
                <g transform="matrix(1.06676,2.7346e-07,2.7346e-07,1,529.979,942.799)">
                    <path d="M833.727,184.81L852.477,191.06L833.727,197.31L833.727,184.81Z"/>
                    <path d="M168.433,191.06L837.477,191.06" style="fill:none;stroke:black;stroke-width:4.17px;"/>
                </g>
            </g>
        </g>
    </g>
</svg>
