<?xml version="1.0" encoding="UTF-8" standalone="no"?>
<!DOCTYPE svg PUBLIC "-//W3C//DTD SVG 1.1//EN" "http://www.w3.org/Graphics/SVG/1.1/DTD/svg11.dtd">
<svg width="100%" height="100%" viewBox="0 0 1233 52" version="1.1" xmlns="http://www.w3.org/2000/svg" xmlns:xlink="http://www.w3.org/1999/xlink" xml:space="preserve" xmlns:serif="http://www.serif.com/" style="fill-rule:evenodd;clip-rule:evenodd;stroke-linecap:round;stroke-linejoin:round;stroke-miterlimit:1.5;">
    <g transform="matrix(1,0,0,1,-92.4049,-848.31)">
        <g id="Tensorsafe-structure" serif:id="Tensorsafe structure">
        </g>
        <g id="Safetensors-structure" serif:id="Safetensors structure">
        </g>
        <g id="Chunked-metadata" serif:id="Chunked metadata">
            <g id="Tensor-data" serif:id="Tensor data">
                <g transform="matrix(1,0,0,1,238.081,596.969)">
                    <g transform="matrix(29.1667,0,0,29.1667,233.806,287.081)">
                        <path d="M0.095,-0.429C0.075,-0.429 0.053,-0.429 0.041,-0.431C0.034,-0.415 0.029,-0.405 0.019,-0.39L0.024,-0.383C0.041,-0.384 0.072,-0.385 0.095,-0.385L0.095,-0.248C0.095,-0.188 0.092,-0.116 0.092,-0.086C0.092,-0.021 0.134,0.01 0.18,0.01C0.222,0.01 0.254,-0 0.296,-0.027L0.284,-0.052C0.253,-0.041 0.23,-0.04 0.205,-0.044C0.181,-0.048 0.172,-0.072 0.172,-0.126C0.172,-0.156 0.175,-0.199 0.175,-0.259L0.175,-0.385L0.213,-0.385C0.237,-0.385 0.272,-0.384 0.285,-0.383C0.288,-0.399 0.291,-0.409 0.297,-0.424L0.292,-0.431C0.274,-0.43 0.245,-0.429 0.222,-0.429L0.175,-0.429C0.175,-0.504 0.176,-0.517 0.18,-0.575C0.18,-0.582 0.177,-0.585 0.171,-0.585C0.146,-0.575 0.134,-0.565 0.101,-0.56L0.099,-0.557C0.097,-0.522 0.095,-0.487 0.095,-0.429Z" style="fill-rule:nonzero;"/>
                    </g>
                    <g transform="matrix(29.1667,0,0,29.1667,243.722,287.081)">
                        <path d="M0.392,-0.104C0.357,-0.066 0.31,-0.049 0.255,-0.049C0.221,-0.049 0.174,-0.062 0.146,-0.106C0.128,-0.134 0.122,-0.175 0.122,-0.233L0.394,-0.233C0.405,-0.233 0.412,-0.239 0.412,-0.25C0.412,-0.334 0.371,-0.439 0.239,-0.439C0.136,-0.439 0.034,-0.356 0.034,-0.209C0.034,-0.152 0.046,-0.096 0.079,-0.056C0.113,-0.015 0.171,0.01 0.238,0.01C0.31,0.01 0.374,-0.027 0.412,-0.079L0.392,-0.104ZM0.125,-0.273C0.142,-0.377 0.208,-0.399 0.239,-0.399C0.279,-0.399 0.323,-0.362 0.323,-0.287C0.323,-0.278 0.319,-0.273 0.309,-0.273L0.125,-0.273Z" style="fill-rule:nonzero;"/>
                    </g>
                    <g transform="matrix(29.1667,0,0,29.1667,256.935,287.081)">
                        <path d="M0.46,-0.18C0.46,-0.212 0.462,-0.249 0.462,-0.281C0.462,-0.385 0.428,-0.439 0.338,-0.439C0.3,-0.439 0.229,-0.424 0.165,-0.349L0.163,-0.352L0.163,-0.425C0.163,-0.433 0.162,-0.435 0.157,-0.435C0.135,-0.431 0.099,-0.43 0.076,-0.432L0.074,-0.429C0.081,-0.386 0.083,-0.31 0.083,-0.235L0.083,-0.18C0.083,-0.105 0.082,-0.054 0.074,-0L0.076,0.003C0.088,0.001 0.111,-0 0.123,-0C0.135,-0 0.158,0.001 0.17,0.003L0.172,-0C0.164,-0.057 0.163,-0.104 0.163,-0.18L0.163,-0.297C0.214,-0.357 0.272,-0.379 0.308,-0.379C0.359,-0.379 0.38,-0.359 0.38,-0.278L0.38,-0.18C0.38,-0.105 0.378,-0.054 0.371,-0L0.373,0.003C0.385,0.001 0.408,-0 0.42,-0C0.432,-0 0.455,0.001 0.467,0.003L0.469,-0C0.461,-0.057 0.46,-0.104 0.46,-0.18Z" style="fill-rule:nonzero;"/>
                    </g>
                    <g transform="matrix(29.1667,0,0,29.1667,272.656,287.081)">
                        <path d="M0.05,-0.101L0.033,-0.017C0.09,0.003 0.146,0.01 0.184,0.01C0.322,0.01 0.354,-0.072 0.354,-0.127C0.354,-0.209 0.289,-0.241 0.218,-0.258C0.18,-0.267 0.125,-0.286 0.125,-0.336C0.125,-0.377 0.158,-0.399 0.201,-0.399C0.253,-0.399 0.285,-0.358 0.308,-0.331L0.322,-0.332L0.342,-0.406L0.34,-0.409C0.311,-0.424 0.256,-0.439 0.205,-0.439C0.131,-0.439 0.054,-0.4 0.054,-0.317C0.054,-0.237 0.114,-0.211 0.174,-0.194C0.232,-0.178 0.275,-0.162 0.275,-0.113C0.275,-0.06 0.236,-0.03 0.183,-0.03C0.135,-0.03 0.093,-0.063 0.065,-0.102L0.05,-0.101Z" style="fill-rule:nonzero;"/>
                    </g>
                    <g transform="matrix(29.1667,0,0,29.1667,284.206,287.081)">
                        <path d="M0.038,-0.205C0.038,-0.085 0.117,0.01 0.25,0.01C0.382,0.01 0.462,-0.083 0.462,-0.214C0.462,-0.35 0.389,-0.439 0.254,-0.439C0.123,-0.439 0.038,-0.347 0.038,-0.205ZM0.247,-0.399C0.353,-0.399 0.374,-0.317 0.374,-0.196C0.374,-0.101 0.326,-0.03 0.259,-0.03C0.153,-0.03 0.126,-0.145 0.126,-0.222C0.126,-0.309 0.153,-0.399 0.247,-0.399Z" style="fill-rule:nonzero;"/>
                    </g>
                    <g transform="matrix(29.1667,0,0,29.1667,298.789,287.081)">
                        <path d="M0.167,-0.334L0.167,-0.425C0.167,-0.433 0.166,-0.435 0.161,-0.435C0.139,-0.431 0.103,-0.43 0.08,-0.432L0.078,-0.429C0.085,-0.386 0.087,-0.31 0.087,-0.235L0.087,-0.18C0.087,-0.105 0.086,-0.054 0.078,-0L0.08,0.003C0.092,0.001 0.115,-0 0.127,-0C0.139,-0 0.162,0.001 0.174,0.003L0.176,-0C0.169,-0.057 0.167,-0.104 0.167,-0.18L0.167,-0.232C0.167,-0.274 0.18,-0.298 0.201,-0.331C0.216,-0.353 0.238,-0.366 0.257,-0.366C0.277,-0.366 0.296,-0.364 0.309,-0.352L0.317,-0.354L0.337,-0.428L0.333,-0.432C0.316,-0.437 0.315,-0.439 0.297,-0.439C0.243,-0.439 0.214,-0.408 0.17,-0.332L0.167,-0.334Z" style="fill-rule:nonzero;"/>
                    </g>
                    <g transform="matrix(29.1667,0,0,29.1667,316.435,287.081)">
                        <path d="M0.162,-0.5C0.162,-0.574 0.163,-0.627 0.168,-0.688C0.168,-0.695 0.165,-0.698 0.159,-0.698C0.134,-0.688 0.113,-0.681 0.072,-0.678L0.07,-0.675C0.078,-0.632 0.082,-0.558 0.082,-0.482L0.082,-0.073C0.082,-0.034 0.081,-0.02 0.077,0.002C0.083,0.008 0.095,0.01 0.105,0.01C0.116,-0.002 0.128,-0.019 0.138,-0.039C0.167,-0.014 0.213,0.01 0.256,0.01C0.358,0.01 0.471,-0.062 0.471,-0.232C0.471,-0.354 0.384,-0.439 0.287,-0.439C0.239,-0.439 0.196,-0.426 0.162,-0.389L0.162,-0.5ZM0.162,-0.081L0.162,-0.34C0.201,-0.38 0.226,-0.399 0.267,-0.399C0.328,-0.399 0.382,-0.349 0.382,-0.224C0.382,-0.1 0.345,-0.03 0.25,-0.03C0.219,-0.03 0.182,-0.056 0.162,-0.081Z" style="fill-rule:nonzero;"/>
                    </g>
                    <g transform="matrix(29.1667,0,0,29.1667,331.135,287.081)">
                        <path d="M0.028,-0.432C0.068,-0.343 0.187,-0.085 0.222,0.01C0.19,0.085 0.149,0.162 0.104,0.237C0.114,0.234 0.129,0.232 0.139,0.232C0.149,0.232 0.178,0.234 0.188,0.237C0.226,0.112 0.445,-0.365 0.478,-0.432C0.468,-0.429 0.445,-0.429 0.435,-0.429C0.425,-0.429 0.406,-0.429 0.396,-0.432C0.36,-0.319 0.313,-0.191 0.265,-0.088L0.263,-0.088C0.214,-0.207 0.166,-0.318 0.129,-0.432C0.116,-0.429 0.094,-0.429 0.08,-0.429C0.067,-0.429 0.042,-0.429 0.028,-0.432Z" style="fill-rule:nonzero;"/>
                    </g>
                    <g transform="matrix(29.1667,0,0,29.1667,345.893,287.081)">
                        <path d="M0.095,-0.429C0.075,-0.429 0.053,-0.429 0.041,-0.431C0.034,-0.415 0.029,-0.405 0.019,-0.39L0.024,-0.383C0.041,-0.384 0.072,-0.385 0.095,-0.385L0.095,-0.248C0.095,-0.188 0.092,-0.116 0.092,-0.086C0.092,-0.021 0.134,0.01 0.18,0.01C0.222,0.01 0.254,-0 0.296,-0.027L0.284,-0.052C0.253,-0.041 0.23,-0.04 0.205,-0.044C0.181,-0.048 0.172,-0.072 0.172,-0.126C0.172,-0.156 0.175,-0.199 0.175,-0.259L0.175,-0.385L0.213,-0.385C0.237,-0.385 0.272,-0.384 0.285,-0.383C0.288,-0.399 0.291,-0.409 0.297,-0.424L0.292,-0.431C0.274,-0.43 0.245,-0.429 0.222,-0.429L0.175,-0.429C0.175,-0.504 0.176,-0.517 0.18,-0.575C0.18,-0.582 0.177,-0.585 0.171,-0.585C0.146,-0.575 0.134,-0.565 0.101,-0.56L0.099,-0.557C0.097,-0.522 0.095,-0.487 0.095,-0.429Z" style="fill-rule:nonzero;"/>
                    </g>
                    <g transform="matrix(29.1667,0,0,29.1667,355.81,287.081)">
                        <path d="M0.392,-0.104C0.357,-0.066 0.31,-0.049 0.255,-0.049C0.221,-0.049 0.174,-0.062 0.146,-0.106C0.128,-0.134 0.122,-0.175 0.122,-0.233L0.394,-0.233C0.405,-0.233 0.412,-0.239 0.412,-0.25C0.412,-0.334 0.371,-0.439 0.239,-0.439C0.136,-0.439 0.034,-0.356 0.034,-0.209C0.034,-0.152 0.046,-0.096 0.079,-0.056C0.113,-0.015 0.171,0.01 0.238,0.01C0.31,0.01 0.374,-0.027 0.412,-0.079L0.392,-0.104ZM0.125,-0.273C0.142,-0.377 0.208,-0.399 0.239,-0.399C0.279,-0.399 0.323,-0.362 0.323,-0.287C0.323,-0.278 0.319,-0.273 0.309,-0.273L0.125,-0.273Z" style="fill-rule:nonzero;"/>
                    </g>
                    <g transform="matrix(29.1667,0,0,29.1667,369.022,287.081)">
                        <path d="M0.05,-0.101L0.033,-0.017C0.09,0.003 0.146,0.01 0.184,0.01C0.322,0.01 0.354,-0.072 0.354,-0.127C0.354,-0.209 0.289,-0.241 0.218,-0.258C0.18,-0.267 0.125,-0.286 0.125,-0.336C0.125,-0.377 0.158,-0.399 0.201,-0.399C0.253,-0.399 0.285,-0.358 0.308,-0.331L0.322,-0.332L0.342,-0.406L0.34,-0.409C0.311,-0.424 0.256,-0.439 0.205,-0.439C0.131,-0.439 0.054,-0.4 0.054,-0.317C0.054,-0.237 0.114,-0.211 0.174,-0.194C0.232,-0.178 0.275,-0.162 0.275,-0.113C0.275,-0.06 0.236,-0.03 0.183,-0.03C0.135,-0.03 0.093,-0.063 0.065,-0.102L0.05,-0.101Z" style="fill-rule:nonzero;"/>
                    </g>
                </g>
                <rect x="377.953" y="850.394" width="330.709" height="47.244" style="fill:rgb(128,128,128);fill-opacity:0;stroke:black;stroke-width:4.17px;"/>
            </g>
            <g id="Metadata">
                <g transform="matrix(1,0,0,1,15.3415,596.969)">
                    <g transform="matrix(29.1667,0,0,29.1667,233.806,287.081)">
                        <path d="M0.162,-0.352L0.162,-0.425C0.162,-0.433 0.161,-0.435 0.156,-0.435C0.134,-0.431 0.098,-0.43 0.075,-0.432L0.073,-0.429C0.08,-0.386 0.082,-0.31 0.082,-0.235L0.082,-0.18C0.082,-0.105 0.081,-0.054 0.073,-0L0.075,0.003C0.087,0.001 0.11,-0 0.122,-0C0.134,-0 0.157,0.001 0.169,0.003L0.171,-0C0.163,-0.057 0.162,-0.104 0.162,-0.18L0.162,-0.301C0.209,-0.349 0.265,-0.379 0.3,-0.379C0.338,-0.379 0.366,-0.357 0.366,-0.29L0.366,-0.18C0.366,-0.105 0.365,-0.054 0.357,-0L0.359,0.003C0.371,0.001 0.394,-0 0.406,-0C0.418,-0 0.441,0.001 0.453,0.003L0.455,-0C0.447,-0.057 0.446,-0.104 0.446,-0.18L0.446,-0.281C0.446,-0.295 0.446,-0.307 0.445,-0.319C0.493,-0.372 0.533,-0.379 0.572,-0.379C0.626,-0.379 0.652,-0.357 0.652,-0.29L0.652,-0.18C0.652,-0.105 0.651,-0.054 0.643,-0L0.645,0.003C0.657,0.001 0.68,-0 0.692,-0C0.704,-0 0.727,0.001 0.739,0.003L0.741,-0C0.733,-0.057 0.732,-0.104 0.732,-0.18L0.732,-0.28C0.732,-0.369 0.716,-0.439 0.608,-0.439C0.554,-0.439 0.496,-0.42 0.439,-0.36C0.43,-0.408 0.389,-0.439 0.333,-0.439C0.271,-0.439 0.212,-0.399 0.165,-0.349L0.162,-0.352Z" style="fill-rule:nonzero;"/>
                    </g>
                    <g transform="matrix(29.1667,0,0,29.1667,257.343,287.081)">
                        <path d="M0.392,-0.104C0.357,-0.066 0.31,-0.049 0.255,-0.049C0.221,-0.049 0.174,-0.062 0.146,-0.106C0.128,-0.134 0.122,-0.175 0.122,-0.233L0.394,-0.233C0.405,-0.233 0.412,-0.239 0.412,-0.25C0.412,-0.334 0.371,-0.439 0.239,-0.439C0.136,-0.439 0.034,-0.356 0.034,-0.209C0.034,-0.152 0.046,-0.096 0.079,-0.056C0.113,-0.015 0.171,0.01 0.238,0.01C0.31,0.01 0.374,-0.027 0.412,-0.079L0.392,-0.104ZM0.125,-0.273C0.142,-0.377 0.208,-0.399 0.239,-0.399C0.279,-0.399 0.323,-0.362 0.323,-0.287C0.323,-0.278 0.319,-0.273 0.309,-0.273L0.125,-0.273Z" style="fill-rule:nonzero;"/>
                    </g>
                    <g transform="matrix(29.1667,0,0,29.1667,270.556,287.081)">
                        <path d="M0.095,-0.429C0.075,-0.429 0.053,-0.429 0.041,-0.431C0.034,-0.415 0.029,-0.405 0.019,-0.39L0.024,-0.383C0.041,-0.384 0.072,-0.385 0.095,-0.385L0.095,-0.248C0.095,-0.188 0.092,-0.116 0.092,-0.086C0.092,-0.021 0.134,0.01 0.18,0.01C0.222,0.01 0.254,-0 0.296,-0.027L0.284,-0.052C0.253,-0.041 0.23,-0.04 0.205,-0.044C0.181,-0.048 0.172,-0.072 0.172,-0.126C0.172,-0.156 0.175,-0.199 0.175,-0.259L0.175,-0.385L0.213,-0.385C0.237,-0.385 0.272,-0.384 0.285,-0.383C0.288,-0.399 0.291,-0.409 0.297,-0.424L0.292,-0.431C0.274,-0.43 0.245,-0.429 0.222,-0.429L0.175,-0.429C0.175,-0.504 0.176,-0.517 0.18,-0.575C0.18,-0.582 0.177,-0.585 0.171,-0.585C0.146,-0.575 0.134,-0.565 0.101,-0.56L0.099,-0.557C0.097,-0.522 0.095,-0.487 0.095,-0.429Z" style="fill-rule:nonzero;"/>
                    </g>
                    <g transform="matrix(29.1667,0,0,29.1667,280.472,287.081)">
                        <path d="M0.31,-0.048C0.322,-0.009 0.351,0.01 0.388,0.01C0.413,0.01 0.444,0.004 0.468,-0.021L0.46,-0.046C0.449,-0.042 0.441,-0.041 0.433,-0.041C0.423,-0.041 0.41,-0.042 0.404,-0.048C0.394,-0.057 0.387,-0.082 0.387,-0.126C0.387,-0.155 0.39,-0.266 0.39,-0.277C0.39,-0.412 0.301,-0.439 0.225,-0.439C0.149,-0.439 0.103,-0.402 0.078,-0.381L0.075,-0.377L0.092,-0.31L0.105,-0.309C0.133,-0.354 0.167,-0.394 0.215,-0.394C0.251,-0.394 0.311,-0.389 0.311,-0.276C0.311,-0.269 0.307,-0.265 0.304,-0.264L0.211,-0.243C0.109,-0.22 0.045,-0.166 0.045,-0.098C0.045,-0.024 0.096,0.01 0.17,0.01C0.225,0.01 0.253,-0.003 0.306,-0.048L0.31,-0.048ZM0.31,-0.225L0.306,-0.106C0.306,-0.093 0.3,-0.086 0.292,-0.08C0.264,-0.059 0.23,-0.041 0.2,-0.041C0.155,-0.041 0.126,-0.071 0.126,-0.102C0.126,-0.147 0.147,-0.181 0.225,-0.202L0.31,-0.225Z" style="fill-rule:nonzero;"/>
                    </g>
                    <g transform="matrix(29.1667,0,0,29.1667,294.501,287.081)">
                        <path d="M0.361,-0.058L0.363,-0.058L0.368,-0C0.368,0.002 0.371,0.003 0.377,0.003C0.39,0.001 0.397,-0 0.412,-0C0.424,-0 0.443,0.001 0.456,0.003L0.458,-0C0.45,-0.043 0.441,-0.117 0.441,-0.192L0.441,-0.5C0.441,-0.574 0.445,-0.626 0.45,-0.688C0.45,-0.695 0.447,-0.698 0.441,-0.698C0.416,-0.688 0.395,-0.681 0.354,-0.678L0.352,-0.675C0.36,-0.632 0.361,-0.558 0.361,-0.482L0.361,-0.417C0.338,-0.43 0.297,-0.439 0.277,-0.439C0.147,-0.439 0.051,-0.349 0.051,-0.213C0.051,-0.09 0.124,0.01 0.232,0.01C0.28,0.01 0.325,-0.012 0.361,-0.058ZM0.361,-0.113C0.325,-0.067 0.279,-0.042 0.238,-0.042C0.184,-0.042 0.138,-0.096 0.138,-0.221C0.138,-0.371 0.218,-0.399 0.266,-0.399C0.313,-0.399 0.337,-0.379 0.361,-0.341L0.361,-0.113Z" style="fill-rule:nonzero;"/>
                    </g>
                    <g transform="matrix(29.1667,0,0,29.1667,309.96,287.081)">
                        <path d="M0.31,-0.048C0.322,-0.009 0.351,0.01 0.388,0.01C0.413,0.01 0.444,0.004 0.468,-0.021L0.46,-0.046C0.449,-0.042 0.441,-0.041 0.433,-0.041C0.423,-0.041 0.41,-0.042 0.404,-0.048C0.394,-0.057 0.387,-0.082 0.387,-0.126C0.387,-0.155 0.39,-0.266 0.39,-0.277C0.39,-0.412 0.301,-0.439 0.225,-0.439C0.149,-0.439 0.103,-0.402 0.078,-0.381L0.075,-0.377L0.092,-0.31L0.105,-0.309C0.133,-0.354 0.167,-0.394 0.215,-0.394C0.251,-0.394 0.311,-0.389 0.311,-0.276C0.311,-0.269 0.307,-0.265 0.304,-0.264L0.211,-0.243C0.109,-0.22 0.045,-0.166 0.045,-0.098C0.045,-0.024 0.096,0.01 0.17,0.01C0.225,0.01 0.253,-0.003 0.306,-0.048L0.31,-0.048ZM0.31,-0.225L0.306,-0.106C0.306,-0.093 0.3,-0.086 0.292,-0.08C0.264,-0.059 0.23,-0.041 0.2,-0.041C0.155,-0.041 0.126,-0.071 0.126,-0.102C0.126,-0.147 0.147,-0.181 0.225,-0.202L0.31,-0.225Z" style="fill-rule:nonzero;"/>
                    </g>
                    <g transform="matrix(29.1667,0,0,29.1667,323.989,287.081)">
                        <path d="M0.095,-0.429C0.075,-0.429 0.053,-0.429 0.041,-0.431C0.034,-0.415 0.029,-0.405 0.019,-0.39L0.024,-0.383C0.041,-0.384 0.072,-0.385 0.095,-0.385L0.095,-0.248C0.095,-0.188 0.092,-0.116 0.092,-0.086C0.092,-0.021 0.134,0.01 0.18,0.01C0.222,0.01 0.254,-0 0.296,-0.027L0.284,-0.052C0.253,-0.041 0.23,-0.04 0.205,-0.044C0.181,-0.048 0.172,-0.072 0.172,-0.126C0.172,-0.156 0.175,-0.199 0.175,-0.259L0.175,-0.385L0.213,-0.385C0.237,-0.385 0.272,-0.384 0.285,-0.383C0.288,-0.399 0.291,-0.409 0.297,-0.424L0.292,-0.431C0.274,-0.43 0.245,-0.429 0.222,-0.429L0.175,-0.429C0.175,-0.504 0.176,-0.517 0.18,-0.575C0.18,-0.582 0.177,-0.585 0.171,-0.585C0.146,-0.575 0.134,-0.565 0.101,-0.56L0.099,-0.557C0.097,-0.522 0.095,-0.487 0.095,-0.429Z" style="fill-rule:nonzero;"/>
                    </g>
                    <g transform="matrix(29.1667,0,0,29.1667,333.906,287.081)">
                        <path d="M0.31,-0.048C0.322,-0.009 0.351,0.01 0.388,0.01C0.413,0.01 0.444,0.004 0.468,-0.021L0.46,-0.046C0.449,-0.042 0.441,-0.041 0.433,-0.041C0.423,-0.041 0.41,-0.042 0.404,-0.048C0.394,-0.057 0.387,-0.082 0.387,-0.126C0.387,-0.155 0.39,-0.266 0.39,-0.277C0.39,-0.412 0.301,-0.439 0.225,-0.439C0.149,-0.439 0.103,-0.402 0.078,-0.381L0.075,-0.377L0.092,-0.31L0.105,-0.309C0.133,-0.354 0.167,-0.394 0.215,-0.394C0.251,-0.394 0.311,-0.389 0.311,-0.276C0.311,-0.269 0.307,-0.265 0.304,-0.264L0.211,-0.243C0.109,-0.22 0.045,-0.166 0.045,-0.098C0.045,-0.024 0.096,0.01 0.17,0.01C0.225,0.01 0.253,-0.003 0.306,-0.048L0.31,-0.048ZM0.31,-0.225L0.306,-0.106C0.306,-0.093 0.3,-0.086 0.292,-0.08C0.264,-0.059 0.23,-0.041 0.2,-0.041C0.155,-0.041 0.126,-0.071 0.126,-0.102C0.126,-0.147 0.147,-0.181 0.225,-0.202L0.31,-0.225Z" style="fill-rule:nonzero;"/>
                    </g>
                </g>
                <g transform="matrix(1,0,0,1,141.732,-1.13687e-13)">
                    <rect x="94.488" y="850.394" width="141.732" height="47.244" style="fill:rgb(128,128,128);fill-opacity:0;stroke:black;stroke-width:4.17px;"/>
                </g>
            </g>
            <g id="Ellipsis" transform="matrix(1,0,0,1,350.331,423.197)">
                <g transform="matrix(1,0,0,1,-210.598,188.976)">
                    <circle cx="639.795" cy="261.843" r="2" style="fill:rgb(235,235,235);fill-opacity:0;stroke:black;stroke-width:4.17px;"/>
                </g>
                <g transform="matrix(1,0,0,1,-165.354,188.976)">
                    <circle cx="639.795" cy="261.843" r="2" style="fill:rgb(235,235,235);fill-opacity:0;stroke:black;stroke-width:4.17px;"/>
                </g>
                <g transform="matrix(1,0,0,1,-259.843,188.976)">
                    <circle cx="639.795" cy="261.843" r="2" style="fill:rgb(235,235,235);fill-opacity:0;stroke:black;stroke-width:4.17px;"/>
                </g>
            </g>
            <g id="Tensor-data1" serif:id="Tensor data" transform="matrix(1,0,0,1,614.173,1.13687e-13)">
                <g transform="matrix(1,0,0,1,238.081,596.969)">
                    <g transform="matrix(29.1667,0,0,29.1667,233.806,287.081)">
                        <path d="M0.095,-0.429C0.075,-0.429 0.053,-0.429 0.041,-0.431C0.034,-0.415 0.029,-0.405 0.019,-0.39L0.024,-0.383C0.041,-0.384 0.072,-0.385 0.095,-0.385L0.095,-0.248C0.095,-0.188 0.092,-0.116 0.092,-0.086C0.092,-0.021 0.134,0.01 0.18,0.01C0.222,0.01 0.254,-0 0.296,-0.027L0.284,-0.052C0.253,-0.041 0.23,-0.04 0.205,-0.044C0.181,-0.048 0.172,-0.072 0.172,-0.126C0.172,-0.156 0.175,-0.199 0.175,-0.259L0.175,-0.385L0.213,-0.385C0.237,-0.385 0.272,-0.384 0.285,-0.383C0.288,-0.399 0.291,-0.409 0.297,-0.424L0.292,-0.431C0.274,-0.43 0.245,-0.429 0.222,-0.429L0.175,-0.429C0.175,-0.504 0.176,-0.517 0.18,-0.575C0.18,-0.582 0.177,-0.585 0.171,-0.585C0.146,-0.575 0.134,-0.565 0.101,-0.56L0.099,-0.557C0.097,-0.522 0.095,-0.487 0.095,-0.429Z" style="fill-rule:nonzero;"/>
                    </g>
                    <g transform="matrix(29.1667,0,0,29.1667,243.722,287.081)">
                        <path d="M0.392,-0.104C0.357,-0.066 0.31,-0.049 0.255,-0.049C0.221,-0.049 0.174,-0.062 0.146,-0.106C0.128,-0.134 0.122,-0.175 0.122,-0.233L0.394,-0.233C0.405,-0.233 0.412,-0.239 0.412,-0.25C0.412,-0.334 0.371,-0.439 0.239,-0.439C0.136,-0.439 0.034,-0.356 0.034,-0.209C0.034,-0.152 0.046,-0.096 0.079,-0.056C0.113,-0.015 0.171,0.01 0.238,0.01C0.31,0.01 0.374,-0.027 0.412,-0.079L0.392,-0.104ZM0.125,-0.273C0.142,-0.377 0.208,-0.399 0.239,-0.399C0.279,-0.399 0.323,-0.362 0.323,-0.287C0.323,-0.278 0.319,-0.273 0.309,-0.273L0.125,-0.273Z" style="fill-rule:nonzero;"/>
                    </g>
                    <g transform="matrix(29.1667,0,0,29.1667,256.935,287.081)">
                        <path d="M0.46,-0.18C0.46,-0.212 0.462,-0.249 0.462,-0.281C0.462,-0.385 0.428,-0.439 0.338,-0.439C0.3,-0.439 0.229,-0.424 0.165,-0.349L0.163,-0.352L0.163,-0.425C0.163,-0.433 0.162,-0.435 0.157,-0.435C0.135,-0.431 0.099,-0.43 0.076,-0.432L0.074,-0.429C0.081,-0.386 0.083,-0.31 0.083,-0.235L0.083,-0.18C0.083,-0.105 0.082,-0.054 0.074,-0L0.076,0.003C0.088,0.001 0.111,-0 0.123,-0C0.135,-0 0.158,0.001 0.17,0.003L0.172,-0C0.164,-0.057 0.163,-0.104 0.163,-0.18L0.163,-0.297C0.214,-0.357 0.272,-0.379 0.308,-0.379C0.359,-0.379 0.38,-0.359 0.38,-0.278L0.38,-0.18C0.38,-0.105 0.378,-0.054 0.371,-0L0.373,0.003C0.385,0.001 0.408,-0 0.42,-0C0.432,-0 0.455,0.001 0.467,0.003L0.469,-0C0.461,-0.057 0.46,-0.104 0.46,-0.18Z" style="fill-rule:nonzero;"/>
                    </g>
                    <g transform="matrix(29.1667,0,0,29.1667,272.656,287.081)">
                        <path d="M0.05,-0.101L0.033,-0.017C0.09,0.003 0.146,0.01 0.184,0.01C0.322,0.01 0.354,-0.072 0.354,-0.127C0.354,-0.209 0.289,-0.241 0.218,-0.258C0.18,-0.267 0.125,-0.286 0.125,-0.336C0.125,-0.377 0.158,-0.399 0.201,-0.399C0.253,-0.399 0.285,-0.358 0.308,-0.331L0.322,-0.332L0.342,-0.406L0.34,-0.409C0.311,-0.424 0.256,-0.439 0.205,-0.439C0.131,-0.439 0.054,-0.4 0.054,-0.317C0.054,-0.237 0.114,-0.211 0.174,-0.194C0.232,-0.178 0.275,-0.162 0.275,-0.113C0.275,-0.06 0.236,-0.03 0.183,-0.03C0.135,-0.03 0.093,-0.063 0.065,-0.102L0.05,-0.101Z" style="fill-rule:nonzero;"/>
                    </g>
                    <g transform="matrix(29.1667,0,0,29.1667,284.206,287.081)">
                        <path d="M0.038,-0.205C0.038,-0.085 0.117,0.01 0.25,0.01C0.382,0.01 0.462,-0.083 0.462,-0.214C0.462,-0.35 0.389,-0.439 0.254,-0.439C0.123,-0.439 0.038,-0.347 0.038,-0.205ZM0.247,-0.399C0.353,-0.399 0.374,-0.317 0.374,-0.196C0.374,-0.101 0.326,-0.03 0.259,-0.03C0.153,-0.03 0.126,-0.145 0.126,-0.222C0.126,-0.309 0.153,-0.399 0.247,-0.399Z" style="fill-rule:nonzero;"/>
                    </g>
                    <g transform="matrix(29.1667,0,0,29.1667,298.789,287.081)">
                        <path d="M0.167,-0.334L0.167,-0.425C0.167,-0.433 0.166,-0.435 0.161,-0.435C0.139,-0.431 0.103,-0.43 0.08,-0.432L0.078,-0.429C0.085,-0.386 0.087,-0.31 0.087,-0.235L0.087,-0.18C0.087,-0.105 0.086,-0.054 0.078,-0L0.08,0.003C0.092,0.001 0.115,-0 0.127,-0C0.139,-0 0.162,0.001 0.174,0.003L0.176,-0C0.169,-0.057 0.167,-0.104 0.167,-0.18L0.167,-0.232C0.167,-0.274 0.18,-0.298 0.201,-0.331C0.216,-0.353 0.238,-0.366 0.257,-0.366C0.277,-0.366 0.296,-0.364 0.309,-0.352L0.317,-0.354L0.337,-0.428L0.333,-0.432C0.316,-0.437 0.315,-0.439 0.297,-0.439C0.243,-0.439 0.214,-0.408 0.17,-0.332L0.167,-0.334Z" style="fill-rule:nonzero;"/>
                    </g>
                    <g transform="matrix(29.1667,0,0,29.1667,316.435,287.081)">
                        <path d="M0.162,-0.5C0.162,-0.574 0.163,-0.627 0.168,-0.688C0.168,-0.695 0.165,-0.698 0.159,-0.698C0.134,-0.688 0.113,-0.681 0.072,-0.678L0.07,-0.675C0.078,-0.632 0.082,-0.558 0.082,-0.482L0.082,-0.073C0.082,-0.034 0.081,-0.02 0.077,0.002C0.083,0.008 0.095,0.01 0.105,0.01C0.116,-0.002 0.128,-0.019 0.138,-0.039C0.167,-0.014 0.213,0.01 0.256,0.01C0.358,0.01 0.471,-0.062 0.471,-0.232C0.471,-0.354 0.384,-0.439 0.287,-0.439C0.239,-0.439 0.196,-0.426 0.162,-0.389L0.162,-0.5ZM0.162,-0.081L0.162,-0.34C0.201,-0.38 0.226,-0.399 0.267,-0.399C0.328,-0.399 0.382,-0.349 0.382,-0.224C0.382,-0.1 0.345,-0.03 0.25,-0.03C0.219,-0.03 0.182,-0.056 0.162,-0.081Z" style="fill-rule:nonzero;"/>
                    </g>
                    <g transform="matrix(29.1667,0,0,29.1667,331.135,287.081)">
                        <path d="M0.028,-0.432C0.068,-0.343 0.187,-0.085 0.222,0.01C0.19,0.085 0.149,0.162 0.104,0.237C0.114,0.234 0.129,0.232 0.139,0.232C0.149,0.232 0.178,0.234 0.188,0.237C0.226,0.112 0.445,-0.365 0.478,-0.432C0.468,-0.429 0.445,-0.429 0.435,-0.429C0.425,-0.429 0.406,-0.429 0.396,-0.432C0.36,-0.319 0.313,-0.191 0.265,-0.088L0.263,-0.088C0.214,-0.207 0.166,-0.318 0.129,-0.432C0.116,-0.429 0.094,-0.429 0.08,-0.429C0.067,-0.429 0.042,-0.429 0.028,-0.432Z" style="fill-rule:nonzero;"/>
                    </g>
                    <g transform="matrix(29.1667,0,0,29.1667,345.893,287.081)">
                        <path d="M0.095,-0.429C0.075,-0.429 0.053,-0.429 0.041,-0.431C0.034,-0.415 0.029,-0.405 0.019,-0.39L0.024,-0.383C0.041,-0.384 0.072,-0.385 0.095,-0.385L0.095,-0.248C0.095,-0.188 0.092,-0.116 0.092,-0.086C0.092,-0.021 0.134,0.01 0.18,0.01C0.222,0.01 0.254,-0 0.296,-0.027L0.284,-0.052C0.253,-0.041 0.23,-0.04 0.205,-0.044C0.181,-0.048 0.172,-0.072 0.172,-0.126C0.172,-0.156 0.175,-0.199 0.175,-0.259L0.175,-0.385L0.213,-0.385C0.237,-0.385 0.272,-0.384 0.285,-0.383C0.288,-0.399 0.291,-0.409 0.297,-0.424L0.292,-0.431C0.274,-0.43 0.245,-0.429 0.222,-0.429L0.175,-0.429C0.175,-0.504 0.176,-0.517 0.18,-0.575C0.18,-0.582 0.177,-0.585 0.171,-0.585C0.146,-0.575 0.134,-0.565 0.101,-0.56L0.099,-0.557C0.097,-0.522 0.095,-0.487 0.095,-0.429Z" style="fill-rule:nonzero;"/>
                    </g>
                    <g transform="matrix(29.1667,0,0,29.1667,355.81,287.081)">
                        <path d="M0.392,-0.104C0.357,-0.066 0.31,-0.049 0.255,-0.049C0.221,-0.049 0.174,-0.062 0.146,-0.106C0.128,-0.134 0.122,-0.175 0.122,-0.233L0.394,-0.233C0.405,-0.233 0.412,-0.239 0.412,-0.25C0.412,-0.334 0.371,-0.439 0.239,-0.439C0.136,-0.439 0.034,-0.356 0.034,-0.209C0.034,-0.152 0.046,-0.096 0.079,-0.056C0.113,-0.015 0.171,0.01 0.238,0.01C0.31,0.01 0.374,-0.027 0.412,-0.079L0.392,-0.104ZM0.125,-0.273C0.142,-0.377 0.208,-0.399 0.239,-0.399C0.279,-0.399 0.323,-0.362 0.323,-0.287C0.323,-0.278 0.319,-0.273 0.309,-0.273L0.125,-0.273Z" style="fill-rule:nonzero;"/>
                    </g>
                    <g transform="matrix(29.1667,0,0,29.1667,369.022,287.081)">
                        <path d="M0.05,-0.101L0.033,-0.017C0.09,0.003 0.146,0.01 0.184,0.01C0.322,0.01 0.354,-0.072 0.354,-0.127C0.354,-0.209 0.289,-0.241 0.218,-0.258C0.18,-0.267 0.125,-0.286 0.125,-0.336C0.125,-0.377 0.158,-0.399 0.201,-0.399C0.253,-0.399 0.285,-0.358 0.308,-0.331L0.322,-0.332L0.342,-0.406L0.34,-0.409C0.311,-0.424 0.256,-0.439 0.205,-0.439C0.131,-0.439 0.054,-0.4 0.054,-0.317C0.054,-0.237 0.114,-0.211 0.174,-0.194C0.232,-0.178 0.275,-0.162 0.275,-0.113C0.275,-0.06 0.236,-0.03 0.183,-0.03C0.135,-0.03 0.093,-0.063 0.065,-0.102L0.05,-0.101Z" style="fill-rule:nonzero;"/>
                    </g>
                </g>
                <g transform="matrix(1,0,0,1,-614.173,-1.13687e-13)">
                    <rect x="992.126" y="850.394" width="330.709" height="47.244" style="fill:rgb(128,128,128);fill-opacity:0;stroke:black;stroke-width:4.17px;"/>
                </g>
            </g>
            <g id="Metadata1" serif:id="Metadata" transform="matrix(1,0,0,1,614.173,1.13687e-13)">
                <g transform="matrix(1,0,0,1,15.3415,596.969)">
                    <g transform="matrix(29.1667,0,0,29.1667,233.806,287.081)">
                        <path d="M0.162,-0.352L0.162,-0.425C0.162,-0.433 0.161,-0.435 0.156,-0.435C0.134,-0.431 0.098,-0.43 0.075,-0.432L0.073,-0.429C0.08,-0.386 0.082,-0.31 0.082,-0.235L0.082,-0.18C0.082,-0.105 0.081,-0.054 0.073,-0L0.075,0.003C0.087,0.001 0.11,-0 0.122,-0C0.134,-0 0.157,0.001 0.169,0.003L0.171,-0C0.163,-0.057 0.162,-0.104 0.162,-0.18L0.162,-0.301C0.209,-0.349 0.265,-0.379 0.3,-0.379C0.338,-0.379 0.366,-0.357 0.366,-0.29L0.366,-0.18C0.366,-0.105 0.365,-0.054 0.357,-0L0.359,0.003C0.371,0.001 0.394,-0 0.406,-0C0.418,-0 0.441,0.001 0.453,0.003L0.455,-0C0.447,-0.057 0.446,-0.104 0.446,-0.18L0.446,-0.281C0.446,-0.295 0.446,-0.307 0.445,-0.319C0.493,-0.372 0.533,-0.379 0.572,-0.379C0.626,-0.379 0.652,-0.357 0.652,-0.29L0.652,-0.18C0.652,-0.105 0.651,-0.054 0.643,-0L0.645,0.003C0.657,0.001 0.68,-0 0.692,-0C0.704,-0 0.727,0.001 0.739,0.003L0.741,-0C0.733,-0.057 0.732,-0.104 0.732,-0.18L0.732,-0.28C0.732,-0.369 0.716,-0.439 0.608,-0.439C0.554,-0.439 0.496,-0.42 0.439,-0.36C0.43,-0.408 0.389,-0.439 0.333,-0.439C0.271,-0.439 0.212,-0.399 0.165,-0.349L0.162,-0.352Z" style="fill-rule:nonzero;"/>
                    </g>
                    <g transform="matrix(29.1667,0,0,29.1667,257.343,287.081)">
                        <path d="M0.392,-0.104C0.357,-0.066 0.31,-0.049 0.255,-0.049C0.221,-0.049 0.174,-0.062 0.146,-0.106C0.128,-0.134 0.122,-0.175 0.122,-0.233L0.394,-0.233C0.405,-0.233 0.412,-0.239 0.412,-0.25C0.412,-0.334 0.371,-0.439 0.239,-0.439C0.136,-0.439 0.034,-0.356 0.034,-0.209C0.034,-0.152 0.046,-0.096 0.079,-0.056C0.113,-0.015 0.171,0.01 0.238,0.01C0.31,0.01 0.374,-0.027 0.412,-0.079L0.392,-0.104ZM0.125,-0.273C0.142,-0.377 0.208,-0.399 0.239,-0.399C0.279,-0.399 0.323,-0.362 0.323,-0.287C0.323,-0.278 0.319,-0.273 0.309,-0.273L0.125,-0.273Z" style="fill-rule:nonzero;"/>
                    </g>
                    <g transform="matrix(29.1667,0,0,29.1667,270.556,287.081)">
                        <path d="M0.095,-0.429C0.075,-0.429 0.053,-0.429 0.041,-0.431C0.034,-0.415 0.029,-0.405 0.019,-0.39L0.024,-0.383C0.041,-0.384 0.072,-0.385 0.095,-0.385L0.095,-0.248C0.095,-0.188 0.092,-0.116 0.092,-0.086C0.092,-0.021 0.134,0.01 0.18,0.01C0.222,0.01 0.254,-0 0.296,-0.027L0.284,-0.052C0.253,-0.041 0.23,-0.04 0.205,-0.044C0.181,-0.048 0.172,-0.072 0.172,-0.126C0.172,-0.156 0.175,-0.199 0.175,-0.259L0.175,-0.385L0.213,-0.385C0.237,-0.385 0.272,-0.384 0.285,-0.383C0.288,-0.399 0.291,-0.409 0.297,-0.424L0.292,-0.431C0.274,-0.43 0.245,-0.429 0.222,-0.429L0.175,-0.429C0.175,-0.504 0.176,-0.517 0.18,-0.575C0.18,-0.582 0.177,-0.585 0.171,-0.585C0.146,-0.575 0.134,-0.565 0.101,-0.56L0.099,-0.557C0.097,-0.522 0.095,-0.487 0.095,-0.429Z" style="fill-rule:nonzero;"/>
                    </g>
                    <g transform="matrix(29.1667,0,0,29.1667,280.472,287.081)">
                        <path d="M0.31,-0.048C0.322,-0.009 0.351,0.01 0.388,0.01C0.413,0.01 0.444,0.004 0.468,-0.021L0.46,-0.046C0.449,-0.042 0.441,-0.041 0.433,-0.041C0.423,-0.041 0.41,-0.042 0.404,-0.048C0.394,-0.057 0.387,-0.082 0.387,-0.126C0.387,-0.155 0.39,-0.266 0.39,-0.277C0.39,-0.412 0.301,-0.439 0.225,-0.439C0.149,-0.439 0.103,-0.402 0.078,-0.381L0.075,-0.377L0.092,-0.31L0.105,-0.309C0.133,-0.354 0.167,-0.394 0.215,-0.394C0.251,-0.394 0.311,-0.389 0.311,-0.276C0.311,-0.269 0.307,-0.265 0.304,-0.264L0.211,-0.243C0.109,-0.22 0.045,-0.166 0.045,-0.098C0.045,-0.024 0.096,0.01 0.17,0.01C0.225,0.01 0.253,-0.003 0.306,-0.048L0.31,-0.048ZM0.31,-0.225L0.306,-0.106C0.306,-0.093 0.3,-0.086 0.292,-0.08C0.264,-0.059 0.23,-0.041 0.2,-0.041C0.155,-0.041 0.126,-0.071 0.126,-0.102C0.126,-0.147 0.147,-0.181 0.225,-0.202L0.31,-0.225Z" style="fill-rule:nonzero;"/>
                    </g>
                    <g transform="matrix(29.1667,0,0,29.1667,294.501,287.081)">
                        <path d="M0.361,-0.058L0.363,-0.058L0.368,-0C0.368,0.002 0.371,0.003 0.377,0.003C0.39,0.001 0.397,-0 0.412,-0C0.424,-0 0.443,0.001 0.456,0.003L0.458,-0C0.45,-0.043 0.441,-0.117 0.441,-0.192L0.441,-0.5C0.441,-0.574 0.445,-0.626 0.45,-0.688C0.45,-0.695 0.447,-0.698 0.441,-0.698C0.416,-0.688 0.395,-0.681 0.354,-0.678L0.352,-0.675C0.36,-0.632 0.361,-0.558 0.361,-0.482L0.361,-0.417C0.338,-0.43 0.297,-0.439 0.277,-0.439C0.147,-0.439 0.051,-0.349 0.051,-0.213C0.051,-0.09 0.124,0.01 0.232,0.01C0.28,0.01 0.325,-0.012 0.361,-0.058ZM0.361,-0.113C0.325,-0.067 0.279,-0.042 0.238,-0.042C0.184,-0.042 0.138,-0.096 0.138,-0.221C0.138,-0.371 0.218,-0.399 0.266,-0.399C0.313,-0.399 0.337,-0.379 0.361,-0.341L0.361,-0.113Z" style="fill-rule:nonzero;"/>
                    </g>
                    <g transform="matrix(29.1667,0,0,29.1667,309.96,287.081)">
                        <path d="M0.31,-0.048C0.322,-0.009 0.351,0.01 0.388,0.01C0.413,0.01 0.444,0.004 0.468,-0.021L0.46,-0.046C0.449,-0.042 0.441,-0.041 0.433,-0.041C0.423,-0.041 0.41,-0.042 0.404,-0.048C0.394,-0.057 0.387,-0.082 0.387,-0.126C0.387,-0.155 0.39,-0.266 0.39,-0.277C0.39,-0.412 0.301,-0.439 0.225,-0.439C0.149,-0.439 0.103,-0.402 0.078,-0.381L0.075,-0.377L0.092,-0.31L0.105,-0.309C0.133,-0.354 0.167,-0.394 0.215,-0.394C0.251,-0.394 0.311,-0.389 0.311,-0.276C0.311,-0.269 0.307,-0.265 0.304,-0.264L0.211,-0.243C0.109,-0.22 0.045,-0.166 0.045,-0.098C0.045,-0.024 0.096,0.01 0.17,0.01C0.225,0.01 0.253,-0.003 0.306,-0.048L0.31,-0.048ZM0.31,-0.225L0.306,-0.106C0.306,-0.093 0.3,-0.086 0.292,-0.08C0.264,-0.059 0.23,-0.041 0.2,-0.041C0.155,-0.041 0.126,-0.071 0.126,-0.102C0.126,-0.147 0.147,-0.181 0.225,-0.202L0.31,-0.225Z" style="fill-rule:nonzero;"/>
                    </g>
                    <g transform="matrix(29.1667,0,0,29.1667,323.989,287.081)">
                        <path d="M0.095,-0.429C0.075,-0.429 0.053,-0.429 0.041,-0.431C0.034,-0.415 0.029,-0.405 0.019,-0.39L0.024,-0.383C0.041,-0.384 0.072,-0.385 0.095,-0.385L0.095,-0.248C0.095,-0.188 0.092,-0.116 0.092,-0.086C0.092,-0.021 0.134,0.01 0.18,0.01C0.222,0.01 0.254,-0 0.296,-0.027L0.284,-0.052C0.253,-0.041 0.23,-0.04 0.205,-0.044C0.181,-0.048 0.172,-0.072 0.172,-0.126C0.172,-0.156 0.175,-0.199 0.175,-0.259L0.175,-0.385L0.213,-0.385C0.237,-0.385 0.272,-0.384 0.285,-0.383C0.288,-0.399 0.291,-0.409 0.297,-0.424L0.292,-0.431C0.274,-0.43 0.245,-0.429 0.222,-0.429L0.175,-0.429C0.175,-0.504 0.176,-0.517 0.18,-0.575C0.18,-0.582 0.177,-0.585 0.171,-0.585C0.146,-0.575 0.134,-0.565 0.101,-0.56L0.099,-0.557C0.097,-0.522 0.095,-0.487 0.095,-0.429Z" style="fill-rule:nonzero;"/>
                    </g>
                    <g transform="matrix(29.1667,0,0,29.1667,333.906,287.081)">
                        <path d="M0.31,-0.048C0.322,-0.009 0.351,0.01 0.388,0.01C0.413,0.01 0.444,0.004 0.468,-0.021L0.46,-0.046C0.449,-0.042 0.441,-0.041 0.433,-0.041C0.423,-0.041 0.41,-0.042 0.404,-0.048C0.394,-0.057 0.387,-0.082 0.387,-0.126C0.387,-0.155 0.39,-0.266 0.39,-0.277C0.39,-0.412 0.301,-0.439 0.225,-0.439C0.149,-0.439 0.103,-0.402 0.078,-0.381L0.075,-0.377L0.092,-0.31L0.105,-0.309C0.133,-0.354 0.167,-0.394 0.215,-0.394C0.251,-0.394 0.311,-0.389 0.311,-0.276C0.311,-0.269 0.307,-0.265 0.304,-0.264L0.211,-0.243C0.109,-0.22 0.045,-0.166 0.045,-0.098C0.045,-0.024 0.096,0.01 0.17,0.01C0.225,0.01 0.253,-0.003 0.306,-0.048L0.31,-0.048ZM0.31,-0.225L0.306,-0.106C0.306,-0.093 0.3,-0.086 0.292,-0.08C0.264,-0.059 0.23,-0.041 0.2,-0.041C0.155,-0.041 0.126,-0.071 0.126,-0.102C0.126,-0.147 0.147,-0.181 0.225,-0.202L0.31,-0.225Z" style="fill-rule:nonzero;"/>
                    </g>
                </g>
                <g transform="matrix(1,0,0,1,141.732,-1.13687e-13)">
                    <rect x="94.488" y="850.394" width="141.732" height="47.244" style="fill:rgb(128,128,128);fill-opacity:0;stroke:black;stroke-width:4.17px;"/>
                </g>
            </g>
            <g id="Header">
                <g transform="matrix(1,0,0,1,-110.51,596.969)">
                    <g transform="matrix(29.1667,0,0,29.1667,233.806,287.081)">
                        <path d="M0.17,-0.352L0.17,-0.501C0.17,-0.575 0.174,-0.627 0.179,-0.688C0.179,-0.695 0.176,-0.698 0.17,-0.698C0.145,-0.688 0.124,-0.681 0.083,-0.678L0.081,-0.675C0.089,-0.632 0.09,-0.557 0.09,-0.481L0.09,-0.18C0.09,-0.106 0.089,-0.056 0.081,-0L0.083,0.003C0.095,0.001 0.118,-0 0.13,-0C0.142,-0 0.165,0.001 0.177,0.003L0.179,-0C0.172,-0.057 0.17,-0.104 0.17,-0.18L0.17,-0.297C0.221,-0.357 0.28,-0.379 0.315,-0.379C0.366,-0.379 0.387,-0.359 0.387,-0.278L0.387,-0.18C0.387,-0.105 0.386,-0.054 0.378,-0L0.38,0.003C0.392,0.001 0.415,-0 0.427,-0C0.439,-0 0.462,0.001 0.474,0.003L0.476,-0C0.468,-0.057 0.467,-0.104 0.467,-0.18C0.467,-0.212 0.469,-0.249 0.469,-0.281C0.469,-0.385 0.435,-0.439 0.345,-0.439C0.307,-0.439 0.236,-0.424 0.172,-0.349L0.17,-0.352Z" style="fill-rule:nonzero;"/>
                    </g>
                    <g transform="matrix(29.1667,0,0,29.1667,249.818,287.081)">
                        <path d="M0.392,-0.104C0.357,-0.066 0.31,-0.049 0.255,-0.049C0.221,-0.049 0.174,-0.062 0.146,-0.106C0.128,-0.134 0.122,-0.175 0.122,-0.233L0.394,-0.233C0.405,-0.233 0.412,-0.239 0.412,-0.25C0.412,-0.334 0.371,-0.439 0.239,-0.439C0.136,-0.439 0.034,-0.356 0.034,-0.209C0.034,-0.152 0.046,-0.096 0.079,-0.056C0.113,-0.015 0.171,0.01 0.238,0.01C0.31,0.01 0.374,-0.027 0.412,-0.079L0.392,-0.104ZM0.125,-0.273C0.142,-0.377 0.208,-0.399 0.239,-0.399C0.279,-0.399 0.323,-0.362 0.323,-0.287C0.323,-0.278 0.319,-0.273 0.309,-0.273L0.125,-0.273Z" style="fill-rule:nonzero;"/>
                    </g>
                    <g transform="matrix(29.1667,0,0,29.1667,263.031,287.081)">
                        <path d="M0.31,-0.048C0.322,-0.009 0.351,0.01 0.388,0.01C0.413,0.01 0.444,0.004 0.468,-0.021L0.46,-0.046C0.449,-0.042 0.441,-0.041 0.433,-0.041C0.423,-0.041 0.41,-0.042 0.404,-0.048C0.394,-0.057 0.387,-0.082 0.387,-0.126C0.387,-0.155 0.39,-0.266 0.39,-0.277C0.39,-0.412 0.301,-0.439 0.225,-0.439C0.149,-0.439 0.103,-0.402 0.078,-0.381L0.075,-0.377L0.092,-0.31L0.105,-0.309C0.133,-0.354 0.167,-0.394 0.215,-0.394C0.251,-0.394 0.311,-0.389 0.311,-0.276C0.311,-0.269 0.307,-0.265 0.304,-0.264L0.211,-0.243C0.109,-0.22 0.045,-0.166 0.045,-0.098C0.045,-0.024 0.096,0.01 0.17,0.01C0.225,0.01 0.253,-0.003 0.306,-0.048L0.31,-0.048ZM0.31,-0.225L0.306,-0.106C0.306,-0.093 0.3,-0.086 0.292,-0.08C0.264,-0.059 0.23,-0.041 0.2,-0.041C0.155,-0.041 0.126,-0.071 0.126,-0.102C0.126,-0.147 0.147,-0.181 0.225,-0.202L0.31,-0.225Z" style="fill-rule:nonzero;"/>
                    </g>
                    <g transform="matrix(29.1667,0,0,29.1667,277.06,287.081)">
                        <path d="M0.361,-0.058L0.363,-0.058L0.368,-0C0.368,0.002 0.371,0.003 0.377,0.003C0.39,0.001 0.397,-0 0.412,-0C0.424,-0 0.443,0.001 0.456,0.003L0.458,-0C0.45,-0.043 0.441,-0.117 0.441,-0.192L0.441,-0.5C0.441,-0.574 0.445,-0.626 0.45,-0.688C0.45,-0.695 0.447,-0.698 0.441,-0.698C0.416,-0.688 0.395,-0.681 0.354,-0.678L0.352,-0.675C0.36,-0.632 0.361,-0.558 0.361,-0.482L0.361,-0.417C0.338,-0.43 0.297,-0.439 0.277,-0.439C0.147,-0.439 0.051,-0.349 0.051,-0.213C0.051,-0.09 0.124,0.01 0.232,0.01C0.28,0.01 0.325,-0.012 0.361,-0.058ZM0.361,-0.113C0.325,-0.067 0.279,-0.042 0.238,-0.042C0.184,-0.042 0.138,-0.096 0.138,-0.221C0.138,-0.371 0.218,-0.399 0.266,-0.399C0.313,-0.399 0.337,-0.379 0.361,-0.341L0.361,-0.113Z" style="fill-rule:nonzero;"/>
                    </g>
                    <g transform="matrix(29.1667,0,0,29.1667,292.518,287.081)">
                        <path d="M0.392,-0.104C0.357,-0.066 0.31,-0.049 0.255,-0.049C0.221,-0.049 0.174,-0.062 0.146,-0.106C0.128,-0.134 0.122,-0.175 0.122,-0.233L0.394,-0.233C0.405,-0.233 0.412,-0.239 0.412,-0.25C0.412,-0.334 0.371,-0.439 0.239,-0.439C0.136,-0.439 0.034,-0.356 0.034,-0.209C0.034,-0.152 0.046,-0.096 0.079,-0.056C0.113,-0.015 0.171,0.01 0.238,0.01C0.31,0.01 0.374,-0.027 0.412,-0.079L0.392,-0.104ZM0.125,-0.273C0.142,-0.377 0.208,-0.399 0.239,-0.399C0.279,-0.399 0.323,-0.362 0.323,-0.287C0.323,-0.278 0.319,-0.273 0.309,-0.273L0.125,-0.273Z" style="fill-rule:nonzero;"/>
                    </g>
                    <g transform="matrix(29.1667,0,0,29.1667,305.731,287.081)">
                        <path d="M0.167,-0.334L0.167,-0.425C0.167,-0.433 0.166,-0.435 0.161,-0.435C0.139,-0.431 0.103,-0.43 0.08,-0.432L0.078,-0.429C0.085,-0.386 0.087,-0.31 0.087,-0.235L0.087,-0.18C0.087,-0.105 0.086,-0.054 0.078,-0L0.08,0.003C0.092,0.001 0.115,-0 0.127,-0C0.139,-0 0.162,0.001 0.174,0.003L0.176,-0C0.169,-0.057 0.167,-0.104 0.167,-0.18L0.167,-0.232C0.167,-0.274 0.18,-0.298 0.201,-0.331C0.216,-0.353 0.238,-0.366 0.257,-0.366C0.277,-0.366 0.296,-0.364 0.309,-0.352L0.317,-0.354L0.337,-0.428L0.333,-0.432C0.316,-0.437 0.315,-0.439 0.297,-0.439C0.243,-0.439 0.214,-0.408 0.17,-0.332L0.167,-0.334Z" style="fill-rule:nonzero;"/>
                    </g>
                </g>
                <rect x="94.488" y="850.394" width="141.732" height="47.244" style="fill:rgb(128,128,128);fill-opacity:0;stroke:black;stroke-width:4.17px;"/>
            </g>
        </g>
    </g>
</svg>
