<?xml version="1.0" encoding="UTF-8" standalone="no"?>
<!DOCTYPE svg PUBLIC "-//W3C//DTD SVG 1.1//EN" "http://www.w3.org/Graphics/SVG/1.1/DTD/svg11.dtd">
<svg width="100%" height="100%" viewBox="0 0 1328 268" version="1.1" xmlns="http://www.w3.org/2000/svg" xmlns:xlink="http://www.w3.org/1999/xlink" xml:space="preserve" xmlns:serif="http://www.serif.com/" style="fill-rule:evenodd;clip-rule:evenodd;stroke-linecap:round;stroke-linejoin:round;stroke-miterlimit:1.5;">
    <g transform="matrix(1,0,0,1,-92.4049,-118.11)">
        <g id="Safetensors-structure" serif:id="Safetensors structure">
            <g id="Size-section" serif:id="Size section" transform="matrix(1,0,0,1,1.13687e-13,141.732)">
                <g transform="matrix(1,0,0,1,-43.9367,-309.211)">
                    <g transform="matrix(33.3333,0,0,33.3333,335.607,437.321)">
                        <path d="M0.228,0.01C0.305,0.01 0.421,-0.075 0.421,-0.309C0.421,-0.465 0.364,-0.542 0.328,-0.575C0.301,-0.6 0.269,-0.61 0.233,-0.61C0.133,-0.61 0.039,-0.486 0.039,-0.289C0.039,-0.127 0.104,0.01 0.228,0.01ZM0.233,-0.571C0.25,-0.571 0.266,-0.565 0.277,-0.555C0.308,-0.529 0.335,-0.451 0.335,-0.317C0.335,-0.225 0.332,-0.173 0.318,-0.122C0.296,-0.039 0.247,-0.029 0.229,-0.029C0.136,-0.029 0.125,-0.2 0.125,-0.287C0.125,-0.534 0.187,-0.571 0.233,-0.571Z" style="fill-rule:nonzero;"/>
                    </g>
                    <g transform="matrix(33.3333,0,0,33.3333,351.107,437.321)">
                        <path d="M0.228,0.01C0.305,0.01 0.421,-0.075 0.421,-0.309C0.421,-0.465 0.364,-0.542 0.328,-0.575C0.301,-0.6 0.269,-0.61 0.233,-0.61C0.133,-0.61 0.039,-0.486 0.039,-0.289C0.039,-0.127 0.104,0.01 0.228,0.01ZM0.233,-0.571C0.25,-0.571 0.266,-0.565 0.277,-0.555C0.308,-0.529 0.335,-0.451 0.335,-0.317C0.335,-0.225 0.332,-0.173 0.318,-0.122C0.296,-0.039 0.247,-0.029 0.229,-0.029C0.136,-0.029 0.125,-0.2 0.125,-0.287C0.125,-0.534 0.187,-0.571 0.233,-0.571Z" style="fill-rule:nonzero;"/>
                    </g>
                </g>
                <rect x="236.22" y="94.488" width="47.244" height="47.244" style="fill:rgb(235,235,235);fill-opacity:0;stroke:black;stroke-width:4.17px;"/>
                <g transform="matrix(1,0,0,1,-91.1808,-309.211)">
                    <g transform="matrix(33.3333,0,0,33.3333,335.607,437.321)">
                        <path d="M0.228,0.01C0.305,0.01 0.421,-0.075 0.421,-0.309C0.421,-0.465 0.364,-0.542 0.328,-0.575C0.301,-0.6 0.269,-0.61 0.233,-0.61C0.133,-0.61 0.039,-0.486 0.039,-0.289C0.039,-0.127 0.104,0.01 0.228,0.01ZM0.233,-0.571C0.25,-0.571 0.266,-0.565 0.277,-0.555C0.308,-0.529 0.335,-0.451 0.335,-0.317C0.335,-0.225 0.332,-0.173 0.318,-0.122C0.296,-0.039 0.247,-0.029 0.229,-0.029C0.136,-0.029 0.125,-0.2 0.125,-0.287C0.125,-0.534 0.187,-0.571 0.233,-0.571Z" style="fill-rule:nonzero;"/>
                    </g>
                    <g transform="matrix(33.3333,0,0,33.3333,351.107,437.321)">
                        <path d="M0.228,0.01C0.305,0.01 0.421,-0.075 0.421,-0.309C0.421,-0.465 0.364,-0.542 0.328,-0.575C0.301,-0.6 0.269,-0.61 0.233,-0.61C0.133,-0.61 0.039,-0.486 0.039,-0.289C0.039,-0.127 0.104,0.01 0.228,0.01ZM0.233,-0.571C0.25,-0.571 0.266,-0.565 0.277,-0.555C0.308,-0.529 0.335,-0.451 0.335,-0.317C0.335,-0.225 0.332,-0.173 0.318,-0.122C0.296,-0.039 0.247,-0.029 0.229,-0.029C0.136,-0.029 0.125,-0.2 0.125,-0.287C0.125,-0.534 0.187,-0.571 0.233,-0.571Z" style="fill-rule:nonzero;"/>
                    </g>
                </g>
                <g transform="matrix(1,0,0,1,47.2441,0)">
                    <rect x="236.22" y="94.488" width="47.244" height="47.244" style="fill:rgb(235,235,235);fill-opacity:0;stroke:black;stroke-width:4.17px;"/>
                </g>
                <g transform="matrix(1,0,0,1,97.7956,-309.211)">
                    <g transform="matrix(33.3333,0,0,33.3333,335.607,437.321)">
                        <path d="M0.228,0.01C0.305,0.01 0.421,-0.075 0.421,-0.309C0.421,-0.465 0.364,-0.542 0.328,-0.575C0.301,-0.6 0.269,-0.61 0.233,-0.61C0.133,-0.61 0.039,-0.486 0.039,-0.289C0.039,-0.127 0.104,0.01 0.228,0.01ZM0.233,-0.571C0.25,-0.571 0.266,-0.565 0.277,-0.555C0.308,-0.529 0.335,-0.451 0.335,-0.317C0.335,-0.225 0.332,-0.173 0.318,-0.122C0.296,-0.039 0.247,-0.029 0.229,-0.029C0.136,-0.029 0.125,-0.2 0.125,-0.287C0.125,-0.534 0.187,-0.571 0.233,-0.571Z" style="fill-rule:nonzero;"/>
                    </g>
                    <g transform="matrix(33.3333,0,0,33.3333,351.107,437.321)">
                        <path d="M0.228,0.01C0.305,0.01 0.421,-0.075 0.421,-0.309C0.421,-0.465 0.364,-0.542 0.328,-0.575C0.301,-0.6 0.269,-0.61 0.233,-0.61C0.133,-0.61 0.039,-0.486 0.039,-0.289C0.039,-0.127 0.104,0.01 0.228,0.01ZM0.233,-0.571C0.25,-0.571 0.266,-0.565 0.277,-0.555C0.308,-0.529 0.335,-0.451 0.335,-0.317C0.335,-0.225 0.332,-0.173 0.318,-0.122C0.296,-0.039 0.247,-0.029 0.229,-0.029C0.136,-0.029 0.125,-0.2 0.125,-0.287C0.125,-0.534 0.187,-0.571 0.233,-0.571Z" style="fill-rule:nonzero;"/>
                    </g>
                </g>
                <g transform="matrix(1,0,0,1,94.4882,0)">
                    <rect x="236.22" y="94.488" width="47.244" height="47.244" style="fill:rgb(235,235,235);fill-opacity:0;stroke:black;stroke-width:4.17px;"/>
                </g>
                <g transform="matrix(1,0,0,1,3.30741,-309.211)">
                    <g transform="matrix(33.3333,0,0,33.3333,335.607,437.321)">
                        <path d="M0.228,0.01C0.305,0.01 0.421,-0.075 0.421,-0.309C0.421,-0.465 0.364,-0.542 0.328,-0.575C0.301,-0.6 0.269,-0.61 0.233,-0.61C0.133,-0.61 0.039,-0.486 0.039,-0.289C0.039,-0.127 0.104,0.01 0.228,0.01ZM0.233,-0.571C0.25,-0.571 0.266,-0.565 0.277,-0.555C0.308,-0.529 0.335,-0.451 0.335,-0.317C0.335,-0.225 0.332,-0.173 0.318,-0.122C0.296,-0.039 0.247,-0.029 0.229,-0.029C0.136,-0.029 0.125,-0.2 0.125,-0.287C0.125,-0.534 0.187,-0.571 0.233,-0.571Z" style="fill-rule:nonzero;"/>
                    </g>
                    <g transform="matrix(33.3333,0,0,33.3333,351.107,437.321)">
                        <path d="M0.228,0.01C0.305,0.01 0.421,-0.075 0.421,-0.309C0.421,-0.465 0.364,-0.542 0.328,-0.575C0.301,-0.6 0.269,-0.61 0.233,-0.61C0.133,-0.61 0.039,-0.486 0.039,-0.289C0.039,-0.127 0.104,0.01 0.228,0.01ZM0.233,-0.571C0.25,-0.571 0.266,-0.565 0.277,-0.555C0.308,-0.529 0.335,-0.451 0.335,-0.317C0.335,-0.225 0.332,-0.173 0.318,-0.122C0.296,-0.039 0.247,-0.029 0.229,-0.029C0.136,-0.029 0.125,-0.2 0.125,-0.287C0.125,-0.534 0.187,-0.571 0.233,-0.571Z" style="fill-rule:nonzero;"/>
                    </g>
                </g>
                <g transform="matrix(1,0,0,1,141.732,0)">
                    <rect x="236.22" y="94.488" width="47.244" height="47.244" style="fill:rgb(235,235,235);fill-opacity:0;stroke:black;stroke-width:4.17px;"/>
                </g>
                <g transform="matrix(1,0,0,1,50.5515,-309.211)">
                    <g transform="matrix(33.3333,0,0,33.3333,335.607,437.321)">
                        <path d="M0.228,0.01C0.305,0.01 0.421,-0.075 0.421,-0.309C0.421,-0.465 0.364,-0.542 0.328,-0.575C0.301,-0.6 0.269,-0.61 0.233,-0.61C0.133,-0.61 0.039,-0.486 0.039,-0.289C0.039,-0.127 0.104,0.01 0.228,0.01ZM0.233,-0.571C0.25,-0.571 0.266,-0.565 0.277,-0.555C0.308,-0.529 0.335,-0.451 0.335,-0.317C0.335,-0.225 0.332,-0.173 0.318,-0.122C0.296,-0.039 0.247,-0.029 0.229,-0.029C0.136,-0.029 0.125,-0.2 0.125,-0.287C0.125,-0.534 0.187,-0.571 0.233,-0.571Z" style="fill-rule:nonzero;"/>
                    </g>
                    <g transform="matrix(33.3333,0,0,33.3333,351.107,437.321)">
                        <path d="M0.228,0.01C0.305,0.01 0.421,-0.075 0.421,-0.309C0.421,-0.465 0.364,-0.542 0.328,-0.575C0.301,-0.6 0.269,-0.61 0.233,-0.61C0.133,-0.61 0.039,-0.486 0.039,-0.289C0.039,-0.127 0.104,0.01 0.228,0.01ZM0.233,-0.571C0.25,-0.571 0.266,-0.565 0.277,-0.555C0.308,-0.529 0.335,-0.451 0.335,-0.317C0.335,-0.225 0.332,-0.173 0.318,-0.122C0.296,-0.039 0.247,-0.029 0.229,-0.029C0.136,-0.029 0.125,-0.2 0.125,-0.287C0.125,-0.534 0.187,-0.571 0.233,-0.571Z" style="fill-rule:nonzero;"/>
                    </g>
                </g>
                <g transform="matrix(1,0,0,1,-47.2441,0)">
                    <rect x="236.22" y="94.488" width="47.244" height="47.244" style="fill:rgb(235,235,235);fill-opacity:0;stroke:black;stroke-width:4.17px;"/>
                </g>
                <g transform="matrix(1,0,0,1,-138.425,-309.211)">
                    <g transform="matrix(33.3333,0,0,33.3333,335.607,437.321)">
                        <path d="M0.228,0.01C0.305,0.01 0.421,-0.075 0.421,-0.309C0.421,-0.465 0.364,-0.542 0.328,-0.575C0.301,-0.6 0.269,-0.61 0.233,-0.61C0.133,-0.61 0.039,-0.486 0.039,-0.289C0.039,-0.127 0.104,0.01 0.228,0.01ZM0.233,-0.571C0.25,-0.571 0.266,-0.565 0.277,-0.555C0.308,-0.529 0.335,-0.451 0.335,-0.317C0.335,-0.225 0.332,-0.173 0.318,-0.122C0.296,-0.039 0.247,-0.029 0.229,-0.029C0.136,-0.029 0.125,-0.2 0.125,-0.287C0.125,-0.534 0.187,-0.571 0.233,-0.571Z" style="fill-rule:nonzero;"/>
                    </g>
                    <g transform="matrix(33.3333,0,0,33.3333,351.107,437.321)">
                        <path d="M0.228,0.01C0.305,0.01 0.421,-0.075 0.421,-0.309C0.421,-0.465 0.364,-0.542 0.328,-0.575C0.301,-0.6 0.269,-0.61 0.233,-0.61C0.133,-0.61 0.039,-0.486 0.039,-0.289C0.039,-0.127 0.104,0.01 0.228,0.01ZM0.233,-0.571C0.25,-0.571 0.266,-0.565 0.277,-0.555C0.308,-0.529 0.335,-0.451 0.335,-0.317C0.335,-0.225 0.332,-0.173 0.318,-0.122C0.296,-0.039 0.247,-0.029 0.229,-0.029C0.136,-0.029 0.125,-0.2 0.125,-0.287C0.125,-0.534 0.187,-0.571 0.233,-0.571Z" style="fill-rule:nonzero;"/>
                    </g>
                </g>
                <g transform="matrix(1,0,0,1,-94.4882,0)">
                    <rect x="236.22" y="94.488" width="47.244" height="47.244" style="fill:rgb(235,235,235);fill-opacity:0;stroke:black;stroke-width:4.17px;"/>
                </g>
                <g transform="matrix(1,0,0,1,-185.669,-309.211)">
                    <g transform="matrix(33.3333,0,0,33.3333,335.607,437.321)">
                        <path d="M0.228,0.01C0.305,0.01 0.421,-0.075 0.421,-0.309C0.421,-0.465 0.364,-0.542 0.328,-0.575C0.301,-0.6 0.269,-0.61 0.233,-0.61C0.133,-0.61 0.039,-0.486 0.039,-0.289C0.039,-0.127 0.104,0.01 0.228,0.01ZM0.233,-0.571C0.25,-0.571 0.266,-0.565 0.277,-0.555C0.308,-0.529 0.335,-0.451 0.335,-0.317C0.335,-0.225 0.332,-0.173 0.318,-0.122C0.296,-0.039 0.247,-0.029 0.229,-0.029C0.136,-0.029 0.125,-0.2 0.125,-0.287C0.125,-0.534 0.187,-0.571 0.233,-0.571Z" style="fill-rule:nonzero;"/>
                    </g>
                    <g transform="matrix(33.3333,0,0,33.3333,351.107,437.321)">
                        <path d="M0.228,0.01C0.305,0.01 0.421,-0.075 0.421,-0.309C0.421,-0.465 0.364,-0.542 0.328,-0.575C0.301,-0.6 0.269,-0.61 0.233,-0.61C0.133,-0.61 0.039,-0.486 0.039,-0.289C0.039,-0.127 0.104,0.01 0.228,0.01ZM0.233,-0.571C0.25,-0.571 0.266,-0.565 0.277,-0.555C0.308,-0.529 0.335,-0.451 0.335,-0.317C0.335,-0.225 0.332,-0.173 0.318,-0.122C0.296,-0.039 0.247,-0.029 0.229,-0.029C0.136,-0.029 0.125,-0.2 0.125,-0.287C0.125,-0.534 0.187,-0.571 0.233,-0.571Z" style="fill-rule:nonzero;"/>
                    </g>
                </g>
                <g transform="matrix(1,0,0,1,-141.732,0)">
                    <rect x="236.22" y="94.488" width="47.244" height="47.244" style="fill:rgb(235,235,235);fill-opacity:0;stroke:black;stroke-width:4.17px;"/>
                </g>
                <g transform="matrix(1,0,0,1,-228.346,-308.978)">
                    <g transform="matrix(33.3333,0,0,33.3333,335.607,437.321)">
                        <path d="M0.099,-0.385L0.099,-0.2C0.099,-0.126 0.098,-0.054 0.089,-0L0.09,0.003C0.09,0.003 0.104,-0 0.139,-0C0.173,-0 0.187,0.003 0.187,0.003L0.189,-0C0.181,-0.057 0.179,-0.125 0.179,-0.2L0.179,-0.385L0.377,-0.385L0.377,-0.2C0.377,-0.126 0.376,-0.054 0.367,-0L0.368,0.003C0.368,0.003 0.382,-0 0.417,-0C0.451,-0 0.465,0.003 0.465,0.003L0.467,-0C0.459,-0.057 0.457,-0.125 0.457,-0.2L0.457,-0.385L0.491,-0.385C0.515,-0.385 0.55,-0.384 0.563,-0.383C0.566,-0.399 0.569,-0.409 0.575,-0.424L0.57,-0.431C0.553,-0.43 0.523,-0.429 0.5,-0.429L0.457,-0.429L0.457,-0.439C0.457,-0.465 0.452,-0.527 0.452,-0.545C0.452,-0.6 0.478,-0.648 0.535,-0.648C0.564,-0.648 0.582,-0.633 0.593,-0.613L0.604,-0.614C0.611,-0.641 0.621,-0.677 0.632,-0.696L0.631,-0.699C0.623,-0.704 0.605,-0.708 0.586,-0.708C0.523,-0.708 0.468,-0.681 0.432,-0.632C0.396,-0.583 0.377,-0.557 0.377,-0.479L0.377,-0.429L0.179,-0.429L0.179,-0.439C0.179,-0.465 0.174,-0.507 0.174,-0.525C0.174,-0.58 0.2,-0.628 0.257,-0.628C0.286,-0.628 0.304,-0.613 0.315,-0.593L0.326,-0.594C0.333,-0.621 0.343,-0.657 0.354,-0.676L0.353,-0.679C0.345,-0.684 0.327,-0.688 0.308,-0.688C0.245,-0.688 0.19,-0.661 0.154,-0.612C0.118,-0.563 0.099,-0.537 0.099,-0.459L0.099,-0.429C0.077,-0.429 0.054,-0.429 0.041,-0.431C0.034,-0.415 0.029,-0.405 0.019,-0.39L0.024,-0.383C0.042,-0.384 0.075,-0.385 0.098,-0.385L0.099,-0.385Z" style="fill-rule:nonzero;"/>
                    </g>
                </g>
                <g transform="matrix(1,0,0,1,188.976,0)">
                    <rect x="236.22" y="94.488" width="47.244" height="47.244" style="fill:rgb(235,235,235);fill-opacity:0;stroke:black;stroke-width:4.17px;"/>
                </g>
            </g>
            <g id="Tensor-bytes" serif:id="Tensor bytes" transform="matrix(1,0,0,1,803.15,141.732)">
                <rect x="236.22" y="94.488" width="47.244" height="47.244" style="fill:rgb(235,235,235);fill-opacity:0;stroke:black;stroke-width:4.17px;"/>
                <g transform="matrix(1,0,0,1,-91.2641,-309.211)">
                    <g transform="matrix(33.3333,0,0,33.3333,335.607,437.321)">
                        <path d="M0.228,0.01C0.305,0.01 0.421,-0.075 0.421,-0.309C0.421,-0.465 0.364,-0.542 0.328,-0.575C0.301,-0.6 0.269,-0.61 0.233,-0.61C0.133,-0.61 0.039,-0.486 0.039,-0.289C0.039,-0.127 0.104,0.01 0.228,0.01ZM0.233,-0.571C0.25,-0.571 0.266,-0.565 0.277,-0.555C0.308,-0.529 0.335,-0.451 0.335,-0.317C0.335,-0.225 0.332,-0.173 0.318,-0.122C0.296,-0.039 0.247,-0.029 0.229,-0.029C0.136,-0.029 0.125,-0.2 0.125,-0.287C0.125,-0.534 0.187,-0.571 0.233,-0.571Z" style="fill-rule:nonzero;"/>
                    </g>
                    <g transform="matrix(33.3333,0,0,33.3333,351.107,437.321)">
                        <path d="M0.286,-0.148C0.286,-0.071 0.284,-0.051 0.278,-0L0.279,0.003C0.279,0.003 0.31,-0 0.326,-0C0.342,-0 0.359,0.003 0.368,0.003C0.369,0.003 0.37,0.001 0.37,-0C0.366,-0.058 0.364,-0.09 0.364,-0.148L0.414,-0.148C0.428,-0.148 0.443,-0.171 0.443,-0.182C0.443,-0.191 0.438,-0.198 0.428,-0.198L0.364,-0.198L0.364,-0.452C0.364,-0.485 0.365,-0.554 0.37,-0.6C0.37,-0.602 0.369,-0.604 0.368,-0.604C0.359,-0.604 0.344,-0.6 0.329,-0.6C0.313,-0.6 0.295,-0.604 0.295,-0.604C0.295,-0.604 0.291,-0.601 0.291,-0.6C0.23,-0.516 0.086,-0.296 0.034,-0.207C0.024,-0.189 0.021,-0.178 0.021,-0.168C0.021,-0.153 0.044,-0.148 0.08,-0.148L0.286,-0.148ZM0.286,-0.512L0.286,-0.198L0.083,-0.198L0.286,-0.512Z" style="fill-rule:nonzero;"/>
                    </g>
                </g>
                <g transform="matrix(1,0,0,1,188.976,5.68434e-14)">
                    <rect x="236.22" y="94.488" width="47.244" height="47.244" style="fill:rgb(235,235,235);fill-opacity:0;stroke:black;stroke-width:4.17px;"/>
                </g>
                <g transform="matrix(1,0,0,1,101.229,-307.744)">
                    <g transform="matrix(33.3333,0,0,33.3333,335.607,437.321)">
                        <path d="M0.099,-0.429C0.077,-0.429 0.054,-0.429 0.041,-0.431C0.034,-0.415 0.029,-0.405 0.019,-0.39L0.024,-0.383C0.042,-0.384 0.075,-0.385 0.098,-0.385L0.099,-0.385L0.099,-0.199C0.099,-0.124 0.098,-0.054 0.089,-0L0.091,0.003C0.103,0.001 0.127,-0 0.139,-0C0.151,-0 0.175,0.001 0.187,0.003L0.189,-0C0.181,-0.057 0.179,-0.124 0.179,-0.199L0.179,-0.385L0.213,-0.385C0.237,-0.385 0.272,-0.384 0.285,-0.383C0.288,-0.399 0.291,-0.409 0.297,-0.424L0.292,-0.431C0.275,-0.43 0.245,-0.429 0.222,-0.429L0.179,-0.429L0.179,-0.438C0.179,-0.474 0.174,-0.526 0.174,-0.544C0.174,-0.599 0.21,-0.637 0.267,-0.637C0.293,-0.637 0.314,-0.622 0.325,-0.602L0.336,-0.603C0.343,-0.63 0.354,-0.664 0.364,-0.685L0.363,-0.688C0.355,-0.693 0.337,-0.698 0.318,-0.698C0.255,-0.698 0.192,-0.669 0.154,-0.621C0.116,-0.573 0.099,-0.526 0.099,-0.468L0.099,-0.429Z" style="fill-rule:nonzero;"/>
                    </g>
                    <g transform="matrix(33.3333,0,0,33.3333,346.073,437.321)">
                        <path d="M0.25,-0.399C0.289,-0.399 0.324,-0.371 0.35,-0.325L0.363,-0.326L0.386,-0.408L0.384,-0.411C0.353,-0.427 0.301,-0.439 0.251,-0.439C0.147,-0.439 0.038,-0.354 0.038,-0.218C0.038,-0.079 0.117,0.01 0.239,0.01C0.299,0.01 0.346,-0.01 0.386,-0.061L0.367,-0.082L0.363,-0.082C0.325,-0.048 0.293,-0.04 0.256,-0.04C0.183,-0.04 0.126,-0.106 0.126,-0.223C0.126,-0.333 0.184,-0.399 0.25,-0.399Z" style="fill-rule:nonzero;"/>
                    </g>
                </g>
                <g transform="matrix(1,0,0,1,236.22,5.68434e-14)">
                    <rect x="236.22" y="94.488" width="47.244" height="47.244" style="fill:rgb(235,235,235);fill-opacity:0;stroke:black;stroke-width:4.17px;"/>
                </g>
                <g transform="matrix(1,0,0,1,147.273,-307.744)">
                    <g transform="matrix(33.3333,0,0,33.3333,335.607,437.321)">
                        <path d="M0.099,-0.429C0.077,-0.429 0.054,-0.429 0.041,-0.431C0.034,-0.415 0.029,-0.405 0.019,-0.39L0.024,-0.383C0.042,-0.384 0.075,-0.385 0.098,-0.385L0.099,-0.385L0.099,-0.199C0.099,-0.124 0.098,-0.054 0.089,-0L0.091,0.003C0.103,0.001 0.127,-0 0.139,-0C0.151,-0 0.175,0.001 0.187,0.003L0.189,-0C0.181,-0.057 0.179,-0.124 0.179,-0.199L0.179,-0.385L0.213,-0.385C0.237,-0.385 0.272,-0.384 0.285,-0.383C0.288,-0.399 0.291,-0.409 0.297,-0.424L0.292,-0.431C0.275,-0.43 0.245,-0.429 0.222,-0.429L0.179,-0.429L0.179,-0.438C0.179,-0.474 0.174,-0.526 0.174,-0.544C0.174,-0.599 0.21,-0.637 0.267,-0.637C0.293,-0.637 0.314,-0.622 0.325,-0.602L0.336,-0.603C0.343,-0.63 0.354,-0.664 0.364,-0.685L0.363,-0.688C0.355,-0.693 0.337,-0.698 0.318,-0.698C0.255,-0.698 0.192,-0.669 0.154,-0.621C0.116,-0.573 0.099,-0.526 0.099,-0.468L0.099,-0.429Z" style="fill-rule:nonzero;"/>
                    </g>
                    <g transform="matrix(33.3333,0,0,33.3333,346.073,437.321)">
                        <path d="M0.361,-0.058L0.363,-0.058L0.368,-0C0.368,0.002 0.371,0.003 0.377,0.003C0.39,0.001 0.397,-0 0.412,-0C0.424,-0 0.443,0.001 0.456,0.003L0.458,-0C0.45,-0.043 0.441,-0.117 0.441,-0.192L0.441,-0.5C0.441,-0.574 0.445,-0.626 0.45,-0.688C0.45,-0.695 0.447,-0.698 0.441,-0.698C0.416,-0.688 0.395,-0.681 0.354,-0.678L0.352,-0.675C0.36,-0.632 0.361,-0.558 0.361,-0.482L0.361,-0.417C0.338,-0.43 0.297,-0.439 0.277,-0.439C0.147,-0.439 0.051,-0.349 0.051,-0.213C0.051,-0.09 0.124,0.01 0.232,0.01C0.28,0.01 0.325,-0.012 0.361,-0.058ZM0.361,-0.113C0.325,-0.067 0.279,-0.042 0.238,-0.042C0.184,-0.042 0.138,-0.096 0.138,-0.221C0.138,-0.371 0.218,-0.399 0.266,-0.399C0.313,-0.399 0.337,-0.379 0.361,-0.341L0.361,-0.113Z" style="fill-rule:nonzero;"/>
                    </g>
                </g>
                <g transform="matrix(1,0,0,1,283.465,-1.7053e-13)">
                    <rect x="236.22" y="94.488" width="47.244" height="47.244" style="fill:rgb(235,235,235);fill-opacity:0;stroke:black;stroke-width:4.17px;"/>
                </g>
                <g transform="matrix(1,0,0,1,195.717,-307.744)">
                    <g transform="matrix(33.3333,0,0,33.3333,335.607,437.321)">
                        <path d="M0.099,-0.429C0.077,-0.429 0.054,-0.429 0.041,-0.431C0.034,-0.415 0.029,-0.405 0.019,-0.39L0.024,-0.383C0.042,-0.384 0.075,-0.385 0.098,-0.385L0.099,-0.385L0.099,-0.199C0.099,-0.124 0.098,-0.054 0.089,-0L0.091,0.003C0.103,0.001 0.127,-0 0.139,-0C0.151,-0 0.175,0.001 0.187,0.003L0.189,-0C0.181,-0.057 0.179,-0.124 0.179,-0.199L0.179,-0.385L0.213,-0.385C0.237,-0.385 0.272,-0.384 0.285,-0.383C0.288,-0.399 0.291,-0.409 0.297,-0.424L0.292,-0.431C0.275,-0.43 0.245,-0.429 0.222,-0.429L0.179,-0.429L0.179,-0.438C0.179,-0.474 0.174,-0.526 0.174,-0.544C0.174,-0.599 0.21,-0.637 0.267,-0.637C0.293,-0.637 0.314,-0.622 0.325,-0.602L0.336,-0.603C0.343,-0.63 0.354,-0.664 0.364,-0.685L0.363,-0.688C0.355,-0.693 0.337,-0.698 0.318,-0.698C0.255,-0.698 0.192,-0.669 0.154,-0.621C0.116,-0.573 0.099,-0.526 0.099,-0.468L0.099,-0.429Z" style="fill-rule:nonzero;"/>
                    </g>
                    <g transform="matrix(33.3333,0,0,33.3333,346.073,437.321)">
                        <path d="M0.392,-0.104C0.357,-0.066 0.31,-0.049 0.255,-0.049C0.221,-0.049 0.174,-0.062 0.146,-0.106C0.128,-0.134 0.122,-0.175 0.122,-0.233L0.394,-0.233C0.405,-0.233 0.412,-0.239 0.412,-0.25C0.412,-0.334 0.371,-0.439 0.239,-0.439C0.136,-0.439 0.034,-0.356 0.034,-0.209C0.034,-0.152 0.046,-0.096 0.079,-0.056C0.113,-0.015 0.171,0.01 0.238,0.01C0.31,0.01 0.374,-0.027 0.412,-0.079L0.392,-0.104ZM0.125,-0.273C0.142,-0.377 0.208,-0.399 0.239,-0.399C0.279,-0.399 0.323,-0.362 0.323,-0.287C0.323,-0.278 0.319,-0.273 0.309,-0.273L0.125,-0.273Z" style="fill-rule:nonzero;"/>
                    </g>
                </g>
                <g transform="matrix(1,0,0,1,331.575,5.68434e-14)">
                    <rect x="236.22" y="94.488" width="47.244" height="47.244" style="fill:rgb(235,235,235);fill-opacity:0;stroke:black;stroke-width:4.17px;"/>
                </g>
                <g transform="matrix(1,0,0,1,244.961,-307.411)">
                    <g transform="matrix(33.3333,0,0,33.3333,335.607,437.321)">
                        <path d="M0.099,-0.385L0.099,-0.2C0.099,-0.126 0.098,-0.054 0.089,-0L0.09,0.003C0.09,0.003 0.104,-0 0.139,-0C0.173,-0 0.187,0.003 0.187,0.003L0.189,-0C0.181,-0.057 0.179,-0.125 0.179,-0.2L0.179,-0.385L0.377,-0.385L0.377,-0.2C0.377,-0.126 0.376,-0.054 0.367,-0L0.368,0.003C0.368,0.003 0.382,-0 0.417,-0C0.451,-0 0.465,0.003 0.465,0.003L0.467,-0C0.459,-0.057 0.457,-0.125 0.457,-0.2L0.457,-0.385L0.491,-0.385C0.515,-0.385 0.55,-0.384 0.563,-0.383C0.566,-0.399 0.569,-0.409 0.575,-0.424L0.57,-0.431C0.553,-0.43 0.523,-0.429 0.5,-0.429L0.457,-0.429L0.457,-0.439C0.457,-0.465 0.452,-0.527 0.452,-0.545C0.452,-0.6 0.478,-0.648 0.535,-0.648C0.564,-0.648 0.582,-0.633 0.593,-0.613L0.604,-0.614C0.611,-0.641 0.621,-0.677 0.632,-0.696L0.631,-0.699C0.623,-0.704 0.605,-0.708 0.586,-0.708C0.523,-0.708 0.468,-0.681 0.432,-0.632C0.396,-0.583 0.377,-0.557 0.377,-0.479L0.377,-0.429L0.179,-0.429L0.179,-0.439C0.179,-0.465 0.174,-0.507 0.174,-0.525C0.174,-0.58 0.2,-0.628 0.257,-0.628C0.286,-0.628 0.304,-0.613 0.315,-0.593L0.326,-0.594C0.333,-0.621 0.343,-0.657 0.354,-0.676L0.353,-0.679C0.345,-0.684 0.327,-0.688 0.308,-0.688C0.245,-0.688 0.19,-0.661 0.154,-0.612C0.118,-0.563 0.099,-0.537 0.099,-0.459L0.099,-0.429C0.077,-0.429 0.054,-0.429 0.041,-0.431C0.034,-0.415 0.029,-0.405 0.019,-0.39L0.024,-0.383C0.042,-0.384 0.075,-0.385 0.098,-0.385L0.099,-0.385Z" style="fill-rule:nonzero;"/>
                    </g>
                </g>
                <g transform="matrix(1,0,0,1,-47.2441,0)">
                    <rect x="236.22" y="94.488" width="47.244" height="47.244" style="fill:rgb(235,235,235);fill-opacity:0;stroke:black;stroke-width:4.17px;"/>
                </g>
                <g transform="matrix(1,0,0,1,-138.508,-309.211)">
                    <g transform="matrix(33.3333,0,0,33.3333,335.607,437.321)">
                        <path d="M0.228,0.01C0.305,0.01 0.421,-0.075 0.421,-0.309C0.421,-0.465 0.364,-0.542 0.328,-0.575C0.301,-0.6 0.269,-0.61 0.233,-0.61C0.133,-0.61 0.039,-0.486 0.039,-0.289C0.039,-0.127 0.104,0.01 0.228,0.01ZM0.233,-0.571C0.25,-0.571 0.266,-0.565 0.277,-0.555C0.308,-0.529 0.335,-0.451 0.335,-0.317C0.335,-0.225 0.332,-0.173 0.318,-0.122C0.296,-0.039 0.247,-0.029 0.229,-0.029C0.136,-0.029 0.125,-0.2 0.125,-0.287C0.125,-0.534 0.187,-0.571 0.233,-0.571Z" style="fill-rule:nonzero;"/>
                    </g>
                    <g transform="matrix(33.3333,0,0,33.3333,351.107,437.321)">
                        <path d="M0.209,-0.029C0.13,-0.029 0.119,-0.059 0.092,-0.117L0.077,-0.116L0.055,-0.041L0.058,-0.038C0.084,-0.016 0.127,0.01 0.207,0.01C0.292,0.01 0.426,-0.048 0.426,-0.18C0.426,-0.259 0.365,-0.315 0.288,-0.322L0.288,-0.327C0.34,-0.339 0.406,-0.397 0.406,-0.48C0.406,-0.552 0.344,-0.61 0.245,-0.61C0.168,-0.61 0.112,-0.576 0.087,-0.554L0.084,-0.551L0.105,-0.487L0.12,-0.486C0.144,-0.542 0.176,-0.571 0.236,-0.571C0.275,-0.571 0.319,-0.53 0.319,-0.465C0.319,-0.421 0.304,-0.389 0.281,-0.367C0.261,-0.348 0.232,-0.339 0.198,-0.339C0.186,-0.339 0.175,-0.34 0.161,-0.342L0.161,-0.298C0.173,-0.3 0.194,-0.3 0.203,-0.3C0.235,-0.3 0.273,-0.291 0.301,-0.268C0.327,-0.246 0.34,-0.211 0.34,-0.172C0.34,-0.051 0.245,-0.029 0.209,-0.029Z" style="fill-rule:nonzero;"/>
                    </g>
                </g>
                <g transform="matrix(1,0,0,1,-94.4882,0)">
                    <rect x="236.22" y="94.488" width="47.244" height="47.244" style="fill:rgb(235,235,235);fill-opacity:0;stroke:black;stroke-width:4.17px;"/>
                </g>
                <g transform="matrix(1,0,0,1,-185.786,-309.211)">
                    <g transform="matrix(33.3333,0,0,33.3333,335.607,437.321)">
                        <path d="M0.228,0.01C0.305,0.01 0.421,-0.075 0.421,-0.309C0.421,-0.465 0.364,-0.542 0.328,-0.575C0.301,-0.6 0.269,-0.61 0.233,-0.61C0.133,-0.61 0.039,-0.486 0.039,-0.289C0.039,-0.127 0.104,0.01 0.228,0.01ZM0.233,-0.571C0.25,-0.571 0.266,-0.565 0.277,-0.555C0.308,-0.529 0.335,-0.451 0.335,-0.317C0.335,-0.225 0.332,-0.173 0.318,-0.122C0.296,-0.039 0.247,-0.029 0.229,-0.029C0.136,-0.029 0.125,-0.2 0.125,-0.287C0.125,-0.534 0.187,-0.571 0.233,-0.571Z" style="fill-rule:nonzero;"/>
                    </g>
                    <g transform="matrix(33.3333,0,0,33.3333,351.107,437.321)">
                        <path d="M0.222,-0.553C0.274,-0.553 0.328,-0.505 0.328,-0.435C0.328,-0.393 0.316,-0.34 0.29,-0.301C0.218,-0.194 0.104,-0.094 0.054,-0.047C0.053,-0.043 0.053,-0.039 0.053,-0.034C0.053,-0.019 0.058,-0.004 0.063,0.005C0.137,0.003 0.179,-0 0.252,-0C0.324,-0 0.354,0.002 0.426,0.005C0.424,-0.005 0.423,-0.017 0.423,-0.028C0.423,-0.044 0.424,-0.06 0.428,-0.075C0.371,-0.07 0.341,-0.067 0.245,-0.067C0.21,-0.067 0.19,-0.067 0.163,-0.065C0.162,-0.067 0.162,-0.068 0.162,-0.07C0.162,-0.079 0.172,-0.09 0.179,-0.097C0.228,-0.144 0.275,-0.189 0.341,-0.278C0.378,-0.328 0.414,-0.392 0.414,-0.449C0.414,-0.544 0.35,-0.61 0.238,-0.61C0.147,-0.61 0.089,-0.559 0.066,-0.529L0.088,-0.46L0.101,-0.459C0.115,-0.489 0.12,-0.51 0.145,-0.53C0.165,-0.546 0.194,-0.553 0.222,-0.553Z" style="fill-rule:nonzero;"/>
                    </g>
                </g>
                <g transform="matrix(1,0,0,1,-141.732,0)">
                    <rect x="236.22" y="94.488" width="47.244" height="47.244" style="fill:rgb(235,235,235);fill-opacity:0;stroke:black;stroke-width:4.17px;"/>
                </g>
                <g transform="matrix(1,0,0,1,-230.813,-309.211)">
                    <g transform="matrix(33.3333,0,0,33.3333,335.607,437.321)">
                        <path d="M0.228,0.01C0.305,0.01 0.421,-0.075 0.421,-0.309C0.421,-0.465 0.364,-0.542 0.328,-0.575C0.301,-0.6 0.269,-0.61 0.233,-0.61C0.133,-0.61 0.039,-0.486 0.039,-0.289C0.039,-0.127 0.104,0.01 0.228,0.01ZM0.233,-0.571C0.25,-0.571 0.266,-0.565 0.277,-0.555C0.308,-0.529 0.335,-0.451 0.335,-0.317C0.335,-0.225 0.332,-0.173 0.318,-0.122C0.296,-0.039 0.247,-0.029 0.229,-0.029C0.136,-0.029 0.125,-0.2 0.125,-0.287C0.125,-0.534 0.187,-0.571 0.233,-0.571Z" style="fill-rule:nonzero;"/>
                    </g>
                    <g transform="matrix(33.3333,0,0,33.3333,351.107,437.321)">
                        <path d="M0.286,-0.189L0.286,-0.443C0.286,-0.551 0.292,-0.591 0.294,-0.605C0.294,-0.61 0.291,-0.61 0.287,-0.61C0.222,-0.589 0.146,-0.55 0.068,-0.526L0.074,-0.497C0.119,-0.502 0.168,-0.513 0.188,-0.513C0.206,-0.513 0.206,-0.473 0.206,-0.437L0.206,-0.189C0.206,-0.111 0.205,-0.057 0.198,-0L0.199,0.003C0.199,0.003 0.227,-0 0.245,-0C0.265,-0 0.293,0.003 0.293,0.003L0.295,-0C0.288,-0.06 0.286,-0.11 0.286,-0.189Z" style="fill-rule:nonzero;"/>
                    </g>
                </g>
                <g transform="matrix(1,0,0,1,-283.465,-143.732)">
                    <circle cx="639.795" cy="261.843" r="2" style="fill:rgb(235,235,235);fill-opacity:0;stroke:black;stroke-width:4.17px;"/>
                </g>
                <g transform="matrix(1,0,0,1,-238.22,-143.732)">
                    <circle cx="639.795" cy="261.843" r="2" style="fill:rgb(235,235,235);fill-opacity:0;stroke:black;stroke-width:4.17px;"/>
                </g>
                <g transform="matrix(1,0,0,1,-332.709,-143.732)">
                    <circle cx="639.795" cy="261.843" r="2" style="fill:rgb(235,235,235);fill-opacity:0;stroke:black;stroke-width:4.17px;"/>
                </g>
            </g>
            <g id="Header-section" serif:id="Header section">
                <g id="Character-byte" serif:id="Character byte">
                    <g transform="matrix(1,0,0,1,-282.137,-157.162)">
                        <g transform="matrix(33.3333,0,0,33.3333,773.698,425.254)">
                            <path d="M0.178,-0.552C0.173,-0.655 0.22,-0.672 0.258,-0.683C0.264,-0.689 0.264,-0.701 0.258,-0.707C0.168,-0.707 0.102,-0.667 0.106,-0.554L0.112,-0.37C0.112,-0.32 0.088,-0.266 0.014,-0.259C0.005,-0.25 0.006,-0.243 0.014,-0.235C0.088,-0.226 0.114,-0.182 0.112,-0.121L0.106,0.049C0.101,0.179 0.157,0.212 0.258,0.212C0.264,0.206 0.264,0.194 0.258,0.188C0.214,0.188 0.174,0.138 0.178,0.054L0.186,-0.095C0.19,-0.177 0.149,-0.217 0.081,-0.245L0.081,-0.249C0.148,-0.268 0.19,-0.297 0.186,-0.386L0.178,-0.552Z" style="fill-rule:nonzero;"/>
                        </g>
                    </g>
                    <g transform="matrix(1,0,0,1,236.22,141.732)">
                        <rect x="236.22" y="94.488" width="47.244" height="47.244" style="fill:rgb(235,235,235);fill-opacity:0;stroke:black;stroke-width:4.17px;"/>
                    </g>
                </g>
                <g id="Character-byte1" serif:id="Character byte" transform="matrix(1,0,0,1,47.2441,-5.68434e-14)">
                    <g transform="matrix(1,0,0,1,-282.137,-155.178)">
                        <g transform="matrix(33.3333,0,0,33.3333,773.698,425.254)">
                            <path d="M0.089,-0.426L0.116,-0.43C0.116,-0.43 0.149,-0.595 0.149,-0.611C0.149,-0.627 0.14,-0.644 0.114,-0.644C0.084,-0.644 0.063,-0.616 0.063,-0.594C0.063,-0.585 0.089,-0.426 0.089,-0.426ZM0.215,-0.427L0.242,-0.431C0.242,-0.431 0.275,-0.596 0.275,-0.612C0.275,-0.628 0.266,-0.645 0.24,-0.645C0.21,-0.645 0.189,-0.617 0.189,-0.595C0.189,-0.586 0.215,-0.427 0.215,-0.427Z" style="fill-rule:nonzero;"/>
                        </g>
                    </g>
                    <g transform="matrix(1,0,0,1,236.22,141.732)">
                        <rect x="236.22" y="94.488" width="47.244" height="47.244" style="fill:rgb(235,235,235);fill-opacity:0;stroke:black;stroke-width:4.17px;"/>
                    </g>
                </g>
                <g id="Character-byte2" serif:id="Character byte" transform="matrix(1,0,0,1,377.953,-5.68434e-14)">
                    <g id="_-" serif:id="}" transform="matrix(1,0,0,1,-282.233,-157.195)">
                        <g transform="matrix(33.3333,0,0,33.3333,773.698,425.254)">
                            <path d="M0.095,0.058C0.1,0.161 0.053,0.178 0.015,0.189C0.009,0.195 0.009,0.207 0.015,0.213C0.105,0.213 0.171,0.173 0.167,0.06L0.161,-0.124C0.161,-0.174 0.185,-0.228 0.259,-0.235C0.268,-0.244 0.267,-0.251 0.259,-0.259C0.186,-0.268 0.159,-0.312 0.161,-0.373L0.167,-0.543C0.172,-0.673 0.116,-0.706 0.015,-0.706C0.009,-0.7 0.009,-0.688 0.015,-0.682C0.059,-0.682 0.1,-0.632 0.095,-0.548L0.087,-0.399C0.083,-0.317 0.124,-0.277 0.192,-0.249L0.192,-0.245C0.125,-0.226 0.083,-0.197 0.087,-0.108L0.095,0.058Z" style="fill-rule:nonzero;"/>
                        </g>
                    </g>
                    <g transform="matrix(1,0,0,1,236.22,141.732)">
                        <rect x="236.22" y="94.488" width="47.244" height="47.244" style="fill:rgb(235,235,235);fill-opacity:0;stroke:black;stroke-width:4.17px;"/>
                    </g>
                </g>
                <g id="Character-byte3" serif:id="Character byte" transform="matrix(1,0,0,1,141.732,-5.68434e-14)">
                    <g transform="matrix(1,0,0,1,-282.137,-155.178)">
                        <g transform="matrix(33.3333,0,0,33.3333,773.698,425.254)">
                            <path d="M0.089,-0.426L0.116,-0.43C0.116,-0.43 0.149,-0.595 0.149,-0.611C0.149,-0.627 0.14,-0.644 0.114,-0.644C0.084,-0.644 0.063,-0.616 0.063,-0.594C0.063,-0.585 0.089,-0.426 0.089,-0.426ZM0.215,-0.427L0.242,-0.431C0.242,-0.431 0.275,-0.596 0.275,-0.612C0.275,-0.628 0.266,-0.645 0.24,-0.645C0.21,-0.645 0.189,-0.617 0.189,-0.595C0.189,-0.586 0.215,-0.427 0.215,-0.427Z" style="fill-rule:nonzero;"/>
                        </g>
                    </g>
                    <g transform="matrix(1,0,0,1,236.22,141.732)">
                        <rect x="236.22" y="94.488" width="47.244" height="47.244" style="fill:rgb(235,235,235);fill-opacity:0;stroke:black;stroke-width:4.17px;"/>
                    </g>
                </g>
                <g id="Character-byte4" serif:id="Character byte" transform="matrix(1,0,0,1,188.976,-5.68434e-14)">
                    <g transform="matrix(1,0,0,1,-282.137,-158.795)">
                        <g transform="matrix(33.3333,0,0,33.3333,773.698,425.254)">
                            <path d="M0.061,-0.36C0.061,-0.328 0.086,-0.303 0.117,-0.303C0.148,-0.303 0.173,-0.328 0.173,-0.36C0.173,-0.391 0.148,-0.416 0.117,-0.416C0.086,-0.416 0.061,-0.391 0.061,-0.36ZM0.061,-0.062C0.061,-0.03 0.086,-0.005 0.117,-0.005C0.148,-0.005 0.173,-0.03 0.173,-0.062C0.173,-0.093 0.148,-0.118 0.117,-0.118C0.086,-0.118 0.061,-0.093 0.061,-0.062Z" style="fill-rule:nonzero;"/>
                        </g>
                    </g>
                    <g transform="matrix(1,0,0,1,236.22,141.732)">
                        <rect x="236.22" y="94.488" width="47.244" height="47.244" style="fill:rgb(235,235,235);fill-opacity:0;stroke:black;stroke-width:4.17px;"/>
                    </g>
                </g>
                <g id="Character-byte5" serif:id="Character byte" transform="matrix(1,0,0,1,94.4882,-5.68434e-14)">
                    <g transform="matrix(1,0,0,1,-285.218,-158.262)">
                        <g transform="matrix(33.3333,0,0,33.3333,773.698,425.254)">
                            <path d="M0.185,-0.207L0.028,0.003C0.038,0.001 0.054,-0 0.064,-0C0.074,-0 0.098,0.001 0.108,0.003C0.146,-0.054 0.176,-0.109 0.216,-0.165C0.256,-0.109 0.286,-0.054 0.322,0.003C0.337,0.001 0.357,-0 0.373,-0C0.388,-0 0.415,0.001 0.43,0.003C0.37,-0.075 0.321,-0.152 0.267,-0.23L0.431,-0.432C0.418,-0.43 0.396,-0.429 0.386,-0.429C0.375,-0.429 0.36,-0.43 0.349,-0.432C0.311,-0.376 0.279,-0.323 0.237,-0.269C0.197,-0.323 0.17,-0.376 0.136,-0.432C0.119,-0.43 0.099,-0.429 0.082,-0.429C0.066,-0.429 0.04,-0.43 0.024,-0.432L0.185,-0.207Z" style="fill-rule:nonzero;"/>
                        </g>
                    </g>
                    <g transform="matrix(1,0,0,1,236.22,141.732)">
                        <rect x="236.22" y="94.488" width="47.244" height="47.244" style="fill:rgb(235,235,235);fill-opacity:0;stroke:black;stroke-width:4.17px;"/>
                    </g>
                </g>
                <g transform="matrix(1,0,0,1,137.732,-2)">
                    <circle cx="639.795" cy="261.843" r="2" style="fill:rgb(235,235,235);fill-opacity:0;stroke:black;stroke-width:4.17px;"/>
                </g>
                <g transform="matrix(1,0,0,1,184.976,-2)">
                    <circle cx="639.795" cy="261.843" r="2" style="fill:rgb(235,235,235);fill-opacity:0;stroke:black;stroke-width:4.17px;"/>
                </g>
                <g transform="matrix(1,0,0,1,90.4882,-2)">
                    <circle cx="639.795" cy="261.843" r="2" style="fill:rgb(235,235,235);fill-opacity:0;stroke:black;stroke-width:4.17px;"/>
                </g>
            </g>
            <g id="Brace" transform="matrix(-1.125,-6.19109e-17,1.51709e-16,1.07702,1429.13,-1259.36)">
                <path d="M472.441,1370.08C472.86,1355.41 476.576,1344.84 519.685,1346.46C519.685,1346.46 613.862,1347.29 637.795,1346.46C661.876,1345.61 661.417,1322.84 661.417,1322.84" style="fill:none;stroke:black;stroke-width:3.78px;"/>
                <g transform="matrix(-1,0,0,1,1322.83,0)">
                    <path d="M472.441,1370.08C472.86,1355.41 476.576,1344.84 519.685,1346.46C519.685,1346.46 613.862,1347.29 637.795,1346.46C661.876,1345.61 661.417,1322.84 661.417,1322.84" style="fill:none;stroke:black;stroke-width:3.78px;"/>
                </g>
            </g>
            <g transform="matrix(1,0,0,1,829.756,-142.795)">
                <g transform="matrix(37.5,0,0,37.5,233.806,287.081)">
                    <path d="M0.095,-0.429C0.075,-0.429 0.053,-0.429 0.041,-0.431C0.034,-0.415 0.029,-0.405 0.019,-0.39L0.024,-0.383C0.041,-0.384 0.072,-0.385 0.095,-0.385L0.095,-0.248C0.095,-0.188 0.092,-0.116 0.092,-0.086C0.092,-0.021 0.134,0.01 0.18,0.01C0.222,0.01 0.254,-0 0.296,-0.027L0.284,-0.052C0.253,-0.041 0.23,-0.04 0.205,-0.044C0.181,-0.048 0.172,-0.072 0.172,-0.126C0.172,-0.156 0.175,-0.199 0.175,-0.259L0.175,-0.385L0.213,-0.385C0.237,-0.385 0.272,-0.384 0.285,-0.383C0.288,-0.399 0.291,-0.409 0.297,-0.424L0.292,-0.431C0.274,-0.43 0.245,-0.429 0.222,-0.429L0.175,-0.429C0.175,-0.504 0.176,-0.517 0.18,-0.575C0.18,-0.582 0.177,-0.585 0.171,-0.585C0.146,-0.575 0.134,-0.565 0.101,-0.56L0.099,-0.557C0.097,-0.522 0.095,-0.487 0.095,-0.429Z" style="fill-rule:nonzero;"/>
                </g>
                <g transform="matrix(37.5,0,0,37.5,246.556,287.081)">
                    <path d="M0.392,-0.104C0.357,-0.066 0.31,-0.049 0.255,-0.049C0.221,-0.049 0.174,-0.062 0.146,-0.106C0.128,-0.134 0.122,-0.175 0.122,-0.233L0.394,-0.233C0.405,-0.233 0.412,-0.239 0.412,-0.25C0.412,-0.334 0.371,-0.439 0.239,-0.439C0.136,-0.439 0.034,-0.356 0.034,-0.209C0.034,-0.152 0.046,-0.096 0.079,-0.056C0.113,-0.015 0.171,0.01 0.238,0.01C0.31,0.01 0.374,-0.027 0.412,-0.079L0.392,-0.104ZM0.125,-0.273C0.142,-0.377 0.208,-0.399 0.239,-0.399C0.279,-0.399 0.323,-0.362 0.323,-0.287C0.323,-0.278 0.319,-0.273 0.309,-0.273L0.125,-0.273Z" style="fill-rule:nonzero;"/>
                </g>
                <g transform="matrix(37.5,0,0,37.5,263.543,287.081)">
                    <path d="M0.46,-0.18C0.46,-0.212 0.462,-0.249 0.462,-0.281C0.462,-0.385 0.428,-0.439 0.338,-0.439C0.3,-0.439 0.229,-0.424 0.165,-0.349L0.163,-0.352L0.163,-0.425C0.163,-0.433 0.162,-0.435 0.157,-0.435C0.135,-0.431 0.099,-0.43 0.076,-0.432L0.074,-0.429C0.081,-0.386 0.083,-0.31 0.083,-0.235L0.083,-0.18C0.083,-0.105 0.082,-0.054 0.074,-0L0.076,0.003C0.088,0.001 0.111,-0 0.123,-0C0.135,-0 0.158,0.001 0.17,0.003L0.172,-0C0.164,-0.057 0.163,-0.104 0.163,-0.18L0.163,-0.297C0.214,-0.357 0.272,-0.379 0.308,-0.379C0.359,-0.379 0.38,-0.359 0.38,-0.278L0.38,-0.18C0.38,-0.105 0.378,-0.054 0.371,-0L0.373,0.003C0.385,0.001 0.408,-0 0.42,-0C0.432,-0 0.455,0.001 0.467,0.003L0.469,-0C0.461,-0.057 0.46,-0.104 0.46,-0.18Z" style="fill-rule:nonzero;"/>
                </g>
                <g transform="matrix(37.5,0,0,37.5,283.756,287.081)">
                    <path d="M0.05,-0.101L0.033,-0.017C0.09,0.003 0.146,0.01 0.184,0.01C0.322,0.01 0.354,-0.072 0.354,-0.127C0.354,-0.209 0.289,-0.241 0.218,-0.258C0.18,-0.267 0.125,-0.286 0.125,-0.336C0.125,-0.377 0.158,-0.399 0.201,-0.399C0.253,-0.399 0.285,-0.358 0.308,-0.331L0.322,-0.332L0.342,-0.406L0.34,-0.409C0.311,-0.424 0.256,-0.439 0.205,-0.439C0.131,-0.439 0.054,-0.4 0.054,-0.317C0.054,-0.237 0.114,-0.211 0.174,-0.194C0.232,-0.178 0.275,-0.162 0.275,-0.113C0.275,-0.06 0.236,-0.03 0.183,-0.03C0.135,-0.03 0.093,-0.063 0.065,-0.102L0.05,-0.101Z" style="fill-rule:nonzero;"/>
                </g>
                <g transform="matrix(37.5,0,0,37.5,298.606,287.081)">
                    <path d="M0.038,-0.205C0.038,-0.085 0.117,0.01 0.25,0.01C0.382,0.01 0.462,-0.083 0.462,-0.214C0.462,-0.35 0.389,-0.439 0.254,-0.439C0.123,-0.439 0.038,-0.347 0.038,-0.205ZM0.247,-0.399C0.353,-0.399 0.374,-0.317 0.374,-0.196C0.374,-0.101 0.326,-0.03 0.259,-0.03C0.153,-0.03 0.126,-0.145 0.126,-0.222C0.126,-0.309 0.153,-0.399 0.247,-0.399Z" style="fill-rule:nonzero;"/>
                </g>
                <g transform="matrix(37.5,0,0,37.5,317.356,287.081)">
                    <path d="M0.167,-0.334L0.167,-0.425C0.167,-0.433 0.166,-0.435 0.161,-0.435C0.139,-0.431 0.103,-0.43 0.08,-0.432L0.078,-0.429C0.085,-0.386 0.087,-0.31 0.087,-0.235L0.087,-0.18C0.087,-0.105 0.086,-0.054 0.078,-0L0.08,0.003C0.092,0.001 0.115,-0 0.127,-0C0.139,-0 0.162,0.001 0.174,0.003L0.176,-0C0.169,-0.057 0.167,-0.104 0.167,-0.18L0.167,-0.232C0.167,-0.274 0.18,-0.298 0.201,-0.331C0.216,-0.353 0.238,-0.366 0.257,-0.366C0.277,-0.366 0.296,-0.364 0.309,-0.352L0.317,-0.354L0.337,-0.428L0.333,-0.432C0.316,-0.437 0.315,-0.439 0.297,-0.439C0.243,-0.439 0.214,-0.408 0.17,-0.332L0.167,-0.334Z" style="fill-rule:nonzero;"/>
                </g>
                <g transform="matrix(37.5,0,0,37.5,340.043,287.081)">
                    <path d="M0.162,-0.5C0.162,-0.574 0.163,-0.627 0.168,-0.688C0.168,-0.695 0.165,-0.698 0.159,-0.698C0.134,-0.688 0.113,-0.681 0.072,-0.678L0.07,-0.675C0.078,-0.632 0.082,-0.558 0.082,-0.482L0.082,-0.073C0.082,-0.034 0.081,-0.02 0.077,0.002C0.083,0.008 0.095,0.01 0.105,0.01C0.116,-0.002 0.128,-0.019 0.138,-0.039C0.167,-0.014 0.213,0.01 0.256,0.01C0.358,0.01 0.471,-0.062 0.471,-0.232C0.471,-0.354 0.384,-0.439 0.287,-0.439C0.239,-0.439 0.196,-0.426 0.162,-0.389L0.162,-0.5ZM0.162,-0.081L0.162,-0.34C0.201,-0.38 0.226,-0.399 0.267,-0.399C0.328,-0.399 0.382,-0.349 0.382,-0.224C0.382,-0.1 0.345,-0.03 0.25,-0.03C0.219,-0.03 0.182,-0.056 0.162,-0.081Z" style="fill-rule:nonzero;"/>
                </g>
                <g transform="matrix(37.5,0,0,37.5,358.943,287.081)">
                    <path d="M0.028,-0.432C0.068,-0.343 0.187,-0.085 0.222,0.01C0.19,0.085 0.149,0.162 0.104,0.237C0.114,0.234 0.129,0.232 0.139,0.232C0.149,0.232 0.178,0.234 0.188,0.237C0.226,0.112 0.445,-0.365 0.478,-0.432C0.468,-0.429 0.445,-0.429 0.435,-0.429C0.425,-0.429 0.406,-0.429 0.396,-0.432C0.36,-0.319 0.313,-0.191 0.265,-0.088L0.263,-0.088C0.214,-0.207 0.166,-0.318 0.129,-0.432C0.116,-0.429 0.094,-0.429 0.08,-0.429C0.067,-0.429 0.042,-0.429 0.028,-0.432Z" style="fill-rule:nonzero;"/>
                </g>
                <g transform="matrix(37.5,0,0,37.5,377.918,287.081)">
                    <path d="M0.095,-0.429C0.075,-0.429 0.053,-0.429 0.041,-0.431C0.034,-0.415 0.029,-0.405 0.019,-0.39L0.024,-0.383C0.041,-0.384 0.072,-0.385 0.095,-0.385L0.095,-0.248C0.095,-0.188 0.092,-0.116 0.092,-0.086C0.092,-0.021 0.134,0.01 0.18,0.01C0.222,0.01 0.254,-0 0.296,-0.027L0.284,-0.052C0.253,-0.041 0.23,-0.04 0.205,-0.044C0.181,-0.048 0.172,-0.072 0.172,-0.126C0.172,-0.156 0.175,-0.199 0.175,-0.259L0.175,-0.385L0.213,-0.385C0.237,-0.385 0.272,-0.384 0.285,-0.383C0.288,-0.399 0.291,-0.409 0.297,-0.424L0.292,-0.431C0.274,-0.43 0.245,-0.429 0.222,-0.429L0.175,-0.429C0.175,-0.504 0.176,-0.517 0.18,-0.575C0.18,-0.582 0.177,-0.585 0.171,-0.585C0.146,-0.575 0.134,-0.565 0.101,-0.56L0.099,-0.557C0.097,-0.522 0.095,-0.487 0.095,-0.429Z" style="fill-rule:nonzero;"/>
                </g>
                <g transform="matrix(37.5,0,0,37.5,390.668,287.081)">
                    <path d="M0.392,-0.104C0.357,-0.066 0.31,-0.049 0.255,-0.049C0.221,-0.049 0.174,-0.062 0.146,-0.106C0.128,-0.134 0.122,-0.175 0.122,-0.233L0.394,-0.233C0.405,-0.233 0.412,-0.239 0.412,-0.25C0.412,-0.334 0.371,-0.439 0.239,-0.439C0.136,-0.439 0.034,-0.356 0.034,-0.209C0.034,-0.152 0.046,-0.096 0.079,-0.056C0.113,-0.015 0.171,0.01 0.238,0.01C0.31,0.01 0.374,-0.027 0.412,-0.079L0.392,-0.104ZM0.125,-0.273C0.142,-0.377 0.208,-0.399 0.239,-0.399C0.279,-0.399 0.323,-0.362 0.323,-0.287C0.323,-0.278 0.319,-0.273 0.309,-0.273L0.125,-0.273Z" style="fill-rule:nonzero;"/>
                </g>
                <g transform="matrix(37.5,0,0,37.5,407.656,287.081)">
                    <path d="M0.05,-0.101L0.033,-0.017C0.09,0.003 0.146,0.01 0.184,0.01C0.322,0.01 0.354,-0.072 0.354,-0.127C0.354,-0.209 0.289,-0.241 0.218,-0.258C0.18,-0.267 0.125,-0.286 0.125,-0.336C0.125,-0.377 0.158,-0.399 0.201,-0.399C0.253,-0.399 0.285,-0.358 0.308,-0.331L0.322,-0.332L0.342,-0.406L0.34,-0.409C0.311,-0.424 0.256,-0.439 0.205,-0.439C0.131,-0.439 0.054,-0.4 0.054,-0.317C0.054,-0.237 0.114,-0.211 0.174,-0.194C0.232,-0.178 0.275,-0.162 0.275,-0.113C0.275,-0.06 0.236,-0.03 0.183,-0.03C0.135,-0.03 0.093,-0.063 0.065,-0.102L0.05,-0.101Z" style="fill-rule:nonzero;"/>
                </g>
            </g>
            <g id="Brace1" serif:id="Brace" transform="matrix(-1.375,-6.19109e-17,1.85422e-16,1.07702,2066.93,-1259.36)">
                <path d="M472.441,1370.08C472.86,1355.41 476.576,1344.84 519.685,1346.46C519.685,1346.46 613.862,1347.29 637.795,1346.46C661.876,1345.61 661.417,1322.84 661.417,1322.84" style="fill:none;stroke:black;stroke-width:3.37px;"/>
                <g transform="matrix(-1,0,0,1,1322.83,0)">
                    <path d="M472.441,1370.08C472.86,1355.41 476.576,1344.84 519.685,1346.46C519.685,1346.46 613.862,1347.29 637.795,1346.46C661.876,1345.61 661.417,1322.84 661.417,1322.84" style="fill:none;stroke:black;stroke-width:3.37px;"/>
                </g>
            </g>
            <g transform="matrix(1,0,0,1,322.328,-142.42)">
                <g transform="matrix(37.5,0,0,37.5,233.806,287.081)">
                    <path d="M0.17,-0.352L0.17,-0.501C0.17,-0.575 0.174,-0.627 0.179,-0.688C0.179,-0.695 0.176,-0.698 0.17,-0.698C0.145,-0.688 0.124,-0.681 0.083,-0.678L0.081,-0.675C0.089,-0.632 0.09,-0.557 0.09,-0.481L0.09,-0.18C0.09,-0.106 0.089,-0.056 0.081,-0L0.083,0.003C0.095,0.001 0.118,-0 0.13,-0C0.142,-0 0.165,0.001 0.177,0.003L0.179,-0C0.172,-0.057 0.17,-0.104 0.17,-0.18L0.17,-0.297C0.221,-0.357 0.28,-0.379 0.315,-0.379C0.366,-0.379 0.387,-0.359 0.387,-0.278L0.387,-0.18C0.387,-0.105 0.386,-0.054 0.378,-0L0.38,0.003C0.392,0.001 0.415,-0 0.427,-0C0.439,-0 0.462,0.001 0.474,0.003L0.476,-0C0.468,-0.057 0.467,-0.104 0.467,-0.18C0.467,-0.212 0.469,-0.249 0.469,-0.281C0.469,-0.385 0.435,-0.439 0.345,-0.439C0.307,-0.439 0.236,-0.424 0.172,-0.349L0.17,-0.352Z" style="fill-rule:nonzero;"/>
                </g>
                <g transform="matrix(37.5,0,0,37.5,254.393,287.081)">
                    <path d="M0.392,-0.104C0.357,-0.066 0.31,-0.049 0.255,-0.049C0.221,-0.049 0.174,-0.062 0.146,-0.106C0.128,-0.134 0.122,-0.175 0.122,-0.233L0.394,-0.233C0.405,-0.233 0.412,-0.239 0.412,-0.25C0.412,-0.334 0.371,-0.439 0.239,-0.439C0.136,-0.439 0.034,-0.356 0.034,-0.209C0.034,-0.152 0.046,-0.096 0.079,-0.056C0.113,-0.015 0.171,0.01 0.238,0.01C0.31,0.01 0.374,-0.027 0.412,-0.079L0.392,-0.104ZM0.125,-0.273C0.142,-0.377 0.208,-0.399 0.239,-0.399C0.279,-0.399 0.323,-0.362 0.323,-0.287C0.323,-0.278 0.319,-0.273 0.309,-0.273L0.125,-0.273Z" style="fill-rule:nonzero;"/>
                </g>
                <g transform="matrix(37.5,0,0,37.5,271.381,287.081)">
                    <path d="M0.31,-0.048C0.322,-0.009 0.351,0.01 0.388,0.01C0.413,0.01 0.444,0.004 0.468,-0.021L0.46,-0.046C0.449,-0.042 0.441,-0.041 0.433,-0.041C0.423,-0.041 0.41,-0.042 0.404,-0.048C0.394,-0.057 0.387,-0.082 0.387,-0.126C0.387,-0.155 0.39,-0.266 0.39,-0.277C0.39,-0.412 0.301,-0.439 0.225,-0.439C0.149,-0.439 0.103,-0.402 0.078,-0.381L0.075,-0.377L0.092,-0.31L0.105,-0.309C0.133,-0.354 0.167,-0.394 0.215,-0.394C0.251,-0.394 0.311,-0.389 0.311,-0.276C0.311,-0.269 0.307,-0.265 0.304,-0.264L0.211,-0.243C0.109,-0.22 0.045,-0.166 0.045,-0.098C0.045,-0.024 0.096,0.01 0.17,0.01C0.225,0.01 0.253,-0.003 0.306,-0.048L0.31,-0.048ZM0.31,-0.225L0.306,-0.106C0.306,-0.093 0.3,-0.086 0.292,-0.08C0.264,-0.059 0.23,-0.041 0.2,-0.041C0.155,-0.041 0.126,-0.071 0.126,-0.102C0.126,-0.147 0.147,-0.181 0.225,-0.202L0.31,-0.225Z" style="fill-rule:nonzero;"/>
                </g>
                <g transform="matrix(37.5,0,0,37.5,289.418,287.081)">
                    <path d="M0.361,-0.058L0.363,-0.058L0.368,-0C0.368,0.002 0.371,0.003 0.377,0.003C0.39,0.001 0.397,-0 0.412,-0C0.424,-0 0.443,0.001 0.456,0.003L0.458,-0C0.45,-0.043 0.441,-0.117 0.441,-0.192L0.441,-0.5C0.441,-0.574 0.445,-0.626 0.45,-0.688C0.45,-0.695 0.447,-0.698 0.441,-0.698C0.416,-0.688 0.395,-0.681 0.354,-0.678L0.352,-0.675C0.36,-0.632 0.361,-0.558 0.361,-0.482L0.361,-0.417C0.338,-0.43 0.297,-0.439 0.277,-0.439C0.147,-0.439 0.051,-0.349 0.051,-0.213C0.051,-0.09 0.124,0.01 0.232,0.01C0.28,0.01 0.325,-0.012 0.361,-0.058ZM0.361,-0.113C0.325,-0.067 0.279,-0.042 0.238,-0.042C0.184,-0.042 0.138,-0.096 0.138,-0.221C0.138,-0.371 0.218,-0.399 0.266,-0.399C0.313,-0.399 0.337,-0.379 0.361,-0.341L0.361,-0.113Z" style="fill-rule:nonzero;"/>
                </g>
                <g transform="matrix(37.5,0,0,37.5,309.293,287.081)">
                    <path d="M0.392,-0.104C0.357,-0.066 0.31,-0.049 0.255,-0.049C0.221,-0.049 0.174,-0.062 0.146,-0.106C0.128,-0.134 0.122,-0.175 0.122,-0.233L0.394,-0.233C0.405,-0.233 0.412,-0.239 0.412,-0.25C0.412,-0.334 0.371,-0.439 0.239,-0.439C0.136,-0.439 0.034,-0.356 0.034,-0.209C0.034,-0.152 0.046,-0.096 0.079,-0.056C0.113,-0.015 0.171,0.01 0.238,0.01C0.31,0.01 0.374,-0.027 0.412,-0.079L0.392,-0.104ZM0.125,-0.273C0.142,-0.377 0.208,-0.399 0.239,-0.399C0.279,-0.399 0.323,-0.362 0.323,-0.287C0.323,-0.278 0.319,-0.273 0.309,-0.273L0.125,-0.273Z" style="fill-rule:nonzero;"/>
                </g>
                <g transform="matrix(37.5,0,0,37.5,326.281,287.081)">
                    <path d="M0.167,-0.334L0.167,-0.425C0.167,-0.433 0.166,-0.435 0.161,-0.435C0.139,-0.431 0.103,-0.43 0.08,-0.432L0.078,-0.429C0.085,-0.386 0.087,-0.31 0.087,-0.235L0.087,-0.18C0.087,-0.105 0.086,-0.054 0.078,-0L0.08,0.003C0.092,0.001 0.115,-0 0.127,-0C0.139,-0 0.162,0.001 0.174,0.003L0.176,-0C0.169,-0.057 0.167,-0.104 0.167,-0.18L0.167,-0.232C0.167,-0.274 0.18,-0.298 0.201,-0.331C0.216,-0.353 0.238,-0.366 0.257,-0.366C0.277,-0.366 0.296,-0.364 0.309,-0.352L0.317,-0.354L0.337,-0.428L0.333,-0.432C0.316,-0.437 0.315,-0.439 0.297,-0.439C0.243,-0.439 0.214,-0.408 0.17,-0.332L0.167,-0.334Z" style="fill-rule:nonzero;"/>
                </g>
                <g transform="matrix(37.5,0,0,37.5,348.968,287.081)">
                    <path d="M0.044,-0.252C0.044,-0.207 0.048,0.024 0.256,0.204L0.279,0.187C0.246,0.149 0.127,0.011 0.127,-0.252C0.127,-0.515 0.247,-0.653 0.279,-0.689L0.256,-0.707C0.137,-0.605 0.044,-0.438 0.044,-0.252Z" style="fill-rule:nonzero;"/>
                </g>
                <g transform="matrix(37.5,0,0,37.5,360.218,287.081)">
                    <path d="M0.108,-0.645C0.117,-0.455 0.114,-0.159 0.098,-0L0.1,0.003C0.112,0.001 0.123,-0 0.135,-0C0.147,-0 0.158,0.001 0.17,0.003L0.172,-0C0.164,-0.057 0.162,-0.125 0.162,-0.2L0.162,-0.439C0.162,-0.5 0.164,-0.503 0.201,-0.455L0.55,-0.014C0.561,0.001 0.577,0.01 0.593,0.01C0.607,0.01 0.611,-0.002 0.612,-0.021C0.617,-0.249 0.616,-0.423 0.632,-0.645L0.63,-0.648C0.618,-0.646 0.607,-0.645 0.595,-0.645C0.583,-0.645 0.572,-0.646 0.56,-0.648L0.558,-0.645C0.566,-0.588 0.568,-0.52 0.568,-0.445L0.568,-0.178C0.567,-0.128 0.554,-0.144 0.518,-0.191C0.515,-0.195 0.512,-0.199 0.509,-0.203L0.166,-0.647C0.166,-0.647 0.157,-0.645 0.152,-0.645C0.118,-0.645 0.11,-0.648 0.11,-0.648L0.108,-0.645Z" style="fill-rule:nonzero;"/>
                </g>
                <g transform="matrix(37.5,0,0,37.5,396.518,287.081)">
                    <path d="M0.162,-0.5C0.162,-0.574 0.163,-0.627 0.168,-0.688C0.168,-0.695 0.165,-0.698 0.159,-0.698C0.134,-0.688 0.113,-0.681 0.072,-0.678L0.07,-0.675C0.078,-0.632 0.082,-0.558 0.082,-0.482L0.082,-0.073C0.082,-0.034 0.081,-0.02 0.077,0.002C0.083,0.008 0.095,0.01 0.105,0.01C0.116,-0.002 0.128,-0.019 0.138,-0.039C0.167,-0.014 0.213,0.01 0.256,0.01C0.358,0.01 0.471,-0.062 0.471,-0.232C0.471,-0.354 0.384,-0.439 0.287,-0.439C0.239,-0.439 0.196,-0.426 0.162,-0.389L0.162,-0.5ZM0.162,-0.081L0.162,-0.34C0.201,-0.38 0.226,-0.399 0.267,-0.399C0.328,-0.399 0.382,-0.349 0.382,-0.224C0.382,-0.1 0.345,-0.03 0.25,-0.03C0.219,-0.03 0.182,-0.056 0.162,-0.081Z" style="fill-rule:nonzero;"/>
                </g>
                <g transform="matrix(37.5,0,0,37.5,415.418,287.081)">
                    <path d="M0.028,-0.432C0.068,-0.343 0.187,-0.085 0.222,0.01C0.19,0.085 0.149,0.162 0.104,0.237C0.114,0.234 0.129,0.232 0.139,0.232C0.149,0.232 0.178,0.234 0.188,0.237C0.226,0.112 0.445,-0.365 0.478,-0.432C0.468,-0.429 0.445,-0.429 0.435,-0.429C0.425,-0.429 0.406,-0.429 0.396,-0.432C0.36,-0.319 0.313,-0.191 0.265,-0.088L0.263,-0.088C0.214,-0.207 0.166,-0.318 0.129,-0.432C0.116,-0.429 0.094,-0.429 0.08,-0.429C0.067,-0.429 0.042,-0.429 0.028,-0.432Z" style="fill-rule:nonzero;"/>
                </g>
                <g transform="matrix(37.5,0,0,37.5,434.393,287.081)">
                    <path d="M0.095,-0.429C0.075,-0.429 0.053,-0.429 0.041,-0.431C0.034,-0.415 0.029,-0.405 0.019,-0.39L0.024,-0.383C0.041,-0.384 0.072,-0.385 0.095,-0.385L0.095,-0.248C0.095,-0.188 0.092,-0.116 0.092,-0.086C0.092,-0.021 0.134,0.01 0.18,0.01C0.222,0.01 0.254,-0 0.296,-0.027L0.284,-0.052C0.253,-0.041 0.23,-0.04 0.205,-0.044C0.181,-0.048 0.172,-0.072 0.172,-0.126C0.172,-0.156 0.175,-0.199 0.175,-0.259L0.175,-0.385L0.213,-0.385C0.237,-0.385 0.272,-0.384 0.285,-0.383C0.288,-0.399 0.291,-0.409 0.297,-0.424L0.292,-0.431C0.274,-0.43 0.245,-0.429 0.222,-0.429L0.175,-0.429C0.175,-0.504 0.176,-0.517 0.18,-0.575C0.18,-0.582 0.177,-0.585 0.171,-0.585C0.146,-0.575 0.134,-0.565 0.101,-0.56L0.099,-0.557C0.097,-0.522 0.095,-0.487 0.095,-0.429Z" style="fill-rule:nonzero;"/>
                </g>
                <g transform="matrix(37.5,0,0,37.5,447.143,287.081)">
                    <path d="M0.392,-0.104C0.357,-0.066 0.31,-0.049 0.255,-0.049C0.221,-0.049 0.174,-0.062 0.146,-0.106C0.128,-0.134 0.122,-0.175 0.122,-0.233L0.394,-0.233C0.405,-0.233 0.412,-0.239 0.412,-0.25C0.412,-0.334 0.371,-0.439 0.239,-0.439C0.136,-0.439 0.034,-0.356 0.034,-0.209C0.034,-0.152 0.046,-0.096 0.079,-0.056C0.113,-0.015 0.171,0.01 0.238,0.01C0.31,0.01 0.374,-0.027 0.412,-0.079L0.392,-0.104ZM0.125,-0.273C0.142,-0.377 0.208,-0.399 0.239,-0.399C0.279,-0.399 0.323,-0.362 0.323,-0.287C0.323,-0.278 0.319,-0.273 0.309,-0.273L0.125,-0.273Z" style="fill-rule:nonzero;"/>
                </g>
                <g transform="matrix(37.5,0,0,37.5,464.131,287.081)">
                    <path d="M0.05,-0.101L0.033,-0.017C0.09,0.003 0.146,0.01 0.184,0.01C0.322,0.01 0.354,-0.072 0.354,-0.127C0.354,-0.209 0.289,-0.241 0.218,-0.258C0.18,-0.267 0.125,-0.286 0.125,-0.336C0.125,-0.377 0.158,-0.399 0.201,-0.399C0.253,-0.399 0.285,-0.358 0.308,-0.331L0.322,-0.332L0.342,-0.406L0.34,-0.409C0.311,-0.424 0.256,-0.439 0.205,-0.439C0.131,-0.439 0.054,-0.4 0.054,-0.317C0.054,-0.237 0.114,-0.211 0.174,-0.194C0.232,-0.178 0.275,-0.162 0.275,-0.113C0.275,-0.06 0.236,-0.03 0.183,-0.03C0.135,-0.03 0.093,-0.063 0.065,-0.102L0.05,-0.101Z" style="fill-rule:nonzero;"/>
                </g>
                <g transform="matrix(37.5,0,0,37.5,478.981,287.081)">
                    <path d="M0.256,-0.252C0.256,-0.297 0.252,-0.528 0.044,-0.708L0.021,-0.691C0.054,-0.653 0.173,-0.515 0.173,-0.252C0.173,0.011 0.053,0.149 0.021,0.185L0.044,0.203C0.163,0.101 0.256,-0.066 0.256,-0.252Z" style="fill-rule:nonzero;"/>
                </g>
            </g>
            <g id="Brace2" serif:id="Brace" transform="matrix(-1,-6.19109e-17,1.34852e-16,1.07702,944.882,-1259.36)">
                <path d="M472.441,1370.08C472.86,1355.41 476.576,1344.84 519.685,1346.46C519.685,1346.46 613.862,1347.29 637.795,1346.46C661.876,1345.61 661.417,1322.84 661.417,1322.84" style="fill:none;stroke:black;stroke-width:4.01px;"/>
                <g transform="matrix(-1,0,0,1,1322.83,0)">
                    <path d="M472.441,1370.08C472.86,1355.41 476.576,1344.84 519.685,1346.46C519.685,1346.46 613.862,1347.29 637.795,1346.46C661.876,1345.61 661.417,1322.84 661.417,1322.84" style="fill:none;stroke:black;stroke-width:4.01px;"/>
                </g>
            </g>
            <g transform="matrix(1,0,0,1,-70.3035,-138.352)">
                <g transform="matrix(37.5,0,0,37.5,233.806,287.081)">
                    <path d="M0.108,-0.645C0.117,-0.455 0.114,-0.159 0.098,-0L0.1,0.003C0.112,0.001 0.123,-0 0.135,-0C0.147,-0 0.158,0.001 0.17,0.003L0.172,-0C0.164,-0.057 0.162,-0.125 0.162,-0.2L0.162,-0.439C0.162,-0.5 0.164,-0.503 0.201,-0.455L0.55,-0.014C0.561,0.001 0.577,0.01 0.593,0.01C0.607,0.01 0.611,-0.002 0.612,-0.021C0.617,-0.249 0.616,-0.423 0.632,-0.645L0.63,-0.648C0.618,-0.646 0.607,-0.645 0.595,-0.645C0.583,-0.645 0.572,-0.646 0.56,-0.648L0.558,-0.645C0.566,-0.588 0.568,-0.52 0.568,-0.445L0.568,-0.178C0.567,-0.128 0.554,-0.144 0.518,-0.191C0.515,-0.195 0.512,-0.199 0.509,-0.203L0.166,-0.647C0.166,-0.647 0.157,-0.645 0.152,-0.645C0.118,-0.645 0.11,-0.648 0.11,-0.648L0.108,-0.645Z" style="fill-rule:nonzero;"/>
                </g>
                <g transform="matrix(37.5,0,0,37.5,270.106,287.081)">
                    <path d="M0.461,-0.193L0.066,-0.193L0.066,-0.144L0.461,-0.144L0.461,-0.193ZM0.461,-0.318L0.066,-0.318L0.066,-0.269L0.461,-0.269L0.461,-0.318Z" style="fill-rule:nonzero;"/>
                </g>
                <g transform="matrix(37.5,0,0,37.5,299.243,287.081)">
                    <path d="M0.17,-0.352L0.17,-0.501C0.17,-0.575 0.174,-0.627 0.179,-0.688C0.179,-0.695 0.176,-0.698 0.17,-0.698C0.145,-0.688 0.124,-0.681 0.083,-0.678L0.081,-0.675C0.089,-0.632 0.09,-0.557 0.09,-0.481L0.09,-0.18C0.09,-0.106 0.089,-0.056 0.081,-0L0.083,0.003C0.095,0.001 0.118,-0 0.13,-0C0.142,-0 0.165,0.001 0.177,0.003L0.179,-0C0.172,-0.057 0.17,-0.104 0.17,-0.18L0.17,-0.297C0.221,-0.357 0.28,-0.379 0.315,-0.379C0.366,-0.379 0.387,-0.359 0.387,-0.278L0.387,-0.18C0.387,-0.105 0.386,-0.054 0.378,-0L0.38,0.003C0.392,0.001 0.415,-0 0.427,-0C0.439,-0 0.462,0.001 0.474,0.003L0.476,-0C0.468,-0.057 0.467,-0.104 0.467,-0.18C0.467,-0.212 0.469,-0.249 0.469,-0.281C0.469,-0.385 0.435,-0.439 0.345,-0.439C0.307,-0.439 0.236,-0.424 0.172,-0.349L0.17,-0.352Z" style="fill-rule:nonzero;"/>
                </g>
                <g transform="matrix(37.5,0,0,37.5,319.831,287.081)">
                    <path d="M0.392,-0.104C0.357,-0.066 0.31,-0.049 0.255,-0.049C0.221,-0.049 0.174,-0.062 0.146,-0.106C0.128,-0.134 0.122,-0.175 0.122,-0.233L0.394,-0.233C0.405,-0.233 0.412,-0.239 0.412,-0.25C0.412,-0.334 0.371,-0.439 0.239,-0.439C0.136,-0.439 0.034,-0.356 0.034,-0.209C0.034,-0.152 0.046,-0.096 0.079,-0.056C0.113,-0.015 0.171,0.01 0.238,0.01C0.31,0.01 0.374,-0.027 0.412,-0.079L0.392,-0.104ZM0.125,-0.273C0.142,-0.377 0.208,-0.399 0.239,-0.399C0.279,-0.399 0.323,-0.362 0.323,-0.287C0.323,-0.278 0.319,-0.273 0.309,-0.273L0.125,-0.273Z" style="fill-rule:nonzero;"/>
                </g>
                <g transform="matrix(37.5,0,0,37.5,336.818,287.081)">
                    <path d="M0.31,-0.048C0.322,-0.009 0.351,0.01 0.388,0.01C0.413,0.01 0.444,0.004 0.468,-0.021L0.46,-0.046C0.449,-0.042 0.441,-0.041 0.433,-0.041C0.423,-0.041 0.41,-0.042 0.404,-0.048C0.394,-0.057 0.387,-0.082 0.387,-0.126C0.387,-0.155 0.39,-0.266 0.39,-0.277C0.39,-0.412 0.301,-0.439 0.225,-0.439C0.149,-0.439 0.103,-0.402 0.078,-0.381L0.075,-0.377L0.092,-0.31L0.105,-0.309C0.133,-0.354 0.167,-0.394 0.215,-0.394C0.251,-0.394 0.311,-0.389 0.311,-0.276C0.311,-0.269 0.307,-0.265 0.304,-0.264L0.211,-0.243C0.109,-0.22 0.045,-0.166 0.045,-0.098C0.045,-0.024 0.096,0.01 0.17,0.01C0.225,0.01 0.253,-0.003 0.306,-0.048L0.31,-0.048ZM0.31,-0.225L0.306,-0.106C0.306,-0.093 0.3,-0.086 0.292,-0.08C0.264,-0.059 0.23,-0.041 0.2,-0.041C0.155,-0.041 0.126,-0.071 0.126,-0.102C0.126,-0.147 0.147,-0.181 0.225,-0.202L0.31,-0.225Z" style="fill-rule:nonzero;"/>
                </g>
                <g transform="matrix(37.5,0,0,37.5,354.856,287.081)">
                    <path d="M0.361,-0.058L0.363,-0.058L0.368,-0C0.368,0.002 0.371,0.003 0.377,0.003C0.39,0.001 0.397,-0 0.412,-0C0.424,-0 0.443,0.001 0.456,0.003L0.458,-0C0.45,-0.043 0.441,-0.117 0.441,-0.192L0.441,-0.5C0.441,-0.574 0.445,-0.626 0.45,-0.688C0.45,-0.695 0.447,-0.698 0.441,-0.698C0.416,-0.688 0.395,-0.681 0.354,-0.678L0.352,-0.675C0.36,-0.632 0.361,-0.558 0.361,-0.482L0.361,-0.417C0.338,-0.43 0.297,-0.439 0.277,-0.439C0.147,-0.439 0.051,-0.349 0.051,-0.213C0.051,-0.09 0.124,0.01 0.232,0.01C0.28,0.01 0.325,-0.012 0.361,-0.058ZM0.361,-0.113C0.325,-0.067 0.279,-0.042 0.238,-0.042C0.184,-0.042 0.138,-0.096 0.138,-0.221C0.138,-0.371 0.218,-0.399 0.266,-0.399C0.313,-0.399 0.337,-0.379 0.361,-0.341L0.361,-0.113Z" style="fill-rule:nonzero;"/>
                </g>
                <g transform="matrix(37.5,0,0,37.5,374.731,287.081)">
                    <path d="M0.392,-0.104C0.357,-0.066 0.31,-0.049 0.255,-0.049C0.221,-0.049 0.174,-0.062 0.146,-0.106C0.128,-0.134 0.122,-0.175 0.122,-0.233L0.394,-0.233C0.405,-0.233 0.412,-0.239 0.412,-0.25C0.412,-0.334 0.371,-0.439 0.239,-0.439C0.136,-0.439 0.034,-0.356 0.034,-0.209C0.034,-0.152 0.046,-0.096 0.079,-0.056C0.113,-0.015 0.171,0.01 0.238,0.01C0.31,0.01 0.374,-0.027 0.412,-0.079L0.392,-0.104ZM0.125,-0.273C0.142,-0.377 0.208,-0.399 0.239,-0.399C0.279,-0.399 0.323,-0.362 0.323,-0.287C0.323,-0.278 0.319,-0.273 0.309,-0.273L0.125,-0.273Z" style="fill-rule:nonzero;"/>
                </g>
                <g transform="matrix(37.5,0,0,37.5,391.718,287.081)">
                    <path d="M0.167,-0.334L0.167,-0.425C0.167,-0.433 0.166,-0.435 0.161,-0.435C0.139,-0.431 0.103,-0.43 0.08,-0.432L0.078,-0.429C0.085,-0.386 0.087,-0.31 0.087,-0.235L0.087,-0.18C0.087,-0.105 0.086,-0.054 0.078,-0L0.08,0.003C0.092,0.001 0.115,-0 0.127,-0C0.139,-0 0.162,0.001 0.174,0.003L0.176,-0C0.169,-0.057 0.167,-0.104 0.167,-0.18L0.167,-0.232C0.167,-0.274 0.18,-0.298 0.201,-0.331C0.216,-0.353 0.238,-0.366 0.257,-0.366C0.277,-0.366 0.296,-0.364 0.309,-0.352L0.317,-0.354L0.337,-0.428L0.333,-0.432C0.316,-0.437 0.315,-0.439 0.297,-0.439C0.243,-0.439 0.214,-0.408 0.17,-0.332L0.167,-0.334Z" style="fill-rule:nonzero;"/>
                </g>
                <g transform="matrix(37.5,0,0,37.5,414.406,287.081)">
                    <path d="M0.05,-0.101L0.033,-0.017C0.09,0.003 0.146,0.01 0.184,0.01C0.322,0.01 0.354,-0.072 0.354,-0.127C0.354,-0.209 0.289,-0.241 0.218,-0.258C0.18,-0.267 0.125,-0.286 0.125,-0.336C0.125,-0.377 0.158,-0.399 0.201,-0.399C0.253,-0.399 0.285,-0.358 0.308,-0.331L0.322,-0.332L0.342,-0.406L0.34,-0.409C0.311,-0.424 0.256,-0.439 0.205,-0.439C0.131,-0.439 0.054,-0.4 0.054,-0.317C0.054,-0.237 0.114,-0.211 0.174,-0.194C0.232,-0.178 0.275,-0.162 0.275,-0.113C0.275,-0.06 0.236,-0.03 0.183,-0.03C0.135,-0.03 0.093,-0.063 0.065,-0.102L0.05,-0.101Z" style="fill-rule:nonzero;"/>
                </g>
                <g transform="matrix(37.5,0,0,37.5,429.256,287.081)">
                    <path d="M0.09,-0.235L0.09,-0.18C0.09,-0.105 0.088,-0.054 0.081,-0L0.083,0.003C0.095,0.001 0.118,-0 0.13,-0C0.142,-0 0.165,0.001 0.177,0.003L0.179,-0C0.172,-0.057 0.17,-0.104 0.17,-0.18L0.17,-0.251C0.17,-0.326 0.173,-0.362 0.179,-0.423C0.179,-0.432 0.178,-0.433 0.17,-0.433C0.147,-0.431 0.104,-0.43 0.083,-0.432L0.081,-0.429C0.087,-0.386 0.09,-0.31 0.09,-0.235ZM0.08,-0.597C0.08,-0.57 0.104,-0.546 0.131,-0.546C0.158,-0.546 0.182,-0.57 0.182,-0.597C0.182,-0.624 0.158,-0.648 0.131,-0.648C0.104,-0.648 0.08,-0.624 0.08,-0.597Z" style="fill-rule:nonzero;"/>
                </g>
                <g transform="matrix(37.5,0,0,37.5,439.006,287.081)">
                    <path d="M0.136,-0.045L0.365,-0.387C0.382,-0.412 0.389,-0.422 0.395,-0.429C0.395,-0.433 0.394,-0.435 0.39,-0.435C0.385,-0.435 0.338,-0.429 0.309,-0.429L0.105,-0.429C0.085,-0.429 0.064,-0.43 0.049,-0.432L0.047,-0.429C0.048,-0.416 0.049,-0.411 0.049,-0.402C0.049,-0.393 0.048,-0.384 0.047,-0.376L0.049,-0.373C0.049,-0.373 0.162,-0.382 0.277,-0.384L0.042,-0.032C0.034,-0.02 0.028,-0.011 0.02,-0.002L0.023,0.003C0.023,0.003 0.076,-0 0.104,-0L0.33,-0C0.35,-0 0.371,0.001 0.386,0.003L0.388,-0C0.387,-0.013 0.386,-0.018 0.386,-0.027C0.386,-0.036 0.387,-0.045 0.388,-0.053L0.386,-0.056C0.386,-0.056 0.258,-0.046 0.136,-0.045Z" style="fill-rule:nonzero;"/>
                </g>
                <g transform="matrix(37.5,0,0,37.5,454.606,287.081)">
                    <path d="M0.392,-0.104C0.357,-0.066 0.31,-0.049 0.255,-0.049C0.221,-0.049 0.174,-0.062 0.146,-0.106C0.128,-0.134 0.122,-0.175 0.122,-0.233L0.394,-0.233C0.405,-0.233 0.412,-0.239 0.412,-0.25C0.412,-0.334 0.371,-0.439 0.239,-0.439C0.136,-0.439 0.034,-0.356 0.034,-0.209C0.034,-0.152 0.046,-0.096 0.079,-0.056C0.113,-0.015 0.171,0.01 0.238,0.01C0.31,0.01 0.374,-0.027 0.412,-0.079L0.392,-0.104ZM0.125,-0.273C0.142,-0.377 0.208,-0.399 0.239,-0.399C0.279,-0.399 0.323,-0.362 0.323,-0.287C0.323,-0.278 0.319,-0.273 0.309,-0.273L0.125,-0.273Z" style="fill-rule:nonzero;"/>
                </g>
            </g>
            <g transform="matrix(1,0,0,1,584.201,97.7342)">
                <g transform="matrix(37.5,0,0,37.5,233.806,287.081)">
                    <path d="M0.038,-0.205C0.038,-0.085 0.117,0.01 0.25,0.01C0.382,0.01 0.462,-0.083 0.462,-0.214C0.462,-0.35 0.389,-0.439 0.254,-0.439C0.123,-0.439 0.038,-0.347 0.038,-0.205ZM0.247,-0.399C0.353,-0.399 0.374,-0.317 0.374,-0.196C0.374,-0.101 0.326,-0.03 0.259,-0.03C0.153,-0.03 0.126,-0.145 0.126,-0.222C0.126,-0.309 0.153,-0.399 0.247,-0.399Z" style="fill-rule:nonzero;"/>
                </g>
                <g transform="matrix(37.5,0,0,37.5,252.556,287.081)">
                    <path d="M0.099,-0.385L0.099,-0.2C0.099,-0.126 0.098,-0.054 0.089,-0L0.09,0.003C0.09,0.003 0.104,-0 0.139,-0C0.173,-0 0.187,0.003 0.187,0.003L0.189,-0C0.181,-0.057 0.179,-0.125 0.179,-0.2L0.179,-0.385L0.377,-0.385L0.377,-0.2C0.377,-0.126 0.376,-0.054 0.367,-0L0.368,0.003C0.368,0.003 0.382,-0 0.417,-0C0.451,-0 0.465,0.003 0.465,0.003L0.467,-0C0.459,-0.057 0.457,-0.125 0.457,-0.2L0.457,-0.385L0.491,-0.385C0.515,-0.385 0.55,-0.384 0.563,-0.383C0.566,-0.399 0.569,-0.409 0.575,-0.424L0.57,-0.431C0.553,-0.43 0.523,-0.429 0.5,-0.429L0.457,-0.429L0.457,-0.439C0.457,-0.465 0.452,-0.527 0.452,-0.545C0.452,-0.6 0.478,-0.648 0.535,-0.648C0.564,-0.648 0.582,-0.633 0.593,-0.613L0.604,-0.614C0.611,-0.641 0.621,-0.677 0.632,-0.696L0.631,-0.699C0.623,-0.704 0.605,-0.708 0.586,-0.708C0.523,-0.708 0.468,-0.681 0.432,-0.632C0.396,-0.583 0.377,-0.557 0.377,-0.479L0.377,-0.429L0.179,-0.429L0.179,-0.439C0.179,-0.465 0.174,-0.507 0.174,-0.525C0.174,-0.58 0.2,-0.628 0.257,-0.628C0.286,-0.628 0.304,-0.613 0.315,-0.593L0.326,-0.594C0.333,-0.621 0.343,-0.657 0.354,-0.676L0.353,-0.679C0.345,-0.684 0.327,-0.688 0.308,-0.688C0.245,-0.688 0.19,-0.661 0.154,-0.612C0.118,-0.563 0.099,-0.537 0.099,-0.459L0.099,-0.429C0.077,-0.429 0.054,-0.429 0.041,-0.431C0.034,-0.415 0.029,-0.405 0.019,-0.39L0.024,-0.383C0.042,-0.384 0.075,-0.385 0.098,-0.385L0.099,-0.385Z" style="fill-rule:nonzero;"/>
                </g>
                <g transform="matrix(37.5,0,0,37.5,274.756,287.081)">
                    <path d="M0.05,-0.101L0.033,-0.017C0.09,0.003 0.146,0.01 0.184,0.01C0.322,0.01 0.354,-0.072 0.354,-0.127C0.354,-0.209 0.289,-0.241 0.218,-0.258C0.18,-0.267 0.125,-0.286 0.125,-0.336C0.125,-0.377 0.158,-0.399 0.201,-0.399C0.253,-0.399 0.285,-0.358 0.308,-0.331L0.322,-0.332L0.342,-0.406L0.34,-0.409C0.311,-0.424 0.256,-0.439 0.205,-0.439C0.131,-0.439 0.054,-0.4 0.054,-0.317C0.054,-0.237 0.114,-0.211 0.174,-0.194C0.232,-0.178 0.275,-0.162 0.275,-0.113C0.275,-0.06 0.236,-0.03 0.183,-0.03C0.135,-0.03 0.093,-0.063 0.065,-0.102L0.05,-0.101Z" style="fill-rule:nonzero;"/>
                </g>
                <g transform="matrix(37.5,0,0,37.5,289.606,287.081)">
                    <path d="M0.392,-0.104C0.357,-0.066 0.31,-0.049 0.255,-0.049C0.221,-0.049 0.174,-0.062 0.146,-0.106C0.128,-0.134 0.122,-0.175 0.122,-0.233L0.394,-0.233C0.405,-0.233 0.412,-0.239 0.412,-0.25C0.412,-0.334 0.371,-0.439 0.239,-0.439C0.136,-0.439 0.034,-0.356 0.034,-0.209C0.034,-0.152 0.046,-0.096 0.079,-0.056C0.113,-0.015 0.171,0.01 0.238,0.01C0.31,0.01 0.374,-0.027 0.412,-0.079L0.392,-0.104ZM0.125,-0.273C0.142,-0.377 0.208,-0.399 0.239,-0.399C0.279,-0.399 0.323,-0.362 0.323,-0.287C0.323,-0.278 0.319,-0.273 0.309,-0.273L0.125,-0.273Z" style="fill-rule:nonzero;"/>
                </g>
                <g transform="matrix(37.5,0,0,37.5,306.593,287.081)">
                    <path d="M0.095,-0.429C0.075,-0.429 0.053,-0.429 0.041,-0.431C0.034,-0.415 0.029,-0.405 0.019,-0.39L0.024,-0.383C0.041,-0.384 0.072,-0.385 0.095,-0.385L0.095,-0.248C0.095,-0.188 0.092,-0.116 0.092,-0.086C0.092,-0.021 0.134,0.01 0.18,0.01C0.222,0.01 0.254,-0 0.296,-0.027L0.284,-0.052C0.253,-0.041 0.23,-0.04 0.205,-0.044C0.181,-0.048 0.172,-0.072 0.172,-0.126C0.172,-0.156 0.175,-0.199 0.175,-0.259L0.175,-0.385L0.213,-0.385C0.237,-0.385 0.272,-0.384 0.285,-0.383C0.288,-0.399 0.291,-0.409 0.297,-0.424L0.292,-0.431C0.274,-0.43 0.245,-0.429 0.222,-0.429L0.175,-0.429C0.175,-0.504 0.176,-0.517 0.18,-0.575C0.18,-0.582 0.177,-0.585 0.171,-0.585C0.146,-0.575 0.134,-0.565 0.101,-0.56L0.099,-0.557C0.097,-0.522 0.095,-0.487 0.095,-0.429Z" style="fill-rule:nonzero;"/>
                </g>
                <g transform="matrix(37.5,0,0,37.5,328.718,287.081)">
                    <path d="M0.136,-0.045L0.365,-0.387C0.382,-0.412 0.389,-0.422 0.395,-0.429C0.395,-0.433 0.394,-0.435 0.39,-0.435C0.385,-0.435 0.338,-0.429 0.309,-0.429L0.105,-0.429C0.085,-0.429 0.064,-0.43 0.049,-0.432L0.047,-0.429C0.048,-0.416 0.049,-0.411 0.049,-0.402C0.049,-0.393 0.048,-0.384 0.047,-0.376L0.049,-0.373C0.049,-0.373 0.162,-0.382 0.277,-0.384L0.042,-0.032C0.034,-0.02 0.028,-0.011 0.02,-0.002L0.023,0.003C0.023,0.003 0.076,-0 0.104,-0L0.33,-0C0.35,-0 0.371,0.001 0.386,0.003L0.388,-0C0.387,-0.013 0.386,-0.018 0.386,-0.027C0.386,-0.036 0.387,-0.045 0.388,-0.053L0.386,-0.056C0.386,-0.056 0.258,-0.046 0.136,-0.045Z" style="fill-rule:nonzero;"/>
                </g>
                <g transform="matrix(37.5,0,0,37.5,344.318,287.081)">
                    <path d="M0.392,-0.104C0.357,-0.066 0.31,-0.049 0.255,-0.049C0.221,-0.049 0.174,-0.062 0.146,-0.106C0.128,-0.134 0.122,-0.175 0.122,-0.233L0.394,-0.233C0.405,-0.233 0.412,-0.239 0.412,-0.25C0.412,-0.334 0.371,-0.439 0.239,-0.439C0.136,-0.439 0.034,-0.356 0.034,-0.209C0.034,-0.152 0.046,-0.096 0.079,-0.056C0.113,-0.015 0.171,0.01 0.238,0.01C0.31,0.01 0.374,-0.027 0.412,-0.079L0.392,-0.104ZM0.125,-0.273C0.142,-0.377 0.208,-0.399 0.239,-0.399C0.279,-0.399 0.323,-0.362 0.323,-0.287C0.323,-0.278 0.319,-0.273 0.309,-0.273L0.125,-0.273Z" style="fill-rule:nonzero;"/>
                </g>
                <g transform="matrix(37.5,0,0,37.5,361.306,287.081)">
                    <path d="M0.167,-0.334L0.167,-0.425C0.167,-0.433 0.166,-0.435 0.161,-0.435C0.139,-0.431 0.103,-0.43 0.08,-0.432L0.078,-0.429C0.085,-0.386 0.087,-0.31 0.087,-0.235L0.087,-0.18C0.087,-0.105 0.086,-0.054 0.078,-0L0.08,0.003C0.092,0.001 0.115,-0 0.127,-0C0.139,-0 0.162,0.001 0.174,0.003L0.176,-0C0.169,-0.057 0.167,-0.104 0.167,-0.18L0.167,-0.232C0.167,-0.274 0.18,-0.298 0.201,-0.331C0.216,-0.353 0.238,-0.366 0.257,-0.366C0.277,-0.366 0.296,-0.364 0.309,-0.352L0.317,-0.354L0.337,-0.428L0.333,-0.432C0.316,-0.437 0.315,-0.439 0.297,-0.439C0.243,-0.439 0.214,-0.408 0.17,-0.332L0.167,-0.334Z" style="fill-rule:nonzero;"/>
                </g>
                <g transform="matrix(37.5,0,0,37.5,374.318,287.081)">
                    <path d="M0.038,-0.205C0.038,-0.085 0.117,0.01 0.25,0.01C0.382,0.01 0.462,-0.083 0.462,-0.214C0.462,-0.35 0.389,-0.439 0.254,-0.439C0.123,-0.439 0.038,-0.347 0.038,-0.205ZM0.247,-0.399C0.353,-0.399 0.374,-0.317 0.374,-0.196C0.374,-0.101 0.326,-0.03 0.259,-0.03C0.153,-0.03 0.126,-0.145 0.126,-0.222C0.126,-0.309 0.153,-0.399 0.247,-0.399Z" style="fill-rule:nonzero;"/>
                </g>
            </g>
            <g transform="matrix(1,0,0,0.179503,2.27374e-13,283.9)">
                <g transform="matrix(1,-0,-0,5.57095,92.4049,-923.608)">
                    <path d="M811.483,195.251L805.233,182.751L798.983,195.251L811.483,195.251Z"/>
                    <path d="M805.233,192.751L805.233,233.634" style="fill:none;stroke:black;stroke-width:4.17px;"/>
                </g>
            </g>
        </g>
    </g>
</svg>
