<?xml version="1.0" encoding="UTF-8" standalone="no"?>
<!DOCTYPE svg PUBLIC "-//W3C//DTD SVG 1.1//EN" "http://www.w3.org/Graphics/SVG/1.1/DTD/svg11.dtd">
<svg width="100%" height="100%" viewBox="0 0 350 397" version="1.1" xmlns="http://www.w3.org/2000/svg" xmlns:xlink="http://www.w3.org/1999/xlink" xml:space="preserve" xmlns:serif="http://www.serif.com/" style="fill-rule:evenodd;clip-rule:evenodd;stroke-linecap:round;stroke-linejoin:round;">
    <g transform="matrix(1,0,0,1,-353.92,-259.295)">
        <g transform="matrix(1,0,0,1,702,0)">
            <path d="M-327.085,589.449L-327.608,588.65L-330.136,582.293L-331.514,576.614L-333.888,573.115L-335.075,570.534L-338.852,556.545L-340.031,550.929L-344.32,536.43L-345.54,528.538L-345.685,523.614L-346.08,521.677L-345.527,482.004L-344.923,474.003L-342.585,459.586L-339.804,449.073L-336.457,438.62L-331.129,424.425L-325.961,413.199L-320.064,403.52L-317.418,398.483L-313.101,391.379L-300.984,373.103L-285.377,354.489L-272.214,341.115L-261.66,331.137L-258.579,328.661L-250.126,322.659L-239.38,316.365L-233.558,311.966L-226.41,307.859L-212.162,300.668L-206.272,297.188L-190.709,289.531L-176.356,284.813L-168.164,283.336L-152.062,280.945L-148.403,280.678L-134.977,280.711L-114.198,283.571L-98.541,288.722L-94.626,289.741L-92.347,290.526L-70.271,301.582L-59.562,309.544L-49.581,319.293L-48.072,322.091L-46.377,324.238L-42.417,333.266L-39.875,341.999L-38.369,345.956L-36.764,352.157L-34.406,358.336L-30.483,376.415L-30.026,379.776L-29.926,385.764L-29.099,397.32L-29.347,415.164L-31.029,424.909L-35.965,447.955L-37.64,451.912L-42.25,465.513L-51.275,484.387L-55.034,490.698L-59.002,494.221L-62.966,499.262L-70.585,513.003L-72.384,514.247L-75.051,514.882L-76.514,515.852L-86.567,527.675L-87.758,529.468L-92.911,534.65L-93.216,534.866L-94.278,534.528L-95.265,534.689L-98.179,536.42L-104.02,542.939L-109.568,548.174L-114.675,552.152L-118.954,554.268L-130.496,563.423L-137.658,568.065L-142.344,569.838L-147.059,572.164L-149.913,573.099L-153.825,573.616L-173.31,580.436L-179.746,582.223L-182.05,582.51L-193.455,585.225L-201.945,586.473L-217.209,586.479L-221.867,585.659L-227.845,584.211L-230.726,582.852L-239.799,580.15L-244.969,578.267L-246.597,577.199L-249.642,576.25L-252.415,574.836L-254.325,574.836L-256.543,573.56L-258.387,572.937L-264.035,569.157L-266.819,566.635L-272.501,559.738L-278.514,550.366L-281.08,544.573L-283.676,539.709L-284.31,537.562L-285.49,535.282L-289.255,522.676L-290.163,514.632L-291.092,512.325L-291.38,506.502L-291.336,494.627L-290.226,491.526L-289.996,488.077L-288.535,480.396L-285.687,469.792L-284.494,466.383L-278.995,455.562L-278.445,453.246L-276.842,450.519L-275.729,447.748L-272.162,441.634L-267.784,435.111L-266.97,432.904L-261.92,425.946L-257.499,420.907L-254.408,416.662L-252.267,414.664L-249.312,410.782L-244.791,405.793L-232.016,393.272L-231.168,392.065L-221.382,383.802L-214.071,378.628L-211.855,376.526L-205.405,372.603L-203.666,371.094L-196.858,367.481L-179.612,357.274L-172.372,353.868L-164.134,351.387L-162.575,350.521L-154.682,348.404L-144.551,346.285L-134.313,346.374L-129.561,347.191L-125.809,347.388L-115.072,349.842L-107.037,355.018L-100.191,361.183L-96.598,364.942L-94.331,368.35L-92.525,372.801L-89.982,377.266L-86.665,386.447L-85.492,393.816L-85.129,400.083L-85.146,413.481L-85.641,416.406L-89.282,429.68L-89.486,432.129L-93.102,446.487L-99.322,459.844L-100.016,460.718L-103.092,468.902L-106.309,474.122L-108.674,478.993L-114.169,487.107L-117.06,490.668L-120.712,494.064L-124.188,496.659L-130.567,503.266L-137.698,508.681L-147.689,517.487L-148,517.461L-147.706,517.483" style="fill:none;fill-rule:nonzero;stroke:black;stroke-width:4px;"/>
        </g>
        <g transform="matrix(1,0,0,1,702,0)">
            <path d="M-310.641,361.776L-310.946,361.74L-308.961,360.384L-303.305,357.967L-302.283,357.1L-296.065,354.41L-279.651,346.127L-277.522,345.443L-279.371,349.158L-280.418,352.623L-280.345,353.321L-281.466,356.021L-281.374,356.724L-285.608,365.62L-287.175,372.483L-287.435,379.84L-287.735,380.175L-287.754,381.778L-288.54,383.872L-288.146,382.931" style="fill:none;fill-rule:nonzero;stroke:black;stroke-width:4px;"/>
        </g>
        <g transform="matrix(1,0,0,1,702,0)">
            <path d="M-263.976,407.012L-263.187,405.724L-260.459,403.457L-249.605,398.498L-243.993,394.018L-240.335,392.407L-238.584,391.003L-234.67,388.861L-227.912,385.612L-225.984,384.01L-223.458,382.826L-222.357,382.625L-225.914,389.642L-228.388,397.645L-228.552,399.28L-229.967,401.575L-229.879,402.271L-231.12,405.762L-233.241,410.081L-233.331,412.339L-234.281,417.587L-235.738,423.253L-234.779,421.711" style="fill:none;fill-rule:nonzero;stroke:black;stroke-width:4px;"/>
        </g>
        <g transform="matrix(1,0,0,1,702,0)">
            <path d="M-127.853,481.274L-128.618,484.183L-129.614,486.247L-129.543,486.797L-139.549,506.719L-141.579,509.574L-143.193,513.171L-145.135,515.814L-146.434,516.512L-148.051,519.23L-137.278,513.943L-135.088,512.66L-134.426,511.624L-131.063,510.062L-127.692,509.357L-126.038,508.666L-125.256,508.774L-121.476,507.578L-119.836,506.742L-116.223,506.366L-115.529,505.962L-114.794,506.073L-110.303,504.433L-109.596,504.503" style="fill:none;fill-rule:nonzero;stroke:black;stroke-width:4px;"/>
        </g>
        <g transform="matrix(1,0,0,1,702,0)">
            <path d="M-158.458,603.686L-157.207,606.741L-155.433,616.288L-153.931,641.458L-153.211,649.92L-152.589,653.528" style="fill:none;fill-rule:nonzero;stroke:black;stroke-width:4px;"/>
        </g>
        <g transform="matrix(1,0,0,1,702,0)">
            <path d="M-149.187,605.108L-149.178,604.349L-148.927,605.211L-148.287,619.33L-148.374,644.702L-148.106,647.513L-147.727,649.842L-146.877,651.474L-145.295,652.99L-144.474,653.068L-143.954,652.79L-142.747,650.2L-141.214,642.45L-140.667,631.359L-141.081,626.529L-141.213,617.759L-140.847,613.918L-140.774,603.885L-140.604,604.695" style="fill:none;fill-rule:nonzero;stroke:black;stroke-width:4px;"/>
        </g>
        <g transform="matrix(1,0,0,1,702,0)">
            <path d="M-159.339,604.587L-159.267,607.952L-159.495,611.339L-159.793,611.955L-160.254,623.348L-161.728,636.248L-162.87,651.852L-163.096,652.946L-163.164,652.424" style="fill:none;fill-rule:nonzero;stroke:black;stroke-width:4px;"/>
        </g>
        <g transform="matrix(1,0,0,1,702,0)">
            <path d="M-160.65,631.788L-159.185,631.787L-158.202,632.285L-156.128,632.234" style="fill:none;fill-rule:nonzero;stroke:black;stroke-width:4px;"/>
        </g>
        <g transform="matrix(1,0,0,1,702,0)">
            <path d="M-224.478,521.767L-223.205,522.423L-218.649,527.417L-215.216,530.39" style="fill:none;fill-rule:nonzero;stroke:black;stroke-width:4px;"/>
        </g>
        <g transform="matrix(1,0,0,1,702,0)">
            <path d="M-204.939,539.159L-200.478,544.443L-196.163,547.755" style="fill:none;fill-rule:nonzero;stroke:black;stroke-width:4px;"/>
        </g>
        <g transform="matrix(1,0,0,1,702,0)">
            <path d="M-185.722,557.097L-182.377,561.593L-177.984,565.327" style="fill:none;fill-rule:nonzero;stroke:black;stroke-width:4px;"/>
        </g>
        <g transform="matrix(1,0,0,1,702,0)">
            <path d="M-168.576,573.905L-166.97,575.048L-163.065,579.885L-157.081,585.14" style="fill:none;fill-rule:nonzero;stroke:black;stroke-width:4px;"/>
        </g>
        <g transform="matrix(1,0,0,1,702,0)">
            <path d="M-290.906,607.225L-290.471,605.813L-290.553,603.874L-290.916,602.859L-291.44,602.207L-293.696,601.004L-295.221,601.116L-297.33,602.38L-299.373,605.564L-300.337,608.375L-300.307,609.556L-300.857,611.858L-300.646,619.939L-297.971,625.762L-295.935,627.181L-294.455,629.768L-293.89,631.511L-293.309,634.627L-293.098,640.252L-293.107,643.469L-293.756,647.202L-295.494,650.603L-298.578,652.153L-300.471,652.303L-301.935,651.204L-302.712,650.141L-303.427,648.642L-303.299,646.959" style="fill:none;fill-rule:nonzero;stroke:black;stroke-width:4px;"/>
        </g>
        <g transform="matrix(1,0,0,1,702,0)">
            <path d="M-281.668,602.434L-282.193,605.153L-282.177,619.629L-283.068,643.931L-283.055,650.808L-282.818,650.142" style="fill:none;fill-rule:nonzero;stroke:black;stroke-width:4px;"/>
        </g>
        <g transform="matrix(1,0,0,1,702,0)">
            <path d="M-286.246,601.478L-284.78,601.071L-279.922,600.699L-275.435,601.009" style="fill:none;fill-rule:nonzero;stroke:black;stroke-width:4px;"/>
        </g>
        <g transform="matrix(1,0,0,1,702,0)">
            <path d="M-268.883,600.879L-269.827,602.408L-270.167,603.995L-270.899,619.355L-273.524,637.752L-274.059,650.206" style="fill:none;fill-rule:nonzero;stroke:black;stroke-width:4px;"/>
        </g>
        <g transform="matrix(1,0,0,1,702,0)">
            <path d="M-268.794,600.635L-267.949,601.362L-266.717,604.077L-266.329,607.637L-265.686,634.054L-264.851,643.457L-263.821,649.655" style="fill:none;fill-rule:nonzero;stroke:black;stroke-width:4px;"/>
        </g>
        <g transform="matrix(1,0,0,1,702,0)">
            <path d="M-272.893,629.988L-267.285,630.409" style="fill:none;fill-rule:nonzero;stroke:black;stroke-width:4px;"/>
        </g>
        <g transform="matrix(1,0,0,1,702,0)">
            <path d="M-258.605,601.426L-258.036,602.804L-258.317,650.491" style="fill:none;fill-rule:nonzero;stroke:black;stroke-width:4px;"/>
        </g>
        <g transform="matrix(1,0,0,1,702,0)">
            <path d="M-258.229,600.424L-256.131,600.596L-253.595,602.526L-251.555,606.116L-250.546,610.426L-250.376,615.07L-251.061,621.113L-253.781,626.143L-255.426,627.79L-256.837,628.513L-257.003,629.287L-255.557,631.529L-253.697,636.184L-250.37,649.101L-249.852,650.837L-249.808,649.877" style="fill:none;fill-rule:nonzero;stroke:black;stroke-width:4px;"/>
        </g>
        <g transform="matrix(1,0,0,1,702,0)">
            <path d="M-240.314,601.995L-240.245,622.51L-240.719,627.097L-240.941,634.814L-241.043,651.13" style="fill:none;fill-rule:nonzero;stroke:black;stroke-width:4px;"/>
        </g>
        <g transform="matrix(1,0,0,1,702,0)">
            <path d="M-246.733,602.268L-242.151,601.729L-234.764,601.861L-233.393,601.635" style="fill:none;fill-rule:nonzero;stroke:black;stroke-width:4px;"/>
        </g>
        <g transform="matrix(1,0,0,1,702,0)">
            <path d="M-284.078,263.222L-284.398,264.223L-284.501,269.919L-284.775,270.484L-285.644,314.137" style="fill:none;fill-rule:nonzero;stroke:black;stroke-width:4px;"/>
        </g>
        <g transform="matrix(1,0,0,1,702,0)">
            <path d="M-276.54,263.533L-276.985,265.663L-276.643,270.849L-276.655,278.761L-277.738,295.121L-277.974,314.625" style="fill:none;fill-rule:nonzero;stroke:black;stroke-width:4px;"/>
        </g>
        <g transform="matrix(1,0,0,1,702,0)">
            <path d="M-276.466,262.42L-276.043,266.655L-273.847,273.015L-273.277,276.239L-273.226,279.09L-272.175,283.606L-271.313,289.465L-267.892,280.072L-265.158,271.218L-264.236,269.579L-263.206,265.613L-262.747,262.29L-263.2,266.299L-263.453,275.259L-262.887,290.611L-262.906,299.708L-263.259,305.294L-263.254,314.053L-263.053,313.386" style="fill:none;fill-rule:nonzero;stroke:black;stroke-width:4px;"/>
        </g>
        <g transform="matrix(1,0,0,1,702,0)">
            <path d="M-257.184,261.648L-256.666,264.779L-256.491,268.525L-256.622,302.781L-257.194,314.066" style="fill:none;fill-rule:nonzero;stroke:black;stroke-width:4px;"/>
        </g>
        <g transform="matrix(1,0,0,1,702,0)">
            <path d="M-257.041,261.295L-256.067,261.747L-252.111,261.905L-245.773,261.554" style="fill:none;fill-rule:nonzero;stroke:black;stroke-width:4px;"/>
        </g>
        <g transform="matrix(1,0,0,1,702,0)">
            <path d="M-255.851,285.5L-254.493,285.482L-252.879,284.826L-247.335,284.723" style="fill:none;fill-rule:nonzero;stroke:black;stroke-width:4px;"/>
        </g>
        <g transform="matrix(1,0,0,1,702,0)">
            <path d="M-255.917,313.626L-249.274,313.844" style="fill:none;fill-rule:nonzero;stroke:black;stroke-width:4px;"/>
        </g>
        <g transform="matrix(1,0,0,1,702,0)">
            <path d="M-298.923,266.298L-298.845,267.176L-299.052,315.326" style="fill:none;fill-rule:nonzero;stroke:black;stroke-width:4px;"/>
        </g>
        <g transform="matrix(1,0,0,1,702,0)">
            <path d="M-307.175,263.741L-302.038,263.306L-290.549,263.331" style="fill:none;fill-rule:nonzero;stroke:black;stroke-width:4px;"/>
        </g>
        <g transform="matrix(1,0,0,1,702,0)">
            <path d="M-104.997,603.441L-105.013,622.692L-105.457,626.971L-105.779,652.992L-100.68,652.709" style="fill:none;fill-rule:nonzero;stroke:black;stroke-width:4px;"/>
        </g>
        <g transform="matrix(1,0,0,1,702,0)">
            <path d="M-93.647,603.405L-93.55,618.505L-94.138,622.747L-94.664,639.925L-94.643,651.541" style="fill:none;fill-rule:nonzero;stroke:black;stroke-width:4px;"/>
        </g>
        <g transform="matrix(1,0,0,1,702,0)">
            <path d="M-93.84,603.772L-91.151,611.059L-90.156,614.926L-87.273,639.162L-85.9,649.185L-85.361,652.264L-85.335,650.849" style="fill:none;fill-rule:nonzero;stroke:black;stroke-width:4px;"/>
        </g>
        <g transform="matrix(1,0,0,1,702,0)">
            <path d="M-84.296,603.45L-84.917,623.459L-84.987,650.162" style="fill:none;fill-rule:nonzero;stroke:black;stroke-width:4px;"/>
        </g>
        <g transform="matrix(1,0,0,1,702,0)">
            <path d="M-74.423,603.241L-74.584,631.69L-75.162,641.408L-75.27,650.713L-75.655,651.377L-75.648,652.494" style="fill:none;fill-rule:nonzero;stroke:black;stroke-width:4px;"/>
        </g>
        <g transform="matrix(1,0,0,1,702,0)">
            <path d="M-64.011,603.371L-64.21,606.21L-63.843,620.472L-64.281,625.459L-64.262,635.529L-65.061,651.386" style="fill:none;fill-rule:nonzero;stroke:black;stroke-width:4px;"/>
        </g>
        <g transform="matrix(1,0,0,1,702,0)">
            <path d="M-50.847,605.55L-52.009,603.51L-53.295,602.901L-54.083,602.891L-55.333,603.778L-56.604,606.004L-56.817,607.106L-56.798,627.762L-57.545,638.824L-57.636,650.422L-57.133,651.932L-55.699,652.84L-54.362,652.925L-51.312,651.681L-50.451,649.929L-50.289,647.868" style="fill:none;fill-rule:nonzero;stroke:black;stroke-width:4px;"/>
        </g>
        <g transform="matrix(1,0,0,1,702,0)">
            <path d="M-34.628,604.169L-34.395,608.326L-33.47,611.923L-31.971,623.42L-30.04,628.982L-29.681,623.501L-28.758,616.692L-26.752,610.477L-26.093,609.36L-25.293,603.729" style="fill:none;fill-rule:nonzero;stroke:black;stroke-width:4px;"/>
        </g>
        <g transform="matrix(1,0,0,1,702,0)">
            <path d="M-29.921,629.35L-30.055,651.599" style="fill:none;fill-rule:nonzero;stroke:black;stroke-width:4px;"/>
        </g>
        <g transform="matrix(1,0,0,1,702,0)">
            <path d="M-12.061,604.707L-12.868,603.391L-13.592,602.853L-14.689,602.408L-15.987,602.481L-17.239,603.095L-18.476,605.392L-18.959,607.184L-19.17,618.504L-19.901,628.498L-20.009,635.436L-20.83,642.836L-21.073,651.876L-20.672,652.509L-19.462,653.131L-17.665,652.96L-16.044,652.069L-14.687,649.485L-13.928,640.23L-13.611,623.499L-12.528,611.343L-12.43,605.611" style="fill:none;fill-rule:nonzero;stroke:black;stroke-width:4px;"/>
        </g>
        <g transform="matrix(1,0,0,1,702,0)">
            <path d="M-6.861,603.833L-6.83,608.845L-7.217,609.511L-7.246,614.993L-7.993,623.909L-8.239,647.892L-7.043,651.592L-5.346,652.455L-3.975,652.021L-2.884,649.966L-1.949,644.586L-1.638,638.013L-1.726,622.826L-1.108,618.734L-0.426,609.103L-0.568,603.643L-0.269,604.3" style="fill:none;fill-rule:nonzero;stroke:black;stroke-width:4px;"/>
        </g>
        <g transform="matrix(1,0,0,1,702,0)">
            <path d="M-104.861,629.422L-100.867,629.361" style="fill:none;fill-rule:nonzero;stroke:black;stroke-width:4px;"/>
        </g>
        <g transform="matrix(1,0,0,1,702,0)">
            <path d="M-104.702,602.954L-101.037,603.037L-100.151,602.778L-98.472,602.839L-98.338,603.064" style="fill:none;fill-rule:nonzero;stroke:black;stroke-width:4px;"/>
        </g>
        <g transform="matrix(1,0,0,1,702,0)">
            <path d="M-80.208,603.253L-74.342,602.728L-69.311,602.858" style="fill:none;fill-rule:nonzero;stroke:black;stroke-width:4px;"/>
        </g>
        <g transform="matrix(1,0,0,1,702,0)">
            <path d="M-120.158,604.11L-119.861,610.047L-120.161,653.133" style="fill:none;fill-rule:nonzero;stroke:black;stroke-width:4px;"/>
        </g>
        <g transform="matrix(1,0,0,1,702,0)">
            <path d="M-112.595,604.23L-112.418,606.95L-112.751,609.81L-112.732,619.123L-111.877,634.709L-111.969,653.857" style="fill:none;fill-rule:nonzero;stroke:black;stroke-width:4px;"/>
        </g>
        <g transform="matrix(1,0,0,1,702,0)">
            <path d="M-119.526,628.614L-114.229,628.632" style="fill:none;fill-rule:nonzero;stroke:black;stroke-width:4px;"/>
        </g>
        <g transform="matrix(1,0,0,1,702,0)">
            <path d="M-130.893,604.995L-130.59,612.283L-130.606,629.514L-131.225,651.594L-131.201,652.969L-131.019,651.289" style="fill:none;fill-rule:nonzero;stroke:black;stroke-width:4px;"/>
        </g>
        <g transform="matrix(1,0,0,1,702,0)">
            <path d="M-136.74,603.715L-135.993,604.012L-133.287,603.961L-132.435,603.643L-127.161,603.631L-125.312,603.175L-124.089,603.184L-124.04,603.506" style="fill:none;fill-rule:nonzero;stroke:black;stroke-width:4px;"/>
        </g>
        <g transform="matrix(1,0,0,1,702,0)">
            <path d="M-226.014,521.8L-220.326,533.857" style="fill:none;fill-rule:nonzero;stroke:black;stroke-width:4px;"/>
        </g>
        <g transform="matrix(1,0,0,1,702,0)">
            <path d="M-226.194,521.254L-223.816,521.132L-222.097,521.9L-217.44,522.628L-215.54,523.467L-213.065,523.938L-213.047,523.554" style="fill:none;fill-rule:nonzero;stroke:black;stroke-width:4px;"/>
        </g>
        <g transform="matrix(1,0,0,1,702,0)">
            <path d="M-325.478,589.87L-327.971,592.109L-329.465,595.108L-329.795,597.325L-329.673,599.003L-328.509,602.145L-327.12,603.903L-325.813,604.964L-322.726,606.266L-319.376,606.34L-316.235,605.176L-313.742,602.937L-312.249,599.938L-311.949,598.282L-312.04,596.043L-313.204,592.901L-315.442,590.409L-318.442,588.915L-321.78,588.631L-323.963,589.14L-325.478,589.87" style="fill:none;fill-rule:nonzero;stroke:black;stroke-width:4px;"/>
        </g>
        <g transform="matrix(1,0,0,1,702,0)">
            <path d="M-239.661,505.746L-242.154,507.984L-243.647,510.984L-243.977,513.2L-243.856,514.879L-242.692,518.02L-241.302,519.778L-239.996,520.839L-236.909,522.141L-233.559,522.215L-230.417,521.051L-227.925,518.813L-226.431,515.813L-226.131,514.158L-226.222,511.918L-227.386,508.777L-229.625,506.284L-232.624,504.79L-235.963,504.506L-238.145,505.015L-239.661,505.746" style="fill:none;fill-rule:nonzero;stroke:black;stroke-width:4px;"/>
        </g>
    </g>
</svg>
