<?xml version="1.0" encoding="UTF-8" standalone="no"?>
<!DOCTYPE svg PUBLIC "-//W3C//DTD SVG 1.1//EN" "http://www.w3.org/Graphics/SVG/1.1/DTD/svg11.dtd">
<svg width="100%" height="100%" viewBox="0 0 2036 261" version="1.1" xmlns="http://www.w3.org/2000/svg" xmlns:xlink="http://www.w3.org/1999/xlink" xml:space="preserve" xmlns:serif="http://www.serif.com/" style="fill-rule:evenodd;clip-rule:evenodd;stroke-linecap:round;stroke-linejoin:round;stroke-miterlimit:1.5;">
    <g transform="matrix(1,0,0,1,2.08333,-596.868)">
        <g id="Bytes-box" serif:id="Bytes box" transform="matrix(1,0,0,1,-212.598,-23.622)">
            <g transform="matrix(1.27273,0,0,0.777778,-88.0458,157.48)">
                <path d="M496.063,761.811L496.063,868.11C496.063,897.444 481.509,921.26 463.583,921.26L268.701,921.26C250.774,921.26 236.22,897.444 236.22,868.11L236.22,761.811C236.22,732.477 250.774,708.661 268.701,708.661L463.583,708.661C481.509,708.661 496.063,732.477 496.063,761.811Z" style="fill:none;stroke:black;stroke-width:3.95px;"/>
            </g>
            <g transform="matrix(1,0,0,1,-5.50466,37.3149)">
                <g transform="matrix(50,0,0,50,319.807,765.549)">
                    <path d="M0.177,-0.645C0.143,-0.645 0.093,-0.648 0.093,-0.648L0.091,-0.645C0.099,-0.588 0.103,-0.52 0.103,-0.445L0.103,-0.2C0.103,-0.125 0.099,-0.054 0.091,-0L0.092,0.003C0.092,0.003 0.142,-0 0.177,-0C0.249,-0 0.272,0.003 0.361,0.003C0.56,0.003 0.634,-0.098 0.634,-0.184C0.634,-0.28 0.559,-0.335 0.472,-0.36C0.523,-0.385 0.575,-0.438 0.575,-0.493C0.575,-0.56 0.525,-0.648 0.339,-0.648C0.304,-0.648 0.24,-0.645 0.177,-0.645ZM0.245,-0.322L0.338,-0.322C0.455,-0.322 0.473,-0.236 0.473,-0.165C0.473,-0.096 0.466,-0.05 0.332,-0.05C0.262,-0.05 0.245,-0.064 0.245,-0.097L0.245,-0.322ZM0.245,-0.55C0.245,-0.583 0.255,-0.595 0.336,-0.595C0.392,-0.595 0.426,-0.568 0.426,-0.481C0.426,-0.408 0.406,-0.375 0.323,-0.375L0.245,-0.375L0.245,-0.55Z" style="fill-rule:nonzero;"/>
                </g>
                <g transform="matrix(50,0,0,50,353.557,765.549)">
                    <path d="M0.02,-0.432C0.065,-0.341 0.177,-0.109 0.215,-0.009L0.227,0.01C0.195,0.085 0.151,0.162 0.106,0.237C0.116,0.234 0.16,0.232 0.17,0.232C0.18,0.232 0.209,0.234 0.219,0.237C0.257,0.112 0.486,-0.365 0.519,-0.432C0.509,-0.429 0.48,-0.429 0.47,-0.429C0.46,-0.429 0.423,-0.429 0.413,-0.432C0.381,-0.332 0.341,-0.22 0.298,-0.124L0.289,-0.125C0.243,-0.228 0.204,-0.33 0.171,-0.432C0.158,-0.429 0.122,-0.429 0.108,-0.429C0.095,-0.429 0.034,-0.429 0.02,-0.432Z" style="fill-rule:nonzero;"/>
                </g>
                <g transform="matrix(50,0,0,50,380.507,765.549)">
                    <path d="M0.09,-0.429C0.07,-0.429 0.048,-0.43 0.036,-0.432C0.031,-0.415 0.024,-0.399 0.014,-0.384L0.019,-0.377C0.036,-0.378 0.067,-0.379 0.09,-0.379L0.087,-0.261C0.086,-0.201 0.084,-0.118 0.084,-0.088C0.084,-0.041 0.117,0.01 0.181,0.01C0.233,0.01 0.285,0.001 0.328,-0.025C0.328,-0.041 0.322,-0.056 0.311,-0.063C0.289,-0.052 0.279,-0.051 0.253,-0.051C0.226,-0.051 0.216,-0.09 0.216,-0.131L0.216,-0.138C0.216,-0.169 0.216,-0.216 0.217,-0.272L0.219,-0.379L0.257,-0.379C0.281,-0.379 0.316,-0.378 0.329,-0.377C0.331,-0.392 0.335,-0.409 0.341,-0.424L0.336,-0.432C0.317,-0.43 0.289,-0.429 0.266,-0.429L0.219,-0.429C0.219,-0.485 0.22,-0.515 0.224,-0.568C0.224,-0.575 0.221,-0.578 0.215,-0.578C0.19,-0.568 0.136,-0.542 0.096,-0.533L0.094,-0.53C0.091,-0.503 0.09,-0.469 0.09,-0.429Z" style="fill-rule:nonzero;"/>
                </g>
                <g transform="matrix(50,0,0,50,398.207,765.549)">
                    <path d="M0.448,-0.107C0.402,-0.07 0.353,-0.066 0.311,-0.066C0.262,-0.066 0.226,-0.079 0.202,-0.105C0.18,-0.129 0.169,-0.164 0.169,-0.21L0.269,-0.21C0.369,-0.21 0.454,-0.208 0.454,-0.208L0.46,-0.214C0.46,-0.339 0.425,-0.439 0.271,-0.439C0.216,-0.439 0.156,-0.422 0.117,-0.389C0.068,-0.349 0.035,-0.289 0.035,-0.206C0.035,-0.147 0.057,-0.085 0.098,-0.042C0.132,-0.007 0.191,0.01 0.266,0.01C0.338,0.01 0.41,-0.013 0.464,-0.076C0.464,-0.089 0.458,-0.107 0.448,-0.107ZM0.173,-0.255C0.177,-0.304 0.189,-0.339 0.204,-0.359C0.216,-0.376 0.236,-0.389 0.264,-0.389C0.305,-0.389 0.329,-0.343 0.329,-0.255L0.173,-0.255Z" style="fill-rule:nonzero;"/>
                </g>
                <g transform="matrix(50,0,0,50,423.607,765.549)">
                    <path d="M0.054,-0.113L0.038,-0.017C0.092,0.003 0.158,0.01 0.194,0.01C0.324,0.01 0.379,-0.053 0.379,-0.122C0.379,-0.212 0.308,-0.24 0.237,-0.278C0.204,-0.296 0.177,-0.313 0.177,-0.345C0.177,-0.373 0.187,-0.394 0.226,-0.394C0.275,-0.394 0.304,-0.347 0.317,-0.319L0.344,-0.32L0.363,-0.41L0.361,-0.413C0.334,-0.428 0.276,-0.439 0.228,-0.439C0.138,-0.439 0.059,-0.395 0.059,-0.318C0.059,-0.248 0.108,-0.212 0.165,-0.181C0.238,-0.141 0.26,-0.123 0.26,-0.083C0.26,-0.036 0.229,-0.034 0.191,-0.034C0.156,-0.034 0.114,-0.056 0.084,-0.114L0.054,-0.113Z" style="fill-rule:nonzero;"/>
                </g>
            </g>
        </g>
        <g transform="matrix(1,0,0,1,-143.773,-23.9081)">
            <g id="AST-box" serif:id="AST box" transform="matrix(1,0,0,1,472.083,0.286024)">
                <g transform="matrix(1.27273,0,0,0.777778,-64.4238,157.48)">
                    <path d="M496.063,761.811L496.063,868.11C496.063,897.444 481.509,921.26 463.583,921.26L268.701,921.26C250.774,921.26 236.22,897.444 236.22,868.11L236.22,761.811C236.22,732.477 250.774,708.661 268.701,708.661L463.583,708.661C481.509,708.661 496.063,732.477 496.063,761.811Z" style="fill:none;stroke:black;stroke-width:3.95px;"/>
                </g>
                <g transform="matrix(1,0,0,1,35.5174,41.9899)">
                    <g transform="matrix(50,0,0,50,319.807,765.549)">
                        <path d="M0.2,-0.219C0.238,-0.22 0.297,-0.221 0.333,-0.221C0.365,-0.221 0.4,-0.22 0.433,-0.22C0.479,-0.094 0.501,-0.019 0.507,0.003C0.524,-0 0.571,-0 0.588,-0C0.605,-0 0.662,-0 0.679,0.003C0.629,-0.098 0.491,-0.434 0.405,-0.653L0.315,-0.653C0.219,-0.431 0.121,-0.218 0.02,0.003C0.032,-0 0.065,-0 0.076,-0C0.087,-0 0.109,-0 0.121,0.003C0.137,-0.056 0.166,-0.135 0.2,-0.219ZM0.412,-0.275C0.383,-0.275 0.352,-0.274 0.328,-0.274C0.299,-0.274 0.255,-0.275 0.224,-0.276L0.317,-0.494L0.323,-0.494C0.359,-0.412 0.387,-0.339 0.412,-0.275Z" style="fill-rule:nonzero;"/>
                    </g>
                    <g transform="matrix(50,0,0,50,354.857,765.549)">
                        <path d="M0.253,-0.042C0.192,-0.042 0.108,-0.108 0.073,-0.161L0.047,-0.16C0.043,-0.124 0.035,-0.068 0.027,-0.038L0.029,-0.035C0.029,-0.035 0.122,0.01 0.244,0.01C0.391,0.01 0.483,-0.084 0.483,-0.186C0.483,-0.295 0.366,-0.352 0.285,-0.389C0.231,-0.414 0.183,-0.439 0.183,-0.512C0.183,-0.562 0.22,-0.609 0.274,-0.609C0.334,-0.609 0.393,-0.538 0.419,-0.489L0.449,-0.49C0.453,-0.526 0.46,-0.58 0.469,-0.61L0.467,-0.613C0.467,-0.613 0.385,-0.658 0.263,-0.658C0.15,-0.658 0.047,-0.591 0.047,-0.485C0.047,-0.447 0.054,-0.408 0.078,-0.377C0.124,-0.317 0.202,-0.279 0.259,-0.25C0.306,-0.226 0.346,-0.186 0.346,-0.145C0.346,-0.074 0.313,-0.042 0.253,-0.042Z" style="fill-rule:nonzero;"/>
                    </g>
                    <g transform="matrix(50,0,0,50,381.957,765.549)">
                        <path d="M0.229,-0.436L0.229,-0.2C0.229,-0.125 0.227,-0.054 0.219,-0L0.22,0.003C0.22,0.003 0.266,-0 0.301,-0C0.335,-0 0.381,0.003 0.381,0.003L0.383,-0C0.375,-0.057 0.373,-0.125 0.373,-0.2L0.373,-0.436C0.373,-0.453 0.374,-0.543 0.381,-0.567C0.515,-0.567 0.585,-0.545 0.585,-0.545L0.587,-0.549C0.585,-0.564 0.585,-0.617 0.587,-0.645L0.585,-0.648C0.569,-0.646 0.546,-0.645 0.525,-0.645L0.077,-0.645C0.056,-0.645 0.033,-0.646 0.017,-0.648L0.015,-0.645C0.017,-0.617 0.017,-0.564 0.015,-0.549L0.017,-0.545C0.017,-0.545 0.087,-0.567 0.221,-0.567C0.228,-0.543 0.229,-0.453 0.229,-0.436Z" style="fill-rule:nonzero;"/>
                    </g>
                </g>
            </g>
            <g id="Well-formed">
                <g id="Checkmark" transform="matrix(1,0,0,1,351.575,70.8661)">
                    <path d="M401.575,578.74L401.575,602.362C401.575,608.881 396.282,614.173 389.764,614.173L366.142,614.173C359.623,614.173 354.331,608.881 354.331,602.362L354.331,578.74C354.331,572.221 359.623,566.929 366.142,566.929L389.764,566.929C396.282,566.929 401.575,572.221 401.575,578.74Z" style="fill:none;stroke:black;stroke-width:4.17px;"/>
                    <g transform="matrix(1,0,0,1,-94.4774,-40.0721)">
                        <path d="M453.43,607.82C461.93,615.631 467.25,624.034 472.441,637.795C476.366,621.071 479.618,610.574 491.43,595.19" style="fill:none;stroke:black;stroke-width:10.42px;"/>
                    </g>
                </g>
                <g transform="matrix(1,0,0,1,-84.2218,16.8342)">
                    <g transform="matrix(50,0,0,50,848.282,661.783)">
                        <path d="M0.201,0.004C0.21,0.001 0.245,0.001 0.254,0.001C0.263,0.001 0.292,0.001 0.3,0.004C0.336,-0.078 0.373,-0.16 0.411,-0.243C0.444,-0.161 0.475,-0.079 0.504,0.003C0.513,-0 0.547,-0 0.556,-0C0.565,-0 0.592,-0 0.6,0.003C0.661,-0.139 0.727,-0.289 0.793,-0.432C0.785,-0.429 0.753,-0.429 0.744,-0.429C0.735,-0.429 0.708,-0.429 0.7,-0.432C0.667,-0.327 0.619,-0.204 0.575,-0.11L0.571,-0.11C0.537,-0.217 0.508,-0.321 0.483,-0.432C0.471,-0.43 0.427,-0.429 0.414,-0.429C0.4,-0.429 0.345,-0.43 0.331,-0.432C0.348,-0.394 0.364,-0.357 0.379,-0.319C0.35,-0.241 0.316,-0.161 0.288,-0.1L0.282,-0.1C0.239,-0.211 0.202,-0.32 0.17,-0.431C0.158,-0.428 0.119,-0.428 0.106,-0.428C0.092,-0.428 0.032,-0.428 0.018,-0.431C0.084,-0.283 0.146,-0.142 0.201,0.004Z" style="fill-rule:nonzero;"/>
                    </g>
                    <g transform="matrix(50,0,0,50,888.432,661.783)">
                        <path d="M0.448,-0.107C0.402,-0.07 0.353,-0.066 0.311,-0.066C0.262,-0.066 0.226,-0.079 0.202,-0.105C0.18,-0.129 0.169,-0.164 0.169,-0.21L0.269,-0.21C0.369,-0.21 0.454,-0.208 0.454,-0.208L0.46,-0.214C0.46,-0.339 0.425,-0.439 0.271,-0.439C0.216,-0.439 0.156,-0.422 0.117,-0.389C0.068,-0.349 0.035,-0.289 0.035,-0.206C0.035,-0.147 0.057,-0.085 0.098,-0.042C0.132,-0.007 0.191,0.01 0.266,0.01C0.338,0.01 0.41,-0.013 0.464,-0.076C0.464,-0.089 0.458,-0.107 0.448,-0.107ZM0.173,-0.255C0.177,-0.304 0.189,-0.339 0.204,-0.359C0.216,-0.376 0.236,-0.389 0.264,-0.389C0.305,-0.389 0.329,-0.343 0.329,-0.255L0.173,-0.255Z" style="fill-rule:nonzero;"/>
                    </g>
                    <g transform="matrix(50,0,0,50,913.832,661.783)">
                        <path d="M0.086,-0.2C0.086,-0.125 0.083,-0.054 0.074,-0L0.075,0.003C0.075,0.003 0.117,-0 0.152,-0C0.186,-0 0.228,0.003 0.228,0.003L0.23,-0C0.222,-0.057 0.218,-0.125 0.218,-0.2L0.218,-0.5C0.218,-0.575 0.222,-0.627 0.23,-0.688C0.23,-0.695 0.225,-0.698 0.219,-0.698C0.194,-0.688 0.117,-0.668 0.076,-0.665L0.074,-0.662C0.082,-0.619 0.086,-0.55 0.086,-0.474L0.086,-0.2Z" style="fill-rule:nonzero;"/>
                    </g>
                    <g transform="matrix(50,0,0,50,929.032,661.783)">
                        <path d="M0.086,-0.2C0.086,-0.125 0.083,-0.054 0.074,-0L0.075,0.003C0.075,0.003 0.117,-0 0.152,-0C0.186,-0 0.228,0.003 0.228,0.003L0.23,-0C0.222,-0.057 0.218,-0.125 0.218,-0.2L0.218,-0.5C0.218,-0.575 0.222,-0.627 0.23,-0.688C0.23,-0.695 0.225,-0.698 0.219,-0.698C0.194,-0.688 0.117,-0.668 0.076,-0.665L0.074,-0.662C0.082,-0.619 0.086,-0.55 0.086,-0.474L0.086,-0.2Z" style="fill-rule:nonzero;"/>
                    </g>
                    <g transform="matrix(50,0,0,50,944.232,661.783)">
                        <path d="M0.279,-0.221C0.292,-0.221 0.306,-0.26 0.306,-0.271C0.306,-0.28 0.302,-0.294 0.292,-0.294L0.063,-0.294C0.051,-0.294 0.038,-0.259 0.038,-0.243C0.038,-0.234 0.044,-0.221 0.053,-0.221L0.279,-0.221Z" style="fill-rule:nonzero;"/>
                    </g>
                    <g transform="matrix(50,0,0,50,961.432,661.783)">
                        <path d="M0.222,-0.379L0.26,-0.379C0.284,-0.379 0.319,-0.378 0.332,-0.377C0.334,-0.392 0.338,-0.409 0.344,-0.424L0.339,-0.432C0.32,-0.43 0.292,-0.429 0.269,-0.429L0.222,-0.429L0.222,-0.439C0.222,-0.465 0.215,-0.513 0.215,-0.535C0.215,-0.59 0.245,-0.629 0.299,-0.629C0.328,-0.629 0.355,-0.608 0.363,-0.579L0.393,-0.58C0.396,-0.608 0.407,-0.661 0.416,-0.681L0.415,-0.684C0.407,-0.689 0.371,-0.698 0.34,-0.698C0.264,-0.698 0.204,-0.673 0.162,-0.629C0.118,-0.583 0.093,-0.52 0.093,-0.459L0.093,-0.429C0.073,-0.429 0.051,-0.43 0.039,-0.432C0.034,-0.415 0.027,-0.399 0.017,-0.384L0.022,-0.377C0.039,-0.378 0.07,-0.379 0.093,-0.379L0.093,-0.2C0.093,-0.125 0.093,-0.051 0.086,-0L0.087,0.003C0.087,0.003 0.127,-0 0.162,-0C0.196,-0 0.231,0.003 0.231,0.003L0.233,-0C0.226,-0.058 0.226,-0.125 0.225,-0.2L0.222,-0.379Z" style="fill-rule:nonzero;"/>
                    </g>
                    <g transform="matrix(50,0,0,50,979.732,661.783)">
                        <path d="M0.041,-0.205C0.041,-0.072 0.134,0.01 0.283,0.01C0.436,0.01 0.525,-0.076 0.525,-0.214C0.525,-0.34 0.454,-0.439 0.285,-0.439C0.142,-0.439 0.041,-0.36 0.041,-0.205ZM0.278,-0.389C0.363,-0.389 0.383,-0.326 0.383,-0.187C0.383,-0.072 0.342,-0.04 0.297,-0.04C0.193,-0.04 0.183,-0.151 0.183,-0.228C0.183,-0.315 0.192,-0.389 0.278,-0.389Z" style="fill-rule:nonzero;"/>
                    </g>
                    <g transform="matrix(50,0,0,50,1008.03,661.783)">
                        <path d="M0.225,-0.349L0.221,-0.352C0.221,-0.375 0.22,-0.417 0.218,-0.425C0.217,-0.432 0.215,-0.435 0.209,-0.435C0.18,-0.43 0.115,-0.43 0.08,-0.432L0.078,-0.429C0.086,-0.386 0.089,-0.31 0.089,-0.235L0.089,-0.18C0.089,-0.105 0.087,-0.054 0.079,-0L0.08,0.003C0.08,0.003 0.112,-0 0.147,-0C0.181,-0 0.229,0.003 0.229,0.003L0.231,-0C0.223,-0.057 0.221,-0.104 0.221,-0.18L0.221,-0.253C0.221,-0.33 0.29,-0.342 0.305,-0.342C0.324,-0.342 0.345,-0.337 0.363,-0.323L0.381,-0.325L0.401,-0.428L0.397,-0.432C0.38,-0.437 0.364,-0.439 0.346,-0.439C0.299,-0.439 0.251,-0.388 0.225,-0.349Z" style="fill-rule:nonzero;"/>
                    </g>
                    <g transform="matrix(50,0,0,50,1029.08,661.783)">
                        <path d="M0.216,-0.349L0.212,-0.352C0.212,-0.375 0.211,-0.417 0.209,-0.425C0.208,-0.432 0.206,-0.435 0.2,-0.435C0.171,-0.43 0.106,-0.43 0.071,-0.432L0.069,-0.429C0.077,-0.386 0.08,-0.31 0.08,-0.235L0.08,-0.18C0.08,-0.105 0.076,-0.054 0.068,-0L0.069,0.003C0.069,0.003 0.111,-0 0.146,-0C0.18,-0 0.22,0.003 0.22,0.003L0.222,-0C0.214,-0.057 0.212,-0.104 0.212,-0.18L0.212,-0.281C0.254,-0.332 0.29,-0.362 0.318,-0.362C0.356,-0.362 0.377,-0.348 0.377,-0.281L0.377,-0.18C0.377,-0.105 0.373,-0.054 0.365,-0L0.366,0.003C0.366,0.003 0.411,-0 0.446,-0C0.48,-0 0.519,0.003 0.519,0.003L0.521,-0C0.513,-0.057 0.509,-0.104 0.509,-0.18L0.509,-0.268C0.509,-0.282 0.509,-0.286 0.508,-0.298C0.556,-0.351 0.578,-0.362 0.617,-0.362C0.649,-0.362 0.672,-0.34 0.672,-0.273L0.672,-0.18C0.672,-0.105 0.668,-0.054 0.66,-0L0.661,0.003C0.661,0.003 0.706,-0 0.741,-0C0.775,-0 0.814,0.003 0.814,0.003L0.816,-0C0.808,-0.057 0.804,-0.104 0.804,-0.18L0.804,-0.28C0.804,-0.38 0.769,-0.439 0.661,-0.439C0.611,-0.439 0.559,-0.419 0.502,-0.359C0.482,-0.409 0.455,-0.439 0.365,-0.439C0.316,-0.439 0.254,-0.398 0.216,-0.349Z" style="fill-rule:nonzero;"/>
                    </g>
                    <g transform="matrix(50,0,0,50,1073.68,661.783)">
                        <path d="M0.448,-0.107C0.402,-0.07 0.353,-0.066 0.311,-0.066C0.262,-0.066 0.226,-0.079 0.202,-0.105C0.18,-0.129 0.169,-0.164 0.169,-0.21L0.269,-0.21C0.369,-0.21 0.454,-0.208 0.454,-0.208L0.46,-0.214C0.46,-0.339 0.425,-0.439 0.271,-0.439C0.216,-0.439 0.156,-0.422 0.117,-0.389C0.068,-0.349 0.035,-0.289 0.035,-0.206C0.035,-0.147 0.057,-0.085 0.098,-0.042C0.132,-0.007 0.191,0.01 0.266,0.01C0.338,0.01 0.41,-0.013 0.464,-0.076C0.464,-0.089 0.458,-0.107 0.448,-0.107ZM0.173,-0.255C0.177,-0.304 0.189,-0.339 0.204,-0.359C0.216,-0.376 0.236,-0.389 0.264,-0.389C0.305,-0.389 0.329,-0.343 0.329,-0.255L0.173,-0.255Z" style="fill-rule:nonzero;"/>
                    </g>
                    <g transform="matrix(50,0,0,50,1099.43,661.783)">
                        <path d="M0.373,-0.054L0.375,-0.054L0.38,-0C0.38,0.002 0.383,0.003 0.389,0.003C0.402,0.001 0.438,-0 0.453,-0C0.465,-0 0.509,0.001 0.522,0.003L0.524,-0C0.516,-0.043 0.505,-0.117 0.505,-0.192L0.505,-0.5C0.505,-0.574 0.509,-0.627 0.517,-0.688C0.517,-0.695 0.512,-0.698 0.506,-0.698C0.481,-0.688 0.404,-0.668 0.363,-0.665L0.361,-0.662C0.369,-0.619 0.373,-0.55 0.373,-0.474L0.373,-0.394C0.354,-0.421 0.308,-0.439 0.279,-0.439C0.212,-0.439 0.176,-0.426 0.13,-0.393C0.068,-0.348 0.044,-0.275 0.044,-0.203C0.044,-0.08 0.119,0.01 0.23,0.01C0.293,0.01 0.346,-0.008 0.373,-0.054ZM0.373,-0.133C0.349,-0.069 0.317,-0.048 0.276,-0.048C0.222,-0.048 0.186,-0.096 0.186,-0.221C0.186,-0.356 0.23,-0.389 0.278,-0.389C0.325,-0.389 0.363,-0.355 0.373,-0.303L0.373,-0.133Z" style="fill-rule:nonzero;"/>
                    </g>
                </g>
            </g>
        </g>
        <g transform="matrix(1,0,0,1,-94.4882,-23.9081)">
            <g id="Object-box" serif:id="Object box" transform="matrix(1,0,0,1,992.126,0.286024)">
                <g transform="matrix(1.27273,0,0,0.777778,-64.4238,157.48)">
                    <path d="M496.063,761.811L496.063,868.11C496.063,897.444 481.509,921.26 463.583,921.26L268.701,921.26C250.774,921.26 236.22,897.444 236.22,868.11L236.22,761.811C236.22,732.477 250.774,708.661 268.701,708.661L463.583,708.661C481.509,708.661 496.063,732.477 496.063,761.811Z" style="fill:none;stroke:black;stroke-width:3.95px;"/>
                </g>
                <g transform="matrix(1,0,0,1,3.89239,37.4399)">
                    <g transform="matrix(50,0,0,50,319.807,765.549)">
                        <path d="M0.747,-0.329C0.747,-0.527 0.61,-0.658 0.397,-0.658C0.194,-0.658 0.052,-0.506 0.052,-0.31C0.052,-0.122 0.2,0.01 0.398,0.01C0.612,0.01 0.747,-0.129 0.747,-0.329ZM0.384,-0.603C0.525,-0.603 0.586,-0.518 0.586,-0.31C0.586,-0.131 0.532,-0.045 0.418,-0.045C0.298,-0.045 0.213,-0.135 0.213,-0.327C0.213,-0.537 0.288,-0.603 0.384,-0.603Z" style="fill-rule:nonzero;"/>
                    </g>
                    <g transform="matrix(50,0,0,50,359.757,765.549)">
                        <path d="M0.218,-0.5C0.218,-0.574 0.222,-0.627 0.23,-0.688C0.23,-0.695 0.227,-0.698 0.221,-0.698C0.196,-0.688 0.117,-0.668 0.076,-0.665L0.074,-0.662C0.082,-0.619 0.086,-0.55 0.086,-0.474L0.086,-0.134C0.086,-0.095 0.082,-0.016 0.078,0.006C0.081,0.008 0.083,0.01 0.089,0.011C0.101,0.009 0.147,-0.011 0.161,-0.011C0.172,-0.011 0.202,-0.005 0.218,0.002C0.234,0.009 0.278,0.01 0.314,0.01C0.366,0.01 0.42,-0.006 0.464,-0.043C0.513,-0.085 0.548,-0.153 0.548,-0.242C0.548,-0.301 0.53,-0.355 0.493,-0.389C0.454,-0.425 0.409,-0.439 0.356,-0.439C0.313,-0.439 0.278,-0.429 0.218,-0.384L0.218,-0.5ZM0.235,-0.054C0.221,-0.063 0.218,-0.08 0.218,-0.108L0.218,-0.328C0.267,-0.363 0.288,-0.371 0.312,-0.371C0.373,-0.371 0.406,-0.319 0.406,-0.222C0.406,-0.165 0.399,-0.119 0.384,-0.088C0.367,-0.052 0.336,-0.04 0.308,-0.04C0.274,-0.04 0.251,-0.044 0.235,-0.054Z" style="fill-rule:nonzero;"/>
                    </g>
                    <g transform="matrix(50,0,0,50,389.057,765.549)">
                        <path d="M0.127,-0.235L0.126,-0.116C0.125,-0.012 0.123,0.144 0.061,0.144C0.034,0.144 0.007,0.119 -0.003,0.101L-0.03,0.108C-0.03,0.141 -0.03,0.203 -0.035,0.221L-0.034,0.224C-0.027,0.228 0.026,0.232 0.044,0.232C0.102,0.232 0.176,0.205 0.209,0.158C0.242,0.111 0.257,0.044 0.258,-0.029L0.26,-0.246C0.261,-0.321 0.264,-0.363 0.269,-0.424C0.269,-0.431 0.266,-0.434 0.26,-0.434C0.246,-0.432 0.219,-0.429 0.191,-0.429C0.165,-0.429 0.139,-0.432 0.12,-0.432L0.117,-0.428C0.125,-0.385 0.128,-0.311 0.127,-0.235ZM0.122,-0.607C0.122,-0.569 0.153,-0.538 0.193,-0.538C0.233,-0.538 0.264,-0.569 0.264,-0.607C0.264,-0.645 0.233,-0.676 0.193,-0.676C0.153,-0.676 0.122,-0.645 0.122,-0.607Z" style="fill-rule:nonzero;"/>
                    </g>
                    <g transform="matrix(50,0,0,50,406.557,765.549)">
                        <path d="M0.448,-0.107C0.402,-0.07 0.353,-0.066 0.311,-0.066C0.262,-0.066 0.226,-0.079 0.202,-0.105C0.18,-0.129 0.169,-0.164 0.169,-0.21L0.269,-0.21C0.369,-0.21 0.454,-0.208 0.454,-0.208L0.46,-0.214C0.46,-0.339 0.425,-0.439 0.271,-0.439C0.216,-0.439 0.156,-0.422 0.117,-0.389C0.068,-0.349 0.035,-0.289 0.035,-0.206C0.035,-0.147 0.057,-0.085 0.098,-0.042C0.132,-0.007 0.191,0.01 0.266,0.01C0.338,0.01 0.41,-0.013 0.464,-0.076C0.464,-0.089 0.458,-0.107 0.448,-0.107ZM0.173,-0.255C0.177,-0.304 0.189,-0.339 0.204,-0.359C0.216,-0.376 0.236,-0.389 0.264,-0.389C0.305,-0.389 0.329,-0.343 0.329,-0.255L0.173,-0.255Z" style="fill-rule:nonzero;"/>
                    </g>
                    <g transform="matrix(50,0,0,50,432.307,765.549)">
                        <path d="M0.297,-0.389C0.336,-0.389 0.365,-0.36 0.387,-0.305L0.415,-0.306L0.439,-0.403L0.437,-0.406C0.406,-0.422 0.338,-0.439 0.288,-0.439C0.154,-0.439 0.042,-0.359 0.042,-0.202C0.042,-0.14 0.062,-0.091 0.096,-0.054C0.132,-0.015 0.199,0.01 0.274,0.01C0.35,0.01 0.394,-0.006 0.439,-0.044C0.437,-0.054 0.434,-0.067 0.434,-0.083L0.418,-0.088C0.39,-0.054 0.341,-0.04 0.301,-0.04C0.272,-0.04 0.232,-0.065 0.214,-0.094C0.196,-0.123 0.184,-0.171 0.184,-0.228C0.184,-0.276 0.192,-0.314 0.208,-0.341C0.228,-0.372 0.262,-0.389 0.297,-0.389Z" style="fill-rule:nonzero;"/>
                    </g>
                    <g transform="matrix(50,0,0,50,455.907,765.549)">
                        <path d="M0.09,-0.429C0.07,-0.429 0.048,-0.43 0.036,-0.432C0.031,-0.415 0.024,-0.399 0.014,-0.384L0.019,-0.377C0.036,-0.378 0.067,-0.379 0.09,-0.379L0.087,-0.261C0.086,-0.201 0.084,-0.118 0.084,-0.088C0.084,-0.041 0.117,0.01 0.181,0.01C0.233,0.01 0.285,0.001 0.328,-0.025C0.328,-0.041 0.322,-0.056 0.311,-0.063C0.289,-0.052 0.279,-0.051 0.253,-0.051C0.226,-0.051 0.216,-0.09 0.216,-0.131L0.216,-0.138C0.216,-0.169 0.216,-0.216 0.217,-0.272L0.219,-0.379L0.257,-0.379C0.281,-0.379 0.316,-0.378 0.329,-0.377C0.331,-0.392 0.335,-0.409 0.341,-0.424L0.336,-0.432C0.317,-0.43 0.289,-0.429 0.266,-0.429L0.219,-0.429C0.219,-0.485 0.22,-0.515 0.224,-0.568C0.224,-0.575 0.221,-0.578 0.215,-0.578C0.19,-0.568 0.136,-0.542 0.096,-0.533L0.094,-0.53C0.091,-0.503 0.09,-0.469 0.09,-0.429Z" style="fill-rule:nonzero;"/>
                    </g>
                </g>
            </g>
            <g id="Valid" transform="matrix(1,0,0,1,1.55039,0)">
                <g id="Checkmark1" serif:id="Checkmark" transform="matrix(1,0,0,1,953.592,70.8661)">
                    <path d="M401.575,578.74L401.575,602.362C401.575,608.881 396.282,614.173 389.764,614.173L366.142,614.173C359.623,614.173 354.331,608.881 354.331,602.362L354.331,578.74C354.331,572.221 359.623,566.929 366.142,566.929L389.764,566.929C396.282,566.929 401.575,572.221 401.575,578.74Z" style="fill:none;stroke:black;stroke-width:4.17px;"/>
                    <g transform="matrix(1,0,0,1,-94.4774,-40.0721)">
                        <path d="M453.43,607.82C461.93,615.631 467.25,624.034 472.441,637.795C476.366,621.071 479.618,610.574 491.43,595.19" style="fill:none;stroke:black;stroke-width:10.42px;"/>
                    </g>
                </g>
                <g transform="matrix(1,0,0,1,517.796,16.8342)">
                    <g transform="matrix(50,0,0,50,848.282,661.783)">
                        <path d="M0.214,0.003C0.225,0.001 0.259,-0 0.269,-0C0.279,-0 0.303,0.001 0.311,0.003C0.374,-0.133 0.455,-0.289 0.53,-0.432C0.521,-0.429 0.483,-0.429 0.473,-0.429C0.463,-0.429 0.439,-0.429 0.43,-0.432C0.399,-0.341 0.347,-0.205 0.3,-0.123L0.294,-0.123C0.254,-0.218 0.211,-0.338 0.181,-0.432C0.168,-0.429 0.121,-0.429 0.107,-0.429C0.091,-0.429 0.036,-0.429 0.02,-0.432C0.091,-0.285 0.158,-0.143 0.214,0.003Z" style="fill-rule:nonzero;"/>
                    </g>
                    <g transform="matrix(50,0,0,50,875.782,661.783)">
                        <path d="M0.437,-0.08C0.437,-0.109 0.441,-0.266 0.441,-0.277C0.441,-0.337 0.429,-0.374 0.401,-0.399C0.369,-0.428 0.309,-0.439 0.261,-0.439C0.189,-0.439 0.093,-0.407 0.069,-0.386L0.066,-0.382L0.086,-0.307L0.119,-0.306C0.153,-0.356 0.197,-0.385 0.242,-0.385C0.286,-0.385 0.311,-0.36 0.311,-0.283C0.311,-0.276 0.308,-0.272 0.305,-0.271L0.188,-0.24C0.092,-0.217 0.034,-0.166 0.034,-0.098C0.034,-0.029 0.101,0.01 0.171,0.01C0.21,0.01 0.263,-0.003 0.308,-0.048L0.31,-0.048C0.324,-0.007 0.346,0.01 0.389,0.01C0.428,0.01 0.478,-0 0.508,-0.023C0.507,-0.032 0.504,-0.039 0.498,-0.044C0.458,-0.044 0.437,-0.047 0.437,-0.08ZM0.311,-0.222L0.309,-0.129C0.309,-0.116 0.301,-0.091 0.294,-0.084C0.271,-0.061 0.248,-0.05 0.22,-0.05C0.19,-0.05 0.168,-0.08 0.168,-0.107C0.168,-0.143 0.181,-0.188 0.231,-0.201L0.311,-0.222Z" style="fill-rule:nonzero;"/>
                    </g>
                    <g transform="matrix(50,0,0,50,901.582,661.783)">
                        <path d="M0.086,-0.2C0.086,-0.125 0.083,-0.054 0.074,-0L0.075,0.003C0.075,0.003 0.117,-0 0.152,-0C0.186,-0 0.228,0.003 0.228,0.003L0.23,-0C0.222,-0.057 0.218,-0.125 0.218,-0.2L0.218,-0.5C0.218,-0.575 0.222,-0.627 0.23,-0.688C0.23,-0.695 0.225,-0.698 0.219,-0.698C0.194,-0.688 0.117,-0.668 0.076,-0.665L0.074,-0.662C0.082,-0.619 0.086,-0.55 0.086,-0.474L0.086,-0.2Z" style="fill-rule:nonzero;"/>
                    </g>
                    <g transform="matrix(50,0,0,50,916.782,661.783)">
                        <path d="M0.09,-0.235L0.09,-0.18C0.09,-0.105 0.088,-0.054 0.08,-0L0.082,0.003C0.103,0.001 0.121,-0 0.156,-0C0.19,-0 0.211,0.001 0.23,0.003L0.232,-0C0.224,-0.057 0.222,-0.104 0.222,-0.18L0.222,-0.246C0.222,-0.321 0.226,-0.364 0.232,-0.424C0.232,-0.431 0.229,-0.434 0.223,-0.434C0.209,-0.432 0.182,-0.429 0.154,-0.429C0.128,-0.429 0.101,-0.431 0.083,-0.432L0.08,-0.428C0.088,-0.385 0.09,-0.31 0.09,-0.235ZM0.085,-0.607C0.085,-0.569 0.116,-0.538 0.156,-0.538C0.196,-0.538 0.227,-0.569 0.227,-0.607C0.227,-0.645 0.196,-0.676 0.156,-0.676C0.116,-0.676 0.085,-0.645 0.085,-0.607Z" style="fill-rule:nonzero;"/>
                    </g>
                    <g transform="matrix(50,0,0,50,932.382,661.783)">
                        <path d="M0.373,-0.054L0.375,-0.054L0.38,-0C0.38,0.002 0.383,0.003 0.389,0.003C0.402,0.001 0.438,-0 0.453,-0C0.465,-0 0.509,0.001 0.522,0.003L0.524,-0C0.516,-0.043 0.505,-0.117 0.505,-0.192L0.505,-0.5C0.505,-0.574 0.509,-0.627 0.517,-0.688C0.517,-0.695 0.512,-0.698 0.506,-0.698C0.481,-0.688 0.404,-0.668 0.363,-0.665L0.361,-0.662C0.369,-0.619 0.373,-0.55 0.373,-0.474L0.373,-0.394C0.354,-0.421 0.308,-0.439 0.279,-0.439C0.212,-0.439 0.176,-0.426 0.13,-0.393C0.068,-0.348 0.044,-0.275 0.044,-0.203C0.044,-0.08 0.119,0.01 0.23,0.01C0.293,0.01 0.346,-0.008 0.373,-0.054ZM0.373,-0.133C0.349,-0.069 0.317,-0.048 0.276,-0.048C0.222,-0.048 0.186,-0.096 0.186,-0.221C0.186,-0.356 0.23,-0.389 0.278,-0.389C0.325,-0.389 0.363,-0.355 0.373,-0.303L0.373,-0.133Z" style="fill-rule:nonzero;"/>
                    </g>
                </g>
            </g>
        </g>
        <g transform="matrix(1,0,0,1,-47.2441,-19.4803)">
            <g id="System-state-box" serif:id="System state box" transform="matrix(1,0,0,1,1511.81,0.286024)">
                <g transform="matrix(1.27273,0,0,0.777778,-64.4238,157.48)">
                    <path d="M496.063,761.811L496.063,868.11C496.063,897.444 481.509,921.26 463.583,921.26L268.701,921.26C250.774,921.26 236.22,897.444 236.22,868.11L236.22,761.811C236.22,732.477 250.774,708.661 268.701,708.661L463.583,708.661C481.509,708.661 496.063,732.477 496.063,761.811Z" style="fill:none;stroke:black;stroke-width:3.95px;"/>
                </g>
                <g id="System-state" serif:id="System state" transform="matrix(1,0,0,1,-59.1826,36.3149)">
                    <g transform="matrix(50,0,0,50,319.807,765.549)">
                        <path d="M0.253,-0.042C0.192,-0.042 0.108,-0.108 0.073,-0.161L0.047,-0.16C0.043,-0.124 0.035,-0.068 0.027,-0.038L0.029,-0.035C0.029,-0.035 0.122,0.01 0.244,0.01C0.391,0.01 0.483,-0.084 0.483,-0.186C0.483,-0.295 0.366,-0.352 0.285,-0.389C0.231,-0.414 0.183,-0.439 0.183,-0.512C0.183,-0.562 0.22,-0.609 0.274,-0.609C0.334,-0.609 0.393,-0.538 0.419,-0.489L0.449,-0.49C0.453,-0.526 0.46,-0.58 0.469,-0.61L0.467,-0.613C0.467,-0.613 0.385,-0.658 0.263,-0.658C0.15,-0.658 0.047,-0.591 0.047,-0.485C0.047,-0.447 0.054,-0.408 0.078,-0.377C0.124,-0.317 0.202,-0.279 0.259,-0.25C0.306,-0.226 0.346,-0.186 0.346,-0.145C0.346,-0.074 0.313,-0.042 0.253,-0.042Z" style="fill-rule:nonzero;"/>
                    </g>
                    <g transform="matrix(50,0,0,50,346.907,765.549)">
                        <path d="M0.02,-0.432C0.065,-0.341 0.177,-0.109 0.215,-0.009L0.227,0.01C0.195,0.085 0.151,0.162 0.106,0.237C0.116,0.234 0.16,0.232 0.17,0.232C0.18,0.232 0.209,0.234 0.219,0.237C0.257,0.112 0.486,-0.365 0.519,-0.432C0.509,-0.429 0.48,-0.429 0.47,-0.429C0.46,-0.429 0.423,-0.429 0.413,-0.432C0.381,-0.332 0.341,-0.22 0.298,-0.124L0.289,-0.125C0.243,-0.228 0.204,-0.33 0.171,-0.432C0.158,-0.429 0.122,-0.429 0.108,-0.429C0.095,-0.429 0.034,-0.429 0.02,-0.432Z" style="fill-rule:nonzero;"/>
                    </g>
                    <g transform="matrix(50,0,0,50,373.857,765.549)">
                        <path d="M0.054,-0.113L0.038,-0.017C0.092,0.003 0.158,0.01 0.194,0.01C0.324,0.01 0.379,-0.053 0.379,-0.122C0.379,-0.212 0.308,-0.24 0.237,-0.278C0.204,-0.296 0.177,-0.313 0.177,-0.345C0.177,-0.373 0.187,-0.394 0.226,-0.394C0.275,-0.394 0.304,-0.347 0.317,-0.319L0.344,-0.32L0.363,-0.41L0.361,-0.413C0.334,-0.428 0.276,-0.439 0.228,-0.439C0.138,-0.439 0.059,-0.395 0.059,-0.318C0.059,-0.248 0.108,-0.212 0.165,-0.181C0.238,-0.141 0.26,-0.123 0.26,-0.083C0.26,-0.036 0.229,-0.034 0.191,-0.034C0.156,-0.034 0.114,-0.056 0.084,-0.114L0.054,-0.113Z" style="fill-rule:nonzero;"/>
                    </g>
                    <g transform="matrix(50,0,0,50,394.807,765.549)">
                        <path d="M0.09,-0.429C0.07,-0.429 0.048,-0.43 0.036,-0.432C0.031,-0.415 0.024,-0.399 0.014,-0.384L0.019,-0.377C0.036,-0.378 0.067,-0.379 0.09,-0.379L0.087,-0.261C0.086,-0.201 0.084,-0.118 0.084,-0.088C0.084,-0.041 0.117,0.01 0.181,0.01C0.233,0.01 0.285,0.001 0.328,-0.025C0.328,-0.041 0.322,-0.056 0.311,-0.063C0.289,-0.052 0.279,-0.051 0.253,-0.051C0.226,-0.051 0.216,-0.09 0.216,-0.131L0.216,-0.138C0.216,-0.169 0.216,-0.216 0.217,-0.272L0.219,-0.379L0.257,-0.379C0.281,-0.379 0.316,-0.378 0.329,-0.377C0.331,-0.392 0.335,-0.409 0.341,-0.424L0.336,-0.432C0.317,-0.43 0.289,-0.429 0.266,-0.429L0.219,-0.429C0.219,-0.485 0.22,-0.515 0.224,-0.568C0.224,-0.575 0.221,-0.578 0.215,-0.578C0.19,-0.568 0.136,-0.542 0.096,-0.533L0.094,-0.53C0.091,-0.503 0.09,-0.469 0.09,-0.429Z" style="fill-rule:nonzero;"/>
                    </g>
                    <g transform="matrix(50,0,0,50,412.507,765.549)">
                        <path d="M0.448,-0.107C0.402,-0.07 0.353,-0.066 0.311,-0.066C0.262,-0.066 0.226,-0.079 0.202,-0.105C0.18,-0.129 0.169,-0.164 0.169,-0.21L0.269,-0.21C0.369,-0.21 0.454,-0.208 0.454,-0.208L0.46,-0.214C0.46,-0.339 0.425,-0.439 0.271,-0.439C0.216,-0.439 0.156,-0.422 0.117,-0.389C0.068,-0.349 0.035,-0.289 0.035,-0.206C0.035,-0.147 0.057,-0.085 0.098,-0.042C0.132,-0.007 0.191,0.01 0.266,0.01C0.338,0.01 0.41,-0.013 0.464,-0.076C0.464,-0.089 0.458,-0.107 0.448,-0.107ZM0.173,-0.255C0.177,-0.304 0.189,-0.339 0.204,-0.359C0.216,-0.376 0.236,-0.389 0.264,-0.389C0.305,-0.389 0.329,-0.343 0.329,-0.255L0.173,-0.255Z" style="fill-rule:nonzero;"/>
                    </g>
                    <g transform="matrix(50,0,0,50,437.907,765.549)">
                        <path d="M0.216,-0.349L0.212,-0.352C0.212,-0.375 0.211,-0.417 0.209,-0.425C0.208,-0.432 0.206,-0.435 0.2,-0.435C0.171,-0.43 0.106,-0.43 0.071,-0.432L0.069,-0.429C0.077,-0.386 0.08,-0.31 0.08,-0.235L0.08,-0.18C0.08,-0.105 0.076,-0.054 0.068,-0L0.069,0.003C0.069,0.003 0.111,-0 0.146,-0C0.18,-0 0.22,0.003 0.22,0.003L0.222,-0C0.214,-0.057 0.212,-0.104 0.212,-0.18L0.212,-0.281C0.254,-0.332 0.29,-0.362 0.318,-0.362C0.356,-0.362 0.377,-0.348 0.377,-0.281L0.377,-0.18C0.377,-0.105 0.373,-0.054 0.365,-0L0.366,0.003C0.366,0.003 0.411,-0 0.446,-0C0.48,-0 0.519,0.003 0.519,0.003L0.521,-0C0.513,-0.057 0.509,-0.104 0.509,-0.18L0.509,-0.268C0.509,-0.282 0.509,-0.286 0.508,-0.298C0.556,-0.351 0.578,-0.362 0.617,-0.362C0.649,-0.362 0.672,-0.34 0.672,-0.273L0.672,-0.18C0.672,-0.105 0.668,-0.054 0.66,-0L0.661,0.003C0.661,0.003 0.706,-0 0.741,-0C0.775,-0 0.814,0.003 0.814,0.003L0.816,-0C0.808,-0.057 0.804,-0.104 0.804,-0.18L0.804,-0.28C0.804,-0.38 0.769,-0.439 0.661,-0.439C0.611,-0.439 0.559,-0.419 0.502,-0.359C0.482,-0.409 0.455,-0.439 0.365,-0.439C0.316,-0.439 0.254,-0.398 0.216,-0.349Z" style="fill-rule:nonzero;"/>
                    </g>
                    <g transform="matrix(50,0,0,50,495.007,765.549)">
                        <path d="M0.054,-0.113L0.038,-0.017C0.092,0.003 0.158,0.01 0.194,0.01C0.324,0.01 0.379,-0.053 0.379,-0.122C0.379,-0.212 0.308,-0.24 0.237,-0.278C0.204,-0.296 0.177,-0.313 0.177,-0.345C0.177,-0.373 0.187,-0.394 0.226,-0.394C0.275,-0.394 0.304,-0.347 0.317,-0.319L0.344,-0.32L0.363,-0.41L0.361,-0.413C0.334,-0.428 0.276,-0.439 0.228,-0.439C0.138,-0.439 0.059,-0.395 0.059,-0.318C0.059,-0.248 0.108,-0.212 0.165,-0.181C0.238,-0.141 0.26,-0.123 0.26,-0.083C0.26,-0.036 0.229,-0.034 0.191,-0.034C0.156,-0.034 0.114,-0.056 0.084,-0.114L0.054,-0.113Z" style="fill-rule:nonzero;"/>
                    </g>
                    <g transform="matrix(50,0,0,50,515.957,765.549)">
                        <path d="M0.09,-0.429C0.07,-0.429 0.048,-0.43 0.036,-0.432C0.031,-0.415 0.024,-0.399 0.014,-0.384L0.019,-0.377C0.036,-0.378 0.067,-0.379 0.09,-0.379L0.087,-0.261C0.086,-0.201 0.084,-0.118 0.084,-0.088C0.084,-0.041 0.117,0.01 0.181,0.01C0.233,0.01 0.285,0.001 0.328,-0.025C0.328,-0.041 0.322,-0.056 0.311,-0.063C0.289,-0.052 0.279,-0.051 0.253,-0.051C0.226,-0.051 0.216,-0.09 0.216,-0.131L0.216,-0.138C0.216,-0.169 0.216,-0.216 0.217,-0.272L0.219,-0.379L0.257,-0.379C0.281,-0.379 0.316,-0.378 0.329,-0.377C0.331,-0.392 0.335,-0.409 0.341,-0.424L0.336,-0.432C0.317,-0.43 0.289,-0.429 0.266,-0.429L0.219,-0.429C0.219,-0.485 0.22,-0.515 0.224,-0.568C0.224,-0.575 0.221,-0.578 0.215,-0.578C0.19,-0.568 0.136,-0.542 0.096,-0.533L0.094,-0.53C0.091,-0.503 0.09,-0.469 0.09,-0.429Z" style="fill-rule:nonzero;"/>
                    </g>
                    <g transform="matrix(50,0,0,50,533.657,765.549)">
                        <path d="M0.437,-0.08C0.437,-0.109 0.441,-0.266 0.441,-0.277C0.441,-0.337 0.429,-0.374 0.401,-0.399C0.369,-0.428 0.309,-0.439 0.261,-0.439C0.189,-0.439 0.093,-0.407 0.069,-0.386L0.066,-0.382L0.086,-0.307L0.119,-0.306C0.153,-0.356 0.197,-0.385 0.242,-0.385C0.286,-0.385 0.311,-0.36 0.311,-0.283C0.311,-0.276 0.308,-0.272 0.305,-0.271L0.188,-0.24C0.092,-0.217 0.034,-0.166 0.034,-0.098C0.034,-0.029 0.101,0.01 0.171,0.01C0.21,0.01 0.263,-0.003 0.308,-0.048L0.31,-0.048C0.324,-0.007 0.346,0.01 0.389,0.01C0.428,0.01 0.478,-0 0.508,-0.023C0.507,-0.032 0.504,-0.039 0.498,-0.044C0.458,-0.044 0.437,-0.047 0.437,-0.08ZM0.311,-0.222L0.309,-0.129C0.309,-0.116 0.301,-0.091 0.294,-0.084C0.271,-0.061 0.248,-0.05 0.22,-0.05C0.19,-0.05 0.168,-0.08 0.168,-0.107C0.168,-0.143 0.181,-0.188 0.231,-0.201L0.311,-0.222Z" style="fill-rule:nonzero;"/>
                    </g>
                    <g transform="matrix(50,0,0,50,559.457,765.549)">
                        <path d="M0.09,-0.429C0.07,-0.429 0.048,-0.43 0.036,-0.432C0.031,-0.415 0.024,-0.399 0.014,-0.384L0.019,-0.377C0.036,-0.378 0.067,-0.379 0.09,-0.379L0.087,-0.261C0.086,-0.201 0.084,-0.118 0.084,-0.088C0.084,-0.041 0.117,0.01 0.181,0.01C0.233,0.01 0.285,0.001 0.328,-0.025C0.328,-0.041 0.322,-0.056 0.311,-0.063C0.289,-0.052 0.279,-0.051 0.253,-0.051C0.226,-0.051 0.216,-0.09 0.216,-0.131L0.216,-0.138C0.216,-0.169 0.216,-0.216 0.217,-0.272L0.219,-0.379L0.257,-0.379C0.281,-0.379 0.316,-0.378 0.329,-0.377C0.331,-0.392 0.335,-0.409 0.341,-0.424L0.336,-0.432C0.317,-0.43 0.289,-0.429 0.266,-0.429L0.219,-0.429C0.219,-0.485 0.22,-0.515 0.224,-0.568C0.224,-0.575 0.221,-0.578 0.215,-0.578C0.19,-0.568 0.136,-0.542 0.096,-0.533L0.094,-0.53C0.091,-0.503 0.09,-0.469 0.09,-0.429Z" style="fill-rule:nonzero;"/>
                    </g>
                    <g transform="matrix(50,0,0,50,577.157,765.549)">
                        <path d="M0.448,-0.107C0.402,-0.07 0.353,-0.066 0.311,-0.066C0.262,-0.066 0.226,-0.079 0.202,-0.105C0.18,-0.129 0.169,-0.164 0.169,-0.21L0.269,-0.21C0.369,-0.21 0.454,-0.208 0.454,-0.208L0.46,-0.214C0.46,-0.339 0.425,-0.439 0.271,-0.439C0.216,-0.439 0.156,-0.422 0.117,-0.389C0.068,-0.349 0.035,-0.289 0.035,-0.206C0.035,-0.147 0.057,-0.085 0.098,-0.042C0.132,-0.007 0.191,0.01 0.266,0.01C0.338,0.01 0.41,-0.013 0.464,-0.076C0.464,-0.089 0.458,-0.107 0.448,-0.107ZM0.173,-0.255C0.177,-0.304 0.189,-0.339 0.204,-0.359C0.216,-0.376 0.236,-0.389 0.264,-0.389C0.305,-0.389 0.329,-0.343 0.329,-0.255L0.173,-0.255Z" style="fill-rule:nonzero;"/>
                    </g>
                </g>
            </g>
            <g id="Applicable" transform="matrix(1,0,0,1,460.285,3.24154)">
                <g id="Checkmark2" serif:id="Checkmark" transform="matrix(1,0,0,1,953.592,70.8661)">
                    <path d="M401.575,578.74L401.575,602.362C401.575,608.881 396.282,614.173 389.764,614.173L366.142,614.173C359.623,614.173 354.331,608.881 354.331,602.362L354.331,578.74C354.331,572.221 359.623,566.929 366.142,566.929L389.764,566.929C396.282,566.929 401.575,572.221 401.575,578.74Z" style="fill:none;stroke:black;stroke-width:4.17px;"/>
                    <g transform="matrix(1,0,0,1,-94.4774,-40.0721)">
                        <path d="M453.43,607.82C461.93,615.631 467.25,624.034 472.441,637.795C476.366,621.071 479.618,610.574 491.43,595.19" style="fill:none;stroke:black;stroke-width:10.42px;"/>
                    </g>
                </g>
                <g id="applicable" transform="matrix(1,0,0,1,517.796,16.8342)">
                    <g transform="matrix(50,0,0,50,848.282,661.783)">
                        <path d="M0.437,-0.08C0.437,-0.109 0.441,-0.266 0.441,-0.277C0.441,-0.337 0.429,-0.374 0.401,-0.399C0.369,-0.428 0.309,-0.439 0.261,-0.439C0.189,-0.439 0.093,-0.407 0.069,-0.386L0.066,-0.382L0.086,-0.307L0.119,-0.306C0.153,-0.356 0.197,-0.385 0.242,-0.385C0.286,-0.385 0.311,-0.36 0.311,-0.283C0.311,-0.276 0.308,-0.272 0.305,-0.271L0.188,-0.24C0.092,-0.217 0.034,-0.166 0.034,-0.098C0.034,-0.029 0.101,0.01 0.171,0.01C0.21,0.01 0.263,-0.003 0.308,-0.048L0.31,-0.048C0.324,-0.007 0.346,0.01 0.389,0.01C0.428,0.01 0.478,-0 0.508,-0.023C0.507,-0.032 0.504,-0.039 0.498,-0.044C0.458,-0.044 0.437,-0.047 0.437,-0.08ZM0.311,-0.222L0.309,-0.129C0.309,-0.116 0.301,-0.091 0.294,-0.084C0.271,-0.061 0.248,-0.05 0.22,-0.05C0.19,-0.05 0.168,-0.08 0.168,-0.107C0.168,-0.143 0.181,-0.188 0.231,-0.201L0.311,-0.222Z" style="fill-rule:nonzero;"/>
                    </g>
                    <g transform="matrix(50,0,0,50,874.082,661.783)">
                        <path d="M0.216,-0.358L0.212,-0.361C0.212,-0.384 0.211,-0.417 0.209,-0.425C0.208,-0.432 0.206,-0.435 0.2,-0.435C0.171,-0.43 0.106,-0.43 0.071,-0.432L0.069,-0.429C0.077,-0.386 0.08,-0.31 0.08,-0.235L0.08,0.032C0.08,0.106 0.079,0.178 0.07,0.232L0.071,0.235C0.071,0.235 0.11,0.232 0.145,0.232C0.179,0.232 0.22,0.235 0.22,0.235L0.222,0.232C0.214,0.175 0.212,0.107 0.212,0.032L0.212,-0.018C0.245,0.003 0.282,0.01 0.319,0.01C0.445,0.01 0.543,-0.094 0.543,-0.235C0.543,-0.31 0.52,-0.366 0.473,-0.407C0.449,-0.427 0.415,-0.439 0.371,-0.439C0.328,-0.439 0.265,-0.425 0.216,-0.358ZM0.212,-0.282C0.234,-0.335 0.29,-0.369 0.324,-0.369C0.385,-0.369 0.401,-0.305 0.401,-0.208C0.401,-0.102 0.357,-0.04 0.301,-0.04C0.276,-0.04 0.249,-0.045 0.212,-0.076L0.212,-0.282Z" style="fill-rule:nonzero;"/>
                    </g>
                    <g transform="matrix(50,0,0,50,903.332,661.783)">
                        <path d="M0.216,-0.358L0.212,-0.361C0.212,-0.384 0.211,-0.417 0.209,-0.425C0.208,-0.432 0.206,-0.435 0.2,-0.435C0.171,-0.43 0.106,-0.43 0.071,-0.432L0.069,-0.429C0.077,-0.386 0.08,-0.31 0.08,-0.235L0.08,0.032C0.08,0.106 0.079,0.178 0.07,0.232L0.071,0.235C0.071,0.235 0.11,0.232 0.145,0.232C0.179,0.232 0.22,0.235 0.22,0.235L0.222,0.232C0.214,0.175 0.212,0.107 0.212,0.032L0.212,-0.018C0.245,0.003 0.282,0.01 0.319,0.01C0.445,0.01 0.543,-0.094 0.543,-0.235C0.543,-0.31 0.52,-0.366 0.473,-0.407C0.449,-0.427 0.415,-0.439 0.371,-0.439C0.328,-0.439 0.265,-0.425 0.216,-0.358ZM0.212,-0.282C0.234,-0.335 0.29,-0.369 0.324,-0.369C0.385,-0.369 0.401,-0.305 0.401,-0.208C0.401,-0.102 0.357,-0.04 0.301,-0.04C0.276,-0.04 0.249,-0.045 0.212,-0.076L0.212,-0.282Z" style="fill-rule:nonzero;"/>
                    </g>
                    <g transform="matrix(50,0,0,50,932.582,661.783)">
                        <path d="M0.086,-0.2C0.086,-0.125 0.083,-0.054 0.074,-0L0.075,0.003C0.075,0.003 0.117,-0 0.152,-0C0.186,-0 0.228,0.003 0.228,0.003L0.23,-0C0.222,-0.057 0.218,-0.125 0.218,-0.2L0.218,-0.5C0.218,-0.575 0.222,-0.627 0.23,-0.688C0.23,-0.695 0.225,-0.698 0.219,-0.698C0.194,-0.688 0.117,-0.668 0.076,-0.665L0.074,-0.662C0.082,-0.619 0.086,-0.55 0.086,-0.474L0.086,-0.2Z" style="fill-rule:nonzero;"/>
                    </g>
                    <g transform="matrix(50,0,0,50,947.782,661.783)">
                        <path d="M0.09,-0.235L0.09,-0.18C0.09,-0.105 0.088,-0.054 0.08,-0L0.082,0.003C0.103,0.001 0.121,-0 0.156,-0C0.19,-0 0.211,0.001 0.23,0.003L0.232,-0C0.224,-0.057 0.222,-0.104 0.222,-0.18L0.222,-0.246C0.222,-0.321 0.226,-0.364 0.232,-0.424C0.232,-0.431 0.229,-0.434 0.223,-0.434C0.209,-0.432 0.182,-0.429 0.154,-0.429C0.128,-0.429 0.101,-0.431 0.083,-0.432L0.08,-0.428C0.088,-0.385 0.09,-0.31 0.09,-0.235ZM0.085,-0.607C0.085,-0.569 0.116,-0.538 0.156,-0.538C0.196,-0.538 0.227,-0.569 0.227,-0.607C0.227,-0.645 0.196,-0.676 0.156,-0.676C0.116,-0.676 0.085,-0.645 0.085,-0.607Z" style="fill-rule:nonzero;"/>
                    </g>
                    <g transform="matrix(50,0,0,50,963.382,661.783)">
                        <path d="M0.297,-0.389C0.336,-0.389 0.365,-0.36 0.387,-0.305L0.415,-0.306L0.439,-0.403L0.437,-0.406C0.406,-0.422 0.338,-0.439 0.288,-0.439C0.154,-0.439 0.042,-0.359 0.042,-0.202C0.042,-0.14 0.062,-0.091 0.096,-0.054C0.132,-0.015 0.199,0.01 0.274,0.01C0.35,0.01 0.394,-0.006 0.439,-0.044C0.437,-0.054 0.434,-0.067 0.434,-0.083L0.418,-0.088C0.39,-0.054 0.341,-0.04 0.301,-0.04C0.272,-0.04 0.232,-0.065 0.214,-0.094C0.196,-0.123 0.184,-0.171 0.184,-0.228C0.184,-0.276 0.192,-0.314 0.208,-0.341C0.228,-0.372 0.262,-0.389 0.297,-0.389Z" style="fill-rule:nonzero;"/>
                    </g>
                    <g transform="matrix(50,0,0,50,986.982,661.783)">
                        <path d="M0.437,-0.08C0.437,-0.109 0.441,-0.266 0.441,-0.277C0.441,-0.337 0.429,-0.374 0.401,-0.399C0.369,-0.428 0.309,-0.439 0.261,-0.439C0.189,-0.439 0.093,-0.407 0.069,-0.386L0.066,-0.382L0.086,-0.307L0.119,-0.306C0.153,-0.356 0.197,-0.385 0.242,-0.385C0.286,-0.385 0.311,-0.36 0.311,-0.283C0.311,-0.276 0.308,-0.272 0.305,-0.271L0.188,-0.24C0.092,-0.217 0.034,-0.166 0.034,-0.098C0.034,-0.029 0.101,0.01 0.171,0.01C0.21,0.01 0.263,-0.003 0.308,-0.048L0.31,-0.048C0.324,-0.007 0.346,0.01 0.389,0.01C0.428,0.01 0.478,-0 0.508,-0.023C0.507,-0.032 0.504,-0.039 0.498,-0.044C0.458,-0.044 0.437,-0.047 0.437,-0.08ZM0.311,-0.222L0.309,-0.129C0.309,-0.116 0.301,-0.091 0.294,-0.084C0.271,-0.061 0.248,-0.05 0.22,-0.05C0.19,-0.05 0.168,-0.08 0.168,-0.107C0.168,-0.143 0.181,-0.188 0.231,-0.201L0.311,-0.222Z" style="fill-rule:nonzero;"/>
                    </g>
                    <g transform="matrix(50,0,0,50,1012.78,661.783)">
                        <path d="M0.218,-0.5C0.218,-0.574 0.222,-0.627 0.23,-0.688C0.23,-0.695 0.227,-0.698 0.221,-0.698C0.196,-0.688 0.117,-0.668 0.076,-0.665L0.074,-0.662C0.082,-0.619 0.086,-0.55 0.086,-0.474L0.086,-0.134C0.086,-0.095 0.082,-0.016 0.078,0.006C0.081,0.008 0.083,0.01 0.089,0.011C0.101,0.009 0.147,-0.011 0.161,-0.011C0.172,-0.011 0.202,-0.005 0.218,0.002C0.234,0.009 0.278,0.01 0.314,0.01C0.366,0.01 0.42,-0.006 0.464,-0.043C0.513,-0.085 0.548,-0.153 0.548,-0.242C0.548,-0.301 0.53,-0.355 0.493,-0.389C0.454,-0.425 0.409,-0.439 0.356,-0.439C0.313,-0.439 0.278,-0.429 0.218,-0.384L0.218,-0.5ZM0.235,-0.054C0.221,-0.063 0.218,-0.08 0.218,-0.108L0.218,-0.328C0.267,-0.363 0.288,-0.371 0.312,-0.371C0.373,-0.371 0.406,-0.319 0.406,-0.222C0.406,-0.165 0.399,-0.119 0.384,-0.088C0.367,-0.052 0.336,-0.04 0.308,-0.04C0.274,-0.04 0.251,-0.044 0.235,-0.054Z" style="fill-rule:nonzero;"/>
                    </g>
                    <g transform="matrix(50,0,0,50,1042.08,661.783)">
                        <path d="M0.086,-0.2C0.086,-0.125 0.083,-0.054 0.074,-0L0.075,0.003C0.075,0.003 0.117,-0 0.152,-0C0.186,-0 0.228,0.003 0.228,0.003L0.23,-0C0.222,-0.057 0.218,-0.125 0.218,-0.2L0.218,-0.5C0.218,-0.575 0.222,-0.627 0.23,-0.688C0.23,-0.695 0.225,-0.698 0.219,-0.698C0.194,-0.688 0.117,-0.668 0.076,-0.665L0.074,-0.662C0.082,-0.619 0.086,-0.55 0.086,-0.474L0.086,-0.2Z" style="fill-rule:nonzero;"/>
                    </g>
                    <g transform="matrix(50,0,0,50,1057.28,661.783)">
                        <path d="M0.448,-0.107C0.402,-0.07 0.353,-0.066 0.311,-0.066C0.262,-0.066 0.226,-0.079 0.202,-0.105C0.18,-0.129 0.169,-0.164 0.169,-0.21L0.269,-0.21C0.369,-0.21 0.454,-0.208 0.454,-0.208L0.46,-0.214C0.46,-0.339 0.425,-0.439 0.271,-0.439C0.216,-0.439 0.156,-0.422 0.117,-0.389C0.068,-0.349 0.035,-0.289 0.035,-0.206C0.035,-0.147 0.057,-0.085 0.098,-0.042C0.132,-0.007 0.191,0.01 0.266,0.01C0.338,0.01 0.41,-0.013 0.464,-0.076C0.464,-0.089 0.458,-0.107 0.448,-0.107ZM0.173,-0.255C0.177,-0.304 0.189,-0.339 0.204,-0.359C0.216,-0.376 0.236,-0.389 0.264,-0.389C0.305,-0.389 0.329,-0.343 0.329,-0.255L0.173,-0.255Z" style="fill-rule:nonzero;"/>
                    </g>
                </g>
            </g>
        </g>
        <g transform="matrix(1.24928,0,0,1.24928,-321.04,-227.329)">
            <g transform="matrix(0.800463,-0,-0,0.800463,255.313,659.739)">
                <path d="M550.262,169.026L569.012,175.276L550.262,181.526L550.262,169.026Z"/>
                <path d="M332.792,175.276L554.012,175.276" style="fill:none;stroke:black;stroke-width:4.17px;"/>
            </g>
        </g>
        <g transform="matrix(1.24928,0,0,1,245.889,-27.8965)">
            <g transform="matrix(0.800463,-0,-0,1,-198.493,624.764)">
                <path d="M1117.19,169.026L1135.94,175.276L1117.19,181.526L1117.19,169.026Z"/>
                <path d="M899.721,175.276L1120.94,175.276" style="fill:none;stroke:black;stroke-width:4.17px;"/>
            </g>
        </g>
        <g transform="matrix(1.24928,0,0,1,812.818,-27.8965)">
            <g transform="matrix(0.800463,-0,-0,1,-652.298,624.764)">
                <path d="M1684.12,169.026L1702.87,175.276L1684.12,181.526L1684.12,169.026Z"/>
                <path d="M1466.65,175.276L1687.87,175.276" style="fill:none;stroke:black;stroke-width:4.17px;"/>
            </g>
        </g>
        <g transform="matrix(1,0,0,1,-146.446,-143.286)">
            <g transform="matrix(50,0,0,50,533.415,889.77)">
                <path d="M0.216,-0.358L0.212,-0.361C0.212,-0.384 0.211,-0.417 0.209,-0.425C0.208,-0.432 0.206,-0.435 0.2,-0.435C0.171,-0.43 0.106,-0.43 0.071,-0.432L0.069,-0.429C0.077,-0.386 0.08,-0.31 0.08,-0.235L0.08,0.032C0.08,0.106 0.079,0.178 0.07,0.232L0.071,0.235C0.071,0.235 0.11,0.232 0.145,0.232C0.179,0.232 0.22,0.235 0.22,0.235L0.222,0.232C0.214,0.175 0.212,0.107 0.212,0.032L0.212,-0.018C0.245,0.003 0.282,0.01 0.319,0.01C0.445,0.01 0.543,-0.094 0.543,-0.235C0.543,-0.31 0.52,-0.366 0.473,-0.407C0.449,-0.427 0.415,-0.439 0.371,-0.439C0.328,-0.439 0.265,-0.425 0.216,-0.358ZM0.212,-0.282C0.234,-0.335 0.29,-0.369 0.324,-0.369C0.385,-0.369 0.401,-0.305 0.401,-0.208C0.401,-0.102 0.357,-0.04 0.301,-0.04C0.276,-0.04 0.249,-0.045 0.212,-0.076L0.212,-0.282Z" style="fill-rule:nonzero;"/>
            </g>
            <g transform="matrix(50,0,0,50,562.665,889.77)">
                <path d="M0.437,-0.08C0.437,-0.109 0.441,-0.266 0.441,-0.277C0.441,-0.337 0.429,-0.374 0.401,-0.399C0.369,-0.428 0.309,-0.439 0.261,-0.439C0.189,-0.439 0.093,-0.407 0.069,-0.386L0.066,-0.382L0.086,-0.307L0.119,-0.306C0.153,-0.356 0.197,-0.385 0.242,-0.385C0.286,-0.385 0.311,-0.36 0.311,-0.283C0.311,-0.276 0.308,-0.272 0.305,-0.271L0.188,-0.24C0.092,-0.217 0.034,-0.166 0.034,-0.098C0.034,-0.029 0.101,0.01 0.171,0.01C0.21,0.01 0.263,-0.003 0.308,-0.048L0.31,-0.048C0.324,-0.007 0.346,0.01 0.389,0.01C0.428,0.01 0.478,-0 0.508,-0.023C0.507,-0.032 0.504,-0.039 0.498,-0.044C0.458,-0.044 0.437,-0.047 0.437,-0.08ZM0.311,-0.222L0.309,-0.129C0.309,-0.116 0.301,-0.091 0.294,-0.084C0.271,-0.061 0.248,-0.05 0.22,-0.05C0.19,-0.05 0.168,-0.08 0.168,-0.107C0.168,-0.143 0.181,-0.188 0.231,-0.201L0.311,-0.222Z" style="fill-rule:nonzero;"/>
            </g>
            <g transform="matrix(50,0,0,50,588.465,889.77)">
                <path d="M0.225,-0.349L0.221,-0.352C0.221,-0.375 0.22,-0.417 0.218,-0.425C0.217,-0.432 0.215,-0.435 0.209,-0.435C0.18,-0.43 0.115,-0.43 0.08,-0.432L0.078,-0.429C0.086,-0.386 0.089,-0.31 0.089,-0.235L0.089,-0.18C0.089,-0.105 0.087,-0.054 0.079,-0L0.08,0.003C0.08,0.003 0.112,-0 0.147,-0C0.181,-0 0.229,0.003 0.229,0.003L0.231,-0C0.223,-0.057 0.221,-0.104 0.221,-0.18L0.221,-0.253C0.221,-0.33 0.29,-0.342 0.305,-0.342C0.324,-0.342 0.345,-0.337 0.363,-0.323L0.381,-0.325L0.401,-0.428L0.397,-0.432C0.38,-0.437 0.364,-0.439 0.346,-0.439C0.299,-0.439 0.251,-0.388 0.225,-0.349Z" style="fill-rule:nonzero;"/>
            </g>
            <g transform="matrix(50,0,0,50,609.515,889.77)">
                <path d="M0.054,-0.113L0.038,-0.017C0.092,0.003 0.158,0.01 0.194,0.01C0.324,0.01 0.379,-0.053 0.379,-0.122C0.379,-0.212 0.308,-0.24 0.237,-0.278C0.204,-0.296 0.177,-0.313 0.177,-0.345C0.177,-0.373 0.187,-0.394 0.226,-0.394C0.275,-0.394 0.304,-0.347 0.317,-0.319L0.344,-0.32L0.363,-0.41L0.361,-0.413C0.334,-0.428 0.276,-0.439 0.228,-0.439C0.138,-0.439 0.059,-0.395 0.059,-0.318C0.059,-0.248 0.108,-0.212 0.165,-0.181C0.238,-0.141 0.26,-0.123 0.26,-0.083C0.26,-0.036 0.229,-0.034 0.191,-0.034C0.156,-0.034 0.114,-0.056 0.084,-0.114L0.054,-0.113Z" style="fill-rule:nonzero;"/>
            </g>
            <g transform="matrix(50,0,0,50,630.465,889.77)">
                <path d="M0.448,-0.107C0.402,-0.07 0.353,-0.066 0.311,-0.066C0.262,-0.066 0.226,-0.079 0.202,-0.105C0.18,-0.129 0.169,-0.164 0.169,-0.21L0.269,-0.21C0.369,-0.21 0.454,-0.208 0.454,-0.208L0.46,-0.214C0.46,-0.339 0.425,-0.439 0.271,-0.439C0.216,-0.439 0.156,-0.422 0.117,-0.389C0.068,-0.349 0.035,-0.289 0.035,-0.206C0.035,-0.147 0.057,-0.085 0.098,-0.042C0.132,-0.007 0.191,0.01 0.266,0.01C0.338,0.01 0.41,-0.013 0.464,-0.076C0.464,-0.089 0.458,-0.107 0.448,-0.107ZM0.173,-0.255C0.177,-0.304 0.189,-0.339 0.204,-0.359C0.216,-0.376 0.236,-0.389 0.264,-0.389C0.305,-0.389 0.329,-0.343 0.329,-0.255L0.173,-0.255Z" style="fill-rule:nonzero;"/>
            </g>
        </g>
        <g transform="matrix(1,0,0,1,386.845,-143.286)">
            <g transform="matrix(50,0,0,50,533.415,889.77)">
                <path d="M0.214,0.003C0.225,0.001 0.259,-0 0.269,-0C0.279,-0 0.303,0.001 0.311,0.003C0.374,-0.133 0.455,-0.289 0.53,-0.432C0.521,-0.429 0.483,-0.429 0.473,-0.429C0.463,-0.429 0.439,-0.429 0.43,-0.432C0.399,-0.341 0.347,-0.205 0.3,-0.123L0.294,-0.123C0.254,-0.218 0.211,-0.338 0.181,-0.432C0.168,-0.429 0.121,-0.429 0.107,-0.429C0.091,-0.429 0.036,-0.429 0.02,-0.432C0.091,-0.285 0.158,-0.143 0.214,0.003Z" style="fill-rule:nonzero;"/>
            </g>
            <g transform="matrix(50,0,0,50,560.915,889.77)">
                <path d="M0.437,-0.08C0.437,-0.109 0.441,-0.266 0.441,-0.277C0.441,-0.337 0.429,-0.374 0.401,-0.399C0.369,-0.428 0.309,-0.439 0.261,-0.439C0.189,-0.439 0.093,-0.407 0.069,-0.386L0.066,-0.382L0.086,-0.307L0.119,-0.306C0.153,-0.356 0.197,-0.385 0.242,-0.385C0.286,-0.385 0.311,-0.36 0.311,-0.283C0.311,-0.276 0.308,-0.272 0.305,-0.271L0.188,-0.24C0.092,-0.217 0.034,-0.166 0.034,-0.098C0.034,-0.029 0.101,0.01 0.171,0.01C0.21,0.01 0.263,-0.003 0.308,-0.048L0.31,-0.048C0.324,-0.007 0.346,0.01 0.389,0.01C0.428,0.01 0.478,-0 0.508,-0.023C0.507,-0.032 0.504,-0.039 0.498,-0.044C0.458,-0.044 0.437,-0.047 0.437,-0.08ZM0.311,-0.222L0.309,-0.129C0.309,-0.116 0.301,-0.091 0.294,-0.084C0.271,-0.061 0.248,-0.05 0.22,-0.05C0.19,-0.05 0.168,-0.08 0.168,-0.107C0.168,-0.143 0.181,-0.188 0.231,-0.201L0.311,-0.222Z" style="fill-rule:nonzero;"/>
            </g>
            <g transform="matrix(50,0,0,50,586.715,889.77)">
                <path d="M0.086,-0.2C0.086,-0.125 0.083,-0.054 0.074,-0L0.075,0.003C0.075,0.003 0.117,-0 0.152,-0C0.186,-0 0.228,0.003 0.228,0.003L0.23,-0C0.222,-0.057 0.218,-0.125 0.218,-0.2L0.218,-0.5C0.218,-0.575 0.222,-0.627 0.23,-0.688C0.23,-0.695 0.225,-0.698 0.219,-0.698C0.194,-0.688 0.117,-0.668 0.076,-0.665L0.074,-0.662C0.082,-0.619 0.086,-0.55 0.086,-0.474L0.086,-0.2Z" style="fill-rule:nonzero;"/>
            </g>
            <g transform="matrix(50,0,0,50,601.915,889.77)">
                <path d="M0.09,-0.235L0.09,-0.18C0.09,-0.105 0.088,-0.054 0.08,-0L0.082,0.003C0.103,0.001 0.121,-0 0.156,-0C0.19,-0 0.211,0.001 0.23,0.003L0.232,-0C0.224,-0.057 0.222,-0.104 0.222,-0.18L0.222,-0.246C0.222,-0.321 0.226,-0.364 0.232,-0.424C0.232,-0.431 0.229,-0.434 0.223,-0.434C0.209,-0.432 0.182,-0.429 0.154,-0.429C0.128,-0.429 0.101,-0.431 0.083,-0.432L0.08,-0.428C0.088,-0.385 0.09,-0.31 0.09,-0.235ZM0.085,-0.607C0.085,-0.569 0.116,-0.538 0.156,-0.538C0.196,-0.538 0.227,-0.569 0.227,-0.607C0.227,-0.645 0.196,-0.676 0.156,-0.676C0.116,-0.676 0.085,-0.645 0.085,-0.607Z" style="fill-rule:nonzero;"/>
            </g>
            <g transform="matrix(50,0,0,50,617.515,889.77)">
                <path d="M0.373,-0.054L0.375,-0.054L0.38,-0C0.38,0.002 0.383,0.003 0.389,0.003C0.402,0.001 0.438,-0 0.453,-0C0.465,-0 0.509,0.001 0.522,0.003L0.524,-0C0.516,-0.043 0.505,-0.117 0.505,-0.192L0.505,-0.5C0.505,-0.574 0.509,-0.627 0.517,-0.688C0.517,-0.695 0.512,-0.698 0.506,-0.698C0.481,-0.688 0.404,-0.668 0.363,-0.665L0.361,-0.662C0.369,-0.619 0.373,-0.55 0.373,-0.474L0.373,-0.394C0.354,-0.421 0.308,-0.439 0.279,-0.439C0.212,-0.439 0.176,-0.426 0.13,-0.393C0.068,-0.348 0.044,-0.275 0.044,-0.203C0.044,-0.08 0.119,0.01 0.23,0.01C0.293,0.01 0.346,-0.008 0.373,-0.054ZM0.373,-0.133C0.349,-0.069 0.317,-0.048 0.276,-0.048C0.222,-0.048 0.186,-0.096 0.186,-0.221C0.186,-0.356 0.23,-0.389 0.278,-0.389C0.325,-0.389 0.363,-0.355 0.373,-0.303L0.373,-0.133Z" style="fill-rule:nonzero;"/>
            </g>
            <g transform="matrix(50,0,0,50,647.065,889.77)">
                <path d="M0.437,-0.08C0.437,-0.109 0.441,-0.266 0.441,-0.277C0.441,-0.337 0.429,-0.374 0.401,-0.399C0.369,-0.428 0.309,-0.439 0.261,-0.439C0.189,-0.439 0.093,-0.407 0.069,-0.386L0.066,-0.382L0.086,-0.307L0.119,-0.306C0.153,-0.356 0.197,-0.385 0.242,-0.385C0.286,-0.385 0.311,-0.36 0.311,-0.283C0.311,-0.276 0.308,-0.272 0.305,-0.271L0.188,-0.24C0.092,-0.217 0.034,-0.166 0.034,-0.098C0.034,-0.029 0.101,0.01 0.171,0.01C0.21,0.01 0.263,-0.003 0.308,-0.048L0.31,-0.048C0.324,-0.007 0.346,0.01 0.389,0.01C0.428,0.01 0.478,-0 0.508,-0.023C0.507,-0.032 0.504,-0.039 0.498,-0.044C0.458,-0.044 0.437,-0.047 0.437,-0.08ZM0.311,-0.222L0.309,-0.129C0.309,-0.116 0.301,-0.091 0.294,-0.084C0.271,-0.061 0.248,-0.05 0.22,-0.05C0.19,-0.05 0.168,-0.08 0.168,-0.107C0.168,-0.143 0.181,-0.188 0.231,-0.201L0.311,-0.222Z" style="fill-rule:nonzero;"/>
            </g>
            <g transform="matrix(50,0,0,50,672.865,889.77)">
                <path d="M0.09,-0.429C0.07,-0.429 0.048,-0.43 0.036,-0.432C0.031,-0.415 0.024,-0.399 0.014,-0.384L0.019,-0.377C0.036,-0.378 0.067,-0.379 0.09,-0.379L0.087,-0.261C0.086,-0.201 0.084,-0.118 0.084,-0.088C0.084,-0.041 0.117,0.01 0.181,0.01C0.233,0.01 0.285,0.001 0.328,-0.025C0.328,-0.041 0.322,-0.056 0.311,-0.063C0.289,-0.052 0.279,-0.051 0.253,-0.051C0.226,-0.051 0.216,-0.09 0.216,-0.131L0.216,-0.138C0.216,-0.169 0.216,-0.216 0.217,-0.272L0.219,-0.379L0.257,-0.379C0.281,-0.379 0.316,-0.378 0.329,-0.377C0.331,-0.392 0.335,-0.409 0.341,-0.424L0.336,-0.432C0.317,-0.43 0.289,-0.429 0.266,-0.429L0.219,-0.429C0.219,-0.485 0.22,-0.515 0.224,-0.568C0.224,-0.575 0.221,-0.578 0.215,-0.578C0.19,-0.568 0.136,-0.542 0.096,-0.533L0.094,-0.53C0.091,-0.503 0.09,-0.469 0.09,-0.429Z" style="fill-rule:nonzero;"/>
            </g>
            <g transform="matrix(50,0,0,50,690.565,889.77)">
                <path d="M0.448,-0.107C0.402,-0.07 0.353,-0.066 0.311,-0.066C0.262,-0.066 0.226,-0.079 0.202,-0.105C0.18,-0.129 0.169,-0.164 0.169,-0.21L0.269,-0.21C0.369,-0.21 0.454,-0.208 0.454,-0.208L0.46,-0.214C0.46,-0.339 0.425,-0.439 0.271,-0.439C0.216,-0.439 0.156,-0.422 0.117,-0.389C0.068,-0.349 0.035,-0.289 0.035,-0.206C0.035,-0.147 0.057,-0.085 0.098,-0.042C0.132,-0.007 0.191,0.01 0.266,0.01C0.338,0.01 0.41,-0.013 0.464,-0.076C0.464,-0.089 0.458,-0.107 0.448,-0.107ZM0.173,-0.255C0.177,-0.304 0.189,-0.339 0.204,-0.359C0.216,-0.376 0.236,-0.389 0.264,-0.389C0.305,-0.389 0.329,-0.343 0.329,-0.255L0.173,-0.255Z" style="fill-rule:nonzero;"/>
            </g>
        </g>
        <g transform="matrix(1,0,0,1,572.422,-483.89)">
            <g transform="matrix(50,0,0,50,923.605,1230.37)">
                <path d="M0.448,-0.107C0.402,-0.07 0.353,-0.066 0.311,-0.066C0.262,-0.066 0.226,-0.079 0.202,-0.105C0.18,-0.129 0.169,-0.164 0.169,-0.21L0.269,-0.21C0.369,-0.21 0.454,-0.208 0.454,-0.208L0.46,-0.214C0.46,-0.339 0.425,-0.439 0.271,-0.439C0.216,-0.439 0.156,-0.422 0.117,-0.389C0.068,-0.349 0.035,-0.289 0.035,-0.206C0.035,-0.147 0.057,-0.085 0.098,-0.042C0.132,-0.007 0.191,0.01 0.266,0.01C0.338,0.01 0.41,-0.013 0.464,-0.076C0.464,-0.089 0.458,-0.107 0.448,-0.107ZM0.173,-0.255C0.177,-0.304 0.189,-0.339 0.204,-0.359C0.216,-0.376 0.236,-0.389 0.264,-0.389C0.305,-0.389 0.329,-0.343 0.329,-0.255L0.173,-0.255Z" style="fill-rule:nonzero;"/>
            </g>
            <g transform="matrix(50,0,0,50,948.655,1230.37)">
                <path d="M0.191,-0.207L0.187,-0.203L0.024,0.003C0.034,-0 0.069,-0 0.079,-0C0.089,-0 0.123,-0 0.133,0.003C0.168,-0.05 0.205,-0.1 0.242,-0.152C0.278,-0.1 0.315,-0.05 0.348,0.003C0.363,-0 0.428,-0 0.444,-0C0.459,-0 0.499,-0 0.514,0.003C0.455,-0.073 0.399,-0.147 0.346,-0.223L0.332,-0.242L0.496,-0.432C0.485,-0.429 0.461,-0.429 0.451,-0.429C0.44,-0.429 0.396,-0.429 0.385,-0.432C0.353,-0.385 0.318,-0.34 0.283,-0.294C0.25,-0.34 0.218,-0.385 0.19,-0.432C0.173,-0.429 0.134,-0.429 0.117,-0.429C0.101,-0.429 0.036,-0.429 0.02,-0.432L0.186,-0.213L0.191,-0.207Z" style="fill-rule:nonzero;"/>
            </g>
            <g transform="matrix(50,0,0,50,975.355,1230.37)">
                <path d="M0.448,-0.107C0.402,-0.07 0.353,-0.066 0.311,-0.066C0.262,-0.066 0.226,-0.079 0.202,-0.105C0.18,-0.129 0.169,-0.164 0.169,-0.21L0.269,-0.21C0.369,-0.21 0.454,-0.208 0.454,-0.208L0.46,-0.214C0.46,-0.339 0.425,-0.439 0.271,-0.439C0.216,-0.439 0.156,-0.422 0.117,-0.389C0.068,-0.349 0.035,-0.289 0.035,-0.206C0.035,-0.147 0.057,-0.085 0.098,-0.042C0.132,-0.007 0.191,0.01 0.266,0.01C0.338,0.01 0.41,-0.013 0.464,-0.076C0.464,-0.089 0.458,-0.107 0.448,-0.107ZM0.173,-0.255C0.177,-0.304 0.189,-0.339 0.204,-0.359C0.216,-0.376 0.236,-0.389 0.264,-0.389C0.305,-0.389 0.329,-0.343 0.329,-0.255L0.173,-0.255Z" style="fill-rule:nonzero;"/>
            </g>
            <g transform="matrix(50,0,0,50,1001.1,1230.37)">
                <path d="M0.297,-0.389C0.336,-0.389 0.365,-0.36 0.387,-0.305L0.415,-0.306L0.439,-0.403L0.437,-0.406C0.406,-0.422 0.338,-0.439 0.288,-0.439C0.154,-0.439 0.042,-0.359 0.042,-0.202C0.042,-0.14 0.062,-0.091 0.096,-0.054C0.132,-0.015 0.199,0.01 0.274,0.01C0.35,0.01 0.394,-0.006 0.439,-0.044C0.437,-0.054 0.434,-0.067 0.434,-0.083L0.418,-0.088C0.39,-0.054 0.341,-0.04 0.301,-0.04C0.272,-0.04 0.232,-0.065 0.214,-0.094C0.196,-0.123 0.184,-0.171 0.184,-0.228C0.184,-0.276 0.192,-0.314 0.208,-0.341C0.228,-0.372 0.262,-0.389 0.297,-0.389Z" style="fill-rule:nonzero;"/>
            </g>
            <g transform="matrix(50,0,0,50,1024.7,1230.37)">
                <path d="M0.372,-0.064L0.374,-0.064L0.379,-0C0.379,0.002 0.382,0.003 0.388,0.003C0.401,0.001 0.431,-0 0.446,-0C0.458,-0 0.506,0.001 0.519,0.003L0.521,-0C0.513,-0.043 0.504,-0.117 0.504,-0.192L0.504,-0.249C0.504,-0.324 0.504,-0.376 0.513,-0.429L0.512,-0.432C0.512,-0.432 0.47,-0.429 0.435,-0.429C0.401,-0.429 0.367,-0.432 0.367,-0.432L0.365,-0.429C0.372,-0.373 0.372,-0.325 0.372,-0.249L0.372,-0.169C0.372,-0.111 0.305,-0.067 0.26,-0.067C0.23,-0.067 0.201,-0.077 0.203,-0.159L0.205,-0.249C0.207,-0.324 0.208,-0.378 0.213,-0.429L0.212,-0.432C0.212,-0.432 0.172,-0.429 0.137,-0.429C0.103,-0.429 0.067,-0.432 0.067,-0.432L0.065,-0.429C0.071,-0.372 0.074,-0.321 0.073,-0.249L0.071,-0.126C0.07,-0.057 0.105,0.01 0.204,0.01C0.245,0.01 0.316,-0.004 0.372,-0.064Z" style="fill-rule:nonzero;"/>
            </g>
            <g transform="matrix(50,0,0,50,1054.25,1230.37)">
                <path d="M0.09,-0.429C0.07,-0.429 0.048,-0.43 0.036,-0.432C0.031,-0.415 0.024,-0.399 0.014,-0.384L0.019,-0.377C0.036,-0.378 0.067,-0.379 0.09,-0.379L0.087,-0.261C0.086,-0.201 0.084,-0.118 0.084,-0.088C0.084,-0.041 0.117,0.01 0.181,0.01C0.233,0.01 0.285,0.001 0.328,-0.025C0.328,-0.041 0.322,-0.056 0.311,-0.063C0.289,-0.052 0.279,-0.051 0.253,-0.051C0.226,-0.051 0.216,-0.09 0.216,-0.131L0.216,-0.138C0.216,-0.169 0.216,-0.216 0.217,-0.272L0.219,-0.379L0.257,-0.379C0.281,-0.379 0.316,-0.378 0.329,-0.377C0.331,-0.392 0.335,-0.409 0.341,-0.424L0.336,-0.432C0.317,-0.43 0.289,-0.429 0.266,-0.429L0.219,-0.429C0.219,-0.485 0.22,-0.515 0.224,-0.568C0.224,-0.575 0.221,-0.578 0.215,-0.578C0.19,-0.568 0.136,-0.542 0.096,-0.533L0.094,-0.53C0.091,-0.503 0.09,-0.469 0.09,-0.429Z" style="fill-rule:nonzero;"/>
            </g>
            <g transform="matrix(50,0,0,50,1071.95,1230.37)">
                <path d="M0.448,-0.107C0.402,-0.07 0.353,-0.066 0.311,-0.066C0.262,-0.066 0.226,-0.079 0.202,-0.105C0.18,-0.129 0.169,-0.164 0.169,-0.21L0.269,-0.21C0.369,-0.21 0.454,-0.208 0.454,-0.208L0.46,-0.214C0.46,-0.339 0.425,-0.439 0.271,-0.439C0.216,-0.439 0.156,-0.422 0.117,-0.389C0.068,-0.349 0.035,-0.289 0.035,-0.206C0.035,-0.147 0.057,-0.085 0.098,-0.042C0.132,-0.007 0.191,0.01 0.266,0.01C0.338,0.01 0.41,-0.013 0.464,-0.076C0.464,-0.089 0.458,-0.107 0.448,-0.107ZM0.173,-0.255C0.177,-0.304 0.189,-0.339 0.204,-0.359C0.216,-0.376 0.236,-0.389 0.264,-0.389C0.305,-0.389 0.329,-0.343 0.329,-0.255L0.173,-0.255Z" style="fill-rule:nonzero;"/>
            </g>
        </g>
    </g>
</svg>
