<?xml version="1.0" encoding="UTF-8" standalone="no"?><!DOCTYPE svg PUBLIC "-//W3C//DTD SVG 1.1//EN" "http://www.w3.org/Graphics/SVG/1.1/DTD/svg11.dtd"><svg width="100%" height="100%" viewBox="0 0 61 96" version="1.1" xmlns="http://www.w3.org/2000/svg" xmlns:xlink="http://www.w3.org/1999/xlink" xml:space="preserve" xmlns:serif="http://www.serif.com/" style="fill-rule:evenodd;clip-rule:evenodd;stroke-linecap:round;stroke-linejoin:round;stroke-miterlimit:1.5;"><g><path d="M59.5,46.881c0,6.995 -5.679,12.674 -12.674,12.674l-30.651,0c-0.924,0 -3.133,-0.451 -4.175,-0.775c-1.196,-0.371 -3,-1.452 -3,-1.452c0,0 -8.41,5.263 -8.5,2.952c-0.006,-0.144 3.5,-3.766 4,-6c0.5,-2.233 -0.572,-5.823 -1,-7.399c-1.732,-6.375 5.679,-12.675 12.675,-12.675l30.651,0c6.995,0 12.674,5.68 12.674,12.675Z" style="fill:#262626;stroke:#b8d6dd;stroke-width:1px;"/><path d="M45.898,54.869c-0.002,0 0.012,-0.029 0.041,-0.089c0.03,-0.059 0.068,-0.136 0.115,-0.23c0.047,-0.095 0.1,-0.2 0.159,-0.315c0.058,-0.116 0.116,-0.23 0.173,-0.342c0.057,-0.113 0.111,-0.216 0.16,-0.31c0.05,-0.095 0.09,-0.169 0.121,-0.222c-0.047,0.027 -0.101,0.044 -0.16,0.05c-0.059,0.005 -0.128,0.007 -0.206,0.003c-0.108,-0.003 -0.202,-0.023 -0.282,-0.058c-0.081,-0.036 -0.15,-0.081 -0.209,-0.135c-0.059,-0.053 -0.107,-0.113 -0.146,-0.179c-0.039,-0.066 -0.071,-0.13 -0.094,-0.193c-0.024,-0.063 -0.041,-0.121 -0.052,-0.176c-0.01,-0.054 -0.016,-0.097 -0.016,-0.128c0,-0.01 -0.002,-0.109 -0.002,-0.14c0,-0.032 0,-0.064 0.001,-0.097c0.001,-0.032 0.003,-0.06 0.006,-0.083c0.002,-0.011 0.007,-0.04 0.016,-0.086c0.009,-0.047 0.026,-0.102 0.05,-0.168c0.025,-0.065 0.059,-0.134 0.103,-0.208c0.044,-0.074 0.101,-0.144 0.172,-0.209c0.071,-0.065 0.158,-0.121 0.261,-0.169c0.103,-0.047 0.226,-0.077 0.368,-0.09c0.148,-0.013 0.278,-0.004 0.391,0.027c0.114,0.031 0.211,0.076 0.292,0.134c0.082,0.059 0.149,0.127 0.203,0.205c0.054,0.078 0.095,0.158 0.126,0.238c0.03,0.081 0.05,0.159 0.059,0.235c0.01,0.075 0.012,0.14 0.005,0.194c-0.01,0.08 -0.02,0.151 -0.032,0.213c-0.011,0.063 -0.024,0.123 -0.04,0.18c-0.015,0.057 -0.033,0.113 -0.052,0.168c-0.02,0.056 -0.043,0.116 -0.069,0.181c-0.006,0.018 -0.024,0.057 -0.052,0.117c-0.029,0.06 -0.064,0.134 -0.108,0.221c-0.043,0.087 -0.09,0.184 -0.141,0.291c-0.051,0.106 -0.104,0.213 -0.158,0.321c-0.125,0.254 -0.265,0.537 -0.42,0.849l-0.583,0Zm0.11,-2.578c-0,0.064 0.003,0.134 0.01,0.21c0.006,0.077 0.025,0.149 0.057,0.216c0.032,0.068 0.082,0.126 0.15,0.174c0.068,0.048 0.164,0.075 0.288,0.081c0.062,0.004 0.118,-0.004 0.169,-0.023c0.05,-0.019 0.095,-0.043 0.134,-0.074c0.039,-0.031 0.073,-0.066 0.101,-0.105c0.029,-0.039 0.052,-0.078 0.071,-0.116c0.019,-0.038 0.032,-0.074 0.04,-0.106c0.008,-0.033 0.013,-0.059 0.013,-0.079c-0.002,-0.04 -0.003,-0.086 -0.004,-0.136c-0.001,-0.051 -0.006,-0.102 -0.015,-0.154c-0.009,-0.052 -0.024,-0.102 -0.045,-0.15c-0.021,-0.048 -0.051,-0.09 -0.09,-0.126c-0.039,-0.036 -0.089,-0.064 -0.15,-0.084c-0.061,-0.021 -0.138,-0.028 -0.229,-0.023c-0.101,0.005 -0.183,0.03 -0.247,0.075c-0.065,0.046 -0.116,0.096 -0.153,0.152c-0.038,0.055 -0.064,0.109 -0.078,0.161c-0.015,0.052 -0.022,0.088 -0.022,0.107Z" style="fill:#ddd;fill-rule:nonzero;"/><path d="M48.115,53.734l0.51,0l0,-0.51l-0.51,-0l-0,0.51Zm-0,1.135l0.51,0l0,-0.51l-0.51,0l-0,0.51Z" style="fill:#ddd;fill-rule:nonzero;"/><path d="M50.668,53.844c-0.009,0.36 -0.176,0.541 -0.5,0.544c-0.326,-0.003 -0.492,-0.184 -0.498,-0.544l-0,-1.509c0.006,-0.356 0.172,-0.538 0.498,-0.544c0.324,0.006 0.491,0.188 0.5,0.544l0,1.509Zm-1.508,0.029c0.003,0.327 0.108,0.58 0.315,0.757c0.193,0.176 0.424,0.265 0.693,0.269c0.277,-0.004 0.512,-0.093 0.706,-0.269c0.196,-0.177 0.298,-0.43 0.305,-0.757l-0,-1.57c-0.007,-0.328 -0.109,-0.581 -0.305,-0.759c-0.194,-0.176 -0.429,-0.264 -0.706,-0.264c-0.269,0 -0.5,0.088 -0.693,0.264c-0.207,0.178 -0.312,0.431 -0.315,0.759l-0,1.57Z" style="fill:#ddd;fill-rule:nonzero;"/><path d="M52.248,53.26l0.215,0c0.158,0 0.288,0.048 0.391,0.145c0.104,0.099 0.157,0.239 0.161,0.419c-0.004,0.178 -0.057,0.315 -0.161,0.411c-0.103,0.102 -0.229,0.153 -0.379,0.153c-0.14,0 -0.252,-0.038 -0.337,-0.114c-0.083,-0.074 -0.147,-0.17 -0.193,-0.288l-0.51,-0c0.055,0.296 0.177,0.522 0.364,0.678c0.187,0.157 0.402,0.235 0.644,0.235c0.314,-0.004 0.572,-0.104 0.772,-0.301c0.203,-0.192 0.307,-0.455 0.31,-0.788c-0,-0.15 -0.032,-0.293 -0.095,-0.43c-0.067,-0.137 -0.175,-0.254 -0.325,-0.351c0.146,-0.1 0.248,-0.213 0.305,-0.34c0.049,-0.127 0.073,-0.259 0.073,-0.395c-0.003,-0.271 -0.096,-0.505 -0.278,-0.703c-0.19,-0.204 -0.448,-0.307 -0.771,-0.311c-0.256,0.004 -0.476,0.095 -0.66,0.274c-0.187,0.181 -0.293,0.403 -0.319,0.666l0.51,0c0.032,-0.146 0.096,-0.254 0.19,-0.324c0.09,-0.07 0.189,-0.105 0.298,-0.105c0.151,0.003 0.275,0.051 0.371,0.144c0.096,0.096 0.146,0.219 0.149,0.368c0,0.149 -0.048,0.269 -0.144,0.362c-0.096,0.096 -0.231,0.144 -0.405,0.144l-0.176,-0l0,0.451Z" style="fill:#ddd;fill-rule:nonzero;"/><path d="M15.882,51.747c-0.15,-0.186 -0.23,-0.378 -0.238,-0.577c-0.009,-0.199 0.035,-0.369 0.132,-0.511c0.097,-0.141 0.237,-0.238 0.418,-0.291c0.181,-0.053 0.382,-0.027 0.603,0.079c0.097,0.071 0.186,0.124 0.265,0.159c0.08,0.036 0.19,0.089 0.332,0.16c0.133,0.061 0.283,0.108 0.451,0.139c0.168,0.031 0.327,0.037 0.477,0.02c0.301,-0.018 0.533,-0.069 0.696,-0.153c0.164,-0.084 0.281,-0.194 0.352,-0.331c0.07,-0.137 0.112,-0.305 0.126,-0.504c0.013,-0.199 0.019,-0.422 0.019,-0.67c-0.282,0.097 -0.565,0.17 -0.848,0.219c-0.283,0.049 -0.575,0.055 -0.875,0.02c-0.584,-0.071 -1.063,-0.279 -1.439,-0.623c-0.376,-0.345 -0.65,-0.756 -0.822,-1.233c-0.172,-0.478 -0.243,-0.988 -0.212,-1.532c0.031,-0.544 0.157,-1.045 0.378,-1.505c0.132,-0.265 0.314,-0.51 0.543,-0.736c0.23,-0.225 0.489,-0.411 0.776,-0.557c0.287,-0.146 0.588,-0.241 0.902,-0.285c0.313,-0.044 0.616,-0.017 0.908,0.08c0.168,0.062 0.331,0.123 0.491,0.185c0.159,0.062 0.313,0.142 0.464,0.239c0.168,-0.15 0.364,-0.225 0.59,-0.225c0.225,-0 0.417,0.106 0.577,0.318c0.035,0.053 0.075,0.113 0.119,0.179c0.044,0.066 0.066,0.13 0.066,0.192c0.009,0.946 0.011,1.89 0.007,2.831c-0.005,0.942 -0.007,1.885 -0.007,2.831c0,0.38 -0.051,0.734 -0.152,1.061c-0.102,0.327 -0.254,0.616 -0.458,0.868c-0.203,0.252 -0.455,0.458 -0.756,0.617c-0.3,0.159 -0.649,0.261 -1.047,0.305c-0.203,0.018 -0.402,0.026 -0.597,0.026c-0.194,0 -0.393,-0.022 -0.596,-0.066c-0.283,-0.053 -0.555,-0.141 -0.816,-0.265c-0.261,-0.124 -0.519,-0.261 -0.776,-0.411l-0.053,-0.053Zm1.565,-4.044c0.389,0.185 0.747,0.245 1.074,0.179c0.327,-0.067 0.659,-0.215 0.994,-0.445l0,-2.108c-0.256,-0.256 -0.506,-0.435 -0.749,-0.537c-0.243,-0.102 -0.532,-0.13 -0.868,-0.086c-0.062,0.035 -0.122,0.066 -0.179,0.093c-0.058,0.026 -0.117,0.053 -0.179,0.079c-0.186,0.212 -0.327,0.418 -0.425,0.617c-0.097,0.199 -0.154,0.402 -0.172,0.61c-0.018,0.208 -0.002,0.42 0.047,0.636c0.048,0.217 0.121,0.453 0.218,0.71c0.027,0.044 0.067,0.088 0.12,0.132c0.053,0.044 0.092,0.084 0.119,0.12Z" style="fill:#ddd;fill-rule:nonzero;"/><path d="M25.31,45.183l-0,-0.185c-0.08,-0.204 -0.208,-0.347 -0.385,-0.431c-0.176,-0.084 -0.366,-0.135 -0.57,-0.153c-0.115,0.036 -0.207,0.075 -0.278,0.12c-0.071,0.044 -0.133,0.092 -0.186,0.145c-0.053,0.053 -0.101,0.113 -0.146,0.179c-0.044,0.067 -0.097,0.135 -0.159,0.206l0,3.474c0,0.274 -0.082,0.488 -0.245,0.643c-0.164,0.155 -0.345,0.243 -0.544,0.265c-0.199,0.022 -0.382,-0.026 -0.55,-0.146c-0.168,-0.119 -0.256,-0.32 -0.265,-0.603c-0.018,-0.681 -0.025,-1.454 -0.02,-2.32c0.004,-0.867 0.007,-1.835 0.007,-2.904c-0,-0.186 0.055,-0.341 0.165,-0.464c0.111,-0.124 0.243,-0.208 0.398,-0.252c0.155,-0.044 0.314,-0.042 0.477,0.006c0.164,0.049 0.299,0.148 0.405,0.299c0.495,-0.248 0.988,-0.325 1.478,-0.232c0.491,0.092 0.935,0.325 1.333,0.696c0.177,-0.177 0.367,-0.336 0.57,-0.478c0.203,-0.141 0.424,-0.234 0.663,-0.278c0.274,-0.044 0.55,-0.033 0.829,0.033c0.278,0.066 0.537,0.175 0.775,0.325c0.239,0.15 0.449,0.336 0.63,0.557c0.181,0.221 0.316,0.46 0.405,0.716c0.044,0.177 0.066,0.336 0.066,0.477l-0,3.607c-0,0.106 -0.013,0.208 -0.04,0.305c-0.079,0.23 -0.205,0.391 -0.378,0.484c-0.172,0.093 -0.349,0.126 -0.53,0.099c-0.181,-0.026 -0.338,-0.11 -0.471,-0.252c-0.132,-0.141 -0.199,-0.331 -0.199,-0.57l0,-3.567c-0.079,-0.212 -0.194,-0.366 -0.344,-0.464c-0.151,-0.097 -0.305,-0.141 -0.465,-0.132c-0.159,0.009 -0.311,0.066 -0.457,0.172c-0.146,0.106 -0.263,0.252 -0.351,0.438l-0,3.474c-0,0.238 -0.078,0.437 -0.232,0.596c-0.155,0.159 -0.325,0.261 -0.511,0.305c-0.186,0.045 -0.36,0.027 -0.524,-0.053c-0.163,-0.079 -0.258,-0.238 -0.285,-0.477l-0.066,-3.66Z" style="fill:#ddd;fill-rule:nonzero;"/></g><g><path d="M59.5,80.587c0,6.996 -5.679,12.675 -12.674,12.675l-30.651,-0c-0.924,-0 -3.133,-0.452 -4.175,-0.775c-1.196,-0.371 -3,-1.452 -3,-1.452c0,-0 -8.41,5.262 -8.5,2.952c-0.006,-0.145 3.5,-3.767 4,-6c0.5,-2.233 -0.572,-5.823 -1,-7.4c-1.732,-6.375 5.679,-12.674 12.675,-12.674l30.651,-0c6.995,-0 12.674,5.679 12.674,12.674Z" style="fill:#262626;stroke:#b8d6dd;stroke-width:1px;"/><path d="M45.69,88.243c-0.002,0 0.012,-0.03 0.041,-0.089c0.03,-0.059 0.068,-0.136 0.115,-0.231c0.047,-0.094 0.1,-0.199 0.159,-0.315c0.058,-0.115 0.116,-0.229 0.173,-0.342c0.057,-0.112 0.11,-0.215 0.16,-0.31c0.05,-0.094 0.09,-0.168 0.121,-0.222c-0.047,0.028 -0.101,0.045 -0.16,0.05c-0.059,0.006 -0.128,0.007 -0.206,0.004c-0.108,-0.003 -0.202,-0.023 -0.282,-0.059c-0.081,-0.035 -0.15,-0.08 -0.209,-0.134c-0.059,-0.054 -0.107,-0.113 -0.146,-0.179c-0.039,-0.066 -0.071,-0.131 -0.094,-0.193c-0.024,-0.063 -0.041,-0.121 -0.052,-0.176c-0.01,-0.055 -0.016,-0.097 -0.016,-0.128c0,-0.01 -0.002,-0.109 -0.002,-0.141c-0,-0.031 0,-0.063 0.001,-0.096c0.001,-0.033 0.003,-0.06 0.006,-0.083c0.002,-0.011 0.007,-0.04 0.016,-0.087c0.009,-0.046 0.026,-0.102 0.05,-0.167c0.025,-0.065 0.059,-0.135 0.103,-0.209c0.044,-0.074 0.101,-0.143 0.172,-0.208c0.071,-0.065 0.158,-0.122 0.261,-0.169c0.103,-0.047 0.226,-0.077 0.368,-0.09c0.148,-0.013 0.278,-0.004 0.391,0.027c0.114,0.031 0.211,0.075 0.292,0.134c0.082,0.059 0.149,0.127 0.203,0.205c0.054,0.078 0.095,0.158 0.126,0.238c0.03,0.081 0.05,0.159 0.059,0.234c0.01,0.076 0.012,0.141 0.005,0.195c-0.01,0.079 -0.02,0.151 -0.032,0.213c-0.011,0.063 -0.024,0.123 -0.04,0.18c-0.015,0.057 -0.033,0.113 -0.052,0.168c-0.02,0.055 -0.043,0.116 -0.069,0.181c-0.006,0.018 -0.024,0.057 -0.052,0.117c-0.029,0.06 -0.064,0.134 -0.108,0.221c-0.043,0.087 -0.09,0.184 -0.141,0.29c-0.051,0.107 -0.104,0.214 -0.158,0.321c-0.125,0.254 -0.265,0.538 -0.42,0.85l-0.583,0Zm0.11,-2.578c-0,0.063 0.003,0.133 0.01,0.21c0.006,0.076 0.025,0.148 0.057,0.216c0.032,0.068 0.082,0.125 0.15,0.173c0.068,0.048 0.164,0.076 0.288,0.082c0.062,0.003 0.118,-0.004 0.169,-0.023c0.05,-0.019 0.095,-0.044 0.134,-0.075c0.039,-0.03 0.073,-0.065 0.101,-0.105c0.029,-0.039 0.052,-0.077 0.071,-0.116c0.019,-0.038 0.032,-0.073 0.04,-0.106c0.008,-0.032 0.013,-0.058 0.013,-0.078c-0.002,-0.041 -0.003,-0.086 -0.004,-0.137c-0.001,-0.05 -0.006,-0.101 -0.015,-0.153c-0.009,-0.052 -0.024,-0.103 -0.045,-0.151c-0.021,-0.048 -0.051,-0.089 -0.09,-0.125c-0.039,-0.036 -0.089,-0.064 -0.15,-0.084c-0.061,-0.021 -0.138,-0.029 -0.229,-0.024c-0.101,0.005 -0.183,0.03 -0.248,0.076c-0.064,0.046 -0.115,0.096 -0.152,0.151c-0.038,0.056 -0.064,0.109 -0.078,0.162c-0.015,0.052 -0.022,0.087 -0.022,0.107Z" style="fill:#ddd;fill-rule:nonzero;"/><path d="M47.907,87.108l0.51,-0l-0,-0.51l-0.51,-0l-0,0.51Zm-0,1.135l0.51,0l-0,-0.51l-0.51,-0l-0,0.51Z" style="fill:#ddd;fill-rule:nonzero;"/><path d="M50.46,87.218c-0.009,0.359 -0.176,0.541 -0.5,0.544c-0.326,-0.003 -0.492,-0.185 -0.498,-0.544l-0,-1.509c0.006,-0.357 0.172,-0.538 0.498,-0.545c0.324,0.007 0.491,0.188 0.5,0.545l0,1.509Zm-1.508,0.029c0.003,0.327 0.108,0.579 0.315,0.757c0.193,0.176 0.424,0.265 0.693,0.268c0.277,-0.003 0.512,-0.092 0.706,-0.268c0.196,-0.178 0.298,-0.43 0.305,-0.757l-0,-1.57c-0.007,-0.329 -0.109,-0.582 -0.305,-0.759c-0.194,-0.176 -0.429,-0.264 -0.706,-0.264c-0.269,0 -0.5,0.088 -0.693,0.264c-0.207,0.177 -0.312,0.43 -0.315,0.759l-0,1.57Z" style="fill:#ddd;fill-rule:nonzero;"/><path d="M51.222,87.713l1.485,0l-0,0.53l0.51,0l-0,-0.53l0.283,0l0,-0.481l-0.283,0l-0,-1.023l-0.51,0l-0,1.023l-0.931,0l1.204,-2.549l-0.569,0l-1.189,2.549l0,0.481Z" style="fill:#ddd;fill-rule:nonzero;"/><path d="M20.788,85.466c-0.035,0.186 -0.099,0.343 -0.192,0.471c-0.093,0.128 -0.201,0.219 -0.325,0.272c-0.123,0.053 -0.263,0.064 -0.417,0.033c-0.155,-0.031 -0.316,-0.117 -0.484,-0.258c-0.045,-0.045 -0.078,-0.14 -0.1,-0.285c-0.022,-0.146 -0.037,-0.323 -0.046,-0.531c-0.009,-0.208 -0.013,-0.431 -0.013,-0.669l-0,-0.69c-0,-0.221 -0.003,-0.422 -0.007,-0.603c-0.005,-0.181 -0.016,-0.316 -0.033,-0.405c-0.274,0.071 -0.548,0.117 -0.822,0.14c-0.274,0.022 -0.553,0.011 -0.836,-0.034c-0.442,-0.079 -0.811,-0.234 -1.107,-0.464c-0.296,-0.23 -0.528,-0.508 -0.696,-0.835c-0.168,-0.327 -0.276,-0.69 -0.325,-1.087c-0.049,-0.398 -0.042,-0.805 0.02,-1.22c0.062,-0.416 0.188,-0.783 0.378,-1.101c0.19,-0.318 0.424,-0.59 0.703,-0.815c0.278,-0.226 0.59,-0.402 0.934,-0.531c0.345,-0.128 0.708,-0.205 1.088,-0.232c0.177,-0.017 0.373,-0.011 0.59,0.02c0.216,0.031 0.413,0.091 0.59,0.179c0.177,-0.071 0.349,-0.077 0.517,-0.02c0.168,0.058 0.314,0.17 0.438,0.338c0.026,0.045 0.057,0.095 0.092,0.153c0.036,0.057 0.053,0.113 0.053,0.166c0.009,1.326 0.011,2.647 0.007,3.964c-0.004,1.317 -0.007,2.639 -0.007,3.965l0,0.079Zm-3.805,-4.8c0.053,0.239 0.17,0.407 0.351,0.504c0.181,0.098 0.383,0.151 0.604,0.159c0.221,0.009 0.444,-0.013 0.669,-0.066c0.226,-0.053 0.413,-0.11 0.564,-0.172l-0,-2.732c-0.106,-0.035 -0.21,-0.062 -0.312,-0.079c-0.102,-0.018 -0.205,-0.027 -0.311,-0.027c-0.389,0 -0.697,0.071 -0.922,0.212c-0.225,0.142 -0.391,0.327 -0.497,0.557c-0.106,0.23 -0.166,0.489 -0.179,0.776c-0.014,0.287 -0.002,0.577 0.033,0.868Z" style="fill:#ddd;fill-rule:nonzero;"/><path d="M27.246,85.466c-0.035,0.186 -0.1,0.343 -0.192,0.471c-0.093,0.128 -0.202,0.219 -0.325,0.272c-0.124,0.053 -0.263,0.064 -0.418,0.033c-0.155,-0.031 -0.316,-0.117 -0.484,-0.258c-0.044,-0.045 -0.077,-0.14 -0.099,-0.285c-0.022,-0.146 -0.038,-0.323 -0.047,-0.531c-0.009,-0.208 -0.013,-0.431 -0.013,-0.669l-0,-0.69c-0,-0.221 -0.002,-0.422 -0.007,-0.603c-0.004,-0.181 -0.015,-0.316 -0.033,-0.405c-0.274,0.071 -0.548,0.117 -0.822,0.14c-0.274,0.022 -0.552,0.011 -0.835,-0.034c-0.442,-0.079 -0.811,-0.234 -1.107,-0.464c-0.297,-0.23 -0.529,-0.508 -0.697,-0.835c-0.168,-0.327 -0.276,-0.69 -0.324,-1.087c-0.049,-0.398 -0.042,-0.805 0.019,-1.22c0.062,-0.416 0.188,-0.783 0.378,-1.101c0.19,-0.318 0.425,-0.59 0.703,-0.815c0.279,-0.226 0.59,-0.402 0.935,-0.531c0.345,-0.128 0.707,-0.205 1.087,-0.232c0.177,-0.017 0.374,-0.011 0.59,0.02c0.217,0.031 0.414,0.091 0.59,0.179c0.177,-0.071 0.349,-0.077 0.517,-0.02c0.168,0.058 0.314,0.17 0.438,0.338c0.027,0.045 0.057,0.095 0.093,0.153c0.035,0.057 0.053,0.113 0.053,0.166c0.009,1.326 0.011,2.647 0.006,3.964c-0.004,1.317 -0.006,2.639 -0.006,3.965l-0,0.079Zm-3.806,-4.8c0.053,0.239 0.171,0.407 0.352,0.504c0.181,0.098 0.382,0.151 0.603,0.159c0.221,0.009 0.444,-0.013 0.67,-0.066c0.225,-0.053 0.413,-0.11 0.563,-0.172l0,-2.732c-0.106,-0.035 -0.21,-0.062 -0.311,-0.079c-0.102,-0.018 -0.206,-0.027 -0.312,-0.027c-0.389,0 -0.696,0.071 -0.922,0.212c-0.225,0.142 -0.391,0.327 -0.497,0.557c-0.106,0.23 -0.166,0.489 -0.179,0.776c-0.013,0.287 -0.002,0.577 0.033,0.868Z" style="fill:#ddd;fill-rule:nonzero;"/></g><g><path d="M59.5,13.174c0,6.996 -5.679,12.675 -12.674,12.675l-30.651,-0c-0.924,-0 -3.133,-0.452 -4.175,-0.775c-1.196,-0.371 -3,-1.452 -3,-1.452c0,-0 -8.41,5.262 -8.5,2.952c-0.006,-0.145 3.5,-3.767 4,-6c0.5,-2.233 -0.572,-5.823 -1,-7.4c-1.732,-6.374 5.679,-12.674 12.675,-12.674l30.651,0c6.995,0 12.674,5.679 12.674,12.674Z" style="fill:#262626;stroke:#b8d6dd;stroke-width:1px;"/><path d="M45.898,21.243c-0.002,0 0.012,-0.03 0.041,-0.089c0.03,-0.059 0.068,-0.136 0.115,-0.231c0.047,-0.094 0.1,-0.199 0.159,-0.315c0.058,-0.115 0.116,-0.229 0.173,-0.342c0.057,-0.112 0.111,-0.215 0.16,-0.31c0.05,-0.094 0.09,-0.168 0.121,-0.222c-0.047,0.028 -0.101,0.045 -0.16,0.05c-0.059,0.006 -0.128,0.007 -0.206,0.004c-0.108,-0.003 -0.202,-0.023 -0.282,-0.059c-0.081,-0.035 -0.15,-0.08 -0.209,-0.134c-0.059,-0.054 -0.107,-0.113 -0.146,-0.179c-0.039,-0.066 -0.071,-0.131 -0.094,-0.193c-0.024,-0.063 -0.041,-0.121 -0.052,-0.176c-0.01,-0.055 -0.016,-0.097 -0.016,-0.128c0,-0.01 -0.002,-0.109 -0.002,-0.141c0,-0.031 0,-0.063 0.001,-0.096c0.001,-0.033 0.003,-0.06 0.006,-0.083c0.002,-0.011 0.007,-0.04 0.016,-0.087c0.009,-0.046 0.026,-0.102 0.05,-0.167c0.025,-0.065 0.059,-0.135 0.103,-0.209c0.044,-0.074 0.101,-0.143 0.172,-0.208c0.071,-0.065 0.158,-0.122 0.261,-0.169c0.103,-0.047 0.226,-0.077 0.368,-0.09c0.148,-0.013 0.278,-0.004 0.391,0.027c0.114,0.031 0.211,0.075 0.292,0.134c0.082,0.059 0.149,0.127 0.203,0.205c0.054,0.078 0.095,0.158 0.126,0.238c0.03,0.081 0.05,0.159 0.059,0.234c0.01,0.076 0.012,0.141 0.005,0.195c-0.01,0.079 -0.02,0.151 -0.032,0.213c-0.011,0.063 -0.024,0.123 -0.04,0.18c-0.015,0.057 -0.033,0.113 -0.052,0.168c-0.02,0.055 -0.043,0.116 -0.069,0.181c-0.006,0.018 -0.024,0.057 -0.052,0.117c-0.029,0.06 -0.064,0.134 -0.108,0.221c-0.043,0.087 -0.09,0.184 -0.141,0.29c-0.051,0.107 -0.104,0.214 -0.158,0.321c-0.125,0.254 -0.265,0.538 -0.42,0.85l-0.583,0Zm0.11,-2.578c-0,0.063 0.003,0.133 0.01,0.21c0.006,0.076 0.025,0.148 0.057,0.216c0.032,0.068 0.082,0.125 0.15,0.173c0.068,0.048 0.164,0.076 0.288,0.082c0.062,0.003 0.118,-0.004 0.169,-0.023c0.05,-0.019 0.095,-0.044 0.134,-0.075c0.039,-0.03 0.073,-0.065 0.101,-0.105c0.029,-0.039 0.052,-0.077 0.071,-0.116c0.019,-0.038 0.032,-0.073 0.04,-0.106c0.008,-0.032 0.013,-0.058 0.013,-0.078c-0.002,-0.041 -0.003,-0.086 -0.004,-0.137c-0.001,-0.05 -0.006,-0.101 -0.015,-0.153c-0.009,-0.052 -0.024,-0.103 -0.045,-0.151c-0.021,-0.048 -0.051,-0.089 -0.09,-0.125c-0.039,-0.036 -0.089,-0.064 -0.15,-0.084c-0.061,-0.021 -0.138,-0.029 -0.229,-0.024c-0.101,0.005 -0.183,0.03 -0.247,0.076c-0.065,0.046 -0.116,0.096 -0.153,0.151c-0.038,0.056 -0.064,0.109 -0.078,0.162c-0.015,0.052 -0.022,0.087 -0.022,0.107Z" style="fill:#ddd;fill-rule:nonzero;"/><path d="M48.115,20.108l0.51,-0l0,-0.51l-0.51,-0l-0,0.51Zm-0,1.135l0.51,0l0,-0.51l-0.51,-0l-0,0.51Z" style="fill:#ddd;fill-rule:nonzero;"/><path d="M50.668,20.218c-0.009,0.359 -0.176,0.541 -0.5,0.544c-0.326,-0.003 -0.492,-0.185 -0.498,-0.544l-0,-1.509c0.006,-0.357 0.172,-0.538 0.498,-0.545c0.324,0.007 0.491,0.188 0.5,0.545l0,1.509Zm-1.508,0.029c0.003,0.327 0.108,0.579 0.315,0.757c0.193,0.176 0.424,0.265 0.693,0.268c0.277,-0.003 0.512,-0.092 0.706,-0.268c0.196,-0.178 0.298,-0.43 0.305,-0.757l-0,-1.57c-0.007,-0.329 -0.109,-0.582 -0.305,-0.759c-0.194,-0.176 -0.429,-0.264 -0.706,-0.264c-0.269,0 -0.5,0.088 -0.693,0.264c-0.207,0.177 -0.312,0.43 -0.315,0.759l-0,1.57Z" style="fill:#ddd;fill-rule:nonzero;"/><path d="M52.248,19.634l0.215,0c0.158,0 0.288,0.048 0.391,0.144c0.104,0.099 0.157,0.239 0.161,0.42c-0.004,0.178 -0.057,0.314 -0.161,0.41c-0.103,0.103 -0.229,0.154 -0.379,0.154c-0.14,0 -0.252,-0.038 -0.337,-0.115c-0.083,-0.073 -0.147,-0.169 -0.193,-0.288l-0.51,0c0.055,0.296 0.177,0.523 0.364,0.679c0.187,0.156 0.402,0.234 0.644,0.234c0.314,-0.003 0.572,-0.103 0.772,-0.3c0.203,-0.192 0.307,-0.455 0.31,-0.789c-0,-0.149 -0.032,-0.292 -0.095,-0.429c-0.067,-0.137 -0.175,-0.254 -0.325,-0.352c0.146,-0.099 0.248,-0.212 0.305,-0.339c0.049,-0.127 0.073,-0.259 0.073,-0.396c-0.003,-0.27 -0.096,-0.504 -0.278,-0.703c-0.19,-0.203 -0.448,-0.307 -0.771,-0.31c-0.256,0.003 -0.476,0.095 -0.66,0.274c-0.187,0.18 -0.293,0.402 -0.319,0.666l0.51,0c0.032,-0.146 0.096,-0.255 0.19,-0.325c0.09,-0.07 0.189,-0.105 0.298,-0.105c0.151,0.004 0.275,0.052 0.371,0.144c0.096,0.097 0.146,0.219 0.149,0.369c0,0.148 -0.048,0.269 -0.144,0.361c-0.096,0.096 -0.231,0.145 -0.405,0.145l-0.176,-0l0,0.451Z" style="fill:#ddd;fill-rule:nonzero;"/><path d="M17.235,14.911c-0.053,0.292 -0.168,0.502 -0.345,0.63c-0.177,0.128 -0.36,0.188 -0.55,0.179c-0.19,-0.009 -0.358,-0.086 -0.504,-0.232c-0.146,-0.146 -0.219,-0.347 -0.219,-0.603l0,-7.373c0,-0.203 0.08,-0.376 0.239,-0.517c0.159,-0.141 0.336,-0.23 0.53,-0.265c0.195,-0.036 0.376,-0.005 0.544,0.093c0.168,0.097 0.261,0.278 0.278,0.543c0.036,0.46 0.051,0.909 0.047,1.346c-0.005,0.438 -0.011,0.877 -0.02,1.319c0.327,-0.221 0.667,-0.369 1.021,-0.444c0.353,-0.075 0.694,-0.073 1.021,0.007c0.327,0.079 0.632,0.239 0.915,0.477c0.283,0.239 0.512,0.57 0.689,0.995c0.124,0.283 0.208,0.585 0.252,0.908c0.044,0.323 0.069,0.65 0.073,0.981c0.005,0.332 0,0.661 -0.013,0.988c-0.013,0.327 -0.02,0.637 -0.02,0.928c-0,0.186 -0.049,0.354 -0.146,0.504c-0.097,0.15 -0.219,0.261 -0.365,0.332c-0.145,0.07 -0.3,0.092 -0.464,0.066c-0.163,-0.027 -0.311,-0.124 -0.444,-0.292c-0.132,-0.177 -0.214,-0.384 -0.245,-0.623c-0.031,-0.239 -0.04,-0.493 -0.027,-0.762c0.014,-0.27 0.033,-0.546 0.06,-0.829c0.027,-0.283 0.033,-0.555 0.02,-0.816c-0.013,-0.26 -0.064,-0.501 -0.153,-0.722c-0.088,-0.221 -0.243,-0.402 -0.464,-0.544c-0.176,-0.026 -0.336,-0.015 -0.477,0.033c-0.141,0.049 -0.27,0.122 -0.385,0.219c-0.114,0.097 -0.223,0.208 -0.324,0.332c-0.102,0.123 -0.206,0.247 -0.312,0.371c-0.027,0.044 -0.057,0.086 -0.093,0.126c-0.035,0.04 -0.075,0.082 -0.119,0.126l-0,2.519Z" style="fill:#ddd;fill-rule:nonzero;"/><path d="M24.276,14.898c-0.018,0.177 -0.08,0.333 -0.186,0.471c-0.106,0.137 -0.228,0.236 -0.365,0.298c-0.137,0.062 -0.285,0.075 -0.444,0.04c-0.159,-0.036 -0.3,-0.133 -0.424,-0.292c-0.071,-0.088 -0.122,-0.188 -0.153,-0.298c-0.031,-0.111 -0.05,-0.226 -0.059,-0.345c-0.009,-0.12 -0.011,-0.239 -0.007,-0.358c0.005,-0.12 0.007,-0.228 0.007,-0.325c-0.009,-0.522 -0.011,-1.039 -0.007,-1.551c0.005,-0.513 0.002,-1.03 -0.007,-1.552c0,-0.212 -0.013,-0.426 -0.039,-0.643c-0.027,-0.216 -0.014,-0.431 0.039,-0.643c0.045,-0.159 0.122,-0.296 0.233,-0.411c0.11,-0.115 0.234,-0.195 0.371,-0.239c0.137,-0.044 0.278,-0.048 0.424,-0.013c0.146,0.035 0.272,0.128 0.378,0.278c0.141,0.177 0.212,0.352 0.212,0.524l0,1.532c0,0.3 0.005,0.596 0.013,0.888c0.009,0.424 0.014,0.849 0.014,1.273l-0,1.366Zm-1.751,-7.545c0.036,-0.327 0.148,-0.568 0.339,-0.723c0.19,-0.154 0.391,-0.229 0.603,-0.225c0.212,0.004 0.409,0.086 0.59,0.245c0.181,0.159 0.276,0.385 0.285,0.677c0.018,0.3 -0.06,0.532 -0.232,0.696c-0.172,0.163 -0.369,0.256 -0.59,0.278c-0.221,0.022 -0.429,-0.037 -0.623,-0.179c-0.195,-0.141 -0.314,-0.367 -0.358,-0.676l-0.014,-0.093Z" style="fill:#ddd;fill-rule:nonzero;"/></g></svg>