<?xml version="1.0" encoding="UTF-8" standalone="no"?>
<!DOCTYPE svg PUBLIC "-//W3C//DTD SVG 1.1//EN" "http://www.w3.org/Graphics/SVG/1.1/DTD/svg11.dtd">
<svg width="100%" height="100%" viewBox="0 0 247 180" version="1.1" xmlns="http://www.w3.org/2000/svg" xmlns:xlink="http://www.w3.org/1999/xlink" xml:space="preserve" xmlns:serif="http://www.serif.com/" style="fill-rule:evenodd;clip-rule:evenodd;stroke-linecap:round;stroke-linejoin:round;stroke-miterlimit:1.5;">
    <g transform="matrix(1,0,0,1,-40,-293.674)">
        <g>
            <g id="Filled-point" serif:id="Filled point" transform="matrix(1,0,0,1,-10,230)">
                <g transform="matrix(0.5,0,0,0.5,97.5,47.5)">
                    <circle cx="205" cy="105" r="5" style="fill:none;stroke:black;stroke-width:2px;"/>
                </g>
                <g transform="matrix(0.678078,0.678078,-0.553553,0.553553,107.861,-95.6535)">
                    <path d="M210,91L210,96" style="fill:none;stroke:black;stroke-width:0.17px;stroke-linecap:square;stroke-dasharray:0.17,0.17;"/>
                    <path d="M211,91L211,96" style="fill:none;stroke:black;stroke-width:0.17px;stroke-linecap:square;stroke-dasharray:0.17,0.17;"/>
                    <path d="M211,91L211,96" style="fill:none;stroke:black;stroke-width:0.17px;stroke-linecap:square;stroke-dasharray:0.17,0.17;"/>
                    <path d="M210.5,91L210.5,96" style="fill:none;stroke:black;stroke-width:0.17px;stroke-linecap:square;stroke-dasharray:0.17,0.17;"/>
                    <path d="M211.5,91L211.5,96" style="fill:none;stroke:black;stroke-width:0.17px;stroke-linecap:square;stroke-dasharray:0.17,0.17;"/>
                    <path d="M212,91L212,96" style="fill:none;stroke:black;stroke-width:0.17px;stroke-linecap:square;stroke-dasharray:0.17,0.17;"/>
                    <path d="M212.5,91L212.5,96" style="fill:none;stroke:black;stroke-width:0.17px;stroke-linecap:square;stroke-dasharray:0.17,0.17;"/>
                    <path d="M213,91L213,96" style="fill:none;stroke:black;stroke-width:0.17px;stroke-linecap:square;stroke-dasharray:0.17,0.17;"/>
                    <g transform="matrix(1,0,0,1,0.5,0)">
                        <path d="M213,91L213,96" style="fill:none;stroke:black;stroke-width:0.17px;stroke-linecap:square;stroke-dasharray:0.17,0.17;"/>
                    </g>
                    <g transform="matrix(1,0,0,1,1,0)">
                        <path d="M213,91L213,96" style="fill:none;stroke:black;stroke-width:0.17px;stroke-linecap:square;stroke-dasharray:0.17,0.17;"/>
                    </g>
                </g>
            </g>
            <g id="Filled-point1" serif:id="Filled point" transform="matrix(1,0,0,1,-9.85616,330.144)">
                <g transform="matrix(0.5,0,0,0.5,97.5,47.5)">
                    <circle cx="205" cy="105" r="5" style="fill:none;stroke:black;stroke-width:2px;"/>
                </g>
                <g transform="matrix(0.678078,0.678078,-0.553553,0.553553,107.861,-95.6535)">
                    <path d="M210,91L210,96" style="fill:none;stroke:black;stroke-width:0.17px;stroke-linecap:square;stroke-dasharray:0.17,0.17;"/>
                    <path d="M211,91L211,96" style="fill:none;stroke:black;stroke-width:0.17px;stroke-linecap:square;stroke-dasharray:0.17,0.17;"/>
                    <path d="M211,91L211,96" style="fill:none;stroke:black;stroke-width:0.17px;stroke-linecap:square;stroke-dasharray:0.17,0.17;"/>
                    <path d="M210.5,91L210.5,96" style="fill:none;stroke:black;stroke-width:0.17px;stroke-linecap:square;stroke-dasharray:0.17,0.17;"/>
                    <path d="M211.5,91L211.5,96" style="fill:none;stroke:black;stroke-width:0.17px;stroke-linecap:square;stroke-dasharray:0.17,0.17;"/>
                    <path d="M212,91L212,96" style="fill:none;stroke:black;stroke-width:0.17px;stroke-linecap:square;stroke-dasharray:0.17,0.17;"/>
                    <path d="M212.5,91L212.5,96" style="fill:none;stroke:black;stroke-width:0.17px;stroke-linecap:square;stroke-dasharray:0.17,0.17;"/>
                    <path d="M213,91L213,96" style="fill:none;stroke:black;stroke-width:0.17px;stroke-linecap:square;stroke-dasharray:0.17,0.17;"/>
                    <g transform="matrix(1,0,0,1,0.5,0)">
                        <path d="M213,91L213,96" style="fill:none;stroke:black;stroke-width:0.17px;stroke-linecap:square;stroke-dasharray:0.17,0.17;"/>
                    </g>
                    <g transform="matrix(1,0,0,1,1,0)">
                        <path d="M213,91L213,96" style="fill:none;stroke:black;stroke-width:0.17px;stroke-linecap:square;stroke-dasharray:0.17,0.17;"/>
                    </g>
                </g>
            </g>
            <g id="Filled-point2" serif:id="Filled point" transform="matrix(1,0,0,1,-109.856,280.144)">
                <g transform="matrix(0.5,0,0,0.5,97.5,47.5)">
                    <circle cx="205" cy="105" r="5" style="fill:none;stroke:black;stroke-width:2px;"/>
                </g>
                <g transform="matrix(0.678078,0.678078,-0.553553,0.553553,107.861,-95.6535)">
                    <path d="M210,91L210,96" style="fill:none;stroke:black;stroke-width:0.17px;stroke-linecap:square;stroke-dasharray:0.17,0.17;"/>
                    <path d="M211,91L211,96" style="fill:none;stroke:black;stroke-width:0.17px;stroke-linecap:square;stroke-dasharray:0.17,0.17;"/>
                    <path d="M211,91L211,96" style="fill:none;stroke:black;stroke-width:0.17px;stroke-linecap:square;stroke-dasharray:0.17,0.17;"/>
                    <path d="M210.5,91L210.5,96" style="fill:none;stroke:black;stroke-width:0.17px;stroke-linecap:square;stroke-dasharray:0.17,0.17;"/>
                    <path d="M211.5,91L211.5,96" style="fill:none;stroke:black;stroke-width:0.17px;stroke-linecap:square;stroke-dasharray:0.17,0.17;"/>
                    <path d="M212,91L212,96" style="fill:none;stroke:black;stroke-width:0.17px;stroke-linecap:square;stroke-dasharray:0.17,0.17;"/>
                    <path d="M212.5,91L212.5,96" style="fill:none;stroke:black;stroke-width:0.17px;stroke-linecap:square;stroke-dasharray:0.17,0.17;"/>
                    <path d="M213,91L213,96" style="fill:none;stroke:black;stroke-width:0.17px;stroke-linecap:square;stroke-dasharray:0.17,0.17;"/>
                    <g transform="matrix(1,0,0,1,0.5,0)">
                        <path d="M213,91L213,96" style="fill:none;stroke:black;stroke-width:0.17px;stroke-linecap:square;stroke-dasharray:0.17,0.17;"/>
                    </g>
                    <g transform="matrix(1,0,0,1,1,0)">
                        <path d="M213,91L213,96" style="fill:none;stroke:black;stroke-width:0.17px;stroke-linecap:square;stroke-dasharray:0.17,0.17;"/>
                    </g>
                </g>
            </g>
            <g transform="matrix(1,0,0,1.05556,-10,226.944)">
                <path d="M200,100L200,190" style="fill:none;stroke:black;stroke-width:0.97px;"/>
            </g>
            <g transform="matrix(1,0,0,1,-9.5,230)">
                <path d="M102.5,150L250,150" style="fill:none;stroke:black;stroke-width:1px;stroke-linecap:butt;"/>
            </g>
            <g id="Filled-point3" serif:id="Filled point" transform="matrix(1,0,0,1,43.1438,280.144)">
                <g transform="matrix(0.5,0,0,0.5,97.5,47.5)">
                    <circle cx="205" cy="105" r="5" style="fill:none;stroke:black;stroke-width:2px;"/>
                </g>
                <g transform="matrix(0.678078,0.678078,-0.553553,0.553553,107.861,-95.6535)">
                    <path d="M210,91L210,96" style="fill:none;stroke:black;stroke-width:0.17px;stroke-linecap:square;stroke-dasharray:0.17,0.17;"/>
                    <path d="M211,91L211,96" style="fill:none;stroke:black;stroke-width:0.17px;stroke-linecap:square;stroke-dasharray:0.17,0.17;"/>
                    <path d="M211,91L211,96" style="fill:none;stroke:black;stroke-width:0.17px;stroke-linecap:square;stroke-dasharray:0.17,0.17;"/>
                    <path d="M210.5,91L210.5,96" style="fill:none;stroke:black;stroke-width:0.17px;stroke-linecap:square;stroke-dasharray:0.17,0.17;"/>
                    <path d="M211.5,91L211.5,96" style="fill:none;stroke:black;stroke-width:0.17px;stroke-linecap:square;stroke-dasharray:0.17,0.17;"/>
                    <path d="M212,91L212,96" style="fill:none;stroke:black;stroke-width:0.17px;stroke-linecap:square;stroke-dasharray:0.17,0.17;"/>
                    <path d="M212.5,91L212.5,96" style="fill:none;stroke:black;stroke-width:0.17px;stroke-linecap:square;stroke-dasharray:0.17,0.17;"/>
                    <path d="M213,91L213,96" style="fill:none;stroke:black;stroke-width:0.17px;stroke-linecap:square;stroke-dasharray:0.17,0.17;"/>
                    <g transform="matrix(1,0,0,1,0.5,0)">
                        <path d="M213,91L213,96" style="fill:none;stroke:black;stroke-width:0.17px;stroke-linecap:square;stroke-dasharray:0.17,0.17;"/>
                    </g>
                    <g transform="matrix(1,0,0,1,1,0)">
                        <path d="M213,91L213,96" style="fill:none;stroke:black;stroke-width:0.17px;stroke-linecap:square;stroke-dasharray:0.17,0.17;"/>
                    </g>
                </g>
            </g>
            <g transform="matrix(1,0,0,1,-10,230)">
                <path d="M100,152.5L100,229.971" style="fill:none;stroke:black;stroke-width:0.15px;stroke-linecap:butt;stroke-dasharray:0.15,0.15;"/>
            </g>
            <g transform="matrix(1,0,0,1,-10,230)">
                <path d="M97.5,150L70,150" style="fill:none;stroke:black;stroke-width:0.2px;stroke-linecap:butt;stroke-dasharray:0.2,0.2;"/>
            </g>
            <g transform="matrix(1,0,0,1,-10,230)">
                <path d="M200,202.5L200,230.077" style="fill:none;stroke:black;stroke-width:0.15px;stroke-linecap:butt;stroke-dasharray:0.15,0.15;"/>
            </g>
            <g transform="matrix(1,0,0,2.79395,43,-182.852)">
                <path d="M200,202.5L200,230.077" style="fill:none;stroke:black;stroke-width:0.07px;stroke-linecap:butt;stroke-dasharray:0.07,0.07;"/>
            </g>
            <g transform="matrix(1,0,0,1,-10,230)">
                <path d="M197.5,200L70,200" style="fill:none;"/>
                <g transform="matrix(1,-0,-0,1,50,63.6742)">
                    <path d="M20.6,136.626L20,136.326L20.6,136.026L20.6,136.626Z"/>
                    <path d="M147.5,136.326L20.48,136.326" style="fill:none;stroke:black;stroke-width:0.2px;stroke-linecap:butt;stroke-dasharray:0.2,0.2;"/>
                </g>
            </g>
            <g transform="matrix(1,0,0,1,-10,230)">
                <path d="M197.5,100L70,100" style="fill:none;stroke:black;stroke-width:0.15px;stroke-linecap:butt;stroke-dasharray:0.15,0.15;"/>
            </g>
            <g transform="matrix(1,0,0,1,-10,230)">
                <path d="M70,230L70,70" style="fill:none;"/>
                <g transform="matrix(1,-0,-0,1,50,63.6742)">
                    <path d="M17.75,10.151L20,6.776L22.25,10.151" style="fill:none;stroke:black;stroke-width:0.5px;stroke-linejoin:miter;stroke-miterlimit:10;"/>
                    <path d="M20,166.326L20,6.776" style="fill:none;stroke:black;stroke-width:0.5px;"/>
                </g>
            </g>
            <g transform="matrix(0.000479303,1,-1.375,0.000659042,376.216,389.925)">
                <path d="M70,230L70,70" style="fill:none;"/>
                <g transform="matrix(0.000479303,-0.727273,1,0.000348584,-96.412,244.487)">
                    <path d="M236.173,164.049L239.549,166.297L236.175,168.549" style="fill:none;stroke:black;stroke-width:0.5px;stroke-linejoin:miter;stroke-miterlimit:10;"/>
                    <path d="M20,166.402C20,166.402 228.553,166.303 239.549,166.297" style="fill:none;stroke:black;stroke-width:0.5px;"/>
                </g>
            </g>
            <g transform="matrix(1,0,0,1,1.91298,230.591)">
                <g transform="matrix(12,0,0,12,46.5121,150.579)">
                    <path d="M0.25,-0.399C0.289,-0.399 0.324,-0.371 0.35,-0.325L0.363,-0.326L0.386,-0.408L0.384,-0.411C0.353,-0.427 0.301,-0.439 0.251,-0.439C0.147,-0.439 0.038,-0.354 0.038,-0.218C0.038,-0.079 0.117,0.01 0.239,0.01C0.299,0.01 0.346,-0.01 0.386,-0.061L0.367,-0.082L0.363,-0.082C0.325,-0.048 0.293,-0.04 0.256,-0.04C0.183,-0.04 0.126,-0.106 0.126,-0.223C0.126,-0.333 0.184,-0.399 0.25,-0.399Z" style="fill-rule:nonzero;"/>
                </g>
                <g transform="matrix(6.996,0,0,6.996,51.6601,154.575)">
                    <path d="M0.286,-0.189L0.286,-0.443C0.286,-0.551 0.292,-0.591 0.294,-0.605C0.294,-0.61 0.291,-0.61 0.287,-0.61C0.222,-0.589 0.146,-0.55 0.068,-0.526L0.074,-0.497C0.119,-0.502 0.168,-0.513 0.188,-0.513C0.206,-0.513 0.206,-0.473 0.206,-0.437L0.206,-0.189C0.206,-0.111 0.205,-0.057 0.198,-0L0.199,0.003C0.199,0.003 0.227,-0 0.245,-0C0.265,-0 0.293,0.003 0.293,0.003L0.295,-0C0.288,-0.06 0.286,-0.11 0.286,-0.189Z" style="fill-rule:nonzero;"/>
                </g>
            </g>
            <g transform="matrix(1,0,0,1,40.7579,318.421)">
                <g transform="matrix(12,0,0,12,46.5121,150.579)">
                    <path d="M0.185,-0.207L0.028,0.003C0.038,0.001 0.054,-0 0.064,-0C0.074,-0 0.098,0.001 0.108,0.003C0.146,-0.054 0.176,-0.109 0.216,-0.165C0.256,-0.109 0.286,-0.054 0.322,0.003C0.337,0.001 0.357,-0 0.373,-0C0.388,-0 0.415,0.001 0.43,0.003C0.37,-0.075 0.321,-0.152 0.267,-0.23L0.431,-0.432C0.418,-0.43 0.396,-0.429 0.386,-0.429C0.375,-0.429 0.36,-0.43 0.349,-0.432C0.311,-0.376 0.279,-0.323 0.237,-0.269C0.197,-0.323 0.17,-0.376 0.136,-0.432C0.119,-0.43 0.099,-0.429 0.082,-0.429C0.066,-0.429 0.04,-0.43 0.024,-0.432L0.185,-0.207Z" style="fill-rule:nonzero;"/>
                </g>
                <g transform="matrix(6.996,0,0,6.996,51.9721,154.575)">
                    <path d="M0.162,-0.352L0.162,-0.425C0.162,-0.433 0.161,-0.435 0.156,-0.435C0.134,-0.431 0.098,-0.43 0.075,-0.432L0.073,-0.429C0.08,-0.386 0.082,-0.31 0.082,-0.235L0.082,-0.18C0.082,-0.105 0.081,-0.054 0.073,-0L0.075,0.003C0.087,0.001 0.11,-0 0.122,-0C0.134,-0 0.157,0.001 0.169,0.003L0.171,-0C0.163,-0.057 0.162,-0.104 0.162,-0.18L0.162,-0.301C0.209,-0.349 0.265,-0.379 0.3,-0.379C0.338,-0.379 0.366,-0.357 0.366,-0.29L0.366,-0.18C0.366,-0.105 0.365,-0.054 0.357,-0L0.359,0.003C0.371,0.001 0.394,-0 0.406,-0C0.418,-0 0.441,0.001 0.453,0.003L0.455,-0C0.447,-0.057 0.446,-0.104 0.446,-0.18L0.446,-0.281C0.446,-0.295 0.446,-0.307 0.445,-0.319C0.493,-0.372 0.533,-0.379 0.572,-0.379C0.626,-0.379 0.652,-0.357 0.652,-0.29L0.652,-0.18C0.652,-0.105 0.651,-0.054 0.643,-0L0.645,0.003C0.657,0.001 0.68,-0 0.692,-0C0.704,-0 0.727,0.001 0.739,0.003L0.741,-0C0.733,-0.057 0.732,-0.104 0.732,-0.18L0.732,-0.28C0.732,-0.369 0.716,-0.439 0.608,-0.439C0.554,-0.439 0.496,-0.42 0.439,-0.36C0.43,-0.408 0.389,-0.439 0.333,-0.439C0.271,-0.439 0.212,-0.399 0.165,-0.349L0.162,-0.352Z" style="fill-rule:nonzero;"/>
                </g>
                <g transform="matrix(6.996,0,0,6.996,57.6179,154.575)">
                    <path d="M0.09,-0.235L0.09,-0.18C0.09,-0.105 0.088,-0.054 0.081,-0L0.083,0.003C0.095,0.001 0.118,-0 0.13,-0C0.142,-0 0.165,0.001 0.177,0.003L0.179,-0C0.172,-0.057 0.17,-0.104 0.17,-0.18L0.17,-0.251C0.17,-0.326 0.173,-0.362 0.179,-0.423C0.179,-0.432 0.178,-0.433 0.17,-0.433C0.147,-0.431 0.104,-0.43 0.083,-0.432L0.081,-0.429C0.087,-0.386 0.09,-0.31 0.09,-0.235ZM0.08,-0.597C0.08,-0.57 0.104,-0.546 0.131,-0.546C0.158,-0.546 0.182,-0.57 0.182,-0.597C0.182,-0.624 0.158,-0.648 0.131,-0.648C0.104,-0.648 0.08,-0.624 0.08,-0.597Z" style="fill-rule:nonzero;"/>
                </g>
                <g transform="matrix(6.996,0,0,6.996,59.4368,154.575)">
                    <path d="M0.46,-0.18C0.46,-0.212 0.462,-0.249 0.462,-0.281C0.462,-0.385 0.428,-0.439 0.338,-0.439C0.3,-0.439 0.229,-0.424 0.165,-0.349L0.163,-0.352L0.163,-0.425C0.163,-0.433 0.162,-0.435 0.157,-0.435C0.135,-0.431 0.099,-0.43 0.076,-0.432L0.074,-0.429C0.081,-0.386 0.083,-0.31 0.083,-0.235L0.083,-0.18C0.083,-0.105 0.082,-0.054 0.074,-0L0.076,0.003C0.088,0.001 0.111,-0 0.123,-0C0.135,-0 0.158,0.001 0.17,0.003L0.172,-0C0.164,-0.057 0.163,-0.104 0.163,-0.18L0.163,-0.297C0.214,-0.357 0.272,-0.379 0.308,-0.379C0.359,-0.379 0.38,-0.359 0.38,-0.278L0.38,-0.18C0.38,-0.105 0.378,-0.054 0.371,-0L0.373,0.003C0.385,0.001 0.408,-0 0.42,-0C0.432,-0 0.455,0.001 0.467,0.003L0.469,-0C0.461,-0.057 0.46,-0.104 0.46,-0.18Z" style="fill-rule:nonzero;"/>
                </g>
            </g>
            <g transform="matrix(1,0,0,1,194.002,318.421)">
                <g transform="matrix(12,0,0,12,46.5121,150.579)">
                    <path d="M0.185,-0.207L0.028,0.003C0.038,0.001 0.054,-0 0.064,-0C0.074,-0 0.098,0.001 0.108,0.003C0.146,-0.054 0.176,-0.109 0.216,-0.165C0.256,-0.109 0.286,-0.054 0.322,0.003C0.337,0.001 0.357,-0 0.373,-0C0.388,-0 0.415,0.001 0.43,0.003C0.37,-0.075 0.321,-0.152 0.267,-0.23L0.431,-0.432C0.418,-0.43 0.396,-0.429 0.386,-0.429C0.375,-0.429 0.36,-0.43 0.349,-0.432C0.311,-0.376 0.279,-0.323 0.237,-0.269C0.197,-0.323 0.17,-0.376 0.136,-0.432C0.119,-0.43 0.099,-0.429 0.082,-0.429C0.066,-0.429 0.04,-0.43 0.024,-0.432L0.185,-0.207Z" style="fill-rule:nonzero;"/>
                </g>
                <g transform="matrix(6.996,0,0,6.996,51.9721,154.575)">
                    <path d="M0.162,-0.352L0.162,-0.425C0.162,-0.433 0.161,-0.435 0.156,-0.435C0.134,-0.431 0.098,-0.43 0.075,-0.432L0.073,-0.429C0.08,-0.386 0.082,-0.31 0.082,-0.235L0.082,-0.18C0.082,-0.105 0.081,-0.054 0.073,-0L0.075,0.003C0.087,0.001 0.11,-0 0.122,-0C0.134,-0 0.157,0.001 0.169,0.003L0.171,-0C0.163,-0.057 0.162,-0.104 0.162,-0.18L0.162,-0.301C0.209,-0.349 0.265,-0.379 0.3,-0.379C0.338,-0.379 0.366,-0.357 0.366,-0.29L0.366,-0.18C0.366,-0.105 0.365,-0.054 0.357,-0L0.359,0.003C0.371,0.001 0.394,-0 0.406,-0C0.418,-0 0.441,0.001 0.453,0.003L0.455,-0C0.447,-0.057 0.446,-0.104 0.446,-0.18L0.446,-0.281C0.446,-0.295 0.446,-0.307 0.445,-0.319C0.493,-0.372 0.533,-0.379 0.572,-0.379C0.626,-0.379 0.652,-0.357 0.652,-0.29L0.652,-0.18C0.652,-0.105 0.651,-0.054 0.643,-0L0.645,0.003C0.657,0.001 0.68,-0 0.692,-0C0.704,-0 0.727,0.001 0.739,0.003L0.741,-0C0.733,-0.057 0.732,-0.104 0.732,-0.18L0.732,-0.28C0.732,-0.369 0.716,-0.439 0.608,-0.439C0.554,-0.439 0.496,-0.42 0.439,-0.36C0.43,-0.408 0.389,-0.439 0.333,-0.439C0.271,-0.439 0.212,-0.399 0.165,-0.349L0.162,-0.352Z" style="fill-rule:nonzero;"/>
                </g>
                <g transform="matrix(6.996,0,0,6.996,57.6179,154.575)">
                    <path d="M0.31,-0.048C0.322,-0.009 0.351,0.01 0.388,0.01C0.413,0.01 0.444,0.004 0.468,-0.021L0.46,-0.046C0.449,-0.042 0.441,-0.041 0.433,-0.041C0.423,-0.041 0.41,-0.042 0.404,-0.048C0.394,-0.057 0.387,-0.082 0.387,-0.126C0.387,-0.155 0.39,-0.266 0.39,-0.277C0.39,-0.412 0.301,-0.439 0.225,-0.439C0.149,-0.439 0.103,-0.402 0.078,-0.381L0.075,-0.377L0.092,-0.31L0.105,-0.309C0.133,-0.354 0.167,-0.394 0.215,-0.394C0.251,-0.394 0.311,-0.389 0.311,-0.276C0.311,-0.269 0.307,-0.265 0.304,-0.264L0.211,-0.243C0.109,-0.22 0.045,-0.166 0.045,-0.098C0.045,-0.024 0.096,0.01 0.17,0.01C0.225,0.01 0.253,-0.003 0.306,-0.048L0.31,-0.048ZM0.31,-0.225L0.306,-0.106C0.306,-0.093 0.3,-0.086 0.292,-0.08C0.264,-0.059 0.23,-0.041 0.2,-0.041C0.155,-0.041 0.126,-0.071 0.126,-0.102C0.126,-0.147 0.147,-0.181 0.225,-0.202L0.31,-0.225Z" style="fill-rule:nonzero;"/>
                </g>
                <g transform="matrix(6.996,0,0,6.996,60.9829,154.575)">
                    <path d="M0.185,-0.207L0.028,0.003C0.038,0.001 0.054,-0 0.064,-0C0.074,-0 0.098,0.001 0.108,0.003C0.146,-0.054 0.176,-0.109 0.216,-0.165C0.256,-0.109 0.286,-0.054 0.322,0.003C0.337,0.001 0.357,-0 0.373,-0C0.388,-0 0.415,0.001 0.43,0.003C0.37,-0.075 0.321,-0.152 0.267,-0.23L0.431,-0.432C0.418,-0.43 0.396,-0.429 0.386,-0.429C0.375,-0.429 0.36,-0.43 0.349,-0.432C0.311,-0.376 0.279,-0.323 0.237,-0.269C0.197,-0.323 0.17,-0.376 0.136,-0.432C0.119,-0.43 0.099,-0.429 0.082,-0.429C0.066,-0.429 0.04,-0.43 0.024,-0.432L0.185,-0.207Z" style="fill-rule:nonzero;"/>
                </g>
            </g>
            <g transform="matrix(1,0,0,1,140.771,318.505)">
                <g transform="matrix(12,0,0,12,46.5121,150.579)">
                    <path d="M0.31,-0.048C0.322,-0.009 0.351,0.01 0.388,0.01C0.413,0.01 0.444,0.004 0.468,-0.021L0.46,-0.046C0.449,-0.042 0.441,-0.041 0.433,-0.041C0.423,-0.041 0.41,-0.042 0.404,-0.048C0.394,-0.057 0.387,-0.082 0.387,-0.126C0.387,-0.155 0.39,-0.266 0.39,-0.277C0.39,-0.412 0.301,-0.439 0.225,-0.439C0.149,-0.439 0.103,-0.402 0.078,-0.381L0.075,-0.377L0.092,-0.31L0.105,-0.309C0.133,-0.354 0.167,-0.394 0.215,-0.394C0.251,-0.394 0.311,-0.389 0.311,-0.276C0.311,-0.269 0.307,-0.265 0.304,-0.264L0.211,-0.243C0.109,-0.22 0.045,-0.166 0.045,-0.098C0.045,-0.024 0.096,0.01 0.17,0.01C0.225,0.01 0.253,-0.003 0.306,-0.048L0.31,-0.048ZM0.31,-0.225L0.306,-0.106C0.306,-0.093 0.3,-0.086 0.292,-0.08C0.264,-0.059 0.23,-0.041 0.2,-0.041C0.155,-0.041 0.126,-0.071 0.126,-0.102C0.126,-0.147 0.147,-0.181 0.225,-0.202L0.31,-0.225Z" style="fill-rule:nonzero;"/>
                </g>
                <g transform="matrix(6.996,0,0,6.996,52.2841,154.575)">
                    <path d="M0.228,0.01C0.305,0.01 0.421,-0.075 0.421,-0.309C0.421,-0.465 0.364,-0.542 0.328,-0.575C0.301,-0.6 0.269,-0.61 0.233,-0.61C0.133,-0.61 0.039,-0.486 0.039,-0.289C0.039,-0.127 0.104,0.01 0.228,0.01ZM0.233,-0.571C0.25,-0.571 0.266,-0.565 0.277,-0.555C0.308,-0.529 0.335,-0.451 0.335,-0.317C0.335,-0.225 0.332,-0.173 0.318,-0.122C0.296,-0.039 0.247,-0.029 0.229,-0.029C0.136,-0.029 0.125,-0.2 0.125,-0.287C0.125,-0.534 0.187,-0.571 0.233,-0.571Z" style="fill-rule:nonzero;"/>
                </g>
            </g>
            <g transform="matrix(1,0,0,1,149.41,175.189)">
                <g transform="matrix(12,0,0,12,46.5121,150.579)">
                    <path d="M0.31,-0.048C0.322,-0.009 0.351,0.01 0.388,0.01C0.413,0.01 0.444,0.004 0.468,-0.021L0.46,-0.046C0.449,-0.042 0.441,-0.041 0.433,-0.041C0.423,-0.041 0.41,-0.042 0.404,-0.048C0.394,-0.057 0.387,-0.082 0.387,-0.126C0.387,-0.155 0.39,-0.266 0.39,-0.277C0.39,-0.412 0.301,-0.439 0.225,-0.439C0.149,-0.439 0.103,-0.402 0.078,-0.381L0.075,-0.377L0.092,-0.31L0.105,-0.309C0.133,-0.354 0.167,-0.394 0.215,-0.394C0.251,-0.394 0.311,-0.389 0.311,-0.276C0.311,-0.269 0.307,-0.265 0.304,-0.264L0.211,-0.243C0.109,-0.22 0.045,-0.166 0.045,-0.098C0.045,-0.024 0.096,0.01 0.17,0.01C0.225,0.01 0.253,-0.003 0.306,-0.048L0.31,-0.048ZM0.31,-0.225L0.306,-0.106C0.306,-0.093 0.3,-0.086 0.292,-0.08C0.264,-0.059 0.23,-0.041 0.2,-0.041C0.155,-0.041 0.126,-0.071 0.126,-0.102C0.126,-0.147 0.147,-0.181 0.225,-0.202L0.31,-0.225Z" style="fill-rule:nonzero;"/>
                </g>
            </g>
            <g transform="matrix(1,0,0,1,149.11,286.801)">
                <g transform="matrix(12,0,0,12,46.5121,150.579)">
                    <path d="M0.162,-0.5C0.162,-0.574 0.163,-0.627 0.168,-0.688C0.168,-0.695 0.165,-0.698 0.159,-0.698C0.134,-0.688 0.113,-0.681 0.072,-0.678L0.07,-0.675C0.078,-0.632 0.082,-0.558 0.082,-0.482L0.082,-0.073C0.082,-0.034 0.081,-0.02 0.077,0.002C0.083,0.008 0.095,0.01 0.105,0.01C0.116,-0.002 0.128,-0.019 0.138,-0.039C0.167,-0.014 0.213,0.01 0.256,0.01C0.358,0.01 0.471,-0.062 0.471,-0.232C0.471,-0.354 0.384,-0.439 0.287,-0.439C0.239,-0.439 0.196,-0.426 0.162,-0.389L0.162,-0.5ZM0.162,-0.081L0.162,-0.34C0.201,-0.38 0.226,-0.399 0.267,-0.399C0.328,-0.399 0.382,-0.349 0.382,-0.224C0.382,-0.1 0.345,-0.03 0.25,-0.03C0.219,-0.03 0.182,-0.056 0.162,-0.081Z" style="fill-rule:nonzero;"/>
                </g>
            </g>
            <g transform="matrix(1,0,0,1,200.052,225.203)">
                <g transform="matrix(12,0,0,12,46.5121,150.579)">
                    <path d="M0.361,-0.058L0.363,-0.058L0.368,-0C0.368,0.002 0.371,0.003 0.377,0.003C0.39,0.001 0.397,-0 0.412,-0C0.424,-0 0.443,0.001 0.456,0.003L0.458,-0C0.45,-0.043 0.441,-0.117 0.441,-0.192L0.441,-0.5C0.441,-0.574 0.445,-0.626 0.45,-0.688C0.45,-0.695 0.447,-0.698 0.441,-0.698C0.416,-0.688 0.395,-0.681 0.354,-0.678L0.352,-0.675C0.36,-0.632 0.361,-0.558 0.361,-0.482L0.361,-0.417C0.338,-0.43 0.297,-0.439 0.277,-0.439C0.147,-0.439 0.051,-0.349 0.051,-0.213C0.051,-0.09 0.124,0.01 0.232,0.01C0.28,0.01 0.325,-0.012 0.361,-0.058ZM0.361,-0.113C0.325,-0.067 0.279,-0.042 0.238,-0.042C0.184,-0.042 0.138,-0.096 0.138,-0.221C0.138,-0.371 0.218,-0.399 0.266,-0.399C0.313,-0.399 0.337,-0.379 0.361,-0.341L0.361,-0.113Z" style="fill-rule:nonzero;"/>
                </g>
            </g>
            <g transform="matrix(1,0,0,1,35.0319,225.203)">
                <g transform="matrix(12,0,0,12,46.5121,150.579)">
                    <path d="M0.25,-0.399C0.289,-0.399 0.324,-0.371 0.35,-0.325L0.363,-0.326L0.386,-0.408L0.384,-0.411C0.353,-0.427 0.301,-0.439 0.251,-0.439C0.147,-0.439 0.038,-0.354 0.038,-0.218C0.038,-0.079 0.117,0.01 0.239,0.01C0.299,0.01 0.346,-0.01 0.386,-0.061L0.367,-0.082L0.363,-0.082C0.325,-0.048 0.293,-0.04 0.256,-0.04C0.183,-0.04 0.126,-0.106 0.126,-0.223C0.126,-0.333 0.184,-0.399 0.25,-0.399Z" style="fill-rule:nonzero;"/>
                </g>
            </g>
            <g transform="matrix(1,0,0,1,-17.2229,230.93)">
                <g transform="matrix(12,0,0,12,56.8869,100.053)">
                    <path d="M0.028,-0.432C0.068,-0.343 0.187,-0.085 0.222,0.01C0.19,0.085 0.149,0.162 0.104,0.237C0.114,0.234 0.129,0.232 0.139,0.232C0.149,0.232 0.178,0.234 0.188,0.237C0.226,0.112 0.445,-0.365 0.478,-0.432C0.468,-0.429 0.445,-0.429 0.435,-0.429C0.425,-0.429 0.406,-0.429 0.396,-0.432C0.36,-0.319 0.313,-0.191 0.265,-0.088L0.263,-0.088C0.214,-0.207 0.166,-0.318 0.129,-0.432C0.116,-0.429 0.094,-0.429 0.08,-0.429C0.067,-0.429 0.042,-0.429 0.028,-0.432Z" style="fill-rule:nonzero;"/>
                </g>
                <g transform="matrix(6.996,0,0,6.996,62.9589,104.049)">
                    <path d="M0.162,-0.352L0.162,-0.425C0.162,-0.433 0.161,-0.435 0.156,-0.435C0.134,-0.431 0.098,-0.43 0.075,-0.432L0.073,-0.429C0.08,-0.386 0.082,-0.31 0.082,-0.235L0.082,-0.18C0.082,-0.105 0.081,-0.054 0.073,-0L0.075,0.003C0.087,0.001 0.11,-0 0.122,-0C0.134,-0 0.157,0.001 0.169,0.003L0.171,-0C0.163,-0.057 0.162,-0.104 0.162,-0.18L0.162,-0.301C0.209,-0.349 0.265,-0.379 0.3,-0.379C0.338,-0.379 0.366,-0.357 0.366,-0.29L0.366,-0.18C0.366,-0.105 0.365,-0.054 0.357,-0L0.359,0.003C0.371,0.001 0.394,-0 0.406,-0C0.418,-0 0.441,0.001 0.453,0.003L0.455,-0C0.447,-0.057 0.446,-0.104 0.446,-0.18L0.446,-0.281C0.446,-0.295 0.446,-0.307 0.445,-0.319C0.493,-0.372 0.533,-0.379 0.572,-0.379C0.626,-0.379 0.652,-0.357 0.652,-0.29L0.652,-0.18C0.652,-0.105 0.651,-0.054 0.643,-0L0.645,0.003C0.657,0.001 0.68,-0 0.692,-0C0.704,-0 0.727,0.001 0.739,0.003L0.741,-0C0.733,-0.057 0.732,-0.104 0.732,-0.18L0.732,-0.28C0.732,-0.369 0.716,-0.439 0.608,-0.439C0.554,-0.439 0.496,-0.42 0.439,-0.36C0.43,-0.408 0.389,-0.439 0.333,-0.439C0.271,-0.439 0.212,-0.399 0.165,-0.349L0.162,-0.352Z" style="fill-rule:nonzero;"/>
                </g>
                <g transform="matrix(6.996,0,0,6.996,68.6047,104.049)">
                    <path d="M0.31,-0.048C0.322,-0.009 0.351,0.01 0.388,0.01C0.413,0.01 0.444,0.004 0.468,-0.021L0.46,-0.046C0.449,-0.042 0.441,-0.041 0.433,-0.041C0.423,-0.041 0.41,-0.042 0.404,-0.048C0.394,-0.057 0.387,-0.082 0.387,-0.126C0.387,-0.155 0.39,-0.266 0.39,-0.277C0.39,-0.412 0.301,-0.439 0.225,-0.439C0.149,-0.439 0.103,-0.402 0.078,-0.381L0.075,-0.377L0.092,-0.31L0.105,-0.309C0.133,-0.354 0.167,-0.394 0.215,-0.394C0.251,-0.394 0.311,-0.389 0.311,-0.276C0.311,-0.269 0.307,-0.265 0.304,-0.264L0.211,-0.243C0.109,-0.22 0.045,-0.166 0.045,-0.098C0.045,-0.024 0.096,0.01 0.17,0.01C0.225,0.01 0.253,-0.003 0.306,-0.048L0.31,-0.048ZM0.31,-0.225L0.306,-0.106C0.306,-0.093 0.3,-0.086 0.292,-0.08C0.264,-0.059 0.23,-0.041 0.2,-0.041C0.155,-0.041 0.126,-0.071 0.126,-0.102C0.126,-0.147 0.147,-0.181 0.225,-0.202L0.31,-0.225Z" style="fill-rule:nonzero;"/>
                </g>
                <g transform="matrix(6.996,0,0,6.996,71.9697,104.049)">
                    <path d="M0.185,-0.207L0.028,0.003C0.038,0.001 0.054,-0 0.064,-0C0.074,-0 0.098,0.001 0.108,0.003C0.146,-0.054 0.176,-0.109 0.216,-0.165C0.256,-0.109 0.286,-0.054 0.322,0.003C0.337,0.001 0.357,-0 0.373,-0C0.388,-0 0.415,0.001 0.43,0.003C0.37,-0.075 0.321,-0.152 0.267,-0.23L0.431,-0.432C0.418,-0.43 0.396,-0.429 0.386,-0.429C0.375,-0.429 0.36,-0.43 0.349,-0.432C0.311,-0.376 0.279,-0.323 0.237,-0.269C0.197,-0.323 0.17,-0.376 0.136,-0.432C0.119,-0.43 0.099,-0.429 0.082,-0.429C0.066,-0.429 0.04,-0.43 0.024,-0.432L0.185,-0.207Z" style="fill-rule:nonzero;"/>
                </g>
            </g>
            <g transform="matrix(1,0,0,1,-15.9426,330.916)">
                <g transform="matrix(12,0,0,12,56.8869,100.053)">
                    <path d="M0.028,-0.432C0.068,-0.343 0.187,-0.085 0.222,0.01C0.19,0.085 0.149,0.162 0.104,0.237C0.114,0.234 0.129,0.232 0.139,0.232C0.149,0.232 0.178,0.234 0.188,0.237C0.226,0.112 0.445,-0.365 0.478,-0.432C0.468,-0.429 0.445,-0.429 0.435,-0.429C0.425,-0.429 0.406,-0.429 0.396,-0.432C0.36,-0.319 0.313,-0.191 0.265,-0.088L0.263,-0.088C0.214,-0.207 0.166,-0.318 0.129,-0.432C0.116,-0.429 0.094,-0.429 0.08,-0.429C0.067,-0.429 0.042,-0.429 0.028,-0.432Z" style="fill-rule:nonzero;"/>
                </g>
                <g transform="matrix(6.996,0,0,6.996,62.9589,104.049)">
                    <path d="M0.162,-0.352L0.162,-0.425C0.162,-0.433 0.161,-0.435 0.156,-0.435C0.134,-0.431 0.098,-0.43 0.075,-0.432L0.073,-0.429C0.08,-0.386 0.082,-0.31 0.082,-0.235L0.082,-0.18C0.082,-0.105 0.081,-0.054 0.073,-0L0.075,0.003C0.087,0.001 0.11,-0 0.122,-0C0.134,-0 0.157,0.001 0.169,0.003L0.171,-0C0.163,-0.057 0.162,-0.104 0.162,-0.18L0.162,-0.301C0.209,-0.349 0.265,-0.379 0.3,-0.379C0.338,-0.379 0.366,-0.357 0.366,-0.29L0.366,-0.18C0.366,-0.105 0.365,-0.054 0.357,-0L0.359,0.003C0.371,0.001 0.394,-0 0.406,-0C0.418,-0 0.441,0.001 0.453,0.003L0.455,-0C0.447,-0.057 0.446,-0.104 0.446,-0.18L0.446,-0.281C0.446,-0.295 0.446,-0.307 0.445,-0.319C0.493,-0.372 0.533,-0.379 0.572,-0.379C0.626,-0.379 0.652,-0.357 0.652,-0.29L0.652,-0.18C0.652,-0.105 0.651,-0.054 0.643,-0L0.645,0.003C0.657,0.001 0.68,-0 0.692,-0C0.704,-0 0.727,0.001 0.739,0.003L0.741,-0C0.733,-0.057 0.732,-0.104 0.732,-0.18L0.732,-0.28C0.732,-0.369 0.716,-0.439 0.608,-0.439C0.554,-0.439 0.496,-0.42 0.439,-0.36C0.43,-0.408 0.389,-0.439 0.333,-0.439C0.271,-0.439 0.212,-0.399 0.165,-0.349L0.162,-0.352Z" style="fill-rule:nonzero;"/>
                </g>
                <g transform="matrix(6.996,0,0,6.996,68.6047,104.049)">
                    <path d="M0.09,-0.235L0.09,-0.18C0.09,-0.105 0.088,-0.054 0.081,-0L0.083,0.003C0.095,0.001 0.118,-0 0.13,-0C0.142,-0 0.165,0.001 0.177,0.003L0.179,-0C0.172,-0.057 0.17,-0.104 0.17,-0.18L0.17,-0.251C0.17,-0.326 0.173,-0.362 0.179,-0.423C0.179,-0.432 0.178,-0.433 0.17,-0.433C0.147,-0.431 0.104,-0.43 0.083,-0.432L0.081,-0.429C0.087,-0.386 0.09,-0.31 0.09,-0.235ZM0.08,-0.597C0.08,-0.57 0.104,-0.546 0.131,-0.546C0.158,-0.546 0.182,-0.57 0.182,-0.597C0.182,-0.624 0.158,-0.648 0.131,-0.648C0.104,-0.648 0.08,-0.624 0.08,-0.597Z" style="fill-rule:nonzero;"/>
                </g>
                <g transform="matrix(6.996,0,0,6.996,70.4236,104.049)">
                    <path d="M0.46,-0.18C0.46,-0.212 0.462,-0.249 0.462,-0.281C0.462,-0.385 0.428,-0.439 0.338,-0.439C0.3,-0.439 0.229,-0.424 0.165,-0.349L0.163,-0.352L0.163,-0.425C0.163,-0.433 0.162,-0.435 0.157,-0.435C0.135,-0.431 0.099,-0.43 0.076,-0.432L0.074,-0.429C0.081,-0.386 0.083,-0.31 0.083,-0.235L0.083,-0.18C0.083,-0.105 0.082,-0.054 0.074,-0L0.076,0.003C0.088,0.001 0.111,-0 0.123,-0C0.135,-0 0.158,0.001 0.17,0.003L0.172,-0C0.164,-0.057 0.163,-0.104 0.163,-0.18L0.163,-0.297C0.214,-0.357 0.272,-0.379 0.308,-0.379C0.359,-0.379 0.38,-0.359 0.38,-0.278L0.38,-0.18C0.38,-0.105 0.378,-0.054 0.371,-0L0.373,0.003C0.385,0.001 0.408,-0 0.42,-0C0.432,-0 0.455,0.001 0.467,0.003L0.469,-0C0.461,-0.057 0.46,-0.104 0.46,-0.18Z" style="fill-rule:nonzero;"/>
                </g>
            </g>
        </g>
    </g>
</svg>
