<?xml version="1.0" encoding="UTF-8" standalone="no"?>
<!DOCTYPE svg PUBLIC "-//W3C//DTD SVG 1.1//EN" "http://www.w3.org/Graphics/SVG/1.1/DTD/svg11.dtd">
<svg width="100%" height="100%" viewBox="0 0 239 181" version="1.1" xmlns="http://www.w3.org/2000/svg" xmlns:xlink="http://www.w3.org/1999/xlink" xml:space="preserve" xmlns:serif="http://www.serif.com/" style="fill-rule:evenodd;clip-rule:evenodd;stroke-linecap:round;stroke-linejoin:round;stroke-miterlimit:1.5;">
    <g transform="matrix(1,0,0,1,-47.6349,-73.6742)">
        <g id="Ray-Intersection-Image" serif:id="Ray Intersection Image" transform="matrix(1,0,0,1,-10,10)">
            <g id="Edge" transform="matrix(-0.999954,0.00956204,-0.00956204,-0.999954,401.136,297.698)">
                <g id="Filled-point" serif:id="Filled point">
                    <g transform="matrix(0.5,0,0,0.5,97.5,47.5)">
                        <circle cx="205" cy="105" r="5" style="fill:none;stroke:black;stroke-width:2px;"/>
                    </g>
                    <g transform="matrix(0.678078,0.678078,-0.553553,0.553553,107.861,-95.6535)">
                        <path d="M210,91L210,96" style="fill:none;stroke:black;stroke-width:0.17px;stroke-linecap:square;stroke-dasharray:0.17,0.17;"/>
                        <path d="M211,91L211,96" style="fill:none;stroke:black;stroke-width:0.17px;stroke-linecap:square;stroke-dasharray:0.17,0.17;"/>
                        <path d="M211,91L211,96" style="fill:none;stroke:black;stroke-width:0.17px;stroke-linecap:square;stroke-dasharray:0.17,0.17;"/>
                        <path d="M210.5,91L210.5,96" style="fill:none;stroke:black;stroke-width:0.17px;stroke-linecap:square;stroke-dasharray:0.17,0.17;"/>
                        <path d="M211.5,91L211.5,96" style="fill:none;stroke:black;stroke-width:0.17px;stroke-linecap:square;stroke-dasharray:0.17,0.17;"/>
                        <path d="M212,91L212,96" style="fill:none;stroke:black;stroke-width:0.17px;stroke-linecap:square;stroke-dasharray:0.17,0.17;"/>
                        <path d="M212.5,91L212.5,96" style="fill:none;stroke:black;stroke-width:0.17px;stroke-linecap:square;stroke-dasharray:0.17,0.17;"/>
                        <path d="M213,91L213,96" style="fill:none;stroke:black;stroke-width:0.17px;stroke-linecap:square;stroke-dasharray:0.17,0.17;"/>
                        <g transform="matrix(1,0,0,1,0.5,0)">
                            <path d="M213,91L213,96" style="fill:none;stroke:black;stroke-width:0.17px;stroke-linecap:square;stroke-dasharray:0.17,0.17;"/>
                        </g>
                        <g transform="matrix(1,0,0,1,1,0)">
                            <path d="M213,91L213,96" style="fill:none;stroke:black;stroke-width:0.17px;stroke-linecap:square;stroke-dasharray:0.17,0.17;"/>
                        </g>
                    </g>
                </g>
                <g transform="matrix(0.5,0,0,0.5,97.5,147.5)">
                    <circle cx="205" cy="105" r="5" style="fill:none;stroke:black;stroke-width:2px;"/>
                </g>
                <g transform="matrix(1,0,0,1.05556,0,-3.05556)">
                    <path d="M200,100L200,190" style="fill:none;stroke:black;stroke-width:0.97px;"/>
                </g>
            </g>
            <g id="Filled-point1" serif:id="Filled point" transform="matrix(1,0,0,1,-99.8562,50.1438)">
                <g transform="matrix(0.5,0,0,0.5,97.5,47.5)">
                    <circle cx="205" cy="105" r="5" style="fill:none;stroke:black;stroke-width:2px;"/>
                </g>
                <g transform="matrix(0.678078,0.678078,-0.553553,0.553553,107.861,-95.6535)">
                    <path d="M210,91L210,96" style="fill:none;stroke:black;stroke-width:0.17px;stroke-linecap:square;stroke-dasharray:0.17,0.17;"/>
                    <path d="M211,91L211,96" style="fill:none;stroke:black;stroke-width:0.17px;stroke-linecap:square;stroke-dasharray:0.17,0.17;"/>
                    <path d="M211,91L211,96" style="fill:none;stroke:black;stroke-width:0.17px;stroke-linecap:square;stroke-dasharray:0.17,0.17;"/>
                    <path d="M210.5,91L210.5,96" style="fill:none;stroke:black;stroke-width:0.17px;stroke-linecap:square;stroke-dasharray:0.17,0.17;"/>
                    <path d="M211.5,91L211.5,96" style="fill:none;stroke:black;stroke-width:0.17px;stroke-linecap:square;stroke-dasharray:0.17,0.17;"/>
                    <path d="M212,91L212,96" style="fill:none;stroke:black;stroke-width:0.17px;stroke-linecap:square;stroke-dasharray:0.17,0.17;"/>
                    <path d="M212.5,91L212.5,96" style="fill:none;stroke:black;stroke-width:0.17px;stroke-linecap:square;stroke-dasharray:0.17,0.17;"/>
                    <path d="M213,91L213,96" style="fill:none;stroke:black;stroke-width:0.17px;stroke-linecap:square;stroke-dasharray:0.17,0.17;"/>
                    <g transform="matrix(1,0,0,1,0.5,0)">
                        <path d="M213,91L213,96" style="fill:none;stroke:black;stroke-width:0.17px;stroke-linecap:square;stroke-dasharray:0.17,0.17;"/>
                    </g>
                    <g transform="matrix(1,0,0,1,1,0)">
                        <path d="M213,91L213,96" style="fill:none;stroke:black;stroke-width:0.17px;stroke-linecap:square;stroke-dasharray:0.17,0.17;"/>
                    </g>
                </g>
            </g>
            <g transform="matrix(0.99322,0,0,1,1.69492,0)">
                <path d="M102.5,150L250,150" style="fill:none;stroke:black;stroke-width:1px;stroke-linecap:butt;stroke-dasharray:1,1;"/>
            </g>
            <path d="M100,152.5L100,229.971" style="fill:none;stroke:black;stroke-width:0.15px;stroke-linecap:butt;stroke-dasharray:0.15,0.15;"/>
            <path d="M97.5,150L70,150" style="fill:none;stroke:black;stroke-width:0.2px;stroke-linecap:butt;stroke-dasharray:0.2,0.2;"/>
            <path d="M200,202.5L200,230.077" style="fill:none;stroke:black;stroke-width:0.15px;stroke-linecap:butt;stroke-dasharray:0.15,0.15;"/>
            <g>
                <path d="M197.5,200L70,200" style="fill:none;"/>
                <g transform="matrix(1,-0,-0,1,57.6349,63.6742)">
                    <path d="M12.965,136.626L12.365,136.326L12.965,136.026L12.965,136.626Z"/>
                    <path d="M139.865,136.326L12.845,136.326" style="fill:none;stroke:black;stroke-width:0.2px;stroke-linecap:butt;stroke-dasharray:0.2,0.2;"/>
                </g>
            </g>
            <path d="M197.5,100L70,100" style="fill:none;stroke:black;stroke-width:0.15px;stroke-linecap:butt;stroke-dasharray:0.15,0.15;"/>
            <g>
                <path d="M70,230L70,70" style="fill:none;"/>
                <g transform="matrix(1,-0,-0,1,57.6349,63.6742)">
                    <path d="M10.115,10.151L12.365,6.776L14.615,10.151" style="fill:none;stroke:black;stroke-width:0.5px;stroke-linejoin:miter;stroke-miterlimit:10;"/>
                    <path d="M12.365,166.326L12.365,6.776" style="fill:none;stroke:black;stroke-width:0.5px;"/>
                </g>
            </g>
            <g transform="matrix(0.000479303,1,-1.375,0.000659042,386.216,159.925)">
                <path d="M70,230L70,70" style="fill:none;"/>
                <g transform="matrix(0.000479303,-0.727273,1,0.000348584,-96.4084,238.935)">
                    <path d="M228.538,164.049L231.914,166.297L228.541,168.549" style="fill:none;stroke:black;stroke-width:0.5px;stroke-linejoin:miter;stroke-miterlimit:10;"/>
                    <path d="M12.365,166.402C12.365,166.402 220.918,166.303 231.914,166.297" style="fill:none;stroke:black;stroke-width:0.5px;"/>
                </g>
            </g>
            <g transform="matrix(1,0,0,1,10.7868,0.591256)">
                <g transform="matrix(12,0,0,12,46.5121,150.579)">
                    <path d="M0.028,-0.432C0.068,-0.343 0.187,-0.085 0.222,0.01C0.19,0.085 0.149,0.162 0.104,0.237C0.114,0.234 0.129,0.232 0.139,0.232C0.149,0.232 0.178,0.234 0.188,0.237C0.226,0.112 0.445,-0.365 0.478,-0.432C0.468,-0.429 0.445,-0.429 0.435,-0.429C0.425,-0.429 0.406,-0.429 0.396,-0.432C0.36,-0.319 0.313,-0.191 0.265,-0.088L0.263,-0.088C0.214,-0.207 0.166,-0.318 0.129,-0.432C0.116,-0.429 0.094,-0.429 0.08,-0.429C0.067,-0.429 0.042,-0.429 0.028,-0.432Z" style="fill-rule:nonzero;"/>
                </g>
            </g>
            <g transform="matrix(1,0,0,1,50.7579,89.6053)">
                <g transform="matrix(12,0,0,12,46.5121,150.579)">
                    <path d="M0.185,-0.207L0.028,0.003C0.038,0.001 0.054,-0 0.064,-0C0.074,-0 0.098,0.001 0.108,0.003C0.146,-0.054 0.176,-0.109 0.216,-0.165C0.256,-0.109 0.286,-0.054 0.322,0.003C0.337,0.001 0.357,-0 0.373,-0C0.388,-0 0.415,0.001 0.43,0.003C0.37,-0.075 0.321,-0.152 0.267,-0.23L0.431,-0.432C0.418,-0.43 0.396,-0.429 0.386,-0.429C0.375,-0.429 0.36,-0.43 0.349,-0.432C0.311,-0.376 0.279,-0.323 0.237,-0.269C0.197,-0.323 0.17,-0.376 0.136,-0.432C0.119,-0.43 0.099,-0.429 0.082,-0.429C0.066,-0.429 0.04,-0.43 0.024,-0.432L0.185,-0.207Z" style="fill-rule:nonzero;"/>
                </g>
            </g>
            <g transform="matrix(1,0,0,1,150.758,89.6053)">
                <g transform="matrix(12,0,0,12,46.5121,150.579)">
                    <path d="M0.185,-0.207L0.028,0.003C0.038,0.001 0.054,-0 0.064,-0C0.074,-0 0.098,0.001 0.108,0.003C0.146,-0.054 0.176,-0.109 0.216,-0.165C0.256,-0.109 0.286,-0.054 0.322,0.003C0.337,0.001 0.357,-0 0.373,-0C0.388,-0 0.415,0.001 0.43,0.003C0.37,-0.075 0.321,-0.152 0.267,-0.23L0.431,-0.432C0.418,-0.43 0.396,-0.429 0.386,-0.429C0.375,-0.429 0.36,-0.43 0.349,-0.432C0.311,-0.376 0.279,-0.323 0.237,-0.269C0.197,-0.323 0.17,-0.376 0.136,-0.432C0.119,-0.43 0.099,-0.429 0.082,-0.429C0.066,-0.429 0.04,-0.43 0.024,-0.432L0.185,-0.207Z" style="fill-rule:nonzero;"/>
                </g>
                <g transform="matrix(6.996,0,0,6.996,51.9721,154.575)">
                    <path d="M0.286,-0.189L0.286,-0.443C0.286,-0.551 0.292,-0.591 0.294,-0.605C0.294,-0.61 0.291,-0.61 0.287,-0.61C0.222,-0.589 0.146,-0.55 0.068,-0.526L0.074,-0.497C0.119,-0.502 0.168,-0.513 0.188,-0.513C0.206,-0.513 0.206,-0.473 0.206,-0.437L0.206,-0.189C0.206,-0.111 0.205,-0.057 0.198,-0L0.199,0.003C0.199,0.003 0.227,-0 0.245,-0C0.265,-0 0.293,0.003 0.293,0.003L0.295,-0C0.288,-0.06 0.286,-0.11 0.286,-0.189Z" style="fill-rule:nonzero;"/>
                </g>
            </g>
            <g transform="matrix(1,0,0,1,0.411972,100.53)">
                <g transform="matrix(12,0,0,12,56.8869,100.053)">
                    <path d="M0.028,-0.432C0.068,-0.343 0.187,-0.085 0.222,0.01C0.19,0.085 0.149,0.162 0.104,0.237C0.114,0.234 0.129,0.232 0.139,0.232C0.149,0.232 0.178,0.234 0.188,0.237C0.226,0.112 0.445,-0.365 0.478,-0.432C0.468,-0.429 0.445,-0.429 0.435,-0.429C0.425,-0.429 0.406,-0.429 0.396,-0.432C0.36,-0.319 0.313,-0.191 0.265,-0.088L0.263,-0.088C0.214,-0.207 0.166,-0.318 0.129,-0.432C0.116,-0.429 0.094,-0.429 0.08,-0.429C0.067,-0.429 0.042,-0.429 0.028,-0.432Z" style="fill-rule:nonzero;"/>
                </g>
                <g transform="matrix(6.996,0,0,6.996,62.9589,104.049)">
                    <path d="M0.286,-0.189L0.286,-0.443C0.286,-0.551 0.292,-0.591 0.294,-0.605C0.294,-0.61 0.291,-0.61 0.287,-0.61C0.222,-0.589 0.146,-0.55 0.068,-0.526L0.074,-0.497C0.119,-0.502 0.168,-0.513 0.188,-0.513C0.206,-0.513 0.206,-0.473 0.206,-0.437L0.206,-0.189C0.206,-0.111 0.205,-0.057 0.198,-0L0.199,0.003C0.199,0.003 0.227,-0 0.245,-0C0.265,-0 0.293,0.003 0.293,0.003L0.295,-0C0.288,-0.06 0.286,-0.11 0.286,-0.189Z" style="fill-rule:nonzero;"/>
                </g>
            </g>
            <g transform="matrix(1,0,0,1,0.411972,1.13087)">
                <g transform="matrix(12,0,0,12,56.8869,100.053)">
                    <path d="M0.028,-0.432C0.068,-0.343 0.187,-0.085 0.222,0.01C0.19,0.085 0.149,0.162 0.104,0.237C0.114,0.234 0.129,0.232 0.139,0.232C0.149,0.232 0.178,0.234 0.188,0.237C0.226,0.112 0.445,-0.365 0.478,-0.432C0.468,-0.429 0.445,-0.429 0.435,-0.429C0.425,-0.429 0.406,-0.429 0.396,-0.432C0.36,-0.319 0.313,-0.191 0.265,-0.088L0.263,-0.088C0.214,-0.207 0.166,-0.318 0.129,-0.432C0.116,-0.429 0.094,-0.429 0.08,-0.429C0.067,-0.429 0.042,-0.429 0.028,-0.432Z" style="fill-rule:nonzero;"/>
                </g>
                <g transform="matrix(6.996,0,0,6.996,62.9589,104.049)">
                    <path d="M0.222,-0.553C0.274,-0.553 0.328,-0.505 0.328,-0.435C0.328,-0.393 0.316,-0.34 0.29,-0.301C0.218,-0.194 0.104,-0.094 0.054,-0.047C0.053,-0.043 0.053,-0.039 0.053,-0.034C0.053,-0.019 0.058,-0.004 0.063,0.005C0.137,0.003 0.179,-0 0.252,-0C0.324,-0 0.354,0.002 0.426,0.005C0.424,-0.005 0.423,-0.017 0.423,-0.028C0.423,-0.044 0.424,-0.06 0.428,-0.075C0.371,-0.07 0.341,-0.067 0.245,-0.067C0.21,-0.067 0.19,-0.067 0.163,-0.065C0.162,-0.067 0.162,-0.068 0.162,-0.07C0.162,-0.079 0.172,-0.09 0.179,-0.097C0.228,-0.144 0.275,-0.189 0.341,-0.278C0.378,-0.328 0.414,-0.392 0.414,-0.449C0.414,-0.544 0.35,-0.61 0.238,-0.61C0.147,-0.61 0.089,-0.559 0.066,-0.529L0.088,-0.46L0.101,-0.459C0.115,-0.489 0.12,-0.51 0.145,-0.53C0.165,-0.546 0.194,-0.553 0.222,-0.553Z" style="fill-rule:nonzero;"/>
                </g>
            </g>
        </g>
    </g>
</svg>
