<?xml version="1.0" encoding="UTF-8" standalone="no"?>
<!DOCTYPE svg PUBLIC "-//W3C//DTD SVG 1.1//EN" "http://www.w3.org/Graphics/SVG/1.1/DTD/svg11.dtd">
<svg width="100%" height="100%" viewBox="0 0 240 85" version="1.1" xmlns="http://www.w3.org/2000/svg" xmlns:xlink="http://www.w3.org/1999/xlink" xml:space="preserve" xmlns:serif="http://www.serif.com/" style="fill-rule:evenodd;clip-rule:evenodd;stroke-linecap:round;stroke-linejoin:round;stroke-miterlimit:1.5;">
    <g id="Parsing">
        <g id="lhs-assignment">
            <g id="let-token" serif:id="let token">
                <path d="M0.5,10.021L0.5,9.181L2.216,9.181L2.216,2.041L0.668,2.041L0.668,1.201L3.152,1.201L3.152,9.181L4.7,9.181L4.7,10.021L0.5,10.021Z" style="fill-rule:nonzero;"/>
                <path d="M8.6,10.117C8.384,10.117 8.17,10.095 7.958,10.051C7.746,10.007 7.546,9.933 7.358,9.829C7.17,9.725 7.002,9.591 6.854,9.427C6.706,9.263 6.588,9.083 6.5,8.887C6.412,8.691 6.352,8.485 6.32,8.269C6.288,8.053 6.272,7.837 6.272,7.621L6.272,6.181C6.272,5.965 6.288,5.749 6.32,5.533C6.352,5.317 6.412,5.111 6.5,4.915C6.588,4.719 6.706,4.539 6.854,4.375C7.002,4.211 7.17,4.077 7.358,3.973C7.546,3.869 7.746,3.795 7.958,3.751C8.17,3.707 8.384,3.685 8.6,3.685C8.816,3.685 9.03,3.707 9.242,3.751C9.454,3.795 9.654,3.869 9.842,3.973C10.03,4.077 10.198,4.211 10.346,4.375C10.494,4.539 10.612,4.719 10.7,4.915C10.788,5.111 10.848,5.317 10.88,5.533C10.912,5.749 10.928,5.965 10.928,6.181L10.928,7.321L7.208,7.321L7.208,7.621C7.208,7.757 7.216,7.893 7.232,8.029C7.248,8.165 7.28,8.297 7.328,8.425C7.376,8.553 7.442,8.673 7.526,8.785C7.61,8.897 7.708,8.991 7.82,9.067C7.932,9.143 8.056,9.197 8.192,9.229C8.328,9.261 8.464,9.277 8.6,9.277C8.76,9.277 8.918,9.263 9.074,9.235C9.23,9.207 9.376,9.151 9.512,9.067C9.648,8.983 9.758,8.871 9.842,8.731C9.926,8.591 9.968,8.441 9.968,8.281L10.904,8.281C10.904,8.465 10.874,8.645 10.814,8.821C10.754,8.997 10.67,9.159 10.562,9.307C10.454,9.455 10.324,9.583 10.172,9.691C10.02,9.799 9.858,9.885 9.686,9.949C9.514,10.013 9.336,10.057 9.152,10.081C8.968,10.105 8.784,10.117 8.6,10.117ZM9.992,6.481L9.992,6.181C9.992,6.045 9.984,5.909 9.968,5.773C9.952,5.637 9.92,5.505 9.872,5.377C9.824,5.249 9.758,5.129 9.674,5.017C9.59,4.905 9.492,4.811 9.38,4.735C9.268,4.659 9.144,4.605 9.008,4.573C8.872,4.541 8.736,4.525 8.6,4.525C8.464,4.525 8.328,4.541 8.192,4.573C8.056,4.605 7.932,4.659 7.82,4.735C7.708,4.811 7.61,4.905 7.526,5.017C7.442,5.129 7.376,5.249 7.328,5.377C7.28,5.505 7.248,5.637 7.232,5.773C7.216,5.909 7.208,6.045 7.208,6.181L7.208,6.481L9.992,6.481Z" style="fill-rule:nonzero;"/>
                <path d="M15.392,10.117C15.216,10.117 15.038,10.093 14.858,10.045C14.678,9.997 14.514,9.921 14.366,9.817C14.218,9.713 14.094,9.585 13.994,9.433C13.894,9.281 13.814,9.119 13.754,8.947C13.694,8.775 13.652,8.599 13.628,8.419C13.604,8.239 13.592,8.057 13.592,7.873L13.592,4.621L12.44,4.621L12.44,3.781L13.592,3.781L13.592,1.201L14.528,1.201L14.528,3.781L16.64,3.781L16.64,4.621L14.528,4.621L14.528,7.873C14.528,7.977 14.532,8.081 14.54,8.185C14.548,8.289 14.564,8.391 14.588,8.491C14.612,8.591 14.644,8.687 14.684,8.779C14.724,8.871 14.778,8.957 14.846,9.037C14.914,9.117 14.996,9.177 15.092,9.217C15.188,9.257 15.288,9.277 15.392,9.277C15.496,9.277 15.594,9.257 15.686,9.217C15.778,9.177 15.858,9.121 15.926,9.049C15.994,8.977 16.05,8.895 16.094,8.803C16.138,8.711 16.172,8.617 16.196,8.521C16.22,8.425 16.238,8.327 16.25,8.227C16.262,8.127 16.268,8.029 16.268,7.933L16.268,7.861L17.204,7.861L17.204,7.969C17.204,8.145 17.188,8.321 17.156,8.497C17.124,8.673 17.078,8.843 17.018,9.007C16.958,9.171 16.876,9.325 16.772,9.469C16.668,9.613 16.544,9.735 16.4,9.835C16.256,9.935 16.096,10.007 15.92,10.051C15.744,10.095 15.568,10.117 15.392,10.117Z" style="fill-rule:nonzero;"/>
                <path d="M0.5,20.117L17.204,20.117" style="fill:none;stroke:rgb(170,170,170);stroke-width:1px;"/>
                <path d="M0.581,31.413C0.581,32.079 0.572,32.727 0.5,33.213L0.518,33.24C0.626,33.222 0.833,33.213 0.941,33.213C1.049,33.213 1.256,33.222 1.364,33.24L1.382,33.213C1.31,32.7 1.301,32.088 1.301,31.413L1.301,31.323C1.373,31.323 1.589,31.35 1.67,31.422C2.255,32.034 2.471,32.358 3.083,33.24C3.218,33.222 3.524,33.213 3.677,33.213C3.83,33.213 4.136,33.222 4.217,33.24L4.235,33.213C3.569,32.502 3.083,32.106 2.228,31.071C2.579,30.702 3.461,29.847 4.046,29.352L4.028,29.325C3.857,29.352 3.362,29.352 3.119,29.352C2.732,29.91 2.057,30.639 1.697,30.918C1.58,31.008 1.418,31.044 1.301,31.053L1.301,28.713C1.301,28.038 1.337,27.588 1.382,27.021C1.382,26.958 1.355,26.931 1.301,26.931C1.076,27.021 0.887,27.084 0.518,27.111L0.5,27.138C0.572,27.525 0.581,28.191 0.581,28.875L0.581,31.413Z" style="fill-rule:nonzero;"/>
                <path d="M6.143,33.249C6.233,33.222 6.35,33.222 6.44,33.222C6.53,33.222 6.683,33.222 6.764,33.249C7.007,32.556 7.268,31.818 7.565,31.107C7.835,31.809 8.123,32.538 8.375,33.24C8.465,33.213 8.519,33.213 8.609,33.213C8.699,33.213 8.861,33.213 8.942,33.24C9.383,32.178 10.103,30.45 10.616,29.325C10.535,29.352 10.319,29.352 10.229,29.352C10.139,29.352 10.004,29.352 9.923,29.325C9.59,30.387 9.185,31.539 8.816,32.403L8.744,32.403C8.366,31.413 8.087,30.279 7.88,29.325C7.763,29.352 7.556,29.352 7.43,29.352C7.286,29.352 7.052,29.352 6.908,29.325C7.034,29.694 7.178,30.09 7.331,30.504C7.088,31.179 6.845,31.854 6.584,32.412L6.53,32.412C6.08,31.377 5.774,30.369 5.45,29.334C5.333,29.361 5.126,29.361 5,29.361C4.856,29.361 4.622,29.361 4.478,29.334C5.081,30.657 5.639,31.935 6.143,33.249Z" style="fill-rule:nonzero;"/>
                <path d="M13.262,31.089C13.379,31.089 13.505,30.864 13.505,30.765C13.505,30.684 13.469,30.603 13.379,30.603L11.318,30.603C11.21,30.603 11.093,30.792 11.093,30.936C11.093,31.017 11.147,31.089 11.228,31.089L13.262,31.089Z" style="fill-rule:nonzero;"/>
                <path d="M14.603,31.413C14.603,32.079 14.594,32.727 14.522,33.213L14.54,33.24C14.648,33.222 14.855,33.213 14.963,33.213C15.071,33.213 15.278,33.222 15.386,33.24L15.404,33.213C15.332,32.7 15.323,32.088 15.323,31.413L15.323,28.713C15.323,28.038 15.359,27.588 15.404,27.021C15.404,26.958 15.377,26.931 15.323,26.931C15.098,27.021 14.909,27.084 14.54,27.111L14.522,27.138C14.594,27.525 14.603,28.191 14.603,28.875L14.603,31.413Z" style="fill-rule:nonzero;"/>
                <path d="M19.589,32.277C19.274,32.619 18.851,32.772 18.356,32.772C18.05,32.772 17.627,32.655 17.375,32.259C17.213,32.007 17.159,31.638 17.159,31.116L19.607,31.116C19.706,31.116 19.769,31.062 19.769,30.963C19.769,30.207 19.4,29.262 18.212,29.262C17.285,29.262 16.367,30.009 16.367,31.332C16.367,31.845 16.475,32.349 16.772,32.709C17.078,33.078 17.6,33.303 18.203,33.303C18.851,33.303 19.427,32.97 19.769,32.502L19.589,32.277ZM17.186,30.756C17.339,29.82 17.933,29.622 18.212,29.622C18.572,29.622 18.968,29.955 18.968,30.63C18.968,30.711 18.932,30.756 18.842,30.756L17.186,30.756Z" style="fill-rule:nonzero;"/>
                <path d="M20.993,29.352C20.813,29.352 20.615,29.352 20.507,29.334C20.444,29.478 20.399,29.568 20.309,29.703L20.354,29.766C20.507,29.757 20.786,29.748 20.993,29.748L20.993,30.981C20.993,31.521 20.966,32.169 20.966,32.439C20.966,33.024 21.344,33.303 21.758,33.303C22.136,33.303 22.424,33.213 22.802,32.97L22.694,32.745C22.415,32.844 22.208,32.853 21.983,32.817C21.767,32.781 21.686,32.565 21.686,32.079C21.686,31.809 21.713,31.422 21.713,30.882L21.713,29.748L22.055,29.748C22.271,29.748 22.586,29.757 22.703,29.766C22.73,29.622 22.757,29.532 22.811,29.397L22.766,29.334C22.604,29.343 22.343,29.352 22.136,29.352L21.713,29.352C21.713,28.677 21.722,28.56 21.758,28.038C21.758,27.975 21.731,27.948 21.677,27.948C21.452,28.038 21.344,28.128 21.047,28.173L21.029,28.2C21.011,28.515 20.993,28.83 20.993,29.352Z" style="fill-rule:nonzero;"/>
            </g>
            <g id="isEven-token" serif:id="isEven token">
                <path d="M26.168,9.904L26.168,9.064L27.884,9.064L27.884,4.504L26.336,4.504L26.336,3.664L28.82,3.664L28.82,9.064L30.368,9.064L30.368,9.904L26.168,9.904ZM28.328,2.608C28.224,2.608 28.124,2.594 28.028,2.566C27.932,2.538 27.848,2.488 27.776,2.416C27.704,2.344 27.654,2.26 27.626,2.164C27.598,2.068 27.584,1.968 27.584,1.864C27.584,1.76 27.598,1.66 27.626,1.564C27.654,1.468 27.704,1.384 27.776,1.312C27.848,1.24 27.932,1.188 28.028,1.156C28.124,1.124 28.224,1.108 28.328,1.108C28.432,1.108 28.532,1.124 28.628,1.156C28.724,1.188 28.808,1.24 28.88,1.312C28.952,1.384 29.004,1.468 29.036,1.564C29.068,1.66 29.084,1.76 29.084,1.864C29.084,1.968 29.068,2.068 29.036,2.164C29.004,2.26 28.952,2.344 28.88,2.416C28.808,2.488 28.724,2.538 28.628,2.566C28.532,2.594 28.432,2.608 28.328,2.608Z" style="fill-rule:nonzero;"/>
                <path d="M34.256,10C34.08,10 33.906,9.99 33.734,9.97C33.562,9.95 33.392,9.914 33.224,9.862C33.056,9.81 32.898,9.738 32.75,9.646C32.602,9.554 32.472,9.442 32.36,9.31C32.248,9.178 32.162,9.028 32.102,8.86C32.042,8.692 32.012,8.52 32.012,8.344L32.012,8.284L32.948,8.284L32.948,8.32C32.948,8.464 32.992,8.596 33.08,8.716C33.168,8.836 33.278,8.93 33.41,8.998C33.542,9.066 33.68,9.11 33.824,9.13C33.968,9.15 34.112,9.16 34.256,9.16C34.4,9.16 34.546,9.148 34.694,9.124C34.842,9.1 34.98,9.056 35.108,8.992C35.236,8.928 35.346,8.834 35.438,8.71C35.53,8.586 35.576,8.452 35.576,8.308C35.576,8.164 35.536,8.034 35.456,7.918C35.376,7.802 35.278,7.706 35.162,7.63C35.046,7.554 34.924,7.492 34.796,7.444C34.668,7.396 34.538,7.352 34.406,7.312C34.274,7.272 34.142,7.23 34.01,7.186C33.878,7.142 33.748,7.094 33.62,7.042C33.492,6.99 33.368,6.932 33.248,6.868C33.128,6.804 33.012,6.73 32.9,6.646C32.788,6.562 32.684,6.47 32.588,6.37C32.492,6.27 32.41,6.162 32.342,6.046C32.274,5.93 32.222,5.804 32.186,5.668C32.15,5.532 32.132,5.396 32.132,5.26C32.132,5.092 32.158,4.924 32.21,4.756C32.262,4.588 32.34,4.436 32.444,4.3C32.548,4.164 32.672,4.048 32.816,3.952C32.96,3.856 33.112,3.778 33.272,3.718C33.432,3.658 33.598,3.618 33.77,3.598C33.942,3.578 34.112,3.568 34.28,3.568C34.448,3.568 34.616,3.578 34.784,3.598C34.952,3.618 35.116,3.656 35.276,3.712C35.436,3.768 35.588,3.842 35.732,3.934C35.876,4.026 36,4.138 36.104,4.27C36.208,4.402 36.288,4.55 36.344,4.714C36.4,4.878 36.428,5.044 36.428,5.212L36.428,5.284L35.492,5.284L35.492,5.248C35.492,5.112 35.454,4.984 35.378,4.864C35.302,4.744 35.204,4.65 35.084,4.582C34.964,4.514 34.834,4.468 34.694,4.444C34.554,4.42 34.416,4.408 34.28,4.408C34.144,4.408 34.006,4.42 33.866,4.444C33.726,4.468 33.596,4.514 33.476,4.582C33.356,4.65 33.256,4.746 33.176,4.87C33.096,4.994 33.056,5.124 33.056,5.26C33.056,5.396 33.096,5.524 33.176,5.644C33.256,5.764 33.352,5.862 33.464,5.938C33.576,6.014 33.698,6.076 33.83,6.124C33.962,6.172 34.094,6.216 34.226,6.256C34.358,6.296 34.488,6.338 34.616,6.382C34.744,6.426 34.872,6.474 35,6.526C35.128,6.578 35.254,6.636 35.378,6.7C35.502,6.764 35.618,6.836 35.726,6.916C35.834,6.996 35.936,7.086 36.032,7.186C36.128,7.286 36.212,7.396 36.284,7.516C36.356,7.636 36.41,7.762 36.446,7.894C36.482,8.026 36.5,8.164 36.5,8.308C36.5,8.484 36.47,8.656 36.41,8.824C36.35,8.992 36.266,9.144 36.158,9.28C36.05,9.416 35.92,9.532 35.768,9.628C35.616,9.724 35.458,9.8 35.294,9.856C35.13,9.912 34.96,9.95 34.784,9.97C34.608,9.99 34.432,10 34.256,10Z" style="fill-rule:nonzero;"/>
                <path d="M38.132,9.904L38.132,1.084L42.5,1.084L42.5,1.924L39.068,1.924L39.068,4.9L41.828,4.9L41.828,5.74L39.068,5.74L39.068,9.064L42.5,9.064L42.5,9.904L38.132,9.904Z" style="fill-rule:nonzero;"/>
                <path d="M45.728,9.904L43.796,3.664L44.78,3.664L45.98,7.828C46.028,7.996 46.22,8.668 46.268,8.836C46.316,8.668 46.508,7.996 46.556,7.828L47.756,3.664L48.74,3.664L46.808,9.904L45.728,9.904Z" style="fill-rule:nonzero;"/>
                <path d="M52.268,10C52.052,10 51.838,9.978 51.626,9.934C51.414,9.89 51.214,9.816 51.026,9.712C50.838,9.608 50.67,9.474 50.522,9.31C50.374,9.146 50.256,8.966 50.168,8.77C50.08,8.574 50.02,8.368 49.988,8.152C49.956,7.936 49.94,7.72 49.94,7.504L49.94,6.064C49.94,5.848 49.956,5.632 49.988,5.416C50.02,5.2 50.08,4.994 50.168,4.798C50.256,4.602 50.374,4.422 50.522,4.258C50.67,4.094 50.838,3.96 51.026,3.856C51.214,3.752 51.414,3.678 51.626,3.634C51.838,3.59 52.052,3.568 52.268,3.568C52.484,3.568 52.698,3.59 52.91,3.634C53.122,3.678 53.322,3.752 53.51,3.856C53.698,3.96 53.866,4.094 54.014,4.258C54.162,4.422 54.28,4.602 54.368,4.798C54.456,4.994 54.516,5.2 54.548,5.416C54.58,5.632 54.596,5.848 54.596,6.064L54.596,7.204L50.876,7.204L50.876,7.504C50.876,7.64 50.884,7.776 50.9,7.912C50.916,8.048 50.948,8.18 50.996,8.308C51.044,8.436 51.11,8.556 51.194,8.668C51.278,8.78 51.376,8.874 51.488,8.95C51.6,9.026 51.724,9.08 51.86,9.112C51.996,9.144 52.132,9.16 52.268,9.16C52.428,9.16 52.586,9.146 52.742,9.118C52.898,9.09 53.044,9.034 53.18,8.95C53.316,8.866 53.426,8.754 53.51,8.614C53.594,8.474 53.636,8.324 53.636,8.164L54.572,8.164C54.572,8.348 54.542,8.528 54.482,8.704C54.422,8.88 54.338,9.042 54.23,9.19C54.122,9.338 53.992,9.466 53.84,9.574C53.688,9.682 53.526,9.768 53.354,9.832C53.182,9.896 53.004,9.94 52.82,9.964C52.636,9.988 52.452,10 52.268,10ZM53.66,6.364L53.66,6.064C53.66,5.928 53.652,5.792 53.636,5.656C53.62,5.52 53.588,5.388 53.54,5.26C53.492,5.132 53.426,5.012 53.342,4.9C53.258,4.788 53.16,4.694 53.048,4.618C52.936,4.542 52.812,4.488 52.676,4.456C52.54,4.424 52.404,4.408 52.268,4.408C52.132,4.408 51.996,4.424 51.86,4.456C51.724,4.488 51.6,4.542 51.488,4.618C51.376,4.694 51.278,4.788 51.194,4.9C51.11,5.012 51.044,5.132 50.996,5.26C50.948,5.388 50.916,5.52 50.9,5.656C50.884,5.792 50.876,5.928 50.876,6.064L50.876,6.364L53.66,6.364Z" style="fill-rule:nonzero;"/>
                <path d="M56.036,9.904L56.036,3.664L56.972,3.664L56.972,4.804C57.036,4.628 57.118,4.46 57.218,4.3C57.318,4.14 57.442,4.004 57.59,3.892C57.738,3.78 57.904,3.698 58.088,3.646C58.272,3.594 58.456,3.568 58.64,3.568C58.84,3.568 59.034,3.596 59.222,3.652C59.41,3.708 59.58,3.8 59.732,3.928C59.884,4.056 60.01,4.204 60.11,4.372C60.21,4.54 60.29,4.718 60.35,4.906C60.41,5.094 60.45,5.286 60.47,5.482C60.49,5.678 60.5,5.872 60.5,6.064L60.5,9.904L59.564,9.904L59.564,6.064C59.564,5.928 59.556,5.794 59.54,5.662C59.524,5.53 59.496,5.402 59.456,5.278C59.416,5.154 59.358,5.036 59.282,4.924C59.206,4.812 59.116,4.716 59.012,4.636C58.908,4.556 58.792,4.498 58.664,4.462C58.536,4.426 58.404,4.408 58.268,4.408C58.132,4.408 58,4.426 57.872,4.462C57.744,4.498 57.628,4.556 57.524,4.636C57.42,4.716 57.33,4.812 57.254,4.924C57.178,5.036 57.12,5.154 57.08,5.278C57.04,5.402 57.012,5.53 56.996,5.662C56.98,5.794 56.972,5.928 56.972,6.064L56.972,9.904L56.036,9.904Z" style="fill-rule:nonzero;"/>
                <path d="M26.168,20L60.5,20" style="fill:none;stroke:rgb(170,170,170);stroke-width:1px;"/>
                <path d="M40.553,31.098L40.553,31.593C40.553,32.268 40.535,32.727 40.472,33.213L40.49,33.24C40.598,33.222 40.805,33.213 40.913,33.213C41.021,33.213 41.228,33.222 41.336,33.24L41.354,33.213C41.291,32.7 41.273,32.277 41.273,31.593L41.273,30.954C41.273,30.279 41.3,29.955 41.354,29.406C41.354,29.325 41.345,29.316 41.273,29.316C41.066,29.334 40.679,29.343 40.49,29.325L40.472,29.352C40.526,29.739 40.553,30.423 40.553,31.098ZM40.463,27.84C40.463,28.083 40.679,28.299 40.922,28.299C41.165,28.299 41.381,28.083 41.381,27.84C41.381,27.597 41.165,27.381 40.922,27.381C40.679,27.381 40.463,27.597 40.463,27.84Z" style="fill-rule:nonzero;"/>
                <path d="M45.332,32.691L45.35,32.691L45.395,33.213C45.395,33.231 45.422,33.24 45.476,33.24C45.593,33.222 45.656,33.213 45.791,33.213C45.899,33.213 46.07,33.222 46.187,33.24L46.205,33.213C46.133,32.826 46.052,32.16 46.052,31.485L46.052,28.713C46.052,28.047 46.088,27.579 46.133,27.021C46.133,26.958 46.106,26.931 46.052,26.931C45.827,27.021 45.638,27.084 45.269,27.111L45.251,27.138C45.323,27.525 45.332,28.191 45.332,28.875L45.332,29.46C45.125,29.343 44.756,29.262 44.576,29.262C43.406,29.262 42.542,30.072 42.542,31.296C42.542,32.403 43.199,33.303 44.171,33.303C44.603,33.303 45.008,33.105 45.332,32.691ZM45.332,32.196C45.008,32.61 44.594,32.835 44.225,32.835C43.739,32.835 43.325,32.349 43.325,31.224C43.325,29.874 44.045,29.622 44.477,29.622C44.9,29.622 45.116,29.802 45.332,30.144L45.332,32.196Z" style="fill-rule:nonzero;"/>
            </g>
            <g id="x-token" serif:id="x token">
                <path d="M69.464,10.021L71.336,6.901L69.464,3.781L70.556,3.781L71.828,6.037L73.1,3.781L74.192,3.781L72.32,6.901L74.192,10.021L73.1,10.021L71.828,7.765L70.556,10.021L69.464,10.021Z" style="fill-rule:nonzero;"/>
                <path d="M69.464,20.117L75.206,20.117" style="fill:none;stroke:rgb(170,170,170);stroke-width:1px;"/>
                <path d="M69.554,31.098L69.554,31.593C69.554,32.268 69.536,32.727 69.473,33.213L69.491,33.24C69.599,33.222 69.806,33.213 69.914,33.213C70.022,33.213 70.229,33.222 70.337,33.24L70.355,33.213C70.292,32.7 70.274,32.277 70.274,31.593L70.274,30.954C70.274,30.279 70.301,29.955 70.355,29.406C70.355,29.325 70.346,29.316 70.274,29.316C70.067,29.334 69.68,29.343 69.491,29.325L69.473,29.352C69.527,29.739 69.554,30.423 69.554,31.098ZM69.464,27.84C69.464,28.083 69.68,28.299 69.923,28.299C70.166,28.299 70.382,28.083 70.382,27.84C70.382,27.597 70.166,27.381 69.923,27.381C69.68,27.381 69.464,27.597 69.464,27.84Z" style="fill-rule:nonzero;"/>
                <path d="M74.333,32.691L74.351,32.691L74.396,33.213C74.396,33.231 74.423,33.24 74.477,33.24C74.594,33.222 74.657,33.213 74.792,33.213C74.9,33.213 75.071,33.222 75.188,33.24L75.206,33.213C75.134,32.826 75.053,32.16 75.053,31.485L75.053,28.713C75.053,28.047 75.089,27.579 75.134,27.021C75.134,26.958 75.107,26.931 75.053,26.931C74.828,27.021 74.639,27.084 74.27,27.111L74.252,27.138C74.324,27.525 74.333,28.191 74.333,28.875L74.333,29.46C74.126,29.343 73.757,29.262 73.577,29.262C72.407,29.262 71.543,30.072 71.543,31.296C71.543,32.403 72.2,33.303 73.172,33.303C73.604,33.303 74.009,33.105 74.333,32.691ZM74.333,32.196C74.009,32.61 73.595,32.835 73.226,32.835C72.74,32.835 72.326,32.349 72.326,31.224C72.326,29.874 73.046,29.622 73.478,29.622C73.901,29.622 74.117,29.802 74.333,30.144L74.333,32.196Z" style="fill-rule:nonzero;"/>
            </g>
            <path d="M0.5,43.973L75.206,43.973" style="fill:none;stroke:rgb(170,170,170);stroke-width:1px;"/>
            <path d="M33.101,54.482C33.101,55.148 33.092,55.796 33.02,56.282L33.038,56.309C33.146,56.291 33.353,56.282 33.461,56.282C33.569,56.282 33.776,56.291 33.884,56.309L33.902,56.282C33.83,55.769 33.821,55.157 33.821,54.482L33.821,51.782C33.821,51.107 33.857,50.657 33.902,50.09C33.902,50.027 33.875,50 33.821,50C33.596,50.09 33.407,50.153 33.038,50.18L33.02,50.207C33.092,50.594 33.101,51.26 33.101,51.944L33.101,54.482Z" style="fill-rule:nonzero;"/>
            <path d="M36.089,53.114L36.089,51.773C36.089,51.107 36.125,50.639 36.17,50.09C36.17,50.027 36.143,50 36.089,50C35.864,50.09 35.675,50.153 35.306,50.18L35.288,50.207C35.36,50.594 35.369,51.269 35.369,51.953L35.369,54.662C35.369,55.328 35.36,55.778 35.288,56.282L35.306,56.309C35.414,56.291 35.621,56.282 35.729,56.282C35.837,56.282 36.044,56.291 36.152,56.309L36.17,56.282C36.107,55.769 36.089,55.346 36.089,54.662L36.089,53.609C36.548,53.069 37.079,52.871 37.394,52.871C37.853,52.871 38.042,53.051 38.042,53.78L38.042,54.662C38.042,55.337 38.033,55.796 37.961,56.282L37.979,56.309C38.087,56.291 38.294,56.282 38.402,56.282C38.51,56.282 38.717,56.291 38.825,56.309L38.843,56.282C38.771,55.769 38.762,55.346 38.762,54.662C38.762,54.374 38.78,54.041 38.78,53.753C38.78,52.817 38.474,52.331 37.664,52.331C37.322,52.331 36.683,52.466 36.107,53.141L36.089,53.114Z" style="fill-rule:nonzero;"/>
            <path d="M39.95,55.373L39.797,56.129C40.31,56.309 40.814,56.372 41.156,56.372C42.398,56.372 42.686,55.634 42.686,55.139C42.686,54.401 42.101,54.113 41.462,53.96C41.12,53.879 40.625,53.708 40.625,53.258C40.625,52.889 40.922,52.691 41.309,52.691C41.777,52.691 42.065,53.06 42.272,53.303L42.398,53.294L42.578,52.628L42.56,52.601C42.299,52.466 41.804,52.331 41.345,52.331C40.679,52.331 39.986,52.682 39.986,53.429C39.986,54.149 40.526,54.383 41.066,54.536C41.588,54.68 41.975,54.824 41.975,55.265C41.975,55.742 41.624,56.012 41.147,56.012C40.715,56.012 40.337,55.715 40.085,55.364L39.95,55.373Z" style="fill-rule:nonzero;"/>
        </g>
        <g id="eq-token" serif:id="eq token">
            <path d="M102.268,5.248L102.268,4.444L106.732,4.444L106.732,5.248L102.268,5.248ZM106.732,7.396L102.268,7.396L102.268,6.592L106.732,6.592L106.732,7.396Z" style="fill-rule:nonzero;"/>
            <path d="M100.99,20L106.732,20" style="fill:none;stroke:rgb(170,170,170);stroke-width:1px;"/>
            <path d="M94.781,32.784C94.889,33.135 95.15,33.306 95.483,33.306C95.708,33.306 95.987,33.252 96.203,33.027L96.131,32.802C96.032,32.838 95.96,32.847 95.888,32.847C95.798,32.847 95.681,32.838 95.627,32.784C95.537,32.703 95.474,32.478 95.474,32.082C95.474,31.821 95.501,30.822 95.501,30.723C95.501,29.508 94.7,29.265 94.016,29.265C93.332,29.265 92.918,29.598 92.693,29.787L92.666,29.823L92.819,30.426L92.936,30.435C93.188,30.03 93.494,29.67 93.926,29.67C94.25,29.67 94.79,29.715 94.79,30.732C94.79,30.795 94.754,30.831 94.727,30.84L93.89,31.029C92.972,31.236 92.396,31.722 92.396,32.334C92.396,33 92.855,33.306 93.521,33.306C94.016,33.306 94.268,33.189 94.745,32.784L94.781,32.784ZM94.781,31.191L94.745,32.262C94.745,32.379 94.691,32.442 94.619,32.496C94.367,32.685 94.061,32.847 93.791,32.847C93.386,32.847 93.125,32.577 93.125,32.298C93.125,31.893 93.314,31.587 94.016,31.398L94.781,31.191Z" style="fill-rule:nonzero;"/>
            <path d="M96.77,32.307L96.617,33.063C97.13,33.243 97.634,33.306 97.976,33.306C99.218,33.306 99.506,32.568 99.506,32.073C99.506,31.335 98.921,31.047 98.282,30.894C97.94,30.813 97.445,30.642 97.445,30.192C97.445,29.823 97.742,29.625 98.129,29.625C98.597,29.625 98.885,29.994 99.092,30.237L99.218,30.228L99.398,29.562L99.38,29.535C99.119,29.4 98.624,29.265 98.165,29.265C97.499,29.265 96.806,29.616 96.806,30.363C96.806,31.083 97.346,31.317 97.886,31.47C98.408,31.614 98.795,31.758 98.795,32.199C98.795,32.676 98.444,32.946 97.967,32.946C97.535,32.946 97.157,32.649 96.905,32.298L96.77,32.307Z" style="fill-rule:nonzero;"/>
            <path d="M100.334,32.307L100.181,33.063C100.694,33.243 101.198,33.306 101.54,33.306C102.782,33.306 103.07,32.568 103.07,32.073C103.07,31.335 102.485,31.047 101.846,30.894C101.504,30.813 101.009,30.642 101.009,30.192C101.009,29.823 101.306,29.625 101.693,29.625C102.161,29.625 102.449,29.994 102.656,30.237L102.782,30.228L102.962,29.562L102.944,29.535C102.683,29.4 102.188,29.265 101.729,29.265C101.063,29.265 100.37,29.616 100.37,30.363C100.37,31.083 100.91,31.317 101.45,31.47C101.972,31.614 102.359,31.758 102.359,32.199C102.359,32.676 102.008,32.946 101.531,32.946C101.099,32.946 100.721,32.649 100.469,32.298L100.334,32.307Z" style="fill-rule:nonzero;"/>
            <path d="M104.258,31.101L104.258,31.596C104.258,32.271 104.24,32.73 104.177,33.216L104.195,33.243C104.303,33.225 104.51,33.216 104.618,33.216C104.726,33.216 104.933,33.225 105.041,33.243L105.059,33.216C104.996,32.703 104.978,32.28 104.978,31.596L104.978,30.957C104.978,30.282 105.005,29.958 105.059,29.409C105.059,29.328 105.05,29.319 104.978,29.319C104.771,29.337 104.384,29.346 104.195,29.328L104.177,29.355C104.231,29.742 104.258,30.426 104.258,31.101ZM104.168,27.843C104.168,28.086 104.384,28.302 104.627,28.302C104.87,28.302 105.086,28.086 105.086,27.843C105.086,27.6 104.87,27.384 104.627,27.384C104.384,27.384 104.168,27.6 104.168,27.843Z" style="fill-rule:nonzero;"/>
            <path d="M109.298,30.651C109.298,30.03 109.055,29.742 108.848,29.607C109.118,29.625 109.415,29.661 109.784,29.697L109.811,29.67C109.793,29.589 109.784,29.517 109.784,29.436C109.784,29.355 109.793,29.283 109.811,29.202L109.784,29.175C109.352,29.211 109.037,29.31 108.362,29.346C108.2,29.292 108.011,29.265 107.813,29.265C107.102,29.265 106.283,29.742 106.283,30.633C106.283,31.308 106.67,31.614 106.922,31.758C106.661,31.938 106.346,32.199 106.346,32.505C106.346,32.874 106.562,33.198 107.048,33.279C106.796,33.387 106.517,33.558 106.283,33.738C106.175,33.909 106.076,34.161 106.076,34.332C106.076,35.043 106.85,35.349 107.804,35.349C109.208,35.349 110.045,34.764 110.045,33.918C110.045,33.522 109.919,33.243 109.667,33.027C109.334,32.739 108.713,32.73 108.398,32.73C108.245,32.73 107.885,32.748 107.678,32.775C107.552,32.784 107.462,32.793 107.417,32.793C107.165,32.793 106.895,32.757 106.895,32.37C106.895,32.19 106.94,32.037 107.138,31.866C107.255,31.929 107.534,31.992 107.804,31.992C108.74,31.992 109.298,31.362 109.298,30.651ZM106.697,34.152C106.697,33.855 106.967,33.522 107.282,33.351C107.552,33.351 107.957,33.324 108.083,33.324C108.515,33.324 108.794,33.333 109.037,33.477C109.298,33.63 109.388,33.891 109.388,34.125C109.388,34.674 108.65,34.962 107.876,34.962C107.291,34.962 106.697,34.764 106.697,34.152ZM108.596,30.66C108.596,31.209 108.371,31.632 107.831,31.632C107.183,31.632 106.985,31.209 106.985,30.588C106.985,29.994 107.255,29.607 107.777,29.607C108.362,29.607 108.596,30.021 108.596,30.66Z" style="fill-rule:nonzero;"/>
            <path d="M114.419,31.596C114.419,31.308 114.437,30.975 114.437,30.687C114.437,29.751 114.131,29.265 113.321,29.265C112.979,29.265 112.34,29.4 111.764,30.075L111.746,30.048L111.746,29.391C111.746,29.319 111.737,29.301 111.692,29.301C111.494,29.337 111.17,29.346 110.963,29.328L110.945,29.355C111.008,29.742 111.026,30.426 111.026,31.101L111.026,31.596C111.026,32.271 111.017,32.73 110.945,33.216L110.963,33.243C111.071,33.225 111.278,33.216 111.386,33.216C111.494,33.216 111.701,33.225 111.809,33.243L111.827,33.216C111.755,32.703 111.746,32.28 111.746,31.596L111.746,30.543C112.205,30.003 112.727,29.805 113.051,29.805C113.51,29.805 113.699,29.985 113.699,30.714L113.699,31.596C113.699,32.271 113.681,32.73 113.618,33.216L113.636,33.243C113.744,33.225 113.951,33.216 114.059,33.216C114.167,33.216 114.374,33.225 114.482,33.243L114.5,33.216C114.428,32.703 114.419,32.28 114.419,31.596Z" style="fill-rule:nonzero;"/>
        </g>
        <g id="rhs-assignment">
            <g id="rhs">
                <path d="M133.584,12.024C133.24,11.832 132.918,11.606 132.618,11.346C132.318,11.086 132.048,10.798 131.808,10.482C131.568,10.166 131.364,9.828 131.196,9.468C131.028,9.108 130.892,8.738 130.788,8.358C130.684,7.978 130.61,7.59 130.566,7.194C130.522,6.798 130.5,6.404 130.5,6.012C130.5,5.62 130.522,5.226 130.566,4.83C130.61,4.434 130.684,4.046 130.788,3.666C130.892,3.286 131.028,2.916 131.196,2.556C131.364,2.196 131.568,1.858 131.808,1.542C132.048,1.226 132.318,0.938 132.618,0.678C132.918,0.418 133.24,0.192 133.584,0L134.04,0.732C133.6,0.988 133.206,1.312 132.858,1.704C132.51,2.096 132.228,2.526 132.012,2.994C131.796,3.462 131.646,3.954 131.562,4.47C131.478,4.986 131.436,5.5 131.436,6.012C131.436,6.524 131.478,7.038 131.562,7.554C131.646,8.07 131.796,8.562 132.012,9.03C132.228,9.498 132.51,9.928 132.858,10.32C133.206,10.712 133.6,11.036 134.04,11.292L133.584,12.024Z" style="fill-rule:nonzero;"/>
                <path d="M145.772,10.378L147.644,7.258L145.772,4.138L146.864,4.138L148.136,6.394L149.408,4.138L150.5,4.138L148.628,7.258L150.5,10.378L149.408,10.378L148.136,8.122L146.864,10.378L145.772,10.378Z" style="fill-rule:nonzero;"/>
                <path d="M163.88,10L163.88,3.76L164.744,3.76L164.744,4.324C164.784,4.228 164.832,4.14 164.888,4.06C164.944,3.98 165.01,3.908 165.086,3.844C165.162,3.78 165.248,3.734 165.344,3.706C165.44,3.678 165.536,3.664 165.632,3.664C165.76,3.664 165.88,3.688 165.992,3.736C166.104,3.784 166.202,3.852 166.286,3.94C166.37,4.028 166.438,4.128 166.49,4.24C166.542,4.352 166.584,4.464 166.616,4.576C166.648,4.464 166.69,4.352 166.742,4.24C166.794,4.128 166.862,4.028 166.946,3.94C167.03,3.852 167.128,3.784 167.24,3.736C167.352,3.688 167.468,3.664 167.588,3.664C167.716,3.664 167.84,3.69 167.96,3.742C168.08,3.794 168.182,3.866 168.266,3.958C168.35,4.05 168.416,4.154 168.464,4.27C168.512,4.386 168.552,4.506 168.584,4.63C168.616,4.754 168.636,4.878 168.644,5.002C168.652,5.126 168.656,5.252 168.656,5.38L168.656,10L167.792,10L167.792,5.38C167.792,5.276 167.786,5.174 167.774,5.074C167.762,4.974 167.736,4.878 167.696,4.786C167.656,4.694 167.596,4.614 167.516,4.546C167.436,4.478 167.348,4.444 167.252,4.444C167.148,4.444 167.056,4.478 166.976,4.546C166.896,4.614 166.836,4.694 166.796,4.786C166.756,4.878 166.73,4.974 166.718,5.074C166.706,5.174 166.7,5.276 166.7,5.38L166.7,10L165.836,10L165.836,5.38C165.836,5.276 165.83,5.174 165.818,5.074C165.806,4.974 165.78,4.878 165.74,4.786C165.7,4.694 165.64,4.614 165.56,4.546C165.48,4.478 165.388,4.444 165.284,4.444C165.188,4.444 165.1,4.478 165.02,4.546C164.94,4.614 164.88,4.694 164.84,4.786C164.8,4.878 164.774,4.974 164.762,5.074C164.75,5.174 164.744,5.276 164.744,5.38L164.744,10L163.88,10Z" style="fill-rule:nonzero;"/>
                <path d="M172.268,10.096C172.052,10.096 171.838,10.074 171.626,10.03C171.414,9.986 171.214,9.912 171.026,9.808C170.838,9.704 170.67,9.57 170.522,9.406C170.374,9.242 170.256,9.062 170.168,8.866C170.08,8.67 170.02,8.464 169.988,8.248C169.956,8.032 169.94,7.816 169.94,7.6L169.94,6.16C169.94,5.944 169.956,5.728 169.988,5.512C170.02,5.296 170.08,5.09 170.168,4.894C170.256,4.698 170.374,4.518 170.522,4.354C170.67,4.19 170.838,4.056 171.026,3.952C171.214,3.848 171.414,3.774 171.626,3.73C171.838,3.686 172.052,3.664 172.268,3.664C172.484,3.664 172.698,3.686 172.91,3.73C173.122,3.774 173.322,3.848 173.51,3.952C173.698,4.056 173.866,4.19 174.014,4.354C174.162,4.518 174.28,4.698 174.368,4.894C174.456,5.09 174.516,5.296 174.548,5.512C174.58,5.728 174.596,5.944 174.596,6.16L174.596,7.6C174.596,7.816 174.58,8.032 174.548,8.248C174.516,8.464 174.456,8.67 174.368,8.866C174.28,9.062 174.162,9.242 174.014,9.406C173.866,9.57 173.698,9.704 173.51,9.808C173.322,9.912 173.122,9.986 172.91,10.03C172.698,10.074 172.484,10.096 172.268,10.096ZM172.268,9.256C172.404,9.256 172.54,9.24 172.676,9.208C172.812,9.176 172.936,9.122 173.048,9.046C173.16,8.97 173.258,8.876 173.342,8.764C173.426,8.652 173.492,8.532 173.54,8.404C173.588,8.276 173.62,8.144 173.636,8.008C173.652,7.872 173.66,7.736 173.66,7.6L173.66,6.16C173.66,6.024 173.652,5.888 173.636,5.752C173.62,5.616 173.588,5.484 173.54,5.356C173.492,5.228 173.426,5.108 173.342,4.996C173.258,4.884 173.16,4.79 173.048,4.714C172.936,4.638 172.812,4.584 172.676,4.552C172.54,4.52 172.404,4.504 172.268,4.504C172.132,4.504 171.996,4.52 171.86,4.552C171.724,4.584 171.6,4.638 171.488,4.714C171.376,4.79 171.278,4.884 171.194,4.996C171.11,5.108 171.044,5.228 170.996,5.356C170.948,5.484 170.916,5.616 170.9,5.752C170.884,5.888 170.876,6.024 170.876,6.16L170.876,7.6C170.876,7.736 170.884,7.872 170.9,8.008C170.916,8.144 170.948,8.276 170.996,8.404C171.044,8.532 171.11,8.652 171.194,8.764C171.278,8.876 171.376,8.97 171.488,9.046C171.6,9.122 171.724,9.176 171.86,9.208C171.996,9.24 172.132,9.256 172.268,9.256Z" style="fill-rule:nonzero;"/>
                <path d="M177.848,10.096C177.648,10.096 177.452,10.068 177.26,10.012C177.068,9.956 176.894,9.866 176.738,9.742C176.582,9.618 176.452,9.472 176.348,9.304C176.244,9.136 176.16,8.958 176.096,8.77C176.032,8.582 175.99,8.39 175.97,8.194C175.95,7.998 175.94,7.8 175.94,7.6L175.94,6.16C175.94,5.96 175.95,5.762 175.97,5.566C175.99,5.37 176.032,5.178 176.096,4.99C176.16,4.802 176.244,4.624 176.348,4.456C176.452,4.288 176.582,4.142 176.738,4.018C176.894,3.894 177.068,3.804 177.26,3.748C177.452,3.692 177.648,3.664 177.848,3.664C178.04,3.664 178.228,3.69 178.412,3.742C178.596,3.794 178.764,3.876 178.916,3.988C179.068,4.1 179.198,4.236 179.306,4.396C179.414,4.556 179.5,4.728 179.564,4.912L179.564,1.18L180.5,1.18L180.5,10L179.564,10L179.564,8.848C179.5,9.032 179.414,9.204 179.306,9.364C179.198,9.524 179.068,9.66 178.916,9.772C178.764,9.884 178.596,9.966 178.412,10.018C178.228,10.07 178.04,10.096 177.848,10.096ZM178.22,9.256C178.356,9.256 178.49,9.24 178.622,9.208C178.754,9.176 178.874,9.12 178.982,9.04C179.09,8.96 179.184,8.864 179.264,8.752C179.344,8.64 179.406,8.52 179.45,8.392C179.494,8.264 179.524,8.134 179.54,8.002C179.556,7.87 179.564,7.736 179.564,7.6L179.564,6.16C179.564,6.024 179.556,5.89 179.54,5.758C179.524,5.626 179.494,5.496 179.45,5.368C179.406,5.24 179.344,5.12 179.264,5.008C179.184,4.896 179.09,4.8 178.982,4.72C178.874,4.64 178.754,4.584 178.622,4.552C178.49,4.52 178.356,4.504 178.22,4.504C178.084,4.504 177.95,4.52 177.818,4.552C177.686,4.584 177.566,4.64 177.458,4.72C177.35,4.8 177.256,4.896 177.176,5.008C177.096,5.12 177.034,5.24 176.99,5.368C176.946,5.496 176.916,5.626 176.9,5.758C176.884,5.89 176.876,6.024 176.876,6.16L176.876,7.6C176.876,7.736 176.884,7.87 176.9,8.002C176.916,8.134 176.946,8.264 176.99,8.392C177.034,8.52 177.096,8.64 177.176,8.752C177.256,8.864 177.35,8.96 177.458,9.04C177.566,9.12 177.686,9.176 177.818,9.208C177.95,9.24 178.084,9.256 178.22,9.256Z" style="fill-rule:nonzero;"/>
                <path d="M195.988,10.096L195.988,10.084C195.988,9.868 195.992,9.652 196,9.436C196.008,9.22 196.03,9.004 196.066,8.788C196.102,8.572 196.154,8.36 196.222,8.152C196.29,7.944 196.374,7.746 196.474,7.558C196.574,7.37 196.69,7.188 196.822,7.012C196.954,6.836 197.098,6.672 197.254,6.52C197.41,6.368 197.572,6.226 197.74,6.094C197.908,5.962 198.08,5.832 198.256,5.704C198.432,5.576 198.604,5.442 198.772,5.302C198.94,5.162 199.084,5.002 199.204,4.822C199.324,4.642 199.414,4.446 199.474,4.234C199.534,4.022 199.564,3.808 199.564,3.592C199.564,3.4 199.542,3.206 199.498,3.01C199.454,2.814 199.374,2.638 199.258,2.482C199.142,2.326 198.99,2.21 198.802,2.134C198.614,2.058 198.424,2.02 198.232,2.02C198.048,2.02 197.87,2.05 197.698,2.11C197.526,2.17 197.378,2.266 197.254,2.398C197.13,2.53 197.04,2.682 196.984,2.854C196.928,3.026 196.9,3.204 196.9,3.388L196.9,3.436L195.964,3.436L195.964,3.364C195.964,3.164 195.986,2.966 196.03,2.77C196.074,2.574 196.144,2.39 196.24,2.218C196.336,2.046 196.456,1.89 196.6,1.75C196.744,1.61 196.904,1.496 197.08,1.408C197.256,1.32 197.442,1.26 197.638,1.228C197.834,1.196 198.032,1.18 198.232,1.18C198.44,1.18 198.648,1.2 198.856,1.24C199.064,1.28 199.26,1.352 199.444,1.456C199.628,1.56 199.79,1.69 199.93,1.846C200.07,2.002 200.184,2.176 200.272,2.368C200.36,2.56 200.42,2.76 200.452,2.968C200.484,3.176 200.5,3.384 200.5,3.592C200.5,3.824 200.474,4.054 200.422,4.282C200.37,4.51 200.29,4.726 200.182,4.93C200.074,5.134 199.942,5.324 199.786,5.5C199.63,5.676 199.464,5.838 199.288,5.986C199.112,6.134 198.932,6.278 198.748,6.418C198.564,6.558 198.386,6.706 198.214,6.862C198.042,7.018 197.882,7.184 197.734,7.36C197.586,7.536 197.456,7.726 197.344,7.93C197.232,8.134 197.144,8.348 197.08,8.572C197.016,8.796 196.972,9.024 196.948,9.256L200.452,9.256L200.452,10.096L195.988,10.096Z" style="fill-rule:nonzero;"/>
                <path d="M207.416,12.028L206.96,11.296C207.4,11.04 207.794,10.716 208.142,10.324C208.49,9.932 208.772,9.502 208.988,9.034C209.204,8.566 209.354,8.074 209.438,7.558C209.522,7.042 209.564,6.528 209.564,6.016C209.564,5.504 209.522,4.99 209.438,4.474C209.354,3.958 209.204,3.466 208.988,2.998C208.772,2.53 208.49,2.1 208.142,1.708C207.794,1.316 207.4,0.992 206.96,0.736L207.416,0.004C207.76,0.196 208.082,0.422 208.382,0.682C208.682,0.942 208.952,1.23 209.192,1.546C209.432,1.862 209.636,2.2 209.804,2.56C209.972,2.92 210.108,3.29 210.212,3.67C210.316,4.05 210.39,4.438 210.434,4.834C210.478,5.23 210.5,5.624 210.5,6.016C210.5,6.408 210.478,6.802 210.434,7.198C210.39,7.594 210.316,7.982 210.212,8.362C210.108,8.742 209.972,9.112 209.804,9.472C209.636,9.832 209.432,10.17 209.192,10.486C208.952,10.802 208.682,11.09 208.382,11.35C208.082,11.61 207.76,11.836 207.416,12.028Z" style="fill-rule:nonzero;"/>
                <path d="M216.96,5.248L216.96,4.444L222.192,4.444L222.636,4.852L222.552,4.924L222.552,4.852L221.832,4.852L221.832,5.248L216.96,5.248ZM216.96,7.396L216.96,6.592L221.832,6.592L221.832,6.988L222.552,6.988L222.552,6.916L222.636,6.988L222.192,7.396L216.96,7.396Z" style="fill-rule:nonzero;"/>
                <path d="M222.552,5.248L222.552,4.852L221.832,4.852L221.832,4.924L221.748,4.852L222.192,4.444L227.424,4.444L227.424,5.248L222.552,5.248ZM222.192,7.396L221.748,6.988L221.832,6.916L221.832,6.988L222.552,6.988L222.552,6.592L227.424,6.592L227.424,7.396L222.192,7.396Z" style="fill-rule:nonzero;"/>
                <path d="M236.212,10.426C235.996,10.426 235.782,10.404 235.57,10.36C235.358,10.316 235.158,10.242 234.97,10.138C234.782,10.034 234.614,9.9 234.466,9.736C234.318,9.572 234.2,9.392 234.112,9.196C234.024,9 233.964,8.794 233.932,8.578C233.9,8.362 233.884,8.146 233.884,7.93L233.884,3.91C233.884,3.694 233.9,3.478 233.932,3.262C233.964,3.046 234.024,2.84 234.112,2.644C234.2,2.448 234.318,2.268 234.466,2.104C234.614,1.94 234.782,1.806 234.97,1.702C235.158,1.598 235.358,1.524 235.57,1.48C235.782,1.436 235.996,1.414 236.212,1.414C236.428,1.414 236.642,1.436 236.854,1.48C237.066,1.524 237.266,1.598 237.454,1.702C237.642,1.806 237.81,1.94 237.958,2.104C238.106,2.268 238.224,2.448 238.312,2.644C238.4,2.84 238.46,3.046 238.492,3.262C238.524,3.478 238.54,3.694 238.54,3.91L238.54,7.93C238.54,8.146 238.524,8.362 238.492,8.578C238.46,8.794 238.4,9 238.312,9.196C238.224,9.392 238.106,9.572 237.958,9.736C237.81,9.9 237.642,10.034 237.454,10.138C237.266,10.242 237.066,10.316 236.854,10.36C236.642,10.404 236.428,10.426 236.212,10.426ZM234.82,6.538L237.604,4.33L237.604,3.91C237.604,3.774 237.596,3.638 237.58,3.502C237.564,3.366 237.532,3.234 237.484,3.106C237.436,2.978 237.37,2.858 237.286,2.746C237.202,2.634 237.104,2.54 236.992,2.464C236.88,2.388 236.756,2.334 236.62,2.302C236.484,2.27 236.348,2.254 236.212,2.254C236.076,2.254 235.94,2.27 235.804,2.302C235.668,2.334 235.544,2.388 235.432,2.464C235.32,2.54 235.222,2.634 235.138,2.746C235.054,2.858 234.988,2.978 234.94,3.106C234.892,3.234 234.86,3.366 234.844,3.502C234.828,3.638 234.82,3.774 234.82,3.91L234.82,6.538ZM236.212,9.586C236.348,9.586 236.484,9.57 236.62,9.538C236.756,9.506 236.88,9.452 236.992,9.376C237.104,9.3 237.202,9.206 237.286,9.094C237.37,8.982 237.436,8.862 237.484,8.734C237.532,8.606 237.564,8.474 237.58,8.338C237.596,8.202 237.604,8.066 237.604,7.93L237.604,5.302L234.82,7.51L234.82,7.93C234.82,8.066 234.828,8.202 234.844,8.338C234.86,8.474 234.892,8.606 234.94,8.734C234.988,8.862 235.054,8.982 235.138,9.094C235.222,9.206 235.32,9.3 235.432,9.376C235.544,9.452 235.668,9.506 235.804,9.538C235.94,9.57 236.076,9.586 236.212,9.586Z" style="fill-rule:nonzero;"/>
            </g>
            <g id="rhs1" serif:id="rhs">
                <path d="M133.584,12.024C133.24,11.832 132.918,11.606 132.618,11.346C132.318,11.086 132.048,10.798 131.808,10.482C131.568,10.166 131.364,9.828 131.196,9.468C131.028,9.108 130.892,8.738 130.788,8.358C130.684,7.978 130.61,7.59 130.566,7.194C130.522,6.798 130.5,6.404 130.5,6.012C130.5,5.62 130.522,5.226 130.566,4.83C130.61,4.434 130.684,4.046 130.788,3.666C130.892,3.286 131.028,2.916 131.196,2.556C131.364,2.196 131.568,1.858 131.808,1.542C132.048,1.226 132.318,0.938 132.618,0.678C132.918,0.418 133.24,0.192 133.584,0L134.04,0.732C133.6,0.988 133.206,1.312 132.858,1.704C132.51,2.096 132.228,2.526 132.012,2.994C131.796,3.462 131.646,3.954 131.562,4.47C131.478,4.986 131.436,5.5 131.436,6.012C131.436,6.524 131.478,7.038 131.562,7.554C131.646,8.07 131.796,8.562 132.012,9.03C132.228,9.498 132.51,9.928 132.858,10.32C133.206,10.712 133.6,11.036 134.04,11.292L133.584,12.024Z" style="fill-rule:nonzero;"/>
                <path d="M145.772,10.378L147.644,7.258L145.772,4.138L146.864,4.138L148.136,6.394L149.408,4.138L150.5,4.138L148.628,7.258L150.5,10.378L149.408,10.378L148.136,8.122L146.864,10.378L145.772,10.378Z" style="fill-rule:nonzero;"/>
                <path d="M163.88,10L163.88,3.76L164.744,3.76L164.744,4.324C164.784,4.228 164.832,4.14 164.888,4.06C164.944,3.98 165.01,3.908 165.086,3.844C165.162,3.78 165.248,3.734 165.344,3.706C165.44,3.678 165.536,3.664 165.632,3.664C165.76,3.664 165.88,3.688 165.992,3.736C166.104,3.784 166.202,3.852 166.286,3.94C166.37,4.028 166.438,4.128 166.49,4.24C166.542,4.352 166.584,4.464 166.616,4.576C166.648,4.464 166.69,4.352 166.742,4.24C166.794,4.128 166.862,4.028 166.946,3.94C167.03,3.852 167.128,3.784 167.24,3.736C167.352,3.688 167.468,3.664 167.588,3.664C167.716,3.664 167.84,3.69 167.96,3.742C168.08,3.794 168.182,3.866 168.266,3.958C168.35,4.05 168.416,4.154 168.464,4.27C168.512,4.386 168.552,4.506 168.584,4.63C168.616,4.754 168.636,4.878 168.644,5.002C168.652,5.126 168.656,5.252 168.656,5.38L168.656,10L167.792,10L167.792,5.38C167.792,5.276 167.786,5.174 167.774,5.074C167.762,4.974 167.736,4.878 167.696,4.786C167.656,4.694 167.596,4.614 167.516,4.546C167.436,4.478 167.348,4.444 167.252,4.444C167.148,4.444 167.056,4.478 166.976,4.546C166.896,4.614 166.836,4.694 166.796,4.786C166.756,4.878 166.73,4.974 166.718,5.074C166.706,5.174 166.7,5.276 166.7,5.38L166.7,10L165.836,10L165.836,5.38C165.836,5.276 165.83,5.174 165.818,5.074C165.806,4.974 165.78,4.878 165.74,4.786C165.7,4.694 165.64,4.614 165.56,4.546C165.48,4.478 165.388,4.444 165.284,4.444C165.188,4.444 165.1,4.478 165.02,4.546C164.94,4.614 164.88,4.694 164.84,4.786C164.8,4.878 164.774,4.974 164.762,5.074C164.75,5.174 164.744,5.276 164.744,5.38L164.744,10L163.88,10Z" style="fill-rule:nonzero;"/>
                <path d="M172.268,10.096C172.052,10.096 171.838,10.074 171.626,10.03C171.414,9.986 171.214,9.912 171.026,9.808C170.838,9.704 170.67,9.57 170.522,9.406C170.374,9.242 170.256,9.062 170.168,8.866C170.08,8.67 170.02,8.464 169.988,8.248C169.956,8.032 169.94,7.816 169.94,7.6L169.94,6.16C169.94,5.944 169.956,5.728 169.988,5.512C170.02,5.296 170.08,5.09 170.168,4.894C170.256,4.698 170.374,4.518 170.522,4.354C170.67,4.19 170.838,4.056 171.026,3.952C171.214,3.848 171.414,3.774 171.626,3.73C171.838,3.686 172.052,3.664 172.268,3.664C172.484,3.664 172.698,3.686 172.91,3.73C173.122,3.774 173.322,3.848 173.51,3.952C173.698,4.056 173.866,4.19 174.014,4.354C174.162,4.518 174.28,4.698 174.368,4.894C174.456,5.09 174.516,5.296 174.548,5.512C174.58,5.728 174.596,5.944 174.596,6.16L174.596,7.6C174.596,7.816 174.58,8.032 174.548,8.248C174.516,8.464 174.456,8.67 174.368,8.866C174.28,9.062 174.162,9.242 174.014,9.406C173.866,9.57 173.698,9.704 173.51,9.808C173.322,9.912 173.122,9.986 172.91,10.03C172.698,10.074 172.484,10.096 172.268,10.096ZM172.268,9.256C172.404,9.256 172.54,9.24 172.676,9.208C172.812,9.176 172.936,9.122 173.048,9.046C173.16,8.97 173.258,8.876 173.342,8.764C173.426,8.652 173.492,8.532 173.54,8.404C173.588,8.276 173.62,8.144 173.636,8.008C173.652,7.872 173.66,7.736 173.66,7.6L173.66,6.16C173.66,6.024 173.652,5.888 173.636,5.752C173.62,5.616 173.588,5.484 173.54,5.356C173.492,5.228 173.426,5.108 173.342,4.996C173.258,4.884 173.16,4.79 173.048,4.714C172.936,4.638 172.812,4.584 172.676,4.552C172.54,4.52 172.404,4.504 172.268,4.504C172.132,4.504 171.996,4.52 171.86,4.552C171.724,4.584 171.6,4.638 171.488,4.714C171.376,4.79 171.278,4.884 171.194,4.996C171.11,5.108 171.044,5.228 170.996,5.356C170.948,5.484 170.916,5.616 170.9,5.752C170.884,5.888 170.876,6.024 170.876,6.16L170.876,7.6C170.876,7.736 170.884,7.872 170.9,8.008C170.916,8.144 170.948,8.276 170.996,8.404C171.044,8.532 171.11,8.652 171.194,8.764C171.278,8.876 171.376,8.97 171.488,9.046C171.6,9.122 171.724,9.176 171.86,9.208C171.996,9.24 172.132,9.256 172.268,9.256Z" style="fill-rule:nonzero;"/>
                <path d="M177.848,10.096C177.648,10.096 177.452,10.068 177.26,10.012C177.068,9.956 176.894,9.866 176.738,9.742C176.582,9.618 176.452,9.472 176.348,9.304C176.244,9.136 176.16,8.958 176.096,8.77C176.032,8.582 175.99,8.39 175.97,8.194C175.95,7.998 175.94,7.8 175.94,7.6L175.94,6.16C175.94,5.96 175.95,5.762 175.97,5.566C175.99,5.37 176.032,5.178 176.096,4.99C176.16,4.802 176.244,4.624 176.348,4.456C176.452,4.288 176.582,4.142 176.738,4.018C176.894,3.894 177.068,3.804 177.26,3.748C177.452,3.692 177.648,3.664 177.848,3.664C178.04,3.664 178.228,3.69 178.412,3.742C178.596,3.794 178.764,3.876 178.916,3.988C179.068,4.1 179.198,4.236 179.306,4.396C179.414,4.556 179.5,4.728 179.564,4.912L179.564,1.18L180.5,1.18L180.5,10L179.564,10L179.564,8.848C179.5,9.032 179.414,9.204 179.306,9.364C179.198,9.524 179.068,9.66 178.916,9.772C178.764,9.884 178.596,9.966 178.412,10.018C178.228,10.07 178.04,10.096 177.848,10.096ZM178.22,9.256C178.356,9.256 178.49,9.24 178.622,9.208C178.754,9.176 178.874,9.12 178.982,9.04C179.09,8.96 179.184,8.864 179.264,8.752C179.344,8.64 179.406,8.52 179.45,8.392C179.494,8.264 179.524,8.134 179.54,8.002C179.556,7.87 179.564,7.736 179.564,7.6L179.564,6.16C179.564,6.024 179.556,5.89 179.54,5.758C179.524,5.626 179.494,5.496 179.45,5.368C179.406,5.24 179.344,5.12 179.264,5.008C179.184,4.896 179.09,4.8 178.982,4.72C178.874,4.64 178.754,4.584 178.622,4.552C178.49,4.52 178.356,4.504 178.22,4.504C178.084,4.504 177.95,4.52 177.818,4.552C177.686,4.584 177.566,4.64 177.458,4.72C177.35,4.8 177.256,4.896 177.176,5.008C177.096,5.12 177.034,5.24 176.99,5.368C176.946,5.496 176.916,5.626 176.9,5.758C176.884,5.89 176.876,6.024 176.876,6.16L176.876,7.6C176.876,7.736 176.884,7.87 176.9,8.002C176.916,8.134 176.946,8.264 176.99,8.392C177.034,8.52 177.096,8.64 177.176,8.752C177.256,8.864 177.35,8.96 177.458,9.04C177.566,9.12 177.686,9.176 177.818,9.208C177.95,9.24 178.084,9.256 178.22,9.256Z" style="fill-rule:nonzero;"/>
                <path d="M195.988,10.096L195.988,10.084C195.988,9.868 195.992,9.652 196,9.436C196.008,9.22 196.03,9.004 196.066,8.788C196.102,8.572 196.154,8.36 196.222,8.152C196.29,7.944 196.374,7.746 196.474,7.558C196.574,7.37 196.69,7.188 196.822,7.012C196.954,6.836 197.098,6.672 197.254,6.52C197.41,6.368 197.572,6.226 197.74,6.094C197.908,5.962 198.08,5.832 198.256,5.704C198.432,5.576 198.604,5.442 198.772,5.302C198.94,5.162 199.084,5.002 199.204,4.822C199.324,4.642 199.414,4.446 199.474,4.234C199.534,4.022 199.564,3.808 199.564,3.592C199.564,3.4 199.542,3.206 199.498,3.01C199.454,2.814 199.374,2.638 199.258,2.482C199.142,2.326 198.99,2.21 198.802,2.134C198.614,2.058 198.424,2.02 198.232,2.02C198.048,2.02 197.87,2.05 197.698,2.11C197.526,2.17 197.378,2.266 197.254,2.398C197.13,2.53 197.04,2.682 196.984,2.854C196.928,3.026 196.9,3.204 196.9,3.388L196.9,3.436L195.964,3.436L195.964,3.364C195.964,3.164 195.986,2.966 196.03,2.77C196.074,2.574 196.144,2.39 196.24,2.218C196.336,2.046 196.456,1.89 196.6,1.75C196.744,1.61 196.904,1.496 197.08,1.408C197.256,1.32 197.442,1.26 197.638,1.228C197.834,1.196 198.032,1.18 198.232,1.18C198.44,1.18 198.648,1.2 198.856,1.24C199.064,1.28 199.26,1.352 199.444,1.456C199.628,1.56 199.79,1.69 199.93,1.846C200.07,2.002 200.184,2.176 200.272,2.368C200.36,2.56 200.42,2.76 200.452,2.968C200.484,3.176 200.5,3.384 200.5,3.592C200.5,3.824 200.474,4.054 200.422,4.282C200.37,4.51 200.29,4.726 200.182,4.93C200.074,5.134 199.942,5.324 199.786,5.5C199.63,5.676 199.464,5.838 199.288,5.986C199.112,6.134 198.932,6.278 198.748,6.418C198.564,6.558 198.386,6.706 198.214,6.862C198.042,7.018 197.882,7.184 197.734,7.36C197.586,7.536 197.456,7.726 197.344,7.93C197.232,8.134 197.144,8.348 197.08,8.572C197.016,8.796 196.972,9.024 196.948,9.256L200.452,9.256L200.452,10.096L195.988,10.096Z" style="fill-rule:nonzero;"/>
                <path d="M207.416,12.028L206.96,11.296C207.4,11.04 207.794,10.716 208.142,10.324C208.49,9.932 208.772,9.502 208.988,9.034C209.204,8.566 209.354,8.074 209.438,7.558C209.522,7.042 209.564,6.528 209.564,6.016C209.564,5.504 209.522,4.99 209.438,4.474C209.354,3.958 209.204,3.466 208.988,2.998C208.772,2.53 208.49,2.1 208.142,1.708C207.794,1.316 207.4,0.992 206.96,0.736L207.416,0.004C207.76,0.196 208.082,0.422 208.382,0.682C208.682,0.942 208.952,1.23 209.192,1.546C209.432,1.862 209.636,2.2 209.804,2.56C209.972,2.92 210.108,3.29 210.212,3.67C210.316,4.05 210.39,4.438 210.434,4.834C210.478,5.23 210.5,5.624 210.5,6.016C210.5,6.408 210.478,6.802 210.434,7.198C210.39,7.594 210.316,7.982 210.212,8.362C210.108,8.742 209.972,9.112 209.804,9.472C209.636,9.832 209.432,10.17 209.192,10.486C208.952,10.802 208.682,11.09 208.382,11.35C208.082,11.61 207.76,11.836 207.416,12.028Z" style="fill-rule:nonzero;"/>
                <path d="M216.96,5.248L216.96,4.444L222.192,4.444L222.636,4.852L222.552,4.924L222.552,4.852L221.832,4.852L221.832,5.248L216.96,5.248ZM216.96,7.396L216.96,6.592L221.832,6.592L221.832,6.988L222.552,6.988L222.552,6.916L222.636,6.988L222.192,7.396L216.96,7.396Z" style="fill-rule:nonzero;"/>
                <path d="M222.552,5.248L222.552,4.852L221.832,4.852L221.832,4.924L221.748,4.852L222.192,4.444L227.424,4.444L227.424,5.248L222.552,5.248ZM222.192,7.396L221.748,6.988L221.832,6.916L221.832,6.988L222.552,6.988L222.552,6.592L227.424,6.592L227.424,7.396L222.192,7.396Z" style="fill-rule:nonzero;"/>
                <path d="M236.212,10.426C235.996,10.426 235.782,10.404 235.57,10.36C235.358,10.316 235.158,10.242 234.97,10.138C234.782,10.034 234.614,9.9 234.466,9.736C234.318,9.572 234.2,9.392 234.112,9.196C234.024,9 233.964,8.794 233.932,8.578C233.9,8.362 233.884,8.146 233.884,7.93L233.884,3.91C233.884,3.694 233.9,3.478 233.932,3.262C233.964,3.046 234.024,2.84 234.112,2.644C234.2,2.448 234.318,2.268 234.466,2.104C234.614,1.94 234.782,1.806 234.97,1.702C235.158,1.598 235.358,1.524 235.57,1.48C235.782,1.436 235.996,1.414 236.212,1.414C236.428,1.414 236.642,1.436 236.854,1.48C237.066,1.524 237.266,1.598 237.454,1.702C237.642,1.806 237.81,1.94 237.958,2.104C238.106,2.268 238.224,2.448 238.312,2.644C238.4,2.84 238.46,3.046 238.492,3.262C238.524,3.478 238.54,3.694 238.54,3.91L238.54,7.93C238.54,8.146 238.524,8.362 238.492,8.578C238.46,8.794 238.4,9 238.312,9.196C238.224,9.392 238.106,9.572 237.958,9.736C237.81,9.9 237.642,10.034 237.454,10.138C237.266,10.242 237.066,10.316 236.854,10.36C236.642,10.404 236.428,10.426 236.212,10.426ZM234.82,6.538L237.604,4.33L237.604,3.91C237.604,3.774 237.596,3.638 237.58,3.502C237.564,3.366 237.532,3.234 237.484,3.106C237.436,2.978 237.37,2.858 237.286,2.746C237.202,2.634 237.104,2.54 236.992,2.464C236.88,2.388 236.756,2.334 236.62,2.302C236.484,2.27 236.348,2.254 236.212,2.254C236.076,2.254 235.94,2.27 235.804,2.302C235.668,2.334 235.544,2.388 235.432,2.464C235.32,2.54 235.222,2.634 235.138,2.746C235.054,2.858 234.988,2.978 234.94,3.106C234.892,3.234 234.86,3.366 234.844,3.502C234.828,3.638 234.82,3.774 234.82,3.91L234.82,6.538ZM236.212,9.586C236.348,9.586 236.484,9.57 236.62,9.538C236.756,9.506 236.88,9.452 236.992,9.376C237.104,9.3 237.202,9.206 237.286,9.094C237.37,8.982 237.436,8.862 237.484,8.734C237.532,8.606 237.564,8.474 237.58,8.338C237.596,8.202 237.604,8.066 237.604,7.93L237.604,5.302L234.82,7.51L234.82,7.93C234.82,8.066 234.828,8.202 234.844,8.338C234.86,8.474 234.892,8.606 234.94,8.734C234.988,8.862 235.054,8.982 235.138,9.094C235.222,9.206 235.32,9.3 235.432,9.376C235.544,9.452 235.668,9.506 235.804,9.538C235.94,9.57 236.076,9.586 236.212,9.586Z" style="fill-rule:nonzero;"/>
            </g>
            <path d="M129.859,43.973L238.54,43.973" style="fill:none;stroke:rgb(170,170,170);stroke-width:1px;"/>
            <path d="M179.69,53.276L179.69,52.457C179.69,52.385 179.681,52.367 179.636,52.367C179.438,52.403 179.114,52.412 178.907,52.394L178.889,52.421C178.952,52.808 178.97,53.492 178.97,54.167L178.97,54.662C178.97,55.337 178.961,55.796 178.889,56.282L178.907,56.309C179.015,56.291 179.222,56.282 179.33,56.282C179.438,56.282 179.645,56.291 179.753,56.309L179.771,56.282C179.708,55.769 179.69,55.346 179.69,54.662L179.69,54.194C179.69,53.816 179.807,53.6 179.996,53.303C180.131,53.105 180.329,52.988 180.5,52.988C180.68,52.988 180.851,53.006 180.968,53.114L181.04,53.096L181.22,52.43L181.184,52.394C181.031,52.349 181.022,52.331 180.86,52.331C180.374,52.331 180.113,52.61 179.717,53.294L179.69,53.276Z" style="fill-rule:nonzero;"/>
            <path d="M182.912,53.114L182.912,51.773C182.912,51.107 182.948,50.639 182.993,50.09C182.993,50.027 182.966,50 182.912,50C182.687,50.09 182.498,50.153 182.129,50.18L182.111,50.207C182.183,50.594 182.192,51.269 182.192,51.953L182.192,54.662C182.192,55.328 182.183,55.778 182.111,56.282L182.129,56.309C182.237,56.291 182.444,56.282 182.552,56.282C182.66,56.282 182.867,56.291 182.975,56.309L182.993,56.282C182.93,55.769 182.912,55.346 182.912,54.662L182.912,53.609C183.371,53.069 183.902,52.871 184.217,52.871C184.676,52.871 184.865,53.051 184.865,53.78L184.865,54.662C184.865,55.337 184.856,55.796 184.784,56.282L184.802,56.309C184.91,56.291 185.117,56.282 185.225,56.282C185.333,56.282 185.54,56.291 185.648,56.309L185.666,56.282C185.594,55.769 185.585,55.346 185.585,54.662C185.585,54.374 185.603,54.041 185.603,53.753C185.603,52.817 185.297,52.331 184.487,52.331C184.145,52.331 183.506,52.466 182.93,53.141L182.912,53.114Z" style="fill-rule:nonzero;"/>
            <path d="M186.773,55.373L186.62,56.129C187.133,56.309 187.637,56.372 187.979,56.372C189.221,56.372 189.509,55.634 189.509,55.139C189.509,54.401 188.924,54.113 188.285,53.96C187.943,53.879 187.448,53.708 187.448,53.258C187.448,52.889 187.745,52.691 188.132,52.691C188.6,52.691 188.888,53.06 189.095,53.303L189.221,53.294L189.401,52.628L189.383,52.601C189.122,52.466 188.627,52.331 188.168,52.331C187.502,52.331 186.809,52.682 186.809,53.429C186.809,54.149 187.349,54.383 187.889,54.536C188.411,54.68 188.798,54.824 188.798,55.265C188.798,55.742 188.447,56.012 187.97,56.012C187.538,56.012 187.16,55.715 186.908,55.364L186.773,55.373Z" style="fill-rule:nonzero;"/>
            <path d="M182.036,26.487C182.036,26.775 182.261,27 182.54,27C182.819,27 183.044,26.775 183.044,26.487C183.044,26.208 182.819,25.983 182.54,25.983C182.261,25.983 182.036,26.208 182.036,26.487Z" style="fill-rule:nonzero;"/>
            <path d="M184.016,26.487C184.016,26.775 184.241,27 184.52,27C184.799,27 185.024,26.775 185.024,26.487C185.024,26.208 184.799,25.983 184.52,25.983C184.241,25.983 184.016,26.208 184.016,26.487Z" style="fill-rule:nonzero;"/>
            <path d="M185.996,26.487C185.996,26.775 186.221,27 186.5,27C186.779,27 187.004,26.775 187.004,26.487C187.004,26.208 186.779,25.983 186.5,25.983C186.221,25.983 185.996,26.208 185.996,26.487Z" style="fill-rule:nonzero;"/>
        </g>
        <path d="M0.5,70L238.54,70" style="fill:none;stroke:rgb(170,170,170);stroke-width:1px;"/>
        <path d="M101.106,81.868C101.214,82.219 101.475,82.39 101.808,82.39C102.033,82.39 102.312,82.336 102.528,82.111L102.456,81.886C102.357,81.922 102.285,81.931 102.213,81.931C102.123,81.931 102.006,81.922 101.952,81.868C101.862,81.787 101.799,81.562 101.799,81.166C101.799,80.905 101.826,79.906 101.826,79.807C101.826,78.592 101.025,78.349 100.341,78.349C99.657,78.349 99.243,78.682 99.018,78.871L98.991,78.907L99.144,79.51L99.261,79.519C99.513,79.114 99.819,78.754 100.251,78.754C100.575,78.754 101.115,78.799 101.115,79.816C101.115,79.879 101.079,79.915 101.052,79.924L100.215,80.113C99.297,80.32 98.721,80.806 98.721,81.418C98.721,82.084 99.18,82.39 99.846,82.39C100.341,82.39 100.593,82.273 101.07,81.868L101.106,81.868ZM101.106,80.275L101.07,81.346C101.07,81.463 101.016,81.526 100.944,81.58C100.692,81.769 100.386,81.931 100.116,81.931C99.711,81.931 99.45,81.661 99.45,81.382C99.45,80.977 99.639,80.671 100.341,80.482L101.106,80.275Z" style="fill-rule:nonzero;"/>
        <path d="M103.095,81.391L102.942,82.147C103.455,82.327 103.959,82.39 104.301,82.39C105.543,82.39 105.831,81.652 105.831,81.157C105.831,80.419 105.246,80.131 104.607,79.978C104.265,79.897 103.77,79.726 103.77,79.276C103.77,78.907 104.067,78.709 104.454,78.709C104.922,78.709 105.21,79.078 105.417,79.321L105.543,79.312L105.723,78.646L105.705,78.619C105.444,78.484 104.949,78.349 104.49,78.349C103.824,78.349 103.131,78.7 103.131,79.447C103.131,80.167 103.671,80.401 104.211,80.554C104.733,80.698 105.12,80.842 105.12,81.283C105.12,81.76 104.769,82.03 104.292,82.03C103.86,82.03 103.482,81.733 103.23,81.382L103.095,81.391Z" style="fill-rule:nonzero;"/>
        <path d="M106.659,81.391L106.506,82.147C107.019,82.327 107.523,82.39 107.865,82.39C109.107,82.39 109.395,81.652 109.395,81.157C109.395,80.419 108.81,80.131 108.171,79.978C107.829,79.897 107.334,79.726 107.334,79.276C107.334,78.907 107.631,78.709 108.018,78.709C108.486,78.709 108.774,79.078 108.981,79.321L109.107,79.312L109.287,78.646L109.269,78.619C109.008,78.484 108.513,78.349 108.054,78.349C107.388,78.349 106.695,78.7 106.695,79.447C106.695,80.167 107.235,80.401 107.775,80.554C108.297,80.698 108.684,80.842 108.684,81.283C108.684,81.76 108.333,82.03 107.856,82.03C107.424,82.03 107.046,81.733 106.794,81.382L106.659,81.391Z" style="fill-rule:nonzero;"/>
        <path d="M110.583,80.185L110.583,80.68C110.583,81.355 110.565,81.814 110.502,82.3L110.52,82.327C110.628,82.309 110.835,82.3 110.943,82.3C111.051,82.3 111.258,82.309 111.366,82.327L111.384,82.3C111.321,81.787 111.303,81.364 111.303,80.68L111.303,80.041C111.303,79.366 111.33,79.042 111.384,78.493C111.384,78.412 111.375,78.403 111.303,78.403C111.096,78.421 110.709,78.43 110.52,78.412L110.502,78.439C110.556,78.826 110.583,79.51 110.583,80.185ZM110.493,76.927C110.493,77.17 110.709,77.386 110.952,77.386C111.195,77.386 111.411,77.17 111.411,76.927C111.411,76.684 111.195,76.468 110.952,76.468C110.709,76.468 110.493,76.684 110.493,76.927Z" style="fill-rule:nonzero;"/>
        <path d="M115.623,79.735C115.623,79.114 115.38,78.826 115.173,78.691C115.443,78.709 115.74,78.745 116.109,78.781L116.136,78.754C116.118,78.673 116.109,78.601 116.109,78.52C116.109,78.439 116.118,78.367 116.136,78.286L116.109,78.259C115.677,78.295 115.362,78.394 114.687,78.43C114.525,78.376 114.336,78.349 114.138,78.349C113.427,78.349 112.608,78.826 112.608,79.717C112.608,80.392 112.995,80.698 113.247,80.842C112.986,81.022 112.671,81.283 112.671,81.589C112.671,81.958 112.887,82.282 113.373,82.363C113.121,82.471 112.842,82.642 112.608,82.822C112.5,82.993 112.401,83.245 112.401,83.416C112.401,84.127 113.175,84.433 114.129,84.433C115.533,84.433 116.37,83.848 116.37,83.002C116.37,82.606 116.244,82.327 115.992,82.111C115.659,81.823 115.038,81.814 114.723,81.814C114.57,81.814 114.21,81.832 114.003,81.859C113.877,81.868 113.787,81.877 113.742,81.877C113.49,81.877 113.22,81.841 113.22,81.454C113.22,81.274 113.265,81.121 113.463,80.95C113.58,81.013 113.859,81.076 114.129,81.076C115.065,81.076 115.623,80.446 115.623,79.735ZM113.022,83.236C113.022,82.939 113.292,82.606 113.607,82.435C113.877,82.435 114.282,82.408 114.408,82.408C114.84,82.408 115.119,82.417 115.362,82.561C115.623,82.714 115.713,82.975 115.713,83.209C115.713,83.758 114.975,84.046 114.201,84.046C113.616,84.046 113.022,83.848 113.022,83.236ZM114.921,79.744C114.921,80.293 114.696,80.716 114.156,80.716C113.508,80.716 113.31,80.293 113.31,79.672C113.31,79.078 113.58,78.691 114.102,78.691C114.687,78.691 114.921,79.105 114.921,79.744Z" style="fill-rule:nonzero;"/>
        <path d="M120.744,80.68C120.744,80.392 120.762,80.059 120.762,79.771C120.762,78.835 120.456,78.349 119.646,78.349C119.304,78.349 118.665,78.484 118.089,79.159L118.071,79.132L118.071,78.475C118.071,78.403 118.062,78.385 118.017,78.385C117.819,78.421 117.495,78.43 117.288,78.412L117.27,78.439C117.333,78.826 117.351,79.51 117.351,80.185L117.351,80.68C117.351,81.355 117.342,81.814 117.27,82.3L117.288,82.327C117.396,82.309 117.603,82.3 117.711,82.3C117.819,82.3 118.026,82.309 118.134,82.327L118.152,82.3C118.08,81.787 118.071,81.364 118.071,80.68L118.071,79.627C118.53,79.087 119.052,78.889 119.376,78.889C119.835,78.889 120.024,79.069 120.024,79.798L120.024,80.68C120.024,81.355 120.006,81.814 119.943,82.3L119.961,82.327C120.069,82.309 120.276,82.3 120.384,82.3C120.492,82.3 120.699,82.309 120.807,82.327L120.825,82.3C120.753,81.787 120.744,81.364 120.744,80.68Z" style="fill-rule:nonzero;"/>
        <path d="M122.913,79.132L122.913,78.475C122.913,78.403 122.904,78.385 122.859,78.385C122.661,78.421 122.337,78.43 122.13,78.412L122.112,78.439C122.175,78.826 122.193,79.51 122.193,80.185L122.193,80.68C122.193,81.355 122.184,81.814 122.112,82.3L122.13,82.327C122.238,82.309 122.445,82.3 122.553,82.3C122.661,82.3 122.868,82.309 122.976,82.327L122.994,82.3C122.922,81.787 122.913,81.364 122.913,80.68L122.913,79.591C123.336,79.159 123.84,78.889 124.155,78.889C124.497,78.889 124.749,79.087 124.749,79.69L124.749,80.68C124.749,81.355 124.74,81.814 124.668,82.3L124.686,82.327C124.794,82.309 125.001,82.3 125.109,82.3C125.217,82.3 125.424,82.309 125.532,82.327L125.55,82.3C125.478,81.787 125.469,81.364 125.469,80.68L125.469,79.771C125.469,79.645 125.469,79.537 125.46,79.429C125.892,78.952 126.252,78.889 126.603,78.889C127.089,78.889 127.323,79.087 127.323,79.69L127.323,80.68C127.323,81.355 127.314,81.814 127.242,82.3L127.26,82.327C127.368,82.309 127.575,82.3 127.683,82.3C127.791,82.3 127.998,82.309 128.106,82.327L128.124,82.3C128.052,81.787 128.043,81.364 128.043,80.68L128.043,79.78C128.043,78.979 127.899,78.349 126.927,78.349C126.441,78.349 125.919,78.52 125.406,79.06C125.325,78.628 124.956,78.349 124.452,78.349C123.894,78.349 123.363,78.709 122.94,79.159L122.913,79.132Z" style="fill-rule:nonzero;"/>
        <path d="M132.246,81.364C131.931,81.706 131.508,81.859 131.013,81.859C130.707,81.859 130.284,81.742 130.032,81.346C129.87,81.094 129.816,80.725 129.816,80.203L132.264,80.203C132.363,80.203 132.426,80.149 132.426,80.05C132.426,79.294 132.057,78.349 130.869,78.349C129.942,78.349 129.024,79.096 129.024,80.419C129.024,80.932 129.132,81.436 129.429,81.796C129.735,82.165 130.257,82.39 130.86,82.39C131.508,82.39 132.084,82.057 132.426,81.589L132.246,81.364ZM129.843,79.843C129.996,78.907 130.59,78.709 130.869,78.709C131.229,78.709 131.625,79.042 131.625,79.717C131.625,79.798 131.589,79.843 131.499,79.843L129.843,79.843Z" style="fill-rule:nonzero;"/>
        <path d="M136.935,80.68C136.935,80.392 136.953,80.059 136.953,79.771C136.953,78.835 136.647,78.349 135.837,78.349C135.495,78.349 134.856,78.484 134.28,79.159L134.262,79.132L134.262,78.475C134.262,78.403 134.253,78.385 134.208,78.385C134.01,78.421 133.686,78.43 133.479,78.412L133.461,78.439C133.524,78.826 133.542,79.51 133.542,80.185L133.542,80.68C133.542,81.355 133.533,81.814 133.461,82.3L133.479,82.327C133.587,82.309 133.794,82.3 133.902,82.3C134.01,82.3 134.217,82.309 134.325,82.327L134.343,82.3C134.271,81.787 134.262,81.364 134.262,80.68L134.262,79.627C134.721,79.087 135.243,78.889 135.567,78.889C136.026,78.889 136.215,79.069 136.215,79.798L136.215,80.68C136.215,81.355 136.197,81.814 136.134,82.3L136.152,82.327C136.26,82.309 136.467,82.3 136.575,82.3C136.683,82.3 136.89,82.309 136.998,82.327L137.016,82.3C136.944,81.787 136.935,81.364 136.935,80.68Z" style="fill-rule:nonzero;"/>
        <path d="M138.501,78.439C138.321,78.439 138.123,78.439 138.015,78.421C137.952,78.565 137.907,78.655 137.817,78.79L137.862,78.853C138.015,78.844 138.294,78.835 138.501,78.835L138.501,80.068C138.501,80.608 138.474,81.256 138.474,81.526C138.474,82.111 138.852,82.39 139.266,82.39C139.644,82.39 139.932,82.3 140.31,82.057L140.202,81.832C139.923,81.931 139.716,81.94 139.491,81.904C139.275,81.868 139.194,81.652 139.194,81.166C139.194,80.896 139.221,80.509 139.221,79.969L139.221,78.835L139.563,78.835C139.779,78.835 140.094,78.844 140.211,78.853C140.238,78.709 140.265,78.619 140.319,78.484L140.274,78.421C140.112,78.43 139.851,78.439 139.644,78.439L139.221,78.439C139.221,77.764 139.23,77.647 139.266,77.125C139.266,77.062 139.239,77.035 139.185,77.035C138.96,77.125 138.852,77.215 138.555,77.26L138.537,77.287C138.519,77.602 138.501,77.917 138.501,78.439Z" style="fill-rule:nonzero;"/>
    </g>
    <g id="Type-inference" serif:id="Type inference">
    </g>
</svg>
