<?xml version="1.0" encoding="UTF-8" standalone="no"?><!DOCTYPE svg PUBLIC "-//W3C//DTD SVG 1.1//EN" "http://www.w3.org/Graphics/SVG/1.1/DTD/svg11.dtd"><svg width="100%" height="100%" viewBox="0 0 206 107" version="1.1" xmlns="http://www.w3.org/2000/svg" xmlns:xlink="http://www.w3.org/1999/xlink" xml:space="preserve" xmlns:serif="http://www.serif.com/" style="fill-rule:evenodd;clip-rule:evenodd;stroke-linecap:round;stroke-linejoin:round;stroke-miterlimit:1.5;"><g id="Parsing"></g><g id="Tree"></g><g id="Web"></g><g id="Type-inference" serif:id="Type inference"></g><g id="By-language" serif:id="By language"><path d="M132.259,19.929l5.521,-0l0,8.573l-11.28,-0l0.044,-10.002l3.81,0c0,0 0.065,1.429 1.905,1.429Z" style="fill:none;stroke:#000;stroke-width:1px;"/><path d="M143.15,26.022c0.12,0.39 0.41,0.58 0.78,0.58c0.25,-0 0.56,-0.06 0.8,-0.31l-0.08,-0.25c-0.11,0.04 -0.19,0.05 -0.27,0.05c-0.1,-0 -0.23,-0.01 -0.29,-0.07c-0.1,-0.09 -0.17,-0.34 -0.17,-0.78c0,-0.29 0.03,-1.4 0.03,-1.51c0,-1.35 -0.89,-1.62 -1.65,-1.62c-0.76,-0 -1.22,0.37 -1.47,0.58l-0.03,0.04l0.17,0.67l0.13,0.01c0.28,-0.45 0.62,-0.85 1.1,-0.85c0.36,-0 0.96,0.05 0.96,1.18c0,0.07 -0.04,0.11 -0.07,0.12l-0.93,0.21c-1.02,0.23 -1.66,0.77 -1.66,1.45c0,0.74 0.51,1.08 1.25,1.08c0.55,-0 0.83,-0.13 1.36,-0.58l0.04,-0Zm0,-1.77l-0.04,1.19c0,0.13 -0.06,0.2 -0.14,0.26c-0.28,0.21 -0.62,0.39 -0.92,0.39c-0.45,-0 -0.74,-0.3 -0.74,-0.61c0,-0.45 0.21,-0.79 0.99,-1l0.85,-0.23Z" style="fill-rule:nonzero;"/><path d="M147.36,22.512c0.39,-0 0.74,0.28 1,0.74l0.13,-0.01l0.23,-0.82l-0.02,-0.03c-0.31,-0.16 -0.83,-0.28 -1.33,-0.28c-1.04,-0 -2.13,0.85 -2.13,2.21c0,1.39 0.79,2.28 2.01,2.28c0.6,-0 1.07,-0.2 1.47,-0.71l-0.19,-0.21l-0.04,-0c-0.38,0.34 -0.7,0.42 -1.07,0.42c-0.73,-0 -1.3,-0.66 -1.3,-1.83c0,-1.1 0.58,-1.76 1.24,-1.76Z" style="fill-rule:nonzero;"/><path d="M150.77,22.982l0,-0.73c0,-0.08 -0.01,-0.1 -0.06,-0.1c-0.22,0.04 -0.58,0.05 -0.81,0.03l-0.02,0.03c0.07,0.43 0.09,1.19 0.09,1.94l0,0.55c0,0.75 -0.01,1.26 -0.09,1.8l0.02,0.03c0.12,-0.02 0.35,-0.03 0.47,-0.03c0.12,-0 0.35,0.01 0.47,0.03l0.02,-0.03c-0.08,-0.57 -0.09,-1.04 -0.09,-1.8l0,-1.21c0.47,-0.48 1.03,-0.78 1.38,-0.78c0.38,-0 0.66,0.22 0.66,0.89l0,1.1c0,0.75 -0.01,1.26 -0.09,1.8l0.02,0.03c0.12,-0.02 0.35,-0.03 0.47,-0.03c0.12,-0 0.35,0.01 0.47,0.03l0.02,-0.03c-0.08,-0.57 -0.09,-1.04 -0.09,-1.8l0,-1.01c0,-0.14 0,-0.26 -0.01,-0.38c0.48,-0.53 0.88,-0.6 1.27,-0.6c0.54,-0 0.8,0.22 0.8,0.89l0,1.1c0,0.75 -0.01,1.26 -0.09,1.8l0.02,0.03c0.12,-0.02 0.35,-0.03 0.47,-0.03c0.12,-0 0.35,0.01 0.47,0.03l0.02,-0.03c-0.08,-0.57 -0.09,-1.04 -0.09,-1.8l0,-1c0,-0.89 -0.16,-1.59 -1.24,-1.59c-0.54,-0 -1.12,0.19 -1.69,0.79c-0.09,-0.48 -0.5,-0.79 -1.06,-0.79c-0.62,-0 -1.21,0.4 -1.68,0.9l-0.03,-0.03Z" style="fill-rule:nonzero;"/><path d="M161.14,25.462c-0.35,0.38 -0.82,0.55 -1.37,0.55c-0.34,-0 -0.81,-0.13 -1.09,-0.57c-0.18,-0.28 -0.24,-0.69 -0.24,-1.27l2.72,-0c0.11,-0 0.18,-0.06 0.18,-0.17c0,-0.84 -0.41,-1.89 -1.73,-1.89c-1.03,-0 -2.05,0.83 -2.05,2.3c0,0.57 0.12,1.13 0.45,1.53c0.34,0.41 0.92,0.66 1.59,0.66c0.72,-0 1.36,-0.37 1.74,-0.89l-0.2,-0.25Zm-2.67,-1.69c0.17,-1.04 0.83,-1.26 1.14,-1.26c0.4,-0 0.84,0.37 0.84,1.12c0,0.09 -0.04,0.14 -0.14,0.14l-1.84,-0Z" style="fill-rule:nonzero;"/><path d="M122.259,1.929l5.521,-0l0,8.573l-11.28,-0l0.044,-10.002l3.81,0c0,0 0.065,1.429 1.905,1.429Z" style="fill:none;stroke:#000;stroke-width:1px;"/><path d="M131,4.212c-0.2,-0 -0.42,-0 -0.54,-0.02c-0.07,0.16 -0.12,0.26 -0.22,0.41l0.05,0.07c0.17,-0.01 0.48,-0.02 0.71,-0.02l0,1.37c0,0.6 -0.03,1.32 -0.03,1.62c0,0.65 0.42,0.96 0.88,0.96c0.42,-0 0.74,-0.1 1.16,-0.37l-0.12,-0.25c-0.31,0.11 -0.54,0.12 -0.79,0.08c-0.24,-0.04 -0.33,-0.28 -0.33,-0.82c0,-0.3 0.03,-0.73 0.03,-1.33l0,-1.26l0.38,-0c0.24,-0 0.59,0.01 0.72,0.02c0.03,-0.16 0.06,-0.26 0.12,-0.41l-0.05,-0.07c-0.18,0.01 -0.47,0.02 -0.7,0.02l-0.47,-0c0,-0.75 0.01,-0.88 0.05,-1.46c0,-0.07 -0.03,-0.1 -0.09,-0.1c-0.25,0.1 -0.37,0.2 -0.7,0.25l-0.02,0.03c-0.02,0.35 -0.04,0.7 -0.04,1.28Z" style="fill-rule:nonzero;"/><path d="M133.95,7.492l-0.17,0.84c0.57,0.2 1.13,0.27 1.51,0.27c1.38,-0 1.7,-0.82 1.7,-1.37c0,-0.82 -0.65,-1.14 -1.36,-1.31c-0.38,-0.09 -0.93,-0.28 -0.93,-0.78c0,-0.41 0.33,-0.63 0.76,-0.63c0.52,-0 0.84,0.41 1.07,0.68l0.14,-0.01l0.2,-0.74l-0.02,-0.03c-0.29,-0.15 -0.84,-0.3 -1.35,-0.3c-0.74,-0 -1.51,0.39 -1.51,1.22c0,0.8 0.6,1.06 1.2,1.23c0.58,0.16 1.01,0.32 1.01,0.81c0,0.53 -0.39,0.83 -0.92,0.83c-0.48,-0 -0.9,-0.33 -1.18,-0.72l-0.15,0.01Z" style="fill-rule:nonzero;"/><path d="M151.8,43.022c0.12,0.39 0.41,0.58 0.78,0.58c0.25,-0 0.56,-0.06 0.8,-0.31l-0.08,-0.25c-0.11,0.04 -0.19,0.05 -0.27,0.05c-0.1,-0 -0.23,-0.01 -0.29,-0.07c-0.1,-0.09 -0.17,-0.34 -0.17,-0.78c0,-0.29 0.03,-1.4 0.03,-1.51c0,-1.35 -0.89,-1.62 -1.65,-1.62c-0.76,-0 -1.22,0.37 -1.47,0.58l-0.03,0.04l0.17,0.67l0.13,0.01c0.28,-0.45 0.62,-0.85 1.1,-0.85c0.36,-0 0.96,0.05 0.96,1.18c0,0.07 -0.04,0.11 -0.07,0.12l-0.93,0.21c-1.02,0.23 -1.66,0.77 -1.66,1.45c0,0.74 0.51,1.08 1.25,1.08c0.55,-0 0.83,-0.13 1.36,-0.58l0.04,-0Zm0,-1.77l-0.04,1.19c0,0.13 -0.06,0.2 -0.14,0.26c-0.28,0.21 -0.62,0.39 -0.92,0.39c-0.45,-0 -0.74,-0.3 -0.74,-0.61c0,-0.45 0.21,-0.79 0.99,-1l0.85,-0.23Z" style="fill-rule:nonzero;"/><path d="M157.16,42.582l0.04,0.03l0.05,0.89c0,0.02 0.01,0.03 0.04,0.03c0.13,-0.02 0.25,-0.03 0.4,-0.03c0.12,-0 0.31,0.01 0.44,0.03l0.02,-0.03c-0.08,-0.43 -0.17,-1.17 -0.17,-1.92l0,-0.57c0,-0.75 0.01,-1.27 0.09,-1.8l-0.02,-0.03c-0.12,0.02 -0.35,0.03 -0.47,0.03c-0.12,-0 -0.35,-0.01 -0.47,-0.03l-0.02,0.03c0.08,0.57 0.09,1.04 0.09,1.8l0,0.98c-0.3,0.51 -0.88,1.05 -1.37,1.05c-0.34,-0 -0.67,-0.11 -0.67,-1.04l0,-0.99c0,-0.75 0.01,-1.27 0.09,-1.8l-0.02,-0.03c-0.12,0.02 -0.35,0.03 -0.47,0.03c-0.12,-0 -0.35,-0.01 -0.47,-0.03l-0.02,0.03c0.08,0.57 0.09,1.04 0.09,1.8l0,1.2c0,0.69 0.32,1.39 1.31,1.39c0.62,-0 1.18,-0.51 1.51,-1.02Z" style="fill-rule:nonzero;"/><path d="M159.83,39.212c-0.2,-0 -0.42,-0 -0.54,-0.02c-0.07,0.16 -0.12,0.26 -0.22,0.41l0.05,0.07c0.17,-0.01 0.48,-0.02 0.71,-0.02l0,1.37c0,0.6 -0.03,1.32 -0.03,1.62c0,0.65 0.42,0.96 0.88,0.96c0.42,-0 0.74,-0.1 1.16,-0.37l-0.12,-0.25c-0.31,0.11 -0.54,0.12 -0.79,0.08c-0.24,-0.04 -0.33,-0.28 -0.33,-0.82c0,-0.3 0.03,-0.73 0.03,-1.33l0,-1.26l0.38,-0c0.24,-0 0.59,0.01 0.72,0.02c0.03,-0.16 0.06,-0.26 0.12,-0.41l-0.05,-0.07c-0.18,0.01 -0.47,0.02 -0.7,0.02l-0.47,-0c0,-0.75 0.01,-0.88 0.05,-1.46c0,-0.07 -0.03,-0.1 -0.09,-0.1c-0.25,0.1 -0.37,0.2 -0.7,0.25l-0.02,0.03c-0.02,0.35 -0.04,0.7 -0.04,1.28Z" style="fill-rule:nonzero;"/><path d="M163.98,39.982l0,-1.49c0,-0.74 0.04,-1.26 0.09,-1.87c0,-0.07 -0.03,-0.1 -0.09,-0.1c-0.25,0.1 -0.46,0.17 -0.87,0.2l-0.02,0.03c0.08,0.43 0.09,1.18 0.09,1.94l0,3.01c0,0.74 -0.01,1.24 -0.09,1.8l0.02,0.03c0.12,-0.02 0.35,-0.03 0.47,-0.03c0.12,-0 0.35,0.01 0.47,0.03l0.02,-0.03c-0.07,-0.57 -0.09,-1.04 -0.09,-1.8l0,-1.17c0.51,-0.6 1.1,-0.82 1.45,-0.82c0.51,-0 0.72,0.2 0.72,1.01l0,0.98c0,0.75 -0.01,1.26 -0.09,1.8l0.02,0.03c0.12,-0.02 0.35,-0.03 0.47,-0.03c0.12,-0 0.35,0.01 0.47,0.03l0.02,-0.03c-0.08,-0.57 -0.09,-1.04 -0.09,-1.8c0,-0.32 0.02,-0.69 0.02,-1.01c0,-1.04 -0.34,-1.58 -1.24,-1.58c-0.38,-0 -1.09,0.15 -1.73,0.9l-0.02,-0.03Z" style="fill-rule:nonzero;"/><path d="M168.31,43.042c0,0.32 0.25,0.57 0.56,0.57c0.31,-0 0.56,-0.25 0.56,-0.57c0,-0.31 -0.25,-0.56 -0.56,-0.56c-0.31,-0 -0.56,0.25 -0.56,0.56Z" style="fill-rule:nonzero;"/><path d="M170.92,39.212c-0.2,-0 -0.42,-0 -0.54,-0.02c-0.07,0.16 -0.12,0.26 -0.22,0.41l0.05,0.07c0.17,-0.01 0.48,-0.02 0.71,-0.02l-0,1.37c-0,0.6 -0.03,1.32 -0.03,1.62c-0,0.65 0.42,0.96 0.88,0.96c0.42,-0 0.74,-0.1 1.16,-0.37l-0.12,-0.25c-0.31,0.11 -0.54,0.12 -0.79,0.08c-0.24,-0.04 -0.33,-0.28 -0.33,-0.82c0,-0.3 0.03,-0.73 0.03,-1.33l0,-1.26l0.38,-0c0.24,-0 0.59,0.01 0.72,0.02c0.03,-0.16 0.06,-0.26 0.12,-0.41l-0.05,-0.07c-0.18,0.01 -0.47,0.02 -0.7,0.02l-0.47,-0c0,-0.75 0.01,-0.88 0.05,-1.46c0,-0.07 -0.03,-0.1 -0.09,-0.1c-0.25,0.1 -0.37,0.2 -0.7,0.25l-0.02,0.03c-0.02,0.35 -0.04,0.7 -0.04,1.28Z" style="fill-rule:nonzero;"/><path d="M173.87,42.492l-0.17,0.84c0.57,0.2 1.13,0.27 1.51,0.27c1.38,-0 1.7,-0.82 1.7,-1.37c0,-0.82 -0.65,-1.14 -1.36,-1.31c-0.38,-0.09 -0.93,-0.28 -0.93,-0.78c0,-0.41 0.33,-0.63 0.76,-0.63c0.52,-0 0.84,0.41 1.07,0.68l0.14,-0.01l0.2,-0.74l-0.02,-0.03c-0.29,-0.15 -0.84,-0.3 -1.35,-0.3c-0.74,-0 -1.51,0.39 -1.51,1.22c0,0.8 0.6,1.06 1.2,1.23c0.58,0.16 1.01,0.32 1.01,0.81c0,0.53 -0.39,0.83 -0.92,0.83c-0.48,-0 -0.9,-0.33 -1.18,-0.72l-0.15,0.01Z" style="fill-rule:nonzero;"/><path d="M142.5,38.317l3,-0l-0,6.5l-8,-0l-0,-9.5l5,-0l-0,3Z" style="fill:none;stroke:#000;stroke-width:1px;"/><path d="M142.5,35.317c2.908,3.061 3,3 3,3" style="fill:none;stroke:#000;stroke-width:1px;"/><path d="M150.32,53.667l0,-0.73c0,-0.08 -0.01,-0.1 -0.06,-0.1c-0.22,0.04 -0.58,0.05 -0.81,0.03l-0.02,0.03c0.07,0.43 0.09,1.19 0.09,1.94l0,2.67c0,0.74 -0.02,1.46 -0.09,2l0.02,0.03c0.12,-0.02 0.35,-0.03 0.47,-0.03c0.12,-0 0.35,0.01 0.47,0.03l0.02,-0.03c-0.07,-0.57 -0.09,-1.25 -0.09,-2l0,-0.44c0.26,0.14 0.63,0.22 0.99,0.22c1.32,-0 2.12,-1 2.12,-2.41c0,-1.06 -0.62,-2.08 -1.74,-2.08c-0.39,-0 -0.89,0.2 -1.35,0.9l-0.02,-0.03Zm0,0.58c0.22,-0.53 0.81,-0.99 1.2,-0.99c0.68,-0 1.03,0.62 1.03,1.75c0,0.82 -0.23,1.88 -1.3,1.88c-0.16,-0 -0.58,-0.04 -0.93,-0.45l0,-2.19Z" style="fill-rule:nonzero;"/><path d="M157.03,56.707c0.12,0.39 0.41,0.58 0.78,0.58c0.25,-0 0.56,-0.06 0.8,-0.31l-0.08,-0.25c-0.11,0.04 -0.19,0.05 -0.27,0.05c-0.1,-0 -0.23,-0.01 -0.29,-0.07c-0.1,-0.09 -0.17,-0.34 -0.17,-0.78c0,-0.29 0.03,-1.4 0.03,-1.51c0,-1.35 -0.89,-1.62 -1.65,-1.62c-0.76,-0 -1.22,0.37 -1.47,0.58l-0.03,0.04l0.17,0.67l0.13,0.01c0.28,-0.45 0.62,-0.85 1.1,-0.85c0.36,-0 0.96,0.05 0.96,1.18c0,0.07 -0.04,0.11 -0.07,0.12l-0.93,0.21c-1.02,0.23 -1.66,0.77 -1.66,1.45c0,0.74 0.51,1.08 1.25,1.08c0.55,-0 0.83,-0.13 1.36,-0.58l0.04,-0Zm0,-1.77l-0.04,1.19c0,0.13 -0.06,0.2 -0.14,0.26c-0.28,0.21 -0.62,0.39 -0.92,0.39c-0.45,-0 -0.74,-0.3 -0.74,-0.61c0,-0.45 0.21,-0.79 0.99,-1l0.85,-0.23Z" style="fill-rule:nonzero;"/><path d="M159.02,52.867c0.4,0.89 1.59,3.47 1.94,4.42c-0.32,0.75 -0.73,1.52 -1.18,2.27c0.1,-0.03 0.25,-0.05 0.35,-0.05c0.1,-0 0.39,0.02 0.49,0.05c0.38,-1.25 2.57,-6.02 2.9,-6.69c-0.1,0.03 -0.33,0.03 -0.43,0.03c-0.1,-0 -0.29,-0 -0.39,-0.03c-0.36,1.13 -0.83,2.41 -1.31,3.44l-0.02,-0c-0.49,-1.19 -0.97,-2.3 -1.34,-3.44c-0.13,0.03 -0.35,0.03 -0.49,0.03c-0.13,-0 -0.38,-0 -0.52,-0.03Z" style="fill-rule:nonzero;"/><path d="M165.42,53.667l0,-0.73c0,-0.08 -0.01,-0.1 -0.06,-0.1c-0.22,0.04 -0.58,0.05 -0.81,0.03l-0.02,0.03c0.07,0.43 0.09,1.19 0.09,1.94l0,0.55c0,0.75 -0.01,1.26 -0.09,1.8l0.02,0.03c0.12,-0.02 0.35,-0.03 0.47,-0.03c0.12,-0 0.35,0.01 0.47,0.03l0.02,-0.03c-0.08,-0.57 -0.09,-1.04 -0.09,-1.8l0,-1.21c0.47,-0.48 1.03,-0.78 1.38,-0.78c0.38,-0 0.66,0.22 0.66,0.89l0,1.1c0,0.75 -0.01,1.26 -0.09,1.8l0.02,0.03c0.12,-0.02 0.35,-0.03 0.47,-0.03c0.12,-0 0.35,0.01 0.47,0.03l0.02,-0.03c-0.08,-0.57 -0.09,-1.04 -0.09,-1.8l0,-1.01c0,-0.14 0,-0.26 -0.01,-0.38c0.48,-0.53 0.88,-0.6 1.27,-0.6c0.54,-0 0.8,0.22 0.8,0.89l0,1.1c0,0.75 -0.01,1.26 -0.09,1.8l0.02,0.03c0.12,-0.02 0.35,-0.03 0.47,-0.03c0.12,-0 0.35,0.01 0.47,0.03l0.02,-0.03c-0.08,-0.57 -0.09,-1.04 -0.09,-1.8l0,-1c0,-0.89 -0.16,-1.59 -1.24,-1.59c-0.54,-0 -1.12,0.19 -1.69,0.79c-0.09,-0.48 -0.5,-0.79 -1.06,-0.79c-0.62,-0 -1.21,0.4 -1.68,0.9l-0.03,-0.03Z" style="fill-rule:nonzero;"/><path d="M175.79,56.147c-0.35,0.38 -0.82,0.55 -1.37,0.55c-0.34,-0 -0.81,-0.13 -1.09,-0.57c-0.18,-0.28 -0.24,-0.69 -0.24,-1.27l2.72,-0c0.11,-0 0.18,-0.06 0.18,-0.17c0,-0.84 -0.41,-1.89 -1.73,-1.89c-1.03,-0 -2.05,0.83 -2.05,2.3c0,0.57 0.12,1.13 0.45,1.53c0.34,0.41 0.92,0.66 1.59,0.66c0.72,-0 1.36,-0.37 1.74,-0.89l-0.2,-0.25Zm-2.67,-1.69c0.17,-1.04 0.83,-1.26 1.14,-1.26c0.4,-0 0.84,0.37 0.84,1.12c0,0.09 -0.04,0.14 -0.14,0.14l-1.84,-0Z" style="fill-rule:nonzero;"/><path d="M181,55.387c0,-0.32 0.02,-0.69 0.02,-1.01c0,-1.04 -0.34,-1.58 -1.24,-1.58c-0.38,-0 -1.09,0.15 -1.73,0.9l-0.02,-0.03l0,-0.73c0,-0.08 -0.01,-0.1 -0.06,-0.1c-0.22,0.04 -0.58,0.05 -0.81,0.03l-0.02,0.03c0.07,0.43 0.09,1.19 0.09,1.94l0,0.55c0,0.75 -0.01,1.26 -0.09,1.8l0.02,0.03c0.12,-0.02 0.35,-0.03 0.47,-0.03c0.12,-0 0.35,0.01 0.47,0.03l0.02,-0.03c-0.08,-0.57 -0.09,-1.04 -0.09,-1.8l0,-1.17c0.51,-0.6 1.09,-0.82 1.45,-0.82c0.51,-0 0.72,0.2 0.72,1.01l0,0.98c0,0.75 -0.02,1.26 -0.09,1.8l0.02,0.03c0.12,-0.02 0.35,-0.03 0.47,-0.03c0.12,-0 0.35,0.01 0.47,0.03l0.02,-0.03c-0.08,-0.57 -0.09,-1.04 -0.09,-1.8Z" style="fill-rule:nonzero;"/><path d="M182.74,52.897c-0.2,-0 -0.42,-0 -0.54,-0.02c-0.07,0.16 -0.12,0.26 -0.22,0.41l0.05,0.07c0.17,-0.01 0.48,-0.02 0.71,-0.02l0,1.37c0,0.6 -0.03,1.32 -0.03,1.62c0,0.65 0.42,0.96 0.88,0.96c0.42,-0 0.74,-0.1 1.16,-0.37l-0.12,-0.25c-0.31,0.11 -0.54,0.12 -0.79,0.08c-0.24,-0.04 -0.33,-0.28 -0.33,-0.82c0,-0.3 0.03,-0.73 0.03,-1.33l0,-1.26l0.38,-0c0.24,-0 0.59,0.01 0.72,0.02c0.03,-0.16 0.06,-0.26 0.12,-0.41l-0.05,-0.07c-0.18,0.01 -0.47,0.02 -0.7,0.02l-0.47,-0c0,-0.75 0.01,-0.88 0.05,-1.46c0,-0.07 -0.03,-0.1 -0.09,-0.1c-0.25,0.1 -0.37,0.2 -0.7,0.25l-0.02,0.03c-0.02,0.35 -0.04,0.7 -0.04,1.28Z" style="fill-rule:nonzero;"/><path d="M185.69,56.177l-0.17,0.84c0.57,0.2 1.13,0.27 1.51,0.27c1.38,-0 1.7,-0.82 1.7,-1.37c0,-0.82 -0.65,-1.14 -1.36,-1.31c-0.38,-0.09 -0.93,-0.28 -0.93,-0.78c0,-0.41 0.33,-0.63 0.76,-0.63c0.52,-0 0.84,0.41 1.07,0.68l0.14,-0.01l0.2,-0.74l-0.02,-0.03c-0.29,-0.15 -0.84,-0.3 -1.35,-0.3c-0.74,-0 -1.51,0.39 -1.51,1.22c0,0.8 0.6,1.06 1.2,1.23c0.58,0.16 1.01,0.32 1.01,0.81c0,0.53 -0.39,0.83 -0.92,0.83c-0.48,-0 -0.9,-0.33 -1.18,-0.72l-0.15,0.01Z" style="fill-rule:nonzero;"/><path d="M189.69,56.727c0,0.32 0.25,0.57 0.56,0.57c0.31,-0 0.56,-0.25 0.56,-0.57c0,-0.31 -0.25,-0.56 -0.56,-0.56c-0.31,-0 -0.56,0.25 -0.56,0.56Z" style="fill-rule:nonzero;"/><path d="M192.3,52.897c-0.2,-0 -0.42,-0 -0.54,-0.02c-0.07,0.16 -0.12,0.26 -0.22,0.41l0.05,0.07c0.17,-0.01 0.48,-0.02 0.71,-0.02l-0,1.37c-0,0.6 -0.03,1.32 -0.03,1.62c-0,0.65 0.42,0.96 0.88,0.96c0.42,-0 0.74,-0.1 1.16,-0.37l-0.12,-0.25c-0.31,0.11 -0.54,0.12 -0.79,0.08c-0.24,-0.04 -0.33,-0.28 -0.33,-0.82c0,-0.3 0.03,-0.73 0.03,-1.33l0,-1.26l0.38,-0c0.24,-0 0.59,0.01 0.72,0.02c0.03,-0.16 0.06,-0.26 0.12,-0.41l-0.05,-0.07c-0.18,0.01 -0.47,0.02 -0.7,0.02l-0.47,-0c0,-0.75 0.01,-0.88 0.05,-1.46c0,-0.07 -0.03,-0.1 -0.09,-0.1c-0.25,0.1 -0.37,0.2 -0.7,0.25l-0.02,0.03c-0.02,0.35 -0.04,0.7 -0.04,1.28Z" style="fill-rule:nonzero;"/><path d="M195.25,56.177l-0.17,0.84c0.57,0.2 1.13,0.27 1.51,0.27c1.38,-0 1.7,-0.82 1.7,-1.37c0,-0.82 -0.65,-1.14 -1.36,-1.31c-0.38,-0.09 -0.93,-0.28 -0.93,-0.78c0,-0.41 0.33,-0.63 0.76,-0.63c0.52,-0 0.84,0.41 1.07,0.68l0.14,-0.01l0.2,-0.74l-0.02,-0.03c-0.29,-0.15 -0.84,-0.3 -1.35,-0.3c-0.74,-0 -1.51,0.39 -1.51,1.22c0,0.8 0.6,1.06 1.2,1.23c0.58,0.16 1.01,0.32 1.01,0.81c0,0.53 -0.39,0.83 -0.92,0.83c-0.48,-0 -0.9,-0.33 -1.18,-0.72l-0.15,0.01Z" style="fill-rule:nonzero;"/><path d="M142.5,52.002l3,-0l0,6.5l-8,-0l0,-9.5l5,-0l0,3Z" style="fill:none;stroke:#000;stroke-width:1px;"/><path d="M142.5,49.002c2.908,3.061 3,3 3,3" style="fill:none;stroke:#000;stroke-width:1px;"/><path d="M132.14,28.502l0,11.565l5.36,-0l-5.36,-0l0,14.435l5.36,-0" style="fill:none;stroke:#000;stroke-width:1px;"/><path d="M122.2,10.502l0,13.5l4.3,-0" style="fill:none;stroke:#000;stroke-width:1px;"/><g><path d="M132.259,83.246l5.521,-0l0,8.573l-11.28,-0l0.044,-10.002l3.81,-0c0,-0 0.065,1.429 1.905,1.429Z" style="fill:none;stroke:#000;stroke-width:1px;"/><path d="M143.15,89.339c0.12,0.39 0.41,0.58 0.78,0.58c0.25,-0 0.56,-0.06 0.8,-0.31l-0.08,-0.25c-0.11,0.04 -0.19,0.05 -0.27,0.05c-0.1,-0 -0.23,-0.01 -0.29,-0.07c-0.1,-0.09 -0.17,-0.34 -0.17,-0.78c0,-0.29 0.03,-1.4 0.03,-1.51c0,-1.35 -0.89,-1.62 -1.65,-1.62c-0.76,-0 -1.22,0.37 -1.47,0.58l-0.03,0.04l0.17,0.67l0.13,0.01c0.28,-0.45 0.62,-0.85 1.1,-0.85c0.36,-0 0.96,0.05 0.96,1.18c0,0.07 -0.04,0.11 -0.07,0.12l-0.93,0.21c-1.02,0.23 -1.66,0.77 -1.66,1.45c0,0.74 0.51,1.08 1.25,1.08c0.55,-0 0.83,-0.13 1.36,-0.58l0.04,-0Zm0,-1.77l-0.04,1.19c0,0.13 -0.06,0.2 -0.14,0.26c-0.28,0.21 -0.62,0.39 -0.92,0.39c-0.45,-0 -0.74,-0.3 -0.74,-0.61c0,-0.45 0.21,-0.79 0.99,-1l0.85,-0.23Z" style="fill-rule:nonzero;"/><path d="M147.36,85.829c0.39,-0 0.74,0.28 1,0.74l0.13,-0.01l0.23,-0.82l-0.02,-0.03c-0.31,-0.16 -0.83,-0.28 -1.33,-0.28c-1.04,-0 -2.13,0.85 -2.13,2.21c0,1.39 0.79,2.28 2.01,2.28c0.6,-0 1.07,-0.2 1.47,-0.71l-0.19,-0.21l-0.04,-0c-0.38,0.34 -0.7,0.42 -1.07,0.42c-0.73,-0 -1.3,-0.66 -1.3,-1.83c0,-1.1 0.58,-1.76 1.24,-1.76Z" style="fill-rule:nonzero;"/><path d="M150.77,86.299l0,-0.73c0,-0.08 -0.01,-0.1 -0.06,-0.1c-0.22,0.04 -0.58,0.05 -0.81,0.03l-0.02,0.03c0.07,0.43 0.09,1.19 0.09,1.94l0,0.55c0,0.75 -0.01,1.26 -0.09,1.8l0.02,0.03c0.12,-0.02 0.35,-0.03 0.47,-0.03c0.12,-0 0.35,0.01 0.47,0.03l0.02,-0.03c-0.08,-0.57 -0.09,-1.04 -0.09,-1.8l0,-1.21c0.47,-0.48 1.03,-0.78 1.38,-0.78c0.38,-0 0.66,0.22 0.66,0.89l0,1.1c0,0.75 -0.01,1.26 -0.09,1.8l0.02,0.03c0.12,-0.02 0.35,-0.03 0.47,-0.03c0.12,-0 0.35,0.01 0.47,0.03l0.02,-0.03c-0.08,-0.57 -0.09,-1.04 -0.09,-1.8l0,-1.01c0,-0.14 0,-0.26 -0.01,-0.38c0.48,-0.53 0.88,-0.6 1.27,-0.6c0.54,-0 0.8,0.22 0.8,0.89l0,1.1c0,0.75 -0.01,1.26 -0.09,1.8l0.02,0.03c0.12,-0.02 0.35,-0.03 0.47,-0.03c0.12,-0 0.35,0.01 0.47,0.03l0.02,-0.03c-0.08,-0.57 -0.09,-1.04 -0.09,-1.8l0,-1c0,-0.89 -0.16,-1.59 -1.24,-1.59c-0.54,-0 -1.12,0.19 -1.69,0.79c-0.09,-0.48 -0.5,-0.79 -1.06,-0.79c-0.62,-0 -1.21,0.4 -1.68,0.9l-0.03,-0.03Z" style="fill-rule:nonzero;"/><path d="M161.14,88.779c-0.35,0.38 -0.82,0.55 -1.37,0.55c-0.34,-0 -0.81,-0.13 -1.09,-0.57c-0.18,-0.28 -0.24,-0.69 -0.24,-1.27l2.72,-0c0.11,-0 0.18,-0.06 0.18,-0.17c0,-0.84 -0.41,-1.89 -1.73,-1.89c-1.03,-0 -2.05,0.83 -2.05,2.3c0,0.57 0.12,1.13 0.45,1.53c0.34,0.41 0.92,0.66 1.59,0.66c0.72,-0 1.36,-0.37 1.74,-0.89l-0.2,-0.25Zm-2.67,-1.69c0.17,-1.04 0.83,-1.26 1.14,-1.26c0.4,-0 0.84,0.37 0.84,1.12c0,0.09 -0.04,0.14 -0.14,0.14l-1.84,-0Z" style="fill-rule:nonzero;"/><path d="M164.49,87.459c0.13,-0 0.27,-0.25 0.27,-0.36c-0,-0.09 -0.04,-0.18 -0.14,-0.18l-2.29,-0c-0.12,-0 -0.25,0.21 -0.25,0.37c-0,0.09 0.06,0.17 0.15,0.17l2.26,-0Z" style="fill-rule:nonzero;"/><path d="M168.18,89.339c0.12,0.39 0.41,0.58 0.78,0.58c0.25,-0 0.56,-0.06 0.8,-0.31l-0.08,-0.25c-0.11,0.04 -0.19,0.05 -0.27,0.05c-0.1,-0 -0.23,-0.01 -0.29,-0.07c-0.1,-0.09 -0.17,-0.34 -0.17,-0.78c0,-0.29 0.03,-1.4 0.03,-1.51c0,-1.35 -0.89,-1.62 -1.65,-1.62c-0.76,-0 -1.22,0.37 -1.47,0.58l-0.03,0.04l0.17,0.67l0.13,0.01c0.28,-0.45 0.62,-0.85 1.1,-0.85c0.36,-0 0.96,0.05 0.96,1.18c0,0.07 -0.04,0.11 -0.07,0.12l-0.93,0.21c-1.02,0.23 -1.66,0.77 -1.66,1.45c0,0.74 0.51,1.08 1.25,1.08c0.55,-0 0.83,-0.13 1.36,-0.58l0.04,-0Zm0,-1.77l-0.04,1.19c0,0.13 -0.06,0.2 -0.14,0.26c-0.28,0.21 -0.62,0.39 -0.92,0.39c-0.45,-0 -0.74,-0.3 -0.74,-0.61c0,-0.45 0.21,-0.79 0.99,-1l0.85,-0.23Z" style="fill-rule:nonzero;"/><path d="M173.54,88.899l0.04,0.03l0.05,0.89c0,0.02 0.01,0.03 0.04,0.03c0.13,-0.02 0.25,-0.03 0.4,-0.03c0.12,-0 0.31,0.01 0.44,0.03l0.02,-0.03c-0.08,-0.43 -0.17,-1.17 -0.17,-1.92l-0,-0.57c-0,-0.75 0.01,-1.27 0.09,-1.8l-0.02,-0.03c-0.12,0.02 -0.35,0.03 -0.47,0.03c-0.12,-0 -0.35,-0.01 -0.47,-0.03l-0.02,0.03c0.08,0.57 0.09,1.04 0.09,1.8l-0,0.98c-0.3,0.51 -0.88,1.05 -1.37,1.05c-0.34,-0 -0.67,-0.11 -0.67,-1.04l-0,-0.99c-0,-0.75 0.01,-1.27 0.09,-1.8l-0.02,-0.03c-0.12,0.02 -0.35,0.03 -0.47,0.03c-0.12,-0 -0.35,-0.01 -0.47,-0.03l-0.02,0.03c0.08,0.57 0.09,1.04 0.09,1.8l0,1.2c0,0.69 0.32,1.39 1.31,1.39c0.62,-0 1.18,-0.51 1.51,-1.02Z" style="fill-rule:nonzero;"/><path d="M176.21,85.529c-0.2,-0 -0.42,-0 -0.54,-0.02c-0.07,0.16 -0.12,0.26 -0.22,0.41l0.05,0.07c0.17,-0.01 0.48,-0.02 0.71,-0.02l-0,1.37c-0,0.6 -0.03,1.32 -0.03,1.62c-0,0.65 0.42,0.96 0.88,0.96c0.42,-0 0.74,-0.1 1.16,-0.37l-0.12,-0.25c-0.31,0.11 -0.54,0.12 -0.79,0.08c-0.24,-0.04 -0.33,-0.28 -0.33,-0.82c-0,-0.3 0.03,-0.73 0.03,-1.33l-0,-1.26l0.38,-0c0.24,-0 0.59,0.01 0.72,0.02c0.03,-0.16 0.06,-0.26 0.12,-0.41l-0.05,-0.07c-0.18,0.01 -0.47,0.02 -0.7,0.02l-0.47,-0c-0,-0.75 0.01,-0.88 0.05,-1.46c-0,-0.07 -0.03,-0.1 -0.09,-0.1c-0.25,0.1 -0.37,0.2 -0.7,0.25l-0.02,0.03c-0.02,0.35 -0.04,0.7 -0.04,1.28Z" style="fill-rule:nonzero;"/><path d="M180.36,86.299l-0,-1.49c-0,-0.74 0.04,-1.26 0.09,-1.87c-0,-0.07 -0.03,-0.1 -0.09,-0.1c-0.25,0.1 -0.46,0.17 -0.87,0.2l-0.02,0.03c0.08,0.43 0.09,1.18 0.09,1.94l-0,3.01c-0,0.74 -0.01,1.24 -0.09,1.8l0.02,0.03c0.12,-0.02 0.35,-0.03 0.47,-0.03c0.12,-0 0.35,0.01 0.47,0.03l0.02,-0.03c-0.07,-0.57 -0.09,-1.04 -0.09,-1.8l-0,-1.17c0.51,-0.6 1.1,-0.82 1.45,-0.82c0.51,-0 0.72,0.2 0.72,1.01l-0,0.98c-0,0.75 -0.01,1.26 -0.09,1.8l0.02,0.03c0.12,-0.02 0.35,-0.03 0.47,-0.03c0.12,-0 0.35,0.01 0.47,0.03l0.02,-0.03c-0.08,-0.57 -0.09,-1.04 -0.09,-1.8c-0,-0.32 0.02,-0.69 0.02,-1.01c-0,-1.04 -0.34,-1.58 -1.24,-1.58c-0.38,-0 -1.09,0.15 -1.73,0.9l-0.02,-0.03Z" style="fill-rule:nonzero;"/></g><g><path d="M132.259,97.431l5.521,-0l0,8.573l-11.28,-0l0.044,-10.002l3.81,-0c0,-0 0.065,1.429 1.905,1.429Z" style="fill:none;stroke:#000;stroke-width:1px;"/><path d="M143.15,103.524c0.12,0.39 0.41,0.58 0.78,0.58c0.25,-0 0.56,-0.06 0.8,-0.31l-0.08,-0.25c-0.11,0.04 -0.19,0.05 -0.27,0.05c-0.1,-0 -0.23,-0.01 -0.29,-0.07c-0.1,-0.09 -0.17,-0.34 -0.17,-0.78c0,-0.29 0.03,-1.4 0.03,-1.51c0,-1.35 -0.89,-1.62 -1.65,-1.62c-0.76,-0 -1.22,0.37 -1.47,0.58l-0.03,0.04l0.17,0.67l0.13,0.01c0.28,-0.45 0.62,-0.85 1.1,-0.85c0.36,-0 0.96,0.05 0.96,1.18c0,0.07 -0.04,0.11 -0.07,0.12l-0.93,0.21c-1.02,0.23 -1.66,0.77 -1.66,1.45c0,0.74 0.51,1.08 1.25,1.08c0.55,-0 0.83,-0.13 1.36,-0.58l0.04,-0Zm0,-1.77l-0.04,1.19c0,0.13 -0.06,0.2 -0.14,0.26c-0.28,0.21 -0.62,0.39 -0.92,0.39c-0.45,-0 -0.74,-0.3 -0.74,-0.61c0,-0.45 0.21,-0.79 0.99,-1l0.85,-0.23Z" style="fill-rule:nonzero;"/><path d="M147.36,100.014c0.39,-0 0.74,0.28 1,0.74l0.13,-0.01l0.23,-0.82l-0.02,-0.03c-0.31,-0.16 -0.83,-0.28 -1.33,-0.28c-1.04,-0 -2.13,0.85 -2.13,2.21c0,1.39 0.79,2.28 2.01,2.28c0.6,-0 1.07,-0.2 1.47,-0.71l-0.19,-0.21l-0.04,-0c-0.38,0.34 -0.7,0.42 -1.07,0.42c-0.73,-0 -1.3,-0.66 -1.3,-1.83c0,-1.1 0.58,-1.76 1.24,-1.76Z" style="fill-rule:nonzero;"/><path d="M150.77,100.484l0,-0.73c0,-0.08 -0.01,-0.1 -0.06,-0.1c-0.22,0.04 -0.58,0.05 -0.81,0.03l-0.02,0.03c0.07,0.43 0.09,1.19 0.09,1.94l0,0.55c0,0.75 -0.01,1.26 -0.09,1.8l0.02,0.03c0.12,-0.02 0.35,-0.03 0.47,-0.03c0.12,-0 0.35,0.01 0.47,0.03l0.02,-0.03c-0.08,-0.57 -0.09,-1.04 -0.09,-1.8l0,-1.21c0.47,-0.48 1.03,-0.78 1.38,-0.78c0.38,-0 0.66,0.22 0.66,0.89l0,1.1c0,0.75 -0.01,1.26 -0.09,1.8l0.02,0.03c0.12,-0.02 0.35,-0.03 0.47,-0.03c0.12,-0 0.35,0.01 0.47,0.03l0.02,-0.03c-0.08,-0.57 -0.09,-1.04 -0.09,-1.8l0,-1.01c0,-0.14 0,-0.26 -0.01,-0.38c0.48,-0.53 0.88,-0.6 1.27,-0.6c0.54,-0 0.8,0.22 0.8,0.89l0,1.1c0,0.75 -0.01,1.26 -0.09,1.8l0.02,0.03c0.12,-0.02 0.35,-0.03 0.47,-0.03c0.12,-0 0.35,0.01 0.47,0.03l0.02,-0.03c-0.08,-0.57 -0.09,-1.04 -0.09,-1.8l0,-1c0,-0.89 -0.16,-1.59 -1.24,-1.59c-0.54,-0 -1.12,0.19 -1.69,0.79c-0.09,-0.48 -0.5,-0.79 -1.06,-0.79c-0.62,-0 -1.21,0.4 -1.68,0.9l-0.03,-0.03Z" style="fill-rule:nonzero;"/><path d="M161.14,102.964c-0.35,0.38 -0.82,0.55 -1.37,0.55c-0.34,-0 -0.81,-0.13 -1.09,-0.57c-0.18,-0.28 -0.24,-0.69 -0.24,-1.27l2.72,-0c0.11,-0 0.18,-0.06 0.18,-0.17c0,-0.84 -0.41,-1.89 -1.73,-1.89c-1.03,-0 -2.05,0.83 -2.05,2.3c0,0.57 0.12,1.13 0.45,1.53c0.34,0.41 0.92,0.66 1.59,0.66c0.72,-0 1.36,-0.37 1.74,-0.89l-0.2,-0.25Zm-2.67,-1.69c0.17,-1.04 0.83,-1.26 1.14,-1.26c0.4,-0 0.84,0.37 0.84,1.12c0,0.09 -0.04,0.14 -0.14,0.14l-1.84,-0Z" style="fill-rule:nonzero;"/><path d="M164.49,101.644c0.13,-0 0.27,-0.25 0.27,-0.36c-0,-0.09 -0.04,-0.18 -0.14,-0.18l-2.29,-0c-0.12,-0 -0.25,0.21 -0.25,0.37c-0,0.09 0.06,0.17 0.15,0.17l2.26,-0Z" style="fill-rule:nonzero;"/><path d="M166.7,100.484l0,-0.73c0,-0.08 -0.01,-0.1 -0.06,-0.1c-0.22,0.04 -0.58,0.05 -0.81,0.03l-0.02,0.03c0.07,0.43 0.09,1.19 0.09,1.94l0,2.67c0,0.74 -0.02,1.46 -0.09,2l0.02,0.03c0.12,-0.02 0.35,-0.03 0.47,-0.03c0.12,-0 0.35,0.01 0.47,0.03l0.02,-0.03c-0.07,-0.57 -0.09,-1.25 -0.09,-2l0,-0.44c0.26,0.14 0.63,0.22 0.99,0.22c1.32,-0 2.12,-1 2.12,-2.41c0,-1.06 -0.62,-2.08 -1.74,-2.08c-0.39,-0 -0.89,0.2 -1.35,0.9l-0.02,-0.03Zm0,0.58c0.22,-0.53 0.81,-0.99 1.2,-0.99c0.68,-0 1.03,0.62 1.03,1.75c0,0.82 -0.23,1.88 -1.3,1.88c-0.16,-0 -0.58,-0.04 -0.93,-0.45l0,-2.19Z" style="fill-rule:nonzero;"/><path d="M173.41,103.524c0.12,0.39 0.41,0.58 0.78,0.58c0.25,-0 0.56,-0.06 0.8,-0.31l-0.08,-0.25c-0.11,0.04 -0.19,0.05 -0.27,0.05c-0.1,-0 -0.23,-0.01 -0.29,-0.07c-0.1,-0.09 -0.17,-0.34 -0.17,-0.78c0,-0.29 0.03,-1.4 0.03,-1.51c0,-1.35 -0.89,-1.62 -1.65,-1.62c-0.76,-0 -1.22,0.37 -1.47,0.58l-0.03,0.04l0.17,0.67l0.13,0.01c0.28,-0.45 0.62,-0.85 1.1,-0.85c0.36,-0 0.96,0.05 0.96,1.18c0,0.07 -0.04,0.11 -0.07,0.12l-0.93,0.21c-1.02,0.23 -1.66,0.77 -1.66,1.45c0,0.74 0.51,1.08 1.25,1.08c0.55,-0 0.83,-0.13 1.36,-0.58l0.04,-0Zm0,-1.77l-0.04,1.19c0,0.13 -0.06,0.2 -0.14,0.26c-0.28,0.21 -0.62,0.39 -0.92,0.39c-0.45,-0 -0.74,-0.3 -0.74,-0.61c0,-0.45 0.21,-0.79 0.99,-1l0.85,-0.23Z" style="fill-rule:nonzero;"/><path d="M175.4,99.684c0.4,0.89 1.59,3.47 1.94,4.42c-0.32,0.75 -0.73,1.52 -1.18,2.27c0.1,-0.03 0.25,-0.05 0.35,-0.05c0.1,-0 0.39,0.02 0.49,0.05c0.38,-1.25 2.57,-6.02 2.9,-6.69c-0.1,0.03 -0.33,0.03 -0.43,0.03c-0.1,-0 -0.29,-0 -0.39,-0.03c-0.36,1.13 -0.83,2.41 -1.31,3.44l-0.02,-0c-0.49,-1.19 -0.97,-2.3 -1.34,-3.44c-0.13,0.03 -0.35,0.03 -0.49,0.03c-0.13,-0 -0.38,-0 -0.52,-0.03Z" style="fill-rule:nonzero;"/><path d="M181.8,100.484l0,-0.73c0,-0.08 -0.01,-0.1 -0.06,-0.1c-0.22,0.04 -0.58,0.05 -0.81,0.03l-0.02,0.03c0.07,0.43 0.09,1.19 0.09,1.94l0,0.55c0,0.75 -0.01,1.26 -0.09,1.8l0.02,0.03c0.12,-0.02 0.35,-0.03 0.47,-0.03c0.12,-0 0.35,0.01 0.47,0.03l0.02,-0.03c-0.08,-0.57 -0.09,-1.04 -0.09,-1.8l0,-1.21c0.47,-0.48 1.03,-0.78 1.38,-0.78c0.38,-0 0.66,0.22 0.66,0.89l0,1.1c0,0.75 -0.01,1.26 -0.09,1.8l0.02,0.03c0.12,-0.02 0.35,-0.03 0.47,-0.03c0.12,-0 0.35,0.01 0.47,0.03l0.02,-0.03c-0.08,-0.57 -0.09,-1.04 -0.09,-1.8l0,-1.01c0,-0.14 0,-0.26 -0.01,-0.38c0.48,-0.53 0.88,-0.6 1.27,-0.6c0.54,-0 0.8,0.22 0.8,0.89l0,1.1c0,0.75 -0.01,1.26 -0.09,1.8l0.02,0.03c0.12,-0.02 0.35,-0.03 0.47,-0.03c0.12,-0 0.35,0.01 0.47,0.03l0.02,-0.03c-0.08,-0.57 -0.09,-1.04 -0.09,-1.8l0,-1c0,-0.89 -0.16,-1.59 -1.24,-1.59c-0.54,-0 -1.12,0.19 -1.69,0.79c-0.09,-0.48 -0.5,-0.79 -1.06,-0.79c-0.62,-0 -1.21,0.4 -1.68,0.9l-0.03,-0.03Z" style="fill-rule:nonzero;"/><path d="M192.17,102.964c-0.35,0.38 -0.82,0.55 -1.37,0.55c-0.34,-0 -0.81,-0.13 -1.09,-0.57c-0.18,-0.28 -0.24,-0.69 -0.24,-1.27l2.72,-0c0.11,-0 0.18,-0.06 0.18,-0.17c0,-0.84 -0.41,-1.89 -1.73,-1.89c-1.03,-0 -2.05,0.83 -2.05,2.3c0,0.57 0.12,1.13 0.45,1.53c0.34,0.41 0.92,0.66 1.59,0.66c0.72,-0 1.36,-0.37 1.74,-0.89l-0.2,-0.25Zm-2.67,-1.69c0.17,-1.04 0.83,-1.26 1.14,-1.26c0.4,-0 0.84,0.37 0.84,1.12c-0,0.09 -0.04,0.14 -0.14,0.14l-1.84,-0Z" style="fill-rule:nonzero;"/><path d="M197.38,102.204c-0,-0.32 0.02,-0.69 0.02,-1.01c-0,-1.04 -0.34,-1.58 -1.24,-1.58c-0.38,-0 -1.09,0.15 -1.73,0.9l-0.02,-0.03l-0,-0.73c-0,-0.08 -0.01,-0.1 -0.06,-0.1c-0.22,0.04 -0.58,0.05 -0.81,0.03l-0.02,0.03c0.07,0.43 0.09,1.19 0.09,1.94l0,0.55c0,0.75 -0.01,1.26 -0.09,1.8l0.02,0.03c0.12,-0.02 0.35,-0.03 0.47,-0.03c0.12,-0 0.35,0.01 0.47,0.03l0.02,-0.03c-0.08,-0.57 -0.09,-1.04 -0.09,-1.8l-0,-1.17c0.51,-0.6 1.09,-0.82 1.45,-0.82c0.51,-0 0.72,0.2 0.72,1.01l0,0.98c0,0.75 -0.02,1.26 -0.09,1.8l0.02,0.03c0.12,-0.02 0.35,-0.03 0.47,-0.03c0.12,-0 0.35,0.01 0.47,0.03l0.02,-0.03c-0.08,-0.57 -0.09,-1.04 -0.09,-1.8Z" style="fill-rule:nonzero;"/><path d="M199.12,99.714c-0.2,-0 -0.42,-0 -0.54,-0.02c-0.07,0.16 -0.12,0.26 -0.22,0.41l0.05,0.07c0.17,-0.01 0.48,-0.02 0.71,-0.02l-0,1.37c-0,0.6 -0.03,1.32 -0.03,1.62c-0,0.65 0.42,0.96 0.88,0.96c0.42,-0 0.74,-0.1 1.16,-0.37l-0.12,-0.25c-0.31,0.11 -0.54,0.12 -0.79,0.08c-0.24,-0.04 -0.33,-0.28 -0.33,-0.82c-0,-0.3 0.03,-0.73 0.03,-1.33l-0,-1.26l0.38,-0c0.24,-0 0.59,0.01 0.72,0.02c0.03,-0.16 0.06,-0.26 0.12,-0.41l-0.05,-0.07c-0.18,0.01 -0.47,0.02 -0.7,0.02l-0.47,-0c-0,-0.75 0.01,-0.88 0.05,-1.46c-0,-0.07 -0.03,-0.1 -0.09,-0.1c-0.25,0.1 -0.37,0.2 -0.7,0.25l-0.02,0.03c-0.02,0.35 -0.04,0.7 -0.04,1.28Z" style="fill-rule:nonzero;"/><path d="M202.07,102.994l-0.17,0.84c0.57,0.2 1.13,0.27 1.51,0.27c1.38,-0 1.7,-0.82 1.7,-1.37c-0,-0.82 -0.65,-1.14 -1.36,-1.31c-0.38,-0.09 -0.93,-0.28 -0.93,-0.78c-0,-0.41 0.33,-0.63 0.76,-0.63c0.52,-0 0.84,0.41 1.07,0.68l0.14,-0.01l0.2,-0.74l-0.02,-0.03c-0.29,-0.15 -0.84,-0.3 -1.35,-0.3c-0.74,-0 -1.51,0.39 -1.51,1.22c0,0.8 0.6,1.06 1.2,1.23c0.58,0.16 1.01,0.32 1.01,0.81c0,0.53 -0.39,0.83 -0.92,0.83c-0.48,-0 -0.9,-0.33 -1.18,-0.72l-0.15,0.01Z" style="fill-rule:nonzero;"/></g><g><path d="M122.619,66.93l5.521,-0l0,8.573l-11.28,-0l0.044,-10.002l3.81,-0c0,-0 0.065,1.429 1.905,1.429Z" style="fill:none;stroke:#000;stroke-width:1px;"/><path d="M132.08,70.163l0,-0.91c0,-0.08 -0.01,-0.1 -0.06,-0.1c-0.22,0.04 -0.58,0.05 -0.81,0.03l-0.02,0.03c0.07,0.43 0.09,1.19 0.09,1.94l0,0.55c0,0.75 -0.01,1.26 -0.09,1.8l0.02,0.03c0.12,-0.02 0.35,-0.03 0.47,-0.03c0.12,-0 0.35,0.01 0.47,0.03l0.02,-0.03c-0.07,-0.57 -0.09,-1.04 -0.09,-1.8l0,-0.52c0,-0.42 0.13,-0.66 0.34,-0.99c0.15,-0.22 0.37,-0.35 0.56,-0.35c0.2,-0 0.39,0.02 0.52,0.14l0.08,-0.02l0.2,-0.74l-0.04,-0.04c-0.17,-0.05 -0.18,-0.07 -0.36,-0.07c-0.54,-0 -0.83,0.31 -1.27,1.07l-0.03,-0.02Z" style="fill-rule:nonzero;"/><path d="M134.46,72.493l-0.17,0.84c0.57,0.2 1.13,0.27 1.51,0.27c1.38,-0 1.7,-0.82 1.7,-1.37c0,-0.82 -0.65,-1.14 -1.36,-1.31c-0.38,-0.09 -0.93,-0.28 -0.93,-0.78c0,-0.41 0.33,-0.63 0.76,-0.63c0.52,-0 0.84,0.41 1.07,0.68l0.14,-0.01l0.2,-0.74l-0.02,-0.03c-0.29,-0.15 -0.84,-0.3 -1.35,-0.3c-0.74,-0 -1.51,0.39 -1.51,1.22c0,0.8 0.6,1.06 1.2,1.23c0.58,0.16 1.01,0.32 1.01,0.81c0,0.53 -0.39,0.83 -0.92,0.83c-0.48,-0 -0.9,-0.33 -1.18,-0.72l-0.15,0.01Z" style="fill-rule:nonzero;"/></g><path d="M122.5,75.503l0,11.301l4,-0l-4,-0l0,14.384l4,-0" style="fill:none;stroke:#000;stroke-width:1px;"/></g><g id="By-project" serif:id="By project"><path d="M16.259,19.929l5.521,-0l0,8.573l-11.28,-0l0.044,-10.002l3.81,0c0,0 0.065,1.429 1.905,1.429Z" style="fill:none;stroke:#000;stroke-width:1px;"/><path d="M27.15,26.022c0.12,0.39 0.41,0.58 0.78,0.58c0.25,-0 0.56,-0.06 0.8,-0.31l-0.08,-0.25c-0.11,0.04 -0.19,0.05 -0.27,0.05c-0.1,-0 -0.23,-0.01 -0.29,-0.07c-0.1,-0.09 -0.17,-0.34 -0.17,-0.78c0,-0.29 0.03,-1.4 0.03,-1.51c0,-1.35 -0.89,-1.62 -1.65,-1.62c-0.76,-0 -1.22,0.37 -1.47,0.58l-0.03,0.04l0.17,0.67l0.13,0.01c0.28,-0.45 0.62,-0.85 1.1,-0.85c0.36,-0 0.96,0.05 0.96,1.18c0,0.07 -0.04,0.11 -0.07,0.12l-0.93,0.21c-1.02,0.23 -1.66,0.77 -1.66,1.45c0,0.74 0.51,1.08 1.25,1.08c0.55,-0 0.83,-0.13 1.36,-0.58l0.04,-0Zm0,-1.77l-0.04,1.19c0,0.13 -0.06,0.2 -0.14,0.26c-0.28,0.21 -0.62,0.39 -0.92,0.39c-0.45,-0 -0.74,-0.3 -0.74,-0.61c0,-0.45 0.21,-0.79 0.99,-1l0.85,-0.23Z" style="fill-rule:nonzero;"/><path d="M32.51,25.582l0.04,0.03l0.05,0.89c0,0.02 0.01,0.03 0.04,0.03c0.13,-0.02 0.25,-0.03 0.4,-0.03c0.12,-0 0.31,0.01 0.44,0.03l0.02,-0.03c-0.08,-0.43 -0.17,-1.17 -0.17,-1.92l0,-0.57c0,-0.75 0.01,-1.27 0.09,-1.8l-0.02,-0.03c-0.12,0.02 -0.35,0.03 -0.47,0.03c-0.12,-0 -0.35,-0.01 -0.47,-0.03l-0.02,0.03c0.08,0.57 0.09,1.04 0.09,1.8l0,0.98c-0.3,0.51 -0.88,1.05 -1.37,1.05c-0.34,-0 -0.67,-0.11 -0.67,-1.04l0,-0.99c0,-0.75 0.01,-1.27 0.09,-1.8l-0.02,-0.03c-0.12,0.02 -0.35,0.03 -0.47,0.03c-0.12,-0 -0.35,-0.01 -0.47,-0.03l-0.02,0.03c0.08,0.57 0.09,1.04 0.09,1.8l0,1.2c0,0.69 0.32,1.39 1.31,1.39c0.62,-0 1.18,-0.51 1.51,-1.02Z" style="fill-rule:nonzero;"/><path d="M35.18,22.212c-0.2,-0 -0.42,-0 -0.54,-0.02c-0.07,0.16 -0.12,0.26 -0.22,0.41l0.05,0.07c0.17,-0.01 0.48,-0.02 0.71,-0.02l0,1.37c0,0.6 -0.03,1.32 -0.03,1.62c0,0.65 0.42,0.96 0.88,0.96c0.42,-0 0.74,-0.1 1.16,-0.37l-0.12,-0.25c-0.31,0.11 -0.54,0.12 -0.79,0.08c-0.24,-0.04 -0.33,-0.28 -0.33,-0.82c0,-0.3 0.03,-0.73 0.03,-1.33l0,-1.26l0.38,-0c0.24,-0 0.59,0.01 0.72,0.02c0.03,-0.16 0.06,-0.26 0.12,-0.41l-0.05,-0.07c-0.18,0.01 -0.47,0.02 -0.7,0.02l-0.47,-0c0,-0.75 0.01,-0.88 0.05,-1.46c0,-0.07 -0.03,-0.1 -0.09,-0.1c-0.25,0.1 -0.37,0.2 -0.7,0.25l-0.02,0.03c-0.02,0.35 -0.04,0.7 -0.04,1.28Z" style="fill-rule:nonzero;"/><path d="M39.33,22.982l0,-1.49c0,-0.74 0.04,-1.26 0.09,-1.87c-0,-0.07 -0.03,-0.1 -0.09,-0.1c-0.25,0.1 -0.46,0.17 -0.87,0.2l-0.02,0.03c0.08,0.43 0.09,1.18 0.09,1.94l-0,3.01c-0,0.74 -0.01,1.24 -0.09,1.8l0.02,0.03c0.12,-0.02 0.35,-0.03 0.47,-0.03c0.12,-0 0.35,0.01 0.47,0.03l0.02,-0.03c-0.07,-0.57 -0.09,-1.04 -0.09,-1.8l0,-1.17c0.51,-0.6 1.1,-0.82 1.45,-0.82c0.51,-0 0.72,0.2 0.72,1.01l-0,0.98c-0,0.75 -0.01,1.26 -0.09,1.8l0.02,0.03c0.12,-0.02 0.35,-0.03 0.47,-0.03c0.12,-0 0.35,0.01 0.47,0.03l0.02,-0.03c-0.08,-0.57 -0.09,-1.04 -0.09,-1.8c0,-0.32 0.02,-0.69 0.02,-1.01c-0,-1.04 -0.34,-1.58 -1.24,-1.58c-0.38,-0 -1.09,0.15 -1.73,0.9l-0.02,-0.03Z" style="fill-rule:nonzero;"/><path d="M6.259,1.929l5.521,-0l0,8.573l-11.28,-0l0.044,-10.002l3.81,0c0,0 0.065,1.429 1.905,1.429Z" style="fill:none;stroke:#000;stroke-width:1px;"/><path d="M17.15,8.022c0.12,0.39 0.41,0.58 0.78,0.58c0.25,-0 0.56,-0.06 0.8,-0.31l-0.08,-0.25c-0.11,0.04 -0.19,0.05 -0.27,0.05c-0.1,-0 -0.23,-0.01 -0.29,-0.07c-0.1,-0.09 -0.17,-0.34 -0.17,-0.78c0,-0.29 0.03,-1.4 0.03,-1.51c0,-1.35 -0.89,-1.62 -1.65,-1.62c-0.76,-0 -1.22,0.37 -1.47,0.58l-0.03,0.04l0.17,0.67l0.13,0.01c0.28,-0.45 0.62,-0.85 1.1,-0.85c0.36,-0 0.96,0.05 0.96,1.18c0,0.07 -0.04,0.11 -0.07,0.12l-0.93,0.21c-1.02,0.23 -1.66,0.77 -1.66,1.45c0,0.74 0.51,1.08 1.25,1.08c0.55,-0 0.83,-0.13 1.36,-0.58l0.04,-0Zm0,-1.77l-0.04,1.19c0,0.13 -0.06,0.2 -0.14,0.26c-0.28,0.21 -0.62,0.39 -0.92,0.39c-0.45,-0 -0.74,-0.3 -0.74,-0.61c0,-0.45 0.21,-0.79 0.99,-1l0.85,-0.23Z" style="fill-rule:nonzero;"/><path d="M21.36,4.512c0.39,-0 0.74,0.28 1,0.74l0.13,-0.01l0.23,-0.82l-0.02,-0.03c-0.31,-0.16 -0.83,-0.28 -1.33,-0.28c-1.04,-0 -2.13,0.85 -2.13,2.21c0,1.39 0.79,2.28 2.01,2.28c0.6,-0 1.07,-0.2 1.47,-0.71l-0.19,-0.21l-0.04,-0c-0.38,0.34 -0.7,0.42 -1.07,0.42c-0.73,-0 -1.3,-0.66 -1.3,-1.83c0,-1.1 0.58,-1.76 1.24,-1.76Z" style="fill-rule:nonzero;"/><path d="M24.77,4.982l0,-0.73c0,-0.08 -0.01,-0.1 -0.06,-0.1c-0.22,0.04 -0.58,0.05 -0.81,0.03l-0.02,0.03c0.07,0.43 0.09,1.19 0.09,1.94l0,0.55c0,0.75 -0.01,1.26 -0.09,1.8l0.02,0.03c0.12,-0.02 0.35,-0.03 0.47,-0.03c0.12,-0 0.35,0.01 0.47,0.03l0.02,-0.03c-0.08,-0.57 -0.09,-1.04 -0.09,-1.8l0,-1.21c0.47,-0.48 1.03,-0.78 1.38,-0.78c0.38,-0 0.66,0.22 0.66,0.89l0,1.1c0,0.75 -0.01,1.26 -0.09,1.8l0.02,0.03c0.12,-0.02 0.35,-0.03 0.47,-0.03c0.12,-0 0.35,0.01 0.47,0.03l0.02,-0.03c-0.08,-0.57 -0.09,-1.04 -0.09,-1.8l0,-1.01c0,-0.14 0,-0.26 -0.01,-0.38c0.48,-0.53 0.88,-0.6 1.27,-0.6c0.54,-0 0.8,0.22 0.8,0.89l0,1.1c0,0.75 -0.01,1.26 -0.09,1.8l0.02,0.03c0.12,-0.02 0.35,-0.03 0.47,-0.03c0.12,-0 0.35,0.01 0.47,0.03l0.02,-0.03c-0.08,-0.57 -0.09,-1.04 -0.09,-1.8l0,-1c0,-0.89 -0.16,-1.59 -1.24,-1.59c-0.54,-0 -1.12,0.19 -1.69,0.79c-0.09,-0.48 -0.5,-0.79 -1.06,-0.79c-0.62,-0 -1.21,0.4 -1.68,0.9l-0.03,-0.03Z" style="fill-rule:nonzero;"/><path d="M35.14,7.462c-0.35,0.38 -0.82,0.55 -1.37,0.55c-0.34,-0 -0.81,-0.13 -1.09,-0.57c-0.18,-0.28 -0.24,-0.69 -0.24,-1.27l2.72,-0c0.11,-0 0.18,-0.06 0.18,-0.17c0,-0.84 -0.41,-1.89 -1.73,-1.89c-1.03,-0 -2.05,0.83 -2.05,2.3c0,0.57 0.12,1.13 0.45,1.53c0.34,0.41 0.92,0.66 1.59,0.66c0.72,-0 1.36,-0.37 1.74,-0.89l-0.2,-0.25Zm-2.67,-1.69c0.17,-1.04 0.83,-1.26 1.14,-1.26c0.4,-0 0.84,0.37 0.84,1.12c0,0.09 -0.04,0.14 -0.14,0.14l-1.84,-0Z" style="fill-rule:nonzero;"/><path d="M33.6,41.152l0,0.55c0,0.75 -0.02,1.26 -0.09,1.8l0.02,0.03c0.12,-0.02 0.35,-0.03 0.47,-0.03c0.12,-0 0.35,0.01 0.47,0.03l0.02,-0.03c-0.07,-0.57 -0.09,-1.04 -0.09,-1.8l0,-0.71c0,-0.75 0.03,-1.11 0.09,-1.72c0,-0.09 -0.01,-0.1 -0.09,-0.1c-0.23,0.02 -0.66,0.03 -0.87,0.01l-0.02,0.03c0.06,0.43 0.09,1.19 0.09,1.94Zm-0.1,-3.62c0,0.27 0.24,0.51 0.51,0.51c0.27,-0 0.51,-0.24 0.51,-0.51c0,-0.27 -0.24,-0.51 -0.51,-0.51c-0.27,-0 -0.51,0.24 -0.51,0.51Z" style="fill-rule:nonzero;"/><path d="M39.9,41.702c0,-0.32 0.02,-0.69 0.02,-1.01c0,-1.04 -0.34,-1.58 -1.24,-1.58c-0.38,-0 -1.09,0.15 -1.73,0.9l-0.02,-0.03l0,-0.73c0,-0.08 -0.01,-0.1 -0.06,-0.1c-0.22,0.04 -0.58,0.05 -0.81,0.03l-0.02,0.03c0.07,0.43 0.09,1.19 0.09,1.94l0,0.55c0,0.75 -0.01,1.26 -0.09,1.8l0.02,0.03c0.12,-0.02 0.35,-0.03 0.47,-0.03c0.12,-0 0.35,0.01 0.47,0.03l0.02,-0.03c-0.08,-0.57 -0.09,-1.04 -0.09,-1.8l0,-1.17c0.51,-0.6 1.09,-0.82 1.45,-0.82c0.51,-0 0.72,0.2 0.72,1.01l0,0.98c0,0.75 -0.02,1.26 -0.09,1.8l0.02,0.03c0.12,-0.02 0.35,-0.03 0.47,-0.03c0.12,-0 0.35,0.01 0.47,0.03l0.02,-0.03c-0.08,-0.57 -0.09,-1.04 -0.09,-1.8Z" style="fill-rule:nonzero;"/><path d="M44.3,42.922l0.02,-0l0.05,0.58c0,0.02 0.03,0.03 0.09,0.03c0.13,-0.02 0.2,-0.03 0.35,-0.03c0.12,-0 0.31,0.01 0.44,0.03l0.02,-0.03c-0.08,-0.43 -0.17,-1.17 -0.17,-1.92l0,-3.08c0,-0.74 0.04,-1.26 0.09,-1.88c0,-0.07 -0.03,-0.1 -0.09,-0.1c-0.25,0.1 -0.46,0.17 -0.87,0.2l-0.02,0.03c0.08,0.43 0.09,1.17 0.09,1.93l0,0.65c-0.23,-0.13 -0.64,-0.22 -0.84,-0.22c-1.3,-0 -2.26,0.9 -2.26,2.26c0,1.23 0.73,2.23 1.81,2.23c0.48,-0 0.93,-0.22 1.29,-0.68Zm0,-0.55c-0.36,0.46 -0.82,0.71 -1.23,0.71c-0.54,-0 -1,-0.54 -1,-1.79c0,-1.5 0.8,-1.78 1.28,-1.78c0.47,-0 0.71,0.2 0.95,0.58l0,2.28Z" style="fill-rule:nonzero;"/><path d="M49.91,42.462c-0.35,0.38 -0.82,0.55 -1.37,0.55c-0.34,-0 -0.81,-0.13 -1.09,-0.57c-0.18,-0.28 -0.24,-0.69 -0.24,-1.27l2.72,-0c0.11,-0 0.18,-0.06 0.18,-0.17c0,-0.84 -0.41,-1.89 -1.73,-1.89c-1.03,-0 -2.05,0.83 -2.05,2.3c0,0.57 0.12,1.13 0.45,1.53c0.34,0.41 0.92,0.66 1.59,0.66c0.72,-0 1.36,-0.37 1.74,-0.89l-0.2,-0.25Zm-2.67,-1.69c0.17,-1.04 0.83,-1.26 1.14,-1.26c0.4,-0 0.84,0.37 0.84,1.12c0,0.09 -0.04,0.14 -0.14,0.14l-1.84,-0Z" style="fill-rule:nonzero;"/><path d="M52.3,41.432l-1.57,2.1c0.1,-0.02 0.26,-0.03 0.36,-0.03c0.1,-0 0.34,0.01 0.44,0.03c0.38,-0.57 0.68,-1.12 1.08,-1.68c0.4,0.56 0.7,1.11 1.06,1.68c0.15,-0.02 0.35,-0.03 0.51,-0.03c0.15,-0 0.42,0.01 0.57,0.03c-0.6,-0.78 -1.09,-1.55 -1.63,-2.33l1.64,-2.02c-0.13,0.02 -0.35,0.03 -0.45,0.03c-0.11,-0 -0.26,-0.01 -0.37,-0.03c-0.38,0.56 -0.7,1.09 -1.12,1.63c-0.4,-0.54 -0.67,-1.07 -1.01,-1.63c-0.17,0.02 -0.37,0.03 -0.54,0.03c-0.16,-0 -0.42,-0.01 -0.58,-0.03l1.61,2.25Z" style="fill-rule:nonzero;"/><path d="M55.54,43.042c0,0.32 0.25,0.57 0.56,0.57c0.31,-0 0.56,-0.25 0.56,-0.57c0,-0.31 -0.25,-0.56 -0.56,-0.56c-0.31,-0 -0.56,0.25 -0.56,0.56Z" style="fill-rule:nonzero;"/><path d="M58.15,39.212c-0.2,-0 -0.42,-0 -0.54,-0.02c-0.07,0.16 -0.12,0.26 -0.22,0.41l0.05,0.07c0.17,-0.01 0.48,-0.02 0.71,-0.02l0,1.37c0,0.6 -0.03,1.32 -0.03,1.62c0,0.65 0.42,0.96 0.88,0.96c0.42,-0 0.74,-0.1 1.16,-0.37l-0.12,-0.25c-0.31,0.11 -0.54,0.12 -0.79,0.08c-0.24,-0.04 -0.33,-0.28 -0.33,-0.82c0,-0.3 0.03,-0.73 0.03,-1.33l0,-1.26l0.38,-0c0.24,-0 0.59,0.01 0.72,0.02c0.03,-0.16 0.06,-0.26 0.12,-0.41l-0.05,-0.07c-0.18,0.01 -0.47,0.02 -0.7,0.02l-0.47,-0c0,-0.75 0.01,-0.88 0.05,-1.46c0,-0.07 -0.03,-0.1 -0.09,-0.1c-0.25,0.1 -0.37,0.2 -0.7,0.25l-0.02,0.03c-0.02,0.35 -0.04,0.7 -0.04,1.28Z" style="fill-rule:nonzero;"/><path d="M61.1,42.492l-0.17,0.84c0.57,0.2 1.13,0.27 1.51,0.27c1.38,-0 1.7,-0.82 1.7,-1.37c0,-0.82 -0.65,-1.14 -1.36,-1.31c-0.38,-0.09 -0.93,-0.28 -0.93,-0.78c0,-0.41 0.33,-0.63 0.76,-0.63c0.52,-0 0.84,0.41 1.07,0.68l0.14,-0.01l0.2,-0.74l-0.02,-0.03c-0.29,-0.15 -0.84,-0.3 -1.35,-0.3c-0.74,-0 -1.51,0.39 -1.51,1.22c0,0.8 0.6,1.06 1.2,1.23c0.58,0.16 1.01,0.32 1.01,0.81c0,0.53 -0.39,0.83 -0.92,0.83c-0.48,-0 -0.9,-0.33 -1.18,-0.72l-0.15,0.01Z" style="fill-rule:nonzero;"/><path d="M26.5,38.317l3,-0l-0,6.5l-8,-0l-0,-9.5l5,-0l-0,3Z" style="fill:none;stroke:#000;stroke-width:1px;"/><path d="M26.5,35.317c2.908,3.061 3,3 3,3" style="fill:none;stroke:#000;stroke-width:1px;"/><path d="M34.32,53.667l0,-0.73c0,-0.08 -0.01,-0.1 -0.06,-0.1c-0.22,0.04 -0.58,0.05 -0.81,0.03l-0.02,0.03c0.07,0.43 0.09,1.19 0.09,1.94l0,0.55c0,0.75 -0.01,1.26 -0.09,1.8l0.02,0.03c0.12,-0.02 0.35,-0.03 0.47,-0.03c0.12,-0 0.35,0.01 0.47,0.03l0.02,-0.03c-0.08,-0.57 -0.09,-1.04 -0.09,-1.8l0,-1.21c0.47,-0.48 1.03,-0.78 1.38,-0.78c0.38,-0 0.66,0.22 0.66,0.89l0,1.1c0,0.75 -0.01,1.26 -0.09,1.8l0.02,0.03c0.12,-0.02 0.35,-0.03 0.47,-0.03c0.12,-0 0.35,0.01 0.47,0.03l0.02,-0.03c-0.08,-0.57 -0.09,-1.04 -0.09,-1.8l0,-1.01c0,-0.14 0,-0.26 -0.01,-0.38c0.48,-0.53 0.88,-0.6 1.27,-0.6c0.54,-0 0.8,0.22 0.8,0.89l0,1.1c0,0.75 -0.01,1.26 -0.09,1.8l0.02,0.03c0.12,-0.02 0.35,-0.03 0.47,-0.03c0.12,-0 0.35,0.01 0.47,0.03l0.02,-0.03c-0.08,-0.57 -0.09,-1.04 -0.09,-1.8l0,-1c0,-0.89 -0.16,-1.59 -1.24,-1.59c-0.54,-0 -1.12,0.19 -1.69,0.79c-0.09,-0.48 -0.5,-0.79 -1.06,-0.79c-0.62,-0 -1.21,0.4 -1.68,0.9l-0.03,-0.03Z" style="fill-rule:nonzero;"/><path d="M43.87,56.707c0.12,0.39 0.41,0.58 0.78,0.58c0.25,-0 0.56,-0.06 0.8,-0.31l-0.08,-0.25c-0.11,0.04 -0.19,0.05 -0.27,0.05c-0.1,-0 -0.23,-0.01 -0.29,-0.07c-0.1,-0.09 -0.17,-0.34 -0.17,-0.78c0,-0.29 0.03,-1.4 0.03,-1.51c0,-1.35 -0.89,-1.62 -1.65,-1.62c-0.76,-0 -1.22,0.37 -1.47,0.58l-0.03,0.04l0.17,0.67l0.13,0.01c0.28,-0.45 0.62,-0.85 1.1,-0.85c0.36,-0 0.96,0.05 0.96,1.18c0,0.07 -0.04,0.11 -0.07,0.12l-0.93,0.21c-1.02,0.23 -1.66,0.77 -1.66,1.45c0,0.74 0.51,1.08 1.25,1.08c0.55,-0 0.83,-0.13 1.36,-0.58l0.04,-0Zm0,-1.77l-0.04,1.19c0,0.13 -0.06,0.2 -0.14,0.26c-0.28,0.21 -0.62,0.39 -0.92,0.39c-0.45,-0 -0.74,-0.3 -0.74,-0.61c0,-0.45 0.21,-0.79 0.99,-1l0.85,-0.23Z" style="fill-rule:nonzero;"/><path d="M46.48,54.837l0,0.55c0,0.75 -0.02,1.26 -0.09,1.8l0.02,0.03c0.12,-0.02 0.35,-0.03 0.47,-0.03c0.12,-0 0.35,0.01 0.47,0.03l0.02,-0.03c-0.07,-0.57 -0.09,-1.04 -0.09,-1.8l0,-0.71c0,-0.75 0.03,-1.11 0.09,-1.72c0,-0.09 -0.01,-0.1 -0.09,-0.1c-0.23,0.02 -0.66,0.03 -0.87,0.01l-0.02,0.03c0.06,0.43 0.09,1.19 0.09,1.94Zm-0.1,-3.62c0,0.27 0.24,0.51 0.51,0.51c0.27,-0 0.51,-0.24 0.51,-0.51c0,-0.27 -0.24,-0.51 -0.51,-0.51c-0.27,-0 -0.51,0.24 -0.51,0.51Z" style="fill-rule:nonzero;"/><path d="M52.78,55.387c0,-0.32 0.02,-0.69 0.02,-1.01c0,-1.04 -0.34,-1.58 -1.24,-1.58c-0.38,-0 -1.09,0.15 -1.73,0.9l-0.02,-0.03l0,-0.73c0,-0.08 -0.01,-0.1 -0.06,-0.1c-0.22,0.04 -0.58,0.05 -0.81,0.03l-0.02,0.03c0.07,0.43 0.09,1.19 0.09,1.94l0,0.55c0,0.75 -0.01,1.26 -0.09,1.8l0.02,0.03c0.12,-0.02 0.35,-0.03 0.47,-0.03c0.12,-0 0.35,0.01 0.47,0.03l0.02,-0.03c-0.08,-0.57 -0.09,-1.04 -0.09,-1.8l0,-1.17c0.51,-0.6 1.09,-0.82 1.45,-0.82c0.51,-0 0.72,0.2 0.72,1.01l0,0.98c0,0.75 -0.02,1.26 -0.09,1.8l0.02,0.03c0.12,-0.02 0.35,-0.03 0.47,-0.03c0.12,-0 0.35,0.01 0.47,0.03l0.02,-0.03c-0.08,-0.57 -0.09,-1.04 -0.09,-1.8Z" style="fill-rule:nonzero;"/><path d="M54.11,56.727c0,0.32 0.25,0.57 0.56,0.57c0.31,-0 0.56,-0.25 0.56,-0.57c0,-0.31 -0.25,-0.56 -0.56,-0.56c-0.31,-0 -0.56,0.25 -0.56,0.56Z" style="fill-rule:nonzero;"/><path d="M57.44,53.847l0,-0.91c0,-0.08 -0.01,-0.1 -0.06,-0.1c-0.22,0.04 -0.58,0.05 -0.81,0.03l-0.02,0.03c0.07,0.43 0.09,1.19 0.09,1.94l0,0.55c0,0.75 -0.01,1.26 -0.09,1.8l0.02,0.03c0.12,-0.02 0.35,-0.03 0.47,-0.03c0.12,-0 0.35,0.01 0.47,0.03l0.02,-0.03c-0.07,-0.57 -0.09,-1.04 -0.09,-1.8l0,-0.52c0,-0.42 0.13,-0.66 0.34,-0.99c0.15,-0.22 0.37,-0.35 0.56,-0.35c0.2,-0 0.39,0.02 0.52,0.14l0.08,-0.02l0.2,-0.74l-0.04,-0.04c-0.17,-0.05 -0.18,-0.07 -0.36,-0.07c-0.54,-0 -0.83,0.31 -1.27,1.07l-0.03,-0.02Z" style="fill-rule:nonzero;"/><path d="M59.82,56.177l-0.17,0.84c0.57,0.2 1.13,0.27 1.51,0.27c1.38,-0 1.7,-0.82 1.7,-1.37c0,-0.82 -0.65,-1.14 -1.36,-1.31c-0.38,-0.09 -0.93,-0.28 -0.93,-0.78c0,-0.41 0.33,-0.63 0.76,-0.63c0.52,-0 0.84,0.41 1.07,0.68l0.14,-0.01l0.2,-0.74l-0.02,-0.03c-0.29,-0.15 -0.84,-0.3 -1.35,-0.3c-0.74,-0 -1.51,0.39 -1.51,1.22c0,0.8 0.6,1.06 1.2,1.23c0.58,0.16 1.01,0.32 1.01,0.81c0,0.53 -0.39,0.83 -0.92,0.83c-0.48,-0 -0.9,-0.33 -1.18,-0.72l-0.15,0.01Z" style="fill-rule:nonzero;"/><path d="M26.5,52.002l3,-0l0,6.5l-8,-0l0,-9.5l5,-0l0,3Z" style="fill:none;stroke:#000;stroke-width:1px;"/><path d="M26.5,49.002c2.908,3.061 3,3 3,3" style="fill:none;stroke:#000;stroke-width:1px;"/><path d="M16.14,28.502l0,11.565l5.36,-0l-5.36,-0l0,14.435l5.36,-0" style="fill:none;stroke:#000;stroke-width:1px;"/><path d="M15.799,66.931l5.521,-0l0,8.573l-11.28,-0l0.044,-10.002l3.81,-0c0,-0 0.065,1.429 1.905,1.429Z" style="fill:none;stroke:#000;stroke-width:1px;"/><path d="M25.21,69.984l0,-0.73c0,-0.08 -0.01,-0.1 -0.06,-0.1c-0.22,0.04 -0.58,0.05 -0.81,0.03l-0.02,0.03c0.07,0.43 0.09,1.19 0.09,1.94l0,2.67c0,0.74 -0.02,1.46 -0.09,2l0.02,0.03c0.12,-0.02 0.35,-0.03 0.47,-0.03c0.12,-0 0.35,0.01 0.47,0.03l0.02,-0.03c-0.07,-0.57 -0.09,-1.25 -0.09,-2l0,-0.44c0.26,0.14 0.63,0.22 0.99,0.22c1.32,-0 2.12,-1 2.12,-2.41c0,-1.06 -0.62,-2.08 -1.74,-2.08c-0.39,-0 -0.89,0.2 -1.35,0.9l-0.02,-0.03Zm0,0.58c0.22,-0.53 0.81,-0.99 1.2,-0.99c0.68,-0 1.03,0.62 1.03,1.75c0,0.82 -0.23,1.88 -1.3,1.88c-0.16,-0 -0.58,-0.04 -0.93,-0.45l0,-2.19Z" style="fill-rule:nonzero;"/><path d="M31.92,73.024c0.12,0.39 0.41,0.58 0.78,0.58c0.25,-0 0.56,-0.06 0.8,-0.31l-0.08,-0.25c-0.11,0.04 -0.19,0.05 -0.27,0.05c-0.1,-0 -0.23,-0.01 -0.29,-0.07c-0.1,-0.09 -0.17,-0.34 -0.17,-0.78c0,-0.29 0.03,-1.4 0.03,-1.51c0,-1.35 -0.89,-1.62 -1.65,-1.62c-0.76,-0 -1.22,0.37 -1.47,0.58l-0.03,0.04l0.17,0.67l0.13,0.01c0.28,-0.45 0.62,-0.85 1.1,-0.85c0.36,-0 0.96,0.05 0.96,1.18c0,0.07 -0.04,0.11 -0.07,0.12l-0.93,0.21c-1.02,0.23 -1.66,0.77 -1.66,1.45c0,0.74 0.51,1.08 1.25,1.08c0.55,-0 0.83,-0.13 1.36,-0.58l0.04,-0Zm0,-1.77l-0.04,1.19c0,0.13 -0.06,0.2 -0.14,0.26c-0.28,0.21 -0.62,0.39 -0.92,0.39c-0.45,-0 -0.74,-0.3 -0.74,-0.61c0,-0.45 0.21,-0.79 0.99,-1l0.85,-0.23Z" style="fill-rule:nonzero;"/><path d="M33.91,69.184c0.4,0.89 1.59,3.47 1.94,4.42c-0.32,0.75 -0.73,1.52 -1.18,2.27c0.1,-0.03 0.25,-0.05 0.35,-0.05c0.1,-0 0.39,0.02 0.49,0.05c0.38,-1.25 2.57,-6.02 2.9,-6.69c-0.1,0.03 -0.33,0.03 -0.43,0.03c-0.1,-0 -0.29,-0 -0.39,-0.03c-0.36,1.13 -0.83,2.41 -1.31,3.44l-0.02,-0c-0.49,-1.19 -0.97,-2.3 -1.34,-3.44c-0.13,0.03 -0.35,0.03 -0.49,0.03c-0.13,-0 -0.38,-0 -0.52,-0.03Z" style="fill-rule:nonzero;"/><path d="M40.31,69.984l0,-0.73c0,-0.08 -0.01,-0.1 -0.06,-0.1c-0.22,0.04 -0.58,0.05 -0.81,0.03l-0.02,0.03c0.07,0.43 0.09,1.19 0.09,1.94l0,0.55c0,0.75 -0.01,1.26 -0.09,1.8l0.02,0.03c0.12,-0.02 0.35,-0.03 0.47,-0.03c0.12,-0 0.35,0.01 0.47,0.03l0.02,-0.03c-0.08,-0.57 -0.09,-1.04 -0.09,-1.8l0,-1.21c0.47,-0.48 1.03,-0.78 1.38,-0.78c0.38,-0 0.66,0.22 0.66,0.89l0,1.1c0,0.75 -0.01,1.26 -0.09,1.8l0.02,0.03c0.12,-0.02 0.35,-0.03 0.47,-0.03c0.12,-0 0.35,0.01 0.47,0.03l0.02,-0.03c-0.08,-0.57 -0.09,-1.04 -0.09,-1.8l0,-1.01c0,-0.14 0,-0.26 -0.01,-0.38c0.48,-0.53 0.88,-0.6 1.27,-0.6c0.54,-0 0.8,0.22 0.8,0.89l0,1.1c0,0.75 -0.01,1.26 -0.09,1.8l0.02,0.03c0.12,-0.02 0.35,-0.03 0.47,-0.03c0.12,-0 0.35,0.01 0.47,0.03l0.02,-0.03c-0.08,-0.57 -0.09,-1.04 -0.09,-1.8l0,-1c0,-0.89 -0.16,-1.59 -1.24,-1.59c-0.54,-0 -1.12,0.19 -1.69,0.79c-0.09,-0.48 -0.5,-0.79 -1.06,-0.79c-0.62,-0 -1.21,0.4 -1.68,0.9l-0.03,-0.03Z" style="fill-rule:nonzero;"/><path d="M50.68,72.464c-0.35,0.38 -0.82,0.55 -1.37,0.55c-0.34,-0 -0.81,-0.13 -1.09,-0.57c-0.18,-0.28 -0.24,-0.69 -0.24,-1.27l2.72,-0c0.11,-0 0.18,-0.06 0.18,-0.17c0,-0.84 -0.41,-1.89 -1.73,-1.89c-1.03,-0 -2.05,0.83 -2.05,2.3c0,0.57 0.12,1.13 0.45,1.53c0.34,0.41 0.92,0.66 1.59,0.66c0.72,-0 1.36,-0.37 1.74,-0.89l-0.2,-0.25Zm-2.67,-1.69c0.17,-1.04 0.83,-1.26 1.14,-1.26c0.4,-0 0.84,0.37 0.84,1.12c0,0.09 -0.04,0.14 -0.14,0.14l-1.84,-0Z" style="fill-rule:nonzero;"/><path d="M55.89,71.704c0,-0.32 0.02,-0.69 0.02,-1.01c0,-1.04 -0.34,-1.58 -1.24,-1.58c-0.38,-0 -1.09,0.15 -1.73,0.9l-0.02,-0.03l0,-0.73c0,-0.08 -0.01,-0.1 -0.06,-0.1c-0.22,0.04 -0.58,0.05 -0.81,0.03l-0.02,0.03c0.07,0.43 0.09,1.19 0.09,1.94l0,0.55c0,0.75 -0.01,1.26 -0.09,1.8l0.02,0.03c0.12,-0.02 0.35,-0.03 0.47,-0.03c0.12,-0 0.35,0.01 0.47,0.03l0.02,-0.03c-0.08,-0.57 -0.09,-1.04 -0.09,-1.8l0,-1.17c0.51,-0.6 1.09,-0.82 1.45,-0.82c0.51,-0 0.72,0.2 0.72,1.01l0,0.98c0,0.75 -0.02,1.26 -0.09,1.8l0.02,0.03c0.12,-0.02 0.35,-0.03 0.47,-0.03c0.12,-0 0.35,0.01 0.47,0.03l0.02,-0.03c-0.08,-0.57 -0.09,-1.04 -0.09,-1.8Z" style="fill-rule:nonzero;"/><path d="M57.63,69.214c-0.2,-0 -0.42,-0 -0.54,-0.02c-0.07,0.16 -0.12,0.26 -0.22,0.41l0.05,0.07c0.17,-0.01 0.48,-0.02 0.71,-0.02l0,1.37c0,0.6 -0.03,1.32 -0.03,1.62c0,0.65 0.42,0.96 0.88,0.96c0.42,-0 0.74,-0.1 1.16,-0.37l-0.12,-0.25c-0.31,0.11 -0.54,0.12 -0.79,0.08c-0.24,-0.04 -0.33,-0.28 -0.33,-0.82c0,-0.3 0.03,-0.73 0.03,-1.33l0,-1.26l0.38,-0c0.24,-0 0.59,0.01 0.72,0.02c0.03,-0.16 0.06,-0.26 0.12,-0.41l-0.05,-0.07c-0.18,0.01 -0.47,0.02 -0.7,0.02l-0.47,-0c0,-0.75 0.01,-0.88 0.05,-1.46c0,-0.07 -0.03,-0.1 -0.09,-0.1c-0.25,0.1 -0.37,0.2 -0.7,0.25l-0.02,0.03c-0.02,0.35 -0.04,0.7 -0.04,1.28Z" style="fill-rule:nonzero;"/><path d="M60.58,72.494l-0.17,0.84c0.57,0.2 1.13,0.27 1.51,0.27c1.38,-0 1.7,-0.82 1.7,-1.37c0,-0.82 -0.65,-1.14 -1.36,-1.31c-0.38,-0.09 -0.93,-0.28 -0.93,-0.78c0,-0.41 0.33,-0.63 0.76,-0.63c0.52,-0 0.84,0.41 1.07,0.68l0.14,-0.01l0.2,-0.74l-0.02,-0.03c-0.29,-0.15 -0.84,-0.3 -1.35,-0.3c-0.74,-0 -1.51,0.39 -1.51,1.22c0,0.8 0.6,1.06 1.2,1.23c0.58,0.16 1.01,0.32 1.01,0.81c0,0.53 -0.39,0.83 -0.92,0.83c-0.48,-0 -0.9,-0.33 -1.18,-0.72l-0.15,0.01Z" style="fill-rule:nonzero;"/><path d="M33.14,88.154l0,0.55c0,0.75 -0.02,1.26 -0.09,1.8l0.02,0.03c0.12,-0.02 0.35,-0.03 0.47,-0.03c0.12,-0 0.35,0.01 0.47,0.03l0.02,-0.03c-0.07,-0.57 -0.09,-1.04 -0.09,-1.8l0,-0.71c0,-0.75 0.03,-1.11 0.09,-1.72c0,-0.09 -0.01,-0.1 -0.09,-0.1c-0.23,0.02 -0.66,0.03 -0.87,0.01l-0.02,0.03c0.06,0.43 0.09,1.19 0.09,1.94Zm-0.1,-3.62c0,0.27 0.24,0.51 0.51,0.51c0.27,-0 0.51,-0.24 0.51,-0.51c0,-0.27 -0.24,-0.51 -0.51,-0.51c-0.27,-0 -0.51,0.24 -0.51,0.51Z" style="fill-rule:nonzero;"/><path d="M39.44,88.704c0,-0.32 0.02,-0.69 0.02,-1.01c0,-1.04 -0.34,-1.58 -1.24,-1.58c-0.38,-0 -1.09,0.15 -1.73,0.9l-0.02,-0.03l0,-0.73c0,-0.08 -0.01,-0.1 -0.06,-0.1c-0.22,0.04 -0.58,0.05 -0.81,0.03l-0.02,0.03c0.07,0.43 0.09,1.19 0.09,1.94l0,0.55c0,0.75 -0.01,1.26 -0.09,1.8l0.02,0.03c0.12,-0.02 0.35,-0.03 0.47,-0.03c0.12,-0 0.35,0.01 0.47,0.03l0.02,-0.03c-0.08,-0.57 -0.09,-1.04 -0.09,-1.8l0,-1.17c0.51,-0.6 1.09,-0.82 1.45,-0.82c0.51,-0 0.72,0.2 0.72,1.01l0,0.98c0,0.75 -0.02,1.26 -0.09,1.8l0.02,0.03c0.12,-0.02 0.35,-0.03 0.47,-0.03c0.12,-0 0.35,0.01 0.47,0.03l0.02,-0.03c-0.08,-0.57 -0.09,-1.04 -0.09,-1.8Z" style="fill-rule:nonzero;"/><path d="M43.84,89.924l0.02,-0l0.05,0.58c0,0.02 0.03,0.03 0.09,0.03c0.13,-0.02 0.2,-0.03 0.35,-0.03c0.12,-0 0.31,0.01 0.44,0.03l0.02,-0.03c-0.08,-0.43 -0.17,-1.17 -0.17,-1.92l0,-3.08c0,-0.74 0.04,-1.26 0.09,-1.88c0,-0.07 -0.03,-0.1 -0.09,-0.1c-0.25,0.1 -0.46,0.17 -0.87,0.2l-0.02,0.03c0.08,0.43 0.09,1.17 0.09,1.93l0,0.65c-0.23,-0.13 -0.64,-0.22 -0.84,-0.22c-1.3,-0 -2.26,0.9 -2.26,2.26c0,1.23 0.73,2.23 1.81,2.23c0.48,-0 0.93,-0.22 1.29,-0.68Zm0,-0.55c-0.36,0.46 -0.82,0.71 -1.23,0.71c-0.54,-0 -1,-0.54 -1,-1.79c0,-1.5 0.8,-1.78 1.28,-1.78c0.47,-0 0.71,0.2 0.95,0.58l0,2.28Z" style="fill-rule:nonzero;"/><path d="M49.45,89.464c-0.35,0.38 -0.82,0.55 -1.37,0.55c-0.34,-0 -0.81,-0.13 -1.09,-0.57c-0.18,-0.28 -0.24,-0.69 -0.24,-1.27l2.72,-0c0.11,-0 0.18,-0.06 0.18,-0.17c0,-0.84 -0.41,-1.89 -1.73,-1.89c-1.03,-0 -2.05,0.83 -2.05,2.3c0,0.57 0.12,1.13 0.45,1.53c0.34,0.41 0.92,0.66 1.59,0.66c0.72,-0 1.36,-0.37 1.74,-0.89l-0.2,-0.25Zm-2.67,-1.69c0.17,-1.04 0.83,-1.26 1.14,-1.26c0.4,-0 0.84,0.37 0.84,1.12c0,0.09 -0.04,0.14 -0.14,0.14l-1.84,-0Z" style="fill-rule:nonzero;"/><path d="M51.84,88.434l-1.57,2.1c0.1,-0.02 0.26,-0.03 0.36,-0.03c0.1,-0 0.34,0.01 0.44,0.03c0.38,-0.57 0.68,-1.12 1.08,-1.68c0.4,0.56 0.7,1.11 1.06,1.68c0.15,-0.02 0.35,-0.03 0.51,-0.03c0.15,-0 0.42,0.01 0.57,0.03c-0.6,-0.78 -1.09,-1.55 -1.63,-2.33l1.64,-2.02c-0.13,0.02 -0.35,0.03 -0.45,0.03c-0.11,-0 -0.26,-0.01 -0.37,-0.03c-0.38,0.56 -0.7,1.09 -1.12,1.63c-0.4,-0.54 -0.67,-1.07 -1.01,-1.63c-0.17,0.02 -0.37,0.03 -0.54,0.03c-0.16,-0 -0.42,-0.01 -0.58,-0.03l1.61,2.25Z" style="fill-rule:nonzero;"/><path d="M55.08,90.044c0,0.32 0.25,0.57 0.56,0.57c0.31,-0 0.56,-0.25 0.56,-0.57c0,-0.31 -0.25,-0.56 -0.56,-0.56c-0.31,-0 -0.56,0.25 -0.56,0.56Z" style="fill-rule:nonzero;"/><path d="M57.69,86.214c-0.2,-0 -0.42,-0 -0.54,-0.02c-0.07,0.16 -0.12,0.26 -0.22,0.41l0.05,0.07c0.17,-0.01 0.48,-0.02 0.71,-0.02l0,1.37c0,0.6 -0.03,1.32 -0.03,1.62c0,0.65 0.42,0.96 0.88,0.96c0.42,-0 0.74,-0.1 1.16,-0.37l-0.12,-0.25c-0.31,0.11 -0.54,0.12 -0.79,0.08c-0.24,-0.04 -0.33,-0.28 -0.33,-0.82c0,-0.3 0.03,-0.73 0.03,-1.33l0,-1.26l0.38,-0c0.24,-0 0.59,0.01 0.72,0.02c0.03,-0.16 0.06,-0.26 0.12,-0.41l-0.05,-0.07c-0.18,0.01 -0.47,0.02 -0.7,0.02l-0.47,-0c0,-0.75 0.01,-0.88 0.05,-1.46c0,-0.07 -0.03,-0.1 -0.09,-0.1c-0.25,0.1 -0.37,0.2 -0.7,0.25l-0.02,0.03c-0.02,0.35 -0.04,0.7 -0.04,1.28Z" style="fill-rule:nonzero;"/><path d="M60.64,89.494l-0.17,0.84c0.57,0.2 1.13,0.27 1.51,0.27c1.38,-0 1.7,-0.82 1.7,-1.37c0,-0.82 -0.65,-1.14 -1.36,-1.31c-0.38,-0.09 -0.93,-0.28 -0.93,-0.78c0,-0.41 0.33,-0.63 0.76,-0.63c0.52,-0 0.84,0.41 1.07,0.68l0.14,-0.01l0.2,-0.74l-0.02,-0.03c-0.29,-0.15 -0.84,-0.3 -1.35,-0.3c-0.74,-0 -1.51,0.39 -1.51,1.22c0,0.8 0.6,1.06 1.2,1.23c0.58,0.16 1.01,0.32 1.01,0.81c0,0.53 -0.39,0.83 -0.92,0.83c-0.48,-0 -0.9,-0.33 -1.18,-0.72l-0.15,0.01Z" style="fill-rule:nonzero;"/><path d="M26.04,85.319l3,-0l-0,6.5l-8,-0l-0,-9.5l5,-0l-0,3Z" style="fill:none;stroke:#000;stroke-width:1px;"/><path d="M26.04,82.319c2.908,3.061 3,3 3,3" style="fill:none;stroke:#000;stroke-width:1px;"/><path d="M33.86,100.669l0,-0.73c0,-0.08 -0.01,-0.1 -0.06,-0.1c-0.22,0.04 -0.58,0.05 -0.81,0.03l-0.02,0.03c0.07,0.43 0.09,1.19 0.09,1.94l0,0.55c0,0.75 -0.01,1.26 -0.09,1.8l0.02,0.03c0.12,-0.02 0.35,-0.03 0.47,-0.03c0.12,-0 0.35,0.01 0.47,0.03l0.02,-0.03c-0.08,-0.57 -0.09,-1.04 -0.09,-1.8l0,-1.21c0.47,-0.48 1.03,-0.78 1.38,-0.78c0.38,-0 0.66,0.22 0.66,0.89l0,1.1c0,0.75 -0.01,1.26 -0.09,1.8l0.02,0.03c0.12,-0.02 0.35,-0.03 0.47,-0.03c0.12,-0 0.35,0.01 0.47,0.03l0.02,-0.03c-0.08,-0.57 -0.09,-1.04 -0.09,-1.8l0,-1.01c0,-0.14 0,-0.26 -0.01,-0.38c0.48,-0.53 0.88,-0.6 1.27,-0.6c0.54,-0 0.8,0.22 0.8,0.89l0,1.1c0,0.75 -0.01,1.26 -0.09,1.8l0.02,0.03c0.12,-0.02 0.35,-0.03 0.47,-0.03c0.12,-0 0.35,0.01 0.47,0.03l0.02,-0.03c-0.08,-0.57 -0.09,-1.04 -0.09,-1.8l0,-1c0,-0.89 -0.16,-1.59 -1.24,-1.59c-0.54,-0 -1.12,0.19 -1.69,0.79c-0.09,-0.48 -0.5,-0.79 -1.06,-0.79c-0.62,-0 -1.21,0.4 -1.68,0.9l-0.03,-0.03Z" style="fill-rule:nonzero;"/><path d="M43.41,103.709c0.12,0.39 0.41,0.58 0.78,0.58c0.25,-0 0.56,-0.06 0.8,-0.31l-0.08,-0.25c-0.11,0.04 -0.19,0.05 -0.27,0.05c-0.1,-0 -0.23,-0.01 -0.29,-0.07c-0.1,-0.09 -0.17,-0.34 -0.17,-0.78c0,-0.29 0.03,-1.4 0.03,-1.51c0,-1.35 -0.89,-1.62 -1.65,-1.62c-0.76,-0 -1.22,0.37 -1.47,0.58l-0.03,0.04l0.17,0.67l0.13,0.01c0.28,-0.45 0.62,-0.85 1.1,-0.85c0.36,-0 0.96,0.05 0.96,1.18c0,0.07 -0.04,0.11 -0.07,0.12l-0.93,0.21c-1.02,0.23 -1.66,0.77 -1.66,1.45c0,0.74 0.51,1.08 1.25,1.08c0.55,-0 0.83,-0.13 1.36,-0.58l0.04,-0Zm0,-1.77l-0.04,1.19c0,0.13 -0.06,0.2 -0.14,0.26c-0.28,0.21 -0.62,0.39 -0.92,0.39c-0.45,-0 -0.74,-0.3 -0.74,-0.61c0,-0.45 0.21,-0.79 0.99,-1l0.85,-0.23Z" style="fill-rule:nonzero;"/><path d="M46.02,101.839l0,0.55c0,0.75 -0.02,1.26 -0.09,1.8l0.02,0.03c0.12,-0.02 0.35,-0.03 0.47,-0.03c0.12,-0 0.35,0.01 0.47,0.03l0.02,-0.03c-0.07,-0.57 -0.09,-1.04 -0.09,-1.8l0,-0.71c0,-0.75 0.03,-1.11 0.09,-1.72c0,-0.09 -0.01,-0.1 -0.09,-0.1c-0.23,0.02 -0.66,0.03 -0.87,0.01l-0.02,0.03c0.06,0.43 0.09,1.19 0.09,1.94Zm-0.1,-3.62c0,0.27 0.24,0.51 0.51,0.51c0.27,-0 0.51,-0.24 0.51,-0.51c0,-0.27 -0.24,-0.51 -0.51,-0.51c-0.27,-0 -0.51,0.24 -0.51,0.51Z" style="fill-rule:nonzero;"/><path d="M52.32,102.389c0,-0.32 0.02,-0.69 0.02,-1.01c0,-1.04 -0.34,-1.58 -1.24,-1.58c-0.38,-0 -1.09,0.15 -1.73,0.9l-0.02,-0.03l0,-0.73c0,-0.08 -0.01,-0.1 -0.06,-0.1c-0.22,0.04 -0.58,0.05 -0.81,0.03l-0.02,0.03c0.07,0.43 0.09,1.19 0.09,1.94l0,0.55c0,0.75 -0.01,1.26 -0.09,1.8l0.02,0.03c0.12,-0.02 0.35,-0.03 0.47,-0.03c0.12,-0 0.35,0.01 0.47,0.03l0.02,-0.03c-0.08,-0.57 -0.09,-1.04 -0.09,-1.8l0,-1.17c0.51,-0.6 1.09,-0.82 1.45,-0.82c0.51,-0 0.72,0.2 0.72,1.01l0,0.98c0,0.75 -0.02,1.26 -0.09,1.8l0.02,0.03c0.12,-0.02 0.35,-0.03 0.47,-0.03c0.12,-0 0.35,0.01 0.47,0.03l0.02,-0.03c-0.08,-0.57 -0.09,-1.04 -0.09,-1.8Z" style="fill-rule:nonzero;"/><path d="M53.65,103.729c0,0.32 0.25,0.57 0.56,0.57c0.31,-0 0.56,-0.25 0.56,-0.57c0,-0.31 -0.25,-0.56 -0.56,-0.56c-0.31,-0 -0.56,0.25 -0.56,0.56Z" style="fill-rule:nonzero;"/><path d="M56.98,100.849l0,-0.91c0,-0.08 -0.01,-0.1 -0.06,-0.1c-0.22,0.04 -0.58,0.05 -0.81,0.03l-0.02,0.03c0.07,0.43 0.09,1.19 0.09,1.94l0,0.55c0,0.75 -0.01,1.26 -0.09,1.8l0.02,0.03c0.12,-0.02 0.35,-0.03 0.47,-0.03c0.12,-0 0.35,0.01 0.47,0.03l0.02,-0.03c-0.07,-0.57 -0.09,-1.04 -0.09,-1.8l0,-0.52c0,-0.42 0.13,-0.66 0.34,-0.99c0.15,-0.22 0.37,-0.35 0.56,-0.35c0.2,-0 0.39,0.02 0.52,0.14l0.08,-0.02l0.2,-0.74l-0.04,-0.04c-0.17,-0.05 -0.18,-0.07 -0.36,-0.07c-0.54,-0 -0.83,0.31 -1.27,1.07l-0.03,-0.02Z" style="fill-rule:nonzero;"/><path d="M59.36,103.179l-0.17,0.84c0.57,0.2 1.13,0.27 1.51,0.27c1.38,-0 1.7,-0.82 1.7,-1.37c0,-0.82 -0.65,-1.14 -1.36,-1.31c-0.38,-0.09 -0.93,-0.28 -0.93,-0.78c0,-0.41 0.33,-0.63 0.76,-0.63c0.52,-0 0.84,0.41 1.07,0.68l0.14,-0.01l0.2,-0.74l-0.02,-0.03c-0.29,-0.15 -0.84,-0.3 -1.35,-0.3c-0.74,-0 -1.51,0.39 -1.51,1.22c0,0.8 0.6,1.06 1.2,1.23c0.58,0.16 1.01,0.32 1.01,0.81c0,0.53 -0.39,0.83 -0.92,0.83c-0.48,-0 -0.9,-0.33 -1.18,-0.72l-0.15,0.01Z" style="fill-rule:nonzero;"/><path d="M26.04,99.004l3,-0l0,6.5l-8,-0l0,-9.5l5,-0l0,3Z" style="fill:none;stroke:#000;stroke-width:1px;"/><path d="M26.04,96.004c2.908,3.061 3,3 3,3" style="fill:none;stroke:#000;stroke-width:1px;"/><path d="M15.68,75.504l0,11.565l5.36,-0l-5.36,-0l0,14.435l5.36,-0" style="fill:none;stroke:#000;stroke-width:1px;"/><path d="M6.14,10.502l0,13l4.36,-0.001l-4.36,-0l0,47.001l3.9,0.001" style="fill:none;stroke:#000;stroke-width:1px;"/></g></svg>