<?xml version="1.0" encoding="UTF-8" standalone="no"?>
<!DOCTYPE svg PUBLIC "-//W3C//DTD SVG 1.1//EN" "http://www.w3.org/Graphics/SVG/1.1/DTD/svg11.dtd">
<svg width="100%" height="100%" viewBox="0 0 239 299" version="1.1" xmlns="http://www.w3.org/2000/svg" xmlns:xlink="http://www.w3.org/1999/xlink" xml:space="preserve" xmlns:serif="http://www.serif.com/" style="fill-rule:evenodd;clip-rule:evenodd;stroke-linecap:round;stroke-linejoin:round;stroke-miterlimit:1.5;">
    <g>
        <path d="M212.432,68.376l-0,20c-0,5.519 -4.481,10 -10,10l-160,0c-5.519,0 -10,-4.481 -10,-10l-0,-20c-0,-5.519 4.481,-10 10,-10l160,0c5.519,0 10,4.481 10,10Z" style="fill:none;stroke:black;stroke-width:1px;"/>
        <path d="M96.889,76.108l0,4.41c0,1.35 -0.077,2.628 -0.233,3.6l0.02,0.054c-0,0 0.933,-0.054 1.613,-0.054c0.661,0 1.594,0.054 1.594,0.054l0.039,-0.054c-0.156,-1.026 -0.233,-2.25 -0.233,-3.6l-0,-4.41c-0,-1.35 0.077,-2.646 0.233,-3.6l-0.02,-0.054c0,0 -0.933,0.054 -1.613,0.054c-0.661,0 -1.594,-0.054 -1.594,-0.054l-0.039,0.054c0.156,1.026 0.233,2.25 0.233,3.6Z" style="fill-rule:nonzero;"/>
        <path d="M111.449,80.878l0,-1.998c0,-1.89 -0.952,-2.664 -2.702,-2.664c-0.991,0 -2.158,0.558 -3.052,1.62l-0.078,-0.054c0,-0.414 -0.019,-1.17 -0.058,-1.314c-0.019,-0.126 -0.058,-0.18 -0.175,-0.18c-0.563,0.09 -1.827,0.09 -2.507,0.054l-0.039,0.054c0.155,0.774 0.214,2.142 0.214,3.492l-0,0.99c-0,1.35 -0.039,2.268 -0.214,3.24l0.039,0.054c-0,0 0.913,-0.054 1.594,-0.054c0.661,0 1.205,0.054 1.205,0.054l0.058,-0.054c-0.097,-1.026 -0.117,-1.872 -0.117,-3.24l0,-1.836c0.739,-0.9 1.556,-1.44 2.255,-1.44c0.525,0 1.011,0.36 1.011,1.674l0,1.602c0,1.35 0,2.286 -0.116,3.24l0.038,0.054c0,0 0.622,-0.054 1.303,-0.054c0.661,0 1.516,0.054 1.516,0.054l0.039,-0.054c-0.175,-1.026 -0.214,-1.872 -0.214,-3.24Z" style="fill-rule:nonzero;"/>
        <path d="M114.909,76.396c-0.389,0 -0.816,-0.018 -1.049,-0.054c-0.098,0.306 -0.234,0.594 -0.428,0.864l0.097,0.126c0.331,-0.018 0.933,-0.036 1.38,-0.036l-0.058,2.124c-0.02,1.08 -0.058,2.574 -0.058,3.114c-0,0.846 0.641,1.764 1.885,1.764c1.011,0 2.022,-0.162 2.858,-0.63c-0,-0.288 -0.117,-0.558 -0.331,-0.684c-0.427,0.198 -0.622,0.216 -1.127,0.216c-0.525,0 -0.72,-0.702 -0.72,-1.44l0,-0.126c0,-0.558 0,-1.404 0.02,-2.412l0.039,-1.926l0.738,0c0.467,0 1.147,0.018 1.4,0.036c0.039,-0.27 0.117,-0.576 0.233,-0.846l-0.097,-0.144c-0.369,0.036 -0.913,0.054 -1.361,0.054l-0.913,0c-0,-1.008 0.019,-1.548 0.097,-2.502c-0,-0.126 -0.058,-0.18 -0.175,-0.18c-0.486,0.18 -1.536,0.648 -2.313,0.81l-0.039,0.054c-0.058,0.486 -0.078,1.098 -0.078,1.818Z" style="fill-rule:nonzero;"/>
        <path d="M128.75,82.192c-0.895,0.666 -1.847,0.738 -2.664,0.738c-0.952,0 -1.652,-0.234 -2.118,-0.702c-0.428,-0.432 -0.642,-1.062 -0.642,-1.89l1.944,0c1.944,0 3.596,0.036 3.596,0.036l0.117,-0.108c-0,-2.25 -0.681,-4.05 -3.674,-4.05c-1.069,0 -2.236,0.306 -2.994,0.9c-0.952,0.72 -1.594,1.8 -1.594,3.294c0,1.062 0.428,2.178 1.225,2.952c0.661,0.63 1.808,0.936 3.266,0.936c1.399,0 2.799,-0.414 3.849,-1.548c-0,-0.234 -0.117,-0.558 -0.311,-0.558Zm-5.346,-2.664c0.078,-0.882 0.311,-1.512 0.603,-1.872c0.233,-0.306 0.622,-0.54 1.166,-0.54c0.797,0 1.263,0.828 1.263,2.412l-3.032,0Z" style="fill-rule:nonzero;"/>
        <path d="M139.869,80.878l-0,-1.998c-0,-1.89 -0.953,-2.664 -2.702,-2.664c-0.992,0 -2.158,0.558 -3.052,1.62l-0.078,-0.054c-0,-0.414 -0.02,-1.17 -0.058,-1.314c-0.02,-0.126 -0.059,-0.18 -0.175,-0.18c-0.564,0.09 -1.828,0.09 -2.508,0.054l-0.039,0.054c0.156,0.774 0.214,2.142 0.214,3.492l0,0.99c0,1.35 -0.039,2.268 -0.214,3.24l0.039,0.054c0,0 0.914,-0.054 1.594,-0.054c0.661,0 1.205,0.054 1.205,0.054l0.059,-0.054c-0.098,-1.026 -0.117,-1.872 -0.117,-3.24l-0,-1.836c0.739,-0.9 1.555,-1.44 2.255,-1.44c0.525,0 1.011,0.36 1.011,1.674l-0,1.602c-0,1.35 -0,2.286 -0.117,3.24l0.039,0.054c-0,0 0.622,-0.054 1.302,-0.054c0.661,0 1.516,0.054 1.516,0.054l0.039,-0.054c-0.175,-1.026 -0.213,-1.872 -0.213,-3.24Z" style="fill-rule:nonzero;"/>
        <path d="M143.329,76.396c-0.389,0 -0.817,-0.018 -1.05,-0.054c-0.097,0.306 -0.233,0.594 -0.428,0.864l0.097,0.126c0.331,-0.018 0.934,-0.036 1.381,-0.036l-0.059,2.124c-0.019,1.08 -0.058,2.574 -0.058,3.114c0,0.846 0.641,1.764 1.886,1.764c1.01,0 2.021,-0.162 2.857,-0.63c0,-0.288 -0.117,-0.558 -0.33,-0.684c-0.428,0.198 -0.622,0.216 -1.128,0.216c-0.525,0 -0.719,-0.702 -0.719,-1.44l-0,-0.126c-0,-0.558 -0,-1.404 0.019,-2.412l0.039,-1.926l0.739,0c0.466,0 1.147,0.018 1.4,0.036c0.038,-0.27 0.116,-0.576 0.233,-0.846l-0.097,-0.144c-0.37,0.036 -0.914,0.054 -1.361,0.054l-0.914,0c0,-1.008 0.02,-1.548 0.097,-2.502c0,-0.126 -0.058,-0.18 -0.175,-0.18c-0.485,0.18 -1.535,0.648 -2.313,0.81l-0.039,0.054c-0.058,0.486 -0.077,1.098 -0.077,1.818Z" style="fill-rule:nonzero;"/>
    </g>
    <g>
        <path d="M212.432,168.376l-0,20c-0,5.519 -4.481,10 -10,10l-160,-0c-5.519,-0 -10,-4.481 -10,-10l-0,-20c-0,-5.519 4.481,-10 10,-10l160,-0c5.519,-0 10,4.481 10,10Z" style="fill:none;stroke:black;stroke-width:1px;"/>
        <path d="M70.103,181.787c-1.186,0 -2.819,-1.188 -3.499,-2.142l-0.505,0.018c-0.078,0.648 -0.234,1.656 -0.389,2.196l0.039,0.054c-0,0 1.807,0.81 4.179,0.81c2.857,0 4.646,-1.692 4.646,-3.528c-0,-1.962 -2.275,-2.988 -3.849,-3.654c-1.05,-0.45 -1.983,-0.9 -1.983,-2.214c0,-0.9 0.719,-1.746 1.769,-1.746c1.166,0 2.313,1.278 2.819,2.16l0.583,-0.018c0.078,-0.648 0.214,-1.62 0.389,-2.16l-0.039,-0.054c-0,0 -1.594,-0.81 -3.966,-0.81c-2.196,0 -4.198,1.206 -4.198,3.114c-0,0.684 0.136,1.386 0.602,1.944c0.894,1.08 2.411,1.764 3.519,2.286c0.913,0.432 1.691,1.152 1.691,1.89c-0,1.278 -0.642,1.854 -1.808,1.854Z" style="fill-rule:nonzero;"/>
        <path d="M79.919,176.099l-0.077,-0.054c-0,-0.414 -0.02,-1.008 -0.059,-1.152c-0.019,-0.126 -0.058,-0.18 -0.175,-0.18c-0.563,0.09 -1.827,0.09 -2.507,0.054l-0.039,0.054c0.155,0.774 0.214,2.142 0.214,3.492l-0,4.806c-0,1.332 -0.02,2.628 -0.195,3.6l0.02,0.054c-0,0 0.758,-0.054 1.438,-0.054c0.661,0 1.458,0.054 1.458,0.054l0.039,-0.054c-0.155,-1.026 -0.194,-2.25 -0.194,-3.6l-0,-0.9c0.641,0.378 1.36,0.504 2.08,0.504c2.449,0 4.354,-1.872 4.354,-4.41c-0,-1.35 -0.447,-2.358 -1.361,-3.096c-0.466,-0.36 -1.127,-0.576 -1.983,-0.576c-0.835,0 -2.06,0.252 -3.013,1.458Zm-0.077,1.368c0.427,-0.954 1.516,-1.566 2.177,-1.566c1.186,0 1.497,1.152 1.497,2.898c-0,1.908 -0.856,3.024 -1.944,3.024c-0.486,0 -1.011,-0.09 -1.73,-0.648l-0,-3.708Z" style="fill-rule:nonzero;"/>
        <path d="M95.937,180.617c-0.894,0.666 -1.847,0.738 -2.663,0.738c-0.953,0 -1.652,-0.234 -2.119,-0.702c-0.428,-0.432 -0.641,-1.062 -0.641,-1.89l1.943,0c1.944,0 3.597,0.036 3.597,0.036l0.116,-0.108c0,-2.25 -0.68,-4.05 -3.674,-4.05c-1.069,0 -2.235,0.306 -2.993,0.9c-0.953,0.72 -1.594,1.8 -1.594,3.294c-0,1.062 0.427,2.178 1.224,2.952c0.661,0.63 1.808,0.936 3.266,0.936c1.4,0 2.799,-0.414 3.849,-1.548c0,-0.234 -0.117,-0.558 -0.311,-0.558Zm-5.346,-2.664c0.078,-0.882 0.311,-1.512 0.603,-1.872c0.233,-0.306 0.622,-0.54 1.166,-0.54c0.797,-0 1.264,0.828 1.264,2.412l-3.033,-0Z" style="fill-rule:nonzero;"/>
        <path d="M103.013,175.541c0.758,0 1.322,0.522 1.749,1.512l0.544,-0.018l0.467,-1.746l-0.039,-0.054c-0.602,-0.288 -1.924,-0.594 -2.896,-0.594c-2.605,0 -4.782,1.44 -4.782,4.266c-0,1.116 0.389,1.998 1.05,2.664c0.699,0.702 2.002,1.152 3.46,1.152c1.477,0 2.332,-0.288 3.207,-0.972c-0.039,-0.18 -0.097,-0.414 -0.097,-0.702l-0.311,-0.09c-0.544,0.612 -1.497,0.864 -2.275,0.864c-0.563,0 -1.341,-0.45 -1.691,-0.972c-0.35,-0.522 -0.583,-1.386 -0.583,-2.412c0,-0.864 0.156,-1.548 0.467,-2.034c0.388,-0.558 1.049,-0.864 1.73,-0.864Z" style="fill-rule:nonzero;"/>
        <path d="M108.164,178.313l-0,0.99c-0,1.35 -0.039,2.268 -0.194,3.24l0.038,0.054c0.409,-0.036 0.759,-0.054 1.439,-0.054c0.661,-0 1.069,0.018 1.438,0.054l0.039,-0.054c-0.155,-1.026 -0.194,-1.872 -0.194,-3.24l-0,-1.188c-0,-1.35 0.078,-2.124 0.194,-3.204c0,-0.126 -0.058,-0.18 -0.175,-0.18c-0.272,0.036 -0.797,0.09 -1.341,0.09c-0.505,-0 -1.03,-0.036 -1.38,-0.054l-0.058,0.072c0.155,0.774 0.194,2.124 0.194,3.474Zm-0.097,-6.696c-0,0.684 0.602,1.242 1.38,1.242c0.777,0 1.38,-0.558 1.38,-1.242c0,-0.684 -0.603,-1.242 -1.38,-1.242c-0.778,-0 -1.38,0.558 -1.38,1.242Z" style="fill-rule:nonzero;"/>
        <path d="M116.795,175.721l0.913,0c0.467,0 1.147,0.018 1.4,0.036c0.039,-0.27 0.117,-0.576 0.233,-0.846l-0.097,-0.144c-0.369,0.036 -0.914,0.054 -1.361,0.054l-1.088,0l-0,-0.18c-0,-0.468 -0.136,-1.332 -0.136,-1.728c-0,-0.99 0.233,-1.692 1.127,-1.692c0.661,0 0.797,0.378 0.953,0.9l0.583,-0.018c0.058,-0.504 0.272,-1.458 0.447,-1.818l-0.02,-0.054c-0.155,-0.09 -0.68,-0.252 -1.283,-0.252c-1.477,0 -2.021,0.45 -2.838,1.242c-0.855,0.828 -1.341,1.962 -1.341,3.06l0,0.54c-0.389,0 -0.816,-0.018 -1.05,-0.054c-0.097,0.306 -0.233,0.594 -0.427,0.864l0.097,0.126c0.33,-0.018 0.933,-0.036 1.38,-0.036l0,3.222c0,1.35 0,2.682 -0.136,3.6l0.02,0.054c-0,0 0.777,-0.054 1.457,-0.054c0.661,0 1.342,0.054 1.342,0.054l0.039,-0.054c-0.136,-1.044 -0.136,-2.25 -0.156,-3.6l-0.058,-3.222Z" style="fill-rule:nonzero;"/>
        <path d="M121.518,178.313l0,0.99c0,1.35 -0.038,2.268 -0.194,3.24l0.039,0.054c0.408,-0.036 0.758,-0.054 1.438,-0.054c0.661,-0 1.069,0.018 1.439,0.054l0.039,-0.054c-0.156,-1.026 -0.195,-1.872 -0.195,-3.24l0,-1.188c0,-1.35 0.078,-2.124 0.195,-3.204c-0,-0.126 -0.059,-0.18 -0.175,-0.18c-0.272,0.036 -0.797,0.09 -1.342,0.09c-0.505,-0 -1.03,-0.036 -1.38,-0.054l-0.058,0.072c0.156,0.774 0.194,2.124 0.194,3.474Zm-0.097,-6.696c0,0.684 0.603,1.242 1.38,1.242c0.778,0 1.38,-0.558 1.38,-1.242c0,-0.684 -0.602,-1.242 -1.38,-1.242c-0.777,-0 -1.38,0.558 -1.38,1.242Z" style="fill-rule:nonzero;"/>
        <path d="M131.607,175.541c0.758,0 1.322,0.522 1.75,1.512l0.544,-0.018l0.466,-1.746l-0.038,-0.054c-0.603,-0.288 -1.925,-0.594 -2.897,-0.594c-2.605,0 -4.782,1.44 -4.782,4.266c0,1.116 0.389,1.998 1.05,2.664c0.7,0.702 2.002,1.152 3.46,1.152c1.477,0 2.333,-0.288 3.207,-0.972c-0.038,-0.18 -0.097,-0.414 -0.097,-0.702l-0.311,-0.09c-0.544,0.612 -1.497,0.864 -2.274,0.864c-0.564,0 -1.341,-0.45 -1.691,-0.972c-0.35,-0.522 -0.583,-1.386 -0.583,-2.412c-0,-0.864 0.155,-1.548 0.466,-2.034c0.389,-0.558 1.05,-0.864 1.73,-0.864Z" style="fill-rule:nonzero;"/>
        <path d="M143.504,181.103c-0,-0.522 0.077,-3.348 0.077,-3.546c0,-1.08 -0.233,-1.746 -0.777,-2.196c-0.622,-0.522 -1.789,-0.72 -2.722,-0.72c-1.399,0 -3.265,0.576 -3.732,0.954l-0.058,0.072l0.389,1.35l0.641,0.018c0.661,-0.9 1.516,-1.422 2.391,-1.422c0.855,-0 1.341,0.45 1.341,1.836c0,0.126 -0.058,0.198 -0.116,0.216l-2.275,0.558c-1.866,0.414 -2.993,1.332 -2.993,2.556c-0,1.242 1.302,1.944 2.663,1.944c0.758,-0 1.788,-0.234 2.663,-1.044l0.039,-0c0.272,0.738 0.7,1.044 1.536,1.044c0.758,-0 1.73,-0.18 2.313,-0.594c-0.02,-0.162 -0.078,-0.288 -0.195,-0.378c-0.777,-0 -1.185,-0.054 -1.185,-0.648Zm-2.45,-2.556l-0.039,1.674c0,0.234 -0.155,0.684 -0.291,0.81c-0.447,0.414 -0.894,0.612 -1.439,0.612c-0.583,-0 -1.01,-0.54 -1.01,-1.026c-0,-0.648 0.252,-1.458 1.224,-1.692l1.555,-0.378Z" style="fill-rule:nonzero;"/>
        <path d="M146.789,174.821c-0.389,0 -0.817,-0.018 -1.05,-0.054c-0.097,0.306 -0.233,0.594 -0.428,0.864l0.098,0.126c0.33,-0.018 0.933,-0.036 1.38,-0.036l-0.059,2.124c-0.019,1.08 -0.058,2.574 -0.058,3.114c0,0.846 0.642,1.764 1.886,1.764c1.01,0 2.021,-0.162 2.857,-0.63c0,-0.288 -0.116,-0.558 -0.33,-0.684c-0.428,0.198 -0.622,0.216 -1.128,0.216c-0.525,-0 -0.719,-0.702 -0.719,-1.44l0,-0.126c0,-0.558 0,-1.404 0.019,-2.412l0.039,-1.926l0.739,-0c0.467,-0 1.147,0.018 1.4,0.036c0.038,-0.27 0.116,-0.576 0.233,-0.846l-0.097,-0.144c-0.37,0.036 -0.914,0.054 -1.361,0.054l-0.914,-0c0,-1.008 0.02,-1.548 0.098,-2.502c-0,-0.126 -0.059,-0.18 -0.175,-0.18c-0.486,0.18 -1.536,0.648 -2.314,0.81l-0.039,0.054c-0.058,0.486 -0.077,1.098 -0.077,1.818Z" style="fill-rule:nonzero;"/>
        <path d="M153.67,178.313l0,0.99c0,1.35 -0.039,2.268 -0.194,3.24l0.039,0.054c0.408,-0.036 0.758,-0.054 1.438,-0.054c0.661,-0 1.069,0.018 1.438,0.054l0.039,-0.054c-0.155,-1.026 -0.194,-1.872 -0.194,-3.24l-0,-1.188c-0,-1.35 0.078,-2.124 0.194,-3.204c0,-0.126 -0.058,-0.18 -0.175,-0.18c-0.272,0.036 -0.797,0.09 -1.341,0.09c-0.505,-0 -1.03,-0.036 -1.38,-0.054l-0.058,0.072c0.155,0.774 0.194,2.124 0.194,3.474Zm-0.097,-6.696c-0,0.684 0.602,1.242 1.38,1.242c0.778,0 1.38,-0.558 1.38,-1.242c0,-0.684 -0.602,-1.242 -1.38,-1.242c-0.778,-0 -1.38,0.558 -1.38,1.242Z" style="fill-rule:nonzero;"/>
        <path d="M158.782,178.853c0,2.394 1.808,3.87 4.705,3.87c2.974,0 4.704,-1.548 4.704,-4.032c-0,-2.268 -1.38,-4.05 -4.666,-4.05c-2.779,0 -4.743,1.422 -4.743,4.212Zm4.607,-3.312c1.653,0 2.041,1.134 2.041,3.636c0,2.07 -0.796,2.646 -1.671,2.646c-2.022,0 -2.216,-1.998 -2.216,-3.384c-0,-1.566 0.175,-2.898 1.846,-2.898Z" style="fill-rule:nonzero;"/>
        <path d="M178.94,179.303l0,-1.998c0,-1.89 -0.952,-2.664 -2.702,-2.664c-0.991,0 -2.157,0.558 -3.051,1.62l-0.078,-0.054c-0,-0.414 -0.02,-1.17 -0.059,-1.314c-0.019,-0.126 -0.058,-0.18 -0.174,-0.18c-0.564,0.09 -1.828,0.09 -2.508,0.054l-0.039,0.054c0.156,0.774 0.214,2.142 0.214,3.492l-0,0.99c-0,1.35 -0.039,2.268 -0.214,3.24l0.039,0.054c-0,-0 0.914,-0.054 1.594,-0.054c0.661,-0 1.205,0.054 1.205,0.054l0.058,-0.054c-0.097,-1.026 -0.116,-1.872 -0.116,-3.24l-0,-1.836c0.738,-0.9 1.555,-1.44 2.255,-1.44c0.525,0 1.011,0.36 1.011,1.674l-0,1.602c-0,1.35 -0,2.286 -0.117,3.24l0.039,0.054c-0,-0 0.622,-0.054 1.302,-0.054c0.661,-0 1.516,0.054 1.516,0.054l0.039,-0.054c-0.175,-1.026 -0.214,-1.872 -0.214,-3.24Z" style="fill-rule:nonzero;"/>
    </g>
    <g>
        <path d="M212.432,268.376l-0,20c-0,5.519 -4.481,10 -10,10l-160,0c-5.519,0 -10,-4.481 -10,-10l0,-20c0,-5.519 4.481,-10 10,-10l160,0c5.519,0 10,4.481 10,10Z" style="fill:none;stroke:black;stroke-width:1px;"/>
        <path d="M53.045,274.533l0,4.41c0,1.35 -0.077,2.628 -0.233,3.6l0.02,0.054c-0,0 0.933,-0.054 1.613,-0.054c0.661,0 1.594,0.054 1.594,0.054l0.039,-0.054c-0.156,-1.026 -0.233,-2.25 -0.233,-3.6l-0,-4.41c-0,-1.35 0.077,-2.646 0.233,-3.6l-0.02,-0.054c0,0 -0.933,0.054 -1.613,0.054c-0.661,0 -1.594,-0.054 -1.594,-0.054l-0.039,0.054c0.156,1.026 0.233,2.25 0.233,3.6Z" style="fill-rule:nonzero;"/>
        <path d="M61.851,276.261l-0.078,-0.054c0,-0.414 -0.019,-1.17 -0.058,-1.314c-0.019,-0.126 -0.058,-0.18 -0.175,-0.18c-0.564,0.09 -1.827,0.09 -2.507,0.054l-0.039,0.054c0.155,0.774 0.213,2.142 0.213,3.492l0,0.99c0,1.35 -0.077,2.268 -0.233,3.24l0.02,0.054c-0,0 0.816,-0.054 1.496,-0.054c0.661,0 1.439,0.054 1.439,0.054l0.039,-0.054c-0.156,-1.026 -0.195,-1.872 -0.195,-3.24l0,-1.818c0.817,-0.918 1.517,-1.458 2.061,-1.458c0.739,0 1.147,0.252 1.147,1.458l-0,1.818c-0,1.35 -0.078,2.268 -0.233,3.24l0.019,0.054c-0,0 0.875,-0.054 1.555,-0.054c0.661,0 1.419,0.054 1.419,0.054l0.039,-0.054c-0.156,-1.026 -0.233,-1.872 -0.233,-3.24l-0,-1.584c-0,-0.252 -0,-0.324 -0.02,-0.54c0.933,-0.954 1.361,-1.152 2.119,-1.152c0.622,0 1.069,0.396 1.069,1.602l0,1.674c0,1.35 -0.078,2.268 -0.233,3.24l0.019,0.054c0,0 0.875,-0.054 1.556,-0.054c0.66,0 1.419,0.054 1.419,0.054l0.038,-0.054c-0.155,-1.026 -0.233,-1.872 -0.233,-3.24l0,-1.8c0,-1.8 -0.68,-2.862 -2.78,-2.862c-0.972,0 -1.982,0.36 -3.09,1.44c-0.389,-0.9 -0.914,-1.44 -2.663,-1.44c-0.953,0 -2.158,0.738 -2.897,1.62Z" style="fill-rule:nonzero;"/>
        <path d="M79.191,276.099l-0.078,-0.054c-0,-0.414 -0.02,-1.008 -0.059,-1.152c-0.019,-0.126 -0.058,-0.18 -0.175,-0.18c-0.563,0.09 -1.827,0.09 -2.507,0.054l-0.039,0.054c0.156,0.774 0.214,2.142 0.214,3.492l-0,4.806c-0,1.332 -0.02,2.628 -0.195,3.6l0.02,0.054c-0,0 0.758,-0.054 1.438,-0.054c0.661,0 1.458,0.054 1.458,0.054l0.039,-0.054c-0.155,-1.026 -0.194,-2.25 -0.194,-3.6l-0,-0.9c0.641,0.378 1.36,0.504 2.08,0.504c2.449,0 4.354,-1.872 4.354,-4.41c-0,-1.35 -0.447,-2.358 -1.361,-3.096c-0.466,-0.36 -1.127,-0.576 -1.982,-0.576c-0.836,0 -2.061,0.252 -3.013,1.458Zm-0.078,1.368c0.427,-0.954 1.516,-1.566 2.177,-1.566c1.186,0 1.497,1.152 1.497,2.898c-0,1.908 -0.856,3.024 -1.944,3.024c-0.486,0 -1.011,-0.09 -1.73,-0.648l-0,-3.708Z" style="fill-rule:nonzero;"/>
        <path d="M88.035,278.943c0,1.35 -0.058,2.628 -0.233,3.6l0.019,0.054c0,0 0.817,-0.054 1.497,-0.054c0.661,0 1.477,0.054 1.477,0.054l0.039,-0.054c-0.155,-1.026 -0.233,-2.25 -0.233,-3.6l0,-5.4c0,-1.35 0.078,-2.286 0.233,-3.384c0,-0.126 -0.097,-0.18 -0.214,-0.18c-0.485,0.18 -1.982,0.54 -2.779,0.594l-0.039,0.054c0.155,0.774 0.233,2.016 0.233,3.384l0,4.932Z" style="fill-rule:nonzero;"/>
        <path d="M100.981,280.617c-0.894,0.666 -1.846,0.738 -2.663,0.738c-0.952,0 -1.652,-0.234 -2.119,-0.702c-0.427,-0.432 -0.641,-1.062 -0.641,-1.89l1.944,0c1.944,0 3.596,0.036 3.596,0.036l0.117,-0.108c-0,-2.25 -0.681,-4.05 -3.674,-4.05c-1.069,0 -2.236,0.306 -2.994,0.9c-0.952,0.72 -1.594,1.8 -1.594,3.294c0,1.062 0.428,2.178 1.225,2.952c0.661,0.63 1.808,0.936 3.265,0.936c1.4,0 2.8,-0.414 3.849,-1.548c0,-0.234 -0.116,-0.558 -0.311,-0.558Zm-5.345,-2.664c0.077,-0.882 0.311,-1.512 0.602,-1.872c0.234,-0.306 0.622,-0.54 1.167,-0.54c0.797,0 1.263,0.828 1.263,2.412l-3.032,0Z" style="fill-rule:nonzero;"/>
        <path d="M106.346,276.261l-0.077,-0.054c-0,-0.414 -0.02,-1.17 -0.059,-1.314c-0.019,-0.126 -0.058,-0.18 -0.175,-0.18c-0.563,0.09 -1.827,0.09 -2.507,0.054l-0.039,0.054c0.155,0.774 0.214,2.142 0.214,3.492l-0,0.99c-0,1.35 -0.078,2.268 -0.233,3.24l0.019,0.054c-0,0 0.816,-0.054 1.497,-0.054c0.661,0 1.438,0.054 1.438,0.054l0.039,-0.054c-0.155,-1.026 -0.194,-1.872 -0.194,-3.24l-0,-1.818c0.816,-0.918 1.516,-1.458 2.06,-1.458c0.739,0 1.147,0.252 1.147,1.458l0,1.818c0,1.35 -0.078,2.268 -0.233,3.24l0.019,0.054c0,0 0.875,-0.054 1.555,-0.054c0.661,0 1.419,0.054 1.419,0.054l0.039,-0.054c-0.155,-1.026 -0.233,-1.872 -0.233,-3.24l-0,-1.584c-0,-0.252 -0,-0.324 -0.019,-0.54c0.933,-0.954 1.36,-1.152 2.118,-1.152c0.622,0 1.07,0.396 1.07,1.602l-0,1.674c-0,1.35 -0.078,2.268 -0.234,3.24l0.02,0.054c-0,0 0.874,-0.054 1.555,-0.054c0.661,0 1.419,0.054 1.419,0.054l0.039,-0.054c-0.156,-1.026 -0.234,-1.872 -0.234,-3.24l0,-1.8c0,-1.8 -0.68,-2.862 -2.779,-2.862c-0.972,0 -1.983,0.36 -3.091,1.44c-0.389,-0.9 -0.914,-1.44 -2.663,-1.44c-0.953,0 -2.158,0.738 -2.897,1.62Z" style="fill-rule:nonzero;"/>
        <path d="M128.196,280.617c-0.895,0.666 -1.847,0.738 -2.664,0.738c-0.952,0 -1.652,-0.234 -2.118,-0.702c-0.428,-0.432 -0.642,-1.062 -0.642,-1.89l1.944,0c1.944,0 3.596,0.036 3.596,0.036l0.117,-0.108c-0,-2.25 -0.681,-4.05 -3.674,-4.05c-1.069,0 -2.236,0.306 -2.994,0.9c-0.952,0.72 -1.594,1.8 -1.594,3.294c0,1.062 0.428,2.178 1.225,2.952c0.661,0.63 1.808,0.936 3.266,0.936c1.399,0 2.799,-0.414 3.849,-1.548c-0,-0.234 -0.117,-0.558 -0.311,-0.558Zm-5.346,-2.664c0.078,-0.882 0.311,-1.512 0.603,-1.872c0.233,-0.306 0.622,-0.54 1.166,-0.54c0.797,0 1.263,0.828 1.263,2.412l-3.032,0Z" style="fill-rule:nonzero;"/>
        <path d="M139.315,279.303l-0,-1.998c-0,-1.89 -0.953,-2.664 -2.702,-2.664c-0.992,0 -2.158,0.558 -3.052,1.62l-0.078,-0.054c-0,-0.414 -0.02,-1.17 -0.058,-1.314c-0.02,-0.126 -0.059,-0.18 -0.175,-0.18c-0.564,0.09 -1.828,0.09 -2.508,0.054l-0.039,0.054c0.156,0.774 0.214,2.142 0.214,3.492l0,0.99c0,1.35 -0.039,2.268 -0.214,3.24l0.039,0.054c0,0 0.914,-0.054 1.594,-0.054c0.661,0 1.205,0.054 1.205,0.054l0.059,-0.054c-0.098,-1.026 -0.117,-1.872 -0.117,-3.24l-0,-1.836c0.739,-0.9 1.555,-1.44 2.255,-1.44c0.525,0 1.011,0.36 1.011,1.674l-0,1.602c-0,1.35 -0,2.286 -0.117,3.24l0.039,0.054c-0,0 0.622,-0.054 1.302,-0.054c0.661,0 1.516,0.054 1.516,0.054l0.039,-0.054c-0.175,-1.026 -0.213,-1.872 -0.213,-3.24Z" style="fill-rule:nonzero;"/>
        <path d="M142.775,274.821c-0.389,0 -0.817,-0.018 -1.05,-0.054c-0.097,0.306 -0.233,0.594 -0.428,0.864l0.097,0.126c0.331,-0.018 0.934,-0.036 1.381,-0.036l-0.059,2.124c-0.019,1.08 -0.058,2.574 -0.058,3.114c0,0.846 0.641,1.764 1.886,1.764c1.01,0 2.021,-0.162 2.857,-0.63c0,-0.288 -0.117,-0.558 -0.33,-0.684c-0.428,0.198 -0.622,0.216 -1.128,0.216c-0.525,0 -0.719,-0.702 -0.719,-1.44l-0,-0.126c-0,-0.558 -0,-1.404 0.019,-2.412l0.039,-1.926l0.739,0c0.466,0 1.147,0.018 1.4,0.036c0.038,-0.27 0.116,-0.576 0.233,-0.846l-0.097,-0.144c-0.37,0.036 -0.914,0.054 -1.361,0.054l-0.914,0c0,-1.008 0.02,-1.548 0.097,-2.502c0,-0.126 -0.058,-0.18 -0.175,-0.18c-0.485,0.18 -1.535,0.648 -2.313,0.81l-0.039,0.054c-0.058,0.486 -0.077,1.098 -0.077,1.818Z" style="fill-rule:nonzero;"/>
        <path d="M156.401,281.103c0,-0.522 0.078,-3.348 0.078,-3.546c-0,-1.08 -0.233,-1.746 -0.778,-2.196c-0.622,-0.522 -1.788,-0.72 -2.721,-0.72c-1.4,0 -3.266,0.576 -3.732,0.954l-0.059,0.072l0.389,1.35l0.642,0.018c0.661,-0.9 1.516,-1.422 2.391,-1.422c0.855,0 1.341,0.45 1.341,1.836c-0,0.126 -0.058,0.198 -0.117,0.216l-2.274,0.558c-1.866,0.414 -2.994,1.332 -2.994,2.556c0,1.242 1.303,1.944 2.663,1.944c0.759,0 1.789,-0.234 2.664,-1.044l0.038,0c0.273,0.738 0.7,1.044 1.536,1.044c0.758,0 1.73,-0.18 2.313,-0.594c-0.019,-0.162 -0.077,-0.288 -0.194,-0.378c-0.778,0 -1.186,-0.054 -1.186,-0.648Zm-2.449,-2.556l-0.039,1.674c0,0.234 -0.155,0.684 -0.292,0.81c-0.447,0.414 -0.894,0.612 -1.438,0.612c-0.583,0 -1.011,-0.54 -1.011,-1.026c0,-0.648 0.253,-1.458 1.225,-1.692l1.555,-0.378Z" style="fill-rule:nonzero;"/>
        <path d="M159.686,274.821c-0.388,0 -0.816,-0.018 -1.049,-0.054c-0.098,0.306 -0.234,0.594 -0.428,0.864l0.097,0.126c0.331,-0.018 0.933,-0.036 1.38,-0.036l-0.058,2.124c-0.019,1.08 -0.058,2.574 -0.058,3.114c-0,0.846 0.641,1.764 1.885,1.764c1.011,0 2.022,-0.162 2.858,-0.63c-0,-0.288 -0.117,-0.558 -0.331,-0.684c-0.427,0.198 -0.622,0.216 -1.127,0.216c-0.525,0 -0.719,-0.702 -0.719,-1.44l-0,-0.126c-0,-0.558 -0,-1.404 0.019,-2.412l0.039,-1.926l0.739,0c0.466,0 1.147,0.018 1.399,0.036c0.039,-0.27 0.117,-0.576 0.233,-0.846l-0.097,-0.144c-0.369,0.036 -0.913,0.054 -1.36,0.054l-0.914,0c-0,-1.008 0.019,-1.548 0.097,-2.502c0,-0.126 -0.058,-0.18 -0.175,-0.18c-0.486,0.18 -1.535,0.648 -2.313,0.81l-0.039,0.054c-0.058,0.486 -0.078,1.098 -0.078,1.818Z" style="fill-rule:nonzero;"/>
        <path d="M166.568,278.313l-0,0.99c-0,1.35 -0.039,2.268 -0.195,3.24l0.039,0.054c0.408,-0.036 0.758,-0.054 1.439,-0.054c0.661,0 1.069,0.018 1.438,0.054l0.039,-0.054c-0.156,-1.026 -0.194,-1.872 -0.194,-3.24l-0,-1.188c-0,-1.35 0.077,-2.124 0.194,-3.204c-0,-0.126 -0.058,-0.18 -0.175,-0.18c-0.272,0.036 -0.797,0.09 -1.341,0.09c-0.506,0 -1.031,-0.036 -1.38,-0.054l-0.059,0.072c0.156,0.774 0.195,2.124 0.195,3.474Zm-0.098,-6.696c0,0.684 0.603,1.242 1.381,1.242c0.777,0 1.38,-0.558 1.38,-1.242c-0,-0.684 -0.603,-1.242 -1.38,-1.242c-0.778,0 -1.381,0.558 -1.381,1.242Z" style="fill-rule:nonzero;"/>
        <path d="M171.68,278.853c0,2.394 1.808,3.87 4.704,3.87c2.974,0 4.704,-1.548 4.704,-4.032c0,-2.268 -1.38,-4.05 -4.665,-4.05c-2.78,0 -4.743,1.422 -4.743,4.212Zm4.607,-3.312c1.652,0 2.041,1.134 2.041,3.636c0,2.07 -0.797,2.646 -1.672,2.646c-2.021,0 -2.216,-1.998 -2.216,-3.384c0,-1.566 0.175,-2.898 1.847,-2.898Z" style="fill-rule:nonzero;"/>
        <path d="M191.838,279.303l0,-1.998c0,-1.89 -0.952,-2.664 -2.702,-2.664c-0.991,0 -2.158,0.558 -3.052,1.62l-0.078,-0.054c0,-0.414 -0.019,-1.17 -0.058,-1.314c-0.019,-0.126 -0.058,-0.18 -0.175,-0.18c-0.564,0.09 -1.827,0.09 -2.507,0.054l-0.039,0.054c0.155,0.774 0.213,2.142 0.213,3.492l0,0.99c0,1.35 -0.038,2.268 -0.213,3.24l0.039,0.054c-0,0 0.913,-0.054 1.594,-0.054c0.66,0 1.205,0.054 1.205,0.054l0.058,-0.054c-0.097,-1.026 -0.117,-1.872 -0.117,-3.24l0,-1.836c0.739,-0.9 1.556,-1.44 2.255,-1.44c0.525,0 1.011,0.36 1.011,1.674l0,1.602c0,1.35 0,2.286 -0.117,3.24l0.039,0.054c0,0 0.622,-0.054 1.303,-0.054c0.661,0 1.516,0.054 1.516,0.054l0.039,-0.054c-0.175,-1.026 -0.214,-1.872 -0.214,-3.24Z" style="fill-rule:nonzero;"/>
    </g>
    <path d="M76.694,2.688l-0,3.528c-0,0.9 -0.036,1.512 -0.144,2.16l0.012,0.036c-0,0 0.54,-0.036 0.96,-0.036c0.408,0 0.804,0.036 0.804,0.036l0.024,-0.036c-0.06,-0.684 -0.072,-1.248 -0.072,-2.16l-0,-1.224c0.456,-0.6 0.96,-0.96 1.392,-0.96c0.324,0 0.624,0.24 0.624,1.116l0,1.068c0,0.9 0,1.524 -0.072,2.16l0.012,0.036c0,0 0.588,-0.036 1.008,-0.036c0.408,0 0.732,0.036 0.732,0.036l0.024,-0.036c-0.108,-0.684 -0.12,-1.248 -0.12,-2.16l0,-1.332c0,-1.08 -0.468,-1.776 -1.548,-1.776c-0.612,0 -1.5,0.372 -2.052,1.08l-0.048,-0.024l0.048,-1.044l0,-0.744c0,-0.9 0.024,-1.524 0.12,-2.256c0,-0.084 -0.036,-0.12 -0.108,-0.12c-0.3,0.12 -1.224,0.36 -1.716,0.396l-0.024,0.036c0.096,0.516 0.144,1.344 0.144,2.256Z" style="fill-rule:nonzero;"/>
    <path d="M87.398,7.608l0.024,0l0.06,0.768c-0,0.024 0.036,0.036 0.108,0.036c0.156,-0.024 0.516,-0.036 0.696,-0.036c0.144,0 0.72,0.012 0.876,0.036l0.024,-0.036c-0.096,-0.516 -0.204,-1.404 -0.204,-2.304l-0,-0.684c-0,-0.9 -0,-1.524 0.108,-2.16l-0.012,-0.036c-0,0 -0.504,0.036 -0.924,0.036c-0.408,0 -0.816,-0.036 -0.816,-0.036l-0.024,0.036c0.084,0.672 0.084,1.248 0.084,2.16l-0,0.96c-0,0.696 -0.804,1.224 -1.344,1.224c-0.36,0 -0.708,-0.12 -0.684,-1.104l0.024,-1.08c0.024,-0.9 0.036,-1.548 0.096,-2.16l-0.012,-0.036c-0,0 -0.48,0.036 -0.9,0.036c-0.408,0 -0.84,-0.036 -0.84,-0.036l-0.024,0.036c0.072,0.684 0.108,1.296 0.096,2.16l-0.024,1.476c-0.012,0.828 0.408,1.632 1.596,1.632c0.492,0 1.344,-0.168 2.016,-0.888Z" style="fill-rule:nonzero;"/>
    <path d="M92.618,4.188l-0.048,-0.036c-0,-0.276 -0.012,-0.78 -0.036,-0.876c-0.012,-0.084 -0.036,-0.12 -0.108,-0.12c-0.348,0.06 -1.128,0.06 -1.548,0.036l-0.024,0.036c0.096,0.516 0.132,1.428 0.132,2.328l-0,0.66c-0,0.9 -0.048,1.512 -0.144,2.16l0.012,0.036c-0,0 0.504,-0.036 0.924,-0.036c0.408,0 0.888,0.036 0.888,0.036l0.024,-0.036c-0.096,-0.684 -0.12,-1.248 -0.12,-2.16l-0,-1.212c0.504,-0.612 0.936,-0.972 1.272,-0.972c0.456,0 0.708,0.168 0.708,0.972l-0,1.212c-0,0.9 -0.048,1.512 -0.144,2.16l0.012,0.036c-0,0 0.54,-0.036 0.96,-0.036c0.408,0 0.876,0.036 0.876,0.036l0.024,-0.036c-0.096,-0.684 -0.144,-1.248 -0.144,-2.16l-0,-1.056c-0,-0.168 -0,-0.216 -0.012,-0.36c0.576,-0.636 0.84,-0.768 1.308,-0.768c0.384,0 0.66,0.264 0.66,1.068l-0,1.116c-0,0.9 -0.048,1.512 -0.144,2.16l0.012,0.036c-0,0 0.54,-0.036 0.96,-0.036c0.408,0 0.876,0.036 0.876,0.036l0.024,-0.036c-0.096,-0.684 -0.144,-1.248 -0.144,-2.16l-0,-1.2c-0,-1.2 -0.42,-1.908 -1.716,-1.908c-0.6,0 -1.224,0.24 -1.908,0.96c-0.24,-0.6 -0.564,-0.96 -1.644,-0.96c-0.588,0 -1.332,0.492 -1.788,1.08Z" style="fill-rule:nonzero;"/>
    <path d="M105.974,7.416c-0,-0.348 0.048,-2.232 0.048,-2.364c-0,-0.72 -0.144,-1.164 -0.48,-1.464c-0.384,-0.348 -1.104,-0.48 -1.68,-0.48c-0.864,0 -2.016,0.384 -2.304,0.636l-0.036,0.048l0.24,0.9l0.396,0.012c0.408,-0.6 0.936,-0.948 1.476,-0.948c0.528,0 0.828,0.3 0.828,1.224c-0,0.084 -0.036,0.132 -0.072,0.144l-1.404,0.372c-1.152,0.276 -1.848,0.888 -1.848,1.704c-0,0.828 0.804,1.296 1.644,1.296c0.468,0 1.104,-0.156 1.644,-0.696l0.024,0c0.168,0.492 0.432,0.696 0.948,0.696c0.468,0 1.068,-0.12 1.428,-0.396c-0.012,-0.108 -0.048,-0.192 -0.12,-0.252c-0.48,0 -0.732,-0.036 -0.732,-0.432Zm-1.512,-1.704l-0.024,1.116c-0,0.156 -0.096,0.456 -0.18,0.54c-0.276,0.276 -0.552,0.408 -0.888,0.408c-0.36,0 -0.624,-0.36 -0.624,-0.684c-0,-0.432 0.156,-0.972 0.756,-1.128l0.96,-0.252Z" style="fill-rule:nonzero;"/>
    <path d="M113.066,6.216l-0,-1.332c-0,-1.26 -0.588,-1.776 -1.668,-1.776c-0.612,0 -1.332,0.372 -1.884,1.08l-0.048,-0.036c-0,-0.276 -0.012,-0.78 -0.036,-0.876c-0.012,-0.084 -0.036,-0.12 -0.108,-0.12c-0.348,0.06 -1.128,0.06 -1.548,0.036l-0.024,0.036c0.096,0.516 0.132,1.428 0.132,2.328l-0,0.66c-0,0.9 -0.024,1.512 -0.132,2.16l0.024,0.036c-0,0 0.564,-0.036 0.984,-0.036c0.408,0 0.744,0.036 0.744,0.036l0.036,-0.036c-0.06,-0.684 -0.072,-1.248 -0.072,-2.16l-0,-1.224c0.456,-0.6 0.96,-0.96 1.392,-0.96c0.324,0 0.624,0.24 0.624,1.116l0,1.068c0,0.9 0,1.524 -0.072,2.16l0.024,0.036c0,0 0.384,-0.036 0.804,-0.036c0.408,0 0.936,0.036 0.936,0.036l0.024,-0.036c-0.108,-0.684 -0.132,-1.248 -0.132,-2.16Z" style="fill-rule:nonzero;"/>
    <path d="M122.498,7.092c-0.552,0.444 -1.14,0.492 -1.644,0.492c-0.588,0 -1.02,-0.156 -1.308,-0.468c-0.264,-0.288 -0.396,-0.708 -0.396,-1.26l1.2,0c1.2,0 2.22,0.024 2.22,0.024l0.072,-0.072c-0,-1.5 -0.42,-2.7 -2.268,-2.7c-0.66,0 -1.38,0.204 -1.848,0.6c-0.588,0.48 -0.984,1.2 -0.984,2.196c-0,0.708 0.264,1.452 0.756,1.968c0.408,0.42 1.116,0.624 2.016,0.624c0.864,0 1.728,-0.276 2.376,-1.032c-0,-0.156 -0.072,-0.372 -0.192,-0.372Zm-3.3,-1.776c0.048,-0.588 0.192,-1.008 0.372,-1.248c0.144,-0.204 0.384,-0.36 0.72,-0.36c0.492,0 0.78,0.552 0.78,1.608l-1.872,0Z" style="fill-rule:nonzero;"/>
    <path d="M125.426,5.892l-0.048,0.048l-1.956,2.472c0.12,-0.036 0.54,-0.036 0.66,-0.036c0.12,0 0.528,0 0.648,0.036c0.42,-0.636 0.864,-1.236 1.308,-1.86c0.432,0.624 0.876,1.224 1.272,1.86c0.18,-0.036 0.96,-0.036 1.152,-0.036c0.18,0 0.66,0 0.84,0.036c-0.708,-0.912 -1.38,-1.8 -2.016,-2.712l-0.168,-0.228l1.968,-2.28c-0.132,0.036 -0.42,0.036 -0.54,0.036c-0.132,0 -0.66,0 -0.792,-0.036c-0.384,0.564 -0.804,1.104 -1.224,1.656c-0.396,-0.552 -0.78,-1.092 -1.116,-1.656c-0.204,0.036 -0.672,0.036 -0.876,0.036c-0.192,0 -0.972,0 -1.164,-0.036l1.992,2.628l0.06,0.072Z" style="fill-rule:nonzero;"/>
    <path d="M132.134,4.08l-0.048,-0.036c-0,-0.276 -0.012,-0.672 -0.036,-0.768c-0.012,-0.084 -0.036,-0.12 -0.108,-0.12c-0.348,0.06 -1.128,0.06 -1.548,0.036l-0.024,0.036c0.096,0.516 0.132,1.428 0.132,2.328l-0,3.204c-0,0.888 -0.012,1.752 -0.12,2.4l0.012,0.036c-0,0 0.468,-0.036 0.888,-0.036c0.408,0 0.9,0.036 0.9,0.036l0.024,-0.036c-0.096,-0.684 -0.12,-1.5 -0.12,-2.4l-0,-0.6c0.396,0.252 0.84,0.336 1.284,0.336c1.512,0 2.688,-1.248 2.688,-2.94c-0,-0.9 -0.276,-1.572 -0.84,-2.064c-0.288,-0.24 -0.696,-0.384 -1.224,-0.384c-0.516,0 -1.272,0.168 -1.86,0.972Zm-0.048,0.912c0.264,-0.636 0.936,-1.044 1.344,-1.044c0.732,0 0.924,0.768 0.924,1.932c0,1.272 -0.528,2.016 -1.2,2.016c-0.3,0 -0.624,-0.06 -1.068,-0.432l0,-2.472Z" style="fill-rule:nonzero;"/>
    <path d="M139.262,4.188l-0.048,-0.036c-0,-0.276 -0.012,-0.78 -0.036,-0.876c-0.012,-0.084 -0.036,-0.12 -0.108,-0.12c-0.348,0.06 -1.128,0.06 -1.548,0.036l-0.024,0.036c0.096,0.516 0.132,1.428 0.132,2.328l-0,0.66c-0,0.9 -0.024,1.512 -0.12,2.16l0.012,0.036c-0,0 0.384,-0.036 0.804,-0.036c0.408,0 0.984,0.036 0.984,0.036l0.024,-0.036c-0.096,-0.684 -0.12,-1.248 -0.12,-2.16l-0,-0.876c-0,-0.924 0.828,-1.068 1.008,-1.068c0.228,0 0.48,0.06 0.696,0.228l0.216,-0.024l0.24,-1.236l-0.048,-0.048c-0.204,-0.06 -0.396,-0.084 -0.612,-0.084c-0.564,0 -1.14,0.612 -1.452,1.08Z" style="fill-rule:nonzero;"/>
    <path d="M146.894,7.092c-0.552,0.444 -1.14,0.492 -1.644,0.492c-0.588,0 -1.02,-0.156 -1.308,-0.468c-0.264,-0.288 -0.396,-0.708 -0.396,-1.26l1.2,0c1.2,0 2.22,0.024 2.22,0.024l0.072,-0.072c-0,-1.5 -0.42,-2.7 -2.268,-2.7c-0.66,0 -1.38,0.204 -1.848,0.6c-0.588,0.48 -0.984,1.2 -0.984,2.196c-0,0.708 0.264,1.452 0.756,1.968c0.408,0.42 1.116,0.624 2.016,0.624c0.864,0 1.728,-0.276 2.376,-1.032c0,-0.156 -0.072,-0.372 -0.192,-0.372Zm-3.3,-1.776c0.048,-0.588 0.192,-1.008 0.372,-1.248c0.144,-0.204 0.384,-0.36 0.72,-0.36c0.492,0 0.78,0.552 0.78,1.608l-1.872,0Z" style="fill-rule:nonzero;"/>
    <path d="M148.262,7.02l-0.192,1.152c0.648,0.24 1.44,0.324 1.872,0.324c1.56,0 2.22,-0.756 2.22,-1.584c-0,-1.08 -0.852,-1.416 -1.704,-1.872c-0.396,-0.216 -0.72,-0.42 -0.72,-0.804c-0,-0.336 0.12,-0.588 0.588,-0.588c0.588,0 0.936,0.564 1.092,0.9l0.324,-0.012l0.228,-1.08l-0.024,-0.036c-0.324,-0.18 -1.02,-0.312 -1.596,-0.312c-1.08,0 -2.028,0.528 -2.028,1.452c-0,0.84 0.588,1.272 1.272,1.644c0.876,0.48 1.14,0.696 1.14,1.176c-0,0.564 -0.372,0.588 -0.828,0.588c-0.42,0 -0.924,-0.264 -1.284,-0.96l-0.36,0.012Z" style="fill-rule:nonzero;"/>
    <path d="M153.29,7.02l-0.192,1.152c0.648,0.24 1.44,0.324 1.872,0.324c1.56,0 2.22,-0.756 2.22,-1.584c0,-1.08 -0.852,-1.416 -1.704,-1.872c-0.396,-0.216 -0.72,-0.42 -0.72,-0.804c0,-0.336 0.12,-0.588 0.588,-0.588c0.588,0 0.936,0.564 1.092,0.9l0.324,-0.012l0.228,-1.08l-0.024,-0.036c-0.324,-0.18 -1.02,-0.312 -1.596,-0.312c-1.08,0 -2.028,0.528 -2.028,1.452c-0,0.84 0.588,1.272 1.272,1.644c0.876,0.48 1.14,0.696 1.14,1.176c0,0.564 -0.372,0.588 -0.828,0.588c-0.42,0 -0.924,-0.264 -1.284,-0.96l-0.36,0.012Z" style="fill-rule:nonzero;"/>
    <path d="M163.046,7.092c-0.552,0.444 -1.14,0.492 -1.644,0.492c-0.588,0 -1.02,-0.156 -1.308,-0.468c-0.264,-0.288 -0.396,-0.708 -0.396,-1.26l1.2,0c1.2,0 2.22,0.024 2.22,0.024l0.072,-0.072c0,-1.5 -0.42,-2.7 -2.268,-2.7c-0.66,0 -1.38,0.204 -1.848,0.6c-0.588,0.48 -0.984,1.2 -0.984,2.196c0,0.708 0.264,1.452 0.756,1.968c0.408,0.42 1.116,0.624 2.016,0.624c0.864,0 1.728,-0.276 2.376,-1.032c0,-0.156 -0.072,-0.372 -0.192,-0.372Zm-3.3,-1.776c0.048,-0.588 0.192,-1.008 0.372,-1.248c0.144,-0.204 0.384,-0.36 0.72,-0.36c0.492,0 0.78,0.552 0.78,1.608l-1.872,0Z" style="fill-rule:nonzero;"/>
    <path d="M164.414,7.02l-0.192,1.152c0.648,0.24 1.44,0.324 1.872,0.324c1.56,0 2.22,-0.756 2.22,-1.584c0,-1.08 -0.852,-1.416 -1.704,-1.872c-0.396,-0.216 -0.72,-0.42 -0.72,-0.804c0,-0.336 0.12,-0.588 0.588,-0.588c0.588,0 0.936,0.564 1.092,0.9l0.324,-0.012l0.228,-1.08l-0.024,-0.036c-0.324,-0.18 -1.02,-0.312 -1.596,-0.312c-1.08,0 -2.028,0.528 -2.028,1.452c-0,0.84 0.588,1.272 1.272,1.644c0.876,0.48 1.14,0.696 1.14,1.176c0,0.564 -0.372,0.588 -0.828,0.588c-0.42,0 -0.924,-0.264 -1.284,-0.96l-0.36,0.012Z" style="fill-rule:nonzero;"/>
    <g transform="matrix(1,0,0,1,-338.561,-8.6598)">
        <g transform="matrix(12,0,0,12,355.763,134.758)">
            <path d="M0.086,-0.474l0,0.294c0,0.075 -0.003,0.126 -0.012,0.18l0.001,0.003c-0,0 0.045,-0.003 0.08,-0.003c0.034,0 0.067,0.003 0.067,0.003l0.002,-0.003c-0.005,-0.057 -0.006,-0.104 -0.006,-0.18l-0,-0.102c0.038,-0.05 0.08,-0.08 0.116,-0.08c0.027,0 0.052,0.02 0.052,0.093l0,0.089c0,0.075 0,0.127 -0.006,0.18l0.001,0.003c0,0 0.049,-0.003 0.084,-0.003c0.034,0 0.061,0.003 0.061,0.003l0.002,-0.003c-0.009,-0.057 -0.01,-0.104 -0.01,-0.18l0,-0.111c0,-0.09 -0.039,-0.148 -0.129,-0.148c-0.051,0 -0.125,0.031 -0.171,0.09l-0.004,-0.002l0.004,-0.087l0,-0.062c0,-0.075 0.002,-0.127 0.01,-0.188c0,-0.007 -0.003,-0.01 -0.009,-0.01c-0.025,0.01 -0.102,0.03 -0.143,0.033l-0.002,0.003c0.008,0.043 0.012,0.112 0.012,0.188Z" style="fill-rule:nonzero;"/>
        </g>
        <g transform="matrix(12,0,0,12,363.035,134.758)">
            <path d="M0.372,-0.064l0.002,0l0.005,0.064c0,0.002 0.003,0.003 0.009,0.003c0.013,-0.002 0.043,-0.003 0.058,-0.003c0.012,-0 0.06,0.001 0.073,0.003l0.002,-0.003c-0.008,-0.043 -0.017,-0.117 -0.017,-0.192l0,-0.057c0,-0.075 0,-0.127 0.009,-0.18l-0.001,-0.003c0,0 -0.042,0.003 -0.077,0.003c-0.034,0 -0.068,-0.003 -0.068,-0.003l-0.002,0.003c0.007,0.056 0.007,0.104 0.007,0.18l0,0.08c0,0.058 -0.067,0.102 -0.112,0.102c-0.03,-0 -0.059,-0.01 -0.057,-0.092l0.002,-0.09c0.002,-0.075 0.003,-0.129 0.008,-0.18l-0.001,-0.003c-0,-0 -0.04,0.003 -0.075,0.003c-0.034,-0 -0.07,-0.003 -0.07,-0.003l-0.002,0.003c0.006,0.057 0.009,0.108 0.008,0.18l-0.002,0.123c-0.001,0.069 0.034,0.136 0.133,0.136c0.041,-0 0.112,-0.014 0.168,-0.074Z" style="fill-rule:nonzero;"/>
        </g>
        <g transform="matrix(12,0,0,12,370.127,134.758)">
            <path d="M0.216,-0.349l-0.004,-0.003c0,-0.023 -0.001,-0.065 -0.003,-0.073c-0.001,-0.007 -0.003,-0.01 -0.009,-0.01c-0.029,0.005 -0.094,0.005 -0.129,0.003l-0.002,0.003c0.008,0.043 0.011,0.119 0.011,0.194l0,0.055c0,0.075 -0.004,0.126 -0.012,0.18l0.001,0.003c0,0 0.042,-0.003 0.077,-0.003c0.034,0 0.074,0.003 0.074,0.003l0.002,-0.003c-0.008,-0.057 -0.01,-0.104 -0.01,-0.18l0,-0.101c0.042,-0.051 0.078,-0.081 0.106,-0.081c0.038,0 0.059,0.014 0.059,0.081l0,0.101c0,0.075 -0.004,0.126 -0.012,0.18l0.001,0.003c0,0 0.045,-0.003 0.08,-0.003c0.034,0 0.073,0.003 0.073,0.003l0.002,-0.003c-0.008,-0.057 -0.012,-0.104 -0.012,-0.18l0,-0.088c0,-0.014 0,-0.018 -0.001,-0.03c0.048,-0.053 0.07,-0.064 0.109,-0.064c0.032,0 0.055,0.022 0.055,0.089l0,0.093c0,0.075 -0.004,0.126 -0.012,0.18l0.001,0.003c0,0 0.045,-0.003 0.08,-0.003c0.034,0 0.073,0.003 0.073,0.003l0.002,-0.003c-0.008,-0.057 -0.012,-0.104 -0.012,-0.18l0,-0.1c0,-0.1 -0.035,-0.159 -0.143,-0.159c-0.05,0 -0.102,0.02 -0.159,0.08c-0.02,-0.05 -0.047,-0.08 -0.137,-0.08c-0.049,0 -0.111,0.041 -0.149,0.09Z" style="fill-rule:nonzero;"/>
        </g>
        <g transform="matrix(12,0,0,12,380.831,134.758)">
            <path d="M0.437,-0.08c0,-0.029 0.004,-0.186 0.004,-0.197c0,-0.06 -0.012,-0.097 -0.04,-0.122c-0.032,-0.029 -0.092,-0.04 -0.14,-0.04c-0.072,0 -0.168,0.032 -0.192,0.053l-0.003,0.004l0.02,0.075l0.033,0.001c0.034,-0.05 0.078,-0.079 0.123,-0.079c0.044,0 0.069,0.025 0.069,0.102c0,0.007 -0.003,0.011 -0.006,0.012l-0.117,0.031c-0.096,0.023 -0.154,0.074 -0.154,0.142c0,0.069 0.067,0.108 0.137,0.108c0.039,0 0.092,-0.013 0.137,-0.058l0.002,0c0.014,0.041 0.036,0.058 0.079,0.058c0.039,0 0.089,-0.01 0.119,-0.033c-0.001,-0.009 -0.004,-0.016 -0.01,-0.021c-0.04,0 -0.061,-0.003 -0.061,-0.036Zm-0.126,-0.142l-0.002,0.093c-0,0.013 -0.008,0.038 -0.015,0.045c-0.023,0.023 -0.046,0.034 -0.074,0.034c-0.03,0 -0.052,-0.03 -0.052,-0.057c-0,-0.036 0.013,-0.081 0.063,-0.094l0.08,-0.021Z" style="fill-rule:nonzero;"/>
        </g>
        <g transform="matrix(12,0,0,12,387.023,134.758)">
            <path d="M0.512,-0.18l0,-0.111c0,-0.105 -0.049,-0.148 -0.139,-0.148c-0.051,-0 -0.111,0.031 -0.157,0.09l-0.004,-0.003c0,-0.023 -0.001,-0.065 -0.003,-0.073c-0.001,-0.007 -0.003,-0.01 -0.009,-0.01c-0.029,0.005 -0.094,0.005 -0.129,0.003l-0.002,0.003c0.008,0.043 0.011,0.119 0.011,0.194l0,0.055c0,0.075 -0.002,0.126 -0.011,0.18l0.002,0.003c0,0 0.047,-0.003 0.082,-0.003c0.034,-0 0.062,0.003 0.062,0.003l0.003,-0.003c-0.005,-0.057 -0.006,-0.104 -0.006,-0.18l0,-0.102c0.038,-0.05 0.08,-0.08 0.116,-0.08c0.027,0 0.052,0.02 0.052,0.093l0,0.089c0,0.075 0,0.127 -0.006,0.18l0.002,0.003c0,0 0.032,-0.003 0.067,-0.003c0.034,0 0.078,0.003 0.078,0.003l0.002,-0.003c-0.009,-0.057 -0.011,-0.104 -0.011,-0.18Z" style="fill-rule:nonzero;"/>
        </g>
        <g transform="matrix(12,0,0,12,338.057,146.758)">
            <path d="M0.297,-0.389c0.039,0 0.068,0.029 0.09,0.084l0.028,-0.001l0.024,-0.097l-0.002,-0.003c-0.031,-0.016 -0.099,-0.033 -0.149,-0.033c-0.134,0 -0.246,0.08 -0.246,0.237c-0,0.062 0.02,0.111 0.054,0.148c0.036,0.039 0.103,0.064 0.178,0.064c0.076,0 0.12,-0.016 0.165,-0.054c-0.002,-0.01 -0.005,-0.023 -0.005,-0.039l-0.016,-0.005c-0.028,0.034 -0.077,0.048 -0.117,0.048c-0.029,0 -0.069,-0.025 -0.087,-0.054c-0.018,-0.029 -0.03,-0.077 -0.03,-0.134c-0,-0.048 0.008,-0.086 0.024,-0.113c0.02,-0.031 0.054,-0.048 0.089,-0.048Z" style="fill-rule:nonzero;"/>
        </g>
        <g transform="matrix(12,0,0,12,343.721,146.758)">
            <path d="M0.086,-0.474l0,0.294c0,0.075 -0.003,0.126 -0.012,0.18l0.001,0.003c-0,0 0.045,-0.003 0.08,-0.003c0.034,0 0.067,0.003 0.067,0.003l0.002,-0.003c-0.005,-0.057 -0.006,-0.104 -0.006,-0.18l-0,-0.102c0.038,-0.05 0.08,-0.08 0.116,-0.08c0.027,0 0.052,0.02 0.052,0.093l0,0.089c0,0.075 0,0.127 -0.006,0.18l0.001,0.003c0,0 0.049,-0.003 0.084,-0.003c0.034,0 0.061,0.003 0.061,0.003l0.002,-0.003c-0.009,-0.057 -0.01,-0.104 -0.01,-0.18l0,-0.111c0,-0.09 -0.039,-0.148 -0.129,-0.148c-0.051,0 -0.125,0.031 -0.171,0.09l-0.004,-0.002l0.004,-0.087l0,-0.062c0,-0.075 0.002,-0.127 0.01,-0.188c0,-0.007 -0.003,-0.01 -0.009,-0.01c-0.025,0.01 -0.102,0.03 -0.143,0.033l-0.002,0.003c0.008,0.043 0.012,0.112 0.012,0.188Z" style="fill-rule:nonzero;"/>
        </g>
        <g transform="matrix(12,0,0,12,350.993,146.758)">
            <path d="M0.448,-0.107c-0.046,0.037 -0.095,0.041 -0.137,0.041c-0.049,0 -0.085,-0.013 -0.109,-0.039c-0.022,-0.024 -0.033,-0.059 -0.033,-0.105l0.1,0c0.1,0 0.185,0.002 0.185,0.002l0.006,-0.006c0,-0.125 -0.035,-0.225 -0.189,-0.225c-0.055,0 -0.115,0.017 -0.154,0.05c-0.049,0.04 -0.082,0.1 -0.082,0.183c-0,0.059 0.022,0.121 0.063,0.164c0.034,0.035 0.093,0.052 0.168,0.052c0.072,0 0.144,-0.023 0.198,-0.086c0,-0.013 -0.006,-0.031 -0.016,-0.031Zm-0.275,-0.148c0.004,-0.049 0.016,-0.084 0.031,-0.104c0.012,-0.017 0.032,-0.03 0.06,-0.03c0.041,0 0.065,0.046 0.065,0.134l-0.156,0Z" style="fill-rule:nonzero;"/>
        </g>
        <g transform="matrix(12,0,0,12,357.173,146.758)">
            <path d="M0.297,-0.389c0.039,0 0.068,0.029 0.09,0.084l0.028,-0.001l0.024,-0.097l-0.002,-0.003c-0.031,-0.016 -0.099,-0.033 -0.149,-0.033c-0.134,0 -0.246,0.08 -0.246,0.237c-0,0.062 0.02,0.111 0.054,0.148c0.036,0.039 0.103,0.064 0.178,0.064c0.076,0 0.12,-0.016 0.165,-0.054c-0.002,-0.01 -0.005,-0.023 -0.005,-0.039l-0.016,-0.005c-0.028,0.034 -0.077,0.048 -0.117,0.048c-0.029,0 -0.069,-0.025 -0.087,-0.054c-0.018,-0.029 -0.03,-0.077 -0.03,-0.134c-0,-0.048 0.008,-0.086 0.024,-0.113c0.02,-0.031 0.054,-0.048 0.089,-0.048Z" style="fill-rule:nonzero;"/>
        </g>
        <g transform="matrix(12,0,0,12,362.837,146.758)">
            <path d="M0.086,-0.2c0,0.075 -0.003,0.146 -0.012,0.2l0.001,0.003c-0,0 0.042,-0.003 0.077,-0.003c0.034,-0 0.076,0.003 0.076,0.003l0.002,-0.003c-0.008,-0.057 -0.012,-0.125 -0.012,-0.2l-0,-0.015c0.009,0.001 0.02,0.003 0.026,0.009c0.062,0.069 0.092,0.113 0.145,0.209c0.015,-0.002 0.063,-0.003 0.08,-0.003c0.017,0 0.095,0.001 0.104,0.003l0.002,-0.003c-0.074,-0.079 -0.128,-0.137 -0.223,-0.252c0.037,-0.041 0.121,-0.116 0.202,-0.177l-0.002,-0.003c-0.019,0.003 -0.13,0.003 -0.157,0.003c-0.039,0.065 -0.092,0.134 -0.132,0.165c-0.01,0.008 -0.031,0.013 -0.045,0.014l-0,-0.25c-0,-0.075 0.004,-0.127 0.012,-0.188c-0,-0.007 -0.005,-0.01 -0.011,-0.01c-0.025,0.01 -0.102,0.03 -0.143,0.033l-0.002,0.003c0.008,0.043 0.012,0.112 0.012,0.188l0,0.274Z" style="fill-rule:nonzero;"/>
        </g>
        <g transform="matrix(12,0,0,12,369.821,146.758)">
            <path d="M0.054,-0.113l-0.016,0.096c0.054,0.02 0.12,0.027 0.156,0.027c0.13,0 0.185,-0.063 0.185,-0.132c0,-0.09 -0.071,-0.118 -0.142,-0.156c-0.033,-0.018 -0.06,-0.035 -0.06,-0.067c0,-0.028 0.01,-0.049 0.049,-0.049c0.049,0 0.078,0.047 0.091,0.075l0.027,-0.001l0.019,-0.09l-0.002,-0.003c-0.027,-0.015 -0.085,-0.026 -0.133,-0.026c-0.09,0 -0.169,0.044 -0.169,0.121c0,0.07 0.049,0.106 0.106,0.137c0.073,0.04 0.095,0.058 0.095,0.098c0,0.047 -0.031,0.049 -0.069,0.049c-0.035,0 -0.077,-0.022 -0.107,-0.08l-0.03,0.001Z" style="fill-rule:nonzero;"/>
        </g>
        <g transform="matrix(12,0,0,12,377.849,146.758)">
            <path d="M0.216,-0.349l-0.004,-0.003c0,-0.023 -0.001,-0.065 -0.003,-0.073c-0.001,-0.007 -0.003,-0.01 -0.009,-0.01c-0.029,0.005 -0.094,0.005 -0.129,0.003l-0.002,0.003c0.008,0.043 0.011,0.119 0.011,0.194l0,0.055c0,0.075 -0.004,0.126 -0.012,0.18l0.001,0.003c0,0 0.042,-0.003 0.077,-0.003c0.034,0 0.074,0.003 0.074,0.003l0.002,-0.003c-0.008,-0.057 -0.01,-0.104 -0.01,-0.18l0,-0.101c0.042,-0.051 0.078,-0.081 0.106,-0.081c0.038,0 0.059,0.014 0.059,0.081l0,0.101c0,0.075 -0.004,0.126 -0.012,0.18l0.001,0.003c0,0 0.045,-0.003 0.08,-0.003c0.034,0 0.073,0.003 0.073,0.003l0.002,-0.003c-0.008,-0.057 -0.012,-0.104 -0.012,-0.18l0,-0.088c0,-0.014 0,-0.018 -0.001,-0.03c0.048,-0.053 0.07,-0.064 0.109,-0.064c0.032,0 0.055,0.022 0.055,0.089l0,0.093c0,0.075 -0.004,0.126 -0.012,0.18l0.001,0.003c0,0 0.045,-0.003 0.08,-0.003c0.034,0 0.073,0.003 0.073,0.003l0.002,-0.003c-0.008,-0.057 -0.012,-0.104 -0.012,-0.18l0,-0.1c0,-0.1 -0.035,-0.159 -0.143,-0.159c-0.05,0 -0.102,0.02 -0.159,0.08c-0.02,-0.05 -0.047,-0.08 -0.137,-0.08c-0.049,0 -0.111,0.041 -0.149,0.09Z" style="fill-rule:nonzero;"/>
        </g>
        <g transform="matrix(12,0,0,12,388.553,146.758)">
            <path d="M0.437,-0.08c0,-0.029 0.004,-0.186 0.004,-0.197c0,-0.06 -0.012,-0.097 -0.04,-0.122c-0.032,-0.029 -0.092,-0.04 -0.14,-0.04c-0.072,0 -0.168,0.032 -0.192,0.053l-0.003,0.004l0.02,0.075l0.033,0.001c0.034,-0.05 0.078,-0.079 0.123,-0.079c0.044,0 0.069,0.025 0.069,0.102c0,0.007 -0.003,0.011 -0.006,0.012l-0.117,0.031c-0.096,0.023 -0.154,0.074 -0.154,0.142c0,0.069 0.067,0.108 0.137,0.108c0.039,0 0.092,-0.013 0.137,-0.058l0.002,0c0.014,0.041 0.036,0.058 0.079,0.058c0.039,0 0.089,-0.01 0.119,-0.033c-0.001,-0.009 -0.004,-0.016 -0.01,-0.021c-0.04,0 -0.061,-0.003 -0.061,-0.036Zm-0.126,-0.142l-0.002,0.093c-0,0.013 -0.008,0.038 -0.015,0.045c-0.023,0.023 -0.046,0.034 -0.074,0.034c-0.03,0 -0.052,-0.03 -0.052,-0.057c-0,-0.036 0.013,-0.081 0.063,-0.094l0.08,-0.021Z" style="fill-rule:nonzero;"/>
        </g>
        <g transform="matrix(12,0,0,12,394.745,146.758)">
            <path d="M0.09,-0.429c-0.02,0 -0.042,-0.001 -0.054,-0.003c-0.005,0.017 -0.012,0.033 -0.022,0.048l0.005,0.007c0.017,-0.001 0.048,-0.002 0.071,-0.002l-0.003,0.118c-0.001,0.06 -0.003,0.143 -0.003,0.173c0,0.047 0.033,0.098 0.097,0.098c0.052,-0 0.104,-0.009 0.147,-0.035c0,-0.016 -0.006,-0.031 -0.017,-0.038c-0.022,0.011 -0.032,0.012 -0.058,0.012c-0.027,0 -0.037,-0.039 -0.037,-0.08l0,-0.007c0,-0.031 0,-0.078 0.001,-0.134l0.002,-0.107l0.038,0c0.024,0 0.059,0.001 0.072,0.002c0.002,-0.015 0.006,-0.032 0.012,-0.047l-0.005,-0.008c-0.019,0.002 -0.047,0.003 -0.07,0.003l-0.047,0c0,-0.056 0.001,-0.086 0.005,-0.139c0,-0.007 -0.003,-0.01 -0.009,-0.01c-0.025,0.01 -0.079,0.036 -0.119,0.045l-0.002,0.003c-0.003,0.027 -0.004,0.061 -0.004,0.101Z" style="fill-rule:nonzero;"/>
        </g>
        <g transform="matrix(12,0,0,12,398.993,146.758)">
            <path d="M0.297,-0.389c0.039,0 0.068,0.029 0.09,0.084l0.028,-0.001l0.024,-0.097l-0.002,-0.003c-0.031,-0.016 -0.099,-0.033 -0.149,-0.033c-0.134,0 -0.246,0.08 -0.246,0.237c-0,0.062 0.02,0.111 0.054,0.148c0.036,0.039 0.103,0.064 0.178,0.064c0.076,0 0.12,-0.016 0.165,-0.054c-0.002,-0.01 -0.005,-0.023 -0.005,-0.039l-0.016,-0.005c-0.028,0.034 -0.077,0.048 -0.117,0.048c-0.029,0 -0.069,-0.025 -0.087,-0.054c-0.018,-0.029 -0.03,-0.077 -0.03,-0.134c-0,-0.048 0.008,-0.086 0.024,-0.113c0.02,-0.031 0.054,-0.048 0.089,-0.048Z" style="fill-rule:nonzero;"/>
        </g>
        <g transform="matrix(12,0,0,12,404.657,146.758)">
            <path d="M0.086,-0.474l0,0.294c0,0.075 -0.003,0.126 -0.012,0.18l0.001,0.003c-0,0 0.045,-0.003 0.08,-0.003c0.034,0 0.067,0.003 0.067,0.003l0.002,-0.003c-0.005,-0.057 -0.006,-0.104 -0.006,-0.18l-0,-0.102c0.038,-0.05 0.08,-0.08 0.116,-0.08c0.027,0 0.052,0.02 0.052,0.093l0,0.089c0,0.075 0,0.127 -0.006,0.18l0.001,0.003c0,0 0.049,-0.003 0.084,-0.003c0.034,0 0.061,0.003 0.061,0.003l0.002,-0.003c-0.009,-0.057 -0.01,-0.104 -0.01,-0.18l0,-0.111c0,-0.09 -0.039,-0.148 -0.129,-0.148c-0.051,0 -0.125,0.031 -0.171,0.09l-0.004,-0.002l0.004,-0.087l0,-0.062c0,-0.075 0.002,-0.127 0.01,-0.188c0,-0.007 -0.003,-0.01 -0.009,-0.01c-0.025,0.01 -0.102,0.03 -0.143,0.033l-0.002,0.003c0.008,0.043 0.012,0.112 0.012,0.188Z" style="fill-rule:nonzero;"/>
        </g>
    </g>
    <path d="M177.268,130.044c-0,-0.348 0.048,-2.232 0.048,-2.364c-0,-0.72 -0.144,-1.164 -0.48,-1.464c-0.384,-0.348 -1.104,-0.48 -1.68,-0.48c-0.864,0 -2.016,0.384 -2.304,0.636l-0.036,0.048l0.24,0.9l0.396,0.012c0.408,-0.6 0.936,-0.948 1.476,-0.948c0.528,0 0.828,0.3 0.828,1.224c-0,0.084 -0.036,0.132 -0.072,0.144l-1.404,0.372c-1.152,0.276 -1.848,0.888 -1.848,1.704c-0,0.828 0.804,1.296 1.644,1.296c0.468,0 1.104,-0.156 1.644,-0.696l0.024,0c0.168,0.492 0.432,0.696 0.948,0.696c0.468,0 1.068,-0.12 1.428,-0.396c-0.012,-0.108 -0.048,-0.192 -0.12,-0.252c-0.48,0 -0.732,-0.036 -0.732,-0.432Zm-1.512,-1.704l-0.024,1.116c-0,0.156 -0.096,0.456 -0.18,0.54c-0.276,0.276 -0.552,0.408 -0.888,0.408c-0.36,0 -0.624,-0.36 -0.624,-0.684c-0,-0.432 0.156,-0.972 0.756,-1.128l0.96,-0.252Z" style="fill-rule:nonzero;"/>
    <path d="M183.724,127.536c-0,-0.42 -0.24,-0.912 -0.612,-1.164c0.36,0.012 0.792,0.084 1.212,0.108l0.036,-0.036c-0.024,-0.108 -0.036,-0.216 -0.036,-0.324c-0,-0.108 0.012,-0.24 0.036,-0.348l-0.036,-0.036c-0.576,0.048 -1.332,0.06 -2.232,0.108c-0.216,-0.072 -0.6,-0.108 -0.864,-0.108c-1.296,0 -2.364,0.696 -2.364,1.848c-0,0.672 0.348,1.008 0.66,1.224c0.168,0.12 0.468,0.216 0.468,0.216l-0.024,0.06c-0.528,0.18 -1.044,0.636 -1.044,1.032c-0,0.504 0.288,0.828 0.948,0.936c-0.264,0.168 -0.72,0.336 -1.008,0.504c-0.204,0.264 -0.264,0.636 -0.264,0.936c-0,1.044 1.248,1.368 2.316,1.368c0.78,0 1.692,-0.096 2.424,-0.456c0.708,-0.348 1.236,-0.948 1.236,-1.584c0,-1.368 -1.524,-1.608 -2.628,-1.608c-0.204,0 -0.48,0.024 -0.756,0.06c-0.168,0.012 -0.168,0.024 -0.228,0.024c-0.336,0 -0.696,-0.06 -0.696,-0.576c-0,-0.192 0.012,-0.336 0.144,-0.54c0.168,0.072 0.492,0.132 0.9,0.132c1.392,0 2.412,-0.66 2.412,-1.776Zm-3.312,3.66c0.072,0.012 0.168,0.024 0.276,0.024c0.36,0 0.672,-0.012 0.84,-0.012c0.672,0 1.488,0.06 1.488,0.888c-0,0.732 -0.732,1.224 -1.764,1.224c-0.408,0 -1.224,-0.252 -1.224,-1.068c-0,-0.396 0.072,-0.732 0.384,-1.056Zm1.716,-3.648c-0,0.852 -0.24,1.284 -0.816,1.284c-0.732,0 -0.852,-0.432 -0.852,-1.308c-0,-0.792 0.192,-1.308 0.816,-1.308c0.72,0 0.852,0.432 0.852,1.332Z" style="fill-rule:nonzero;"/>
    <path d="M190.324,129.72c-0.552,0.444 -1.14,0.492 -1.644,0.492c-0.588,0 -1.02,-0.156 -1.308,-0.468c-0.264,-0.288 -0.396,-0.708 -0.396,-1.26l1.2,0c1.2,0 2.22,0.024 2.22,0.024l0.072,-0.072c-0,-1.5 -0.42,-2.7 -2.268,-2.7c-0.66,0 -1.38,0.204 -1.848,0.6c-0.588,0.48 -0.984,1.2 -0.984,2.196c-0,0.708 0.264,1.452 0.756,1.968c0.408,0.42 1.116,0.624 2.016,0.624c0.864,0 1.728,-0.276 2.376,-1.032c0,-0.156 -0.072,-0.372 -0.192,-0.372Zm-3.3,-1.776c0.048,-0.588 0.192,-1.008 0.372,-1.248c0.144,-0.204 0.384,-0.36 0.72,-0.36c0.492,0 0.78,0.552 0.78,1.608l-1.872,0Z" style="fill-rule:nonzero;"/>
    <path d="M197.188,128.844l-0,-1.332c-0,-1.26 -0.588,-1.776 -1.668,-1.776c-0.612,0 -1.332,0.372 -1.884,1.08l-0.048,-0.036c-0,-0.276 -0.012,-0.78 -0.036,-0.876c-0.012,-0.084 -0.036,-0.12 -0.108,-0.12c-0.348,0.06 -1.128,0.06 -1.548,0.036l-0.024,0.036c0.096,0.516 0.132,1.428 0.132,2.328l-0,0.66c-0,0.9 -0.024,1.512 -0.132,2.16l0.024,0.036c-0,0 0.564,-0.036 0.984,-0.036c0.408,0 0.744,0.036 0.744,0.036l0.036,-0.036c-0.06,-0.684 -0.072,-1.248 -0.072,-2.16l-0,-1.224c0.456,-0.6 0.96,-0.96 1.392,-0.96c0.324,0 0.624,0.24 0.624,1.116l-0,1.068c-0,0.9 -0,1.524 -0.072,2.16l0.024,0.036c-0,0 0.384,-0.036 0.804,-0.036c0.408,0 0.936,0.036 0.936,0.036l0.024,-0.036c-0.108,-0.684 -0.132,-1.248 -0.132,-2.16Z" style="fill-rule:nonzero;"/>
    <path d="M199.324,125.856c-0.24,0 -0.504,-0.012 -0.648,-0.036c-0.06,0.204 -0.144,0.396 -0.264,0.576l0.06,0.084c0.204,-0.012 0.576,-0.024 0.852,-0.024l-0.036,1.416c-0.012,0.72 -0.036,1.716 -0.036,2.076c-0,0.564 0.396,1.176 1.164,1.176c0.624,0 1.248,-0.108 1.764,-0.42c-0,-0.192 -0.072,-0.372 -0.204,-0.456c-0.264,0.132 -0.384,0.144 -0.696,0.144c-0.324,0 -0.444,-0.468 -0.444,-0.96l-0,-0.084c-0,-0.372 -0,-0.936 0.012,-1.608l0.024,-1.284l0.456,0c0.288,0 0.708,0.012 0.864,0.024c0.024,-0.18 0.072,-0.384 0.144,-0.564l-0.06,-0.096c-0.228,0.024 -0.564,0.036 -0.84,0.036l-0.564,0c-0,-0.672 0.012,-1.032 0.06,-1.668c-0,-0.084 -0.036,-0.12 -0.108,-0.12c-0.3,0.12 -0.948,0.432 -1.428,0.54l-0.024,0.036c-0.036,0.324 -0.048,0.732 -0.048,1.212Z" style="fill-rule:nonzero;"/>
    <path d="M207.904,131.052c0.108,-0.036 0.528,-0.036 0.636,-0.036c0.108,0 0.456,0 0.552,0.036c0.432,-0.984 0.876,-1.968 1.332,-2.964c0.396,0.984 0.768,1.968 1.116,2.952c0.108,-0.036 0.516,-0.036 0.624,-0.036c0.108,0 0.432,0 0.528,0.036c0.732,-1.704 1.524,-3.504 2.316,-5.22c-0.096,0.036 -0.48,0.036 -0.588,0.036c-0.108,0 -0.432,0 -0.528,-0.036c-0.396,1.26 -0.972,2.736 -1.5,3.864l-0.048,0c-0.408,-1.284 -0.756,-2.532 -1.056,-3.864c-0.144,0.024 -0.672,0.036 -0.828,0.036c-0.168,0 -0.828,-0.012 -0.996,-0.036c0.204,0.456 0.396,0.9 0.576,1.356c-0.348,0.936 -0.756,1.896 -1.092,2.628l-0.072,0c-0.516,-1.332 -0.96,-2.64 -1.344,-3.972c-0.144,0.036 -0.612,0.036 -0.768,0.036c-0.168,0 -0.888,0 -1.056,-0.036c0.792,1.776 1.536,3.468 2.196,5.22Z" style="fill-rule:nonzero;"/>
    <path d="M217.924,126.816l-0.048,-0.036c-0,-0.276 -0.012,-0.78 -0.036,-0.876c-0.012,-0.084 -0.036,-0.12 -0.108,-0.12c-0.348,0.06 -1.128,0.06 -1.548,0.036l-0.024,0.036c0.096,0.516 0.132,1.428 0.132,2.328l0,0.66c0,0.9 -0.024,1.512 -0.12,2.16l0.012,0.036c0,0 0.384,-0.036 0.804,-0.036c0.408,0 0.984,0.036 0.984,0.036l0.024,-0.036c-0.096,-0.684 -0.12,-1.248 -0.12,-2.16l-0,-0.876c-0,-0.924 0.828,-1.068 1.008,-1.068c0.228,0 0.48,0.06 0.696,0.228l0.216,-0.024l0.24,-1.236l-0.048,-0.048c-0.204,-0.06 -0.396,-0.084 -0.612,-0.084c-0.564,0 -1.14,0.612 -1.452,1.08Z" style="fill-rule:nonzero;"/>
    <path d="M221.356,128.184l0,0.66c0,0.9 -0.024,1.512 -0.12,2.16l0.024,0.036c0.252,-0.024 0.468,-0.036 0.888,-0.036c0.408,0 0.66,0.012 0.888,0.036l0.024,-0.036c-0.096,-0.684 -0.12,-1.248 -0.12,-2.16l0,-0.792c0,-0.9 0.048,-1.416 0.12,-2.136c0,-0.084 -0.036,-0.12 -0.108,-0.12c-0.168,0.024 -0.492,0.06 -0.828,0.06c-0.312,0 -0.636,-0.024 -0.852,-0.036l-0.036,0.048c0.096,0.516 0.12,1.416 0.12,2.316Zm-0.06,-4.464c0,0.456 0.372,0.828 0.852,0.828c0.48,0 0.852,-0.372 0.852,-0.828c0,-0.456 -0.372,-0.828 -0.852,-0.828c-0.48,0 -0.852,0.372 -0.852,0.828Z" style="fill-rule:nonzero;"/>
    <path d="M225.1,125.856c-0.24,0 -0.504,-0.012 -0.648,-0.036c-0.06,0.204 -0.144,0.396 -0.264,0.576l0.06,0.084c0.204,-0.012 0.576,-0.024 0.852,-0.024l-0.036,1.416c-0.012,0.72 -0.036,1.716 -0.036,2.076c0,0.564 0.396,1.176 1.164,1.176c0.624,0 1.248,-0.108 1.764,-0.42c0,-0.192 -0.072,-0.372 -0.204,-0.456c-0.264,0.132 -0.384,0.144 -0.696,0.144c-0.324,0 -0.444,-0.468 -0.444,-0.96l0,-0.084c0,-0.372 0,-0.936 0.012,-1.608l0.024,-1.284l0.456,0c0.288,0 0.708,0.012 0.864,0.024c0.024,-0.18 0.072,-0.384 0.144,-0.564l-0.06,-0.096c-0.228,0.024 -0.564,0.036 -0.84,0.036l-0.564,0c0,-0.672 0.012,-1.032 0.06,-1.668c0,-0.084 -0.036,-0.12 -0.108,-0.12c-0.3,0.12 -0.948,0.432 -1.428,0.54l-0.024,0.036c-0.036,0.324 -0.048,0.732 -0.048,1.212Z" style="fill-rule:nonzero;"/>
    <path d="M233.644,129.72c-0.552,0.444 -1.14,0.492 -1.644,0.492c-0.588,0 -1.02,-0.156 -1.308,-0.468c-0.264,-0.288 -0.396,-0.708 -0.396,-1.26l1.2,0c1.2,0 2.22,0.024 2.22,0.024l0.072,-0.072c0,-1.5 -0.42,-2.7 -2.268,-2.7c-0.66,0 -1.38,0.204 -1.848,0.6c-0.588,0.48 -0.984,1.2 -0.984,2.196c0,0.708 0.264,1.452 0.756,1.968c0.408,0.42 1.116,0.624 2.016,0.624c0.864,0 1.728,-0.276 2.376,-1.032c0,-0.156 -0.072,-0.372 -0.192,-0.372Zm-3.3,-1.776c0.048,-0.588 0.192,-1.008 0.372,-1.248c0.144,-0.204 0.384,-0.36 0.72,-0.36c0.492,0 0.78,0.552 0.78,1.608l-1.872,0Z" style="fill-rule:nonzero;"/>
    <path d="M235.012,129.648l-0.192,1.152c0.648,0.24 1.44,0.324 1.872,0.324c1.56,0 2.22,-0.756 2.22,-1.584c0,-1.08 -0.852,-1.416 -1.704,-1.872c-0.396,-0.216 -0.72,-0.42 -0.72,-0.804c0,-0.336 0.12,-0.588 0.588,-0.588c0.588,0 0.936,0.564 1.092,0.9l0.324,-0.012l0.228,-1.08l-0.024,-0.036c-0.324,-0.18 -1.02,-0.312 -1.596,-0.312c-1.08,0 -2.028,0.528 -2.028,1.452c0,0.84 0.588,1.272 1.272,1.644c0.876,0.48 1.14,0.696 1.14,1.176c0,0.564 -0.372,0.588 -0.828,0.588c-0.42,0 -0.924,-0.264 -1.284,-0.96l-0.36,0.012Z" style="fill-rule:nonzero;"/>
    <path d="M177.268,229.93c-0,-0.348 0.048,-2.232 0.048,-2.364c-0,-0.72 -0.144,-1.164 -0.48,-1.464c-0.384,-0.348 -1.104,-0.48 -1.68,-0.48c-0.864,-0 -2.016,0.384 -2.304,0.636l-0.036,0.048l0.24,0.9l0.396,0.012c0.408,-0.6 0.936,-0.948 1.476,-0.948c0.528,-0 0.828,0.3 0.828,1.224c-0,0.084 -0.036,0.132 -0.072,0.144l-1.404,0.372c-1.152,0.276 -1.848,0.888 -1.848,1.704c-0,0.828 0.804,1.296 1.644,1.296c0.468,-0 1.104,-0.156 1.644,-0.696l0.024,-0c0.168,0.492 0.432,0.696 0.948,0.696c0.468,-0 1.068,-0.12 1.428,-0.396c-0.012,-0.108 -0.048,-0.192 -0.12,-0.252c-0.48,-0 -0.732,-0.036 -0.732,-0.432Zm-1.512,-1.704l-0.024,1.116c-0,0.156 -0.096,0.456 -0.18,0.54c-0.276,0.276 -0.552,0.408 -0.888,0.408c-0.36,-0 -0.624,-0.36 -0.624,-0.684c-0,-0.432 0.156,-0.972 0.756,-1.128l0.96,-0.252Z" style="fill-rule:nonzero;"/>
    <path d="M183.724,227.422c-0,-0.42 -0.24,-0.912 -0.612,-1.164c0.36,0.012 0.792,0.084 1.212,0.108l0.036,-0.036c-0.024,-0.108 -0.036,-0.216 -0.036,-0.324c-0,-0.108 0.012,-0.24 0.036,-0.348l-0.036,-0.036c-0.576,0.048 -1.332,0.06 -2.232,0.108c-0.216,-0.072 -0.6,-0.108 -0.864,-0.108c-1.296,-0 -2.364,0.696 -2.364,1.848c-0,0.672 0.348,1.008 0.66,1.224c0.168,0.12 0.468,0.216 0.468,0.216l-0.024,0.06c-0.528,0.18 -1.044,0.636 -1.044,1.032c-0,0.504 0.288,0.828 0.948,0.936c-0.264,0.168 -0.72,0.336 -1.008,0.504c-0.204,0.264 -0.264,0.636 -0.264,0.936c-0,1.044 1.248,1.368 2.316,1.368c0.78,-0 1.692,-0.096 2.424,-0.456c0.708,-0.348 1.236,-0.948 1.236,-1.584c0,-1.368 -1.524,-1.608 -2.628,-1.608c-0.204,-0 -0.48,0.024 -0.756,0.06c-0.168,0.012 -0.168,0.024 -0.228,0.024c-0.336,-0 -0.696,-0.06 -0.696,-0.576c-0,-0.192 0.012,-0.336 0.144,-0.54c0.168,0.072 0.492,0.132 0.9,0.132c1.392,-0 2.412,-0.66 2.412,-1.776Zm-3.312,3.66c0.072,0.012 0.168,0.024 0.276,0.024c0.36,-0 0.672,-0.012 0.84,-0.012c0.672,-0 1.488,0.06 1.488,0.888c-0,0.732 -0.732,1.224 -1.764,1.224c-0.408,-0 -1.224,-0.252 -1.224,-1.068c-0,-0.396 0.072,-0.732 0.384,-1.056Zm1.716,-3.648c-0,0.852 -0.24,1.284 -0.816,1.284c-0.732,-0 -0.852,-0.432 -0.852,-1.308c-0,-0.792 0.192,-1.308 0.816,-1.308c0.72,-0 0.852,0.432 0.852,1.332Z" style="fill-rule:nonzero;"/>
    <path d="M190.324,229.606c-0.552,0.444 -1.14,0.492 -1.644,0.492c-0.588,-0 -1.02,-0.156 -1.308,-0.468c-0.264,-0.288 -0.396,-0.708 -0.396,-1.26l1.2,-0c1.2,-0 2.22,0.024 2.22,0.024l0.072,-0.072c-0,-1.5 -0.42,-2.7 -2.268,-2.7c-0.66,-0 -1.38,0.204 -1.848,0.6c-0.588,0.48 -0.984,1.2 -0.984,2.196c-0,0.708 0.264,1.452 0.756,1.968c0.408,0.42 1.116,0.624 2.016,0.624c0.864,-0 1.728,-0.276 2.376,-1.032c0,-0.156 -0.072,-0.372 -0.192,-0.372Zm-3.3,-1.776c0.048,-0.588 0.192,-1.008 0.372,-1.248c0.144,-0.204 0.384,-0.36 0.72,-0.36c0.492,-0 0.78,0.552 0.78,1.608l-1.872,-0Z" style="fill-rule:nonzero;"/>
    <path d="M197.188,228.73l-0,-1.332c-0,-1.26 -0.588,-1.776 -1.668,-1.776c-0.612,-0 -1.332,0.372 -1.884,1.08l-0.048,-0.036c-0,-0.276 -0.012,-0.78 -0.036,-0.876c-0.012,-0.084 -0.036,-0.12 -0.108,-0.12c-0.348,0.06 -1.128,0.06 -1.548,0.036l-0.024,0.036c0.096,0.516 0.132,1.428 0.132,2.328l-0,0.66c-0,0.9 -0.024,1.512 -0.132,2.16l0.024,0.036c-0,-0 0.564,-0.036 0.984,-0.036c0.408,-0 0.744,0.036 0.744,0.036l0.036,-0.036c-0.06,-0.684 -0.072,-1.248 -0.072,-2.16l-0,-1.224c0.456,-0.6 0.96,-0.96 1.392,-0.96c0.324,-0 0.624,0.24 0.624,1.116l-0,1.068c-0,0.9 -0,1.524 -0.072,2.16l0.024,0.036c-0,-0 0.384,-0.036 0.804,-0.036c0.408,-0 0.936,0.036 0.936,0.036l0.024,-0.036c-0.108,-0.684 -0.132,-1.248 -0.132,-2.16Z" style="fill-rule:nonzero;"/>
    <path d="M199.324,225.742c-0.24,-0 -0.504,-0.012 -0.648,-0.036c-0.06,0.204 -0.144,0.396 -0.264,0.576l0.06,0.084c0.204,-0.012 0.576,-0.024 0.852,-0.024l-0.036,1.416c-0.012,0.72 -0.036,1.716 -0.036,2.076c-0,0.564 0.396,1.176 1.164,1.176c0.624,-0 1.248,-0.108 1.764,-0.42c-0,-0.192 -0.072,-0.372 -0.204,-0.456c-0.264,0.132 -0.384,0.144 -0.696,0.144c-0.324,-0 -0.444,-0.468 -0.444,-0.96l-0,-0.084c-0,-0.372 -0,-0.936 0.012,-1.608l0.024,-1.284l0.456,-0c0.288,-0 0.708,0.012 0.864,0.024c0.024,-0.18 0.072,-0.384 0.144,-0.564l-0.06,-0.096c-0.228,0.024 -0.564,0.036 -0.84,0.036l-0.564,-0c-0,-0.672 0.012,-1.032 0.06,-1.668c-0,-0.084 -0.036,-0.12 -0.108,-0.12c-0.3,0.12 -0.948,0.432 -1.428,0.54l-0.024,0.036c-0.036,0.324 -0.048,0.732 -0.048,1.212Z" style="fill-rule:nonzero;"/>
    <path d="M207.904,230.938c0.108,-0.036 0.528,-0.036 0.636,-0.036c0.108,-0 0.456,-0 0.552,0.036c0.432,-0.984 0.876,-1.968 1.332,-2.964c0.396,0.984 0.768,1.968 1.116,2.952c0.108,-0.036 0.516,-0.036 0.624,-0.036c0.108,-0 0.432,-0 0.528,0.036c0.732,-1.704 1.524,-3.504 2.316,-5.22c-0.096,0.036 -0.48,0.036 -0.588,0.036c-0.108,-0 -0.432,-0 -0.528,-0.036c-0.396,1.26 -0.972,2.736 -1.5,3.864l-0.048,-0c-0.408,-1.284 -0.756,-2.532 -1.056,-3.864c-0.144,0.024 -0.672,0.036 -0.828,0.036c-0.168,-0 -0.828,-0.012 -0.996,-0.036c0.204,0.456 0.396,0.9 0.576,1.356c-0.348,0.936 -0.756,1.896 -1.092,2.628l-0.072,-0c-0.516,-1.332 -0.96,-2.64 -1.344,-3.972c-0.144,0.036 -0.612,0.036 -0.768,0.036c-0.168,-0 -0.888,-0 -1.056,-0.036c0.792,1.776 1.536,3.468 2.196,5.22Z" style="fill-rule:nonzero;"/>
    <path d="M217.924,226.702l-0.048,-0.036c-0,-0.276 -0.012,-0.78 -0.036,-0.876c-0.012,-0.084 -0.036,-0.12 -0.108,-0.12c-0.348,0.06 -1.128,0.06 -1.548,0.036l-0.024,0.036c0.096,0.516 0.132,1.428 0.132,2.328l0,0.66c0,0.9 -0.024,1.512 -0.12,2.16l0.012,0.036c0,-0 0.384,-0.036 0.804,-0.036c0.408,-0 0.984,0.036 0.984,0.036l0.024,-0.036c-0.096,-0.684 -0.12,-1.248 -0.12,-2.16l-0,-0.876c-0,-0.924 0.828,-1.068 1.008,-1.068c0.228,-0 0.48,0.06 0.696,0.228l0.216,-0.024l0.24,-1.236l-0.048,-0.048c-0.204,-0.06 -0.396,-0.084 -0.612,-0.084c-0.564,-0 -1.14,0.612 -1.452,1.08Z" style="fill-rule:nonzero;"/>
    <path d="M221.356,228.07l0,0.66c0,0.9 -0.024,1.512 -0.12,2.16l0.024,0.036c0.252,-0.024 0.468,-0.036 0.888,-0.036c0.408,-0 0.66,0.012 0.888,0.036l0.024,-0.036c-0.096,-0.684 -0.12,-1.248 -0.12,-2.16l0,-0.792c0,-0.9 0.048,-1.416 0.12,-2.136c0,-0.084 -0.036,-0.12 -0.108,-0.12c-0.168,0.024 -0.492,0.06 -0.828,0.06c-0.312,-0 -0.636,-0.024 -0.852,-0.036l-0.036,0.048c0.096,0.516 0.12,1.416 0.12,2.316Zm-0.06,-4.464c0,0.456 0.372,0.828 0.852,0.828c0.48,-0 0.852,-0.372 0.852,-0.828c0,-0.456 -0.372,-0.828 -0.852,-0.828c-0.48,-0 -0.852,0.372 -0.852,0.828Z" style="fill-rule:nonzero;"/>
    <path d="M225.1,225.742c-0.24,-0 -0.504,-0.012 -0.648,-0.036c-0.06,0.204 -0.144,0.396 -0.264,0.576l0.06,0.084c0.204,-0.012 0.576,-0.024 0.852,-0.024l-0.036,1.416c-0.012,0.72 -0.036,1.716 -0.036,2.076c0,0.564 0.396,1.176 1.164,1.176c0.624,-0 1.248,-0.108 1.764,-0.42c0,-0.192 -0.072,-0.372 -0.204,-0.456c-0.264,0.132 -0.384,0.144 -0.696,0.144c-0.324,-0 -0.444,-0.468 -0.444,-0.96l0,-0.084c0,-0.372 0,-0.936 0.012,-1.608l0.024,-1.284l0.456,-0c0.288,-0 0.708,0.012 0.864,0.024c0.024,-0.18 0.072,-0.384 0.144,-0.564l-0.06,-0.096c-0.228,0.024 -0.564,0.036 -0.84,0.036l-0.564,-0c0,-0.672 0.012,-1.032 0.06,-1.668c0,-0.084 -0.036,-0.12 -0.108,-0.12c-0.3,0.12 -0.948,0.432 -1.428,0.54l-0.024,0.036c-0.036,0.324 -0.048,0.732 -0.048,1.212Z" style="fill-rule:nonzero;"/>
    <path d="M233.644,229.606c-0.552,0.444 -1.14,0.492 -1.644,0.492c-0.588,-0 -1.02,-0.156 -1.308,-0.468c-0.264,-0.288 -0.396,-0.708 -0.396,-1.26l1.2,-0c1.2,-0 2.22,0.024 2.22,0.024l0.072,-0.072c0,-1.5 -0.42,-2.7 -2.268,-2.7c-0.66,-0 -1.38,0.204 -1.848,0.6c-0.588,0.48 -0.984,1.2 -0.984,2.196c0,0.708 0.264,1.452 0.756,1.968c0.408,0.42 1.116,0.624 2.016,0.624c0.864,-0 1.728,-0.276 2.376,-1.032c0,-0.156 -0.072,-0.372 -0.192,-0.372Zm-3.3,-1.776c0.048,-0.588 0.192,-1.008 0.372,-1.248c0.144,-0.204 0.384,-0.36 0.72,-0.36c0.492,-0 0.78,0.552 0.78,1.608l-1.872,-0Z" style="fill-rule:nonzero;"/>
    <path d="M235.012,229.534l-0.192,1.152c0.648,0.24 1.44,0.324 1.872,0.324c1.56,-0 2.22,-0.756 2.22,-1.584c0,-1.08 -0.852,-1.416 -1.704,-1.872c-0.396,-0.216 -0.72,-0.42 -0.72,-0.804c0,-0.336 0.12,-0.588 0.588,-0.588c0.588,-0 0.936,0.564 1.092,0.9l0.324,-0.012l0.228,-1.08l-0.024,-0.036c-0.324,-0.18 -1.02,-0.312 -1.596,-0.312c-1.08,-0 -2.028,0.528 -2.028,1.452c0,0.84 0.588,1.272 1.272,1.644c0.876,0.48 1.14,0.696 1.14,1.176c0,0.564 -0.372,0.588 -0.828,0.588c-0.42,-0 -0.924,-0.264 -1.284,-0.96l-0.36,0.012Z" style="fill-rule:nonzero;"/>
    <g transform="matrix(1,0,0,1,-338.561,90.1922)">
        <g transform="matrix(12,0,0,12,356.825,134.758)">
            <path d="M0.216,-0.358l-0.004,-0.003c0,-0.023 -0.001,-0.056 -0.003,-0.064c-0.001,-0.007 -0.003,-0.01 -0.009,-0.01c-0.029,0.005 -0.094,0.005 -0.129,0.003l-0.002,0.003c0.008,0.043 0.011,0.119 0.011,0.194l0,0.267c0,0.074 -0.001,0.146 -0.01,0.2l0.001,0.003c0,-0 0.039,-0.003 0.074,-0.003c0.034,-0 0.075,0.003 0.075,0.003l0.002,-0.003c-0.008,-0.057 -0.01,-0.125 -0.01,-0.2l0,-0.05c0.033,0.021 0.07,0.028 0.107,0.028c0.126,-0 0.224,-0.104 0.224,-0.245c0,-0.075 -0.023,-0.131 -0.07,-0.172c-0.024,-0.02 -0.058,-0.032 -0.102,-0.032c-0.043,-0 -0.106,0.014 -0.155,0.081Zm-0.004,0.076c0.022,-0.053 0.078,-0.087 0.112,-0.087c0.061,-0 0.077,0.064 0.077,0.161c0,0.106 -0.044,0.168 -0.1,0.168c-0.025,-0 -0.052,-0.005 -0.089,-0.036l0,-0.206Z" style="fill-rule:nonzero;"/>
        </g>
        <g transform="matrix(12,0,0,12,363.845,134.758)">
            <path d="M0.225,-0.349l-0.004,-0.003c0,-0.023 -0.001,-0.065 -0.003,-0.073c-0.001,-0.007 -0.003,-0.01 -0.009,-0.01c-0.029,0.005 -0.094,0.005 -0.129,0.003l-0.002,0.003c0.008,0.043 0.011,0.119 0.011,0.194l0,0.055c0,0.075 -0.002,0.126 -0.01,0.18l0.001,0.003c0,0 0.032,-0.003 0.067,-0.003c0.034,0 0.082,0.003 0.082,0.003l0.002,-0.003c-0.008,-0.057 -0.01,-0.104 -0.01,-0.18l0,-0.073c0,-0.077 0.069,-0.089 0.084,-0.089c0.019,0 0.04,0.005 0.058,0.019l0.018,-0.002l0.02,-0.103l-0.004,-0.004c-0.017,-0.005 -0.033,-0.007 -0.051,-0.007c-0.047,0 -0.095,0.051 -0.121,0.09Z" style="fill-rule:nonzero;"/>
        </g>
        <g transform="matrix(12,0,0,12,368.801,134.758)">
            <path d="M0.041,-0.205c0,0.133 0.093,0.215 0.242,0.215c0.153,0 0.242,-0.086 0.242,-0.224c0,-0.126 -0.071,-0.225 -0.24,-0.225c-0.143,0 -0.244,0.079 -0.244,0.234Zm0.237,-0.184c0.085,0 0.105,0.063 0.105,0.202c0,0.115 -0.041,0.147 -0.086,0.147c-0.104,0 -0.114,-0.111 -0.114,-0.188c0,-0.087 0.009,-0.161 0.095,-0.161Z" style="fill-rule:nonzero;"/>
        </g>
        <g transform="matrix(12,0,0,12,375.509,134.758)">
            <path d="M0.214,0.003c0.011,-0.002 0.045,-0.003 0.055,-0.003c0.01,-0 0.034,0.001 0.042,0.003c0.063,-0.136 0.144,-0.292 0.219,-0.435c-0.009,0.003 -0.047,0.003 -0.057,0.003c-0.01,0 -0.034,0 -0.043,-0.003c-0.031,0.091 -0.083,0.227 -0.13,0.309l-0.006,0c-0.04,-0.095 -0.083,-0.215 -0.113,-0.309c-0.013,0.003 -0.06,0.003 -0.074,0.003c-0.016,0 -0.071,0 -0.087,-0.003c0.071,0.147 0.138,0.289 0.194,0.435Z" style="fill-rule:nonzero;"/>
        </g>
        <g transform="matrix(12,0,0,12,382.013,134.758)">
            <path d="M0.448,-0.107c-0.046,0.037 -0.095,0.041 -0.137,0.041c-0.049,0 -0.085,-0.013 -0.109,-0.039c-0.022,-0.024 -0.033,-0.059 -0.033,-0.105l0.1,0c0.1,0 0.185,0.002 0.185,0.002l0.006,-0.006c0,-0.125 -0.035,-0.225 -0.189,-0.225c-0.055,0 -0.115,0.017 -0.154,0.05c-0.049,0.04 -0.082,0.1 -0.082,0.183c-0,0.059 0.022,0.121 0.063,0.164c0.034,0.035 0.093,0.052 0.168,0.052c0.072,0 0.144,-0.023 0.198,-0.086c0,-0.013 -0.006,-0.031 -0.016,-0.031Zm-0.275,-0.148c0.004,-0.049 0.016,-0.084 0.031,-0.104c0.012,-0.017 0.032,-0.03 0.06,-0.03c0.041,0 0.065,0.046 0.065,0.134l-0.156,0Z" style="fill-rule:nonzero;"/>
        </g>
        <g transform="matrix(12,0,0,12,388.109,134.758)">
            <path d="M0.225,-0.349l-0.004,-0.003c0,-0.023 -0.001,-0.065 -0.003,-0.073c-0.001,-0.007 -0.003,-0.01 -0.009,-0.01c-0.029,0.005 -0.094,0.005 -0.129,0.003l-0.002,0.003c0.008,0.043 0.011,0.119 0.011,0.194l0,0.055c0,0.075 -0.002,0.126 -0.01,0.18l0.001,0.003c0,0 0.032,-0.003 0.067,-0.003c0.034,0 0.082,0.003 0.082,0.003l0.002,-0.003c-0.008,-0.057 -0.01,-0.104 -0.01,-0.18l0,-0.073c0,-0.077 0.069,-0.089 0.084,-0.089c0.019,0 0.04,0.005 0.058,0.019l0.018,-0.002l0.02,-0.103l-0.004,-0.004c-0.017,-0.005 -0.033,-0.007 -0.051,-0.007c-0.047,0 -0.095,0.051 -0.121,0.09Z" style="fill-rule:nonzero;"/>
        </g>
        <g transform="matrix(12,0,0,12,338.057,146.758)">
            <path d="M0.297,-0.389c0.039,0 0.068,0.029 0.09,0.084l0.028,-0.001l0.024,-0.097l-0.002,-0.003c-0.031,-0.016 -0.099,-0.033 -0.149,-0.033c-0.134,0 -0.246,0.08 -0.246,0.237c-0,0.062 0.02,0.111 0.054,0.148c0.036,0.039 0.103,0.064 0.178,0.064c0.076,0 0.12,-0.016 0.165,-0.054c-0.002,-0.01 -0.005,-0.023 -0.005,-0.039l-0.016,-0.005c-0.028,0.034 -0.077,0.048 -0.117,0.048c-0.029,0 -0.069,-0.025 -0.087,-0.054c-0.018,-0.029 -0.03,-0.077 -0.03,-0.134c-0,-0.048 0.008,-0.086 0.024,-0.113c0.02,-0.031 0.054,-0.048 0.089,-0.048Z" style="fill-rule:nonzero;"/>
        </g>
        <g transform="matrix(12,0,0,12,343.721,146.758)">
            <path d="M0.086,-0.474l0,0.294c0,0.075 -0.003,0.126 -0.012,0.18l0.001,0.003c-0,0 0.045,-0.003 0.08,-0.003c0.034,0 0.067,0.003 0.067,0.003l0.002,-0.003c-0.005,-0.057 -0.006,-0.104 -0.006,-0.18l-0,-0.102c0.038,-0.05 0.08,-0.08 0.116,-0.08c0.027,0 0.052,0.02 0.052,0.093l0,0.089c0,0.075 0,0.127 -0.006,0.18l0.001,0.003c0,0 0.049,-0.003 0.084,-0.003c0.034,0 0.061,0.003 0.061,0.003l0.002,-0.003c-0.009,-0.057 -0.01,-0.104 -0.01,-0.18l0,-0.111c0,-0.09 -0.039,-0.148 -0.129,-0.148c-0.051,0 -0.125,0.031 -0.171,0.09l-0.004,-0.002l0.004,-0.087l0,-0.062c0,-0.075 0.002,-0.127 0.01,-0.188c0,-0.007 -0.003,-0.01 -0.009,-0.01c-0.025,0.01 -0.102,0.03 -0.143,0.033l-0.002,0.003c0.008,0.043 0.012,0.112 0.012,0.188Z" style="fill-rule:nonzero;"/>
        </g>
        <g transform="matrix(12,0,0,12,350.993,146.758)">
            <path d="M0.448,-0.107c-0.046,0.037 -0.095,0.041 -0.137,0.041c-0.049,0 -0.085,-0.013 -0.109,-0.039c-0.022,-0.024 -0.033,-0.059 -0.033,-0.105l0.1,0c0.1,0 0.185,0.002 0.185,0.002l0.006,-0.006c0,-0.125 -0.035,-0.225 -0.189,-0.225c-0.055,0 -0.115,0.017 -0.154,0.05c-0.049,0.04 -0.082,0.1 -0.082,0.183c-0,0.059 0.022,0.121 0.063,0.164c0.034,0.035 0.093,0.052 0.168,0.052c0.072,0 0.144,-0.023 0.198,-0.086c0,-0.013 -0.006,-0.031 -0.016,-0.031Zm-0.275,-0.148c0.004,-0.049 0.016,-0.084 0.031,-0.104c0.012,-0.017 0.032,-0.03 0.06,-0.03c0.041,0 0.065,0.046 0.065,0.134l-0.156,0Z" style="fill-rule:nonzero;"/>
        </g>
        <g transform="matrix(12,0,0,12,357.173,146.758)">
            <path d="M0.297,-0.389c0.039,0 0.068,0.029 0.09,0.084l0.028,-0.001l0.024,-0.097l-0.002,-0.003c-0.031,-0.016 -0.099,-0.033 -0.149,-0.033c-0.134,0 -0.246,0.08 -0.246,0.237c-0,0.062 0.02,0.111 0.054,0.148c0.036,0.039 0.103,0.064 0.178,0.064c0.076,0 0.12,-0.016 0.165,-0.054c-0.002,-0.01 -0.005,-0.023 -0.005,-0.039l-0.016,-0.005c-0.028,0.034 -0.077,0.048 -0.117,0.048c-0.029,0 -0.069,-0.025 -0.087,-0.054c-0.018,-0.029 -0.03,-0.077 -0.03,-0.134c-0,-0.048 0.008,-0.086 0.024,-0.113c0.02,-0.031 0.054,-0.048 0.089,-0.048Z" style="fill-rule:nonzero;"/>
        </g>
        <g transform="matrix(12,0,0,12,362.837,146.758)">
            <path d="M0.086,-0.2c0,0.075 -0.003,0.146 -0.012,0.2l0.001,0.003c-0,0 0.042,-0.003 0.077,-0.003c0.034,-0 0.076,0.003 0.076,0.003l0.002,-0.003c-0.008,-0.057 -0.012,-0.125 -0.012,-0.2l-0,-0.015c0.009,0.001 0.02,0.003 0.026,0.009c0.062,0.069 0.092,0.113 0.145,0.209c0.015,-0.002 0.063,-0.003 0.08,-0.003c0.017,0 0.095,0.001 0.104,0.003l0.002,-0.003c-0.074,-0.079 -0.128,-0.137 -0.223,-0.252c0.037,-0.041 0.121,-0.116 0.202,-0.177l-0.002,-0.003c-0.019,0.003 -0.13,0.003 -0.157,0.003c-0.039,0.065 -0.092,0.134 -0.132,0.165c-0.01,0.008 -0.031,0.013 -0.045,0.014l-0,-0.25c-0,-0.075 0.004,-0.127 0.012,-0.188c-0,-0.007 -0.005,-0.01 -0.011,-0.01c-0.025,0.01 -0.102,0.03 -0.143,0.033l-0.002,0.003c0.008,0.043 0.012,0.112 0.012,0.188l0,0.274Z" style="fill-rule:nonzero;"/>
        </g>
        <g transform="matrix(12,0,0,12,369.821,146.758)">
            <path d="M0.054,-0.113l-0.016,0.096c0.054,0.02 0.12,0.027 0.156,0.027c0.13,0 0.185,-0.063 0.185,-0.132c0,-0.09 -0.071,-0.118 -0.142,-0.156c-0.033,-0.018 -0.06,-0.035 -0.06,-0.067c0,-0.028 0.01,-0.049 0.049,-0.049c0.049,0 0.078,0.047 0.091,0.075l0.027,-0.001l0.019,-0.09l-0.002,-0.003c-0.027,-0.015 -0.085,-0.026 -0.133,-0.026c-0.09,0 -0.169,0.044 -0.169,0.121c0,0.07 0.049,0.106 0.106,0.137c0.073,0.04 0.095,0.058 0.095,0.098c0,0.047 -0.031,0.049 -0.069,0.049c-0.035,0 -0.077,-0.022 -0.107,-0.08l-0.03,0.001Z" style="fill-rule:nonzero;"/>
        </g>
        <g transform="matrix(12,0,0,12,377.849,146.758)">
            <path d="M0.216,-0.349l-0.004,-0.003c0,-0.023 -0.001,-0.065 -0.003,-0.073c-0.001,-0.007 -0.003,-0.01 -0.009,-0.01c-0.029,0.005 -0.094,0.005 -0.129,0.003l-0.002,0.003c0.008,0.043 0.011,0.119 0.011,0.194l0,0.055c0,0.075 -0.004,0.126 -0.012,0.18l0.001,0.003c0,0 0.042,-0.003 0.077,-0.003c0.034,0 0.074,0.003 0.074,0.003l0.002,-0.003c-0.008,-0.057 -0.01,-0.104 -0.01,-0.18l0,-0.101c0.042,-0.051 0.078,-0.081 0.106,-0.081c0.038,0 0.059,0.014 0.059,0.081l0,0.101c0,0.075 -0.004,0.126 -0.012,0.18l0.001,0.003c0,0 0.045,-0.003 0.08,-0.003c0.034,0 0.073,0.003 0.073,0.003l0.002,-0.003c-0.008,-0.057 -0.012,-0.104 -0.012,-0.18l0,-0.088c0,-0.014 0,-0.018 -0.001,-0.03c0.048,-0.053 0.07,-0.064 0.109,-0.064c0.032,0 0.055,0.022 0.055,0.089l0,0.093c0,0.075 -0.004,0.126 -0.012,0.18l0.001,0.003c0,0 0.045,-0.003 0.08,-0.003c0.034,0 0.073,0.003 0.073,0.003l0.002,-0.003c-0.008,-0.057 -0.012,-0.104 -0.012,-0.18l0,-0.1c0,-0.1 -0.035,-0.159 -0.143,-0.159c-0.05,0 -0.102,0.02 -0.159,0.08c-0.02,-0.05 -0.047,-0.08 -0.137,-0.08c-0.049,0 -0.111,0.041 -0.149,0.09Z" style="fill-rule:nonzero;"/>
        </g>
        <g transform="matrix(12,0,0,12,388.553,146.758)">
            <path d="M0.437,-0.08c0,-0.029 0.004,-0.186 0.004,-0.197c0,-0.06 -0.012,-0.097 -0.04,-0.122c-0.032,-0.029 -0.092,-0.04 -0.14,-0.04c-0.072,0 -0.168,0.032 -0.192,0.053l-0.003,0.004l0.02,0.075l0.033,0.001c0.034,-0.05 0.078,-0.079 0.123,-0.079c0.044,0 0.069,0.025 0.069,0.102c0,0.007 -0.003,0.011 -0.006,0.012l-0.117,0.031c-0.096,0.023 -0.154,0.074 -0.154,0.142c0,0.069 0.067,0.108 0.137,0.108c0.039,0 0.092,-0.013 0.137,-0.058l0.002,0c0.014,0.041 0.036,0.058 0.079,0.058c0.039,0 0.089,-0.01 0.119,-0.033c-0.001,-0.009 -0.004,-0.016 -0.01,-0.021c-0.04,0 -0.061,-0.003 -0.061,-0.036Zm-0.126,-0.142l-0.002,0.093c-0,0.013 -0.008,0.038 -0.015,0.045c-0.023,0.023 -0.046,0.034 -0.074,0.034c-0.03,0 -0.052,-0.03 -0.052,-0.057c-0,-0.036 0.013,-0.081 0.063,-0.094l0.08,-0.021Z" style="fill-rule:nonzero;"/>
        </g>
        <g transform="matrix(12,0,0,12,394.745,146.758)">
            <path d="M0.09,-0.429c-0.02,0 -0.042,-0.001 -0.054,-0.003c-0.005,0.017 -0.012,0.033 -0.022,0.048l0.005,0.007c0.017,-0.001 0.048,-0.002 0.071,-0.002l-0.003,0.118c-0.001,0.06 -0.003,0.143 -0.003,0.173c0,0.047 0.033,0.098 0.097,0.098c0.052,-0 0.104,-0.009 0.147,-0.035c0,-0.016 -0.006,-0.031 -0.017,-0.038c-0.022,0.011 -0.032,0.012 -0.058,0.012c-0.027,0 -0.037,-0.039 -0.037,-0.08l0,-0.007c0,-0.031 0,-0.078 0.001,-0.134l0.002,-0.107l0.038,0c0.024,0 0.059,0.001 0.072,0.002c0.002,-0.015 0.006,-0.032 0.012,-0.047l-0.005,-0.008c-0.019,0.002 -0.047,0.003 -0.07,0.003l-0.047,0c0,-0.056 0.001,-0.086 0.005,-0.139c0,-0.007 -0.003,-0.01 -0.009,-0.01c-0.025,0.01 -0.079,0.036 -0.119,0.045l-0.002,0.003c-0.003,0.027 -0.004,0.061 -0.004,0.101Z" style="fill-rule:nonzero;"/>
        </g>
        <g transform="matrix(12,0,0,12,398.993,146.758)">
            <path d="M0.297,-0.389c0.039,0 0.068,0.029 0.09,0.084l0.028,-0.001l0.024,-0.097l-0.002,-0.003c-0.031,-0.016 -0.099,-0.033 -0.149,-0.033c-0.134,0 -0.246,0.08 -0.246,0.237c-0,0.062 0.02,0.111 0.054,0.148c0.036,0.039 0.103,0.064 0.178,0.064c0.076,0 0.12,-0.016 0.165,-0.054c-0.002,-0.01 -0.005,-0.023 -0.005,-0.039l-0.016,-0.005c-0.028,0.034 -0.077,0.048 -0.117,0.048c-0.029,0 -0.069,-0.025 -0.087,-0.054c-0.018,-0.029 -0.03,-0.077 -0.03,-0.134c-0,-0.048 0.008,-0.086 0.024,-0.113c0.02,-0.031 0.054,-0.048 0.089,-0.048Z" style="fill-rule:nonzero;"/>
        </g>
        <g transform="matrix(12,0,0,12,404.657,146.758)">
            <path d="M0.086,-0.474l0,0.294c0,0.075 -0.003,0.126 -0.012,0.18l0.001,0.003c-0,0 0.045,-0.003 0.08,-0.003c0.034,0 0.067,0.003 0.067,0.003l0.002,-0.003c-0.005,-0.057 -0.006,-0.104 -0.006,-0.18l-0,-0.102c0.038,-0.05 0.08,-0.08 0.116,-0.08c0.027,0 0.052,0.02 0.052,0.093l0,0.089c0,0.075 0,0.127 -0.006,0.18l0.001,0.003c0,0 0.049,-0.003 0.084,-0.003c0.034,0 0.061,0.003 0.061,0.003l0.002,-0.003c-0.009,-0.057 -0.01,-0.104 -0.01,-0.18l0,-0.111c0,-0.09 -0.039,-0.148 -0.129,-0.148c-0.051,0 -0.125,0.031 -0.171,0.09l-0.004,-0.002l0.004,-0.087l0,-0.062c0,-0.075 0.002,-0.127 0.01,-0.188c0,-0.007 -0.003,-0.01 -0.009,-0.01c-0.025,0.01 -0.102,0.03 -0.143,0.033l-0.002,0.003c0.008,0.043 0.012,0.112 0.012,0.188Z" style="fill-rule:nonzero;"/>
        </g>
    </g>
    <path d="M125.432,52.975l-3,4.5l-3,-4.5" style="fill:none;stroke:black;stroke-width:1px;stroke-linecap:butt;stroke-linejoin:miter;stroke-miterlimit:10;"/>
    <path d="M122.432,13.376l-0,44.099" style="fill:none;stroke:black;stroke-width:1px;stroke-linecap:square;"/>
    <path d="M79.432,103.777l3,-4.5l3,4.5" style="fill:none;stroke:black;stroke-width:1px;stroke-linejoin:miter;stroke-miterlimit:10;"/>
    <path d="M82.432,157.564l-0,-58.287" style="fill:none;stroke:black;stroke-width:1px;"/>
    <path d="M165.432,152.975l-3,4.5l-3,-4.5" style="fill:none;stroke:black;stroke-width:1px;stroke-linejoin:miter;stroke-miterlimit:10;"/>
    <path d="M162.432,99.188l-0,58.287" style="fill:none;stroke:black;stroke-width:1px;"/>
    <path d="M165.432,252.975l-3,4.5l-3,-4.5" style="fill:none;stroke:black;stroke-width:1px;stroke-linecap:butt;stroke-linejoin:miter;stroke-miterlimit:10;"/>
    <path d="M162.432,198.376l-0,59.099" style="fill:none;stroke:black;stroke-width:1px;stroke-linecap:square;"/>
    <path d="M79.432,203.777l3,-4.5l3,4.5" style="fill:none;stroke:black;stroke-width:1px;stroke-linejoin:miter;stroke-miterlimit:10;"/>
    <path d="M82.432,257.564l-0,-58.287" style="fill:none;stroke:black;stroke-width:1px;"/>
</svg>
