<?xml version="1.0" encoding="UTF-8" standalone="no"?>
<!DOCTYPE svg PUBLIC "-//W3C//DTD SVG 1.1//EN" "http://www.w3.org/Graphics/SVG/1.1/DTD/svg11.dtd">
<svg width="100%" height="100%" viewBox="0 0 125 125" version="1.1" xmlns="http://www.w3.org/2000/svg" xmlns:xlink="http://www.w3.org/1999/xlink" xml:space="preserve" xmlns:serif="http://www.serif.com/" style="fill-rule:evenodd;clip-rule:evenodd;stroke-linecap:round;stroke-linejoin:round;stroke-miterlimit:1.5;">
    <g id="Logo">
        <circle id="Circle" cx="62.25" cy="62.25" r="60" style="fill:none;stroke:#1b1814;stroke-width:4.5px;"/>
        <g id="Double-M" serif:id="Double M">
            <path d="M44.18,36.892c-2.52,14.544 -6.48,34.416 -9.288,47.88c0.792,-0.216 1.512,-0.216 2.376,-0.216c0.792,-0 1.368,-0 2.16,0.216c1.08,-7.56 3.528,-23.616 5.328,-34.488l0.288,-0c5.472,11.448 10.512,23.112 15.12,34.272l1.368,-0c5.184,-11.808 10.296,-22.752 15.984,-34.056l0.288,-0c1.512,11.376 2.88,22.32 3.96,34.272c1.08,-0.216 2.448,-0.216 3.528,-0.216c1.08,-0 2.952,-0 4.032,0.216c-2.592,-15.408 -4.752,-30.384 -6.768,-47.88l-1.8,-0l-17.496,35.712l-0.576,-0c-5.688,-11.808 -10.8,-23.328 -16.128,-35.712l-2.376,-0Z" style="fill:#8a857b;fill-rule:nonzero;"/>
            <path d="M42.464,35.728c-2.52,14.544 -6.48,34.416 -9.288,47.88c0.792,-0.216 1.512,-0.216 2.376,-0.216c0.792,-0 1.368,-0 2.16,0.216c1.08,-7.56 3.528,-23.616 5.328,-34.488l0.288,-0c5.472,11.448 10.512,23.112 15.12,34.272l1.368,0c5.184,-11.808 10.296,-22.752 15.984,-34.056l0.288,-0c1.512,11.376 2.88,22.32 3.96,34.272c1.08,-0.216 2.448,-0.216 3.528,-0.216c1.08,-0 2.952,-0 4.032,0.216c-2.592,-15.408 -4.752,-30.384 -6.768,-47.88l-1.8,-0l-17.496,35.712l-0.576,0c-5.688,-11.808 -10.8,-23.328 -16.128,-35.712l-2.376,0Z" style="fill:#1b1814;fill-rule:nonzero;"/>
        </g>
    </g>
</svg>
