<svg width="177" height="177" viewBox="0 0 177 177" fill="none" xmlns="http://www.w3.org/2000/svg">
<path fill-rule="evenodd" clip-rule="evenodd" d="M88.5 177C137.377 177 177 137.377 177 88.5C177 39.6228 137.377 0 88.5 0C39.6228 0 0 39.6228 0 88.5C0 137.377 39.6228 177 88.5 177ZM88.5 163.572C129.961 163.572 163.572 129.961 163.572 88.5C163.572 47.0387 129.961 13.4276 88.5 13.4276C47.0387 13.4276 13.4276 47.0387 13.4276 88.5C13.4276 129.961 47.0387 163.572 88.5 163.572Z" fill="black"/>
<path d="M38.812 59.272C43.932 57.3093 48.7533 56.328 53.276 56.328C55.7507 56.328 58.0547 56.712 60.188 57.48C62.4067 58.1627 64.284 59.272 65.82 60.808C69.4893 57.8213 73.4147 56.328 77.596 56.328C79.644 56.328 81.564 56.712 83.356 57.48C85.2333 58.248 86.8547 59.4 88.22 60.936C89.6707 62.472 90.8227 64.392 91.676 66.696C92.5293 69 92.956 71.688 92.956 74.76V117H83.356V74.504C83.356 71.432 82.6733 69.0853 81.308 67.464C79.9427 65.8427 78.236 65.032 76.188 65.032C75.164 65.032 74.0973 65.288 72.988 65.8C71.8787 66.312 70.8547 67.1227 69.916 68.232C70.428 70.1947 70.684 72.3707 70.684 74.76V94.088H61.084V74.632C61.084 71.6453 60.6147 69.2987 59.676 67.592C58.7373 65.8853 56.9027 65.032 54.172 65.032C52.4653 65.032 50.5453 65.416 48.412 66.184V117H38.812V59.272Z" fill="black"/>
<path d="M83.356 59.272C88.476 57.3093 93.2973 56.328 97.82 56.328C100.295 56.328 102.599 56.712 104.732 57.48C106.951 58.1627 108.828 59.272 110.364 60.808C114.033 57.8213 117.959 56.328 122.14 56.328C124.188 56.328 126.108 56.712 127.9 57.48C129.777 58.248 131.399 59.4 132.764 60.936C134.215 62.472 135.367 64.392 136.22 66.696C137.073 69 137.5 71.688 137.5 74.76V95.88V117H127.9V74.504C127.9 71.432 127.217 69.0853 125.852 67.464C124.487 65.8427 122.78 65.032 120.732 65.032C119.708 65.032 118.641 65.288 117.532 65.8C116.423 66.312 115.399 67.1227 114.46 68.232C114.972 70.1947 115.228 72.3707 115.228 74.76V94.088H105.628V74.632C105.628 71.6453 105.159 69.2987 104.22 67.592C103.281 65.8853 101.447 65.032 98.716 65.032C97.0093 65.032 95.0893 65.416 92.956 66.184V117H83.356L83.356 59.272Z" fill="black"/>
</svg>
